M48
; DRILL file {KiCad 7.0.1} date Sat Apr 15 18:04:21 2023
; FORMAT={-:-/ absolute / metric / decimal}
; #@! TF.CreationDate,2023-04-15T18:04:21-04:00
; #@! TF.GenerationSoftware,Kicad,Pcbnew,7.0.1
; #@! TF.FileFunction,NonPlated,1,2,NPTH
FMAT,2
METRIC
; #@! TA.AperFunction,NonPlated,NPTH,ComponentDrill
T1C1.702
; #@! TA.AperFunction,NonPlated,NPTH,ComponentDrill
T2C3.000
; #@! TA.AperFunction,NonPlated,NPTH,ComponentDrill
T3C3.988
%
G90
G05
T1
X22.765Y-91.415
X30.816Y-74.15
X31.973Y-95.709
X38.866Y-56.885
X40.024Y-78.444
X45.182Y-88.417
X48.075Y-61.179
X53.233Y-71.151
X54.39Y-92.71
X61.284Y-53.886
X62.441Y-75.445
X64.487Y-92.094
X67.87Y-130.44
X70.492Y-58.18
X72.514Y-74.817
X73.695Y-96.387
X76.193Y-136.268
X79.82Y-104.288
X80.564Y-57.552
X81.722Y-79.111
X86.969Y-142.748
X87.871Y-87.023
X89.028Y-108.582
X89.772Y-61.846
X94.153Y-149.932
X95.475Y-115.792
X95.922Y-69.758
X97.079Y-91.317
X103.501Y-98.515
X104.683Y-120.086
X105.13Y-74.052
X111.577Y-81.262
X112.71Y-102.809
X120.785Y-85.555
X162.7Y-85.884
X170.751Y-103.149
X171.908Y-81.59
X178.355Y-74.38
X178.802Y-120.414
X179.959Y-98.855
X186.406Y-91.645
X187.563Y-70.086
X188.01Y-116.121
X189.846Y-150.031
X193.688Y-62.186
X194.457Y-108.911
X195.614Y-87.352
X197.031Y-142.847
X201.739Y-79.451
X202.896Y-57.892
X203.665Y-104.617
X207.271Y-136.614
X209.79Y-96.716
X210.947Y-75.157
X212.91Y-58.267
X215.594Y-130.786
X218.998Y-92.422
X220.985Y-75.521
X222.118Y-53.973
X229.012Y-92.797
X230.193Y-71.227
X235.352Y-61.254
X238.22Y-88.504
X243.403Y-78.52
X244.56Y-56.961
X251.454Y-95.785
X252.611Y-74.226
X260.662Y-91.491
T2
X24.989Y-89.65
X31.818Y-90.032
X33.04Y-72.385
X39.869Y-72.767
X41.091Y-55.12
X47.407Y-86.651
X47.919Y-55.501
X54.235Y-87.033
X55.458Y-69.386
X62.286Y-69.768
X63.509Y-52.121
X66.712Y-90.328
X70.337Y-52.503
X70.367Y-129.088
X73.54Y-90.71
X74.738Y-73.052
X77.026Y-130.649
X81.567Y-73.433
X82.045Y-102.523
X82.789Y-55.787
X88.873Y-102.904
X89.617Y-56.168
X89.663Y-141.85
X90.095Y-85.258
X95.949Y-144.544
X96.924Y-85.639
X97.7Y-114.027
X98.146Y-67.992
X104.528Y-114.408
X104.975Y-68.374
X105.726Y-96.75
X112.554Y-97.132
X113.801Y-79.496
X120.63Y-79.878
X162.778Y-83.045
X167.459Y-78.06
X170.828Y-100.311
X175.51Y-95.325
X178.433Y-71.541
X178.879Y-117.576
X183.114Y-66.556
X183.561Y-112.59
X186.483Y-88.807
X188.948Y-147.337
X191.165Y-83.821
X191.642Y-141.051
X193.765Y-59.347
X194.534Y-106.072
X198.447Y-54.361
X199.216Y-101.086
X201.816Y-76.612
X206.498Y-71.626
X206.855Y-133.805
X209.867Y-93.877
X210.6Y-128.082
X212.987Y-55.428
X214.549Y-88.892
X217.669Y-50.443
X221.063Y-72.682
X225.744Y-67.696
X229.089Y-89.959
X233.771Y-84.973
X235.43Y-58.416
X240.111Y-53.43
X243.48Y-75.681
X248.162Y-70.695
X251.531Y-92.946
X256.213Y-87.96
T3
X27.369Y-93.562
X35.42Y-76.297
X43.47Y-59.032
X49.786Y-90.563
X57.837Y-73.298
X65.888Y-56.033
X69.091Y-94.24
X72.031Y-133.354
X77.118Y-76.964
X84.424Y-106.435
X85.168Y-59.699
X90.561Y-146.34
X92.475Y-89.17
X100.079Y-117.939
X100.526Y-71.905
X108.106Y-100.662
X116.181Y-83.409
X167.304Y-83.737
X175.355Y-101.002
X182.959Y-72.233
X183.406Y-118.268
X191.01Y-89.498
X193.439Y-146.439
X198.292Y-60.039
X199.061Y-106.764
X206.343Y-77.304
X211.433Y-133.7
X214.394Y-94.569
X217.514Y-56.12
X225.589Y-73.374
X233.616Y-90.65
X239.956Y-59.108
X248.007Y-76.373
X256.058Y-93.638
T0
M30
