  0
SECTION
  2
HEADER
  9
$ANGBASE
  50
0.0
  9
$ANGDIR
  70
1
  9
$MEASUREMENT
  70
1
  0
ENDSEC
  0
SECTION
  2
TABLES
  0
TABLE
  2
LTYPE
  70
4
  0
LTYPE
  5
40F
  2
CONTINUOUS
  70
0
  3
Solid line
  72
65
  73
0
  40
0.0
  0
LTYPE
  5
410
  2
DASHDOT
 70
0
  3
Dash Dot ____ _ ____ _
 72
65
 73
4
 40
2.0
 49
1.25
 49
-0.25
 49
0.25
 49
-0.25
  0
LTYPE
  5
411
  2
DASHED
 70
0
  3
Dashed __ __ __ __ __
 72
65
 73
2
 40
0.75
 49
0.5
 49
-0.25
  0
LTYPE
  5
43B
  2
DOTTED
 70
0
  3
Dotted .  .  .  .
 72
65
 73
2
 40
0.2
 49
0.0
 49
-0.2
  0
ENDTAB
  0
TABLE
  2
STYLE
  70
4
  0
STYLE
  2
KICAD
  70
0
  40
0
  41
1
  42
1
  50
0
  71
0
  3
isocp.shx
  0
STYLE
  2
KICADB
  70
0
  40
0
  41
1
  42
1
  50
0
  71
0
  3
isocp.shx
  0
STYLE
  2
KICADI
  70
0
  40
0
  41
1
  42
1
  50
15
  71
0
  3
isocp.shx
  0
STYLE
  2
KICADBI
  70
0
  40
0
  41
1
  42
1
  50
15
  71
0
  3
isocp.shx
  0
ENDTAB
  0
TABLE
  2
LAYER
  70
1
  0
LAYER
  2
BLACK
  70
0
  62
7
  6
CONTINUOUS
  0
ENDTAB
  0
ENDSEC
  0
SECTION
  2
ENTITIES
0
LINE
8
BLACK
6
CONTINUOUS
10
147.79
20
-95.75
11
134.61
21
-95.76
0
LINE
8
BLACK
6
CONTINUOUS
10
38.87
20
-46.37
11
14.73
21
-98.14
0
LINE
8
BLACK
6
CONTINUOUS
10
97.83
20
-55.09
11
80.57
21
-47.04
0
LINE
8
BLACK
6
CONTINUOUS
10
134.65
20
-74.86
11
132.22
21
-74.86
0
LINE
8
BLACK
6
CONTINUOUS
10
58.78
20
-135.69
11
90.57
21
-159.82
0
LINE
8
BLACK
6
CONTINUOUS
10
134.61
20
-95.76
11
134.65
21
-74.92
0
LINE
8
BLACK
6
CONTINUOUS
10
224.72
20
-136.04
11
268.73
21
-98.25
0
LINE
8
BLACK
6
CONTINUOUS
10
90.57
20
-159.82
11
193.43
21
-159.93
0
LINE
8
BLACK
6
CONTINUOUS
10
244.57
20
-46.45
11
222.12
21
-43.45
0
LINE
8
BLACK
6
CONTINUOUS
10
150.23
20
-74.87
11
147.81
21
-74.87
0
LINE
8
BLACK
6
CONTINUOUS
10
134.65
20
-74.92
11
134.65
21
-74.86
0
LINE
8
BLACK
6
CONTINUOUS
10
185.64
20
-55.43
11
154.65
21
-79.13
0
LINE
8
BLACK
6
CONTINUOUS
10
61.27
20
-43.36
11
38.87
21
-46.37
0
LINE
8
BLACK
6
CONTINUOUS
10
128.83
20
-78.8
11
97.83
21
-55.09
0
LINE
8
BLACK
6
CONTINUOUS
10
268.73
20
-98.25
11
244.57
21
-46.45
0
LINE
8
BLACK
6
CONTINUOUS
10
154.65
20
-79.13
11
150.23
21
-74.87
0
LINE
8
BLACK
6
CONTINUOUS
10
80.57
20
-47.04
11
61.27
21
-43.36
0
LINE
8
BLACK
6
CONTINUOUS
10
132.22
20
-74.86
11
128.83
21
-78.8
0
LINE
8
BLACK
6
CONTINUOUS
10
222.12
20
-43.45
11
202.9
21
-47.38
0
LINE
8
BLACK
6
CONTINUOUS
10
147.81
20
-74.87
11
147.79
21
-95.75
0
LINE
8
BLACK
6
CONTINUOUS
10
14.73
20
-98.14
11
58.78
21
-135.69
0
LINE
8
BLACK
6
CONTINUOUS
10
193.43
20
-159.93
11
224.72
21
-136.04
0
LINE
8
BLACK
6
CONTINUOUS
10
202.9
20
-47.38
11
185.64
21
-55.43
0
LINE
8
BLACK
6
CONTINUOUS
10
48.55
20
-83.91
11
48.95
21
-84.31
0
LINE
8
BLACK
6
CONTINUOUS
10
48.95
20
-83.91
11
48.55
21
-84.31
0
LINE
8
BLACK
6
CONTINUOUS
10
49.0741
20
-70.9041
11
49.4741
21
-71.3041
0
LINE
8
BLACK
6
CONTINUOUS
10
49.4741
20
-70.9041
11
49.0741
21
-71.3041
0
LINE
8
BLACK
6
CONTINUOUS
10
54.29
20
-64.3
11
54.69
21
-64.7
0
LINE
8
BLACK
6
CONTINUOUS
10
54.69
20
-64.3
11
54.29
21
-64.7
0
LINE
8
BLACK
6
CONTINUOUS
10
55.67
20
-52.67
11
56.07
21
-53.07
0
LINE
8
BLACK
6
CONTINUOUS
10
56.07
20
-52.67
11
55.67
21
-53.07
0
LINE
8
BLACK
6
CONTINUOUS
10
61.83
20
-86.12
11
62.23
21
-86.52
0
LINE
8
BLACK
6
CONTINUOUS
10
62.23
20
-86.12
11
61.83
21
-86.52
0
LINE
8
BLACK
6
CONTINUOUS
10
64.59
20
-85.14
11
64.99
21
-85.54
0
LINE
8
BLACK
6
CONTINUOUS
10
64.99
20
-85.14
11
64.59
21
-85.54
0
LINE
8
BLACK
6
CONTINUOUS
10
64.76
20
-124.95
11
65.16
21
-125.35
0
LINE
8
BLACK
6
CONTINUOUS
10
65.16
20
-124.95
11
64.76
21
-125.35
0
LINE
8
BLACK
6
CONTINUOUS
10
68.91
20
-70.08
11
69.31
21
-70.48
0
LINE
8
BLACK
6
CONTINUOUS
10
69.31
20
-70.08
11
68.91
21
-70.48
0
LINE
8
BLACK
6
CONTINUOUS
10
75.005
20
-61.365
11
75.405
21
-61.765
0
LINE
8
BLACK
6
CONTINUOUS
10
75.405
20
-61.365
11
75.005
21
-61.765
0
LINE
8
BLACK
6
CONTINUOUS
10
78.82
20
-97.13
11
79.22
21
-97.53
0
LINE
8
BLACK
6
CONTINUOUS
10
79.22
20
-97.13
11
78.82
21
-97.53
0
LINE
8
BLACK
6
CONTINUOUS
10
80.52
20
-138.29
11
80.92
21
-138.69
0
LINE
8
BLACK
6
CONTINUOUS
10
80.92
20
-138.29
11
80.52
21
-138.69
0
LINE
8
BLACK
6
CONTINUOUS
10
85.0523
20
-87.0723
11
85.4523
21
-87.4723
0
LINE
8
BLACK
6
CONTINUOUS
10
85.4523
20
-87.0723
11
85.0523
21
-87.4723
0
LINE
8
BLACK
6
CONTINUOUS
10
85.67
20
-136.83
11
86.07
21
-137.23
0
LINE
8
BLACK
6
CONTINUOUS
10
86.07
20
-136.83
11
85.67
21
-137.23
0
LINE
8
BLACK
6
CONTINUOUS
10
91.69
20
-68.36
11
92.09
21
-68.76
0
LINE
8
BLACK
6
CONTINUOUS
10
92.09
20
-68.36
11
91.69
21
-68.76
0
LINE
8
BLACK
6
CONTINUOUS
10
94.1
20
-109.19
11
94.5
21
-109.59
0
LINE
8
BLACK
6
CONTINUOUS
10
94.5
20
-109.19
11
94.1
21
-109.59
0
LINE
8
BLACK
6
CONTINUOUS
10
103.165
20
-90.745
11
103.565
21
-91.145
0
LINE
8
BLACK
6
CONTINUOUS
10
103.565
20
-90.745
11
103.165
21
-91.145
0
LINE
8
BLACK
6
CONTINUOUS
10
105.03
20
-125.28
11
105.43
21
-125.68
0
LINE
8
BLACK
6
CONTINUOUS
10
105.43
20
-125.28
11
105.03
21
-125.68
0
LINE
8
BLACK
6
CONTINUOUS
10
106.727
20
-83.7927
11
107.127
21
-84.1927
0
LINE
8
BLACK
6
CONTINUOUS
10
107.127
20
-83.7927
11
106.727
21
-84.1927
0
LINE
8
BLACK
6
CONTINUOUS
10
112.67
20
-110.41
11
113.07
21
-110.81
0
LINE
8
BLACK
6
CONTINUOUS
10
113.07
20
-110.41
11
112.67
21
-110.81
0
LINE
8
BLACK
6
CONTINUOUS
10
120.87
20
-92.7
11
121.27
21
-93.1
0
LINE
8
BLACK
6
CONTINUOUS
10
121.27
20
-92.7
11
120.87
21
-93.1
0
LINE
8
BLACK
6
CONTINUOUS
10
125.034
20
-101.036
11
125.434
21
-101.436
0
LINE
8
BLACK
6
CONTINUOUS
10
125.434
20
-101.036
11
125.034
21
-101.436
0
LINE
8
BLACK
6
CONTINUOUS
10
130.262
20
-84.7303
11
130.662
21
-85.1303
0
LINE
8
BLACK
6
CONTINUOUS
10
130.662
20
-84.7303
11
130.262
21
-85.1303
0
LINE
8
BLACK
6
CONTINUOUS
10
133.929
20
-104.84
11
134.329
21
-105.239
0
LINE
8
BLACK
6
CONTINUOUS
10
134.329
20
-104.84
11
133.929
21
-105.239
0
LINE
8
BLACK
6
CONTINUOUS
10
135.94
20
-103.84
11
136.34
21
-104.239
0
LINE
8
BLACK
6
CONTINUOUS
10
136.34
20
-103.84
11
135.94
21
-104.239
0
LINE
8
BLACK
6
CONTINUOUS
10
137.226
20
-117.799
11
137.626
21
-118.199
0
LINE
8
BLACK
6
CONTINUOUS
10
137.626
20
-117.799
11
137.226
21
-118.199
0
LINE
8
BLACK
6
CONTINUOUS
10
138.45
20
-103.34
11
138.85
21
-103.739
0
LINE
8
BLACK
6
CONTINUOUS
10
138.85
20
-103.34
11
138.45
21
-103.739
0
LINE
8
BLACK
6
CONTINUOUS
10
139.246
20
-141.278
11
139.646
21
-141.678
0
LINE
8
BLACK
6
CONTINUOUS
10
139.646
20
-141.278
11
139.246
21
-141.678
0
LINE
8
BLACK
6
CONTINUOUS
10
141.02
20
-102.84
11
141.42
21
-103.239
0
LINE
8
BLACK
6
CONTINUOUS
10
141.42
20
-102.84
11
141.02
21
-103.239
0
LINE
8
BLACK
6
CONTINUOUS
10
150.944
20
-117.614
11
151.344
21
-118.014
0
LINE
8
BLACK
6
CONTINUOUS
10
151.344
20
-117.614
11
150.944
21
-118.014
0
LINE
8
BLACK
6
CONTINUOUS
10
159.966
20
-80.5963
11
160.366
21
-80.9963
0
LINE
8
BLACK
6
CONTINUOUS
10
160.366
20
-80.5963
11
159.966
21
-80.9963
0
LINE
8
BLACK
6
CONTINUOUS
10
163.27
20
-96.51
11
163.67
21
-96.91
0
LINE
8
BLACK
6
CONTINUOUS
10
163.67
20
-96.51
11
163.27
21
-96.91
0
LINE
8
BLACK
6
CONTINUOUS
10
171.5
20
-69.8095
11
171.9
21
-70.2095
0
LINE
8
BLACK
6
CONTINUOUS
10
171.9
20
-69.8095
11
171.5
21
-70.2095
0
LINE
8
BLACK
6
CONTINUOUS
10
172.01
20
-73.62
11
172.41
21
-74.02
0
LINE
8
BLACK
6
CONTINUOUS
10
172.41
20
-73.62
11
172.01
21
-74.02
0
LINE
8
BLACK
6
CONTINUOUS
10
172.41
20
-70.28
11
172.81
21
-70.68
0
LINE
8
BLACK
6
CONTINUOUS
10
172.81
20
-70.28
11
172.41
21
-70.68
0
LINE
8
BLACK
6
CONTINUOUS
10
173.53
20
-112.44
11
173.93
21
-112.84
0
LINE
8
BLACK
6
CONTINUOUS
10
173.93
20
-112.44
11
173.53
21
-112.84
0
LINE
8
BLACK
6
CONTINUOUS
10
174.44
20
-75.68
11
174.84
21
-76.08
0
LINE
8
BLACK
6
CONTINUOUS
10
174.84
20
-75.68
11
174.44
21
-76.08
0
LINE
8
BLACK
6
CONTINUOUS
10
175.23
20
-91.98
11
175.63
21
-92.38
0
LINE
8
BLACK
6
CONTINUOUS
10
175.63
20
-91.98
11
175.23
21
-92.38
0
LINE
8
BLACK
6
CONTINUOUS
10
181.29
20
-126.51
11
181.69
21
-126.91
0
LINE
8
BLACK
6
CONTINUOUS
10
181.69
20
-126.51
11
181.29
21
-126.91
0
LINE
8
BLACK
6
CONTINUOUS
10
186.16
20
-104.61
11
186.56
21
-105.01
0
LINE
8
BLACK
6
CONTINUOUS
10
186.56
20
-104.61
11
186.16
21
-105.01
0
LINE
8
BLACK
6
CONTINUOUS
10
187.86
20
-58.63
11
188.26
21
-59.03
0
LINE
8
BLACK
6
CONTINUOUS
10
188.26
20
-58.63
11
187.86
21
-59.03
0
LINE
8
BLACK
6
CONTINUOUS
10
190.47
20
-78.48
11
190.87
21
-78.88
0
LINE
8
BLACK
6
CONTINUOUS
10
190.87
20
-78.48
11
190.47
21
-78.88
0
LINE
8
BLACK
6
CONTINUOUS
10
192.45
20
-133.06
11
192.85
21
-133.46
0
LINE
8
BLACK
6
CONTINUOUS
10
192.85
20
-133.06
11
192.45
21
-133.46
0
LINE
8
BLACK
6
CONTINUOUS
10
200.4
20
-137.89
11
200.8
21
-138.29
0
LINE
8
BLACK
6
CONTINUOUS
10
200.8
20
-137.89
11
200.4
21
-138.29
0
LINE
8
BLACK
6
CONTINUOUS
10
203.58
20
-96.69
11
203.98
21
-97.09
0
LINE
8
BLACK
6
CONTINUOUS
10
203.98
20
-96.69
11
203.58
21
-97.09
0
LINE
8
BLACK
6
CONTINUOUS
10
206.56
20
-56.81
11
206.96
21
-57.21
0
LINE
8
BLACK
6
CONTINUOUS
10
206.96
20
-56.81
11
206.56
21
-57.21
0
LINE
8
BLACK
6
CONTINUOUS
10
212.098
20
-79.39
11
212.498
21
-79.79
0
LINE
8
BLACK
6
CONTINUOUS
10
212.498
20
-79.39
11
212.098
21
-79.79
0
LINE
8
BLACK
6
CONTINUOUS
10
221.3
20
-90.22
11
221.7
21
-90.62
0
LINE
8
BLACK
6
CONTINUOUS
10
221.7
20
-90.22
11
221.3
21
-90.62
0
LINE
8
BLACK
6
CONTINUOUS
10
230.19
20
-61.82
11
230.59
21
-62.22
0
LINE
8
BLACK
6
CONTINUOUS
10
230.59
20
-61.82
11
230.19
21
-62.22
0
LINE
8
BLACK
6
CONTINUOUS
10
237.27
20
-75.37
11
237.67
21
-75.77
0
LINE
8
BLACK
6
CONTINUOUS
10
237.67
20
-75.37
11
237.27
21
-75.77
0
LINE
8
BLACK
6
CONTINUOUS
10
245.07
20
-95.16
11
245.47
21
-95.56
0
LINE
8
BLACK
6
CONTINUOUS
10
245.47
20
-95.16
11
245.07
21
-95.56
0
CIRCLE
8
BLACK
10
28.98
20
-107.188
40
0.2
0
CIRCLE
8
BLACK
10
29.42
20
-106.128
40
0.2
0
CIRCLE
8
BLACK
10
29.42
20
-108.248
40
0.2
0
CIRCLE
8
BLACK
10
30.48
20
-105.688
40
0.2
0
CIRCLE
8
BLACK
10
30.48
20
-108.688
40
0.2
0
CIRCLE
8
BLACK
10
31.54
20
-106.128
40
0.2
0
CIRCLE
8
BLACK
10
31.54
20
-108.248
40
0.2
0
CIRCLE
8
BLACK
10
31.98
20
-107.188
40
0.2
0
CIRCLE
8
BLACK
10
50.316
20
-48.26
40
0.2
0
CIRCLE
8
BLACK
10
50.756
20
-47.2
40
0.2
0
CIRCLE
8
BLACK
10
50.756
20
-49.32
40
0.2
0
CIRCLE
8
BLACK
10
51.816
20
-46.76
40
0.2
0
CIRCLE
8
BLACK
10
51.816
20
-49.76
40
0.2
0
CIRCLE
8
BLACK
10
52.876
20
-47.2
40
0.2
0
CIRCLE
8
BLACK
10
52.876
20
-49.32
40
0.2
0
CIRCLE
8
BLACK
10
53.316
20
-48.26
40
0.2
0
CIRCLE
8
BLACK
10
96.036
20
-156.464
40
0.2
0
CIRCLE
8
BLACK
10
96.476
20
-155.404
40
0.2
0
CIRCLE
8
BLACK
10
96.476
20
-157.524
40
0.2
0
CIRCLE
8
BLACK
10
97.536
20
-154.964
40
0.2
0
CIRCLE
8
BLACK
10
97.536
20
-157.964
40
0.2
0
CIRCLE
8
BLACK
10
98.596
20
-155.404
40
0.2
0
CIRCLE
8
BLACK
10
98.596
20
-157.524
40
0.2
0
CIRCLE
8
BLACK
10
99.036
20
-156.464
40
0.2
0
CIRCLE
8
BLACK
10
140.74
20
-112.268
40
0.2
0
CIRCLE
8
BLACK
10
141.18
20
-111.208
40
0.2
0
CIRCLE
8
BLACK
10
141.18
20
-113.328
40
0.2
0
CIRCLE
8
BLACK
10
142.24
20
-110.768
40
0.2
0
CIRCLE
8
BLACK
10
142.24
20
-113.768
40
0.2
0
CIRCLE
8
BLACK
10
143.3
20
-111.208
40
0.2
0
CIRCLE
8
BLACK
10
143.3
20
-113.328
40
0.2
0
CIRCLE
8
BLACK
10
143.74
20
-112.268
40
0.2
0
CIRCLE
8
BLACK
10
186.206
20
-157.226
40
0.2
0
CIRCLE
8
BLACK
10
186.646
20
-156.166
40
0.2
0
CIRCLE
8
BLACK
10
186.646
20
-158.286
40
0.2
0
CIRCLE
8
BLACK
10
187.706
20
-155.726
40
0.2
0
CIRCLE
8
BLACK
10
187.706
20
-158.726
40
0.2
0
CIRCLE
8
BLACK
10
188.766
20
-156.166
40
0.2
0
CIRCLE
8
BLACK
10
188.766
20
-158.286
40
0.2
0
CIRCLE
8
BLACK
10
189.206
20
-157.226
40
0.2
0
CIRCLE
8
BLACK
10
229.108
20
-48.514
40
0.2
0
CIRCLE
8
BLACK
10
229.548
20
-47.454
40
0.2
0
CIRCLE
8
BLACK
10
229.548
20
-49.574
40
0.2
0
CIRCLE
8
BLACK
10
230.608
20
-47.014
40
0.2
0
CIRCLE
8
BLACK
10
230.608
20
-50.014
40
0.2
0
CIRCLE
8
BLACK
10
231.668
20
-47.454
40
0.2
0
CIRCLE
8
BLACK
10
231.668
20
-49.574
40
0.2
0
CIRCLE
8
BLACK
10
232.108
20
-48.514
40
0.2
0
CIRCLE
8
BLACK
10
251.186
20
-106.382
40
0.2
0
CIRCLE
8
BLACK
10
251.626
20
-105.322
40
0.2
0
CIRCLE
8
BLACK
10
251.626
20
-107.442
40
0.2
0
CIRCLE
8
BLACK
10
252.686
20
-104.882
40
0.2
0
CIRCLE
8
BLACK
10
252.686
20
-107.882
40
0.2
0
CIRCLE
8
BLACK
10
253.746
20
-105.322
40
0.2
0
CIRCLE
8
BLACK
10
253.746
20
-107.442
40
0.2
0
CIRCLE
8
BLACK
10
254.186
20
-106.382
40
0.2
0
LINE
8
BLACK
6
CONTINUOUS
10
133.604
20
-75.954
11
133.604
21
-76.954
0
LINE
8
BLACK
6
CONTINUOUS
10
133.104
20
-76.454
11
134.104
21
-76.454
0
LINE
8
BLACK
6
CONTINUOUS
10
133.604
20
-78.494
11
133.604
21
-79.494
0
LINE
8
BLACK
6
CONTINUOUS
10
133.104
20
-78.994
11
134.104
21
-78.994
0
LINE
8
BLACK
6
CONTINUOUS
10
133.604
20
-81.034
11
133.604
21
-82.034
0
LINE
8
BLACK
6
CONTINUOUS
10
133.104
20
-81.534
11
134.104
21
-81.534
0
LINE
8
BLACK
6
CONTINUOUS
10
133.604
20
-83.574
11
133.604
21
-84.574
0
LINE
8
BLACK
6
CONTINUOUS
10
133.104
20
-84.074
11
134.104
21
-84.074
0
LINE
8
BLACK
6
CONTINUOUS
10
133.604
20
-86.114
11
133.604
21
-87.114
0
LINE
8
BLACK
6
CONTINUOUS
10
133.104
20
-86.614
11
134.104
21
-86.614
0
LINE
8
BLACK
6
CONTINUOUS
10
133.604
20
-88.654
11
133.604
21
-89.654
0
LINE
8
BLACK
6
CONTINUOUS
10
133.104
20
-89.154
11
134.104
21
-89.154
0
LINE
8
BLACK
6
CONTINUOUS
10
133.604
20
-91.194
11
133.604
21
-92.194
0
LINE
8
BLACK
6
CONTINUOUS
10
133.104
20
-91.694
11
134.104
21
-91.694
0
LINE
8
BLACK
6
CONTINUOUS
10
133.604
20
-93.734
11
133.604
21
-94.734
0
LINE
8
BLACK
6
CONTINUOUS
10
133.104
20
-94.234
11
134.104
21
-94.234
0
LINE
8
BLACK
6
CONTINUOUS
10
133.604
20
-96.274
11
133.604
21
-97.274
0
LINE
8
BLACK
6
CONTINUOUS
10
133.104
20
-96.774
11
134.104
21
-96.774
0
LINE
8
BLACK
6
CONTINUOUS
10
136.144
20
-96.274
11
136.144
21
-97.274
0
LINE
8
BLACK
6
CONTINUOUS
10
135.644
20
-96.774
11
136.644
21
-96.774
0
LINE
8
BLACK
6
CONTINUOUS
10
138.684
20
-96.274
11
138.684
21
-97.274
0
LINE
8
BLACK
6
CONTINUOUS
10
138.184
20
-96.774
11
139.184
21
-96.774
0
LINE
8
BLACK
6
CONTINUOUS
10
141.224
20
-96.274
11
141.224
21
-97.274
0
LINE
8
BLACK
6
CONTINUOUS
10
140.724
20
-96.774
11
141.724
21
-96.774
0
LINE
8
BLACK
6
CONTINUOUS
10
143.764
20
-96.274
11
143.764
21
-97.274
0
LINE
8
BLACK
6
CONTINUOUS
10
143.264
20
-96.774
11
144.264
21
-96.774
0
LINE
8
BLACK
6
CONTINUOUS
10
146.304
20
-96.274
11
146.304
21
-97.274
0
LINE
8
BLACK
6
CONTINUOUS
10
145.804
20
-96.774
11
146.804
21
-96.774
0
LINE
8
BLACK
6
CONTINUOUS
10
148.844
20
-75.954
11
148.844
21
-76.954
0
LINE
8
BLACK
6
CONTINUOUS
10
148.344
20
-76.454
11
149.344
21
-76.454
0
LINE
8
BLACK
6
CONTINUOUS
10
148.844
20
-78.494
11
148.844
21
-79.494
0
LINE
8
BLACK
6
CONTINUOUS
10
148.344
20
-78.994
11
149.344
21
-78.994
0
LINE
8
BLACK
6
CONTINUOUS
10
148.844
20
-81.034
11
148.844
21
-82.034
0
LINE
8
BLACK
6
CONTINUOUS
10
148.344
20
-81.534
11
149.344
21
-81.534
0
LINE
8
BLACK
6
CONTINUOUS
10
148.844
20
-83.574
11
148.844
21
-84.574
0
LINE
8
BLACK
6
CONTINUOUS
10
148.344
20
-84.074
11
149.344
21
-84.074
0
LINE
8
BLACK
6
CONTINUOUS
10
148.844
20
-86.114
11
148.844
21
-87.114
0
LINE
8
BLACK
6
CONTINUOUS
10
148.344
20
-86.614
11
149.344
21
-86.614
0
LINE
8
BLACK
6
CONTINUOUS
10
148.844
20
-88.654
11
148.844
21
-89.654
0
LINE
8
BLACK
6
CONTINUOUS
10
148.344
20
-89.154
11
149.344
21
-89.154
0
LINE
8
BLACK
6
CONTINUOUS
10
148.844
20
-91.194
11
148.844
21
-92.194
0
LINE
8
BLACK
6
CONTINUOUS
10
148.344
20
-91.694
11
149.344
21
-91.694
0
LINE
8
BLACK
6
CONTINUOUS
10
148.844
20
-93.734
11
148.844
21
-94.734
0
LINE
8
BLACK
6
CONTINUOUS
10
148.344
20
-94.234
11
149.344
21
-94.234
0
LINE
8
BLACK
6
CONTINUOUS
10
148.844
20
-96.274
11
148.844
21
-97.274
0
LINE
8
BLACK
6
CONTINUOUS
10
148.344
20
-96.774
11
149.344
21
-96.774
0
LINE
8
BLACK
6
CONTINUOUS
10
156.915
20
-118.005
11
156.915
21
-119.005
0
LINE
8
BLACK
6
CONTINUOUS
10
156.415
20
-118.505
11
157.415
21
-118.505
0
LINE
8
BLACK
6
CONTINUOUS
10
156.915
20
-120.545
11
156.915
21
-121.545
0
LINE
8
BLACK
6
CONTINUOUS
10
156.415
20
-121.045
11
157.415
21
-121.045
0
LINE
8
BLACK
6
CONTINUOUS
10
156.915
20
-123.085
11
156.915
21
-124.085
0
LINE
8
BLACK
6
CONTINUOUS
10
156.415
20
-123.585
11
157.415
21
-123.585
0
LINE
8
BLACK
6
CONTINUOUS
10
159.455
20
-118.005
11
159.455
21
-119.005
0
LINE
8
BLACK
6
CONTINUOUS
10
158.955
20
-118.505
11
159.955
21
-118.505
0
LINE
8
BLACK
6
CONTINUOUS
10
159.455
20
-120.545
11
159.455
21
-121.545
0
LINE
8
BLACK
6
CONTINUOUS
10
158.955
20
-121.045
11
159.955
21
-121.045
0
LINE
8
BLACK
6
CONTINUOUS
10
159.455
20
-123.085
11
159.455
21
-124.085
0
LINE
8
BLACK
6
CONTINUOUS
10
158.955
20
-123.585
11
159.955
21
-123.585
0
LINE
8
BLACK
6
CONTINUOUS
10
31.2932
20
-108.001
11
31.2932
21
-106.375
0
LINE
8
BLACK
6
CONTINUOUS
10
31.2932
20
-106.375
11
29.6668
21
-106.375
0
LINE
8
BLACK
6
CONTINUOUS
10
29.6668
20
-106.375
11
29.6668
21
-108.001
0
LINE
8
BLACK
6
CONTINUOUS
10
29.6668
20
-108.001
11
31.2932
21
-108.001
0
LINE
8
BLACK
6
CONTINUOUS
10
52.6292
20
-49.0732
11
52.6292
21
-47.4468
0
LINE
8
BLACK
6
CONTINUOUS
10
52.6292
20
-47.4468
11
51.0028
21
-47.4468
0
LINE
8
BLACK
6
CONTINUOUS
10
51.0028
20
-47.4468
11
51.0028
21
-49.0732
0
LINE
8
BLACK
6
CONTINUOUS
10
51.0028
20
-49.0732
11
52.6292
21
-49.0732
0
LINE
8
BLACK
6
CONTINUOUS
10
98.3492
20
-157.277
11
98.3492
21
-155.651
0
LINE
8
BLACK
6
CONTINUOUS
10
98.3492
20
-155.651
11
96.7228
21
-155.651
0
LINE
8
BLACK
6
CONTINUOUS
10
96.7228
20
-155.651
11
96.7228
21
-157.277
0
LINE
8
BLACK
6
CONTINUOUS
10
96.7228
20
-157.277
11
98.3492
21
-157.277
0
LINE
8
BLACK
6
CONTINUOUS
10
143.053
20
-113.081
11
143.053
21
-111.455
0
LINE
8
BLACK
6
CONTINUOUS
10
143.053
20
-111.455
11
141.427
21
-111.455
0
LINE
8
BLACK
6
CONTINUOUS
10
141.427
20
-111.455
11
141.427
21
-113.081
0
LINE
8
BLACK
6
CONTINUOUS
10
141.427
20
-113.081
11
143.053
21
-113.081
0
LINE
8
BLACK
6
CONTINUOUS
10
188.519
20
-158.039
11
188.519
21
-156.413
0
LINE
8
BLACK
6
CONTINUOUS
10
188.519
20
-156.413
11
186.893
21
-156.413
0
LINE
8
BLACK
6
CONTINUOUS
10
186.893
20
-156.413
11
186.893
21
-158.039
0
LINE
8
BLACK
6
CONTINUOUS
10
186.893
20
-158.039
11
188.519
21
-158.039
0
LINE
8
BLACK
6
CONTINUOUS
10
231.421
20
-49.3272
11
231.421
21
-47.7008
0
LINE
8
BLACK
6
CONTINUOUS
10
231.421
20
-47.7008
11
229.795
21
-47.7008
0
LINE
8
BLACK
6
CONTINUOUS
10
229.795
20
-47.7008
11
229.795
21
-49.3272
0
LINE
8
BLACK
6
CONTINUOUS
10
229.795
20
-49.3272
11
231.421
21
-49.3272
0
LINE
8
BLACK
6
CONTINUOUS
10
253.499
20
-107.195
11
253.499
21
-105.569
0
LINE
8
BLACK
6
CONTINUOUS
10
253.499
20
-105.569
11
251.873
21
-105.569
0
LINE
8
BLACK
6
CONTINUOUS
10
251.873
20
-105.569
11
251.873
21
-107.195
0
LINE
8
BLACK
6
CONTINUOUS
10
251.873
20
-107.195
11
253.499
21
-107.195
0
LINE
8
BLACK
6
CONTINUOUS
10
17.1562
20
-163.105
11
17.1562
21
-161.105
0
LINE
8
BLACK
6
CONTINUOUS
10
17.1562
20
-161.105
11
17.6324
21
-161.105
0
LINE
8
BLACK
6
CONTINUOUS
10
17.6324
20
-161.105
11
17.9181
21
-161.2
0
LINE
8
BLACK
6
CONTINUOUS
10
17.9181
20
-161.2
11
18.1086
21
-161.391
0
LINE
8
BLACK
6
CONTINUOUS
10
18.1086
20
-161.391
11
18.2038
21
-161.581
0
LINE
8
BLACK
6
CONTINUOUS
10
18.2038
20
-161.581
11
18.299
21
-161.962
0
LINE
8
BLACK
6
CONTINUOUS
10
18.299
20
-161.962
11
18.299
21
-162.248
0
LINE
8
BLACK
6
CONTINUOUS
10
18.299
20
-162.248
11
18.2038
21
-162.629
0
LINE
8
BLACK
6
CONTINUOUS
10
18.2038
20
-162.629
11
18.1086
21
-162.82
0
LINE
8
BLACK
6
CONTINUOUS
10
18.1086
20
-162.82
11
17.9181
21
-163.01
0
LINE
8
BLACK
6
CONTINUOUS
10
17.9181
20
-163.01
11
17.6324
21
-163.105
0
LINE
8
BLACK
6
CONTINUOUS
10
17.6324
20
-163.105
11
17.1562
21
-163.105
0
LINE
8
BLACK
6
CONTINUOUS
10
19.1562
20
-163.105
11
19.1562
21
-161.772
0
LINE
8
BLACK
6
CONTINUOUS
10
19.1562
20
-162.153
11
19.2514
21
-161.962
0
LINE
8
BLACK
6
CONTINUOUS
10
19.2514
20
-161.962
11
19.3467
21
-161.867
0
LINE
8
BLACK
6
CONTINUOUS
10
19.3467
20
-161.867
11
19.5371
21
-161.772
0
LINE
8
BLACK
6
CONTINUOUS
10
19.5371
20
-161.772
11
19.7276
21
-161.772
0
LINE
8
BLACK
6
CONTINUOUS
10
20.3943
20
-163.105
11
20.3943
21
-161.772
0
LINE
8
BLACK
6
CONTINUOUS
10
20.3943
20
-161.105
11
20.299
21
-161.2
0
LINE
8
BLACK
6
CONTINUOUS
10
20.299
20
-161.2
11
20.3943
21
-161.296
0
LINE
8
BLACK
6
CONTINUOUS
10
20.3943
20
-161.296
11
20.4895
21
-161.2
0
LINE
8
BLACK
6
CONTINUOUS
10
20.4895
20
-161.2
11
20.3943
21
-161.105
0
LINE
8
BLACK
6
CONTINUOUS
10
20.3943
20
-161.105
11
20.3943
21
-161.296
0
LINE
8
BLACK
6
CONTINUOUS
10
21.6324
20
-163.105
11
21.4419
21
-163.01
0
LINE
8
BLACK
6
CONTINUOUS
10
21.4419
20
-163.01
11
21.3467
21
-162.82
0
LINE
8
BLACK
6
CONTINUOUS
10
21.3467
20
-162.82
11
21.3467
21
-161.105
0
LINE
8
BLACK
6
CONTINUOUS
10
22.68
20
-163.105
11
22.4895
21
-163.01
0
LINE
8
BLACK
6
CONTINUOUS
10
22.4895
20
-163.01
11
22.3943
21
-162.82
0
LINE
8
BLACK
6
CONTINUOUS
10
22.3943
20
-162.82
11
22.3943
21
-161.105
0
LINE
8
BLACK
6
CONTINUOUS
10
24.9657
20
-163.105
11
24.9657
21
-161.105
0
LINE
8
BLACK
6
CONTINUOUS
10
24.9657
20
-161.105
11
25.6324
21
-162.534
0
LINE
8
BLACK
6
CONTINUOUS
10
25.6324
20
-162.534
11
26.299
21
-161.105
0
LINE
8
BLACK
6
CONTINUOUS
10
26.299
20
-161.105
11
26.299
21
-163.105
0
LINE
8
BLACK
6
CONTINUOUS
10
28.1086
20
-163.105
11
28.1086
21
-162.058
0
LINE
8
BLACK
6
CONTINUOUS
10
28.1086
20
-162.058
11
28.0133
21
-161.867
0
LINE
8
BLACK
6
CONTINUOUS
10
28.0133
20
-161.867
11
27.8229
21
-161.772
0
LINE
8
BLACK
6
CONTINUOUS
10
27.8229
20
-161.772
11
27.4419
21
-161.772
0
LINE
8
BLACK
6
CONTINUOUS
10
27.4419
20
-161.772
11
27.2514
21
-161.867
0
LINE
8
BLACK
6
CONTINUOUS
10
28.1086
20
-163.01
11
27.9181
21
-163.105
0
LINE
8
BLACK
6
CONTINUOUS
10
27.9181
20
-163.105
11
27.4419
21
-163.105
0
LINE
8
BLACK
6
CONTINUOUS
10
27.4419
20
-163.105
11
27.2514
21
-163.01
0
LINE
8
BLACK
6
CONTINUOUS
10
27.2514
20
-163.01
11
27.1562
21
-162.82
0
LINE
8
BLACK
6
CONTINUOUS
10
27.1562
20
-162.82
11
27.1562
21
-162.629
0
LINE
8
BLACK
6
CONTINUOUS
10
27.1562
20
-162.629
11
27.2514
21
-162.439
0
LINE
8
BLACK
6
CONTINUOUS
10
27.2514
20
-162.439
11
27.4419
21
-162.343
0
LINE
8
BLACK
6
CONTINUOUS
10
27.4419
20
-162.343
11
27.9181
21
-162.343
0
LINE
8
BLACK
6
CONTINUOUS
10
27.9181
20
-162.343
11
28.1086
21
-162.248
0
LINE
8
BLACK
6
CONTINUOUS
10
29.061
20
-161.772
11
29.061
21
-163.772
0
LINE
8
BLACK
6
CONTINUOUS
10
29.061
20
-161.867
11
29.2514
21
-161.772
0
LINE
8
BLACK
6
CONTINUOUS
10
29.2514
20
-161.772
11
29.6324
21
-161.772
0
LINE
8
BLACK
6
CONTINUOUS
10
29.6324
20
-161.772
11
29.8229
21
-161.867
0
LINE
8
BLACK
6
CONTINUOUS
10
29.8229
20
-161.867
11
29.9181
21
-161.962
0
LINE
8
BLACK
6
CONTINUOUS
10
29.9181
20
-161.962
11
30.0133
21
-162.153
0
LINE
8
BLACK
6
CONTINUOUS
10
30.0133
20
-162.153
11
30.0133
21
-162.724
0
LINE
8
BLACK
6
CONTINUOUS
10
30.0133
20
-162.724
11
29.9181
21
-162.915
0
LINE
8
BLACK
6
CONTINUOUS
10
29.9181
20
-162.915
11
29.8229
21
-163.01
0
LINE
8
BLACK
6
CONTINUOUS
10
29.8229
20
-163.01
11
29.6324
21
-163.105
0
LINE
8
BLACK
6
CONTINUOUS
10
29.6324
20
-163.105
11
29.2514
21
-163.105
0
LINE
8
BLACK
6
CONTINUOUS
10
29.2514
20
-163.105
11
29.061
21
-163.01
0
LINE
8
BLACK
6
CONTINUOUS
10
30.8705
20
-162.915
11
30.9657
21
-163.01
0
LINE
8
BLACK
6
CONTINUOUS
10
30.9657
20
-163.01
11
30.8705
21
-163.105
0
LINE
8
BLACK
6
CONTINUOUS
10
30.8705
20
-163.105
11
30.7752
21
-163.01
0
LINE
8
BLACK
6
CONTINUOUS
10
30.7752
20
-163.01
11
30.8705
21
-162.915
0
LINE
8
BLACK
6
CONTINUOUS
10
30.8705
20
-162.915
11
30.8705
21
-163.105
0
LINE
8
BLACK
6
CONTINUOUS
10
30.8705
20
-161.867
11
30.9657
21
-161.962
0
LINE
8
BLACK
6
CONTINUOUS
10
30.9657
20
-161.962
11
30.8705
21
-162.058
0
LINE
8
BLACK
6
CONTINUOUS
10
30.8705
20
-162.058
11
30.7752
21
-161.962
0
LINE
8
BLACK
6
CONTINUOUS
10
30.7752
20
-161.962
11
30.8705
21
-161.867
0
LINE
8
BLACK
6
CONTINUOUS
10
30.8705
20
-161.867
11
30.8705
21
-162.058
0
LINE
8
BLACK
6
CONTINUOUS
10
14.28
20
-166.18
11
14.68
21
-166.58
0
LINE
8
BLACK
6
CONTINUOUS
10
14.68
20
-166.18
11
14.28
21
-166.58
0
LINE
8
BLACK
6
CONTINUOUS
10
17.5371
20
-165.305
11
17.7276
21
-165.305
0
LINE
8
BLACK
6
CONTINUOUS
10
17.7276
20
-165.305
11
17.9181
21
-165.4
0
LINE
8
BLACK
6
CONTINUOUS
10
17.9181
20
-165.4
11
18.0133
21
-165.496
0
LINE
8
BLACK
6
CONTINUOUS
10
18.0133
20
-165.496
11
18.1086
21
-165.686
0
LINE
8
BLACK
6
CONTINUOUS
10
18.1086
20
-165.686
11
18.2038
21
-166.067
0
LINE
8
BLACK
6
CONTINUOUS
10
18.2038
20
-166.067
11
18.2038
21
-166.543
0
LINE
8
BLACK
6
CONTINUOUS
10
18.2038
20
-166.543
11
18.1086
21
-166.924
0
LINE
8
BLACK
6
CONTINUOUS
10
18.1086
20
-166.924
11
18.0133
21
-167.115
0
LINE
8
BLACK
6
CONTINUOUS
10
18.0133
20
-167.115
11
17.9181
21
-167.21
0
LINE
8
BLACK
6
CONTINUOUS
10
17.9181
20
-167.21
11
17.7276
21
-167.305
0
LINE
8
BLACK
6
CONTINUOUS
10
17.7276
20
-167.305
11
17.5371
21
-167.305
0
LINE
8
BLACK
6
CONTINUOUS
10
17.5371
20
-167.305
11
17.3467
21
-167.21
0
LINE
8
BLACK
6
CONTINUOUS
10
17.3467
20
-167.21
11
17.2514
21
-167.115
0
LINE
8
BLACK
6
CONTINUOUS
10
17.2514
20
-167.115
11
17.1562
21
-166.924
0
LINE
8
BLACK
6
CONTINUOUS
10
17.1562
20
-166.924
11
17.061
21
-166.543
0
LINE
8
BLACK
6
CONTINUOUS
10
17.061
20
-166.543
11
17.061
21
-166.067
0
LINE
8
BLACK
6
CONTINUOUS
10
17.061
20
-166.067
11
17.1562
21
-165.686
0
LINE
8
BLACK
6
CONTINUOUS
10
17.1562
20
-165.686
11
17.2514
21
-165.496
0
LINE
8
BLACK
6
CONTINUOUS
10
17.2514
20
-165.496
11
17.3467
21
-165.4
0
LINE
8
BLACK
6
CONTINUOUS
10
17.3467
20
-165.4
11
17.5371
21
-165.305
0
LINE
8
BLACK
6
CONTINUOUS
10
19.061
20
-167.115
11
19.1562
21
-167.21
0
LINE
8
BLACK
6
CONTINUOUS
10
19.1562
20
-167.21
11
19.061
21
-167.305
0
LINE
8
BLACK
6
CONTINUOUS
10
19.061
20
-167.305
11
18.9657
21
-167.21
0
LINE
8
BLACK
6
CONTINUOUS
10
18.9657
20
-167.21
11
19.061
21
-167.115
0
LINE
8
BLACK
6
CONTINUOUS
10
19.061
20
-167.115
11
19.061
21
-167.305
0
LINE
8
BLACK
6
CONTINUOUS
10
20.8705
20
-165.972
11
20.8705
21
-167.305
0
LINE
8
BLACK
6
CONTINUOUS
10
20.3943
20
-165.21
11
19.9181
21
-166.639
0
LINE
8
BLACK
6
CONTINUOUS
10
19.9181
20
-166.639
11
21.1562
21
-166.639
0
LINE
8
BLACK
6
CONTINUOUS
10
22.299
20
-165.305
11
22.4895
21
-165.305
0
LINE
8
BLACK
6
CONTINUOUS
10
22.4895
20
-165.305
11
22.68
21
-165.4
0
LINE
8
BLACK
6
CONTINUOUS
10
22.68
20
-165.4
11
22.7752
21
-165.496
0
LINE
8
BLACK
6
CONTINUOUS
10
22.7752
20
-165.496
11
22.8705
21
-165.686
0
LINE
8
BLACK
6
CONTINUOUS
10
22.8705
20
-165.686
11
22.9657
21
-166.067
0
LINE
8
BLACK
6
CONTINUOUS
10
22.9657
20
-166.067
11
22.9657
21
-166.543
0
LINE
8
BLACK
6
CONTINUOUS
10
22.9657
20
-166.543
11
22.8705
21
-166.924
0
LINE
8
BLACK
6
CONTINUOUS
10
22.8705
20
-166.924
11
22.7752
21
-167.115
0
LINE
8
BLACK
6
CONTINUOUS
10
22.7752
20
-167.115
11
22.68
21
-167.21
0
LINE
8
BLACK
6
CONTINUOUS
10
22.68
20
-167.21
11
22.4895
21
-167.305
0
LINE
8
BLACK
6
CONTINUOUS
10
22.4895
20
-167.305
11
22.299
21
-167.305
0
LINE
8
BLACK
6
CONTINUOUS
10
22.299
20
-167.305
11
22.1086
21
-167.21
0
LINE
8
BLACK
6
CONTINUOUS
10
22.1086
20
-167.21
11
22.0133
21
-167.115
0
LINE
8
BLACK
6
CONTINUOUS
10
22.0133
20
-167.115
11
21.9181
21
-166.924
0
LINE
8
BLACK
6
CONTINUOUS
10
21.9181
20
-166.924
11
21.8229
21
-166.543
0
LINE
8
BLACK
6
CONTINUOUS
10
21.8229
20
-166.543
11
21.8229
21
-166.067
0
LINE
8
BLACK
6
CONTINUOUS
10
21.8229
20
-166.067
11
21.9181
21
-165.686
0
LINE
8
BLACK
6
CONTINUOUS
10
21.9181
20
-165.686
11
22.0133
21
-165.496
0
LINE
8
BLACK
6
CONTINUOUS
10
22.0133
20
-165.496
11
22.1086
21
-165.4
0
LINE
8
BLACK
6
CONTINUOUS
10
22.1086
20
-165.4
11
22.299
21
-165.305
0
LINE
8
BLACK
6
CONTINUOUS
10
24.2038
20
-165.305
11
24.3943
21
-165.305
0
LINE
8
BLACK
6
CONTINUOUS
10
24.3943
20
-165.305
11
24.5848
21
-165.4
0
LINE
8
BLACK
6
CONTINUOUS
10
24.5848
20
-165.4
11
24.68
21
-165.496
0
LINE
8
BLACK
6
CONTINUOUS
10
24.68
20
-165.496
11
24.7752
21
-165.686
0
LINE
8
BLACK
6
CONTINUOUS
10
24.7752
20
-165.686
11
24.8705
21
-166.067
0
LINE
8
BLACK
6
CONTINUOUS
10
24.8705
20
-166.067
11
24.8705
21
-166.543
0
LINE
8
BLACK
6
CONTINUOUS
10
24.8705
20
-166.543
11
24.7752
21
-166.924
0
LINE
8
BLACK
6
CONTINUOUS
10
24.7752
20
-166.924
11
24.68
21
-167.115
0
LINE
8
BLACK
6
CONTINUOUS
10
24.68
20
-167.115
11
24.5848
21
-167.21
0
LINE
8
BLACK
6
CONTINUOUS
10
24.5848
20
-167.21
11
24.3943
21
-167.305
0
LINE
8
BLACK
6
CONTINUOUS
10
24.3943
20
-167.305
11
24.2038
21
-167.305
0
LINE
8
BLACK
6
CONTINUOUS
10
24.2038
20
-167.305
11
24.0133
21
-167.21
0
LINE
8
BLACK
6
CONTINUOUS
10
24.0133
20
-167.21
11
23.9181
21
-167.115
0
LINE
8
BLACK
6
CONTINUOUS
10
23.9181
20
-167.115
11
23.8229
21
-166.924
0
LINE
8
BLACK
6
CONTINUOUS
10
23.8229
20
-166.924
11
23.7276
21
-166.543
0
LINE
8
BLACK
6
CONTINUOUS
10
23.7276
20
-166.543
11
23.7276
21
-166.067
0
LINE
8
BLACK
6
CONTINUOUS
10
23.7276
20
-166.067
11
23.8229
21
-165.686
0
LINE
8
BLACK
6
CONTINUOUS
10
23.8229
20
-165.686
11
23.9181
21
-165.496
0
LINE
8
BLACK
6
CONTINUOUS
10
23.9181
20
-165.496
11
24.0133
21
-165.4
0
LINE
8
BLACK
6
CONTINUOUS
10
24.0133
20
-165.4
11
24.2038
21
-165.305
0
LINE
8
BLACK
6
CONTINUOUS
10
25.7276
20
-167.305
11
25.7276
21
-165.972
0
LINE
8
BLACK
6
CONTINUOUS
10
25.7276
20
-166.162
11
25.8229
21
-166.067
0
LINE
8
BLACK
6
CONTINUOUS
10
25.8229
20
-166.067
11
26.0133
21
-165.972
0
LINE
8
BLACK
6
CONTINUOUS
10
26.0133
20
-165.972
11
26.299
21
-165.972
0
LINE
8
BLACK
6
CONTINUOUS
10
26.299
20
-165.972
11
26.4895
21
-166.067
0
LINE
8
BLACK
6
CONTINUOUS
10
26.4895
20
-166.067
11
26.5848
21
-166.258
0
LINE
8
BLACK
6
CONTINUOUS
10
26.5848
20
-166.258
11
26.5848
21
-167.305
0
LINE
8
BLACK
6
CONTINUOUS
10
26.5848
20
-166.258
11
26.68
21
-166.067
0
LINE
8
BLACK
6
CONTINUOUS
10
26.68
20
-166.067
11
26.8705
21
-165.972
0
LINE
8
BLACK
6
CONTINUOUS
10
26.8705
20
-165.972
11
27.1562
21
-165.972
0
LINE
8
BLACK
6
CONTINUOUS
10
27.1562
20
-165.972
11
27.3467
21
-166.067
0
LINE
8
BLACK
6
CONTINUOUS
10
27.3467
20
-166.067
11
27.4419
21
-166.258
0
LINE
8
BLACK
6
CONTINUOUS
10
27.4419
20
-166.258
11
27.4419
21
-167.305
0
LINE
8
BLACK
6
CONTINUOUS
10
28.3943
20
-167.305
11
28.3943
21
-165.972
0
LINE
8
BLACK
6
CONTINUOUS
10
28.3943
20
-166.162
11
28.4895
21
-166.067
0
LINE
8
BLACK
6
CONTINUOUS
10
28.4895
20
-166.067
11
28.68
21
-165.972
0
LINE
8
BLACK
6
CONTINUOUS
10
28.68
20
-165.972
11
28.9657
21
-165.972
0
LINE
8
BLACK
6
CONTINUOUS
10
28.9657
20
-165.972
11
29.1562
21
-166.067
0
LINE
8
BLACK
6
CONTINUOUS
10
29.1562
20
-166.067
11
29.2514
21
-166.258
0
LINE
8
BLACK
6
CONTINUOUS
10
29.2514
20
-166.258
11
29.2514
21
-167.305
0
LINE
8
BLACK
6
CONTINUOUS
10
29.2514
20
-166.258
11
29.3467
21
-166.067
0
LINE
8
BLACK
6
CONTINUOUS
10
29.3467
20
-166.067
11
29.5371
21
-165.972
0
LINE
8
BLACK
6
CONTINUOUS
10
29.5371
20
-165.972
11
29.8229
21
-165.972
0
LINE
8
BLACK
6
CONTINUOUS
10
29.8229
20
-165.972
11
30.0133
21
-166.067
0
LINE
8
BLACK
6
CONTINUOUS
10
30.0133
20
-166.067
11
30.1086
21
-166.258
0
LINE
8
BLACK
6
CONTINUOUS
10
30.1086
20
-166.258
11
30.1086
21
-167.305
0
LINE
8
BLACK
6
CONTINUOUS
10
34.0133
20
-165.21
11
32.299
21
-167.781
0
LINE
8
BLACK
6
CONTINUOUS
10
36.5848
20
-165.305
11
36.7752
21
-165.305
0
LINE
8
BLACK
6
CONTINUOUS
10
36.7752
20
-165.305
11
36.9657
21
-165.4
0
LINE
8
BLACK
6
CONTINUOUS
10
36.9657
20
-165.4
11
37.061
21
-165.496
0
LINE
8
BLACK
6
CONTINUOUS
10
37.061
20
-165.496
11
37.1562
21
-165.686
0
LINE
8
BLACK
6
CONTINUOUS
10
37.1562
20
-165.686
11
37.2514
21
-166.067
0
LINE
8
BLACK
6
CONTINUOUS
10
37.2514
20
-166.067
11
37.2514
21
-166.543
0
LINE
8
BLACK
6
CONTINUOUS
10
37.2514
20
-166.543
11
37.1562
21
-166.924
0
LINE
8
BLACK
6
CONTINUOUS
10
37.1562
20
-166.924
11
37.061
21
-167.115
0
LINE
8
BLACK
6
CONTINUOUS
10
37.061
20
-167.115
11
36.9657
21
-167.21
0
LINE
8
BLACK
6
CONTINUOUS
10
36.9657
20
-167.21
11
36.7752
21
-167.305
0
LINE
8
BLACK
6
CONTINUOUS
10
36.7752
20
-167.305
11
36.5848
21
-167.305
0
LINE
8
BLACK
6
CONTINUOUS
10
36.5848
20
-167.305
11
36.3943
21
-167.21
0
LINE
8
BLACK
6
CONTINUOUS
10
36.3943
20
-167.21
11
36.299
21
-167.115
0
LINE
8
BLACK
6
CONTINUOUS
10
36.299
20
-167.115
11
36.2038
21
-166.924
0
LINE
8
BLACK
6
CONTINUOUS
10
36.2038
20
-166.924
11
36.1086
21
-166.543
0
LINE
8
BLACK
6
CONTINUOUS
10
36.1086
20
-166.543
11
36.1086
21
-166.067
0
LINE
8
BLACK
6
CONTINUOUS
10
36.1086
20
-166.067
11
36.2038
21
-165.686
0
LINE
8
BLACK
6
CONTINUOUS
10
36.2038
20
-165.686
11
36.299
21
-165.496
0
LINE
8
BLACK
6
CONTINUOUS
10
36.299
20
-165.496
11
36.3943
21
-165.4
0
LINE
8
BLACK
6
CONTINUOUS
10
36.3943
20
-165.4
11
36.5848
21
-165.305
0
LINE
8
BLACK
6
CONTINUOUS
10
38.1086
20
-167.115
11
38.2038
21
-167.21
0
LINE
8
BLACK
6
CONTINUOUS
10
38.2038
20
-167.21
11
38.1086
21
-167.305
0
LINE
8
BLACK
6
CONTINUOUS
10
38.1086
20
-167.305
11
38.0133
21
-167.21
0
LINE
8
BLACK
6
CONTINUOUS
10
38.0133
20
-167.21
11
38.1086
21
-167.115
0
LINE
8
BLACK
6
CONTINUOUS
10
38.1086
20
-167.115
11
38.1086
21
-167.305
0
LINE
8
BLACK
6
CONTINUOUS
10
39.4419
20
-165.305
11
39.6324
21
-165.305
0
LINE
8
BLACK
6
CONTINUOUS
10
39.6324
20
-165.305
11
39.8229
21
-165.4
0
LINE
8
BLACK
6
CONTINUOUS
10
39.8229
20
-165.4
11
39.9181
21
-165.496
0
LINE
8
BLACK
6
CONTINUOUS
10
39.9181
20
-165.496
11
40.0133
21
-165.686
0
LINE
8
BLACK
6
CONTINUOUS
10
40.0133
20
-165.686
11
40.1086
21
-166.067
0
LINE
8
BLACK
6
CONTINUOUS
10
40.1086
20
-166.067
11
40.1086
21
-166.543
0
LINE
8
BLACK
6
CONTINUOUS
10
40.1086
20
-166.543
11
40.0133
21
-166.924
0
LINE
8
BLACK
6
CONTINUOUS
10
40.0133
20
-166.924
11
39.9181
21
-167.115
0
LINE
8
BLACK
6
CONTINUOUS
10
39.9181
20
-167.115
11
39.8229
21
-167.21
0
LINE
8
BLACK
6
CONTINUOUS
10
39.8229
20
-167.21
11
39.6324
21
-167.305
0
LINE
8
BLACK
6
CONTINUOUS
10
39.6324
20
-167.305
11
39.4419
21
-167.305
0
LINE
8
BLACK
6
CONTINUOUS
10
39.4419
20
-167.305
11
39.2514
21
-167.21
0
LINE
8
BLACK
6
CONTINUOUS
10
39.2514
20
-167.21
11
39.1562
21
-167.115
0
LINE
8
BLACK
6
CONTINUOUS
10
39.1562
20
-167.115
11
39.061
21
-166.924
0
LINE
8
BLACK
6
CONTINUOUS
10
39.061
20
-166.924
11
38.9657
21
-166.543
0
LINE
8
BLACK
6
CONTINUOUS
10
38.9657
20
-166.543
11
38.9657
21
-166.067
0
LINE
8
BLACK
6
CONTINUOUS
10
38.9657
20
-166.067
11
39.061
21
-165.686
0
LINE
8
BLACK
6
CONTINUOUS
10
39.061
20
-165.686
11
39.1562
21
-165.496
0
LINE
8
BLACK
6
CONTINUOUS
10
39.1562
20
-165.496
11
39.2514
21
-165.4
0
LINE
8
BLACK
6
CONTINUOUS
10
39.2514
20
-165.4
11
39.4419
21
-165.305
0
LINE
8
BLACK
6
CONTINUOUS
10
42.0133
20
-167.305
11
40.8705
21
-167.305
0
LINE
8
BLACK
6
CONTINUOUS
10
41.4419
20
-167.305
11
41.4419
21
-165.305
0
LINE
8
BLACK
6
CONTINUOUS
10
41.4419
20
-165.305
11
41.2514
21
-165.591
0
LINE
8
BLACK
6
CONTINUOUS
10
41.2514
20
-165.591
11
41.061
21
-165.781
0
LINE
8
BLACK
6
CONTINUOUS
10
41.061
20
-165.781
11
40.8705
21
-165.877
0
LINE
8
BLACK
6
CONTINUOUS
10
43.8229
20
-165.305
11
42.8705
21
-165.305
0
LINE
8
BLACK
6
CONTINUOUS
10
42.8705
20
-165.305
11
42.7752
21
-166.258
0
LINE
8
BLACK
6
CONTINUOUS
10
42.7752
20
-166.258
11
42.8705
21
-166.162
0
LINE
8
BLACK
6
CONTINUOUS
10
42.8705
20
-166.162
11
43.061
21
-166.067
0
LINE
8
BLACK
6
CONTINUOUS
10
43.061
20
-166.067
11
43.5371
21
-166.067
0
LINE
8
BLACK
6
CONTINUOUS
10
43.5371
20
-166.067
11
43.7276
21
-166.162
0
LINE
8
BLACK
6
CONTINUOUS
10
43.7276
20
-166.162
11
43.8229
21
-166.258
0
LINE
8
BLACK
6
CONTINUOUS
10
43.8229
20
-166.258
11
43.9181
21
-166.448
0
LINE
8
BLACK
6
CONTINUOUS
10
43.9181
20
-166.448
11
43.9181
21
-166.924
0
LINE
8
BLACK
6
CONTINUOUS
10
43.9181
20
-166.924
11
43.8229
21
-167.115
0
LINE
8
BLACK
6
CONTINUOUS
10
43.8229
20
-167.115
11
43.7276
21
-167.21
0
LINE
8
BLACK
6
CONTINUOUS
10
43.7276
20
-167.21
11
43.5371
21
-167.305
0
LINE
8
BLACK
6
CONTINUOUS
10
43.5371
20
-167.305
11
43.061
21
-167.305
0
LINE
8
BLACK
6
CONTINUOUS
10
43.061
20
-167.305
11
42.8705
21
-167.21
0
LINE
8
BLACK
6
CONTINUOUS
10
42.8705
20
-167.21
11
42.7752
21
-167.115
0
LINE
8
BLACK
6
CONTINUOUS
10
44.5848
20
-165.305
11
45.9181
21
-165.305
0
LINE
8
BLACK
6
CONTINUOUS
10
45.9181
20
-165.305
11
45.061
21
-167.305
0
LINE
8
BLACK
6
CONTINUOUS
10
46.5848
20
-165.305
11
46.5848
21
-165.686
0
LINE
8
BLACK
6
CONTINUOUS
10
47.3467
20
-165.305
11
47.3467
21
-165.686
0
LINE
8
BLACK
6
CONTINUOUS
10
50.2991
20
-168.067
11
50.2038
21
-167.972
0
LINE
8
BLACK
6
CONTINUOUS
10
50.2038
20
-167.972
11
50.0133
21
-167.686
0
LINE
8
BLACK
6
CONTINUOUS
10
50.0133
20
-167.686
11
49.9181
21
-167.496
0
LINE
8
BLACK
6
CONTINUOUS
10
49.9181
20
-167.496
11
49.8229
21
-167.21
0
LINE
8
BLACK
6
CONTINUOUS
10
49.8229
20
-167.21
11
49.7276
21
-166.734
0
LINE
8
BLACK
6
CONTINUOUS
10
49.7276
20
-166.734
11
49.7276
21
-166.353
0
LINE
8
BLACK
6
CONTINUOUS
10
49.7276
20
-166.353
11
49.8229
21
-165.877
0
LINE
8
BLACK
6
CONTINUOUS
10
49.8229
20
-165.877
11
49.9181
21
-165.591
0
LINE
8
BLACK
6
CONTINUOUS
10
49.9181
20
-165.591
11
50.0133
21
-165.4
0
LINE
8
BLACK
6
CONTINUOUS
10
50.0133
20
-165.4
11
50.2038
21
-165.115
0
LINE
8
BLACK
6
CONTINUOUS
10
50.2038
20
-165.115
11
50.2991
21
-165.02
0
LINE
8
BLACK
6
CONTINUOUS
10
52.0133
20
-165.305
11
51.061
21
-165.305
0
LINE
8
BLACK
6
CONTINUOUS
10
51.061
20
-165.305
11
50.9657
21
-166.258
0
LINE
8
BLACK
6
CONTINUOUS
10
50.9657
20
-166.258
11
51.061
21
-166.162
0
LINE
8
BLACK
6
CONTINUOUS
10
51.061
20
-166.162
11
51.2514
21
-166.067
0
LINE
8
BLACK
6
CONTINUOUS
10
51.2514
20
-166.067
11
51.7276
21
-166.067
0
LINE
8
BLACK
6
CONTINUOUS
10
51.7276
20
-166.067
11
51.9181
21
-166.162
0
LINE
8
BLACK
6
CONTINUOUS
10
51.9181
20
-166.162
11
52.0133
21
-166.258
0
LINE
8
BLACK
6
CONTINUOUS
10
52.0133
20
-166.258
11
52.1086
21
-166.448
0
LINE
8
BLACK
6
CONTINUOUS
10
52.1086
20
-166.448
11
52.1086
21
-166.924
0
LINE
8
BLACK
6
CONTINUOUS
10
52.1086
20
-166.924
11
52.0133
21
-167.115
0
LINE
8
BLACK
6
CONTINUOUS
10
52.0133
20
-167.115
11
51.9181
21
-167.21
0
LINE
8
BLACK
6
CONTINUOUS
10
51.9181
20
-167.21
11
51.7276
21
-167.305
0
LINE
8
BLACK
6
CONTINUOUS
10
51.7276
20
-167.305
11
51.2514
21
-167.305
0
LINE
8
BLACK
6
CONTINUOUS
10
51.2514
20
-167.305
11
51.061
21
-167.21
0
LINE
8
BLACK
6
CONTINUOUS
10
51.061
20
-167.21
11
50.9657
21
-167.115
0
LINE
8
BLACK
6
CONTINUOUS
10
53.3467
20
-165.305
11
53.5371
21
-165.305
0
LINE
8
BLACK
6
CONTINUOUS
10
53.5371
20
-165.305
11
53.7276
21
-165.4
0
LINE
8
BLACK
6
CONTINUOUS
10
53.7276
20
-165.4
11
53.8229
21
-165.496
0
LINE
8
BLACK
6
CONTINUOUS
10
53.8229
20
-165.496
11
53.9181
21
-165.686
0
LINE
8
BLACK
6
CONTINUOUS
10
53.9181
20
-165.686
11
54.0133
21
-166.067
0
LINE
8
BLACK
6
CONTINUOUS
10
54.0133
20
-166.067
11
54.0133
21
-166.543
0
LINE
8
BLACK
6
CONTINUOUS
10
54.0133
20
-166.543
11
53.9181
21
-166.924
0
LINE
8
BLACK
6
CONTINUOUS
10
53.9181
20
-166.924
11
53.8229
21
-167.115
0
LINE
8
BLACK
6
CONTINUOUS
10
53.8229
20
-167.115
11
53.7276
21
-167.21
0
LINE
8
BLACK
6
CONTINUOUS
10
53.7276
20
-167.21
11
53.5371
21
-167.305
0
LINE
8
BLACK
6
CONTINUOUS
10
53.5371
20
-167.305
11
53.3467
21
-167.305
0
LINE
8
BLACK
6
CONTINUOUS
10
53.3467
20
-167.305
11
53.1562
21
-167.21
0
LINE
8
BLACK
6
CONTINUOUS
10
53.1562
20
-167.21
11
53.061
21
-167.115
0
LINE
8
BLACK
6
CONTINUOUS
10
53.061
20
-167.115
11
52.9657
21
-166.924
0
LINE
8
BLACK
6
CONTINUOUS
10
52.9657
20
-166.924
11
52.8705
21
-166.543
0
LINE
8
BLACK
6
CONTINUOUS
10
52.8705
20
-166.543
11
52.8705
21
-166.067
0
LINE
8
BLACK
6
CONTINUOUS
10
52.8705
20
-166.067
11
52.9657
21
-165.686
0
LINE
8
BLACK
6
CONTINUOUS
10
52.9657
20
-165.686
11
53.061
21
-165.496
0
LINE
8
BLACK
6
CONTINUOUS
10
53.061
20
-165.496
11
53.1562
21
-165.4
0
LINE
8
BLACK
6
CONTINUOUS
10
53.1562
20
-165.4
11
53.3467
21
-165.305
0
LINE
8
BLACK
6
CONTINUOUS
10
56.3943
20
-167.305
11
56.3943
21
-165.305
0
LINE
8
BLACK
6
CONTINUOUS
10
57.2514
20
-167.305
11
57.2514
21
-166.258
0
LINE
8
BLACK
6
CONTINUOUS
10
57.2514
20
-166.258
11
57.1562
21
-166.067
0
LINE
8
BLACK
6
CONTINUOUS
10
57.1562
20
-166.067
11
56.9657
21
-165.972
0
LINE
8
BLACK
6
CONTINUOUS
10
56.9657
20
-165.972
11
56.68
21
-165.972
0
LINE
8
BLACK
6
CONTINUOUS
10
56.68
20
-165.972
11
56.4895
21
-166.067
0
LINE
8
BLACK
6
CONTINUOUS
10
56.4895
20
-166.067
11
56.3943
21
-166.162
0
LINE
8
BLACK
6
CONTINUOUS
10
58.4895
20
-167.305
11
58.2991
21
-167.21
0
LINE
8
BLACK
6
CONTINUOUS
10
58.2991
20
-167.21
11
58.2038
21
-167.115
0
LINE
8
BLACK
6
CONTINUOUS
10
58.2038
20
-167.115
11
58.1086
21
-166.924
0
LINE
8
BLACK
6
CONTINUOUS
10
58.1086
20
-166.924
11
58.1086
21
-166.353
0
LINE
8
BLACK
6
CONTINUOUS
10
58.1086
20
-166.353
11
58.2038
21
-166.162
0
LINE
8
BLACK
6
CONTINUOUS
10
58.2038
20
-166.162
11
58.2991
21
-166.067
0
LINE
8
BLACK
6
CONTINUOUS
10
58.2991
20
-166.067
11
58.4895
21
-165.972
0
LINE
8
BLACK
6
CONTINUOUS
10
58.4895
20
-165.972
11
58.7752
21
-165.972
0
LINE
8
BLACK
6
CONTINUOUS
10
58.7752
20
-165.972
11
58.9657
21
-166.067
0
LINE
8
BLACK
6
CONTINUOUS
10
58.9657
20
-166.067
11
59.061
21
-166.162
0
LINE
8
BLACK
6
CONTINUOUS
10
59.061
20
-166.162
11
59.1562
21
-166.353
0
LINE
8
BLACK
6
CONTINUOUS
10
59.1562
20
-166.353
11
59.1562
21
-166.924
0
LINE
8
BLACK
6
CONTINUOUS
10
59.1562
20
-166.924
11
59.061
21
-167.115
0
LINE
8
BLACK
6
CONTINUOUS
10
59.061
20
-167.115
11
58.9657
21
-167.21
0
LINE
8
BLACK
6
CONTINUOUS
10
58.9657
20
-167.21
11
58.7752
21
-167.305
0
LINE
8
BLACK
6
CONTINUOUS
10
58.7752
20
-167.305
11
58.4895
21
-167.305
0
LINE
8
BLACK
6
CONTINUOUS
10
60.2991
20
-167.305
11
60.1086
21
-167.21
0
LINE
8
BLACK
6
CONTINUOUS
10
60.1086
20
-167.21
11
60.0133
21
-167.02
0
LINE
8
BLACK
6
CONTINUOUS
10
60.0133
20
-167.02
11
60.0133
21
-165.305
0
LINE
8
BLACK
6
CONTINUOUS
10
61.8229
20
-167.21
11
61.6324
21
-167.305
0
LINE
8
BLACK
6
CONTINUOUS
10
61.6324
20
-167.305
11
61.2514
21
-167.305
0
LINE
8
BLACK
6
CONTINUOUS
10
61.2514
20
-167.305
11
61.061
21
-167.21
0
LINE
8
BLACK
6
CONTINUOUS
10
61.061
20
-167.21
11
60.9657
21
-167.02
0
LINE
8
BLACK
6
CONTINUOUS
10
60.9657
20
-167.02
11
60.9657
21
-166.258
0
LINE
8
BLACK
6
CONTINUOUS
10
60.9657
20
-166.258
11
61.061
21
-166.067
0
LINE
8
BLACK
6
CONTINUOUS
10
61.061
20
-166.067
11
61.2514
21
-165.972
0
LINE
8
BLACK
6
CONTINUOUS
10
61.2514
20
-165.972
11
61.6324
21
-165.972
0
LINE
8
BLACK
6
CONTINUOUS
10
61.6324
20
-165.972
11
61.8229
21
-166.067
0
LINE
8
BLACK
6
CONTINUOUS
10
61.8229
20
-166.067
11
61.9181
21
-166.258
0
LINE
8
BLACK
6
CONTINUOUS
10
61.9181
20
-166.258
11
61.9181
21
-166.448
0
LINE
8
BLACK
6
CONTINUOUS
10
61.9181
20
-166.448
11
60.9657
21
-166.639
0
LINE
8
BLACK
6
CONTINUOUS
10
62.68
20
-167.21
11
62.8705
21
-167.305
0
LINE
8
BLACK
6
CONTINUOUS
10
62.8705
20
-167.305
11
63.2514
21
-167.305
0
LINE
8
BLACK
6
CONTINUOUS
10
63.2514
20
-167.305
11
63.4419
21
-167.21
0
LINE
8
BLACK
6
CONTINUOUS
10
63.4419
20
-167.21
11
63.5371
21
-167.02
0
LINE
8
BLACK
6
CONTINUOUS
10
63.5371
20
-167.02
11
63.5371
21
-166.924
0
LINE
8
BLACK
6
CONTINUOUS
10
63.5371
20
-166.924
11
63.4419
21
-166.734
0
LINE
8
BLACK
6
CONTINUOUS
10
63.4419
20
-166.734
11
63.2514
21
-166.639
0
LINE
8
BLACK
6
CONTINUOUS
10
63.2514
20
-166.639
11
62.9657
21
-166.639
0
LINE
8
BLACK
6
CONTINUOUS
10
62.9657
20
-166.639
11
62.7752
21
-166.543
0
LINE
8
BLACK
6
CONTINUOUS
10
62.7752
20
-166.543
11
62.68
21
-166.353
0
LINE
8
BLACK
6
CONTINUOUS
10
62.68
20
-166.353
11
62.68
21
-166.258
0
LINE
8
BLACK
6
CONTINUOUS
10
62.68
20
-166.258
11
62.7752
21
-166.067
0
LINE
8
BLACK
6
CONTINUOUS
10
62.7752
20
-166.067
11
62.9657
21
-165.972
0
LINE
8
BLACK
6
CONTINUOUS
10
62.9657
20
-165.972
11
63.2514
21
-165.972
0
LINE
8
BLACK
6
CONTINUOUS
10
63.2514
20
-165.972
11
63.4419
21
-166.067
0
LINE
8
BLACK
6
CONTINUOUS
10
64.2038
20
-168.067
11
64.2991
21
-167.972
0
LINE
8
BLACK
6
CONTINUOUS
10
64.2991
20
-167.972
11
64.4895
21
-167.686
0
LINE
8
BLACK
6
CONTINUOUS
10
64.4895
20
-167.686
11
64.5848
21
-167.496
0
LINE
8
BLACK
6
CONTINUOUS
10
64.5848
20
-167.496
11
64.68
21
-167.21
0
LINE
8
BLACK
6
CONTINUOUS
10
64.68
20
-167.21
11
64.7752
21
-166.734
0
LINE
8
BLACK
6
CONTINUOUS
10
64.7752
20
-166.734
11
64.7752
21
-166.353
0
LINE
8
BLACK
6
CONTINUOUS
10
64.7752
20
-166.353
11
64.68
21
-165.877
0
LINE
8
BLACK
6
CONTINUOUS
10
64.68
20
-165.877
11
64.5848
21
-165.591
0
LINE
8
BLACK
6
CONTINUOUS
10
64.5848
20
-165.591
11
64.4895
21
-165.4
0
LINE
8
BLACK
6
CONTINUOUS
10
64.4895
20
-165.4
11
64.2991
21
-165.115
0
LINE
8
BLACK
6
CONTINUOUS
10
64.2991
20
-165.115
11
64.2038
21
-165.02
0
CIRCLE
8
BLACK
10
14.48
20
-169.02
40
0.2
0
LINE
8
BLACK
6
CONTINUOUS
10
17.5371
20
-167.945
11
17.7276
21
-167.945
0
LINE
8
BLACK
6
CONTINUOUS
10
17.7276
20
-167.945
11
17.9181
21
-168.04
0
LINE
8
BLACK
6
CONTINUOUS
10
17.9181
20
-168.04
11
18.0133
21
-168.136
0
LINE
8
BLACK
6
CONTINUOUS
10
18.0133
20
-168.136
11
18.1086
21
-168.326
0
LINE
8
BLACK
6
CONTINUOUS
10
18.1086
20
-168.326
11
18.2038
21
-168.707
0
LINE
8
BLACK
6
CONTINUOUS
10
18.2038
20
-168.707
11
18.2038
21
-169.183
0
LINE
8
BLACK
6
CONTINUOUS
10
18.2038
20
-169.183
11
18.1086
21
-169.564
0
LINE
8
BLACK
6
CONTINUOUS
10
18.1086
20
-169.564
11
18.0133
21
-169.755
0
LINE
8
BLACK
6
CONTINUOUS
10
18.0133
20
-169.755
11
17.9181
21
-169.85
0
LINE
8
BLACK
6
CONTINUOUS
10
17.9181
20
-169.85
11
17.7276
21
-169.945
0
LINE
8
BLACK
6
CONTINUOUS
10
17.7276
20
-169.945
11
17.5371
21
-169.945
0
LINE
8
BLACK
6
CONTINUOUS
10
17.5371
20
-169.945
11
17.3467
21
-169.85
0
LINE
8
BLACK
6
CONTINUOUS
10
17.3467
20
-169.85
11
17.2514
21
-169.755
0
LINE
8
BLACK
6
CONTINUOUS
10
17.2514
20
-169.755
11
17.1562
21
-169.564
0
LINE
8
BLACK
6
CONTINUOUS
10
17.1562
20
-169.564
11
17.061
21
-169.183
0
LINE
8
BLACK
6
CONTINUOUS
10
17.061
20
-169.183
11
17.061
21
-168.707
0
LINE
8
BLACK
6
CONTINUOUS
10
17.061
20
-168.707
11
17.1562
21
-168.326
0
LINE
8
BLACK
6
CONTINUOUS
10
17.1562
20
-168.326
11
17.2514
21
-168.136
0
LINE
8
BLACK
6
CONTINUOUS
10
17.2514
20
-168.136
11
17.3467
21
-168.04
0
LINE
8
BLACK
6
CONTINUOUS
10
17.3467
20
-168.04
11
17.5371
21
-167.945
0
LINE
8
BLACK
6
CONTINUOUS
10
19.061
20
-169.755
11
19.1562
21
-169.85
0
LINE
8
BLACK
6
CONTINUOUS
10
19.1562
20
-169.85
11
19.061
21
-169.945
0
LINE
8
BLACK
6
CONTINUOUS
10
19.061
20
-169.945
11
18.9657
21
-169.85
0
LINE
8
BLACK
6
CONTINUOUS
10
18.9657
20
-169.85
11
19.061
21
-169.755
0
LINE
8
BLACK
6
CONTINUOUS
10
19.061
20
-169.755
11
19.061
21
-169.945
0
LINE
8
BLACK
6
CONTINUOUS
10
20.8705
20
-168.612
11
20.8705
21
-169.945
0
LINE
8
BLACK
6
CONTINUOUS
10
20.3943
20
-167.85
11
19.9181
21
-169.279
0
LINE
8
BLACK
6
CONTINUOUS
10
19.9181
20
-169.279
11
21.1562
21
-169.279
0
LINE
8
BLACK
6
CONTINUOUS
10
22.299
20
-167.945
11
22.4895
21
-167.945
0
LINE
8
BLACK
6
CONTINUOUS
10
22.4895
20
-167.945
11
22.68
21
-168.04
0
LINE
8
BLACK
6
CONTINUOUS
10
22.68
20
-168.04
11
22.7752
21
-168.136
0
LINE
8
BLACK
6
CONTINUOUS
10
22.7752
20
-168.136
11
22.8705
21
-168.326
0
LINE
8
BLACK
6
CONTINUOUS
10
22.8705
20
-168.326
11
22.9657
21
-168.707
0
LINE
8
BLACK
6
CONTINUOUS
10
22.9657
20
-168.707
11
22.9657
21
-169.183
0
LINE
8
BLACK
6
CONTINUOUS
10
22.9657
20
-169.183
11
22.8705
21
-169.564
0
LINE
8
BLACK
6
CONTINUOUS
10
22.8705
20
-169.564
11
22.7752
21
-169.755
0
LINE
8
BLACK
6
CONTINUOUS
10
22.7752
20
-169.755
11
22.68
21
-169.85
0
LINE
8
BLACK
6
CONTINUOUS
10
22.68
20
-169.85
11
22.4895
21
-169.945
0
LINE
8
BLACK
6
CONTINUOUS
10
22.4895
20
-169.945
11
22.299
21
-169.945
0
LINE
8
BLACK
6
CONTINUOUS
10
22.299
20
-169.945
11
22.1086
21
-169.85
0
LINE
8
BLACK
6
CONTINUOUS
10
22.1086
20
-169.85
11
22.0133
21
-169.755
0
LINE
8
BLACK
6
CONTINUOUS
10
22.0133
20
-169.755
11
21.9181
21
-169.564
0
LINE
8
BLACK
6
CONTINUOUS
10
21.9181
20
-169.564
11
21.8229
21
-169.183
0
LINE
8
BLACK
6
CONTINUOUS
10
21.8229
20
-169.183
11
21.8229
21
-168.707
0
LINE
8
BLACK
6
CONTINUOUS
10
21.8229
20
-168.707
11
21.9181
21
-168.326
0
LINE
8
BLACK
6
CONTINUOUS
10
21.9181
20
-168.326
11
22.0133
21
-168.136
0
LINE
8
BLACK
6
CONTINUOUS
10
22.0133
20
-168.136
11
22.1086
21
-168.04
0
LINE
8
BLACK
6
CONTINUOUS
10
22.1086
20
-168.04
11
22.299
21
-167.945
0
LINE
8
BLACK
6
CONTINUOUS
10
24.2038
20
-167.945
11
24.3943
21
-167.945
0
LINE
8
BLACK
6
CONTINUOUS
10
24.3943
20
-167.945
11
24.5848
21
-168.04
0
LINE
8
BLACK
6
CONTINUOUS
10
24.5848
20
-168.04
11
24.68
21
-168.136
0
LINE
8
BLACK
6
CONTINUOUS
10
24.68
20
-168.136
11
24.7752
21
-168.326
0
LINE
8
BLACK
6
CONTINUOUS
10
24.7752
20
-168.326
11
24.8705
21
-168.707
0
LINE
8
BLACK
6
CONTINUOUS
10
24.8705
20
-168.707
11
24.8705
21
-169.183
0
LINE
8
BLACK
6
CONTINUOUS
10
24.8705
20
-169.183
11
24.7752
21
-169.564
0
LINE
8
BLACK
6
CONTINUOUS
10
24.7752
20
-169.564
11
24.68
21
-169.755
0
LINE
8
BLACK
6
CONTINUOUS
10
24.68
20
-169.755
11
24.5848
21
-169.85
0
LINE
8
BLACK
6
CONTINUOUS
10
24.5848
20
-169.85
11
24.3943
21
-169.945
0
LINE
8
BLACK
6
CONTINUOUS
10
24.3943
20
-169.945
11
24.2038
21
-169.945
0
LINE
8
BLACK
6
CONTINUOUS
10
24.2038
20
-169.945
11
24.0133
21
-169.85
0
LINE
8
BLACK
6
CONTINUOUS
10
24.0133
20
-169.85
11
23.9181
21
-169.755
0
LINE
8
BLACK
6
CONTINUOUS
10
23.9181
20
-169.755
11
23.8229
21
-169.564
0
LINE
8
BLACK
6
CONTINUOUS
10
23.8229
20
-169.564
11
23.7276
21
-169.183
0
LINE
8
BLACK
6
CONTINUOUS
10
23.7276
20
-169.183
11
23.7276
21
-168.707
0
LINE
8
BLACK
6
CONTINUOUS
10
23.7276
20
-168.707
11
23.8229
21
-168.326
0
LINE
8
BLACK
6
CONTINUOUS
10
23.8229
20
-168.326
11
23.9181
21
-168.136
0
LINE
8
BLACK
6
CONTINUOUS
10
23.9181
20
-168.136
11
24.0133
21
-168.04
0
LINE
8
BLACK
6
CONTINUOUS
10
24.0133
20
-168.04
11
24.2038
21
-167.945
0
LINE
8
BLACK
6
CONTINUOUS
10
25.7276
20
-169.945
11
25.7276
21
-168.612
0
LINE
8
BLACK
6
CONTINUOUS
10
25.7276
20
-168.802
11
25.8229
21
-168.707
0
LINE
8
BLACK
6
CONTINUOUS
10
25.8229
20
-168.707
11
26.0133
21
-168.612
0
LINE
8
BLACK
6
CONTINUOUS
10
26.0133
20
-168.612
11
26.299
21
-168.612
0
LINE
8
BLACK
6
CONTINUOUS
10
26.299
20
-168.612
11
26.4895
21
-168.707
0
LINE
8
BLACK
6
CONTINUOUS
10
26.4895
20
-168.707
11
26.5848
21
-168.898
0
LINE
8
BLACK
6
CONTINUOUS
10
26.5848
20
-168.898
11
26.5848
21
-169.945
0
LINE
8
BLACK
6
CONTINUOUS
10
26.5848
20
-168.898
11
26.68
21
-168.707
0
LINE
8
BLACK
6
CONTINUOUS
10
26.68
20
-168.707
11
26.8705
21
-168.612
0
LINE
8
BLACK
6
CONTINUOUS
10
26.8705
20
-168.612
11
27.1562
21
-168.612
0
LINE
8
BLACK
6
CONTINUOUS
10
27.1562
20
-168.612
11
27.3467
21
-168.707
0
LINE
8
BLACK
6
CONTINUOUS
10
27.3467
20
-168.707
11
27.4419
21
-168.898
0
LINE
8
BLACK
6
CONTINUOUS
10
27.4419
20
-168.898
11
27.4419
21
-169.945
0
LINE
8
BLACK
6
CONTINUOUS
10
28.3943
20
-169.945
11
28.3943
21
-168.612
0
LINE
8
BLACK
6
CONTINUOUS
10
28.3943
20
-168.802
11
28.4895
21
-168.707
0
LINE
8
BLACK
6
CONTINUOUS
10
28.4895
20
-168.707
11
28.68
21
-168.612
0
LINE
8
BLACK
6
CONTINUOUS
10
28.68
20
-168.612
11
28.9657
21
-168.612
0
LINE
8
BLACK
6
CONTINUOUS
10
28.9657
20
-168.612
11
29.1562
21
-168.707
0
LINE
8
BLACK
6
CONTINUOUS
10
29.1562
20
-168.707
11
29.2514
21
-168.898
0
LINE
8
BLACK
6
CONTINUOUS
10
29.2514
20
-168.898
11
29.2514
21
-169.945
0
LINE
8
BLACK
6
CONTINUOUS
10
29.2514
20
-168.898
11
29.3467
21
-168.707
0
LINE
8
BLACK
6
CONTINUOUS
10
29.3467
20
-168.707
11
29.5371
21
-168.612
0
LINE
8
BLACK
6
CONTINUOUS
10
29.5371
20
-168.612
11
29.8229
21
-168.612
0
LINE
8
BLACK
6
CONTINUOUS
10
29.8229
20
-168.612
11
30.0133
21
-168.707
0
LINE
8
BLACK
6
CONTINUOUS
10
30.0133
20
-168.707
11
30.1086
21
-168.898
0
LINE
8
BLACK
6
CONTINUOUS
10
30.1086
20
-168.898
11
30.1086
21
-169.945
0
LINE
8
BLACK
6
CONTINUOUS
10
34.0133
20
-167.85
11
32.299
21
-170.421
0
LINE
8
BLACK
6
CONTINUOUS
10
36.5848
20
-167.945
11
36.7752
21
-167.945
0
LINE
8
BLACK
6
CONTINUOUS
10
36.7752
20
-167.945
11
36.9657
21
-168.04
0
LINE
8
BLACK
6
CONTINUOUS
10
36.9657
20
-168.04
11
37.061
21
-168.136
0
LINE
8
BLACK
6
CONTINUOUS
10
37.061
20
-168.136
11
37.1562
21
-168.326
0
LINE
8
BLACK
6
CONTINUOUS
10
37.1562
20
-168.326
11
37.2514
21
-168.707
0
LINE
8
BLACK
6
CONTINUOUS
10
37.2514
20
-168.707
11
37.2514
21
-169.183
0
LINE
8
BLACK
6
CONTINUOUS
10
37.2514
20
-169.183
11
37.1562
21
-169.564
0
LINE
8
BLACK
6
CONTINUOUS
10
37.1562
20
-169.564
11
37.061
21
-169.755
0
LINE
8
BLACK
6
CONTINUOUS
10
37.061
20
-169.755
11
36.9657
21
-169.85
0
LINE
8
BLACK
6
CONTINUOUS
10
36.9657
20
-169.85
11
36.7752
21
-169.945
0
LINE
8
BLACK
6
CONTINUOUS
10
36.7752
20
-169.945
11
36.5848
21
-169.945
0
LINE
8
BLACK
6
CONTINUOUS
10
36.5848
20
-169.945
11
36.3943
21
-169.85
0
LINE
8
BLACK
6
CONTINUOUS
10
36.3943
20
-169.85
11
36.299
21
-169.755
0
LINE
8
BLACK
6
CONTINUOUS
10
36.299
20
-169.755
11
36.2038
21
-169.564
0
LINE
8
BLACK
6
CONTINUOUS
10
36.2038
20
-169.564
11
36.1086
21
-169.183
0
LINE
8
BLACK
6
CONTINUOUS
10
36.1086
20
-169.183
11
36.1086
21
-168.707
0
LINE
8
BLACK
6
CONTINUOUS
10
36.1086
20
-168.707
11
36.2038
21
-168.326
0
LINE
8
BLACK
6
CONTINUOUS
10
36.2038
20
-168.326
11
36.299
21
-168.136
0
LINE
8
BLACK
6
CONTINUOUS
10
36.299
20
-168.136
11
36.3943
21
-168.04
0
LINE
8
BLACK
6
CONTINUOUS
10
36.3943
20
-168.04
11
36.5848
21
-167.945
0
LINE
8
BLACK
6
CONTINUOUS
10
38.1086
20
-169.755
11
38.2038
21
-169.85
0
LINE
8
BLACK
6
CONTINUOUS
10
38.2038
20
-169.85
11
38.1086
21
-169.945
0
LINE
8
BLACK
6
CONTINUOUS
10
38.1086
20
-169.945
11
38.0133
21
-169.85
0
LINE
8
BLACK
6
CONTINUOUS
10
38.0133
20
-169.85
11
38.1086
21
-169.755
0
LINE
8
BLACK
6
CONTINUOUS
10
38.1086
20
-169.755
11
38.1086
21
-169.945
0
LINE
8
BLACK
6
CONTINUOUS
10
39.4419
20
-167.945
11
39.6324
21
-167.945
0
LINE
8
BLACK
6
CONTINUOUS
10
39.6324
20
-167.945
11
39.8229
21
-168.04
0
LINE
8
BLACK
6
CONTINUOUS
10
39.8229
20
-168.04
11
39.9181
21
-168.136
0
LINE
8
BLACK
6
CONTINUOUS
10
39.9181
20
-168.136
11
40.0133
21
-168.326
0
LINE
8
BLACK
6
CONTINUOUS
10
40.0133
20
-168.326
11
40.1086
21
-168.707
0
LINE
8
BLACK
6
CONTINUOUS
10
40.1086
20
-168.707
11
40.1086
21
-169.183
0
LINE
8
BLACK
6
CONTINUOUS
10
40.1086
20
-169.183
11
40.0133
21
-169.564
0
LINE
8
BLACK
6
CONTINUOUS
10
40.0133
20
-169.564
11
39.9181
21
-169.755
0
LINE
8
BLACK
6
CONTINUOUS
10
39.9181
20
-169.755
11
39.8229
21
-169.85
0
LINE
8
BLACK
6
CONTINUOUS
10
39.8229
20
-169.85
11
39.6324
21
-169.945
0
LINE
8
BLACK
6
CONTINUOUS
10
39.6324
20
-169.945
11
39.4419
21
-169.945
0
LINE
8
BLACK
6
CONTINUOUS
10
39.4419
20
-169.945
11
39.2514
21
-169.85
0
LINE
8
BLACK
6
CONTINUOUS
10
39.2514
20
-169.85
11
39.1562
21
-169.755
0
LINE
8
BLACK
6
CONTINUOUS
10
39.1562
20
-169.755
11
39.061
21
-169.564
0
LINE
8
BLACK
6
CONTINUOUS
10
39.061
20
-169.564
11
38.9657
21
-169.183
0
LINE
8
BLACK
6
CONTINUOUS
10
38.9657
20
-169.183
11
38.9657
21
-168.707
0
LINE
8
BLACK
6
CONTINUOUS
10
38.9657
20
-168.707
11
39.061
21
-168.326
0
LINE
8
BLACK
6
CONTINUOUS
10
39.061
20
-168.326
11
39.1562
21
-168.136
0
LINE
8
BLACK
6
CONTINUOUS
10
39.1562
20
-168.136
11
39.2514
21
-168.04
0
LINE
8
BLACK
6
CONTINUOUS
10
39.2514
20
-168.04
11
39.4419
21
-167.945
0
LINE
8
BLACK
6
CONTINUOUS
10
42.0133
20
-169.945
11
40.8705
21
-169.945
0
LINE
8
BLACK
6
CONTINUOUS
10
41.4419
20
-169.945
11
41.4419
21
-167.945
0
LINE
8
BLACK
6
CONTINUOUS
10
41.4419
20
-167.945
11
41.2514
21
-168.231
0
LINE
8
BLACK
6
CONTINUOUS
10
41.2514
20
-168.231
11
41.061
21
-168.421
0
LINE
8
BLACK
6
CONTINUOUS
10
41.061
20
-168.421
11
40.8705
21
-168.517
0
LINE
8
BLACK
6
CONTINUOUS
10
43.8229
20
-167.945
11
42.8705
21
-167.945
0
LINE
8
BLACK
6
CONTINUOUS
10
42.8705
20
-167.945
11
42.7752
21
-168.898
0
LINE
8
BLACK
6
CONTINUOUS
10
42.7752
20
-168.898
11
42.8705
21
-168.802
0
LINE
8
BLACK
6
CONTINUOUS
10
42.8705
20
-168.802
11
43.061
21
-168.707
0
LINE
8
BLACK
6
CONTINUOUS
10
43.061
20
-168.707
11
43.5371
21
-168.707
0
LINE
8
BLACK
6
CONTINUOUS
10
43.5371
20
-168.707
11
43.7276
21
-168.802
0
LINE
8
BLACK
6
CONTINUOUS
10
43.7276
20
-168.802
11
43.8229
21
-168.898
0
LINE
8
BLACK
6
CONTINUOUS
10
43.8229
20
-168.898
11
43.9181
21
-169.088
0
LINE
8
BLACK
6
CONTINUOUS
10
43.9181
20
-169.088
11
43.9181
21
-169.564
0
LINE
8
BLACK
6
CONTINUOUS
10
43.9181
20
-169.564
11
43.8229
21
-169.755
0
LINE
8
BLACK
6
CONTINUOUS
10
43.8229
20
-169.755
11
43.7276
21
-169.85
0
LINE
8
BLACK
6
CONTINUOUS
10
43.7276
20
-169.85
11
43.5371
21
-169.945
0
LINE
8
BLACK
6
CONTINUOUS
10
43.5371
20
-169.945
11
43.061
21
-169.945
0
LINE
8
BLACK
6
CONTINUOUS
10
43.061
20
-169.945
11
42.8705
21
-169.85
0
LINE
8
BLACK
6
CONTINUOUS
10
42.8705
20
-169.85
11
42.7752
21
-169.755
0
LINE
8
BLACK
6
CONTINUOUS
10
44.5848
20
-167.945
11
45.9181
21
-167.945
0
LINE
8
BLACK
6
CONTINUOUS
10
45.9181
20
-167.945
11
45.061
21
-169.945
0
LINE
8
BLACK
6
CONTINUOUS
10
46.5848
20
-167.945
11
46.5848
21
-168.326
0
LINE
8
BLACK
6
CONTINUOUS
10
47.3467
20
-167.945
11
47.3467
21
-168.326
0
LINE
8
BLACK
6
CONTINUOUS
10
50.2991
20
-170.707
11
50.2038
21
-170.612
0
LINE
8
BLACK
6
CONTINUOUS
10
50.2038
20
-170.612
11
50.0133
21
-170.326
0
LINE
8
BLACK
6
CONTINUOUS
10
50.0133
20
-170.326
11
49.9181
21
-170.136
0
LINE
8
BLACK
6
CONTINUOUS
10
49.9181
20
-170.136
11
49.8229
21
-169.85
0
LINE
8
BLACK
6
CONTINUOUS
10
49.8229
20
-169.85
11
49.7276
21
-169.374
0
LINE
8
BLACK
6
CONTINUOUS
10
49.7276
20
-169.374
11
49.7276
21
-168.993
0
LINE
8
BLACK
6
CONTINUOUS
10
49.7276
20
-168.993
11
49.8229
21
-168.517
0
LINE
8
BLACK
6
CONTINUOUS
10
49.8229
20
-168.517
11
49.9181
21
-168.231
0
LINE
8
BLACK
6
CONTINUOUS
10
49.9181
20
-168.231
11
50.0133
21
-168.04
0
LINE
8
BLACK
6
CONTINUOUS
10
50.0133
20
-168.04
11
50.2038
21
-167.755
0
LINE
8
BLACK
6
CONTINUOUS
10
50.2038
20
-167.755
11
50.2991
21
-167.66
0
LINE
8
BLACK
6
CONTINUOUS
10
52.0133
20
-167.945
11
51.061
21
-167.945
0
LINE
8
BLACK
6
CONTINUOUS
10
51.061
20
-167.945
11
50.9657
21
-168.898
0
LINE
8
BLACK
6
CONTINUOUS
10
50.9657
20
-168.898
11
51.061
21
-168.802
0
LINE
8
BLACK
6
CONTINUOUS
10
51.061
20
-168.802
11
51.2514
21
-168.707
0
LINE
8
BLACK
6
CONTINUOUS
10
51.2514
20
-168.707
11
51.7276
21
-168.707
0
LINE
8
BLACK
6
CONTINUOUS
10
51.7276
20
-168.707
11
51.9181
21
-168.802
0
LINE
8
BLACK
6
CONTINUOUS
10
51.9181
20
-168.802
11
52.0133
21
-168.898
0
LINE
8
BLACK
6
CONTINUOUS
10
52.0133
20
-168.898
11
52.1086
21
-169.088
0
LINE
8
BLACK
6
CONTINUOUS
10
52.1086
20
-169.088
11
52.1086
21
-169.564
0
LINE
8
BLACK
6
CONTINUOUS
10
52.1086
20
-169.564
11
52.0133
21
-169.755
0
LINE
8
BLACK
6
CONTINUOUS
10
52.0133
20
-169.755
11
51.9181
21
-169.85
0
LINE
8
BLACK
6
CONTINUOUS
10
51.9181
20
-169.85
11
51.7276
21
-169.945
0
LINE
8
BLACK
6
CONTINUOUS
10
51.7276
20
-169.945
11
51.2514
21
-169.945
0
LINE
8
BLACK
6
CONTINUOUS
10
51.2514
20
-169.945
11
51.061
21
-169.85
0
LINE
8
BLACK
6
CONTINUOUS
10
51.061
20
-169.85
11
50.9657
21
-169.755
0
LINE
8
BLACK
6
CONTINUOUS
10
53.8229
20
-167.945
11
53.4419
21
-167.945
0
LINE
8
BLACK
6
CONTINUOUS
10
53.4419
20
-167.945
11
53.2514
21
-168.04
0
LINE
8
BLACK
6
CONTINUOUS
10
53.2514
20
-168.04
11
53.1562
21
-168.136
0
LINE
8
BLACK
6
CONTINUOUS
10
53.1562
20
-168.136
11
52.9657
21
-168.421
0
LINE
8
BLACK
6
CONTINUOUS
10
52.9657
20
-168.421
11
52.8705
21
-168.802
0
LINE
8
BLACK
6
CONTINUOUS
10
52.8705
20
-168.802
11
52.8705
21
-169.564
0
LINE
8
BLACK
6
CONTINUOUS
10
52.8705
20
-169.564
11
52.9657
21
-169.755
0
LINE
8
BLACK
6
CONTINUOUS
10
52.9657
20
-169.755
11
53.061
21
-169.85
0
LINE
8
BLACK
6
CONTINUOUS
10
53.061
20
-169.85
11
53.2514
21
-169.945
0
LINE
8
BLACK
6
CONTINUOUS
10
53.2514
20
-169.945
11
53.6324
21
-169.945
0
LINE
8
BLACK
6
CONTINUOUS
10
53.6324
20
-169.945
11
53.8229
21
-169.85
0
LINE
8
BLACK
6
CONTINUOUS
10
53.8229
20
-169.85
11
53.9181
21
-169.755
0
LINE
8
BLACK
6
CONTINUOUS
10
53.9181
20
-169.755
11
54.0133
21
-169.564
0
LINE
8
BLACK
6
CONTINUOUS
10
54.0133
20
-169.564
11
54.0133
21
-169.088
0
LINE
8
BLACK
6
CONTINUOUS
10
54.0133
20
-169.088
11
53.9181
21
-168.898
0
LINE
8
BLACK
6
CONTINUOUS
10
53.9181
20
-168.898
11
53.8229
21
-168.802
0
LINE
8
BLACK
6
CONTINUOUS
10
53.8229
20
-168.802
11
53.6324
21
-168.707
0
LINE
8
BLACK
6
CONTINUOUS
10
53.6324
20
-168.707
11
53.2514
21
-168.707
0
LINE
8
BLACK
6
CONTINUOUS
10
53.2514
20
-168.707
11
53.061
21
-168.802
0
LINE
8
BLACK
6
CONTINUOUS
10
53.061
20
-168.802
11
52.9657
21
-168.898
0
LINE
8
BLACK
6
CONTINUOUS
10
52.9657
20
-168.898
11
52.8705
21
-169.088
0
LINE
8
BLACK
6
CONTINUOUS
10
56.3943
20
-169.945
11
56.3943
21
-167.945
0
LINE
8
BLACK
6
CONTINUOUS
10
57.2514
20
-169.945
11
57.2514
21
-168.898
0
LINE
8
BLACK
6
CONTINUOUS
10
57.2514
20
-168.898
11
57.1562
21
-168.707
0
LINE
8
BLACK
6
CONTINUOUS
10
57.1562
20
-168.707
11
56.9657
21
-168.612
0
LINE
8
BLACK
6
CONTINUOUS
10
56.9657
20
-168.612
11
56.68
21
-168.612
0
LINE
8
BLACK
6
CONTINUOUS
10
56.68
20
-168.612
11
56.4895
21
-168.707
0
LINE
8
BLACK
6
CONTINUOUS
10
56.4895
20
-168.707
11
56.3943
21
-168.802
0
LINE
8
BLACK
6
CONTINUOUS
10
58.4895
20
-169.945
11
58.2991
21
-169.85
0
LINE
8
BLACK
6
CONTINUOUS
10
58.2991
20
-169.85
11
58.2038
21
-169.755
0
LINE
8
BLACK
6
CONTINUOUS
10
58.2038
20
-169.755
11
58.1086
21
-169.564
0
LINE
8
BLACK
6
CONTINUOUS
10
58.1086
20
-169.564
11
58.1086
21
-168.993
0
LINE
8
BLACK
6
CONTINUOUS
10
58.1086
20
-168.993
11
58.2038
21
-168.802
0
LINE
8
BLACK
6
CONTINUOUS
10
58.2038
20
-168.802
11
58.2991
21
-168.707
0
LINE
8
BLACK
6
CONTINUOUS
10
58.2991
20
-168.707
11
58.4895
21
-168.612
0
LINE
8
BLACK
6
CONTINUOUS
10
58.4895
20
-168.612
11
58.7752
21
-168.612
0
LINE
8
BLACK
6
CONTINUOUS
10
58.7752
20
-168.612
11
58.9657
21
-168.707
0
LINE
8
BLACK
6
CONTINUOUS
10
58.9657
20
-168.707
11
59.061
21
-168.802
0
LINE
8
BLACK
6
CONTINUOUS
10
59.061
20
-168.802
11
59.1562
21
-168.993
0
LINE
8
BLACK
6
CONTINUOUS
10
59.1562
20
-168.993
11
59.1562
21
-169.564
0
LINE
8
BLACK
6
CONTINUOUS
10
59.1562
20
-169.564
11
59.061
21
-169.755
0
LINE
8
BLACK
6
CONTINUOUS
10
59.061
20
-169.755
11
58.9657
21
-169.85
0
LINE
8
BLACK
6
CONTINUOUS
10
58.9657
20
-169.85
11
58.7752
21
-169.945
0
LINE
8
BLACK
6
CONTINUOUS
10
58.7752
20
-169.945
11
58.4895
21
-169.945
0
LINE
8
BLACK
6
CONTINUOUS
10
60.2991
20
-169.945
11
60.1086
21
-169.85
0
LINE
8
BLACK
6
CONTINUOUS
10
60.1086
20
-169.85
11
60.0133
21
-169.66
0
LINE
8
BLACK
6
CONTINUOUS
10
60.0133
20
-169.66
11
60.0133
21
-167.945
0
LINE
8
BLACK
6
CONTINUOUS
10
61.8229
20
-169.85
11
61.6324
21
-169.945
0
LINE
8
BLACK
6
CONTINUOUS
10
61.6324
20
-169.945
11
61.2514
21
-169.945
0
LINE
8
BLACK
6
CONTINUOUS
10
61.2514
20
-169.945
11
61.061
21
-169.85
0
LINE
8
BLACK
6
CONTINUOUS
10
61.061
20
-169.85
11
60.9657
21
-169.66
0
LINE
8
BLACK
6
CONTINUOUS
10
60.9657
20
-169.66
11
60.9657
21
-168.898
0
LINE
8
BLACK
6
CONTINUOUS
10
60.9657
20
-168.898
11
61.061
21
-168.707
0
LINE
8
BLACK
6
CONTINUOUS
10
61.061
20
-168.707
11
61.2514
21
-168.612
0
LINE
8
BLACK
6
CONTINUOUS
10
61.2514
20
-168.612
11
61.6324
21
-168.612
0
LINE
8
BLACK
6
CONTINUOUS
10
61.6324
20
-168.612
11
61.8229
21
-168.707
0
LINE
8
BLACK
6
CONTINUOUS
10
61.8229
20
-168.707
11
61.9181
21
-168.898
0
LINE
8
BLACK
6
CONTINUOUS
10
61.9181
20
-168.898
11
61.9181
21
-169.088
0
LINE
8
BLACK
6
CONTINUOUS
10
61.9181
20
-169.088
11
60.9657
21
-169.279
0
LINE
8
BLACK
6
CONTINUOUS
10
62.68
20
-169.85
11
62.8705
21
-169.945
0
LINE
8
BLACK
6
CONTINUOUS
10
62.8705
20
-169.945
11
63.2514
21
-169.945
0
LINE
8
BLACK
6
CONTINUOUS
10
63.2514
20
-169.945
11
63.4419
21
-169.85
0
LINE
8
BLACK
6
CONTINUOUS
10
63.4419
20
-169.85
11
63.5371
21
-169.66
0
LINE
8
BLACK
6
CONTINUOUS
10
63.5371
20
-169.66
11
63.5371
21
-169.564
0
LINE
8
BLACK
6
CONTINUOUS
10
63.5371
20
-169.564
11
63.4419
21
-169.374
0
LINE
8
BLACK
6
CONTINUOUS
10
63.4419
20
-169.374
11
63.2514
21
-169.279
0
LINE
8
BLACK
6
CONTINUOUS
10
63.2514
20
-169.279
11
62.9657
21
-169.279
0
LINE
8
BLACK
6
CONTINUOUS
10
62.9657
20
-169.279
11
62.7752
21
-169.183
0
LINE
8
BLACK
6
CONTINUOUS
10
62.7752
20
-169.183
11
62.68
21
-168.993
0
LINE
8
BLACK
6
CONTINUOUS
10
62.68
20
-168.993
11
62.68
21
-168.898
0
LINE
8
BLACK
6
CONTINUOUS
10
62.68
20
-168.898
11
62.7752
21
-168.707
0
LINE
8
BLACK
6
CONTINUOUS
10
62.7752
20
-168.707
11
62.9657
21
-168.612
0
LINE
8
BLACK
6
CONTINUOUS
10
62.9657
20
-168.612
11
63.2514
21
-168.612
0
LINE
8
BLACK
6
CONTINUOUS
10
63.2514
20
-168.612
11
63.4419
21
-168.707
0
LINE
8
BLACK
6
CONTINUOUS
10
64.2038
20
-170.707
11
64.2991
21
-170.612
0
LINE
8
BLACK
6
CONTINUOUS
10
64.2991
20
-170.612
11
64.4895
21
-170.326
0
LINE
8
BLACK
6
CONTINUOUS
10
64.4895
20
-170.326
11
64.5848
21
-170.136
0
LINE
8
BLACK
6
CONTINUOUS
10
64.5848
20
-170.136
11
64.68
21
-169.85
0
LINE
8
BLACK
6
CONTINUOUS
10
64.68
20
-169.85
11
64.7752
21
-169.374
0
LINE
8
BLACK
6
CONTINUOUS
10
64.7752
20
-169.374
11
64.7752
21
-168.993
0
LINE
8
BLACK
6
CONTINUOUS
10
64.7752
20
-168.993
11
64.68
21
-168.517
0
LINE
8
BLACK
6
CONTINUOUS
10
64.68
20
-168.517
11
64.5848
21
-168.231
0
LINE
8
BLACK
6
CONTINUOUS
10
64.5848
20
-168.231
11
64.4895
21
-168.04
0
LINE
8
BLACK
6
CONTINUOUS
10
64.4895
20
-168.04
11
64.2991
21
-167.755
0
LINE
8
BLACK
6
CONTINUOUS
10
64.2991
20
-167.755
11
64.2038
21
-167.66
0
LINE
8
BLACK
6
CONTINUOUS
10
14.18
20
-171.16
11
14.18
21
-172.16
0
LINE
8
BLACK
6
CONTINUOUS
10
13.68
20
-171.66
11
14.68
21
-171.66
0
LINE
8
BLACK
6
CONTINUOUS
10
18.2038
20
-172.585
11
17.061
21
-172.585
0
LINE
8
BLACK
6
CONTINUOUS
10
17.6324
20
-172.585
11
17.6324
21
-170.585
0
LINE
8
BLACK
6
CONTINUOUS
10
17.6324
20
-170.585
11
17.4419
21
-170.871
0
LINE
8
BLACK
6
CONTINUOUS
10
17.4419
20
-170.871
11
17.2514
21
-171.061
0
LINE
8
BLACK
6
CONTINUOUS
10
17.2514
20
-171.061
11
17.061
21
-171.157
0
LINE
8
BLACK
6
CONTINUOUS
10
19.061
20
-172.395
11
19.1562
21
-172.49
0
LINE
8
BLACK
6
CONTINUOUS
10
19.1562
20
-172.49
11
19.061
21
-172.585
0
LINE
8
BLACK
6
CONTINUOUS
10
19.061
20
-172.585
11
18.9657
21
-172.49
0
LINE
8
BLACK
6
CONTINUOUS
10
18.9657
20
-172.49
11
19.061
21
-172.395
0
LINE
8
BLACK
6
CONTINUOUS
10
19.061
20
-172.395
11
19.061
21
-172.585
0
LINE
8
BLACK
6
CONTINUOUS
10
20.3943
20
-170.585
11
20.5848
21
-170.585
0
LINE
8
BLACK
6
CONTINUOUS
10
20.5848
20
-170.585
11
20.7752
21
-170.68
0
LINE
8
BLACK
6
CONTINUOUS
10
20.7752
20
-170.68
11
20.8705
21
-170.776
0
LINE
8
BLACK
6
CONTINUOUS
10
20.8705
20
-170.776
11
20.9657
21
-170.966
0
LINE
8
BLACK
6
CONTINUOUS
10
20.9657
20
-170.966
11
21.061
21
-171.347
0
LINE
8
BLACK
6
CONTINUOUS
10
21.061
20
-171.347
11
21.061
21
-171.823
0
LINE
8
BLACK
6
CONTINUOUS
10
21.061
20
-171.823
11
20.9657
21
-172.204
0
LINE
8
BLACK
6
CONTINUOUS
10
20.9657
20
-172.204
11
20.8705
21
-172.395
0
LINE
8
BLACK
6
CONTINUOUS
10
20.8705
20
-172.395
11
20.7752
21
-172.49
0
LINE
8
BLACK
6
CONTINUOUS
10
20.7752
20
-172.49
11
20.5848
21
-172.585
0
LINE
8
BLACK
6
CONTINUOUS
10
20.5848
20
-172.585
11
20.3943
21
-172.585
0
LINE
8
BLACK
6
CONTINUOUS
10
20.3943
20
-172.585
11
20.2038
21
-172.49
0
LINE
8
BLACK
6
CONTINUOUS
10
20.2038
20
-172.49
11
20.1086
21
-172.395
0
LINE
8
BLACK
6
CONTINUOUS
10
20.1086
20
-172.395
11
20.0133
21
-172.204
0
LINE
8
BLACK
6
CONTINUOUS
10
20.0133
20
-172.204
11
19.9181
21
-171.823
0
LINE
8
BLACK
6
CONTINUOUS
10
19.9181
20
-171.823
11
19.9181
21
-171.347
0
LINE
8
BLACK
6
CONTINUOUS
10
19.9181
20
-171.347
11
20.0133
21
-170.966
0
LINE
8
BLACK
6
CONTINUOUS
10
20.0133
20
-170.966
11
20.1086
21
-170.776
0
LINE
8
BLACK
6
CONTINUOUS
10
20.1086
20
-170.776
11
20.2038
21
-170.68
0
LINE
8
BLACK
6
CONTINUOUS
10
20.2038
20
-170.68
11
20.3943
21
-170.585
0
LINE
8
BLACK
6
CONTINUOUS
10
22.299
20
-170.585
11
22.4895
21
-170.585
0
LINE
8
BLACK
6
CONTINUOUS
10
22.4895
20
-170.585
11
22.68
21
-170.68
0
LINE
8
BLACK
6
CONTINUOUS
10
22.68
20
-170.68
11
22.7752
21
-170.776
0
LINE
8
BLACK
6
CONTINUOUS
10
22.7752
20
-170.776
11
22.8705
21
-170.966
0
LINE
8
BLACK
6
CONTINUOUS
10
22.8705
20
-170.966
11
22.9657
21
-171.347
0
LINE
8
BLACK
6
CONTINUOUS
10
22.9657
20
-171.347
11
22.9657
21
-171.823
0
LINE
8
BLACK
6
CONTINUOUS
10
22.9657
20
-171.823
11
22.8705
21
-172.204
0
LINE
8
BLACK
6
CONTINUOUS
10
22.8705
20
-172.204
11
22.7752
21
-172.395
0
LINE
8
BLACK
6
CONTINUOUS
10
22.7752
20
-172.395
11
22.68
21
-172.49
0
LINE
8
BLACK
6
CONTINUOUS
10
22.68
20
-172.49
11
22.4895
21
-172.585
0
LINE
8
BLACK
6
CONTINUOUS
10
22.4895
20
-172.585
11
22.299
21
-172.585
0
LINE
8
BLACK
6
CONTINUOUS
10
22.299
20
-172.585
11
22.1086
21
-172.49
0
LINE
8
BLACK
6
CONTINUOUS
10
22.1086
20
-172.49
11
22.0133
21
-172.395
0
LINE
8
BLACK
6
CONTINUOUS
10
22.0133
20
-172.395
11
21.9181
21
-172.204
0
LINE
8
BLACK
6
CONTINUOUS
10
21.9181
20
-172.204
11
21.8229
21
-171.823
0
LINE
8
BLACK
6
CONTINUOUS
10
21.8229
20
-171.823
11
21.8229
21
-171.347
0
LINE
8
BLACK
6
CONTINUOUS
10
21.8229
20
-171.347
11
21.9181
21
-170.966
0
LINE
8
BLACK
6
CONTINUOUS
10
21.9181
20
-170.966
11
22.0133
21
-170.776
0
LINE
8
BLACK
6
CONTINUOUS
10
22.0133
20
-170.776
11
22.1086
21
-170.68
0
LINE
8
BLACK
6
CONTINUOUS
10
22.1086
20
-170.68
11
22.299
21
-170.585
0
LINE
8
BLACK
6
CONTINUOUS
10
24.2038
20
-170.585
11
24.3943
21
-170.585
0
LINE
8
BLACK
6
CONTINUOUS
10
24.3943
20
-170.585
11
24.5848
21
-170.68
0
LINE
8
BLACK
6
CONTINUOUS
10
24.5848
20
-170.68
11
24.68
21
-170.776
0
LINE
8
BLACK
6
CONTINUOUS
10
24.68
20
-170.776
11
24.7752
21
-170.966
0
LINE
8
BLACK
6
CONTINUOUS
10
24.7752
20
-170.966
11
24.8705
21
-171.347
0
LINE
8
BLACK
6
CONTINUOUS
10
24.8705
20
-171.347
11
24.8705
21
-171.823
0
LINE
8
BLACK
6
CONTINUOUS
10
24.8705
20
-171.823
11
24.7752
21
-172.204
0
LINE
8
BLACK
6
CONTINUOUS
10
24.7752
20
-172.204
11
24.68
21
-172.395
0
LINE
8
BLACK
6
CONTINUOUS
10
24.68
20
-172.395
11
24.5848
21
-172.49
0
LINE
8
BLACK
6
CONTINUOUS
10
24.5848
20
-172.49
11
24.3943
21
-172.585
0
LINE
8
BLACK
6
CONTINUOUS
10
24.3943
20
-172.585
11
24.2038
21
-172.585
0
LINE
8
BLACK
6
CONTINUOUS
10
24.2038
20
-172.585
11
24.0133
21
-172.49
0
LINE
8
BLACK
6
CONTINUOUS
10
24.0133
20
-172.49
11
23.9181
21
-172.395
0
LINE
8
BLACK
6
CONTINUOUS
10
23.9181
20
-172.395
11
23.8229
21
-172.204
0
LINE
8
BLACK
6
CONTINUOUS
10
23.8229
20
-172.204
11
23.7276
21
-171.823
0
LINE
8
BLACK
6
CONTINUOUS
10
23.7276
20
-171.823
11
23.7276
21
-171.347
0
LINE
8
BLACK
6
CONTINUOUS
10
23.7276
20
-171.347
11
23.8229
21
-170.966
0
LINE
8
BLACK
6
CONTINUOUS
10
23.8229
20
-170.966
11
23.9181
21
-170.776
0
LINE
8
BLACK
6
CONTINUOUS
10
23.9181
20
-170.776
11
24.0133
21
-170.68
0
LINE
8
BLACK
6
CONTINUOUS
10
24.0133
20
-170.68
11
24.2038
21
-170.585
0
LINE
8
BLACK
6
CONTINUOUS
10
25.7276
20
-172.585
11
25.7276
21
-171.252
0
LINE
8
BLACK
6
CONTINUOUS
10
25.7276
20
-171.442
11
25.8229
21
-171.347
0
LINE
8
BLACK
6
CONTINUOUS
10
25.8229
20
-171.347
11
26.0133
21
-171.252
0
LINE
8
BLACK
6
CONTINUOUS
10
26.0133
20
-171.252
11
26.299
21
-171.252
0
LINE
8
BLACK
6
CONTINUOUS
10
26.299
20
-171.252
11
26.4895
21
-171.347
0
LINE
8
BLACK
6
CONTINUOUS
10
26.4895
20
-171.347
11
26.5848
21
-171.538
0
LINE
8
BLACK
6
CONTINUOUS
10
26.5848
20
-171.538
11
26.5848
21
-172.585
0
LINE
8
BLACK
6
CONTINUOUS
10
26.5848
20
-171.538
11
26.68
21
-171.347
0
LINE
8
BLACK
6
CONTINUOUS
10
26.68
20
-171.347
11
26.8705
21
-171.252
0
LINE
8
BLACK
6
CONTINUOUS
10
26.8705
20
-171.252
11
27.1562
21
-171.252
0
LINE
8
BLACK
6
CONTINUOUS
10
27.1562
20
-171.252
11
27.3467
21
-171.347
0
LINE
8
BLACK
6
CONTINUOUS
10
27.3467
20
-171.347
11
27.4419
21
-171.538
0
LINE
8
BLACK
6
CONTINUOUS
10
27.4419
20
-171.538
11
27.4419
21
-172.585
0
LINE
8
BLACK
6
CONTINUOUS
10
28.3943
20
-172.585
11
28.3943
21
-171.252
0
LINE
8
BLACK
6
CONTINUOUS
10
28.3943
20
-171.442
11
28.4895
21
-171.347
0
LINE
8
BLACK
6
CONTINUOUS
10
28.4895
20
-171.347
11
28.68
21
-171.252
0
LINE
8
BLACK
6
CONTINUOUS
10
28.68
20
-171.252
11
28.9657
21
-171.252
0
LINE
8
BLACK
6
CONTINUOUS
10
28.9657
20
-171.252
11
29.1562
21
-171.347
0
LINE
8
BLACK
6
CONTINUOUS
10
29.1562
20
-171.347
11
29.2514
21
-171.538
0
LINE
8
BLACK
6
CONTINUOUS
10
29.2514
20
-171.538
11
29.2514
21
-172.585
0
LINE
8
BLACK
6
CONTINUOUS
10
29.2514
20
-171.538
11
29.3467
21
-171.347
0
LINE
8
BLACK
6
CONTINUOUS
10
29.3467
20
-171.347
11
29.5371
21
-171.252
0
LINE
8
BLACK
6
CONTINUOUS
10
29.5371
20
-171.252
11
29.8229
21
-171.252
0
LINE
8
BLACK
6
CONTINUOUS
10
29.8229
20
-171.252
11
30.0133
21
-171.347
0
LINE
8
BLACK
6
CONTINUOUS
10
30.0133
20
-171.347
11
30.1086
21
-171.538
0
LINE
8
BLACK
6
CONTINUOUS
10
30.1086
20
-171.538
11
30.1086
21
-172.585
0
LINE
8
BLACK
6
CONTINUOUS
10
34.0133
20
-170.49
11
32.299
21
-173.061
0
LINE
8
BLACK
6
CONTINUOUS
10
36.5848
20
-170.585
11
36.7752
21
-170.585
0
LINE
8
BLACK
6
CONTINUOUS
10
36.7752
20
-170.585
11
36.9657
21
-170.68
0
LINE
8
BLACK
6
CONTINUOUS
10
36.9657
20
-170.68
11
37.061
21
-170.776
0
LINE
8
BLACK
6
CONTINUOUS
10
37.061
20
-170.776
11
37.1562
21
-170.966
0
LINE
8
BLACK
6
CONTINUOUS
10
37.1562
20
-170.966
11
37.2514
21
-171.347
0
LINE
8
BLACK
6
CONTINUOUS
10
37.2514
20
-171.347
11
37.2514
21
-171.823
0
LINE
8
BLACK
6
CONTINUOUS
10
37.2514
20
-171.823
11
37.1562
21
-172.204
0
LINE
8
BLACK
6
CONTINUOUS
10
37.1562
20
-172.204
11
37.061
21
-172.395
0
LINE
8
BLACK
6
CONTINUOUS
10
37.061
20
-172.395
11
36.9657
21
-172.49
0
LINE
8
BLACK
6
CONTINUOUS
10
36.9657
20
-172.49
11
36.7752
21
-172.585
0
LINE
8
BLACK
6
CONTINUOUS
10
36.7752
20
-172.585
11
36.5848
21
-172.585
0
LINE
8
BLACK
6
CONTINUOUS
10
36.5848
20
-172.585
11
36.3943
21
-172.49
0
LINE
8
BLACK
6
CONTINUOUS
10
36.3943
20
-172.49
11
36.299
21
-172.395
0
LINE
8
BLACK
6
CONTINUOUS
10
36.299
20
-172.395
11
36.2038
21
-172.204
0
LINE
8
BLACK
6
CONTINUOUS
10
36.2038
20
-172.204
11
36.1086
21
-171.823
0
LINE
8
BLACK
6
CONTINUOUS
10
36.1086
20
-171.823
11
36.1086
21
-171.347
0
LINE
8
BLACK
6
CONTINUOUS
10
36.1086
20
-171.347
11
36.2038
21
-170.966
0
LINE
8
BLACK
6
CONTINUOUS
10
36.2038
20
-170.966
11
36.299
21
-170.776
0
LINE
8
BLACK
6
CONTINUOUS
10
36.299
20
-170.776
11
36.3943
21
-170.68
0
LINE
8
BLACK
6
CONTINUOUS
10
36.3943
20
-170.68
11
36.5848
21
-170.585
0
LINE
8
BLACK
6
CONTINUOUS
10
38.1086
20
-172.395
11
38.2038
21
-172.49
0
LINE
8
BLACK
6
CONTINUOUS
10
38.2038
20
-172.49
11
38.1086
21
-172.585
0
LINE
8
BLACK
6
CONTINUOUS
10
38.1086
20
-172.585
11
38.0133
21
-172.49
0
LINE
8
BLACK
6
CONTINUOUS
10
38.0133
20
-172.49
11
38.1086
21
-172.395
0
LINE
8
BLACK
6
CONTINUOUS
10
38.1086
20
-172.395
11
38.1086
21
-172.585
0
LINE
8
BLACK
6
CONTINUOUS
10
39.4419
20
-170.585
11
39.6324
21
-170.585
0
LINE
8
BLACK
6
CONTINUOUS
10
39.6324
20
-170.585
11
39.8229
21
-170.68
0
LINE
8
BLACK
6
CONTINUOUS
10
39.8229
20
-170.68
11
39.9181
21
-170.776
0
LINE
8
BLACK
6
CONTINUOUS
10
39.9181
20
-170.776
11
40.0133
21
-170.966
0
LINE
8
BLACK
6
CONTINUOUS
10
40.0133
20
-170.966
11
40.1086
21
-171.347
0
LINE
8
BLACK
6
CONTINUOUS
10
40.1086
20
-171.347
11
40.1086
21
-171.823
0
LINE
8
BLACK
6
CONTINUOUS
10
40.1086
20
-171.823
11
40.0133
21
-172.204
0
LINE
8
BLACK
6
CONTINUOUS
10
40.0133
20
-172.204
11
39.9181
21
-172.395
0
LINE
8
BLACK
6
CONTINUOUS
10
39.9181
20
-172.395
11
39.8229
21
-172.49
0
LINE
8
BLACK
6
CONTINUOUS
10
39.8229
20
-172.49
11
39.6324
21
-172.585
0
LINE
8
BLACK
6
CONTINUOUS
10
39.6324
20
-172.585
11
39.4419
21
-172.585
0
LINE
8
BLACK
6
CONTINUOUS
10
39.4419
20
-172.585
11
39.2514
21
-172.49
0
LINE
8
BLACK
6
CONTINUOUS
10
39.2514
20
-172.49
11
39.1562
21
-172.395
0
LINE
8
BLACK
6
CONTINUOUS
10
39.1562
20
-172.395
11
39.061
21
-172.204
0
LINE
8
BLACK
6
CONTINUOUS
10
39.061
20
-172.204
11
38.9657
21
-171.823
0
LINE
8
BLACK
6
CONTINUOUS
10
38.9657
20
-171.823
11
38.9657
21
-171.347
0
LINE
8
BLACK
6
CONTINUOUS
10
38.9657
20
-171.347
11
39.061
21
-170.966
0
LINE
8
BLACK
6
CONTINUOUS
10
39.061
20
-170.966
11
39.1562
21
-170.776
0
LINE
8
BLACK
6
CONTINUOUS
10
39.1562
20
-170.776
11
39.2514
21
-170.68
0
LINE
8
BLACK
6
CONTINUOUS
10
39.2514
20
-170.68
11
39.4419
21
-170.585
0
LINE
8
BLACK
6
CONTINUOUS
10
40.7752
20
-170.585
11
42.0133
21
-170.585
0
LINE
8
BLACK
6
CONTINUOUS
10
42.0133
20
-170.585
11
41.3467
21
-171.347
0
LINE
8
BLACK
6
CONTINUOUS
10
41.3467
20
-171.347
11
41.6324
21
-171.347
0
LINE
8
BLACK
6
CONTINUOUS
10
41.6324
20
-171.347
11
41.8229
21
-171.442
0
LINE
8
BLACK
6
CONTINUOUS
10
41.8229
20
-171.442
11
41.9181
21
-171.538
0
LINE
8
BLACK
6
CONTINUOUS
10
41.9181
20
-171.538
11
42.0133
21
-171.728
0
LINE
8
BLACK
6
CONTINUOUS
10
42.0133
20
-171.728
11
42.0133
21
-172.204
0
LINE
8
BLACK
6
CONTINUOUS
10
42.0133
20
-172.204
11
41.9181
21
-172.395
0
LINE
8
BLACK
6
CONTINUOUS
10
41.9181
20
-172.395
11
41.8229
21
-172.49
0
LINE
8
BLACK
6
CONTINUOUS
10
41.8229
20
-172.49
11
41.6324
21
-172.585
0
LINE
8
BLACK
6
CONTINUOUS
10
41.6324
20
-172.585
11
41.061
21
-172.585
0
LINE
8
BLACK
6
CONTINUOUS
10
41.061
20
-172.585
11
40.8705
21
-172.49
0
LINE
8
BLACK
6
CONTINUOUS
10
40.8705
20
-172.49
11
40.7752
21
-172.395
0
LINE
8
BLACK
6
CONTINUOUS
10
42.9657
20
-172.585
11
43.3467
21
-172.585
0
LINE
8
BLACK
6
CONTINUOUS
10
43.3467
20
-172.585
11
43.5371
21
-172.49
0
LINE
8
BLACK
6
CONTINUOUS
10
43.5371
20
-172.49
11
43.6324
21
-172.395
0
LINE
8
BLACK
6
CONTINUOUS
10
43.6324
20
-172.395
11
43.8229
21
-172.109
0
LINE
8
BLACK
6
CONTINUOUS
10
43.8229
20
-172.109
11
43.9181
21
-171.728
0
LINE
8
BLACK
6
CONTINUOUS
10
43.9181
20
-171.728
11
43.9181
21
-170.966
0
LINE
8
BLACK
6
CONTINUOUS
10
43.9181
20
-170.966
11
43.8229
21
-170.776
0
LINE
8
BLACK
6
CONTINUOUS
10
43.8229
20
-170.776
11
43.7276
21
-170.68
0
LINE
8
BLACK
6
CONTINUOUS
10
43.7276
20
-170.68
11
43.5371
21
-170.585
0
LINE
8
BLACK
6
CONTINUOUS
10
43.5371
20
-170.585
11
43.1562
21
-170.585
0
LINE
8
BLACK
6
CONTINUOUS
10
43.1562
20
-170.585
11
42.9657
21
-170.68
0
LINE
8
BLACK
6
CONTINUOUS
10
42.9657
20
-170.68
11
42.8705
21
-170.776
0
LINE
8
BLACK
6
CONTINUOUS
10
42.8705
20
-170.776
11
42.7752
21
-170.966
0
LINE
8
BLACK
6
CONTINUOUS
10
42.7752
20
-170.966
11
42.7752
21
-171.442
0
LINE
8
BLACK
6
CONTINUOUS
10
42.7752
20
-171.442
11
42.8705
21
-171.633
0
LINE
8
BLACK
6
CONTINUOUS
10
42.8705
20
-171.633
11
42.9657
21
-171.728
0
LINE
8
BLACK
6
CONTINUOUS
10
42.9657
20
-171.728
11
43.1562
21
-171.823
0
LINE
8
BLACK
6
CONTINUOUS
10
43.1562
20
-171.823
11
43.5371
21
-171.823
0
LINE
8
BLACK
6
CONTINUOUS
10
43.5371
20
-171.823
11
43.7276
21
-171.728
0
LINE
8
BLACK
6
CONTINUOUS
10
43.7276
20
-171.728
11
43.8229
21
-171.633
0
LINE
8
BLACK
6
CONTINUOUS
10
43.8229
20
-171.633
11
43.9181
21
-171.442
0
LINE
8
BLACK
6
CONTINUOUS
10
45.6324
20
-171.252
11
45.6324
21
-172.585
0
LINE
8
BLACK
6
CONTINUOUS
10
45.1562
20
-170.49
11
44.68
21
-171.919
0
LINE
8
BLACK
6
CONTINUOUS
10
44.68
20
-171.919
11
45.9181
21
-171.919
0
LINE
8
BLACK
6
CONTINUOUS
10
46.5848
20
-170.585
11
46.5848
21
-170.966
0
LINE
8
BLACK
6
CONTINUOUS
10
47.3467
20
-170.585
11
47.3467
21
-170.966
0
LINE
8
BLACK
6
CONTINUOUS
10
50.2991
20
-173.347
11
50.2038
21
-173.252
0
LINE
8
BLACK
6
CONTINUOUS
10
50.2038
20
-173.252
11
50.0133
21
-172.966
0
LINE
8
BLACK
6
CONTINUOUS
10
50.0133
20
-172.966
11
49.9181
21
-172.776
0
LINE
8
BLACK
6
CONTINUOUS
10
49.9181
20
-172.776
11
49.8229
21
-172.49
0
LINE
8
BLACK
6
CONTINUOUS
10
49.8229
20
-172.49
11
49.7276
21
-172.014
0
LINE
8
BLACK
6
CONTINUOUS
10
49.7276
20
-172.014
11
49.7276
21
-171.633
0
LINE
8
BLACK
6
CONTINUOUS
10
49.7276
20
-171.633
11
49.8229
21
-171.157
0
LINE
8
BLACK
6
CONTINUOUS
10
49.8229
20
-171.157
11
49.9181
21
-170.871
0
LINE
8
BLACK
6
CONTINUOUS
10
49.9181
20
-170.871
11
50.0133
21
-170.68
0
LINE
8
BLACK
6
CONTINUOUS
10
50.0133
20
-170.68
11
50.2038
21
-170.395
0
LINE
8
BLACK
6
CONTINUOUS
10
50.2038
20
-170.395
11
50.2991
21
-170.3
0
LINE
8
BLACK
6
CONTINUOUS
10
50.9657
20
-170.776
11
51.061
21
-170.68
0
LINE
8
BLACK
6
CONTINUOUS
10
51.061
20
-170.68
11
51.2514
21
-170.585
0
LINE
8
BLACK
6
CONTINUOUS
10
51.2514
20
-170.585
11
51.7276
21
-170.585
0
LINE
8
BLACK
6
CONTINUOUS
10
51.7276
20
-170.585
11
51.9181
21
-170.68
0
LINE
8
BLACK
6
CONTINUOUS
10
51.9181
20
-170.68
11
52.0133
21
-170.776
0
LINE
8
BLACK
6
CONTINUOUS
10
52.0133
20
-170.776
11
52.1086
21
-170.966
0
LINE
8
BLACK
6
CONTINUOUS
10
52.1086
20
-170.966
11
52.1086
21
-171.157
0
LINE
8
BLACK
6
CONTINUOUS
10
52.1086
20
-171.157
11
52.0133
21
-171.442
0
LINE
8
BLACK
6
CONTINUOUS
10
52.0133
20
-171.442
11
50.8705
21
-172.585
0
LINE
8
BLACK
6
CONTINUOUS
10
50.8705
20
-172.585
11
52.1086
21
-172.585
0
LINE
8
BLACK
6
CONTINUOUS
10
53.061
20
-172.585
11
53.4419
21
-172.585
0
LINE
8
BLACK
6
CONTINUOUS
10
53.4419
20
-172.585
11
53.6324
21
-172.49
0
LINE
8
BLACK
6
CONTINUOUS
10
53.6324
20
-172.49
11
53.7276
21
-172.395
0
LINE
8
BLACK
6
CONTINUOUS
10
53.7276
20
-172.395
11
53.9181
21
-172.109
0
LINE
8
BLACK
6
CONTINUOUS
10
53.9181
20
-172.109
11
54.0133
21
-171.728
0
LINE
8
BLACK
6
CONTINUOUS
10
54.0133
20
-171.728
11
54.0133
21
-170.966
0
LINE
8
BLACK
6
CONTINUOUS
10
54.0133
20
-170.966
11
53.9181
21
-170.776
0
LINE
8
BLACK
6
CONTINUOUS
10
53.9181
20
-170.776
11
53.8229
21
-170.68
0
LINE
8
BLACK
6
CONTINUOUS
10
53.8229
20
-170.68
11
53.6324
21
-170.585
0
LINE
8
BLACK
6
CONTINUOUS
10
53.6324
20
-170.585
11
53.2514
21
-170.585
0
LINE
8
BLACK
6
CONTINUOUS
10
53.2514
20
-170.585
11
53.061
21
-170.68
0
LINE
8
BLACK
6
CONTINUOUS
10
53.061
20
-170.68
11
52.9657
21
-170.776
0
LINE
8
BLACK
6
CONTINUOUS
10
52.9657
20
-170.776
11
52.8705
21
-170.966
0
LINE
8
BLACK
6
CONTINUOUS
10
52.8705
20
-170.966
11
52.8705
21
-171.442
0
LINE
8
BLACK
6
CONTINUOUS
10
52.8705
20
-171.442
11
52.9657
21
-171.633
0
LINE
8
BLACK
6
CONTINUOUS
10
52.9657
20
-171.633
11
53.061
21
-171.728
0
LINE
8
BLACK
6
CONTINUOUS
10
53.061
20
-171.728
11
53.2514
21
-171.823
0
LINE
8
BLACK
6
CONTINUOUS
10
53.2514
20
-171.823
11
53.6324
21
-171.823
0
LINE
8
BLACK
6
CONTINUOUS
10
53.6324
20
-171.823
11
53.8229
21
-171.728
0
LINE
8
BLACK
6
CONTINUOUS
10
53.8229
20
-171.728
11
53.9181
21
-171.633
0
LINE
8
BLACK
6
CONTINUOUS
10
53.9181
20
-171.633
11
54.0133
21
-171.442
0
LINE
8
BLACK
6
CONTINUOUS
10
56.3943
20
-172.585
11
56.3943
21
-170.585
0
LINE
8
BLACK
6
CONTINUOUS
10
57.2514
20
-172.585
11
57.2514
21
-171.538
0
LINE
8
BLACK
6
CONTINUOUS
10
57.2514
20
-171.538
11
57.1562
21
-171.347
0
LINE
8
BLACK
6
CONTINUOUS
10
57.1562
20
-171.347
11
56.9657
21
-171.252
0
LINE
8
BLACK
6
CONTINUOUS
10
56.9657
20
-171.252
11
56.68
21
-171.252
0
LINE
8
BLACK
6
CONTINUOUS
10
56.68
20
-171.252
11
56.4895
21
-171.347
0
LINE
8
BLACK
6
CONTINUOUS
10
56.4895
20
-171.347
11
56.3943
21
-171.442
0
LINE
8
BLACK
6
CONTINUOUS
10
58.4895
20
-172.585
11
58.2991
21
-172.49
0
LINE
8
BLACK
6
CONTINUOUS
10
58.2991
20
-172.49
11
58.2038
21
-172.395
0
LINE
8
BLACK
6
CONTINUOUS
10
58.2038
20
-172.395
11
58.1086
21
-172.204
0
LINE
8
BLACK
6
CONTINUOUS
10
58.1086
20
-172.204
11
58.1086
21
-171.633
0
LINE
8
BLACK
6
CONTINUOUS
10
58.1086
20
-171.633
11
58.2038
21
-171.442
0
LINE
8
BLACK
6
CONTINUOUS
10
58.2038
20
-171.442
11
58.2991
21
-171.347
0
LINE
8
BLACK
6
CONTINUOUS
10
58.2991
20
-171.347
11
58.4895
21
-171.252
0
LINE
8
BLACK
6
CONTINUOUS
10
58.4895
20
-171.252
11
58.7752
21
-171.252
0
LINE
8
BLACK
6
CONTINUOUS
10
58.7752
20
-171.252
11
58.9657
21
-171.347
0
LINE
8
BLACK
6
CONTINUOUS
10
58.9657
20
-171.347
11
59.061
21
-171.442
0
LINE
8
BLACK
6
CONTINUOUS
10
59.061
20
-171.442
11
59.1562
21
-171.633
0
LINE
8
BLACK
6
CONTINUOUS
10
59.1562
20
-171.633
11
59.1562
21
-172.204
0
LINE
8
BLACK
6
CONTINUOUS
10
59.1562
20
-172.204
11
59.061
21
-172.395
0
LINE
8
BLACK
6
CONTINUOUS
10
59.061
20
-172.395
11
58.9657
21
-172.49
0
LINE
8
BLACK
6
CONTINUOUS
10
58.9657
20
-172.49
11
58.7752
21
-172.585
0
LINE
8
BLACK
6
CONTINUOUS
10
58.7752
20
-172.585
11
58.4895
21
-172.585
0
LINE
8
BLACK
6
CONTINUOUS
10
60.2991
20
-172.585
11
60.1086
21
-172.49
0
LINE
8
BLACK
6
CONTINUOUS
10
60.1086
20
-172.49
11
60.0133
21
-172.3
0
LINE
8
BLACK
6
CONTINUOUS
10
60.0133
20
-172.3
11
60.0133
21
-170.585
0
LINE
8
BLACK
6
CONTINUOUS
10
61.8229
20
-172.49
11
61.6324
21
-172.585
0
LINE
8
BLACK
6
CONTINUOUS
10
61.6324
20
-172.585
11
61.2514
21
-172.585
0
LINE
8
BLACK
6
CONTINUOUS
10
61.2514
20
-172.585
11
61.061
21
-172.49
0
LINE
8
BLACK
6
CONTINUOUS
10
61.061
20
-172.49
11
60.9657
21
-172.3
0
LINE
8
BLACK
6
CONTINUOUS
10
60.9657
20
-172.3
11
60.9657
21
-171.538
0
LINE
8
BLACK
6
CONTINUOUS
10
60.9657
20
-171.538
11
61.061
21
-171.347
0
LINE
8
BLACK
6
CONTINUOUS
10
61.061
20
-171.347
11
61.2514
21
-171.252
0
LINE
8
BLACK
6
CONTINUOUS
10
61.2514
20
-171.252
11
61.6324
21
-171.252
0
LINE
8
BLACK
6
CONTINUOUS
10
61.6324
20
-171.252
11
61.8229
21
-171.347
0
LINE
8
BLACK
6
CONTINUOUS
10
61.8229
20
-171.347
11
61.9181
21
-171.538
0
LINE
8
BLACK
6
CONTINUOUS
10
61.9181
20
-171.538
11
61.9181
21
-171.728
0
LINE
8
BLACK
6
CONTINUOUS
10
61.9181
20
-171.728
11
60.9657
21
-171.919
0
LINE
8
BLACK
6
CONTINUOUS
10
62.68
20
-172.49
11
62.8705
21
-172.585
0
LINE
8
BLACK
6
CONTINUOUS
10
62.8705
20
-172.585
11
63.2514
21
-172.585
0
LINE
8
BLACK
6
CONTINUOUS
10
63.2514
20
-172.585
11
63.4419
21
-172.49
0
LINE
8
BLACK
6
CONTINUOUS
10
63.4419
20
-172.49
11
63.5371
21
-172.3
0
LINE
8
BLACK
6
CONTINUOUS
10
63.5371
20
-172.3
11
63.5371
21
-172.204
0
LINE
8
BLACK
6
CONTINUOUS
10
63.5371
20
-172.204
11
63.4419
21
-172.014
0
LINE
8
BLACK
6
CONTINUOUS
10
63.4419
20
-172.014
11
63.2514
21
-171.919
0
LINE
8
BLACK
6
CONTINUOUS
10
63.2514
20
-171.919
11
62.9657
21
-171.919
0
LINE
8
BLACK
6
CONTINUOUS
10
62.9657
20
-171.919
11
62.7752
21
-171.823
0
LINE
8
BLACK
6
CONTINUOUS
10
62.7752
20
-171.823
11
62.68
21
-171.633
0
LINE
8
BLACK
6
CONTINUOUS
10
62.68
20
-171.633
11
62.68
21
-171.538
0
LINE
8
BLACK
6
CONTINUOUS
10
62.68
20
-171.538
11
62.7752
21
-171.347
0
LINE
8
BLACK
6
CONTINUOUS
10
62.7752
20
-171.347
11
62.9657
21
-171.252
0
LINE
8
BLACK
6
CONTINUOUS
10
62.9657
20
-171.252
11
63.2514
21
-171.252
0
LINE
8
BLACK
6
CONTINUOUS
10
63.2514
20
-171.252
11
63.4419
21
-171.347
0
LINE
8
BLACK
6
CONTINUOUS
10
64.2038
20
-173.347
11
64.2991
21
-173.252
0
LINE
8
BLACK
6
CONTINUOUS
10
64.2991
20
-173.252
11
64.4895
21
-172.966
0
LINE
8
BLACK
6
CONTINUOUS
10
64.4895
20
-172.966
11
64.5848
21
-172.776
0
LINE
8
BLACK
6
CONTINUOUS
10
64.5848
20
-172.776
11
64.68
21
-172.49
0
LINE
8
BLACK
6
CONTINUOUS
10
64.68
20
-172.49
11
64.7752
21
-172.014
0
LINE
8
BLACK
6
CONTINUOUS
10
64.7752
20
-172.014
11
64.7752
21
-171.633
0
LINE
8
BLACK
6
CONTINUOUS
10
64.7752
20
-171.633
11
64.68
21
-171.157
0
LINE
8
BLACK
6
CONTINUOUS
10
64.68
20
-171.157
11
64.5848
21
-170.871
0
LINE
8
BLACK
6
CONTINUOUS
10
64.5848
20
-170.871
11
64.4895
21
-170.68
0
LINE
8
BLACK
6
CONTINUOUS
10
64.4895
20
-170.68
11
64.2991
21
-170.395
0
LINE
8
BLACK
6
CONTINUOUS
10
64.2991
20
-170.395
11
64.2038
21
-170.3
0
LINE
8
BLACK
6
CONTINUOUS
10
14.3871
20
-175.007
11
14.3871
21
-173.593
0
LINE
8
BLACK
6
CONTINUOUS
10
14.3871
20
-173.593
11
12.9729
21
-173.593
0
LINE
8
BLACK
6
CONTINUOUS
10
12.9729
20
-173.593
11
12.9729
21
-175.007
0
LINE
8
BLACK
6
CONTINUOUS
10
12.9729
20
-175.007
11
14.3871
21
-175.007
0
LINE
8
BLACK
6
CONTINUOUS
10
17.061
20
-173.416
11
17.1562
21
-173.32
0
LINE
8
BLACK
6
CONTINUOUS
10
17.1562
20
-173.32
11
17.3467
21
-173.225
0
LINE
8
BLACK
6
CONTINUOUS
10
17.3467
20
-173.225
11
17.8229
21
-173.225
0
LINE
8
BLACK
6
CONTINUOUS
10
17.8229
20
-173.225
11
18.0133
21
-173.32
0
LINE
8
BLACK
6
CONTINUOUS
10
18.0133
20
-173.32
11
18.1086
21
-173.416
0
LINE
8
BLACK
6
CONTINUOUS
10
18.1086
20
-173.416
11
18.2038
21
-173.606
0
LINE
8
BLACK
6
CONTINUOUS
10
18.2038
20
-173.606
11
18.2038
21
-173.797
0
LINE
8
BLACK
6
CONTINUOUS
10
18.2038
20
-173.797
11
18.1086
21
-174.082
0
LINE
8
BLACK
6
CONTINUOUS
10
18.1086
20
-174.082
11
16.9657
21
-175.225
0
LINE
8
BLACK
6
CONTINUOUS
10
16.9657
20
-175.225
11
18.2038
21
-175.225
0
LINE
8
BLACK
6
CONTINUOUS
10
19.061
20
-175.035
11
19.1562
21
-175.13
0
LINE
8
BLACK
6
CONTINUOUS
10
19.1562
20
-175.13
11
19.061
21
-175.225
0
LINE
8
BLACK
6
CONTINUOUS
10
19.061
20
-175.225
11
18.9657
21
-175.13
0
LINE
8
BLACK
6
CONTINUOUS
10
18.9657
20
-175.13
11
19.061
21
-175.035
0
LINE
8
BLACK
6
CONTINUOUS
10
19.061
20
-175.035
11
19.061
21
-175.225
0
LINE
8
BLACK
6
CONTINUOUS
10
19.8229
20
-173.225
11
21.061
21
-173.225
0
LINE
8
BLACK
6
CONTINUOUS
10
21.061
20
-173.225
11
20.3943
21
-173.987
0
LINE
8
BLACK
6
CONTINUOUS
10
20.3943
20
-173.987
11
20.68
21
-173.987
0
LINE
8
BLACK
6
CONTINUOUS
10
20.68
20
-173.987
11
20.8705
21
-174.082
0
LINE
8
BLACK
6
CONTINUOUS
10
20.8705
20
-174.082
11
20.9657
21
-174.178
0
LINE
8
BLACK
6
CONTINUOUS
10
20.9657
20
-174.178
11
21.061
21
-174.368
0
LINE
8
BLACK
6
CONTINUOUS
10
21.061
20
-174.368
11
21.061
21
-174.844
0
LINE
8
BLACK
6
CONTINUOUS
10
21.061
20
-174.844
11
20.9657
21
-175.035
0
LINE
8
BLACK
6
CONTINUOUS
10
20.9657
20
-175.035
11
20.8705
21
-175.13
0
LINE
8
BLACK
6
CONTINUOUS
10
20.8705
20
-175.13
11
20.68
21
-175.225
0
LINE
8
BLACK
6
CONTINUOUS
10
20.68
20
-175.225
11
20.1086
21
-175.225
0
LINE
8
BLACK
6
CONTINUOUS
10
20.1086
20
-175.225
11
19.9181
21
-175.13
0
LINE
8
BLACK
6
CONTINUOUS
10
19.9181
20
-175.13
11
19.8229
21
-175.035
0
LINE
8
BLACK
6
CONTINUOUS
10
22.299
20
-173.225
11
22.4895
21
-173.225
0
LINE
8
BLACK
6
CONTINUOUS
10
22.4895
20
-173.225
11
22.68
21
-173.32
0
LINE
8
BLACK
6
CONTINUOUS
10
22.68
20
-173.32
11
22.7752
21
-173.416
0
LINE
8
BLACK
6
CONTINUOUS
10
22.7752
20
-173.416
11
22.8705
21
-173.606
0
LINE
8
BLACK
6
CONTINUOUS
10
22.8705
20
-173.606
11
22.9657
21
-173.987
0
LINE
8
BLACK
6
CONTINUOUS
10
22.9657
20
-173.987
11
22.9657
21
-174.463
0
LINE
8
BLACK
6
CONTINUOUS
10
22.9657
20
-174.463
11
22.8705
21
-174.844
0
LINE
8
BLACK
6
CONTINUOUS
10
22.8705
20
-174.844
11
22.7752
21
-175.035
0
LINE
8
BLACK
6
CONTINUOUS
10
22.7752
20
-175.035
11
22.68
21
-175.13
0
LINE
8
BLACK
6
CONTINUOUS
10
22.68
20
-175.13
11
22.4895
21
-175.225
0
LINE
8
BLACK
6
CONTINUOUS
10
22.4895
20
-175.225
11
22.299
21
-175.225
0
LINE
8
BLACK
6
CONTINUOUS
10
22.299
20
-175.225
11
22.1086
21
-175.13
0
LINE
8
BLACK
6
CONTINUOUS
10
22.1086
20
-175.13
11
22.0133
21
-175.035
0
LINE
8
BLACK
6
CONTINUOUS
10
22.0133
20
-175.035
11
21.9181
21
-174.844
0
LINE
8
BLACK
6
CONTINUOUS
10
21.9181
20
-174.844
11
21.8229
21
-174.463
0
LINE
8
BLACK
6
CONTINUOUS
10
21.8229
20
-174.463
11
21.8229
21
-173.987
0
LINE
8
BLACK
6
CONTINUOUS
10
21.8229
20
-173.987
11
21.9181
21
-173.606
0
LINE
8
BLACK
6
CONTINUOUS
10
21.9181
20
-173.606
11
22.0133
21
-173.416
0
LINE
8
BLACK
6
CONTINUOUS
10
22.0133
20
-173.416
11
22.1086
21
-173.32
0
LINE
8
BLACK
6
CONTINUOUS
10
22.1086
20
-173.32
11
22.299
21
-173.225
0
LINE
8
BLACK
6
CONTINUOUS
10
24.2038
20
-173.225
11
24.3943
21
-173.225
0
LINE
8
BLACK
6
CONTINUOUS
10
24.3943
20
-173.225
11
24.5848
21
-173.32
0
LINE
8
BLACK
6
CONTINUOUS
10
24.5848
20
-173.32
11
24.68
21
-173.416
0
LINE
8
BLACK
6
CONTINUOUS
10
24.68
20
-173.416
11
24.7752
21
-173.606
0
LINE
8
BLACK
6
CONTINUOUS
10
24.7752
20
-173.606
11
24.8705
21
-173.987
0
LINE
8
BLACK
6
CONTINUOUS
10
24.8705
20
-173.987
11
24.8705
21
-174.463
0
LINE
8
BLACK
6
CONTINUOUS
10
24.8705
20
-174.463
11
24.7752
21
-174.844
0
LINE
8
BLACK
6
CONTINUOUS
10
24.7752
20
-174.844
11
24.68
21
-175.035
0
LINE
8
BLACK
6
CONTINUOUS
10
24.68
20
-175.035
11
24.5848
21
-175.13
0
LINE
8
BLACK
6
CONTINUOUS
10
24.5848
20
-175.13
11
24.3943
21
-175.225
0
LINE
8
BLACK
6
CONTINUOUS
10
24.3943
20
-175.225
11
24.2038
21
-175.225
0
LINE
8
BLACK
6
CONTINUOUS
10
24.2038
20
-175.225
11
24.0133
21
-175.13
0
LINE
8
BLACK
6
CONTINUOUS
10
24.0133
20
-175.13
11
23.9181
21
-175.035
0
LINE
8
BLACK
6
CONTINUOUS
10
23.9181
20
-175.035
11
23.8229
21
-174.844
0
LINE
8
BLACK
6
CONTINUOUS
10
23.8229
20
-174.844
11
23.7276
21
-174.463
0
LINE
8
BLACK
6
CONTINUOUS
10
23.7276
20
-174.463
11
23.7276
21
-173.987
0
LINE
8
BLACK
6
CONTINUOUS
10
23.7276
20
-173.987
11
23.8229
21
-173.606
0
LINE
8
BLACK
6
CONTINUOUS
10
23.8229
20
-173.606
11
23.9181
21
-173.416
0
LINE
8
BLACK
6
CONTINUOUS
10
23.9181
20
-173.416
11
24.0133
21
-173.32
0
LINE
8
BLACK
6
CONTINUOUS
10
24.0133
20
-173.32
11
24.2038
21
-173.225
0
LINE
8
BLACK
6
CONTINUOUS
10
25.7276
20
-175.225
11
25.7276
21
-173.892
0
LINE
8
BLACK
6
CONTINUOUS
10
25.7276
20
-174.082
11
25.8229
21
-173.987
0
LINE
8
BLACK
6
CONTINUOUS
10
25.8229
20
-173.987
11
26.0133
21
-173.892
0
LINE
8
BLACK
6
CONTINUOUS
10
26.0133
20
-173.892
11
26.299
21
-173.892
0
LINE
8
BLACK
6
CONTINUOUS
10
26.299
20
-173.892
11
26.4895
21
-173.987
0
LINE
8
BLACK
6
CONTINUOUS
10
26.4895
20
-173.987
11
26.5848
21
-174.178
0
LINE
8
BLACK
6
CONTINUOUS
10
26.5848
20
-174.178
11
26.5848
21
-175.225
0
LINE
8
BLACK
6
CONTINUOUS
10
26.5848
20
-174.178
11
26.68
21
-173.987
0
LINE
8
BLACK
6
CONTINUOUS
10
26.68
20
-173.987
11
26.8705
21
-173.892
0
LINE
8
BLACK
6
CONTINUOUS
10
26.8705
20
-173.892
11
27.1562
21
-173.892
0
LINE
8
BLACK
6
CONTINUOUS
10
27.1562
20
-173.892
11
27.3467
21
-173.987
0
LINE
8
BLACK
6
CONTINUOUS
10
27.3467
20
-173.987
11
27.4419
21
-174.178
0
LINE
8
BLACK
6
CONTINUOUS
10
27.4419
20
-174.178
11
27.4419
21
-175.225
0
LINE
8
BLACK
6
CONTINUOUS
10
28.3943
20
-175.225
11
28.3943
21
-173.892
0
LINE
8
BLACK
6
CONTINUOUS
10
28.3943
20
-174.082
11
28.4895
21
-173.987
0
LINE
8
BLACK
6
CONTINUOUS
10
28.4895
20
-173.987
11
28.68
21
-173.892
0
LINE
8
BLACK
6
CONTINUOUS
10
28.68
20
-173.892
11
28.9657
21
-173.892
0
LINE
8
BLACK
6
CONTINUOUS
10
28.9657
20
-173.892
11
29.1562
21
-173.987
0
LINE
8
BLACK
6
CONTINUOUS
10
29.1562
20
-173.987
11
29.2514
21
-174.178
0
LINE
8
BLACK
6
CONTINUOUS
10
29.2514
20
-174.178
11
29.2514
21
-175.225
0
LINE
8
BLACK
6
CONTINUOUS
10
29.2514
20
-174.178
11
29.3467
21
-173.987
0
LINE
8
BLACK
6
CONTINUOUS
10
29.3467
20
-173.987
11
29.5371
21
-173.892
0
LINE
8
BLACK
6
CONTINUOUS
10
29.5371
20
-173.892
11
29.8229
21
-173.892
0
LINE
8
BLACK
6
CONTINUOUS
10
29.8229
20
-173.892
11
30.0133
21
-173.987
0
LINE
8
BLACK
6
CONTINUOUS
10
30.0133
20
-173.987
11
30.1086
21
-174.178
0
LINE
8
BLACK
6
CONTINUOUS
10
30.1086
20
-174.178
11
30.1086
21
-175.225
0
LINE
8
BLACK
6
CONTINUOUS
10
34.0133
20
-173.13
11
32.299
21
-175.701
0
LINE
8
BLACK
6
CONTINUOUS
10
36.5848
20
-173.225
11
36.7752
21
-173.225
0
LINE
8
BLACK
6
CONTINUOUS
10
36.7752
20
-173.225
11
36.9657
21
-173.32
0
LINE
8
BLACK
6
CONTINUOUS
10
36.9657
20
-173.32
11
37.061
21
-173.416
0
LINE
8
BLACK
6
CONTINUOUS
10
37.061
20
-173.416
11
37.1562
21
-173.606
0
LINE
8
BLACK
6
CONTINUOUS
10
37.1562
20
-173.606
11
37.2514
21
-173.987
0
LINE
8
BLACK
6
CONTINUOUS
10
37.2514
20
-173.987
11
37.2514
21
-174.463
0
LINE
8
BLACK
6
CONTINUOUS
10
37.2514
20
-174.463
11
37.1562
21
-174.844
0
LINE
8
BLACK
6
CONTINUOUS
10
37.1562
20
-174.844
11
37.061
21
-175.035
0
LINE
8
BLACK
6
CONTINUOUS
10
37.061
20
-175.035
11
36.9657
21
-175.13
0
LINE
8
BLACK
6
CONTINUOUS
10
36.9657
20
-175.13
11
36.7752
21
-175.225
0
LINE
8
BLACK
6
CONTINUOUS
10
36.7752
20
-175.225
11
36.5848
21
-175.225
0
LINE
8
BLACK
6
CONTINUOUS
10
36.5848
20
-175.225
11
36.3943
21
-175.13
0
LINE
8
BLACK
6
CONTINUOUS
10
36.3943
20
-175.13
11
36.299
21
-175.035
0
LINE
8
BLACK
6
CONTINUOUS
10
36.299
20
-175.035
11
36.2038
21
-174.844
0
LINE
8
BLACK
6
CONTINUOUS
10
36.2038
20
-174.844
11
36.1086
21
-174.463
0
LINE
8
BLACK
6
CONTINUOUS
10
36.1086
20
-174.463
11
36.1086
21
-173.987
0
LINE
8
BLACK
6
CONTINUOUS
10
36.1086
20
-173.987
11
36.2038
21
-173.606
0
LINE
8
BLACK
6
CONTINUOUS
10
36.2038
20
-173.606
11
36.299
21
-173.416
0
LINE
8
BLACK
6
CONTINUOUS
10
36.299
20
-173.416
11
36.3943
21
-173.32
0
LINE
8
BLACK
6
CONTINUOUS
10
36.3943
20
-173.32
11
36.5848
21
-173.225
0
LINE
8
BLACK
6
CONTINUOUS
10
38.1086
20
-175.035
11
38.2038
21
-175.13
0
LINE
8
BLACK
6
CONTINUOUS
10
38.2038
20
-175.13
11
38.1086
21
-175.225
0
LINE
8
BLACK
6
CONTINUOUS
10
38.1086
20
-175.225
11
38.0133
21
-175.13
0
LINE
8
BLACK
6
CONTINUOUS
10
38.0133
20
-175.13
11
38.1086
21
-175.035
0
LINE
8
BLACK
6
CONTINUOUS
10
38.1086
20
-175.035
11
38.1086
21
-175.225
0
LINE
8
BLACK
6
CONTINUOUS
10
39.4419
20
-173.225
11
39.6324
21
-173.225
0
LINE
8
BLACK
6
CONTINUOUS
10
39.6324
20
-173.225
11
39.8229
21
-173.32
0
LINE
8
BLACK
6
CONTINUOUS
10
39.8229
20
-173.32
11
39.9181
21
-173.416
0
LINE
8
BLACK
6
CONTINUOUS
10
39.9181
20
-173.416
11
40.0133
21
-173.606
0
LINE
8
BLACK
6
CONTINUOUS
10
40.0133
20
-173.606
11
40.1086
21
-173.987
0
LINE
8
BLACK
6
CONTINUOUS
10
40.1086
20
-173.987
11
40.1086
21
-174.463
0
LINE
8
BLACK
6
CONTINUOUS
10
40.1086
20
-174.463
11
40.0133
21
-174.844
0
LINE
8
BLACK
6
CONTINUOUS
10
40.0133
20
-174.844
11
39.9181
21
-175.035
0
LINE
8
BLACK
6
CONTINUOUS
10
39.9181
20
-175.035
11
39.8229
21
-175.13
0
LINE
8
BLACK
6
CONTINUOUS
10
39.8229
20
-175.13
11
39.6324
21
-175.225
0
LINE
8
BLACK
6
CONTINUOUS
10
39.6324
20
-175.225
11
39.4419
21
-175.225
0
LINE
8
BLACK
6
CONTINUOUS
10
39.4419
20
-175.225
11
39.2514
21
-175.13
0
LINE
8
BLACK
6
CONTINUOUS
10
39.2514
20
-175.13
11
39.1562
21
-175.035
0
LINE
8
BLACK
6
CONTINUOUS
10
39.1562
20
-175.035
11
39.061
21
-174.844
0
LINE
8
BLACK
6
CONTINUOUS
10
39.061
20
-174.844
11
38.9657
21
-174.463
0
LINE
8
BLACK
6
CONTINUOUS
10
38.9657
20
-174.463
11
38.9657
21
-173.987
0
LINE
8
BLACK
6
CONTINUOUS
10
38.9657
20
-173.987
11
39.061
21
-173.606
0
LINE
8
BLACK
6
CONTINUOUS
10
39.061
20
-173.606
11
39.1562
21
-173.416
0
LINE
8
BLACK
6
CONTINUOUS
10
39.1562
20
-173.416
11
39.2514
21
-173.32
0
LINE
8
BLACK
6
CONTINUOUS
10
39.2514
20
-173.32
11
39.4419
21
-173.225
0
LINE
8
BLACK
6
CONTINUOUS
10
41.061
20
-175.225
11
41.4419
21
-175.225
0
LINE
8
BLACK
6
CONTINUOUS
10
41.4419
20
-175.225
11
41.6324
21
-175.13
0
LINE
8
BLACK
6
CONTINUOUS
10
41.6324
20
-175.13
11
41.7276
21
-175.035
0
LINE
8
BLACK
6
CONTINUOUS
10
41.7276
20
-175.035
11
41.9181
21
-174.749
0
LINE
8
BLACK
6
CONTINUOUS
10
41.9181
20
-174.749
11
42.0133
21
-174.368
0
LINE
8
BLACK
6
CONTINUOUS
10
42.0133
20
-174.368
11
42.0133
21
-173.606
0
LINE
8
BLACK
6
CONTINUOUS
10
42.0133
20
-173.606
11
41.9181
21
-173.416
0
LINE
8
BLACK
6
CONTINUOUS
10
41.9181
20
-173.416
11
41.8229
21
-173.32
0
LINE
8
BLACK
6
CONTINUOUS
10
41.8229
20
-173.32
11
41.6324
21
-173.225
0
LINE
8
BLACK
6
CONTINUOUS
10
41.6324
20
-173.225
11
41.2514
21
-173.225
0
LINE
8
BLACK
6
CONTINUOUS
10
41.2514
20
-173.225
11
41.061
21
-173.32
0
LINE
8
BLACK
6
CONTINUOUS
10
41.061
20
-173.32
11
40.9657
21
-173.416
0
LINE
8
BLACK
6
CONTINUOUS
10
40.9657
20
-173.416
11
40.8705
21
-173.606
0
LINE
8
BLACK
6
CONTINUOUS
10
40.8705
20
-173.606
11
40.8705
21
-174.082
0
LINE
8
BLACK
6
CONTINUOUS
10
40.8705
20
-174.082
11
40.9657
21
-174.273
0
LINE
8
BLACK
6
CONTINUOUS
10
40.9657
20
-174.273
11
41.061
21
-174.368
0
LINE
8
BLACK
6
CONTINUOUS
10
41.061
20
-174.368
11
41.2514
21
-174.463
0
LINE
8
BLACK
6
CONTINUOUS
10
41.2514
20
-174.463
11
41.6324
21
-174.463
0
LINE
8
BLACK
6
CONTINUOUS
10
41.6324
20
-174.463
11
41.8229
21
-174.368
0
LINE
8
BLACK
6
CONTINUOUS
10
41.8229
20
-174.368
11
41.9181
21
-174.273
0
LINE
8
BLACK
6
CONTINUOUS
10
41.9181
20
-174.273
11
42.0133
21
-174.082
0
LINE
8
BLACK
6
CONTINUOUS
10
43.2514
20
-173.225
11
43.4419
21
-173.225
0
LINE
8
BLACK
6
CONTINUOUS
10
43.4419
20
-173.225
11
43.6324
21
-173.32
0
LINE
8
BLACK
6
CONTINUOUS
10
43.6324
20
-173.32
11
43.7276
21
-173.416
0
LINE
8
BLACK
6
CONTINUOUS
10
43.7276
20
-173.416
11
43.8229
21
-173.606
0
LINE
8
BLACK
6
CONTINUOUS
10
43.8229
20
-173.606
11
43.9181
21
-173.987
0
LINE
8
BLACK
6
CONTINUOUS
10
43.9181
20
-173.987
11
43.9181
21
-174.463
0
LINE
8
BLACK
6
CONTINUOUS
10
43.9181
20
-174.463
11
43.8229
21
-174.844
0
LINE
8
BLACK
6
CONTINUOUS
10
43.8229
20
-174.844
11
43.7276
21
-175.035
0
LINE
8
BLACK
6
CONTINUOUS
10
43.7276
20
-175.035
11
43.6324
21
-175.13
0
LINE
8
BLACK
6
CONTINUOUS
10
43.6324
20
-175.13
11
43.4419
21
-175.225
0
LINE
8
BLACK
6
CONTINUOUS
10
43.4419
20
-175.225
11
43.2514
21
-175.225
0
LINE
8
BLACK
6
CONTINUOUS
10
43.2514
20
-175.225
11
43.061
21
-175.13
0
LINE
8
BLACK
6
CONTINUOUS
10
43.061
20
-175.13
11
42.9657
21
-175.035
0
LINE
8
BLACK
6
CONTINUOUS
10
42.9657
20
-175.035
11
42.8705
21
-174.844
0
LINE
8
BLACK
6
CONTINUOUS
10
42.8705
20
-174.844
11
42.7752
21
-174.463
0
LINE
8
BLACK
6
CONTINUOUS
10
42.7752
20
-174.463
11
42.7752
21
-173.987
0
LINE
8
BLACK
6
CONTINUOUS
10
42.7752
20
-173.987
11
42.8705
21
-173.606
0
LINE
8
BLACK
6
CONTINUOUS
10
42.8705
20
-173.606
11
42.9657
21
-173.416
0
LINE
8
BLACK
6
CONTINUOUS
10
42.9657
20
-173.416
11
43.061
21
-173.32
0
LINE
8
BLACK
6
CONTINUOUS
10
43.061
20
-173.32
11
43.2514
21
-173.225
0
LINE
8
BLACK
6
CONTINUOUS
10
45.6324
20
-173.225
11
45.2514
21
-173.225
0
LINE
8
BLACK
6
CONTINUOUS
10
45.2514
20
-173.225
11
45.061
21
-173.32
0
LINE
8
BLACK
6
CONTINUOUS
10
45.061
20
-173.32
11
44.9657
21
-173.416
0
LINE
8
BLACK
6
CONTINUOUS
10
44.9657
20
-173.416
11
44.7752
21
-173.701
0
LINE
8
BLACK
6
CONTINUOUS
10
44.7752
20
-173.701
11
44.68
21
-174.082
0
LINE
8
BLACK
6
CONTINUOUS
10
44.68
20
-174.082
11
44.68
21
-174.844
0
LINE
8
BLACK
6
CONTINUOUS
10
44.68
20
-174.844
11
44.7752
21
-175.035
0
LINE
8
BLACK
6
CONTINUOUS
10
44.7752
20
-175.035
11
44.8705
21
-175.13
0
LINE
8
BLACK
6
CONTINUOUS
10
44.8705
20
-175.13
11
45.061
21
-175.225
0
LINE
8
BLACK
6
CONTINUOUS
10
45.061
20
-175.225
11
45.4419
21
-175.225
0
LINE
8
BLACK
6
CONTINUOUS
10
45.4419
20
-175.225
11
45.6324
21
-175.13
0
LINE
8
BLACK
6
CONTINUOUS
10
45.6324
20
-175.13
11
45.7276
21
-175.035
0
LINE
8
BLACK
6
CONTINUOUS
10
45.7276
20
-175.035
11
45.8229
21
-174.844
0
LINE
8
BLACK
6
CONTINUOUS
10
45.8229
20
-174.844
11
45.8229
21
-174.368
0
LINE
8
BLACK
6
CONTINUOUS
10
45.8229
20
-174.368
11
45.7276
21
-174.178
0
LINE
8
BLACK
6
CONTINUOUS
10
45.7276
20
-174.178
11
45.6324
21
-174.082
0
LINE
8
BLACK
6
CONTINUOUS
10
45.6324
20
-174.082
11
45.4419
21
-173.987
0
LINE
8
BLACK
6
CONTINUOUS
10
45.4419
20
-173.987
11
45.061
21
-173.987
0
LINE
8
BLACK
6
CONTINUOUS
10
45.061
20
-173.987
11
44.8705
21
-174.082
0
LINE
8
BLACK
6
CONTINUOUS
10
44.8705
20
-174.082
11
44.7752
21
-174.178
0
LINE
8
BLACK
6
CONTINUOUS
10
44.7752
20
-174.178
11
44.68
21
-174.368
0
LINE
8
BLACK
6
CONTINUOUS
10
46.5848
20
-173.225
11
46.5848
21
-173.606
0
LINE
8
BLACK
6
CONTINUOUS
10
47.3467
20
-173.225
11
47.3467
21
-173.606
0
LINE
8
BLACK
6
CONTINUOUS
10
50.2991
20
-175.987
11
50.2038
21
-175.892
0
LINE
8
BLACK
6
CONTINUOUS
10
50.2038
20
-175.892
11
50.0133
21
-175.606
0
LINE
8
BLACK
6
CONTINUOUS
10
50.0133
20
-175.606
11
49.9181
21
-175.416
0
LINE
8
BLACK
6
CONTINUOUS
10
49.9181
20
-175.416
11
49.8229
21
-175.13
0
LINE
8
BLACK
6
CONTINUOUS
10
49.8229
20
-175.13
11
49.7276
21
-174.654
0
LINE
8
BLACK
6
CONTINUOUS
10
49.7276
20
-174.654
11
49.7276
21
-174.273
0
LINE
8
BLACK
6
CONTINUOUS
10
49.7276
20
-174.273
11
49.8229
21
-173.797
0
LINE
8
BLACK
6
CONTINUOUS
10
49.8229
20
-173.797
11
49.9181
21
-173.511
0
LINE
8
BLACK
6
CONTINUOUS
10
49.9181
20
-173.511
11
50.0133
21
-173.32
0
LINE
8
BLACK
6
CONTINUOUS
10
50.0133
20
-173.32
11
50.2038
21
-173.035
0
LINE
8
BLACK
6
CONTINUOUS
10
50.2038
20
-173.035
11
50.2991
21
-172.94
0
LINE
8
BLACK
6
CONTINUOUS
10
50.8705
20
-173.225
11
52.2038
21
-173.225
0
LINE
8
BLACK
6
CONTINUOUS
10
52.2038
20
-173.225
11
51.3467
21
-175.225
0
LINE
8
BLACK
6
CONTINUOUS
10
54.4895
20
-175.225
11
54.4895
21
-173.225
0
LINE
8
BLACK
6
CONTINUOUS
10
55.3467
20
-175.225
11
55.3467
21
-174.178
0
LINE
8
BLACK
6
CONTINUOUS
10
55.3467
20
-174.178
11
55.2514
21
-173.987
0
LINE
8
BLACK
6
CONTINUOUS
10
55.2514
20
-173.987
11
55.061
21
-173.892
0
LINE
8
BLACK
6
CONTINUOUS
10
55.061
20
-173.892
11
54.7752
21
-173.892
0
LINE
8
BLACK
6
CONTINUOUS
10
54.7752
20
-173.892
11
54.5848
21
-173.987
0
LINE
8
BLACK
6
CONTINUOUS
10
54.5848
20
-173.987
11
54.4895
21
-174.082
0
LINE
8
BLACK
6
CONTINUOUS
10
56.5848
20
-175.225
11
56.3943
21
-175.13
0
LINE
8
BLACK
6
CONTINUOUS
10
56.3943
20
-175.13
11
56.2991
21
-175.035
0
LINE
8
BLACK
6
CONTINUOUS
10
56.2991
20
-175.035
11
56.2038
21
-174.844
0
LINE
8
BLACK
6
CONTINUOUS
10
56.2038
20
-174.844
11
56.2038
21
-174.273
0
LINE
8
BLACK
6
CONTINUOUS
10
56.2038
20
-174.273
11
56.2991
21
-174.082
0
LINE
8
BLACK
6
CONTINUOUS
10
56.2991
20
-174.082
11
56.3943
21
-173.987
0
LINE
8
BLACK
6
CONTINUOUS
10
56.3943
20
-173.987
11
56.5848
21
-173.892
0
LINE
8
BLACK
6
CONTINUOUS
10
56.5848
20
-173.892
11
56.8705
21
-173.892
0
LINE
8
BLACK
6
CONTINUOUS
10
56.8705
20
-173.892
11
57.061
21
-173.987
0
LINE
8
BLACK
6
CONTINUOUS
10
57.061
20
-173.987
11
57.1562
21
-174.082
0
LINE
8
BLACK
6
CONTINUOUS
10
57.1562
20
-174.082
11
57.2514
21
-174.273
0
LINE
8
BLACK
6
CONTINUOUS
10
57.2514
20
-174.273
11
57.2514
21
-174.844
0
LINE
8
BLACK
6
CONTINUOUS
10
57.2514
20
-174.844
11
57.1562
21
-175.035
0
LINE
8
BLACK
6
CONTINUOUS
10
57.1562
20
-175.035
11
57.061
21
-175.13
0
LINE
8
BLACK
6
CONTINUOUS
10
57.061
20
-175.13
11
56.8705
21
-175.225
0
LINE
8
BLACK
6
CONTINUOUS
10
56.8705
20
-175.225
11
56.5848
21
-175.225
0
LINE
8
BLACK
6
CONTINUOUS
10
58.3943
20
-175.225
11
58.2038
21
-175.13
0
LINE
8
BLACK
6
CONTINUOUS
10
58.2038
20
-175.13
11
58.1086
21
-174.94
0
LINE
8
BLACK
6
CONTINUOUS
10
58.1086
20
-174.94
11
58.1086
21
-173.225
0
LINE
8
BLACK
6
CONTINUOUS
10
59.9181
20
-175.13
11
59.7276
21
-175.225
0
LINE
8
BLACK
6
CONTINUOUS
10
59.7276
20
-175.225
11
59.3467
21
-175.225
0
LINE
8
BLACK
6
CONTINUOUS
10
59.3467
20
-175.225
11
59.1562
21
-175.13
0
LINE
8
BLACK
6
CONTINUOUS
10
59.1562
20
-175.13
11
59.061
21
-174.94
0
LINE
8
BLACK
6
CONTINUOUS
10
59.061
20
-174.94
11
59.061
21
-174.178
0
LINE
8
BLACK
6
CONTINUOUS
10
59.061
20
-174.178
11
59.1562
21
-173.987
0
LINE
8
BLACK
6
CONTINUOUS
10
59.1562
20
-173.987
11
59.3467
21
-173.892
0
LINE
8
BLACK
6
CONTINUOUS
10
59.3467
20
-173.892
11
59.7276
21
-173.892
0
LINE
8
BLACK
6
CONTINUOUS
10
59.7276
20
-173.892
11
59.9181
21
-173.987
0
LINE
8
BLACK
6
CONTINUOUS
10
59.9181
20
-173.987
11
60.0133
21
-174.178
0
LINE
8
BLACK
6
CONTINUOUS
10
60.0133
20
-174.178
11
60.0133
21
-174.368
0
LINE
8
BLACK
6
CONTINUOUS
10
60.0133
20
-174.368
11
59.061
21
-174.559
0
LINE
8
BLACK
6
CONTINUOUS
10
60.7752
20
-175.13
11
60.9657
21
-175.225
0
LINE
8
BLACK
6
CONTINUOUS
10
60.9657
20
-175.225
11
61.3467
21
-175.225
0
LINE
8
BLACK
6
CONTINUOUS
10
61.3467
20
-175.225
11
61.5371
21
-175.13
0
LINE
8
BLACK
6
CONTINUOUS
10
61.5371
20
-175.13
11
61.6324
21
-174.94
0
LINE
8
BLACK
6
CONTINUOUS
10
61.6324
20
-174.94
11
61.6324
21
-174.844
0
LINE
8
BLACK
6
CONTINUOUS
10
61.6324
20
-174.844
11
61.5371
21
-174.654
0
LINE
8
BLACK
6
CONTINUOUS
10
61.5371
20
-174.654
11
61.3467
21
-174.559
0
LINE
8
BLACK
6
CONTINUOUS
10
61.3467
20
-174.559
11
61.061
21
-174.559
0
LINE
8
BLACK
6
CONTINUOUS
10
61.061
20
-174.559
11
60.8705
21
-174.463
0
LINE
8
BLACK
6
CONTINUOUS
10
60.8705
20
-174.463
11
60.7752
21
-174.273
0
LINE
8
BLACK
6
CONTINUOUS
10
60.7752
20
-174.273
11
60.7752
21
-174.178
0
LINE
8
BLACK
6
CONTINUOUS
10
60.7752
20
-174.178
11
60.8705
21
-173.987
0
LINE
8
BLACK
6
CONTINUOUS
10
60.8705
20
-173.987
11
61.061
21
-173.892
0
LINE
8
BLACK
6
CONTINUOUS
10
61.061
20
-173.892
11
61.3467
21
-173.892
0
LINE
8
BLACK
6
CONTINUOUS
10
61.3467
20
-173.892
11
61.5371
21
-173.987
0
LINE
8
BLACK
6
CONTINUOUS
10
62.2991
20
-175.987
11
62.3943
21
-175.892
0
LINE
8
BLACK
6
CONTINUOUS
10
62.3943
20
-175.892
11
62.5848
21
-175.606
0
LINE
8
BLACK
6
CONTINUOUS
10
62.5848
20
-175.606
11
62.68
21
-175.416
0
LINE
8
BLACK
6
CONTINUOUS
10
62.68
20
-175.416
11
62.7752
21
-175.13
0
LINE
8
BLACK
6
CONTINUOUS
10
62.7752
20
-175.13
11
62.8705
21
-174.654
0
LINE
8
BLACK
6
CONTINUOUS
10
62.8705
20
-174.654
11
62.8705
21
-174.273
0
LINE
8
BLACK
6
CONTINUOUS
10
62.8705
20
-174.273
11
62.7752
21
-173.797
0
LINE
8
BLACK
6
CONTINUOUS
10
62.7752
20
-173.797
11
62.68
21
-173.511
0
LINE
8
BLACK
6
CONTINUOUS
10
62.68
20
-173.511
11
62.5848
21
-173.32
0
LINE
8
BLACK
6
CONTINUOUS
10
62.5848
20
-173.32
11
62.3943
21
-173.035
0
LINE
8
BLACK
6
CONTINUOUS
10
62.3943
20
-173.035
11
62.2991
21
-172.94
  0
ENDSEC
  0
EOF
