%TF.GenerationSoftware,KiCad,Pcbnew,7.0.1*%
%TF.CreationDate,2023-04-15T18:04:16-04:00*%
%TF.ProjectId,Frigate,46726967-6174-4652-9e6b-696361645f70,rev?*%
%TF.SameCoordinates,Original*%
%TF.FileFunction,Profile,NP*%
%FSLAX46Y46*%
G04 Gerber Fmt 4.6, Leading zero omitted, Abs format (unit mm)*
G04 Created by KiCad (PCBNEW 7.0.1) date 2023-04-15 18:04:16*
%MOMM*%
%LPD*%
G01*
G04 APERTURE LIST*
%TA.AperFunction,Profile*%
%ADD10C,0.100000*%
%TD*%
G04 APERTURE END LIST*
D10*
X147790000Y-95750000D02*
X134610000Y-95760000D01*
X38870000Y-46370000D02*
X14730000Y-98140000D01*
X97830000Y-55090000D02*
X80570000Y-47040000D01*
X134650000Y-74860000D02*
X132220000Y-74860000D01*
X58780000Y-135690000D02*
X90570000Y-159820000D01*
X134610000Y-95760000D02*
X134650000Y-74920000D01*
X224720000Y-136040000D02*
X268730000Y-98250000D01*
X90570000Y-159820000D02*
X193430000Y-159930000D01*
X244570000Y-46450000D02*
X222120000Y-43450000D01*
X150230000Y-74870000D02*
X147810000Y-74870000D01*
X134650000Y-74920000D02*
X134650000Y-74860000D01*
X185640000Y-55430000D02*
X154650000Y-79130000D01*
X61270000Y-43360000D02*
X38870000Y-46370000D01*
X128830000Y-78800000D02*
X97830000Y-55090000D01*
X268730000Y-98250000D02*
X244570000Y-46450000D01*
X154650000Y-79130000D02*
X150230000Y-74870000D01*
X80570000Y-47040000D02*
X61270000Y-43360000D01*
X132220000Y-74860000D02*
X128830000Y-78800000D01*
X222120000Y-43450000D02*
X202900000Y-47380000D01*
X147810000Y-74870000D02*
X147790000Y-95750000D01*
X14730000Y-98140000D02*
X58780000Y-135690000D01*
X193430000Y-159930000D02*
X224720000Y-136040000D01*
X202900000Y-47380000D02*
X185640000Y-55430000D01*
M02*
