  0
SECTION
  2
HEADER
  9
$ANGBASE
  50
0.0
  9
$ANGDIR
  70
1
  9
$MEASUREMENT
  70
1
  0
ENDSEC
  0
SECTION
  2
TABLES
  0
TABLE
  2
LTYPE
  70
4
  0
LTYPE
  5
40F
  2
CONTINUOUS
  70
0
  3
Solid line
  72
65
  73
0
  40
0.0
  0
LTYPE
  5
410
  2
DASHDOT
 70
0
  3
Dash Dot ____ _ ____ _
 72
65
 73
4
 40
2.0
 49
1.25
 49
-0.25
 49
0.25
 49
-0.25
  0
LTYPE
  5
411
  2
DASHED
 70
0
  3
Dashed __ __ __ __ __
 72
65
 73
2
 40
0.75
 49
0.5
 49
-0.25
  0
LTYPE
  5
43B
  2
DOTTED
 70
0
  3
Dotted .  .  .  .
 72
65
 73
2
 40
0.2
 49
0.0
 49
-0.2
  0
ENDTAB
  0
TABLE
  2
STYLE
  70
4
  0
STYLE
  2
KICAD
  70
0
  40
0
  41
1
  42
1
  50
0
  71
0
  3
isocp.shx
  0
STYLE
  2
KICADB
  70
0
  40
0
  41
1
  42
1
  50
0
  71
0
  3
isocp.shx
  0
STYLE
  2
KICADI
  70
0
  40
0
  41
1
  42
1
  50
15
  71
0
  3
isocp.shx
  0
STYLE
  2
KICADBI
  70
0
  40
0
  41
1
  42
1
  50
15
  71
0
  3
isocp.shx
  0
ENDTAB
  0
TABLE
  2
LAYER
  70
1
  0
LAYER
  2
BLACK
  70
0
  62
7
  6
CONTINUOUS
  0
ENDTAB
  0
ENDSEC
  0
SECTION
  2
ENTITIES
0
LINE
8
BLACK
6
CONTINUOUS
10
147.79
20
-95.75
11
134.61
21
-95.76
0
LINE
8
BLACK
6
CONTINUOUS
10
38.87
20
-46.37
11
14.73
21
-98.14
0
LINE
8
BLACK
6
CONTINUOUS
10
97.83
20
-55.09
11
80.57
21
-47.04
0
LINE
8
BLACK
6
CONTINUOUS
10
134.65
20
-74.86
11
132.22
21
-74.86
0
LINE
8
BLACK
6
CONTINUOUS
10
58.78
20
-135.69
11
90.57
21
-159.82
0
LINE
8
BLACK
6
CONTINUOUS
10
134.61
20
-95.76
11
134.65
21
-74.92
0
LINE
8
BLACK
6
CONTINUOUS
10
224.72
20
-136.04
11
268.73
21
-98.25
0
LINE
8
BLACK
6
CONTINUOUS
10
90.57
20
-159.82
11
193.43
21
-159.93
0
LINE
8
BLACK
6
CONTINUOUS
10
244.57
20
-46.45
11
222.12
21
-43.45
0
LINE
8
BLACK
6
CONTINUOUS
10
150.23
20
-74.87
11
147.81
21
-74.87
0
LINE
8
BLACK
6
CONTINUOUS
10
134.65
20
-74.92
11
134.65
21
-74.86
0
LINE
8
BLACK
6
CONTINUOUS
10
185.64
20
-55.43
11
154.65
21
-79.13
0
LINE
8
BLACK
6
CONTINUOUS
10
61.27
20
-43.36
11
38.87
21
-46.37
0
LINE
8
BLACK
6
CONTINUOUS
10
128.83
20
-78.8
11
97.83
21
-55.09
0
LINE
8
BLACK
6
CONTINUOUS
10
268.73
20
-98.25
11
244.57
21
-46.45
0
LINE
8
BLACK
6
CONTINUOUS
10
154.65
20
-79.13
11
150.23
21
-74.87
0
LINE
8
BLACK
6
CONTINUOUS
10
80.57
20
-47.04
11
61.27
21
-43.36
0
LINE
8
BLACK
6
CONTINUOUS
10
132.22
20
-74.86
11
128.83
21
-78.8
0
LINE
8
BLACK
6
CONTINUOUS
10
222.12
20
-43.45
11
202.9
21
-47.38
0
LINE
8
BLACK
6
CONTINUOUS
10
147.81
20
-74.87
11
147.79
21
-95.75
0
LINE
8
BLACK
6
CONTINUOUS
10
14.73
20
-98.14
11
58.78
21
-135.69
0
LINE
8
BLACK
6
CONTINUOUS
10
193.43
20
-159.93
11
224.72
21
-136.04
0
LINE
8
BLACK
6
CONTINUOUS
10
202.9
20
-47.38
11
185.64
21
-55.43
0
LINE
8
BLACK
6
CONTINUOUS
10
21.9138
20
-90.5645
11
23.6156
21
-92.2663
0
LINE
8
BLACK
6
CONTINUOUS
10
23.6156
20
-90.5645
11
21.9138
21
-92.2663
0
LINE
8
BLACK
6
CONTINUOUS
10
29.9647
20
-73.2993
11
31.6665
21
-75.0011
0
LINE
8
BLACK
6
CONTINUOUS
10
31.6665
20
-73.2993
11
29.9647
21
-75.0011
0
LINE
8
BLACK
6
CONTINUOUS
10
31.1219
20
-94.8583
11
32.8237
21
-96.5601
0
LINE
8
BLACK
6
CONTINUOUS
10
32.8237
20
-94.8583
11
31.1219
21
-96.5601
0
LINE
8
BLACK
6
CONTINUOUS
10
38.0155
20
-56.0342
11
39.7173
21
-57.736
0
LINE
8
BLACK
6
CONTINUOUS
10
39.7173
20
-56.0342
11
38.0155
21
-57.736
0
LINE
8
BLACK
6
CONTINUOUS
10
39.1727
20
-77.5931
11
40.8745
21
-79.2949
0
LINE
8
BLACK
6
CONTINUOUS
10
40.8745
20
-77.5931
11
39.1727
21
-79.2949
0
LINE
8
BLACK
6
CONTINUOUS
10
44.3315
20
-87.5657
11
46.0333
21
-89.2675
0
LINE
8
BLACK
6
CONTINUOUS
10
46.0333
20
-87.5657
11
44.3315
21
-89.2675
0
LINE
8
BLACK
6
CONTINUOUS
10
47.2236
20
-60.328
11
48.9254
21
-62.0298
0
LINE
8
BLACK
6
CONTINUOUS
10
48.9254
20
-60.328
11
47.2236
21
-62.0298
0
LINE
8
BLACK
6
CONTINUOUS
10
52.3824
20
-70.3005
11
54.0842
21
-72.0023
0
LINE
8
BLACK
6
CONTINUOUS
10
54.0842
20
-70.3005
11
52.3824
21
-72.0023
0
LINE
8
BLACK
6
CONTINUOUS
10
53.5396
20
-91.8595
11
55.2414
21
-93.5613
0
LINE
8
BLACK
6
CONTINUOUS
10
55.2414
20
-91.8595
11
53.5396
21
-93.5613
0
LINE
8
BLACK
6
CONTINUOUS
10
60.4333
20
-53.0353
11
62.1351
21
-54.7371
0
LINE
8
BLACK
6
CONTINUOUS
10
62.1351
20
-53.0353
11
60.4333
21
-54.7371
0
LINE
8
BLACK
6
CONTINUOUS
10
61.5905
20
-74.5943
11
63.2923
21
-76.2961
0
LINE
8
BLACK
6
CONTINUOUS
10
63.2923
20
-74.5943
11
61.5905
21
-76.2961
0
LINE
8
BLACK
6
CONTINUOUS
10
63.6362
20
-91.2427
11
65.338
21
-92.9445
0
LINE
8
BLACK
6
CONTINUOUS
10
65.338
20
-91.2427
11
63.6362
21
-92.9445
0
LINE
8
BLACK
6
CONTINUOUS
10
67.0191
20
-129.589
11
68.7209
21
-131.291
0
LINE
8
BLACK
6
CONTINUOUS
10
68.7209
20
-129.589
11
67.0191
21
-131.291
0
LINE
8
BLACK
6
CONTINUOUS
10
69.6414
20
-57.3291
11
71.3432
21
-59.0309
0
LINE
8
BLACK
6
CONTINUOUS
10
71.3432
20
-57.3291
11
69.6414
21
-59.0309
0
LINE
8
BLACK
6
CONTINUOUS
10
71.6626
20
-73.9661
11
73.3644
21
-75.6679
0
LINE
8
BLACK
6
CONTINUOUS
10
73.3644
20
-73.9661
11
71.6626
21
-75.6679
0
LINE
8
BLACK
6
CONTINUOUS
10
72.8443
20
-95.5365
11
74.5461
21
-97.2383
0
LINE
8
BLACK
6
CONTINUOUS
10
74.5461
20
-95.5365
11
72.8443
21
-97.2383
0
LINE
8
BLACK
6
CONTINUOUS
10
75.3417
20
-135.417
11
77.0435
21
-137.119
0
LINE
8
BLACK
6
CONTINUOUS
10
77.0435
20
-135.417
11
75.3417
21
-137.119
0
LINE
8
BLACK
6
CONTINUOUS
10
78.9692
20
-103.437
11
80.671
21
-105.139
0
LINE
8
BLACK
6
CONTINUOUS
10
80.671
20
-103.437
11
78.9692
21
-105.139
0
LINE
8
BLACK
6
CONTINUOUS
10
79.7135
20
-56.701
11
81.4153
21
-58.4028
0
LINE
8
BLACK
6
CONTINUOUS
10
81.4153
20
-56.701
11
79.7135
21
-58.4028
0
LINE
8
BLACK
6
CONTINUOUS
10
80.8707
20
-78.2599
11
82.5725
21
-79.9617
0
LINE
8
BLACK
6
CONTINUOUS
10
82.5725
20
-78.2599
11
80.8707
21
-79.9617
0
LINE
8
BLACK
6
CONTINUOUS
10
86.1181
20
-141.897
11
87.8199
21
-143.599
0
LINE
8
BLACK
6
CONTINUOUS
10
87.8199
20
-141.897
11
86.1181
21
-143.599
0
LINE
8
BLACK
6
CONTINUOUS
10
87.0201
20
-86.1721
11
88.7219
21
-87.8739
0
LINE
8
BLACK
6
CONTINUOUS
10
88.7219
20
-86.1721
11
87.0201
21
-87.8739
0
LINE
8
BLACK
6
CONTINUOUS
10
88.1773
20
-107.731
11
89.8791
21
-109.433
0
LINE
8
BLACK
6
CONTINUOUS
10
89.8791
20
-107.731
11
88.1773
21
-109.433
0
LINE
8
BLACK
6
CONTINUOUS
10
88.9216
20
-60.9948
11
90.6234
21
-62.6966
0
LINE
8
BLACK
6
CONTINUOUS
10
90.6234
20
-60.9948
11
88.9216
21
-62.6966
0
LINE
8
BLACK
6
CONTINUOUS
10
93.3023
20
-149.081
11
95.0041
21
-150.783
0
LINE
8
BLACK
6
CONTINUOUS
10
95.0041
20
-149.081
11
93.3023
21
-150.783
0
LINE
8
BLACK
6
CONTINUOUS
10
94.6242
20
-114.941
11
96.326
21
-116.643
0
LINE
8
BLACK
6
CONTINUOUS
10
96.326
20
-114.941
11
94.6242
21
-116.643
0
LINE
8
BLACK
6
CONTINUOUS
10
95.0709
20
-68.9069
11
96.7727
21
-70.6087
0
LINE
8
BLACK
6
CONTINUOUS
10
96.7727
20
-68.9069
11
95.0709
21
-70.6087
0
LINE
8
BLACK
6
CONTINUOUS
10
96.2281
20
-90.4659
11
97.9299
21
-92.1677
0
LINE
8
BLACK
6
CONTINUOUS
10
97.9299
20
-90.4659
11
96.2281
21
-92.1677
0
LINE
8
BLACK
6
CONTINUOUS
10
102.651
20
-97.6646
11
104.352
21
-99.3664
0
LINE
8
BLACK
6
CONTINUOUS
10
104.352
20
-97.6646
11
102.651
21
-99.3664
0
LINE
8
BLACK
6
CONTINUOUS
10
103.832
20
-119.235
11
105.534
21
-120.937
0
LINE
8
BLACK
6
CONTINUOUS
10
105.534
20
-119.235
11
103.832
21
-120.937
0
LINE
8
BLACK
6
CONTINUOUS
10
104.279
20
-73.2007
11
105.981
21
-74.9025
0
LINE
8
BLACK
6
CONTINUOUS
10
105.981
20
-73.2007
11
104.279
21
-74.9025
0
LINE
8
BLACK
6
CONTINUOUS
10
110.726
20
-80.4108
11
112.428
21
-82.1126
0
LINE
8
BLACK
6
CONTINUOUS
10
112.428
20
-80.4108
11
110.726
21
-82.1126
0
LINE
8
BLACK
6
CONTINUOUS
10
111.859
20
-101.958
11
113.56
21
-103.66
0
LINE
8
BLACK
6
CONTINUOUS
10
113.56
20
-101.958
11
111.859
21
-103.66
0
LINE
8
BLACK
6
CONTINUOUS
10
119.934
20
-84.7046
11
121.636
21
-86.4064
0
LINE
8
BLACK
6
CONTINUOUS
10
121.636
20
-84.7046
11
119.934
21
-86.4064
0
LINE
8
BLACK
6
CONTINUOUS
10
161.849
20
-85.0332
11
163.551
21
-86.735
0
LINE
8
BLACK
6
CONTINUOUS
10
163.551
20
-85.0332
11
161.849
21
-86.735
0
LINE
8
BLACK
6
CONTINUOUS
10
169.9
20
-102.298
11
171.602
21
-104
0
LINE
8
BLACK
6
CONTINUOUS
10
171.602
20
-102.298
11
169.9
21
-104
0
LINE
8
BLACK
6
CONTINUOUS
10
171.057
20
-80.7394
11
172.759
21
-82.4412
0
LINE
8
BLACK
6
CONTINUOUS
10
172.759
20
-80.7394
11
171.057
21
-82.4412
0
LINE
8
BLACK
6
CONTINUOUS
10
177.504
20
-73.5293
11
179.206
21
-75.2311
0
LINE
8
BLACK
6
CONTINUOUS
10
179.206
20
-73.5293
11
177.504
21
-75.2311
0
LINE
8
BLACK
6
CONTINUOUS
10
177.951
20
-119.564
11
179.653
21
-121.265
0
LINE
8
BLACK
6
CONTINUOUS
10
179.653
20
-119.564
11
177.951
21
-121.265
0
LINE
8
BLACK
6
CONTINUOUS
10
179.108
20
-98.0046
11
180.81
21
-99.7064
0
LINE
8
BLACK
6
CONTINUOUS
10
180.81
20
-98.0046
11
179.108
21
-99.7064
0
LINE
8
BLACK
6
CONTINUOUS
10
185.555
20
-90.7945
11
187.257
21
-92.4963
0
LINE
8
BLACK
6
CONTINUOUS
10
187.257
20
-90.7945
11
185.555
21
-92.4963
0
LINE
8
BLACK
6
CONTINUOUS
10
186.712
20
-69.2355
11
188.414
21
-70.9373
0
LINE
8
BLACK
6
CONTINUOUS
10
188.414
20
-69.2355
11
186.712
21
-70.9373
0
LINE
8
BLACK
6
CONTINUOUS
10
187.159
20
-115.27
11
188.861
21
-116.972
0
LINE
8
BLACK
6
CONTINUOUS
10
188.861
20
-115.27
11
187.159
21
-116.972
0
LINE
8
BLACK
6
CONTINUOUS
10
188.996
20
-149.18
11
190.697
21
-150.882
0
LINE
8
BLACK
6
CONTINUOUS
10
190.697
20
-149.18
11
188.996
21
-150.882
0
LINE
8
BLACK
6
CONTINUOUS
10
192.837
20
-61.3348
11
194.539
21
-63.0366
0
LINE
8
BLACK
6
CONTINUOUS
10
194.539
20
-61.3348
11
192.837
21
-63.0366
0
LINE
8
BLACK
6
CONTINUOUS
10
193.606
20
-108.06
11
195.308
21
-109.761
0
LINE
8
BLACK
6
CONTINUOUS
10
195.308
20
-108.06
11
193.606
21
-109.761
0
LINE
8
BLACK
6
CONTINUOUS
10
194.763
20
-86.5007
11
196.465
21
-88.2025
0
LINE
8
BLACK
6
CONTINUOUS
10
196.465
20
-86.5007
11
194.763
21
-88.2025
0
LINE
8
BLACK
6
CONTINUOUS
10
196.18
20
-141.996
11
197.882
21
-143.698
0
LINE
8
BLACK
6
CONTINUOUS
10
197.882
20
-141.996
11
196.18
21
-143.698
0
LINE
8
BLACK
6
CONTINUOUS
10
200.888
20
-78.5999
11
202.59
21
-80.3017
0
LINE
8
BLACK
6
CONTINUOUS
10
202.59
20
-78.5999
11
200.888
21
-80.3017
0
LINE
8
BLACK
6
CONTINUOUS
10
202.045
20
-57.041
11
203.747
21
-58.7428
0
LINE
8
BLACK
6
CONTINUOUS
10
203.747
20
-57.041
11
202.045
21
-58.7428
0
LINE
8
BLACK
6
CONTINUOUS
10
202.814
20
-103.766
11
204.516
21
-105.468
0
LINE
8
BLACK
6
CONTINUOUS
10
204.516
20
-103.766
11
202.814
21
-105.468
0
LINE
8
BLACK
6
CONTINUOUS
10
206.42
20
-135.763
11
208.122
21
-137.465
0
LINE
8
BLACK
6
CONTINUOUS
10
208.122
20
-135.763
11
206.42
21
-137.465
0
LINE
8
BLACK
6
CONTINUOUS
10
208.939
20
-95.8651
11
210.641
21
-97.5669
0
LINE
8
BLACK
6
CONTINUOUS
10
210.641
20
-95.8651
11
208.939
21
-97.5669
0
LINE
8
BLACK
6
CONTINUOUS
10
210.096
20
-74.3061
11
211.798
21
-76.0079
0
LINE
8
BLACK
6
CONTINUOUS
10
211.798
20
-74.3061
11
210.096
21
-76.0079
0
LINE
8
BLACK
6
CONTINUOUS
10
212.059
20
-57.4161
11
213.761
21
-59.1179
0
LINE
8
BLACK
6
CONTINUOUS
10
213.761
20
-57.4161
11
212.059
21
-59.1179
0
LINE
8
BLACK
6
CONTINUOUS
10
214.743
20
-129.935
11
216.445
21
-131.637
0
LINE
8
BLACK
6
CONTINUOUS
10
216.445
20
-129.935
11
214.743
21
-131.637
0
LINE
8
BLACK
6
CONTINUOUS
10
218.147
20
-91.5713
11
219.849
21
-93.2731
0
LINE
8
BLACK
6
CONTINUOUS
10
219.849
20
-91.5713
11
218.147
21
-93.2731
0
LINE
8
BLACK
6
CONTINUOUS
10
220.134
20
-74.6699
11
221.836
21
-76.3717
0
LINE
8
BLACK
6
CONTINUOUS
10
221.836
20
-74.6699
11
220.134
21
-76.3717
0
LINE
8
BLACK
6
CONTINUOUS
10
221.267
20
-53.1223
11
222.969
21
-54.8241
0
LINE
8
BLACK
6
CONTINUOUS
10
222.969
20
-53.1223
11
221.267
21
-54.8241
0
LINE
8
BLACK
6
CONTINUOUS
10
228.161
20
-91.9465
11
229.862
21
-93.6483
0
LINE
8
BLACK
6
CONTINUOUS
10
229.862
20
-91.9465
11
228.161
21
-93.6483
0
LINE
8
BLACK
6
CONTINUOUS
10
229.342
20
-70.3761
11
231.044
21
-72.0779
0
LINE
8
BLACK
6
CONTINUOUS
10
231.044
20
-70.3761
11
229.342
21
-72.0779
0
LINE
8
BLACK
6
CONTINUOUS
10
234.501
20
-60.4035
11
236.203
21
-62.1053
0
LINE
8
BLACK
6
CONTINUOUS
10
236.203
20
-60.4035
11
234.501
21
-62.1053
0
LINE
8
BLACK
6
CONTINUOUS
10
237.369
20
-87.6526
11
239.071
21
-89.3544
0
LINE
8
BLACK
6
CONTINUOUS
10
239.071
20
-87.6526
11
237.369
21
-89.3544
0
LINE
8
BLACK
6
CONTINUOUS
10
242.552
20
-77.6687
11
244.254
21
-79.3705
0
LINE
8
BLACK
6
CONTINUOUS
10
244.254
20
-77.6687
11
242.552
21
-79.3705
0
LINE
8
BLACK
6
CONTINUOUS
10
243.709
20
-56.1097
11
245.411
21
-57.8115
0
LINE
8
BLACK
6
CONTINUOUS
10
245.411
20
-56.1097
11
243.709
21
-57.8115
0
LINE
8
BLACK
6
CONTINUOUS
10
250.603
20
-94.9339
11
252.305
21
-96.6357
0
LINE
8
BLACK
6
CONTINUOUS
10
252.305
20
-94.9339
11
250.603
21
-96.6357
0
LINE
8
BLACK
6
CONTINUOUS
10
251.76
20
-73.3749
11
253.462
21
-75.0767
0
LINE
8
BLACK
6
CONTINUOUS
10
253.462
20
-73.3749
11
251.76
21
-75.0767
0
LINE
8
BLACK
6
CONTINUOUS
10
259.811
20
-90.6401
11
261.513
21
-92.3419
0
LINE
8
BLACK
6
CONTINUOUS
10
261.513
20
-90.6401
11
259.811
21
-92.3419
0
CIRCLE
8
BLACK
10
24.9891
20
-89.6501
40
1.5
0
CIRCLE
8
BLACK
10
31.8176
20
-90.0317
40
1.5
0
CIRCLE
8
BLACK
10
33.04
20
-72.3849
40
1.5
0
CIRCLE
8
BLACK
10
39.8685
20
-72.7665
40
1.5
0
CIRCLE
8
BLACK
10
41.0909
20
-55.1198
40
1.5
0
CIRCLE
8
BLACK
10
47.4069
20
-86.6513
40
1.5
0
CIRCLE
8
BLACK
10
47.9194
20
-55.5014
40
1.5
0
CIRCLE
8
BLACK
10
54.2354
20
-87.0329
40
1.5
0
CIRCLE
8
BLACK
10
55.4577
20
-69.3861
40
1.5
0
CIRCLE
8
BLACK
10
62.2863
20
-69.7677
40
1.5
0
CIRCLE
8
BLACK
10
63.5086
20
-52.1209
40
1.5
0
CIRCLE
8
BLACK
10
66.7116
20
-90.3283
40
1.5
0
CIRCLE
8
BLACK
10
70.3371
20
-52.5025
40
1.5
0
CIRCLE
8
BLACK
10
70.3672
20
-129.088
40
1.5
0
CIRCLE
8
BLACK
10
73.5401
20
-90.7099
40
1.5
0
CIRCLE
8
BLACK
10
74.738
20
-73.0517
40
1.5
0
CIRCLE
8
BLACK
10
77.0257
20
-130.649
40
1.5
0
CIRCLE
8
BLACK
10
81.5665
20
-73.4333
40
1.5
0
CIRCLE
8
BLACK
10
82.0445
20
-102.523
40
1.5
0
CIRCLE
8
BLACK
10
82.7889
20
-55.7866
40
1.5
0
CIRCLE
8
BLACK
10
88.873
20
-102.904
40
1.5
0
CIRCLE
8
BLACK
10
89.6174
20
-56.1682
40
1.5
0
CIRCLE
8
BLACK
10
89.6631
20
-141.85
40
1.5
0
CIRCLE
8
BLACK
10
90.0954
20
-85.2577
40
1.5
0
CIRCLE
8
BLACK
10
95.9493
20
-144.544
40
1.5
0
CIRCLE
8
BLACK
10
96.9239
20
-85.6393
40
1.5
0
CIRCLE
8
BLACK
10
97.6995
20
-114.027
40
1.5
0
CIRCLE
8
BLACK
10
98.1463
20
-67.9925
40
1.5
0
CIRCLE
8
BLACK
10
104.528
20
-114.408
40
1.5
0
CIRCLE
8
BLACK
10
104.975
20
-68.3741
40
1.5
0
CIRCLE
8
BLACK
10
105.726
20
-96.7502
40
1.5
0
CIRCLE
8
BLACK
10
112.554
20
-97.1318
40
1.5
0
CIRCLE
8
BLACK
10
113.801
20
-79.4964
40
1.5
0
CIRCLE
8
BLACK
10
120.63
20
-79.878
40
1.5
0
CIRCLE
8
BLACK
10
162.778
20
-83.0454
40
1.5
0
CIRCLE
8
BLACK
10
167.459
20
-78.0597
40
1.5
0
CIRCLE
8
BLACK
10
170.828
20
-100.311
40
1.5
0
CIRCLE
8
BLACK
10
175.51
20
-95.3249
40
1.5
0
CIRCLE
8
BLACK
10
178.433
20
-71.5414
40
1.5
0
CIRCLE
8
BLACK
10
178.879
20
-117.576
40
1.5
0
CIRCLE
8
BLACK
10
183.114
20
-66.5558
40
1.5
0
CIRCLE
8
BLACK
10
183.561
20
-112.59
40
1.5
0
CIRCLE
8
BLACK
10
186.483
20
-88.8066
40
1.5
0
CIRCLE
8
BLACK
10
188.948
20
-147.337
40
1.5
0
CIRCLE
8
BLACK
10
191.165
20
-83.821
40
1.5
0
CIRCLE
8
BLACK
10
191.642
20
-141.051
40
1.5
0
CIRCLE
8
BLACK
10
193.765
20
-59.3469
40
1.5
0
CIRCLE
8
BLACK
10
194.534
20
-106.072
40
1.5
0
CIRCLE
8
BLACK
10
198.447
20
-54.3613
40
1.5
0
CIRCLE
8
BLACK
10
199.216
20
-101.086
40
1.5
0
CIRCLE
8
BLACK
10
201.816
20
-76.6121
40
1.5
0
CIRCLE
8
BLACK
10
206.498
20
-71.6264
40
1.5
0
CIRCLE
8
BLACK
10
206.855
20
-133.805
40
1.5
0
CIRCLE
8
BLACK
10
209.867
20
-93.8773
40
1.5
0
CIRCLE
8
BLACK
10
210.6
20
-128.082
40
1.5
0
CIRCLE
8
BLACK
10
212.987
20
-55.4283
40
1.5
0
CIRCLE
8
BLACK
10
214.549
20
-88.8916
40
1.5
0
CIRCLE
8
BLACK
10
217.669
20
-50.4426
40
1.5
0
CIRCLE
8
BLACK
10
221.063
20
-72.682
40
1.5
0
CIRCLE
8
BLACK
10
225.744
20
-67.6964
40
1.5
0
CIRCLE
8
BLACK
10
229.089
20
-89.9586
40
1.5
0
CIRCLE
8
BLACK
10
233.771
20
-84.973
40
1.5
0
CIRCLE
8
BLACK
10
235.43
20
-58.4157
40
1.5
0
CIRCLE
8
BLACK
10
240.111
20
-53.43
40
1.5
0
CIRCLE
8
BLACK
10
243.48
20
-75.6809
40
1.5
0
CIRCLE
8
BLACK
10
248.162
20
-70.6952
40
1.5
0
CIRCLE
8
BLACK
10
251.531
20
-92.946
40
1.5
0
CIRCLE
8
BLACK
10
256.213
20
-87.9604
40
1.5
0
LINE
8
BLACK
6
CONTINUOUS
10
27.3687
20
-91.5684
11
27.3687
21
-95.5562
0
LINE
8
BLACK
6
CONTINUOUS
10
25.3748
20
-93.5623
11
29.3626
21
-93.5623
0
LINE
8
BLACK
6
CONTINUOUS
10
35.4196
20
-74.3032
11
35.4196
21
-78.291
0
LINE
8
BLACK
6
CONTINUOUS
10
33.4257
20
-76.2971
11
37.4135
21
-76.2971
0
LINE
8
BLACK
6
CONTINUOUS
10
43.4705
20
-57.0381
11
43.4705
21
-61.0259
0
LINE
8
BLACK
6
CONTINUOUS
10
41.4766
20
-59.032
11
45.4644
21
-59.032
0
LINE
8
BLACK
6
CONTINUOUS
10
49.7865
20
-88.5696
11
49.7865
21
-92.5574
0
LINE
8
BLACK
6
CONTINUOUS
10
47.7926
20
-90.5635
11
51.7804
21
-90.5635
0
LINE
8
BLACK
6
CONTINUOUS
10
57.8373
20
-71.3044
11
57.8373
21
-75.2922
0
LINE
8
BLACK
6
CONTINUOUS
10
55.8434
20
-73.2983
11
59.8312
21
-73.2983
0
LINE
8
BLACK
6
CONTINUOUS
10
65.8882
20
-54.0392
11
65.8882
21
-58.027
0
LINE
8
BLACK
6
CONTINUOUS
10
63.8943
20
-56.0331
11
67.8821
21
-56.0331
0
LINE
8
BLACK
6
CONTINUOUS
10
69.0912
20
-92.2466
11
69.0912
21
-96.2344
0
LINE
8
BLACK
6
CONTINUOUS
10
67.0973
20
-94.2405
11
71.0851
21
-94.2405
0
LINE
8
BLACK
6
CONTINUOUS
10
72.0313
20
-131.36
11
72.0313
21
-135.348
0
LINE
8
BLACK
6
CONTINUOUS
10
70.0374
20
-133.354
11
74.0252
21
-133.354
0
LINE
8
BLACK
6
CONTINUOUS
10
77.1176
20
-74.97
11
77.1176
21
-78.9578
0
LINE
8
BLACK
6
CONTINUOUS
10
75.1237
20
-76.9639
11
79.1115
21
-76.9639
0
LINE
8
BLACK
6
CONTINUOUS
10
84.4241
20
-104.441
11
84.4241
21
-108.429
0
LINE
8
BLACK
6
CONTINUOUS
10
82.4302
20
-106.435
11
86.418
21
-106.435
0
LINE
8
BLACK
6
CONTINUOUS
10
85.1685
20
-57.7049
11
85.1685
21
-61.6927
0
LINE
8
BLACK
6
CONTINUOUS
10
83.1746
20
-59.6988
11
87.1624
21
-59.6988
0
LINE
8
BLACK
6
CONTINUOUS
10
90.5611
20
-144.346
11
90.5611
21
-148.334
0
LINE
8
BLACK
6
CONTINUOUS
10
88.5672
20
-146.34
11
92.555
21
-146.34
0
LINE
8
BLACK
6
CONTINUOUS
10
92.475
20
-87.176
11
92.475
21
-91.1638
0
LINE
8
BLACK
6
CONTINUOUS
10
90.4811
20
-89.1699
11
94.4689
21
-89.1699
0
LINE
8
BLACK
6
CONTINUOUS
10
100.079
20
-115.945
11
100.079
21
-119.933
0
LINE
8
BLACK
6
CONTINUOUS
10
98.0852
20
-117.939
11
102.073
21
-117.939
0
LINE
8
BLACK
6
CONTINUOUS
10
100.526
20
-69.9108
11
100.526
21
-73.8986
0
LINE
8
BLACK
6
CONTINUOUS
10
98.532
20
-71.9047
11
102.52
21
-71.9047
0
LINE
8
BLACK
6
CONTINUOUS
10
108.106
20
-98.6685
11
108.106
21
-102.656
0
LINE
8
BLACK
6
CONTINUOUS
10
106.112
20
-100.662
11
110.099
21
-100.662
0
LINE
8
BLACK
6
CONTINUOUS
10
116.181
20
-81.4147
11
116.181
21
-85.4025
0
LINE
8
BLACK
6
CONTINUOUS
10
114.187
20
-83.4086
11
118.175
21
-83.4086
0
LINE
8
BLACK
6
CONTINUOUS
10
167.304
20
-81.7433
11
167.304
21
-85.7311
0
LINE
8
BLACK
6
CONTINUOUS
10
165.31
20
-83.7372
11
169.298
21
-83.7372
0
LINE
8
BLACK
6
CONTINUOUS
10
175.355
20
-99.0085
11
175.355
21
-102.996
0
LINE
8
BLACK
6
CONTINUOUS
10
173.361
20
-101.002
11
177.349
21
-101.002
0
LINE
8
BLACK
6
CONTINUOUS
10
182.959
20
-70.2394
11
182.959
21
-74.2272
0
LINE
8
BLACK
6
CONTINUOUS
10
180.965
20
-72.2333
11
184.953
21
-72.2333
0
LINE
8
BLACK
6
CONTINUOUS
10
183.406
20
-116.274
11
183.406
21
-120.261
0
LINE
8
BLACK
6
CONTINUOUS
10
181.412
20
-118.268
11
185.4
21
-118.268
0
LINE
8
BLACK
6
CONTINUOUS
10
191.01
20
-87.5046
11
191.01
21
-91.4924
0
LINE
8
BLACK
6
CONTINUOUS
10
189.016
20
-89.4985
11
193.004
21
-89.4985
0
LINE
8
BLACK
6
CONTINUOUS
10
193.439
20
-144.445
11
193.439
21
-148.433
0
LINE
8
BLACK
6
CONTINUOUS
10
191.445
20
-146.439
11
195.432
21
-146.439
0
LINE
8
BLACK
6
CONTINUOUS
10
198.292
20
-58.0449
11
198.292
21
-62.0327
0
LINE
8
BLACK
6
CONTINUOUS
10
196.298
20
-60.0388
11
200.286
21
-60.0388
0
LINE
8
BLACK
6
CONTINUOUS
10
199.061
20
-104.77
11
199.061
21
-108.758
0
LINE
8
BLACK
6
CONTINUOUS
10
197.067
20
-106.764
11
201.055
21
-106.764
0
LINE
8
BLACK
6
CONTINUOUS
10
206.343
20
-75.31
11
206.343
21
-79.2978
0
LINE
8
BLACK
6
CONTINUOUS
10
204.349
20
-77.3039
11
208.337
21
-77.3039
0
LINE
8
BLACK
6
CONTINUOUS
10
211.433
20
-131.706
11
211.433
21
-135.694
0
LINE
8
BLACK
6
CONTINUOUS
10
209.439
20
-133.7
11
213.427
21
-133.7
0
LINE
8
BLACK
6
CONTINUOUS
10
214.394
20
-92.5752
11
214.394
21
-96.563
0
LINE
8
BLACK
6
CONTINUOUS
10
212.4
20
-94.5691
11
216.388
21
-94.5691
0
LINE
8
BLACK
6
CONTINUOUS
10
217.514
20
-54.1262
11
217.514
21
-58.114
0
LINE
8
BLACK
6
CONTINUOUS
10
215.52
20
-56.1201
11
219.508
21
-56.1201
0
LINE
8
BLACK
6
CONTINUOUS
10
225.589
20
-71.38
11
225.589
21
-75.3678
0
LINE
8
BLACK
6
CONTINUOUS
10
223.595
20
-73.3739
11
227.583
21
-73.3739
0
LINE
8
BLACK
6
CONTINUOUS
10
233.616
20
-88.6565
11
233.616
21
-92.6444
0
LINE
8
BLACK
6
CONTINUOUS
10
231.622
20
-90.6504
11
235.609
21
-90.6504
0
LINE
8
BLACK
6
CONTINUOUS
10
239.956
20
-57.1136
11
239.956
21
-61.1014
0
LINE
8
BLACK
6
CONTINUOUS
10
237.962
20
-59.1075
11
241.95
21
-59.1075
0
LINE
8
BLACK
6
CONTINUOUS
10
248.007
20
-74.3788
11
248.007
21
-78.3666
0
LINE
8
BLACK
6
CONTINUOUS
10
246.013
20
-76.3727
11
250.001
21
-76.3727
0
LINE
8
BLACK
6
CONTINUOUS
10
256.058
20
-91.644
11
256.058
21
-95.6318
0
LINE
8
BLACK
6
CONTINUOUS
10
254.064
20
-93.6379
11
258.052
21
-93.6379
0
LINE
8
BLACK
6
CONTINUOUS
10
17.1562
20
-163.105
11
17.1562
21
-161.105
0
LINE
8
BLACK
6
CONTINUOUS
10
17.1562
20
-161.105
11
17.6324
21
-161.105
0
LINE
8
BLACK
6
CONTINUOUS
10
17.6324
20
-161.105
11
17.9181
21
-161.2
0
LINE
8
BLACK
6
CONTINUOUS
10
17.9181
20
-161.2
11
18.1086
21
-161.391
0
LINE
8
BLACK
6
CONTINUOUS
10
18.1086
20
-161.391
11
18.2038
21
-161.581
0
LINE
8
BLACK
6
CONTINUOUS
10
18.2038
20
-161.581
11
18.299
21
-161.962
0
LINE
8
BLACK
6
CONTINUOUS
10
18.299
20
-161.962
11
18.299
21
-162.248
0
LINE
8
BLACK
6
CONTINUOUS
10
18.299
20
-162.248
11
18.2038
21
-162.629
0
LINE
8
BLACK
6
CONTINUOUS
10
18.2038
20
-162.629
11
18.1086
21
-162.82
0
LINE
8
BLACK
6
CONTINUOUS
10
18.1086
20
-162.82
11
17.9181
21
-163.01
0
LINE
8
BLACK
6
CONTINUOUS
10
17.9181
20
-163.01
11
17.6324
21
-163.105
0
LINE
8
BLACK
6
CONTINUOUS
10
17.6324
20
-163.105
11
17.1562
21
-163.105
0
LINE
8
BLACK
6
CONTINUOUS
10
19.1562
20
-163.105
11
19.1562
21
-161.772
0
LINE
8
BLACK
6
CONTINUOUS
10
19.1562
20
-162.153
11
19.2514
21
-161.962
0
LINE
8
BLACK
6
CONTINUOUS
10
19.2514
20
-161.962
11
19.3467
21
-161.867
0
LINE
8
BLACK
6
CONTINUOUS
10
19.3467
20
-161.867
11
19.5371
21
-161.772
0
LINE
8
BLACK
6
CONTINUOUS
10
19.5371
20
-161.772
11
19.7276
21
-161.772
0
LINE
8
BLACK
6
CONTINUOUS
10
20.3943
20
-163.105
11
20.3943
21
-161.772
0
LINE
8
BLACK
6
CONTINUOUS
10
20.3943
20
-161.105
11
20.299
21
-161.2
0
LINE
8
BLACK
6
CONTINUOUS
10
20.299
20
-161.2
11
20.3943
21
-161.296
0
LINE
8
BLACK
6
CONTINUOUS
10
20.3943
20
-161.296
11
20.4895
21
-161.2
0
LINE
8
BLACK
6
CONTINUOUS
10
20.4895
20
-161.2
11
20.3943
21
-161.105
0
LINE
8
BLACK
6
CONTINUOUS
10
20.3943
20
-161.105
11
20.3943
21
-161.296
0
LINE
8
BLACK
6
CONTINUOUS
10
21.6324
20
-163.105
11
21.4419
21
-163.01
0
LINE
8
BLACK
6
CONTINUOUS
10
21.4419
20
-163.01
11
21.3467
21
-162.82
0
LINE
8
BLACK
6
CONTINUOUS
10
21.3467
20
-162.82
11
21.3467
21
-161.105
0
LINE
8
BLACK
6
CONTINUOUS
10
22.68
20
-163.105
11
22.4895
21
-163.01
0
LINE
8
BLACK
6
CONTINUOUS
10
22.4895
20
-163.01
11
22.3943
21
-162.82
0
LINE
8
BLACK
6
CONTINUOUS
10
22.3943
20
-162.82
11
22.3943
21
-161.105
0
LINE
8
BLACK
6
CONTINUOUS
10
24.9657
20
-163.105
11
24.9657
21
-161.105
0
LINE
8
BLACK
6
CONTINUOUS
10
24.9657
20
-161.105
11
25.6324
21
-162.534
0
LINE
8
BLACK
6
CONTINUOUS
10
25.6324
20
-162.534
11
26.299
21
-161.105
0
LINE
8
BLACK
6
CONTINUOUS
10
26.299
20
-161.105
11
26.299
21
-163.105
0
LINE
8
BLACK
6
CONTINUOUS
10
28.1086
20
-163.105
11
28.1086
21
-162.058
0
LINE
8
BLACK
6
CONTINUOUS
10
28.1086
20
-162.058
11
28.0133
21
-161.867
0
LINE
8
BLACK
6
CONTINUOUS
10
28.0133
20
-161.867
11
27.8229
21
-161.772
0
LINE
8
BLACK
6
CONTINUOUS
10
27.8229
20
-161.772
11
27.4419
21
-161.772
0
LINE
8
BLACK
6
CONTINUOUS
10
27.4419
20
-161.772
11
27.2514
21
-161.867
0
LINE
8
BLACK
6
CONTINUOUS
10
28.1086
20
-163.01
11
27.9181
21
-163.105
0
LINE
8
BLACK
6
CONTINUOUS
10
27.9181
20
-163.105
11
27.4419
21
-163.105
0
LINE
8
BLACK
6
CONTINUOUS
10
27.4419
20
-163.105
11
27.2514
21
-163.01
0
LINE
8
BLACK
6
CONTINUOUS
10
27.2514
20
-163.01
11
27.1562
21
-162.82
0
LINE
8
BLACK
6
CONTINUOUS
10
27.1562
20
-162.82
11
27.1562
21
-162.629
0
LINE
8
BLACK
6
CONTINUOUS
10
27.1562
20
-162.629
11
27.2514
21
-162.439
0
LINE
8
BLACK
6
CONTINUOUS
10
27.2514
20
-162.439
11
27.4419
21
-162.343
0
LINE
8
BLACK
6
CONTINUOUS
10
27.4419
20
-162.343
11
27.9181
21
-162.343
0
LINE
8
BLACK
6
CONTINUOUS
10
27.9181
20
-162.343
11
28.1086
21
-162.248
0
LINE
8
BLACK
6
CONTINUOUS
10
29.061
20
-161.772
11
29.061
21
-163.772
0
LINE
8
BLACK
6
CONTINUOUS
10
29.061
20
-161.867
11
29.2514
21
-161.772
0
LINE
8
BLACK
6
CONTINUOUS
10
29.2514
20
-161.772
11
29.6324
21
-161.772
0
LINE
8
BLACK
6
CONTINUOUS
10
29.6324
20
-161.772
11
29.8229
21
-161.867
0
LINE
8
BLACK
6
CONTINUOUS
10
29.8229
20
-161.867
11
29.9181
21
-161.962
0
LINE
8
BLACK
6
CONTINUOUS
10
29.9181
20
-161.962
11
30.0133
21
-162.153
0
LINE
8
BLACK
6
CONTINUOUS
10
30.0133
20
-162.153
11
30.0133
21
-162.724
0
LINE
8
BLACK
6
CONTINUOUS
10
30.0133
20
-162.724
11
29.9181
21
-162.915
0
LINE
8
BLACK
6
CONTINUOUS
10
29.9181
20
-162.915
11
29.8229
21
-163.01
0
LINE
8
BLACK
6
CONTINUOUS
10
29.8229
20
-163.01
11
29.6324
21
-163.105
0
LINE
8
BLACK
6
CONTINUOUS
10
29.6324
20
-163.105
11
29.2514
21
-163.105
0
LINE
8
BLACK
6
CONTINUOUS
10
29.2514
20
-163.105
11
29.061
21
-163.01
0
LINE
8
BLACK
6
CONTINUOUS
10
30.8705
20
-162.915
11
30.9657
21
-163.01
0
LINE
8
BLACK
6
CONTINUOUS
10
30.9657
20
-163.01
11
30.8705
21
-163.105
0
LINE
8
BLACK
6
CONTINUOUS
10
30.8705
20
-163.105
11
30.7752
21
-163.01
0
LINE
8
BLACK
6
CONTINUOUS
10
30.7752
20
-163.01
11
30.8705
21
-162.915
0
LINE
8
BLACK
6
CONTINUOUS
10
30.8705
20
-162.915
11
30.8705
21
-163.105
0
LINE
8
BLACK
6
CONTINUOUS
10
30.8705
20
-161.867
11
30.9657
21
-161.962
0
LINE
8
BLACK
6
CONTINUOUS
10
30.9657
20
-161.962
11
30.8705
21
-162.058
0
LINE
8
BLACK
6
CONTINUOUS
10
30.8705
20
-162.058
11
30.7752
21
-161.962
0
LINE
8
BLACK
6
CONTINUOUS
10
30.7752
20
-161.962
11
30.8705
21
-161.867
0
LINE
8
BLACK
6
CONTINUOUS
10
30.8705
20
-161.867
11
30.8705
21
-162.058
0
LINE
8
BLACK
6
CONTINUOUS
10
12.9782
20
-165.529
11
14.68
21
-167.231
0
LINE
8
BLACK
6
CONTINUOUS
10
14.68
20
-165.529
11
12.9782
21
-167.231
0
LINE
8
BLACK
6
CONTINUOUS
10
18.2038
20
-167.305
11
17.061
21
-167.305
0
LINE
8
BLACK
6
CONTINUOUS
10
17.6324
20
-167.305
11
17.6324
21
-165.305
0
LINE
8
BLACK
6
CONTINUOUS
10
17.6324
20
-165.305
11
17.4419
21
-165.591
0
LINE
8
BLACK
6
CONTINUOUS
10
17.4419
20
-165.591
11
17.2514
21
-165.781
0
LINE
8
BLACK
6
CONTINUOUS
10
17.2514
20
-165.781
11
17.061
21
-165.877
0
LINE
8
BLACK
6
CONTINUOUS
10
19.061
20
-167.115
11
19.1562
21
-167.21
0
LINE
8
BLACK
6
CONTINUOUS
10
19.1562
20
-167.21
11
19.061
21
-167.305
0
LINE
8
BLACK
6
CONTINUOUS
10
19.061
20
-167.305
11
18.9657
21
-167.21
0
LINE
8
BLACK
6
CONTINUOUS
10
18.9657
20
-167.21
11
19.061
21
-167.115
0
LINE
8
BLACK
6
CONTINUOUS
10
19.061
20
-167.115
11
19.061
21
-167.305
0
LINE
8
BLACK
6
CONTINUOUS
10
19.8229
20
-165.305
11
21.1562
21
-165.305
0
LINE
8
BLACK
6
CONTINUOUS
10
21.1562
20
-165.305
11
20.299
21
-167.305
0
LINE
8
BLACK
6
CONTINUOUS
10
22.299
20
-165.305
11
22.4895
21
-165.305
0
LINE
8
BLACK
6
CONTINUOUS
10
22.4895
20
-165.305
11
22.68
21
-165.4
0
LINE
8
BLACK
6
CONTINUOUS
10
22.68
20
-165.4
11
22.7752
21
-165.496
0
LINE
8
BLACK
6
CONTINUOUS
10
22.7752
20
-165.496
11
22.8705
21
-165.686
0
LINE
8
BLACK
6
CONTINUOUS
10
22.8705
20
-165.686
11
22.9657
21
-166.067
0
LINE
8
BLACK
6
CONTINUOUS
10
22.9657
20
-166.067
11
22.9657
21
-166.543
0
LINE
8
BLACK
6
CONTINUOUS
10
22.9657
20
-166.543
11
22.8705
21
-166.924
0
LINE
8
BLACK
6
CONTINUOUS
10
22.8705
20
-166.924
11
22.7752
21
-167.115
0
LINE
8
BLACK
6
CONTINUOUS
10
22.7752
20
-167.115
11
22.68
21
-167.21
0
LINE
8
BLACK
6
CONTINUOUS
10
22.68
20
-167.21
11
22.4895
21
-167.305
0
LINE
8
BLACK
6
CONTINUOUS
10
22.4895
20
-167.305
11
22.299
21
-167.305
0
LINE
8
BLACK
6
CONTINUOUS
10
22.299
20
-167.305
11
22.1086
21
-167.21
0
LINE
8
BLACK
6
CONTINUOUS
10
22.1086
20
-167.21
11
22.0133
21
-167.115
0
LINE
8
BLACK
6
CONTINUOUS
10
22.0133
20
-167.115
11
21.9181
21
-166.924
0
LINE
8
BLACK
6
CONTINUOUS
10
21.9181
20
-166.924
11
21.8229
21
-166.543
0
LINE
8
BLACK
6
CONTINUOUS
10
21.8229
20
-166.543
11
21.8229
21
-166.067
0
LINE
8
BLACK
6
CONTINUOUS
10
21.8229
20
-166.067
11
21.9181
21
-165.686
0
LINE
8
BLACK
6
CONTINUOUS
10
21.9181
20
-165.686
11
22.0133
21
-165.496
0
LINE
8
BLACK
6
CONTINUOUS
10
22.0133
20
-165.496
11
22.1086
21
-165.4
0
LINE
8
BLACK
6
CONTINUOUS
10
22.1086
20
-165.4
11
22.299
21
-165.305
0
LINE
8
BLACK
6
CONTINUOUS
10
23.7276
20
-165.496
11
23.8229
21
-165.4
0
LINE
8
BLACK
6
CONTINUOUS
10
23.8229
20
-165.4
11
24.0133
21
-165.305
0
LINE
8
BLACK
6
CONTINUOUS
10
24.0133
20
-165.305
11
24.4895
21
-165.305
0
LINE
8
BLACK
6
CONTINUOUS
10
24.4895
20
-165.305
11
24.68
21
-165.4
0
LINE
8
BLACK
6
CONTINUOUS
10
24.68
20
-165.4
11
24.7752
21
-165.496
0
LINE
8
BLACK
6
CONTINUOUS
10
24.7752
20
-165.496
11
24.8705
21
-165.686
0
LINE
8
BLACK
6
CONTINUOUS
10
24.8705
20
-165.686
11
24.8705
21
-165.877
0
LINE
8
BLACK
6
CONTINUOUS
10
24.8705
20
-165.877
11
24.7752
21
-166.162
0
LINE
8
BLACK
6
CONTINUOUS
10
24.7752
20
-166.162
11
23.6324
21
-167.305
0
LINE
8
BLACK
6
CONTINUOUS
10
23.6324
20
-167.305
11
24.8705
21
-167.305
0
LINE
8
BLACK
6
CONTINUOUS
10
25.7276
20
-167.305
11
25.7276
21
-165.972
0
LINE
8
BLACK
6
CONTINUOUS
10
25.7276
20
-166.162
11
25.8229
21
-166.067
0
LINE
8
BLACK
6
CONTINUOUS
10
25.8229
20
-166.067
11
26.0133
21
-165.972
0
LINE
8
BLACK
6
CONTINUOUS
10
26.0133
20
-165.972
11
26.299
21
-165.972
0
LINE
8
BLACK
6
CONTINUOUS
10
26.299
20
-165.972
11
26.4895
21
-166.067
0
LINE
8
BLACK
6
CONTINUOUS
10
26.4895
20
-166.067
11
26.5848
21
-166.258
0
LINE
8
BLACK
6
CONTINUOUS
10
26.5848
20
-166.258
11
26.5848
21
-167.305
0
LINE
8
BLACK
6
CONTINUOUS
10
26.5848
20
-166.258
11
26.68
21
-166.067
0
LINE
8
BLACK
6
CONTINUOUS
10
26.68
20
-166.067
11
26.8705
21
-165.972
0
LINE
8
BLACK
6
CONTINUOUS
10
26.8705
20
-165.972
11
27.1562
21
-165.972
0
LINE
8
BLACK
6
CONTINUOUS
10
27.1562
20
-165.972
11
27.3467
21
-166.067
0
LINE
8
BLACK
6
CONTINUOUS
10
27.3467
20
-166.067
11
27.4419
21
-166.258
0
LINE
8
BLACK
6
CONTINUOUS
10
27.4419
20
-166.258
11
27.4419
21
-167.305
0
LINE
8
BLACK
6
CONTINUOUS
10
28.3943
20
-167.305
11
28.3943
21
-165.972
0
LINE
8
BLACK
6
CONTINUOUS
10
28.3943
20
-166.162
11
28.4895
21
-166.067
0
LINE
8
BLACK
6
CONTINUOUS
10
28.4895
20
-166.067
11
28.68
21
-165.972
0
LINE
8
BLACK
6
CONTINUOUS
10
28.68
20
-165.972
11
28.9657
21
-165.972
0
LINE
8
BLACK
6
CONTINUOUS
10
28.9657
20
-165.972
11
29.1562
21
-166.067
0
LINE
8
BLACK
6
CONTINUOUS
10
29.1562
20
-166.067
11
29.2514
21
-166.258
0
LINE
8
BLACK
6
CONTINUOUS
10
29.2514
20
-166.258
11
29.2514
21
-167.305
0
LINE
8
BLACK
6
CONTINUOUS
10
29.2514
20
-166.258
11
29.3467
21
-166.067
0
LINE
8
BLACK
6
CONTINUOUS
10
29.3467
20
-166.067
11
29.5371
21
-165.972
0
LINE
8
BLACK
6
CONTINUOUS
10
29.5371
20
-165.972
11
29.8229
21
-165.972
0
LINE
8
BLACK
6
CONTINUOUS
10
29.8229
20
-165.972
11
30.0133
21
-166.067
0
LINE
8
BLACK
6
CONTINUOUS
10
30.0133
20
-166.067
11
30.1086
21
-166.258
0
LINE
8
BLACK
6
CONTINUOUS
10
30.1086
20
-166.258
11
30.1086
21
-167.305
0
LINE
8
BLACK
6
CONTINUOUS
10
34.0133
20
-165.21
11
32.299
21
-167.781
0
LINE
8
BLACK
6
CONTINUOUS
10
36.5848
20
-165.305
11
36.7752
21
-165.305
0
LINE
8
BLACK
6
CONTINUOUS
10
36.7752
20
-165.305
11
36.9657
21
-165.4
0
LINE
8
BLACK
6
CONTINUOUS
10
36.9657
20
-165.4
11
37.061
21
-165.496
0
LINE
8
BLACK
6
CONTINUOUS
10
37.061
20
-165.496
11
37.1562
21
-165.686
0
LINE
8
BLACK
6
CONTINUOUS
10
37.1562
20
-165.686
11
37.2514
21
-166.067
0
LINE
8
BLACK
6
CONTINUOUS
10
37.2514
20
-166.067
11
37.2514
21
-166.543
0
LINE
8
BLACK
6
CONTINUOUS
10
37.2514
20
-166.543
11
37.1562
21
-166.924
0
LINE
8
BLACK
6
CONTINUOUS
10
37.1562
20
-166.924
11
37.061
21
-167.115
0
LINE
8
BLACK
6
CONTINUOUS
10
37.061
20
-167.115
11
36.9657
21
-167.21
0
LINE
8
BLACK
6
CONTINUOUS
10
36.9657
20
-167.21
11
36.7752
21
-167.305
0
LINE
8
BLACK
6
CONTINUOUS
10
36.7752
20
-167.305
11
36.5848
21
-167.305
0
LINE
8
BLACK
6
CONTINUOUS
10
36.5848
20
-167.305
11
36.3943
21
-167.21
0
LINE
8
BLACK
6
CONTINUOUS
10
36.3943
20
-167.21
11
36.299
21
-167.115
0
LINE
8
BLACK
6
CONTINUOUS
10
36.299
20
-167.115
11
36.2038
21
-166.924
0
LINE
8
BLACK
6
CONTINUOUS
10
36.2038
20
-166.924
11
36.1086
21
-166.543
0
LINE
8
BLACK
6
CONTINUOUS
10
36.1086
20
-166.543
11
36.1086
21
-166.067
0
LINE
8
BLACK
6
CONTINUOUS
10
36.1086
20
-166.067
11
36.2038
21
-165.686
0
LINE
8
BLACK
6
CONTINUOUS
10
36.2038
20
-165.686
11
36.299
21
-165.496
0
LINE
8
BLACK
6
CONTINUOUS
10
36.299
20
-165.496
11
36.3943
21
-165.4
0
LINE
8
BLACK
6
CONTINUOUS
10
36.3943
20
-165.4
11
36.5848
21
-165.305
0
LINE
8
BLACK
6
CONTINUOUS
10
38.1086
20
-167.115
11
38.2038
21
-167.21
0
LINE
8
BLACK
6
CONTINUOUS
10
38.2038
20
-167.21
11
38.1086
21
-167.305
0
LINE
8
BLACK
6
CONTINUOUS
10
38.1086
20
-167.305
11
38.0133
21
-167.21
0
LINE
8
BLACK
6
CONTINUOUS
10
38.0133
20
-167.21
11
38.1086
21
-167.115
0
LINE
8
BLACK
6
CONTINUOUS
10
38.1086
20
-167.115
11
38.1086
21
-167.305
0
LINE
8
BLACK
6
CONTINUOUS
10
39.4419
20
-165.305
11
39.6324
21
-165.305
0
LINE
8
BLACK
6
CONTINUOUS
10
39.6324
20
-165.305
11
39.8229
21
-165.4
0
LINE
8
BLACK
6
CONTINUOUS
10
39.8229
20
-165.4
11
39.9181
21
-165.496
0
LINE
8
BLACK
6
CONTINUOUS
10
39.9181
20
-165.496
11
40.0133
21
-165.686
0
LINE
8
BLACK
6
CONTINUOUS
10
40.0133
20
-165.686
11
40.1086
21
-166.067
0
LINE
8
BLACK
6
CONTINUOUS
10
40.1086
20
-166.067
11
40.1086
21
-166.543
0
LINE
8
BLACK
6
CONTINUOUS
10
40.1086
20
-166.543
11
40.0133
21
-166.924
0
LINE
8
BLACK
6
CONTINUOUS
10
40.0133
20
-166.924
11
39.9181
21
-167.115
0
LINE
8
BLACK
6
CONTINUOUS
10
39.9181
20
-167.115
11
39.8229
21
-167.21
0
LINE
8
BLACK
6
CONTINUOUS
10
39.8229
20
-167.21
11
39.6324
21
-167.305
0
LINE
8
BLACK
6
CONTINUOUS
10
39.6324
20
-167.305
11
39.4419
21
-167.305
0
LINE
8
BLACK
6
CONTINUOUS
10
39.4419
20
-167.305
11
39.2514
21
-167.21
0
LINE
8
BLACK
6
CONTINUOUS
10
39.2514
20
-167.21
11
39.1562
21
-167.115
0
LINE
8
BLACK
6
CONTINUOUS
10
39.1562
20
-167.115
11
39.061
21
-166.924
0
LINE
8
BLACK
6
CONTINUOUS
10
39.061
20
-166.924
11
38.9657
21
-166.543
0
LINE
8
BLACK
6
CONTINUOUS
10
38.9657
20
-166.543
11
38.9657
21
-166.067
0
LINE
8
BLACK
6
CONTINUOUS
10
38.9657
20
-166.067
11
39.061
21
-165.686
0
LINE
8
BLACK
6
CONTINUOUS
10
39.061
20
-165.686
11
39.1562
21
-165.496
0
LINE
8
BLACK
6
CONTINUOUS
10
39.1562
20
-165.496
11
39.2514
21
-165.4
0
LINE
8
BLACK
6
CONTINUOUS
10
39.2514
20
-165.4
11
39.4419
21
-165.305
0
LINE
8
BLACK
6
CONTINUOUS
10
41.8229
20
-165.305
11
41.4419
21
-165.305
0
LINE
8
BLACK
6
CONTINUOUS
10
41.4419
20
-165.305
11
41.2514
21
-165.4
0
LINE
8
BLACK
6
CONTINUOUS
10
41.2514
20
-165.4
11
41.1562
21
-165.496
0
LINE
8
BLACK
6
CONTINUOUS
10
41.1562
20
-165.496
11
40.9657
21
-165.781
0
LINE
8
BLACK
6
CONTINUOUS
10
40.9657
20
-165.781
11
40.8705
21
-166.162
0
LINE
8
BLACK
6
CONTINUOUS
10
40.8705
20
-166.162
11
40.8705
21
-166.924
0
LINE
8
BLACK
6
CONTINUOUS
10
40.8705
20
-166.924
11
40.9657
21
-167.115
0
LINE
8
BLACK
6
CONTINUOUS
10
40.9657
20
-167.115
11
41.061
21
-167.21
0
LINE
8
BLACK
6
CONTINUOUS
10
41.061
20
-167.21
11
41.2514
21
-167.305
0
LINE
8
BLACK
6
CONTINUOUS
10
41.2514
20
-167.305
11
41.6324
21
-167.305
0
LINE
8
BLACK
6
CONTINUOUS
10
41.6324
20
-167.305
11
41.8229
21
-167.21
0
LINE
8
BLACK
6
CONTINUOUS
10
41.8229
20
-167.21
11
41.9181
21
-167.115
0
LINE
8
BLACK
6
CONTINUOUS
10
41.9181
20
-167.115
11
42.0133
21
-166.924
0
LINE
8
BLACK
6
CONTINUOUS
10
42.0133
20
-166.924
11
42.0133
21
-166.448
0
LINE
8
BLACK
6
CONTINUOUS
10
42.0133
20
-166.448
11
41.9181
21
-166.258
0
LINE
8
BLACK
6
CONTINUOUS
10
41.9181
20
-166.258
11
41.8229
21
-166.162
0
LINE
8
BLACK
6
CONTINUOUS
10
41.8229
20
-166.162
11
41.6324
21
-166.067
0
LINE
8
BLACK
6
CONTINUOUS
10
41.6324
20
-166.067
11
41.2514
21
-166.067
0
LINE
8
BLACK
6
CONTINUOUS
10
41.2514
20
-166.067
11
41.061
21
-166.162
0
LINE
8
BLACK
6
CONTINUOUS
10
41.061
20
-166.162
11
40.9657
21
-166.258
0
LINE
8
BLACK
6
CONTINUOUS
10
40.9657
20
-166.258
11
40.8705
21
-166.448
0
LINE
8
BLACK
6
CONTINUOUS
10
42.68
20
-165.305
11
44.0133
21
-165.305
0
LINE
8
BLACK
6
CONTINUOUS
10
44.0133
20
-165.305
11
43.1562
21
-167.305
0
LINE
8
BLACK
6
CONTINUOUS
10
45.1562
20
-165.305
11
45.3467
21
-165.305
0
LINE
8
BLACK
6
CONTINUOUS
10
45.3467
20
-165.305
11
45.5371
21
-165.4
0
LINE
8
BLACK
6
CONTINUOUS
10
45.5371
20
-165.4
11
45.6324
21
-165.496
0
LINE
8
BLACK
6
CONTINUOUS
10
45.6324
20
-165.496
11
45.7276
21
-165.686
0
LINE
8
BLACK
6
CONTINUOUS
10
45.7276
20
-165.686
11
45.8229
21
-166.067
0
LINE
8
BLACK
6
CONTINUOUS
10
45.8229
20
-166.067
11
45.8229
21
-166.543
0
LINE
8
BLACK
6
CONTINUOUS
10
45.8229
20
-166.543
11
45.7276
21
-166.924
0
LINE
8
BLACK
6
CONTINUOUS
10
45.7276
20
-166.924
11
45.6324
21
-167.115
0
LINE
8
BLACK
6
CONTINUOUS
10
45.6324
20
-167.115
11
45.5371
21
-167.21
0
LINE
8
BLACK
6
CONTINUOUS
10
45.5371
20
-167.21
11
45.3467
21
-167.305
0
LINE
8
BLACK
6
CONTINUOUS
10
45.3467
20
-167.305
11
45.1562
21
-167.305
0
LINE
8
BLACK
6
CONTINUOUS
10
45.1562
20
-167.305
11
44.9657
21
-167.21
0
LINE
8
BLACK
6
CONTINUOUS
10
44.9657
20
-167.21
11
44.8705
21
-167.115
0
LINE
8
BLACK
6
CONTINUOUS
10
44.8705
20
-167.115
11
44.7752
21
-166.924
0
LINE
8
BLACK
6
CONTINUOUS
10
44.7752
20
-166.924
11
44.68
21
-166.543
0
LINE
8
BLACK
6
CONTINUOUS
10
44.68
20
-166.543
11
44.68
21
-166.067
0
LINE
8
BLACK
6
CONTINUOUS
10
44.68
20
-166.067
11
44.7752
21
-165.686
0
LINE
8
BLACK
6
CONTINUOUS
10
44.7752
20
-165.686
11
44.8705
21
-165.496
0
LINE
8
BLACK
6
CONTINUOUS
10
44.8705
20
-165.496
11
44.9657
21
-165.4
0
LINE
8
BLACK
6
CONTINUOUS
10
44.9657
20
-165.4
11
45.1562
21
-165.305
0
LINE
8
BLACK
6
CONTINUOUS
10
46.5848
20
-165.305
11
46.5848
21
-165.686
0
LINE
8
BLACK
6
CONTINUOUS
10
47.3467
20
-165.305
11
47.3467
21
-165.686
0
LINE
8
BLACK
6
CONTINUOUS
10
50.2991
20
-168.067
11
50.2038
21
-167.972
0
LINE
8
BLACK
6
CONTINUOUS
10
50.2038
20
-167.972
11
50.0133
21
-167.686
0
LINE
8
BLACK
6
CONTINUOUS
10
50.0133
20
-167.686
11
49.9181
21
-167.496
0
LINE
8
BLACK
6
CONTINUOUS
10
49.9181
20
-167.496
11
49.8229
21
-167.21
0
LINE
8
BLACK
6
CONTINUOUS
10
49.8229
20
-167.21
11
49.7276
21
-166.734
0
LINE
8
BLACK
6
CONTINUOUS
10
49.7276
20
-166.734
11
49.7276
21
-166.353
0
LINE
8
BLACK
6
CONTINUOUS
10
49.7276
20
-166.353
11
49.8229
21
-165.877
0
LINE
8
BLACK
6
CONTINUOUS
10
49.8229
20
-165.877
11
49.9181
21
-165.591
0
LINE
8
BLACK
6
CONTINUOUS
10
49.9181
20
-165.591
11
50.0133
21
-165.4
0
LINE
8
BLACK
6
CONTINUOUS
10
50.0133
20
-165.4
11
50.2038
21
-165.115
0
LINE
8
BLACK
6
CONTINUOUS
10
50.2038
20
-165.115
11
50.2991
21
-165.02
0
LINE
8
BLACK
6
CONTINUOUS
10
51.9181
20
-165.305
11
51.5371
21
-165.305
0
LINE
8
BLACK
6
CONTINUOUS
10
51.5371
20
-165.305
11
51.3467
21
-165.4
0
LINE
8
BLACK
6
CONTINUOUS
10
51.3467
20
-165.4
11
51.2514
21
-165.496
0
LINE
8
BLACK
6
CONTINUOUS
10
51.2514
20
-165.496
11
51.061
21
-165.781
0
LINE
8
BLACK
6
CONTINUOUS
10
51.061
20
-165.781
11
50.9657
21
-166.162
0
LINE
8
BLACK
6
CONTINUOUS
10
50.9657
20
-166.162
11
50.9657
21
-166.924
0
LINE
8
BLACK
6
CONTINUOUS
10
50.9657
20
-166.924
11
51.061
21
-167.115
0
LINE
8
BLACK
6
CONTINUOUS
10
51.061
20
-167.115
11
51.1562
21
-167.21
0
LINE
8
BLACK
6
CONTINUOUS
10
51.1562
20
-167.21
11
51.3467
21
-167.305
0
LINE
8
BLACK
6
CONTINUOUS
10
51.3467
20
-167.305
11
51.7276
21
-167.305
0
LINE
8
BLACK
6
CONTINUOUS
10
51.7276
20
-167.305
11
51.9181
21
-167.21
0
LINE
8
BLACK
6
CONTINUOUS
10
51.9181
20
-167.21
11
52.0133
21
-167.115
0
LINE
8
BLACK
6
CONTINUOUS
10
52.0133
20
-167.115
11
52.1086
21
-166.924
0
LINE
8
BLACK
6
CONTINUOUS
10
52.1086
20
-166.924
11
52.1086
21
-166.448
0
LINE
8
BLACK
6
CONTINUOUS
10
52.1086
20
-166.448
11
52.0133
21
-166.258
0
LINE
8
BLACK
6
CONTINUOUS
10
52.0133
20
-166.258
11
51.9181
21
-166.162
0
LINE
8
BLACK
6
CONTINUOUS
10
51.9181
20
-166.162
11
51.7276
21
-166.067
0
LINE
8
BLACK
6
CONTINUOUS
10
51.7276
20
-166.067
11
51.3467
21
-166.067
0
LINE
8
BLACK
6
CONTINUOUS
10
51.3467
20
-166.067
11
51.1562
21
-166.162
0
LINE
8
BLACK
6
CONTINUOUS
10
51.1562
20
-166.162
11
51.061
21
-166.258
0
LINE
8
BLACK
6
CONTINUOUS
10
51.061
20
-166.258
11
50.9657
21
-166.448
0
LINE
8
BLACK
6
CONTINUOUS
10
53.2514
20
-166.162
11
53.061
21
-166.067
0
LINE
8
BLACK
6
CONTINUOUS
10
53.061
20
-166.067
11
52.9657
21
-165.972
0
LINE
8
BLACK
6
CONTINUOUS
10
52.9657
20
-165.972
11
52.8705
21
-165.781
0
LINE
8
BLACK
6
CONTINUOUS
10
52.8705
20
-165.781
11
52.8705
21
-165.686
0
LINE
8
BLACK
6
CONTINUOUS
10
52.8705
20
-165.686
11
52.9657
21
-165.496
0
LINE
8
BLACK
6
CONTINUOUS
10
52.9657
20
-165.496
11
53.061
21
-165.4
0
LINE
8
BLACK
6
CONTINUOUS
10
53.061
20
-165.4
11
53.2514
21
-165.305
0
LINE
8
BLACK
6
CONTINUOUS
10
53.2514
20
-165.305
11
53.6324
21
-165.305
0
LINE
8
BLACK
6
CONTINUOUS
10
53.6324
20
-165.305
11
53.8229
21
-165.4
0
LINE
8
BLACK
6
CONTINUOUS
10
53.8229
20
-165.4
11
53.9181
21
-165.496
0
LINE
8
BLACK
6
CONTINUOUS
10
53.9181
20
-165.496
11
54.0133
21
-165.686
0
LINE
8
BLACK
6
CONTINUOUS
10
54.0133
20
-165.686
11
54.0133
21
-165.781
0
LINE
8
BLACK
6
CONTINUOUS
10
54.0133
20
-165.781
11
53.9181
21
-165.972
0
LINE
8
BLACK
6
CONTINUOUS
10
53.9181
20
-165.972
11
53.8229
21
-166.067
0
LINE
8
BLACK
6
CONTINUOUS
10
53.8229
20
-166.067
11
53.6324
21
-166.162
0
LINE
8
BLACK
6
CONTINUOUS
10
53.6324
20
-166.162
11
53.2514
21
-166.162
0
LINE
8
BLACK
6
CONTINUOUS
10
53.2514
20
-166.162
11
53.061
21
-166.258
0
LINE
8
BLACK
6
CONTINUOUS
10
53.061
20
-166.258
11
52.9657
21
-166.353
0
LINE
8
BLACK
6
CONTINUOUS
10
52.9657
20
-166.353
11
52.8705
21
-166.543
0
LINE
8
BLACK
6
CONTINUOUS
10
52.8705
20
-166.543
11
52.8705
21
-166.924
0
LINE
8
BLACK
6
CONTINUOUS
10
52.8705
20
-166.924
11
52.9657
21
-167.115
0
LINE
8
BLACK
6
CONTINUOUS
10
52.9657
20
-167.115
11
53.061
21
-167.21
0
LINE
8
BLACK
6
CONTINUOUS
10
53.061
20
-167.21
11
53.2514
21
-167.305
0
LINE
8
BLACK
6
CONTINUOUS
10
53.2514
20
-167.305
11
53.6324
21
-167.305
0
LINE
8
BLACK
6
CONTINUOUS
10
53.6324
20
-167.305
11
53.8229
21
-167.21
0
LINE
8
BLACK
6
CONTINUOUS
10
53.8229
20
-167.21
11
53.9181
21
-167.115
0
LINE
8
BLACK
6
CONTINUOUS
10
53.9181
20
-167.115
11
54.0133
21
-166.924
0
LINE
8
BLACK
6
CONTINUOUS
10
54.0133
20
-166.924
11
54.0133
21
-166.543
0
LINE
8
BLACK
6
CONTINUOUS
10
54.0133
20
-166.543
11
53.9181
21
-166.353
0
LINE
8
BLACK
6
CONTINUOUS
10
53.9181
20
-166.353
11
53.8229
21
-166.258
0
LINE
8
BLACK
6
CONTINUOUS
10
53.8229
20
-166.258
11
53.6324
21
-166.162
0
LINE
8
BLACK
6
CONTINUOUS
10
56.3943
20
-167.305
11
56.3943
21
-165.305
0
LINE
8
BLACK
6
CONTINUOUS
10
57.2514
20
-167.305
11
57.2514
21
-166.258
0
LINE
8
BLACK
6
CONTINUOUS
10
57.2514
20
-166.258
11
57.1562
21
-166.067
0
LINE
8
BLACK
6
CONTINUOUS
10
57.1562
20
-166.067
11
56.9657
21
-165.972
0
LINE
8
BLACK
6
CONTINUOUS
10
56.9657
20
-165.972
11
56.68
21
-165.972
0
LINE
8
BLACK
6
CONTINUOUS
10
56.68
20
-165.972
11
56.4895
21
-166.067
0
LINE
8
BLACK
6
CONTINUOUS
10
56.4895
20
-166.067
11
56.3943
21
-166.162
0
LINE
8
BLACK
6
CONTINUOUS
10
58.4895
20
-167.305
11
58.2991
21
-167.21
0
LINE
8
BLACK
6
CONTINUOUS
10
58.2991
20
-167.21
11
58.2038
21
-167.115
0
LINE
8
BLACK
6
CONTINUOUS
10
58.2038
20
-167.115
11
58.1086
21
-166.924
0
LINE
8
BLACK
6
CONTINUOUS
10
58.1086
20
-166.924
11
58.1086
21
-166.353
0
LINE
8
BLACK
6
CONTINUOUS
10
58.1086
20
-166.353
11
58.2038
21
-166.162
0
LINE
8
BLACK
6
CONTINUOUS
10
58.2038
20
-166.162
11
58.2991
21
-166.067
0
LINE
8
BLACK
6
CONTINUOUS
10
58.2991
20
-166.067
11
58.4895
21
-165.972
0
LINE
8
BLACK
6
CONTINUOUS
10
58.4895
20
-165.972
11
58.7752
21
-165.972
0
LINE
8
BLACK
6
CONTINUOUS
10
58.7752
20
-165.972
11
58.9657
21
-166.067
0
LINE
8
BLACK
6
CONTINUOUS
10
58.9657
20
-166.067
11
59.061
21
-166.162
0
LINE
8
BLACK
6
CONTINUOUS
10
59.061
20
-166.162
11
59.1562
21
-166.353
0
LINE
8
BLACK
6
CONTINUOUS
10
59.1562
20
-166.353
11
59.1562
21
-166.924
0
LINE
8
BLACK
6
CONTINUOUS
10
59.1562
20
-166.924
11
59.061
21
-167.115
0
LINE
8
BLACK
6
CONTINUOUS
10
59.061
20
-167.115
11
58.9657
21
-167.21
0
LINE
8
BLACK
6
CONTINUOUS
10
58.9657
20
-167.21
11
58.7752
21
-167.305
0
LINE
8
BLACK
6
CONTINUOUS
10
58.7752
20
-167.305
11
58.4895
21
-167.305
0
LINE
8
BLACK
6
CONTINUOUS
10
60.2991
20
-167.305
11
60.1086
21
-167.21
0
LINE
8
BLACK
6
CONTINUOUS
10
60.1086
20
-167.21
11
60.0133
21
-167.02
0
LINE
8
BLACK
6
CONTINUOUS
10
60.0133
20
-167.02
11
60.0133
21
-165.305
0
LINE
8
BLACK
6
CONTINUOUS
10
61.8229
20
-167.21
11
61.6324
21
-167.305
0
LINE
8
BLACK
6
CONTINUOUS
10
61.6324
20
-167.305
11
61.2514
21
-167.305
0
LINE
8
BLACK
6
CONTINUOUS
10
61.2514
20
-167.305
11
61.061
21
-167.21
0
LINE
8
BLACK
6
CONTINUOUS
10
61.061
20
-167.21
11
60.9657
21
-167.02
0
LINE
8
BLACK
6
CONTINUOUS
10
60.9657
20
-167.02
11
60.9657
21
-166.258
0
LINE
8
BLACK
6
CONTINUOUS
10
60.9657
20
-166.258
11
61.061
21
-166.067
0
LINE
8
BLACK
6
CONTINUOUS
10
61.061
20
-166.067
11
61.2514
21
-165.972
0
LINE
8
BLACK
6
CONTINUOUS
10
61.2514
20
-165.972
11
61.6324
21
-165.972
0
LINE
8
BLACK
6
CONTINUOUS
10
61.6324
20
-165.972
11
61.8229
21
-166.067
0
LINE
8
BLACK
6
CONTINUOUS
10
61.8229
20
-166.067
11
61.9181
21
-166.258
0
LINE
8
BLACK
6
CONTINUOUS
10
61.9181
20
-166.258
11
61.9181
21
-166.448
0
LINE
8
BLACK
6
CONTINUOUS
10
61.9181
20
-166.448
11
60.9657
21
-166.639
0
LINE
8
BLACK
6
CONTINUOUS
10
62.68
20
-167.21
11
62.8705
21
-167.305
0
LINE
8
BLACK
6
CONTINUOUS
10
62.8705
20
-167.305
11
63.2514
21
-167.305
0
LINE
8
BLACK
6
CONTINUOUS
10
63.2514
20
-167.305
11
63.4419
21
-167.21
0
LINE
8
BLACK
6
CONTINUOUS
10
63.4419
20
-167.21
11
63.5371
21
-167.02
0
LINE
8
BLACK
6
CONTINUOUS
10
63.5371
20
-167.02
11
63.5371
21
-166.924
0
LINE
8
BLACK
6
CONTINUOUS
10
63.5371
20
-166.924
11
63.4419
21
-166.734
0
LINE
8
BLACK
6
CONTINUOUS
10
63.4419
20
-166.734
11
63.2514
21
-166.639
0
LINE
8
BLACK
6
CONTINUOUS
10
63.2514
20
-166.639
11
62.9657
21
-166.639
0
LINE
8
BLACK
6
CONTINUOUS
10
62.9657
20
-166.639
11
62.7752
21
-166.543
0
LINE
8
BLACK
6
CONTINUOUS
10
62.7752
20
-166.543
11
62.68
21
-166.353
0
LINE
8
BLACK
6
CONTINUOUS
10
62.68
20
-166.353
11
62.68
21
-166.258
0
LINE
8
BLACK
6
CONTINUOUS
10
62.68
20
-166.258
11
62.7752
21
-166.067
0
LINE
8
BLACK
6
CONTINUOUS
10
62.7752
20
-166.067
11
62.9657
21
-165.972
0
LINE
8
BLACK
6
CONTINUOUS
10
62.9657
20
-165.972
11
63.2514
21
-165.972
0
LINE
8
BLACK
6
CONTINUOUS
10
63.2514
20
-165.972
11
63.4419
21
-166.067
0
LINE
8
BLACK
6
CONTINUOUS
10
64.2038
20
-168.067
11
64.2991
21
-167.972
0
LINE
8
BLACK
6
CONTINUOUS
10
64.2991
20
-167.972
11
64.4895
21
-167.686
0
LINE
8
BLACK
6
CONTINUOUS
10
64.4895
20
-167.686
11
64.5848
21
-167.496
0
LINE
8
BLACK
6
CONTINUOUS
10
64.5848
20
-167.496
11
64.68
21
-167.21
0
LINE
8
BLACK
6
CONTINUOUS
10
64.68
20
-167.21
11
64.7752
21
-166.734
0
LINE
8
BLACK
6
CONTINUOUS
10
64.7752
20
-166.734
11
64.7752
21
-166.353
0
LINE
8
BLACK
6
CONTINUOUS
10
64.7752
20
-166.353
11
64.68
21
-165.877
0
LINE
8
BLACK
6
CONTINUOUS
10
64.68
20
-165.877
11
64.5848
21
-165.591
0
LINE
8
BLACK
6
CONTINUOUS
10
64.5848
20
-165.591
11
64.4895
21
-165.4
0
LINE
8
BLACK
6
CONTINUOUS
10
64.4895
20
-165.4
11
64.2991
21
-165.115
0
LINE
8
BLACK
6
CONTINUOUS
10
64.2991
20
-165.115
11
64.2038
21
-165.02
0
LINE
8
BLACK
6
CONTINUOUS
10
67.8229
20
-168.067
11
67.7276
21
-167.972
0
LINE
8
BLACK
6
CONTINUOUS
10
67.7276
20
-167.972
11
67.5371
21
-167.686
0
LINE
8
BLACK
6
CONTINUOUS
10
67.5371
20
-167.686
11
67.4419
21
-167.496
0
LINE
8
BLACK
6
CONTINUOUS
10
67.4419
20
-167.496
11
67.3467
21
-167.21
0
LINE
8
BLACK
6
CONTINUOUS
10
67.3467
20
-167.21
11
67.2514
21
-166.734
0
LINE
8
BLACK
6
CONTINUOUS
10
67.2514
20
-166.734
11
67.2514
21
-166.353
0
LINE
8
BLACK
6
CONTINUOUS
10
67.2514
20
-166.353
11
67.3467
21
-165.877
0
LINE
8
BLACK
6
CONTINUOUS
10
67.3467
20
-165.877
11
67.4419
21
-165.591
0
LINE
8
BLACK
6
CONTINUOUS
10
67.4419
20
-165.591
11
67.5371
21
-165.4
0
LINE
8
BLACK
6
CONTINUOUS
10
67.5371
20
-165.4
11
67.7276
21
-165.115
0
LINE
8
BLACK
6
CONTINUOUS
10
67.7276
20
-165.115
11
67.8229
21
-165.02
0
LINE
8
BLACK
6
CONTINUOUS
10
68.5848
20
-165.972
11
68.5848
21
-167.305
0
LINE
8
BLACK
6
CONTINUOUS
10
68.5848
20
-166.162
11
68.68
21
-166.067
0
LINE
8
BLACK
6
CONTINUOUS
10
68.68
20
-166.067
11
68.8705
21
-165.972
0
LINE
8
BLACK
6
CONTINUOUS
10
68.8705
20
-165.972
11
69.1562
21
-165.972
0
LINE
8
BLACK
6
CONTINUOUS
10
69.1562
20
-165.972
11
69.3467
21
-166.067
0
LINE
8
BLACK
6
CONTINUOUS
10
69.3467
20
-166.067
11
69.4419
21
-166.258
0
LINE
8
BLACK
6
CONTINUOUS
10
69.4419
20
-166.258
11
69.4419
21
-167.305
0
LINE
8
BLACK
6
CONTINUOUS
10
70.68
20
-167.305
11
70.4895
21
-167.21
0
LINE
8
BLACK
6
CONTINUOUS
10
70.4895
20
-167.21
11
70.3943
21
-167.115
0
LINE
8
BLACK
6
CONTINUOUS
10
70.3943
20
-167.115
11
70.2991
21
-166.924
0
LINE
8
BLACK
6
CONTINUOUS
10
70.2991
20
-166.924
11
70.2991
21
-166.353
0
LINE
8
BLACK
6
CONTINUOUS
10
70.2991
20
-166.353
11
70.3943
21
-166.162
0
LINE
8
BLACK
6
CONTINUOUS
10
70.3943
20
-166.162
11
70.4895
21
-166.067
0
LINE
8
BLACK
6
CONTINUOUS
10
70.4895
20
-166.067
11
70.68
21
-165.972
0
LINE
8
BLACK
6
CONTINUOUS
10
70.68
20
-165.972
11
70.9657
21
-165.972
0
LINE
8
BLACK
6
CONTINUOUS
10
70.9657
20
-165.972
11
71.1562
21
-166.067
0
LINE
8
BLACK
6
CONTINUOUS
10
71.1562
20
-166.067
11
71.2514
21
-166.162
0
LINE
8
BLACK
6
CONTINUOUS
10
71.2514
20
-166.162
11
71.3467
21
-166.353
0
LINE
8
BLACK
6
CONTINUOUS
10
71.3467
20
-166.353
11
71.3467
21
-166.924
0
LINE
8
BLACK
6
CONTINUOUS
10
71.3467
20
-166.924
11
71.2514
21
-167.115
0
LINE
8
BLACK
6
CONTINUOUS
10
71.2514
20
-167.115
11
71.1562
21
-167.21
0
LINE
8
BLACK
6
CONTINUOUS
10
71.1562
20
-167.21
11
70.9657
21
-167.305
0
LINE
8
BLACK
6
CONTINUOUS
10
70.9657
20
-167.305
11
70.68
21
-167.305
0
LINE
8
BLACK
6
CONTINUOUS
10
71.9181
20
-165.972
11
72.68
21
-165.972
0
LINE
8
BLACK
6
CONTINUOUS
10
72.2038
20
-165.305
11
72.2038
21
-167.02
0
LINE
8
BLACK
6
CONTINUOUS
10
72.2038
20
-167.02
11
72.2991
21
-167.21
0
LINE
8
BLACK
6
CONTINUOUS
10
72.2991
20
-167.21
11
72.4895
21
-167.305
0
LINE
8
BLACK
6
CONTINUOUS
10
72.4895
20
-167.305
11
72.68
21
-167.305
0
LINE
8
BLACK
6
CONTINUOUS
10
74.8705
20
-165.972
11
74.8705
21
-167.972
0
LINE
8
BLACK
6
CONTINUOUS
10
74.8705
20
-166.067
11
75.061
21
-165.972
0
LINE
8
BLACK
6
CONTINUOUS
10
75.061
20
-165.972
11
75.4419
21
-165.972
0
LINE
8
BLACK
6
CONTINUOUS
10
75.4419
20
-165.972
11
75.6324
21
-166.067
0
LINE
8
BLACK
6
CONTINUOUS
10
75.6324
20
-166.067
11
75.7276
21
-166.162
0
LINE
8
BLACK
6
CONTINUOUS
10
75.7276
20
-166.162
11
75.8229
21
-166.353
0
LINE
8
BLACK
6
CONTINUOUS
10
75.8229
20
-166.353
11
75.8229
21
-166.924
0
LINE
8
BLACK
6
CONTINUOUS
10
75.8229
20
-166.924
11
75.7276
21
-167.115
0
LINE
8
BLACK
6
CONTINUOUS
10
75.7276
20
-167.115
11
75.6324
21
-167.21
0
LINE
8
BLACK
6
CONTINUOUS
10
75.6324
20
-167.21
11
75.4419
21
-167.305
0
LINE
8
BLACK
6
CONTINUOUS
10
75.4419
20
-167.305
11
75.061
21
-167.305
0
LINE
8
BLACK
6
CONTINUOUS
10
75.061
20
-167.305
11
74.8705
21
-167.21
0
LINE
8
BLACK
6
CONTINUOUS
10
76.9657
20
-167.305
11
76.7752
21
-167.21
0
LINE
8
BLACK
6
CONTINUOUS
10
76.7752
20
-167.21
11
76.68
21
-167.02
0
LINE
8
BLACK
6
CONTINUOUS
10
76.68
20
-167.02
11
76.68
21
-165.305
0
LINE
8
BLACK
6
CONTINUOUS
10
78.5848
20
-167.305
11
78.5848
21
-166.258
0
LINE
8
BLACK
6
CONTINUOUS
10
78.5848
20
-166.258
11
78.4895
21
-166.067
0
LINE
8
BLACK
6
CONTINUOUS
10
78.4895
20
-166.067
11
78.2991
21
-165.972
0
LINE
8
BLACK
6
CONTINUOUS
10
78.2991
20
-165.972
11
77.9181
21
-165.972
0
LINE
8
BLACK
6
CONTINUOUS
10
77.9181
20
-165.972
11
77.7276
21
-166.067
0
LINE
8
BLACK
6
CONTINUOUS
10
78.5848
20
-167.21
11
78.3943
21
-167.305
0
LINE
8
BLACK
6
CONTINUOUS
10
78.3943
20
-167.305
11
77.9181
21
-167.305
0
LINE
8
BLACK
6
CONTINUOUS
10
77.9181
20
-167.305
11
77.7276
21
-167.21
0
LINE
8
BLACK
6
CONTINUOUS
10
77.7276
20
-167.21
11
77.6324
21
-167.02
0
LINE
8
BLACK
6
CONTINUOUS
10
77.6324
20
-167.02
11
77.6324
21
-166.829
0
LINE
8
BLACK
6
CONTINUOUS
10
77.6324
20
-166.829
11
77.7276
21
-166.639
0
LINE
8
BLACK
6
CONTINUOUS
10
77.7276
20
-166.639
11
77.9181
21
-166.543
0
LINE
8
BLACK
6
CONTINUOUS
10
77.9181
20
-166.543
11
78.3943
21
-166.543
0
LINE
8
BLACK
6
CONTINUOUS
10
78.3943
20
-166.543
11
78.5848
21
-166.448
0
LINE
8
BLACK
6
CONTINUOUS
10
79.2514
20
-165.972
11
80.0133
21
-165.972
0
LINE
8
BLACK
6
CONTINUOUS
10
79.5371
20
-165.305
11
79.5371
21
-167.02
0
LINE
8
BLACK
6
CONTINUOUS
10
79.5371
20
-167.02
11
79.6324
21
-167.21
0
LINE
8
BLACK
6
CONTINUOUS
10
79.6324
20
-167.21
11
79.8229
21
-167.305
0
LINE
8
BLACK
6
CONTINUOUS
10
79.8229
20
-167.305
11
80.0133
21
-167.305
0
LINE
8
BLACK
6
CONTINUOUS
10
81.4419
20
-167.21
11
81.2514
21
-167.305
0
LINE
8
BLACK
6
CONTINUOUS
10
81.2514
20
-167.305
11
80.8705
21
-167.305
0
LINE
8
BLACK
6
CONTINUOUS
10
80.8705
20
-167.305
11
80.68
21
-167.21
0
LINE
8
BLACK
6
CONTINUOUS
10
80.68
20
-167.21
11
80.5848
21
-167.02
0
LINE
8
BLACK
6
CONTINUOUS
10
80.5848
20
-167.02
11
80.5848
21
-166.258
0
LINE
8
BLACK
6
CONTINUOUS
10
80.5848
20
-166.258
11
80.68
21
-166.067
0
LINE
8
BLACK
6
CONTINUOUS
10
80.68
20
-166.067
11
80.8705
21
-165.972
0
LINE
8
BLACK
6
CONTINUOUS
10
80.8705
20
-165.972
11
81.2514
21
-165.972
0
LINE
8
BLACK
6
CONTINUOUS
10
81.2514
20
-165.972
11
81.4419
21
-166.067
0
LINE
8
BLACK
6
CONTINUOUS
10
81.4419
20
-166.067
11
81.5371
21
-166.258
0
LINE
8
BLACK
6
CONTINUOUS
10
81.5371
20
-166.258
11
81.5371
21
-166.448
0
LINE
8
BLACK
6
CONTINUOUS
10
81.5371
20
-166.448
11
80.5848
21
-166.639
0
LINE
8
BLACK
6
CONTINUOUS
10
83.2514
20
-167.305
11
83.2514
21
-165.305
0
LINE
8
BLACK
6
CONTINUOUS
10
83.2514
20
-167.21
11
83.061
21
-167.305
0
LINE
8
BLACK
6
CONTINUOUS
10
83.061
20
-167.305
11
82.68
21
-167.305
0
LINE
8
BLACK
6
CONTINUOUS
10
82.68
20
-167.305
11
82.4895
21
-167.21
0
LINE
8
BLACK
6
CONTINUOUS
10
82.4895
20
-167.21
11
82.3943
21
-167.115
0
LINE
8
BLACK
6
CONTINUOUS
10
82.3943
20
-167.115
11
82.2991
21
-166.924
0
LINE
8
BLACK
6
CONTINUOUS
10
82.2991
20
-166.924
11
82.2991
21
-166.353
0
LINE
8
BLACK
6
CONTINUOUS
10
82.2991
20
-166.353
11
82.3943
21
-166.162
0
LINE
8
BLACK
6
CONTINUOUS
10
82.3943
20
-166.162
11
82.4895
21
-166.067
0
LINE
8
BLACK
6
CONTINUOUS
10
82.4895
20
-166.067
11
82.68
21
-165.972
0
LINE
8
BLACK
6
CONTINUOUS
10
82.68
20
-165.972
11
83.061
21
-165.972
0
LINE
8
BLACK
6
CONTINUOUS
10
83.061
20
-165.972
11
83.2514
21
-166.067
0
LINE
8
BLACK
6
CONTINUOUS
10
84.0133
20
-168.067
11
84.1086
21
-167.972
0
LINE
8
BLACK
6
CONTINUOUS
10
84.1086
20
-167.972
11
84.2991
21
-167.686
0
LINE
8
BLACK
6
CONTINUOUS
10
84.2991
20
-167.686
11
84.3943
21
-167.496
0
LINE
8
BLACK
6
CONTINUOUS
10
84.3943
20
-167.496
11
84.4895
21
-167.21
0
LINE
8
BLACK
6
CONTINUOUS
10
84.4895
20
-167.21
11
84.5848
21
-166.734
0
LINE
8
BLACK
6
CONTINUOUS
10
84.5848
20
-166.734
11
84.5848
21
-166.353
0
LINE
8
BLACK
6
CONTINUOUS
10
84.5848
20
-166.353
11
84.4895
21
-165.877
0
LINE
8
BLACK
6
CONTINUOUS
10
84.4895
20
-165.877
11
84.3943
21
-165.591
0
LINE
8
BLACK
6
CONTINUOUS
10
84.3943
20
-165.591
11
84.2991
21
-165.4
0
LINE
8
BLACK
6
CONTINUOUS
10
84.2991
20
-165.4
11
84.1086
21
-165.115
0
LINE
8
BLACK
6
CONTINUOUS
10
84.1086
20
-165.115
11
84.0133
21
-165.02
0
CIRCLE
8
BLACK
10
13.68
20
-169.282
40
1
0
LINE
8
BLACK
6
CONTINUOUS
10
16.9657
20
-168.207
11
18.2038
21
-168.207
0
LINE
8
BLACK
6
CONTINUOUS
10
18.2038
20
-168.207
11
17.5371
21
-168.969
0
LINE
8
BLACK
6
CONTINUOUS
10
17.5371
20
-168.969
11
17.8229
21
-168.969
0
LINE
8
BLACK
6
CONTINUOUS
10
17.8229
20
-168.969
11
18.0133
21
-169.064
0
LINE
8
BLACK
6
CONTINUOUS
10
18.0133
20
-169.064
11
18.1086
21
-169.159
0
LINE
8
BLACK
6
CONTINUOUS
10
18.1086
20
-169.159
11
18.2038
21
-169.35
0
LINE
8
BLACK
6
CONTINUOUS
10
18.2038
20
-169.35
11
18.2038
21
-169.826
0
LINE
8
BLACK
6
CONTINUOUS
10
18.2038
20
-169.826
11
18.1086
21
-170.017
0
LINE
8
BLACK
6
CONTINUOUS
10
18.1086
20
-170.017
11
18.0133
21
-170.112
0
LINE
8
BLACK
6
CONTINUOUS
10
18.0133
20
-170.112
11
17.8229
21
-170.207
0
LINE
8
BLACK
6
CONTINUOUS
10
17.8229
20
-170.207
11
17.2514
21
-170.207
0
LINE
8
BLACK
6
CONTINUOUS
10
17.2514
20
-170.207
11
17.061
21
-170.112
0
LINE
8
BLACK
6
CONTINUOUS
10
17.061
20
-170.112
11
16.9657
21
-170.017
0
LINE
8
BLACK
6
CONTINUOUS
10
19.061
20
-170.017
11
19.1562
21
-170.112
0
LINE
8
BLACK
6
CONTINUOUS
10
19.1562
20
-170.112
11
19.061
21
-170.207
0
LINE
8
BLACK
6
CONTINUOUS
10
19.061
20
-170.207
11
18.9657
21
-170.112
0
LINE
8
BLACK
6
CONTINUOUS
10
18.9657
20
-170.112
11
19.061
21
-170.017
0
LINE
8
BLACK
6
CONTINUOUS
10
19.061
20
-170.017
11
19.061
21
-170.207
0
LINE
8
BLACK
6
CONTINUOUS
10
20.3943
20
-168.207
11
20.5848
21
-168.207
0
LINE
8
BLACK
6
CONTINUOUS
10
20.5848
20
-168.207
11
20.7752
21
-168.302
0
LINE
8
BLACK
6
CONTINUOUS
10
20.7752
20
-168.302
11
20.8705
21
-168.398
0
LINE
8
BLACK
6
CONTINUOUS
10
20.8705
20
-168.398
11
20.9657
21
-168.588
0
LINE
8
BLACK
6
CONTINUOUS
10
20.9657
20
-168.588
11
21.061
21
-168.969
0
LINE
8
BLACK
6
CONTINUOUS
10
21.061
20
-168.969
11
21.061
21
-169.445
0
LINE
8
BLACK
6
CONTINUOUS
10
21.061
20
-169.445
11
20.9657
21
-169.826
0
LINE
8
BLACK
6
CONTINUOUS
10
20.9657
20
-169.826
11
20.8705
21
-170.017
0
LINE
8
BLACK
6
CONTINUOUS
10
20.8705
20
-170.017
11
20.7752
21
-170.112
0
LINE
8
BLACK
6
CONTINUOUS
10
20.7752
20
-170.112
11
20.5848
21
-170.207
0
LINE
8
BLACK
6
CONTINUOUS
10
20.5848
20
-170.207
11
20.3943
21
-170.207
0
LINE
8
BLACK
6
CONTINUOUS
10
20.3943
20
-170.207
11
20.2038
21
-170.112
0
LINE
8
BLACK
6
CONTINUOUS
10
20.2038
20
-170.112
11
20.1086
21
-170.017
0
LINE
8
BLACK
6
CONTINUOUS
10
20.1086
20
-170.017
11
20.0133
21
-169.826
0
LINE
8
BLACK
6
CONTINUOUS
10
20.0133
20
-169.826
11
19.9181
21
-169.445
0
LINE
8
BLACK
6
CONTINUOUS
10
19.9181
20
-169.445
11
19.9181
21
-168.969
0
LINE
8
BLACK
6
CONTINUOUS
10
19.9181
20
-168.969
11
20.0133
21
-168.588
0
LINE
8
BLACK
6
CONTINUOUS
10
20.0133
20
-168.588
11
20.1086
21
-168.398
0
LINE
8
BLACK
6
CONTINUOUS
10
20.1086
20
-168.398
11
20.2038
21
-168.302
0
LINE
8
BLACK
6
CONTINUOUS
10
20.2038
20
-168.302
11
20.3943
21
-168.207
0
LINE
8
BLACK
6
CONTINUOUS
10
22.299
20
-168.207
11
22.4895
21
-168.207
0
LINE
8
BLACK
6
CONTINUOUS
10
22.4895
20
-168.207
11
22.68
21
-168.302
0
LINE
8
BLACK
6
CONTINUOUS
10
22.68
20
-168.302
11
22.7752
21
-168.398
0
LINE
8
BLACK
6
CONTINUOUS
10
22.7752
20
-168.398
11
22.8705
21
-168.588
0
LINE
8
BLACK
6
CONTINUOUS
10
22.8705
20
-168.588
11
22.9657
21
-168.969
0
LINE
8
BLACK
6
CONTINUOUS
10
22.9657
20
-168.969
11
22.9657
21
-169.445
0
LINE
8
BLACK
6
CONTINUOUS
10
22.9657
20
-169.445
11
22.8705
21
-169.826
0
LINE
8
BLACK
6
CONTINUOUS
10
22.8705
20
-169.826
11
22.7752
21
-170.017
0
LINE
8
BLACK
6
CONTINUOUS
10
22.7752
20
-170.017
11
22.68
21
-170.112
0
LINE
8
BLACK
6
CONTINUOUS
10
22.68
20
-170.112
11
22.4895
21
-170.207
0
LINE
8
BLACK
6
CONTINUOUS
10
22.4895
20
-170.207
11
22.299
21
-170.207
0
LINE
8
BLACK
6
CONTINUOUS
10
22.299
20
-170.207
11
22.1086
21
-170.112
0
LINE
8
BLACK
6
CONTINUOUS
10
22.1086
20
-170.112
11
22.0133
21
-170.017
0
LINE
8
BLACK
6
CONTINUOUS
10
22.0133
20
-170.017
11
21.9181
21
-169.826
0
LINE
8
BLACK
6
CONTINUOUS
10
21.9181
20
-169.826
11
21.8229
21
-169.445
0
LINE
8
BLACK
6
CONTINUOUS
10
21.8229
20
-169.445
11
21.8229
21
-168.969
0
LINE
8
BLACK
6
CONTINUOUS
10
21.8229
20
-168.969
11
21.9181
21
-168.588
0
LINE
8
BLACK
6
CONTINUOUS
10
21.9181
20
-168.588
11
22.0133
21
-168.398
0
LINE
8
BLACK
6
CONTINUOUS
10
22.0133
20
-168.398
11
22.1086
21
-168.302
0
LINE
8
BLACK
6
CONTINUOUS
10
22.1086
20
-168.302
11
22.299
21
-168.207
0
LINE
8
BLACK
6
CONTINUOUS
10
24.2038
20
-168.207
11
24.3943
21
-168.207
0
LINE
8
BLACK
6
CONTINUOUS
10
24.3943
20
-168.207
11
24.5848
21
-168.302
0
LINE
8
BLACK
6
CONTINUOUS
10
24.5848
20
-168.302
11
24.68
21
-168.398
0
LINE
8
BLACK
6
CONTINUOUS
10
24.68
20
-168.398
11
24.7752
21
-168.588
0
LINE
8
BLACK
6
CONTINUOUS
10
24.7752
20
-168.588
11
24.8705
21
-168.969
0
LINE
8
BLACK
6
CONTINUOUS
10
24.8705
20
-168.969
11
24.8705
21
-169.445
0
LINE
8
BLACK
6
CONTINUOUS
10
24.8705
20
-169.445
11
24.7752
21
-169.826
0
LINE
8
BLACK
6
CONTINUOUS
10
24.7752
20
-169.826
11
24.68
21
-170.017
0
LINE
8
BLACK
6
CONTINUOUS
10
24.68
20
-170.017
11
24.5848
21
-170.112
0
LINE
8
BLACK
6
CONTINUOUS
10
24.5848
20
-170.112
11
24.3943
21
-170.207
0
LINE
8
BLACK
6
CONTINUOUS
10
24.3943
20
-170.207
11
24.2038
21
-170.207
0
LINE
8
BLACK
6
CONTINUOUS
10
24.2038
20
-170.207
11
24.0133
21
-170.112
0
LINE
8
BLACK
6
CONTINUOUS
10
24.0133
20
-170.112
11
23.9181
21
-170.017
0
LINE
8
BLACK
6
CONTINUOUS
10
23.9181
20
-170.017
11
23.8229
21
-169.826
0
LINE
8
BLACK
6
CONTINUOUS
10
23.8229
20
-169.826
11
23.7276
21
-169.445
0
LINE
8
BLACK
6
CONTINUOUS
10
23.7276
20
-169.445
11
23.7276
21
-168.969
0
LINE
8
BLACK
6
CONTINUOUS
10
23.7276
20
-168.969
11
23.8229
21
-168.588
0
LINE
8
BLACK
6
CONTINUOUS
10
23.8229
20
-168.588
11
23.9181
21
-168.398
0
LINE
8
BLACK
6
CONTINUOUS
10
23.9181
20
-168.398
11
24.0133
21
-168.302
0
LINE
8
BLACK
6
CONTINUOUS
10
24.0133
20
-168.302
11
24.2038
21
-168.207
0
LINE
8
BLACK
6
CONTINUOUS
10
25.7276
20
-170.207
11
25.7276
21
-168.874
0
LINE
8
BLACK
6
CONTINUOUS
10
25.7276
20
-169.064
11
25.8229
21
-168.969
0
LINE
8
BLACK
6
CONTINUOUS
10
25.8229
20
-168.969
11
26.0133
21
-168.874
0
LINE
8
BLACK
6
CONTINUOUS
10
26.0133
20
-168.874
11
26.299
21
-168.874
0
LINE
8
BLACK
6
CONTINUOUS
10
26.299
20
-168.874
11
26.4895
21
-168.969
0
LINE
8
BLACK
6
CONTINUOUS
10
26.4895
20
-168.969
11
26.5848
21
-169.159
0
LINE
8
BLACK
6
CONTINUOUS
10
26.5848
20
-169.159
11
26.5848
21
-170.207
0
LINE
8
BLACK
6
CONTINUOUS
10
26.5848
20
-169.159
11
26.68
21
-168.969
0
LINE
8
BLACK
6
CONTINUOUS
10
26.68
20
-168.969
11
26.8705
21
-168.874
0
LINE
8
BLACK
6
CONTINUOUS
10
26.8705
20
-168.874
11
27.1562
21
-168.874
0
LINE
8
BLACK
6
CONTINUOUS
10
27.1562
20
-168.874
11
27.3467
21
-168.969
0
LINE
8
BLACK
6
CONTINUOUS
10
27.3467
20
-168.969
11
27.4419
21
-169.159
0
LINE
8
BLACK
6
CONTINUOUS
10
27.4419
20
-169.159
11
27.4419
21
-170.207
0
LINE
8
BLACK
6
CONTINUOUS
10
28.3943
20
-170.207
11
28.3943
21
-168.874
0
LINE
8
BLACK
6
CONTINUOUS
10
28.3943
20
-169.064
11
28.4895
21
-168.969
0
LINE
8
BLACK
6
CONTINUOUS
10
28.4895
20
-168.969
11
28.68
21
-168.874
0
LINE
8
BLACK
6
CONTINUOUS
10
28.68
20
-168.874
11
28.9657
21
-168.874
0
LINE
8
BLACK
6
CONTINUOUS
10
28.9657
20
-168.874
11
29.1562
21
-168.969
0
LINE
8
BLACK
6
CONTINUOUS
10
29.1562
20
-168.969
11
29.2514
21
-169.159
0
LINE
8
BLACK
6
CONTINUOUS
10
29.2514
20
-169.159
11
29.2514
21
-170.207
0
LINE
8
BLACK
6
CONTINUOUS
10
29.2514
20
-169.159
11
29.3467
21
-168.969
0
LINE
8
BLACK
6
CONTINUOUS
10
29.3467
20
-168.969
11
29.5371
21
-168.874
0
LINE
8
BLACK
6
CONTINUOUS
10
29.5371
20
-168.874
11
29.8229
21
-168.874
0
LINE
8
BLACK
6
CONTINUOUS
10
29.8229
20
-168.874
11
30.0133
21
-168.969
0
LINE
8
BLACK
6
CONTINUOUS
10
30.0133
20
-168.969
11
30.1086
21
-169.159
0
LINE
8
BLACK
6
CONTINUOUS
10
30.1086
20
-169.159
11
30.1086
21
-170.207
0
LINE
8
BLACK
6
CONTINUOUS
10
34.0133
20
-168.112
11
32.299
21
-170.683
0
LINE
8
BLACK
6
CONTINUOUS
10
36.5848
20
-168.207
11
36.7752
21
-168.207
0
LINE
8
BLACK
6
CONTINUOUS
10
36.7752
20
-168.207
11
36.9657
21
-168.302
0
LINE
8
BLACK
6
CONTINUOUS
10
36.9657
20
-168.302
11
37.061
21
-168.398
0
LINE
8
BLACK
6
CONTINUOUS
10
37.061
20
-168.398
11
37.1562
21
-168.588
0
LINE
8
BLACK
6
CONTINUOUS
10
37.1562
20
-168.588
11
37.2514
21
-168.969
0
LINE
8
BLACK
6
CONTINUOUS
10
37.2514
20
-168.969
11
37.2514
21
-169.445
0
LINE
8
BLACK
6
CONTINUOUS
10
37.2514
20
-169.445
11
37.1562
21
-169.826
0
LINE
8
BLACK
6
CONTINUOUS
10
37.1562
20
-169.826
11
37.061
21
-170.017
0
LINE
8
BLACK
6
CONTINUOUS
10
37.061
20
-170.017
11
36.9657
21
-170.112
0
LINE
8
BLACK
6
CONTINUOUS
10
36.9657
20
-170.112
11
36.7752
21
-170.207
0
LINE
8
BLACK
6
CONTINUOUS
10
36.7752
20
-170.207
11
36.5848
21
-170.207
0
LINE
8
BLACK
6
CONTINUOUS
10
36.5848
20
-170.207
11
36.3943
21
-170.112
0
LINE
8
BLACK
6
CONTINUOUS
10
36.3943
20
-170.112
11
36.299
21
-170.017
0
LINE
8
BLACK
6
CONTINUOUS
10
36.299
20
-170.017
11
36.2038
21
-169.826
0
LINE
8
BLACK
6
CONTINUOUS
10
36.2038
20
-169.826
11
36.1086
21
-169.445
0
LINE
8
BLACK
6
CONTINUOUS
10
36.1086
20
-169.445
11
36.1086
21
-168.969
0
LINE
8
BLACK
6
CONTINUOUS
10
36.1086
20
-168.969
11
36.2038
21
-168.588
0
LINE
8
BLACK
6
CONTINUOUS
10
36.2038
20
-168.588
11
36.299
21
-168.398
0
LINE
8
BLACK
6
CONTINUOUS
10
36.299
20
-168.398
11
36.3943
21
-168.302
0
LINE
8
BLACK
6
CONTINUOUS
10
36.3943
20
-168.302
11
36.5848
21
-168.207
0
LINE
8
BLACK
6
CONTINUOUS
10
38.1086
20
-170.017
11
38.2038
21
-170.112
0
LINE
8
BLACK
6
CONTINUOUS
10
38.2038
20
-170.112
11
38.1086
21
-170.207
0
LINE
8
BLACK
6
CONTINUOUS
10
38.1086
20
-170.207
11
38.0133
21
-170.112
0
LINE
8
BLACK
6
CONTINUOUS
10
38.0133
20
-170.112
11
38.1086
21
-170.017
0
LINE
8
BLACK
6
CONTINUOUS
10
38.1086
20
-170.017
11
38.1086
21
-170.207
0
LINE
8
BLACK
6
CONTINUOUS
10
40.1086
20
-170.207
11
38.9657
21
-170.207
0
LINE
8
BLACK
6
CONTINUOUS
10
39.5371
20
-170.207
11
39.5371
21
-168.207
0
LINE
8
BLACK
6
CONTINUOUS
10
39.5371
20
-168.207
11
39.3467
21
-168.493
0
LINE
8
BLACK
6
CONTINUOUS
10
39.3467
20
-168.493
11
39.1562
21
-168.683
0
LINE
8
BLACK
6
CONTINUOUS
10
39.1562
20
-168.683
11
38.9657
21
-168.778
0
LINE
8
BLACK
6
CONTINUOUS
10
42.0133
20
-170.207
11
40.8705
21
-170.207
0
LINE
8
BLACK
6
CONTINUOUS
10
41.4419
20
-170.207
11
41.4419
21
-168.207
0
LINE
8
BLACK
6
CONTINUOUS
10
41.4419
20
-168.207
11
41.2514
21
-168.493
0
LINE
8
BLACK
6
CONTINUOUS
10
41.2514
20
-168.493
11
41.061
21
-168.683
0
LINE
8
BLACK
6
CONTINUOUS
10
41.061
20
-168.683
11
40.8705
21
-168.778
0
LINE
8
BLACK
6
CONTINUOUS
10
43.1562
20
-169.064
11
42.9657
21
-168.969
0
LINE
8
BLACK
6
CONTINUOUS
10
42.9657
20
-168.969
11
42.8705
21
-168.874
0
LINE
8
BLACK
6
CONTINUOUS
10
42.8705
20
-168.874
11
42.7752
21
-168.683
0
LINE
8
BLACK
6
CONTINUOUS
10
42.7752
20
-168.683
11
42.7752
21
-168.588
0
LINE
8
BLACK
6
CONTINUOUS
10
42.7752
20
-168.588
11
42.8705
21
-168.398
0
LINE
8
BLACK
6
CONTINUOUS
10
42.8705
20
-168.398
11
42.9657
21
-168.302
0
LINE
8
BLACK
6
CONTINUOUS
10
42.9657
20
-168.302
11
43.1562
21
-168.207
0
LINE
8
BLACK
6
CONTINUOUS
10
43.1562
20
-168.207
11
43.5371
21
-168.207
0
LINE
8
BLACK
6
CONTINUOUS
10
43.5371
20
-168.207
11
43.7276
21
-168.302
0
LINE
8
BLACK
6
CONTINUOUS
10
43.7276
20
-168.302
11
43.8229
21
-168.398
0
LINE
8
BLACK
6
CONTINUOUS
10
43.8229
20
-168.398
11
43.9181
21
-168.588
0
LINE
8
BLACK
6
CONTINUOUS
10
43.9181
20
-168.588
11
43.9181
21
-168.683
0
LINE
8
BLACK
6
CONTINUOUS
10
43.9181
20
-168.683
11
43.8229
21
-168.874
0
LINE
8
BLACK
6
CONTINUOUS
10
43.8229
20
-168.874
11
43.7276
21
-168.969
0
LINE
8
BLACK
6
CONTINUOUS
10
43.7276
20
-168.969
11
43.5371
21
-169.064
0
LINE
8
BLACK
6
CONTINUOUS
10
43.5371
20
-169.064
11
43.1562
21
-169.064
0
LINE
8
BLACK
6
CONTINUOUS
10
43.1562
20
-169.064
11
42.9657
21
-169.159
0
LINE
8
BLACK
6
CONTINUOUS
10
42.9657
20
-169.159
11
42.8705
21
-169.255
0
LINE
8
BLACK
6
CONTINUOUS
10
42.8705
20
-169.255
11
42.7752
21
-169.445
0
LINE
8
BLACK
6
CONTINUOUS
10
42.7752
20
-169.445
11
42.7752
21
-169.826
0
LINE
8
BLACK
6
CONTINUOUS
10
42.7752
20
-169.826
11
42.8705
21
-170.017
0
LINE
8
BLACK
6
CONTINUOUS
10
42.8705
20
-170.017
11
42.9657
21
-170.112
0
LINE
8
BLACK
6
CONTINUOUS
10
42.9657
20
-170.112
11
43.1562
21
-170.207
0
LINE
8
BLACK
6
CONTINUOUS
10
43.1562
20
-170.207
11
43.5371
21
-170.207
0
LINE
8
BLACK
6
CONTINUOUS
10
43.5371
20
-170.207
11
43.7276
21
-170.112
0
LINE
8
BLACK
6
CONTINUOUS
10
43.7276
20
-170.112
11
43.8229
21
-170.017
0
LINE
8
BLACK
6
CONTINUOUS
10
43.8229
20
-170.017
11
43.9181
21
-169.826
0
LINE
8
BLACK
6
CONTINUOUS
10
43.9181
20
-169.826
11
43.9181
21
-169.445
0
LINE
8
BLACK
6
CONTINUOUS
10
43.9181
20
-169.445
11
43.8229
21
-169.255
0
LINE
8
BLACK
6
CONTINUOUS
10
43.8229
20
-169.255
11
43.7276
21
-169.159
0
LINE
8
BLACK
6
CONTINUOUS
10
43.7276
20
-169.159
11
43.5371
21
-169.064
0
LINE
8
BLACK
6
CONTINUOUS
10
45.8229
20
-170.207
11
44.68
21
-170.207
0
LINE
8
BLACK
6
CONTINUOUS
10
45.2514
20
-170.207
11
45.2514
21
-168.207
0
LINE
8
BLACK
6
CONTINUOUS
10
45.2514
20
-168.207
11
45.061
21
-168.493
0
LINE
8
BLACK
6
CONTINUOUS
10
45.061
20
-168.493
11
44.8705
21
-168.683
0
LINE
8
BLACK
6
CONTINUOUS
10
44.8705
20
-168.683
11
44.68
21
-168.778
0
LINE
8
BLACK
6
CONTINUOUS
10
46.5848
20
-168.207
11
46.5848
21
-168.588
0
LINE
8
BLACK
6
CONTINUOUS
10
47.3467
20
-168.207
11
47.3467
21
-168.588
0
LINE
8
BLACK
6
CONTINUOUS
10
50.2991
20
-170.969
11
50.2038
21
-170.874
0
LINE
8
BLACK
6
CONTINUOUS
10
50.2038
20
-170.874
11
50.0133
21
-170.588
0
LINE
8
BLACK
6
CONTINUOUS
10
50.0133
20
-170.588
11
49.9181
21
-170.398
0
LINE
8
BLACK
6
CONTINUOUS
10
49.9181
20
-170.398
11
49.8229
21
-170.112
0
LINE
8
BLACK
6
CONTINUOUS
10
49.8229
20
-170.112
11
49.7276
21
-169.636
0
LINE
8
BLACK
6
CONTINUOUS
10
49.7276
20
-169.636
11
49.7276
21
-169.255
0
LINE
8
BLACK
6
CONTINUOUS
10
49.7276
20
-169.255
11
49.8229
21
-168.778
0
LINE
8
BLACK
6
CONTINUOUS
10
49.8229
20
-168.778
11
49.9181
21
-168.493
0
LINE
8
BLACK
6
CONTINUOUS
10
49.9181
20
-168.493
11
50.0133
21
-168.302
0
LINE
8
BLACK
6
CONTINUOUS
10
50.0133
20
-168.302
11
50.2038
21
-168.017
0
LINE
8
BLACK
6
CONTINUOUS
10
50.2038
20
-168.017
11
50.2991
21
-167.921
0
LINE
8
BLACK
6
CONTINUOUS
10
51.9181
20
-168.207
11
51.5371
21
-168.207
0
LINE
8
BLACK
6
CONTINUOUS
10
51.5371
20
-168.207
11
51.3467
21
-168.302
0
LINE
8
BLACK
6
CONTINUOUS
10
51.3467
20
-168.302
11
51.2514
21
-168.398
0
LINE
8
BLACK
6
CONTINUOUS
10
51.2514
20
-168.398
11
51.061
21
-168.683
0
LINE
8
BLACK
6
CONTINUOUS
10
51.061
20
-168.683
11
50.9657
21
-169.064
0
LINE
8
BLACK
6
CONTINUOUS
10
50.9657
20
-169.064
11
50.9657
21
-169.826
0
LINE
8
BLACK
6
CONTINUOUS
10
50.9657
20
-169.826
11
51.061
21
-170.017
0
LINE
8
BLACK
6
CONTINUOUS
10
51.061
20
-170.017
11
51.1562
21
-170.112
0
LINE
8
BLACK
6
CONTINUOUS
10
51.1562
20
-170.112
11
51.3467
21
-170.207
0
LINE
8
BLACK
6
CONTINUOUS
10
51.3467
20
-170.207
11
51.7276
21
-170.207
0
LINE
8
BLACK
6
CONTINUOUS
10
51.7276
20
-170.207
11
51.9181
21
-170.112
0
LINE
8
BLACK
6
CONTINUOUS
10
51.9181
20
-170.112
11
52.0133
21
-170.017
0
LINE
8
BLACK
6
CONTINUOUS
10
52.0133
20
-170.017
11
52.1086
21
-169.826
0
LINE
8
BLACK
6
CONTINUOUS
10
52.1086
20
-169.826
11
52.1086
21
-169.35
0
LINE
8
BLACK
6
CONTINUOUS
10
52.1086
20
-169.35
11
52.0133
21
-169.159
0
LINE
8
BLACK
6
CONTINUOUS
10
52.0133
20
-169.159
11
51.9181
21
-169.064
0
LINE
8
BLACK
6
CONTINUOUS
10
51.9181
20
-169.064
11
51.7276
21
-168.969
0
LINE
8
BLACK
6
CONTINUOUS
10
51.7276
20
-168.969
11
51.3467
21
-168.969
0
LINE
8
BLACK
6
CONTINUOUS
10
51.3467
20
-168.969
11
51.1562
21
-169.064
0
LINE
8
BLACK
6
CONTINUOUS
10
51.1562
20
-169.064
11
51.061
21
-169.159
0
LINE
8
BLACK
6
CONTINUOUS
10
51.061
20
-169.159
11
50.9657
21
-169.35
0
LINE
8
BLACK
6
CONTINUOUS
10
53.2514
20
-169.064
11
53.061
21
-168.969
0
LINE
8
BLACK
6
CONTINUOUS
10
53.061
20
-168.969
11
52.9657
21
-168.874
0
LINE
8
BLACK
6
CONTINUOUS
10
52.9657
20
-168.874
11
52.8705
21
-168.683
0
LINE
8
BLACK
6
CONTINUOUS
10
52.8705
20
-168.683
11
52.8705
21
-168.588
0
LINE
8
BLACK
6
CONTINUOUS
10
52.8705
20
-168.588
11
52.9657
21
-168.398
0
LINE
8
BLACK
6
CONTINUOUS
10
52.9657
20
-168.398
11
53.061
21
-168.302
0
LINE
8
BLACK
6
CONTINUOUS
10
53.061
20
-168.302
11
53.2514
21
-168.207
0
LINE
8
BLACK
6
CONTINUOUS
10
53.2514
20
-168.207
11
53.6324
21
-168.207
0
LINE
8
BLACK
6
CONTINUOUS
10
53.6324
20
-168.207
11
53.8229
21
-168.302
0
LINE
8
BLACK
6
CONTINUOUS
10
53.8229
20
-168.302
11
53.9181
21
-168.398
0
LINE
8
BLACK
6
CONTINUOUS
10
53.9181
20
-168.398
11
54.0133
21
-168.588
0
LINE
8
BLACK
6
CONTINUOUS
10
54.0133
20
-168.588
11
54.0133
21
-168.683
0
LINE
8
BLACK
6
CONTINUOUS
10
54.0133
20
-168.683
11
53.9181
21
-168.874
0
LINE
8
BLACK
6
CONTINUOUS
10
53.9181
20
-168.874
11
53.8229
21
-168.969
0
LINE
8
BLACK
6
CONTINUOUS
10
53.8229
20
-168.969
11
53.6324
21
-169.064
0
LINE
8
BLACK
6
CONTINUOUS
10
53.6324
20
-169.064
11
53.2514
21
-169.064
0
LINE
8
BLACK
6
CONTINUOUS
10
53.2514
20
-169.064
11
53.061
21
-169.159
0
LINE
8
BLACK
6
CONTINUOUS
10
53.061
20
-169.159
11
52.9657
21
-169.255
0
LINE
8
BLACK
6
CONTINUOUS
10
52.9657
20
-169.255
11
52.8705
21
-169.445
0
LINE
8
BLACK
6
CONTINUOUS
10
52.8705
20
-169.445
11
52.8705
21
-169.826
0
LINE
8
BLACK
6
CONTINUOUS
10
52.8705
20
-169.826
11
52.9657
21
-170.017
0
LINE
8
BLACK
6
CONTINUOUS
10
52.9657
20
-170.017
11
53.061
21
-170.112
0
LINE
8
BLACK
6
CONTINUOUS
10
53.061
20
-170.112
11
53.2514
21
-170.207
0
LINE
8
BLACK
6
CONTINUOUS
10
53.2514
20
-170.207
11
53.6324
21
-170.207
0
LINE
8
BLACK
6
CONTINUOUS
10
53.6324
20
-170.207
11
53.8229
21
-170.112
0
LINE
8
BLACK
6
CONTINUOUS
10
53.8229
20
-170.112
11
53.9181
21
-170.017
0
LINE
8
BLACK
6
CONTINUOUS
10
53.9181
20
-170.017
11
54.0133
21
-169.826
0
LINE
8
BLACK
6
CONTINUOUS
10
54.0133
20
-169.826
11
54.0133
21
-169.445
0
LINE
8
BLACK
6
CONTINUOUS
10
54.0133
20
-169.445
11
53.9181
21
-169.255
0
LINE
8
BLACK
6
CONTINUOUS
10
53.9181
20
-169.255
11
53.8229
21
-169.159
0
LINE
8
BLACK
6
CONTINUOUS
10
53.8229
20
-169.159
11
53.6324
21
-169.064
0
LINE
8
BLACK
6
CONTINUOUS
10
56.3943
20
-170.207
11
56.3943
21
-168.207
0
LINE
8
BLACK
6
CONTINUOUS
10
57.2514
20
-170.207
11
57.2514
21
-169.159
0
LINE
8
BLACK
6
CONTINUOUS
10
57.2514
20
-169.159
11
57.1562
21
-168.969
0
LINE
8
BLACK
6
CONTINUOUS
10
57.1562
20
-168.969
11
56.9657
21
-168.874
0
LINE
8
BLACK
6
CONTINUOUS
10
56.9657
20
-168.874
11
56.68
21
-168.874
0
LINE
8
BLACK
6
CONTINUOUS
10
56.68
20
-168.874
11
56.4895
21
-168.969
0
LINE
8
BLACK
6
CONTINUOUS
10
56.4895
20
-168.969
11
56.3943
21
-169.064
0
LINE
8
BLACK
6
CONTINUOUS
10
58.4895
20
-170.207
11
58.2991
21
-170.112
0
LINE
8
BLACK
6
CONTINUOUS
10
58.2991
20
-170.112
11
58.2038
21
-170.017
0
LINE
8
BLACK
6
CONTINUOUS
10
58.2038
20
-170.017
11
58.1086
21
-169.826
0
LINE
8
BLACK
6
CONTINUOUS
10
58.1086
20
-169.826
11
58.1086
21
-169.255
0
LINE
8
BLACK
6
CONTINUOUS
10
58.1086
20
-169.255
11
58.2038
21
-169.064
0
LINE
8
BLACK
6
CONTINUOUS
10
58.2038
20
-169.064
11
58.2991
21
-168.969
0
LINE
8
BLACK
6
CONTINUOUS
10
58.2991
20
-168.969
11
58.4895
21
-168.874
0
LINE
8
BLACK
6
CONTINUOUS
10
58.4895
20
-168.874
11
58.7752
21
-168.874
0
LINE
8
BLACK
6
CONTINUOUS
10
58.7752
20
-168.874
11
58.9657
21
-168.969
0
LINE
8
BLACK
6
CONTINUOUS
10
58.9657
20
-168.969
11
59.061
21
-169.064
0
LINE
8
BLACK
6
CONTINUOUS
10
59.061
20
-169.064
11
59.1562
21
-169.255
0
LINE
8
BLACK
6
CONTINUOUS
10
59.1562
20
-169.255
11
59.1562
21
-169.826
0
LINE
8
BLACK
6
CONTINUOUS
10
59.1562
20
-169.826
11
59.061
21
-170.017
0
LINE
8
BLACK
6
CONTINUOUS
10
59.061
20
-170.017
11
58.9657
21
-170.112
0
LINE
8
BLACK
6
CONTINUOUS
10
58.9657
20
-170.112
11
58.7752
21
-170.207
0
LINE
8
BLACK
6
CONTINUOUS
10
58.7752
20
-170.207
11
58.4895
21
-170.207
0
LINE
8
BLACK
6
CONTINUOUS
10
60.2991
20
-170.207
11
60.1086
21
-170.112
0
LINE
8
BLACK
6
CONTINUOUS
10
60.1086
20
-170.112
11
60.0133
21
-169.921
0
LINE
8
BLACK
6
CONTINUOUS
10
60.0133
20
-169.921
11
60.0133
21
-168.207
0
LINE
8
BLACK
6
CONTINUOUS
10
61.8229
20
-170.112
11
61.6324
21
-170.207
0
LINE
8
BLACK
6
CONTINUOUS
10
61.6324
20
-170.207
11
61.2514
21
-170.207
0
LINE
8
BLACK
6
CONTINUOUS
10
61.2514
20
-170.207
11
61.061
21
-170.112
0
LINE
8
BLACK
6
CONTINUOUS
10
61.061
20
-170.112
11
60.9657
21
-169.921
0
LINE
8
BLACK
6
CONTINUOUS
10
60.9657
20
-169.921
11
60.9657
21
-169.159
0
LINE
8
BLACK
6
CONTINUOUS
10
60.9657
20
-169.159
11
61.061
21
-168.969
0
LINE
8
BLACK
6
CONTINUOUS
10
61.061
20
-168.969
11
61.2514
21
-168.874
0
LINE
8
BLACK
6
CONTINUOUS
10
61.2514
20
-168.874
11
61.6324
21
-168.874
0
LINE
8
BLACK
6
CONTINUOUS
10
61.6324
20
-168.874
11
61.8229
21
-168.969
0
LINE
8
BLACK
6
CONTINUOUS
10
61.8229
20
-168.969
11
61.9181
21
-169.159
0
LINE
8
BLACK
6
CONTINUOUS
10
61.9181
20
-169.159
11
61.9181
21
-169.35
0
LINE
8
BLACK
6
CONTINUOUS
10
61.9181
20
-169.35
11
60.9657
21
-169.54
0
LINE
8
BLACK
6
CONTINUOUS
10
62.68
20
-170.112
11
62.8705
21
-170.207
0
LINE
8
BLACK
6
CONTINUOUS
10
62.8705
20
-170.207
11
63.2514
21
-170.207
0
LINE
8
BLACK
6
CONTINUOUS
10
63.2514
20
-170.207
11
63.4419
21
-170.112
0
LINE
8
BLACK
6
CONTINUOUS
10
63.4419
20
-170.112
11
63.5371
21
-169.921
0
LINE
8
BLACK
6
CONTINUOUS
10
63.5371
20
-169.921
11
63.5371
21
-169.826
0
LINE
8
BLACK
6
CONTINUOUS
10
63.5371
20
-169.826
11
63.4419
21
-169.636
0
LINE
8
BLACK
6
CONTINUOUS
10
63.4419
20
-169.636
11
63.2514
21
-169.54
0
LINE
8
BLACK
6
CONTINUOUS
10
63.2514
20
-169.54
11
62.9657
21
-169.54
0
LINE
8
BLACK
6
CONTINUOUS
10
62.9657
20
-169.54
11
62.7752
21
-169.445
0
LINE
8
BLACK
6
CONTINUOUS
10
62.7752
20
-169.445
11
62.68
21
-169.255
0
LINE
8
BLACK
6
CONTINUOUS
10
62.68
20
-169.255
11
62.68
21
-169.159
0
LINE
8
BLACK
6
CONTINUOUS
10
62.68
20
-169.159
11
62.7752
21
-168.969
0
LINE
8
BLACK
6
CONTINUOUS
10
62.7752
20
-168.969
11
62.9657
21
-168.874
0
LINE
8
BLACK
6
CONTINUOUS
10
62.9657
20
-168.874
11
63.2514
21
-168.874
0
LINE
8
BLACK
6
CONTINUOUS
10
63.2514
20
-168.874
11
63.4419
21
-168.969
0
LINE
8
BLACK
6
CONTINUOUS
10
64.2038
20
-170.969
11
64.2991
21
-170.874
0
LINE
8
BLACK
6
CONTINUOUS
10
64.2991
20
-170.874
11
64.4895
21
-170.588
0
LINE
8
BLACK
6
CONTINUOUS
10
64.4895
20
-170.588
11
64.5848
21
-170.398
0
LINE
8
BLACK
6
CONTINUOUS
10
64.5848
20
-170.398
11
64.68
21
-170.112
0
LINE
8
BLACK
6
CONTINUOUS
10
64.68
20
-170.112
11
64.7752
21
-169.636
0
LINE
8
BLACK
6
CONTINUOUS
10
64.7752
20
-169.636
11
64.7752
21
-169.255
0
LINE
8
BLACK
6
CONTINUOUS
10
64.7752
20
-169.255
11
64.68
21
-168.778
0
LINE
8
BLACK
6
CONTINUOUS
10
64.68
20
-168.778
11
64.5848
21
-168.493
0
LINE
8
BLACK
6
CONTINUOUS
10
64.5848
20
-168.493
11
64.4895
21
-168.302
0
LINE
8
BLACK
6
CONTINUOUS
10
64.4895
20
-168.302
11
64.2991
21
-168.017
0
LINE
8
BLACK
6
CONTINUOUS
10
64.2991
20
-168.017
11
64.2038
21
-167.921
0
LINE
8
BLACK
6
CONTINUOUS
10
67.8229
20
-170.969
11
67.7276
21
-170.874
0
LINE
8
BLACK
6
CONTINUOUS
10
67.7276
20
-170.874
11
67.5371
21
-170.588
0
LINE
8
BLACK
6
CONTINUOUS
10
67.5371
20
-170.588
11
67.4419
21
-170.398
0
LINE
8
BLACK
6
CONTINUOUS
10
67.4419
20
-170.398
11
67.3467
21
-170.112
0
LINE
8
BLACK
6
CONTINUOUS
10
67.3467
20
-170.112
11
67.2514
21
-169.636
0
LINE
8
BLACK
6
CONTINUOUS
10
67.2514
20
-169.636
11
67.2514
21
-169.255
0
LINE
8
BLACK
6
CONTINUOUS
10
67.2514
20
-169.255
11
67.3467
21
-168.778
0
LINE
8
BLACK
6
CONTINUOUS
10
67.3467
20
-168.778
11
67.4419
21
-168.493
0
LINE
8
BLACK
6
CONTINUOUS
10
67.4419
20
-168.493
11
67.5371
21
-168.302
0
LINE
8
BLACK
6
CONTINUOUS
10
67.5371
20
-168.302
11
67.7276
21
-168.017
0
LINE
8
BLACK
6
CONTINUOUS
10
67.7276
20
-168.017
11
67.8229
21
-167.921
0
LINE
8
BLACK
6
CONTINUOUS
10
68.5848
20
-168.874
11
68.5848
21
-170.207
0
LINE
8
BLACK
6
CONTINUOUS
10
68.5848
20
-169.064
11
68.68
21
-168.969
0
LINE
8
BLACK
6
CONTINUOUS
10
68.68
20
-168.969
11
68.8705
21
-168.874
0
LINE
8
BLACK
6
CONTINUOUS
10
68.8705
20
-168.874
11
69.1562
21
-168.874
0
LINE
8
BLACK
6
CONTINUOUS
10
69.1562
20
-168.874
11
69.3467
21
-168.969
0
LINE
8
BLACK
6
CONTINUOUS
10
69.3467
20
-168.969
11
69.4419
21
-169.159
0
LINE
8
BLACK
6
CONTINUOUS
10
69.4419
20
-169.159
11
69.4419
21
-170.207
0
LINE
8
BLACK
6
CONTINUOUS
10
70.68
20
-170.207
11
70.4895
21
-170.112
0
LINE
8
BLACK
6
CONTINUOUS
10
70.4895
20
-170.112
11
70.3943
21
-170.017
0
LINE
8
BLACK
6
CONTINUOUS
10
70.3943
20
-170.017
11
70.2991
21
-169.826
0
LINE
8
BLACK
6
CONTINUOUS
10
70.2991
20
-169.826
11
70.2991
21
-169.255
0
LINE
8
BLACK
6
CONTINUOUS
10
70.2991
20
-169.255
11
70.3943
21
-169.064
0
LINE
8
BLACK
6
CONTINUOUS
10
70.3943
20
-169.064
11
70.4895
21
-168.969
0
LINE
8
BLACK
6
CONTINUOUS
10
70.4895
20
-168.969
11
70.68
21
-168.874
0
LINE
8
BLACK
6
CONTINUOUS
10
70.68
20
-168.874
11
70.9657
21
-168.874
0
LINE
8
BLACK
6
CONTINUOUS
10
70.9657
20
-168.874
11
71.1562
21
-168.969
0
LINE
8
BLACK
6
CONTINUOUS
10
71.1562
20
-168.969
11
71.2514
21
-169.064
0
LINE
8
BLACK
6
CONTINUOUS
10
71.2514
20
-169.064
11
71.3467
21
-169.255
0
LINE
8
BLACK
6
CONTINUOUS
10
71.3467
20
-169.255
11
71.3467
21
-169.826
0
LINE
8
BLACK
6
CONTINUOUS
10
71.3467
20
-169.826
11
71.2514
21
-170.017
0
LINE
8
BLACK
6
CONTINUOUS
10
71.2514
20
-170.017
11
71.1562
21
-170.112
0
LINE
8
BLACK
6
CONTINUOUS
10
71.1562
20
-170.112
11
70.9657
21
-170.207
0
LINE
8
BLACK
6
CONTINUOUS
10
70.9657
20
-170.207
11
70.68
21
-170.207
0
LINE
8
BLACK
6
CONTINUOUS
10
71.9181
20
-168.874
11
72.68
21
-168.874
0
LINE
8
BLACK
6
CONTINUOUS
10
72.2038
20
-168.207
11
72.2038
21
-169.921
0
LINE
8
BLACK
6
CONTINUOUS
10
72.2038
20
-169.921
11
72.2991
21
-170.112
0
LINE
8
BLACK
6
CONTINUOUS
10
72.2991
20
-170.112
11
72.4895
21
-170.207
0
LINE
8
BLACK
6
CONTINUOUS
10
72.4895
20
-170.207
11
72.68
21
-170.207
0
LINE
8
BLACK
6
CONTINUOUS
10
74.8705
20
-168.874
11
74.8705
21
-170.874
0
LINE
8
BLACK
6
CONTINUOUS
10
74.8705
20
-168.969
11
75.061
21
-168.874
0
LINE
8
BLACK
6
CONTINUOUS
10
75.061
20
-168.874
11
75.4419
21
-168.874
0
LINE
8
BLACK
6
CONTINUOUS
10
75.4419
20
-168.874
11
75.6324
21
-168.969
0
LINE
8
BLACK
6
CONTINUOUS
10
75.6324
20
-168.969
11
75.7276
21
-169.064
0
LINE
8
BLACK
6
CONTINUOUS
10
75.7276
20
-169.064
11
75.8229
21
-169.255
0
LINE
8
BLACK
6
CONTINUOUS
10
75.8229
20
-169.255
11
75.8229
21
-169.826
0
LINE
8
BLACK
6
CONTINUOUS
10
75.8229
20
-169.826
11
75.7276
21
-170.017
0
LINE
8
BLACK
6
CONTINUOUS
10
75.7276
20
-170.017
11
75.6324
21
-170.112
0
LINE
8
BLACK
6
CONTINUOUS
10
75.6324
20
-170.112
11
75.4419
21
-170.207
0
LINE
8
BLACK
6
CONTINUOUS
10
75.4419
20
-170.207
11
75.061
21
-170.207
0
LINE
8
BLACK
6
CONTINUOUS
10
75.061
20
-170.207
11
74.8705
21
-170.112
0
LINE
8
BLACK
6
CONTINUOUS
10
76.9657
20
-170.207
11
76.7752
21
-170.112
0
LINE
8
BLACK
6
CONTINUOUS
10
76.7752
20
-170.112
11
76.68
21
-169.921
0
LINE
8
BLACK
6
CONTINUOUS
10
76.68
20
-169.921
11
76.68
21
-168.207
0
LINE
8
BLACK
6
CONTINUOUS
10
78.5848
20
-170.207
11
78.5848
21
-169.159
0
LINE
8
BLACK
6
CONTINUOUS
10
78.5848
20
-169.159
11
78.4895
21
-168.969
0
LINE
8
BLACK
6
CONTINUOUS
10
78.4895
20
-168.969
11
78.2991
21
-168.874
0
LINE
8
BLACK
6
CONTINUOUS
10
78.2991
20
-168.874
11
77.9181
21
-168.874
0
LINE
8
BLACK
6
CONTINUOUS
10
77.9181
20
-168.874
11
77.7276
21
-168.969
0
LINE
8
BLACK
6
CONTINUOUS
10
78.5848
20
-170.112
11
78.3943
21
-170.207
0
LINE
8
BLACK
6
CONTINUOUS
10
78.3943
20
-170.207
11
77.9181
21
-170.207
0
LINE
8
BLACK
6
CONTINUOUS
10
77.9181
20
-170.207
11
77.7276
21
-170.112
0
LINE
8
BLACK
6
CONTINUOUS
10
77.7276
20
-170.112
11
77.6324
21
-169.921
0
LINE
8
BLACK
6
CONTINUOUS
10
77.6324
20
-169.921
11
77.6324
21
-169.731
0
LINE
8
BLACK
6
CONTINUOUS
10
77.6324
20
-169.731
11
77.7276
21
-169.54
0
LINE
8
BLACK
6
CONTINUOUS
10
77.7276
20
-169.54
11
77.9181
21
-169.445
0
LINE
8
BLACK
6
CONTINUOUS
10
77.9181
20
-169.445
11
78.3943
21
-169.445
0
LINE
8
BLACK
6
CONTINUOUS
10
78.3943
20
-169.445
11
78.5848
21
-169.35
0
LINE
8
BLACK
6
CONTINUOUS
10
79.2514
20
-168.874
11
80.0133
21
-168.874
0
LINE
8
BLACK
6
CONTINUOUS
10
79.5371
20
-168.207
11
79.5371
21
-169.921
0
LINE
8
BLACK
6
CONTINUOUS
10
79.5371
20
-169.921
11
79.6324
21
-170.112
0
LINE
8
BLACK
6
CONTINUOUS
10
79.6324
20
-170.112
11
79.8229
21
-170.207
0
LINE
8
BLACK
6
CONTINUOUS
10
79.8229
20
-170.207
11
80.0133
21
-170.207
0
LINE
8
BLACK
6
CONTINUOUS
10
81.4419
20
-170.112
11
81.2514
21
-170.207
0
LINE
8
BLACK
6
CONTINUOUS
10
81.2514
20
-170.207
11
80.8705
21
-170.207
0
LINE
8
BLACK
6
CONTINUOUS
10
80.8705
20
-170.207
11
80.68
21
-170.112
0
LINE
8
BLACK
6
CONTINUOUS
10
80.68
20
-170.112
11
80.5848
21
-169.921
0
LINE
8
BLACK
6
CONTINUOUS
10
80.5848
20
-169.921
11
80.5848
21
-169.159
0
LINE
8
BLACK
6
CONTINUOUS
10
80.5848
20
-169.159
11
80.68
21
-168.969
0
LINE
8
BLACK
6
CONTINUOUS
10
80.68
20
-168.969
11
80.8705
21
-168.874
0
LINE
8
BLACK
6
CONTINUOUS
10
80.8705
20
-168.874
11
81.2514
21
-168.874
0
LINE
8
BLACK
6
CONTINUOUS
10
81.2514
20
-168.874
11
81.4419
21
-168.969
0
LINE
8
BLACK
6
CONTINUOUS
10
81.4419
20
-168.969
11
81.5371
21
-169.159
0
LINE
8
BLACK
6
CONTINUOUS
10
81.5371
20
-169.159
11
81.5371
21
-169.35
0
LINE
8
BLACK
6
CONTINUOUS
10
81.5371
20
-169.35
11
80.5848
21
-169.54
0
LINE
8
BLACK
6
CONTINUOUS
10
83.2514
20
-170.207
11
83.2514
21
-168.207
0
LINE
8
BLACK
6
CONTINUOUS
10
83.2514
20
-170.112
11
83.061
21
-170.207
0
LINE
8
BLACK
6
CONTINUOUS
10
83.061
20
-170.207
11
82.68
21
-170.207
0
LINE
8
BLACK
6
CONTINUOUS
10
82.68
20
-170.207
11
82.4895
21
-170.112
0
LINE
8
BLACK
6
CONTINUOUS
10
82.4895
20
-170.112
11
82.3943
21
-170.017
0
LINE
8
BLACK
6
CONTINUOUS
10
82.3943
20
-170.017
11
82.2991
21
-169.826
0
LINE
8
BLACK
6
CONTINUOUS
10
82.2991
20
-169.826
11
82.2991
21
-169.255
0
LINE
8
BLACK
6
CONTINUOUS
10
82.2991
20
-169.255
11
82.3943
21
-169.064
0
LINE
8
BLACK
6
CONTINUOUS
10
82.3943
20
-169.064
11
82.4895
21
-168.969
0
LINE
8
BLACK
6
CONTINUOUS
10
82.4895
20
-168.969
11
82.68
21
-168.874
0
LINE
8
BLACK
6
CONTINUOUS
10
82.68
20
-168.874
11
83.061
21
-168.874
0
LINE
8
BLACK
6
CONTINUOUS
10
83.061
20
-168.874
11
83.2514
21
-168.969
0
LINE
8
BLACK
6
CONTINUOUS
10
84.0133
20
-170.969
11
84.1086
21
-170.874
0
LINE
8
BLACK
6
CONTINUOUS
10
84.1086
20
-170.874
11
84.2991
21
-170.588
0
LINE
8
BLACK
6
CONTINUOUS
10
84.2991
20
-170.588
11
84.3943
21
-170.398
0
LINE
8
BLACK
6
CONTINUOUS
10
84.3943
20
-170.398
11
84.4895
21
-170.112
0
LINE
8
BLACK
6
CONTINUOUS
10
84.4895
20
-170.112
11
84.5848
21
-169.636
0
LINE
8
BLACK
6
CONTINUOUS
10
84.5848
20
-169.636
11
84.5848
21
-169.255
0
LINE
8
BLACK
6
CONTINUOUS
10
84.5848
20
-169.255
11
84.4895
21
-168.778
0
LINE
8
BLACK
6
CONTINUOUS
10
84.4895
20
-168.778
11
84.3943
21
-168.493
0
LINE
8
BLACK
6
CONTINUOUS
10
84.3943
20
-168.493
11
84.2991
21
-168.302
0
LINE
8
BLACK
6
CONTINUOUS
10
84.2991
20
-168.302
11
84.1086
21
-168.017
0
LINE
8
BLACK
6
CONTINUOUS
10
84.1086
20
-168.017
11
84.0133
21
-167.921
0
LINE
8
BLACK
6
CONTINUOUS
10
13.68
20
-171.482
11
13.68
21
-173.482
0
LINE
8
BLACK
6
CONTINUOUS
10
12.68
20
-172.482
11
14.68
21
-172.482
0
LINE
8
BLACK
6
CONTINUOUS
10
16.9657
20
-171.407
11
18.2038
21
-171.407
0
LINE
8
BLACK
6
CONTINUOUS
10
18.2038
20
-171.407
11
17.5371
21
-172.169
0
LINE
8
BLACK
6
CONTINUOUS
10
17.5371
20
-172.169
11
17.8229
21
-172.169
0
LINE
8
BLACK
6
CONTINUOUS
10
17.8229
20
-172.169
11
18.0133
21
-172.264
0
LINE
8
BLACK
6
CONTINUOUS
10
18.0133
20
-172.264
11
18.1086
21
-172.359
0
LINE
8
BLACK
6
CONTINUOUS
10
18.1086
20
-172.359
11
18.2038
21
-172.55
0
LINE
8
BLACK
6
CONTINUOUS
10
18.2038
20
-172.55
11
18.2038
21
-173.026
0
LINE
8
BLACK
6
CONTINUOUS
10
18.2038
20
-173.026
11
18.1086
21
-173.217
0
LINE
8
BLACK
6
CONTINUOUS
10
18.1086
20
-173.217
11
18.0133
21
-173.312
0
LINE
8
BLACK
6
CONTINUOUS
10
18.0133
20
-173.312
11
17.8229
21
-173.407
0
LINE
8
BLACK
6
CONTINUOUS
10
17.8229
20
-173.407
11
17.2514
21
-173.407
0
LINE
8
BLACK
6
CONTINUOUS
10
17.2514
20
-173.407
11
17.061
21
-173.312
0
LINE
8
BLACK
6
CONTINUOUS
10
17.061
20
-173.312
11
16.9657
21
-173.217
0
LINE
8
BLACK
6
CONTINUOUS
10
19.061
20
-173.217
11
19.1562
21
-173.312
0
LINE
8
BLACK
6
CONTINUOUS
10
19.1562
20
-173.312
11
19.061
21
-173.407
0
LINE
8
BLACK
6
CONTINUOUS
10
19.061
20
-173.407
11
18.9657
21
-173.312
0
LINE
8
BLACK
6
CONTINUOUS
10
18.9657
20
-173.312
11
19.061
21
-173.217
0
LINE
8
BLACK
6
CONTINUOUS
10
19.061
20
-173.217
11
19.061
21
-173.407
0
LINE
8
BLACK
6
CONTINUOUS
10
20.1086
20
-173.407
11
20.4895
21
-173.407
0
LINE
8
BLACK
6
CONTINUOUS
10
20.4895
20
-173.407
11
20.68
21
-173.312
0
LINE
8
BLACK
6
CONTINUOUS
10
20.68
20
-173.312
11
20.7752
21
-173.217
0
LINE
8
BLACK
6
CONTINUOUS
10
20.7752
20
-173.217
11
20.9657
21
-172.931
0
LINE
8
BLACK
6
CONTINUOUS
10
20.9657
20
-172.931
11
21.061
21
-172.55
0
LINE
8
BLACK
6
CONTINUOUS
10
21.061
20
-172.55
11
21.061
21
-171.788
0
LINE
8
BLACK
6
CONTINUOUS
10
21.061
20
-171.788
11
20.9657
21
-171.598
0
LINE
8
BLACK
6
CONTINUOUS
10
20.9657
20
-171.598
11
20.8705
21
-171.502
0
LINE
8
BLACK
6
CONTINUOUS
10
20.8705
20
-171.502
11
20.68
21
-171.407
0
LINE
8
BLACK
6
CONTINUOUS
10
20.68
20
-171.407
11
20.299
21
-171.407
0
LINE
8
BLACK
6
CONTINUOUS
10
20.299
20
-171.407
11
20.1086
21
-171.502
0
LINE
8
BLACK
6
CONTINUOUS
10
20.1086
20
-171.502
11
20.0133
21
-171.598
0
LINE
8
BLACK
6
CONTINUOUS
10
20.0133
20
-171.598
11
19.9181
21
-171.788
0
LINE
8
BLACK
6
CONTINUOUS
10
19.9181
20
-171.788
11
19.9181
21
-172.264
0
LINE
8
BLACK
6
CONTINUOUS
10
19.9181
20
-172.264
11
20.0133
21
-172.455
0
LINE
8
BLACK
6
CONTINUOUS
10
20.0133
20
-172.455
11
20.1086
21
-172.55
0
LINE
8
BLACK
6
CONTINUOUS
10
20.1086
20
-172.55
11
20.299
21
-172.645
0
LINE
8
BLACK
6
CONTINUOUS
10
20.299
20
-172.645
11
20.68
21
-172.645
0
LINE
8
BLACK
6
CONTINUOUS
10
20.68
20
-172.645
11
20.8705
21
-172.55
0
LINE
8
BLACK
6
CONTINUOUS
10
20.8705
20
-172.55
11
20.9657
21
-172.455
0
LINE
8
BLACK
6
CONTINUOUS
10
20.9657
20
-172.455
11
21.061
21
-172.264
0
LINE
8
BLACK
6
CONTINUOUS
10
22.2038
20
-172.264
11
22.0133
21
-172.169
0
LINE
8
BLACK
6
CONTINUOUS
10
22.0133
20
-172.169
11
21.9181
21
-172.074
0
LINE
8
BLACK
6
CONTINUOUS
10
21.9181
20
-172.074
11
21.8229
21
-171.883
0
LINE
8
BLACK
6
CONTINUOUS
10
21.8229
20
-171.883
11
21.8229
21
-171.788
0
LINE
8
BLACK
6
CONTINUOUS
10
21.8229
20
-171.788
11
21.9181
21
-171.598
0
LINE
8
BLACK
6
CONTINUOUS
10
21.9181
20
-171.598
11
22.0133
21
-171.502
0
LINE
8
BLACK
6
CONTINUOUS
10
22.0133
20
-171.502
11
22.2038
21
-171.407
0
LINE
8
BLACK
6
CONTINUOUS
10
22.2038
20
-171.407
11
22.5848
21
-171.407
0
LINE
8
BLACK
6
CONTINUOUS
10
22.5848
20
-171.407
11
22.7752
21
-171.502
0
LINE
8
BLACK
6
CONTINUOUS
10
22.7752
20
-171.502
11
22.8705
21
-171.598
0
LINE
8
BLACK
6
CONTINUOUS
10
22.8705
20
-171.598
11
22.9657
21
-171.788
0
LINE
8
BLACK
6
CONTINUOUS
10
22.9657
20
-171.788
11
22.9657
21
-171.883
0
LINE
8
BLACK
6
CONTINUOUS
10
22.9657
20
-171.883
11
22.8705
21
-172.074
0
LINE
8
BLACK
6
CONTINUOUS
10
22.8705
20
-172.074
11
22.7752
21
-172.169
0
LINE
8
BLACK
6
CONTINUOUS
10
22.7752
20
-172.169
11
22.5848
21
-172.264
0
LINE
8
BLACK
6
CONTINUOUS
10
22.5848
20
-172.264
11
22.2038
21
-172.264
0
LINE
8
BLACK
6
CONTINUOUS
10
22.2038
20
-172.264
11
22.0133
21
-172.359
0
LINE
8
BLACK
6
CONTINUOUS
10
22.0133
20
-172.359
11
21.9181
21
-172.455
0
LINE
8
BLACK
6
CONTINUOUS
10
21.9181
20
-172.455
11
21.8229
21
-172.645
0
LINE
8
BLACK
6
CONTINUOUS
10
21.8229
20
-172.645
11
21.8229
21
-173.026
0
LINE
8
BLACK
6
CONTINUOUS
10
21.8229
20
-173.026
11
21.9181
21
-173.217
0
LINE
8
BLACK
6
CONTINUOUS
10
21.9181
20
-173.217
11
22.0133
21
-173.312
0
LINE
8
BLACK
6
CONTINUOUS
10
22.0133
20
-173.312
11
22.2038
21
-173.407
0
LINE
8
BLACK
6
CONTINUOUS
10
22.2038
20
-173.407
11
22.5848
21
-173.407
0
LINE
8
BLACK
6
CONTINUOUS
10
22.5848
20
-173.407
11
22.7752
21
-173.312
0
LINE
8
BLACK
6
CONTINUOUS
10
22.7752
20
-173.312
11
22.8705
21
-173.217
0
LINE
8
BLACK
6
CONTINUOUS
10
22.8705
20
-173.217
11
22.9657
21
-173.026
0
LINE
8
BLACK
6
CONTINUOUS
10
22.9657
20
-173.026
11
22.9657
21
-172.645
0
LINE
8
BLACK
6
CONTINUOUS
10
22.9657
20
-172.645
11
22.8705
21
-172.455
0
LINE
8
BLACK
6
CONTINUOUS
10
22.8705
20
-172.455
11
22.7752
21
-172.359
0
LINE
8
BLACK
6
CONTINUOUS
10
22.7752
20
-172.359
11
22.5848
21
-172.264
0
LINE
8
BLACK
6
CONTINUOUS
10
24.1086
20
-172.264
11
23.9181
21
-172.169
0
LINE
8
BLACK
6
CONTINUOUS
10
23.9181
20
-172.169
11
23.8229
21
-172.074
0
LINE
8
BLACK
6
CONTINUOUS
10
23.8229
20
-172.074
11
23.7276
21
-171.883
0
LINE
8
BLACK
6
CONTINUOUS
10
23.7276
20
-171.883
11
23.7276
21
-171.788
0
LINE
8
BLACK
6
CONTINUOUS
10
23.7276
20
-171.788
11
23.8229
21
-171.598
0
LINE
8
BLACK
6
CONTINUOUS
10
23.8229
20
-171.598
11
23.9181
21
-171.502
0
LINE
8
BLACK
6
CONTINUOUS
10
23.9181
20
-171.502
11
24.1086
21
-171.407
0
LINE
8
BLACK
6
CONTINUOUS
10
24.1086
20
-171.407
11
24.4895
21
-171.407
0
LINE
8
BLACK
6
CONTINUOUS
10
24.4895
20
-171.407
11
24.68
21
-171.502
0
LINE
8
BLACK
6
CONTINUOUS
10
24.68
20
-171.502
11
24.7752
21
-171.598
0
LINE
8
BLACK
6
CONTINUOUS
10
24.7752
20
-171.598
11
24.8705
21
-171.788
0
LINE
8
BLACK
6
CONTINUOUS
10
24.8705
20
-171.788
11
24.8705
21
-171.883
0
LINE
8
BLACK
6
CONTINUOUS
10
24.8705
20
-171.883
11
24.7752
21
-172.074
0
LINE
8
BLACK
6
CONTINUOUS
10
24.7752
20
-172.074
11
24.68
21
-172.169
0
LINE
8
BLACK
6
CONTINUOUS
10
24.68
20
-172.169
11
24.4895
21
-172.264
0
LINE
8
BLACK
6
CONTINUOUS
10
24.4895
20
-172.264
11
24.1086
21
-172.264
0
LINE
8
BLACK
6
CONTINUOUS
10
24.1086
20
-172.264
11
23.9181
21
-172.359
0
LINE
8
BLACK
6
CONTINUOUS
10
23.9181
20
-172.359
11
23.8229
21
-172.455
0
LINE
8
BLACK
6
CONTINUOUS
10
23.8229
20
-172.455
11
23.7276
21
-172.645
0
LINE
8
BLACK
6
CONTINUOUS
10
23.7276
20
-172.645
11
23.7276
21
-173.026
0
LINE
8
BLACK
6
CONTINUOUS
10
23.7276
20
-173.026
11
23.8229
21
-173.217
0
LINE
8
BLACK
6
CONTINUOUS
10
23.8229
20
-173.217
11
23.9181
21
-173.312
0
LINE
8
BLACK
6
CONTINUOUS
10
23.9181
20
-173.312
11
24.1086
21
-173.407
0
LINE
8
BLACK
6
CONTINUOUS
10
24.1086
20
-173.407
11
24.4895
21
-173.407
0
LINE
8
BLACK
6
CONTINUOUS
10
24.4895
20
-173.407
11
24.68
21
-173.312
0
LINE
8
BLACK
6
CONTINUOUS
10
24.68
20
-173.312
11
24.7752
21
-173.217
0
LINE
8
BLACK
6
CONTINUOUS
10
24.7752
20
-173.217
11
24.8705
21
-173.026
0
LINE
8
BLACK
6
CONTINUOUS
10
24.8705
20
-173.026
11
24.8705
21
-172.645
0
LINE
8
BLACK
6
CONTINUOUS
10
24.8705
20
-172.645
11
24.7752
21
-172.455
0
LINE
8
BLACK
6
CONTINUOUS
10
24.7752
20
-172.455
11
24.68
21
-172.359
0
LINE
8
BLACK
6
CONTINUOUS
10
24.68
20
-172.359
11
24.4895
21
-172.264
0
LINE
8
BLACK
6
CONTINUOUS
10
25.7276
20
-173.407
11
25.7276
21
-172.074
0
LINE
8
BLACK
6
CONTINUOUS
10
25.7276
20
-172.264
11
25.8229
21
-172.169
0
LINE
8
BLACK
6
CONTINUOUS
10
25.8229
20
-172.169
11
26.0133
21
-172.074
0
LINE
8
BLACK
6
CONTINUOUS
10
26.0133
20
-172.074
11
26.299
21
-172.074
0
LINE
8
BLACK
6
CONTINUOUS
10
26.299
20
-172.074
11
26.4895
21
-172.169
0
LINE
8
BLACK
6
CONTINUOUS
10
26.4895
20
-172.169
11
26.5848
21
-172.359
0
LINE
8
BLACK
6
CONTINUOUS
10
26.5848
20
-172.359
11
26.5848
21
-173.407
0
LINE
8
BLACK
6
CONTINUOUS
10
26.5848
20
-172.359
11
26.68
21
-172.169
0
LINE
8
BLACK
6
CONTINUOUS
10
26.68
20
-172.169
11
26.8705
21
-172.074
0
LINE
8
BLACK
6
CONTINUOUS
10
26.8705
20
-172.074
11
27.1562
21
-172.074
0
LINE
8
BLACK
6
CONTINUOUS
10
27.1562
20
-172.074
11
27.3467
21
-172.169
0
LINE
8
BLACK
6
CONTINUOUS
10
27.3467
20
-172.169
11
27.4419
21
-172.359
0
LINE
8
BLACK
6
CONTINUOUS
10
27.4419
20
-172.359
11
27.4419
21
-173.407
0
LINE
8
BLACK
6
CONTINUOUS
10
28.3943
20
-173.407
11
28.3943
21
-172.074
0
LINE
8
BLACK
6
CONTINUOUS
10
28.3943
20
-172.264
11
28.4895
21
-172.169
0
LINE
8
BLACK
6
CONTINUOUS
10
28.4895
20
-172.169
11
28.68
21
-172.074
0
LINE
8
BLACK
6
CONTINUOUS
10
28.68
20
-172.074
11
28.9657
21
-172.074
0
LINE
8
BLACK
6
CONTINUOUS
10
28.9657
20
-172.074
11
29.1562
21
-172.169
0
LINE
8
BLACK
6
CONTINUOUS
10
29.1562
20
-172.169
11
29.2514
21
-172.359
0
LINE
8
BLACK
6
CONTINUOUS
10
29.2514
20
-172.359
11
29.2514
21
-173.407
0
LINE
8
BLACK
6
CONTINUOUS
10
29.2514
20
-172.359
11
29.3467
21
-172.169
0
LINE
8
BLACK
6
CONTINUOUS
10
29.3467
20
-172.169
11
29.5371
21
-172.074
0
LINE
8
BLACK
6
CONTINUOUS
10
29.5371
20
-172.074
11
29.8229
21
-172.074
0
LINE
8
BLACK
6
CONTINUOUS
10
29.8229
20
-172.074
11
30.0133
21
-172.169
0
LINE
8
BLACK
6
CONTINUOUS
10
30.0133
20
-172.169
11
30.1086
21
-172.359
0
LINE
8
BLACK
6
CONTINUOUS
10
30.1086
20
-172.359
11
30.1086
21
-173.407
0
LINE
8
BLACK
6
CONTINUOUS
10
34.0133
20
-171.312
11
32.299
21
-173.883
0
LINE
8
BLACK
6
CONTINUOUS
10
36.5848
20
-171.407
11
36.7752
21
-171.407
0
LINE
8
BLACK
6
CONTINUOUS
10
36.7752
20
-171.407
11
36.9657
21
-171.502
0
LINE
8
BLACK
6
CONTINUOUS
10
36.9657
20
-171.502
11
37.061
21
-171.598
0
LINE
8
BLACK
6
CONTINUOUS
10
37.061
20
-171.598
11
37.1562
21
-171.788
0
LINE
8
BLACK
6
CONTINUOUS
10
37.1562
20
-171.788
11
37.2514
21
-172.169
0
LINE
8
BLACK
6
CONTINUOUS
10
37.2514
20
-172.169
11
37.2514
21
-172.645
0
LINE
8
BLACK
6
CONTINUOUS
10
37.2514
20
-172.645
11
37.1562
21
-173.026
0
LINE
8
BLACK
6
CONTINUOUS
10
37.1562
20
-173.026
11
37.061
21
-173.217
0
LINE
8
BLACK
6
CONTINUOUS
10
37.061
20
-173.217
11
36.9657
21
-173.312
0
LINE
8
BLACK
6
CONTINUOUS
10
36.9657
20
-173.312
11
36.7752
21
-173.407
0
LINE
8
BLACK
6
CONTINUOUS
10
36.7752
20
-173.407
11
36.5848
21
-173.407
0
LINE
8
BLACK
6
CONTINUOUS
10
36.5848
20
-173.407
11
36.3943
21
-173.312
0
LINE
8
BLACK
6
CONTINUOUS
10
36.3943
20
-173.312
11
36.299
21
-173.217
0
LINE
8
BLACK
6
CONTINUOUS
10
36.299
20
-173.217
11
36.2038
21
-173.026
0
LINE
8
BLACK
6
CONTINUOUS
10
36.2038
20
-173.026
11
36.1086
21
-172.645
0
LINE
8
BLACK
6
CONTINUOUS
10
36.1086
20
-172.645
11
36.1086
21
-172.169
0
LINE
8
BLACK
6
CONTINUOUS
10
36.1086
20
-172.169
11
36.2038
21
-171.788
0
LINE
8
BLACK
6
CONTINUOUS
10
36.2038
20
-171.788
11
36.299
21
-171.598
0
LINE
8
BLACK
6
CONTINUOUS
10
36.299
20
-171.598
11
36.3943
21
-171.502
0
LINE
8
BLACK
6
CONTINUOUS
10
36.3943
20
-171.502
11
36.5848
21
-171.407
0
LINE
8
BLACK
6
CONTINUOUS
10
38.1086
20
-173.217
11
38.2038
21
-173.312
0
LINE
8
BLACK
6
CONTINUOUS
10
38.2038
20
-173.312
11
38.1086
21
-173.407
0
LINE
8
BLACK
6
CONTINUOUS
10
38.1086
20
-173.407
11
38.0133
21
-173.312
0
LINE
8
BLACK
6
CONTINUOUS
10
38.0133
20
-173.312
11
38.1086
21
-173.217
0
LINE
8
BLACK
6
CONTINUOUS
10
38.1086
20
-173.217
11
38.1086
21
-173.407
0
LINE
8
BLACK
6
CONTINUOUS
10
40.1086
20
-173.407
11
38.9657
21
-173.407
0
LINE
8
BLACK
6
CONTINUOUS
10
39.5371
20
-173.407
11
39.5371
21
-171.407
0
LINE
8
BLACK
6
CONTINUOUS
10
39.5371
20
-171.407
11
39.3467
21
-171.693
0
LINE
8
BLACK
6
CONTINUOUS
10
39.3467
20
-171.693
11
39.1562
21
-171.883
0
LINE
8
BLACK
6
CONTINUOUS
10
39.1562
20
-171.883
11
38.9657
21
-171.978
0
LINE
8
BLACK
6
CONTINUOUS
10
41.9181
20
-171.407
11
40.9657
21
-171.407
0
LINE
8
BLACK
6
CONTINUOUS
10
40.9657
20
-171.407
11
40.8705
21
-172.359
0
LINE
8
BLACK
6
CONTINUOUS
10
40.8705
20
-172.359
11
40.9657
21
-172.264
0
LINE
8
BLACK
6
CONTINUOUS
10
40.9657
20
-172.264
11
41.1562
21
-172.169
0
LINE
8
BLACK
6
CONTINUOUS
10
41.1562
20
-172.169
11
41.6324
21
-172.169
0
LINE
8
BLACK
6
CONTINUOUS
10
41.6324
20
-172.169
11
41.8229
21
-172.264
0
LINE
8
BLACK
6
CONTINUOUS
10
41.8229
20
-172.264
11
41.9181
21
-172.359
0
LINE
8
BLACK
6
CONTINUOUS
10
41.9181
20
-172.359
11
42.0133
21
-172.55
0
LINE
8
BLACK
6
CONTINUOUS
10
42.0133
20
-172.55
11
42.0133
21
-173.026
0
LINE
8
BLACK
6
CONTINUOUS
10
42.0133
20
-173.026
11
41.9181
21
-173.217
0
LINE
8
BLACK
6
CONTINUOUS
10
41.9181
20
-173.217
11
41.8229
21
-173.312
0
LINE
8
BLACK
6
CONTINUOUS
10
41.8229
20
-173.312
11
41.6324
21
-173.407
0
LINE
8
BLACK
6
CONTINUOUS
10
41.6324
20
-173.407
11
41.1562
21
-173.407
0
LINE
8
BLACK
6
CONTINUOUS
10
41.1562
20
-173.407
11
40.9657
21
-173.312
0
LINE
8
BLACK
6
CONTINUOUS
10
40.9657
20
-173.312
11
40.8705
21
-173.217
0
LINE
8
BLACK
6
CONTINUOUS
10
42.68
20
-171.407
11
44.0133
21
-171.407
0
LINE
8
BLACK
6
CONTINUOUS
10
44.0133
20
-171.407
11
43.1562
21
-173.407
0
LINE
8
BLACK
6
CONTINUOUS
10
45.1562
20
-171.407
11
45.3467
21
-171.407
0
LINE
8
BLACK
6
CONTINUOUS
10
45.3467
20
-171.407
11
45.5371
21
-171.502
0
LINE
8
BLACK
6
CONTINUOUS
10
45.5371
20
-171.502
11
45.6324
21
-171.598
0
LINE
8
BLACK
6
CONTINUOUS
10
45.6324
20
-171.598
11
45.7276
21
-171.788
0
LINE
8
BLACK
6
CONTINUOUS
10
45.7276
20
-171.788
11
45.8229
21
-172.169
0
LINE
8
BLACK
6
CONTINUOUS
10
45.8229
20
-172.169
11
45.8229
21
-172.645
0
LINE
8
BLACK
6
CONTINUOUS
10
45.8229
20
-172.645
11
45.7276
21
-173.026
0
LINE
8
BLACK
6
CONTINUOUS
10
45.7276
20
-173.026
11
45.6324
21
-173.217
0
LINE
8
BLACK
6
CONTINUOUS
10
45.6324
20
-173.217
11
45.5371
21
-173.312
0
LINE
8
BLACK
6
CONTINUOUS
10
45.5371
20
-173.312
11
45.3467
21
-173.407
0
LINE
8
BLACK
6
CONTINUOUS
10
45.3467
20
-173.407
11
45.1562
21
-173.407
0
LINE
8
BLACK
6
CONTINUOUS
10
45.1562
20
-173.407
11
44.9657
21
-173.312
0
LINE
8
BLACK
6
CONTINUOUS
10
44.9657
20
-173.312
11
44.8705
21
-173.217
0
LINE
8
BLACK
6
CONTINUOUS
10
44.8705
20
-173.217
11
44.7752
21
-173.026
0
LINE
8
BLACK
6
CONTINUOUS
10
44.7752
20
-173.026
11
44.68
21
-172.645
0
LINE
8
BLACK
6
CONTINUOUS
10
44.68
20
-172.645
11
44.68
21
-172.169
0
LINE
8
BLACK
6
CONTINUOUS
10
44.68
20
-172.169
11
44.7752
21
-171.788
0
LINE
8
BLACK
6
CONTINUOUS
10
44.7752
20
-171.788
11
44.8705
21
-171.598
0
LINE
8
BLACK
6
CONTINUOUS
10
44.8705
20
-171.598
11
44.9657
21
-171.502
0
LINE
8
BLACK
6
CONTINUOUS
10
44.9657
20
-171.502
11
45.1562
21
-171.407
0
LINE
8
BLACK
6
CONTINUOUS
10
46.5848
20
-171.407
11
46.5848
21
-171.788
0
LINE
8
BLACK
6
CONTINUOUS
10
47.3467
20
-171.407
11
47.3467
21
-171.788
0
LINE
8
BLACK
6
CONTINUOUS
10
50.2991
20
-174.169
11
50.2038
21
-174.074
0
LINE
8
BLACK
6
CONTINUOUS
10
50.2038
20
-174.074
11
50.0133
21
-173.788
0
LINE
8
BLACK
6
CONTINUOUS
10
50.0133
20
-173.788
11
49.9181
21
-173.598
0
LINE
8
BLACK
6
CONTINUOUS
10
49.9181
20
-173.598
11
49.8229
21
-173.312
0
LINE
8
BLACK
6
CONTINUOUS
10
49.8229
20
-173.312
11
49.7276
21
-172.836
0
LINE
8
BLACK
6
CONTINUOUS
10
49.7276
20
-172.836
11
49.7276
21
-172.455
0
LINE
8
BLACK
6
CONTINUOUS
10
49.7276
20
-172.455
11
49.8229
21
-171.978
0
LINE
8
BLACK
6
CONTINUOUS
10
49.8229
20
-171.978
11
49.9181
21
-171.693
0
LINE
8
BLACK
6
CONTINUOUS
10
49.9181
20
-171.693
11
50.0133
21
-171.502
0
LINE
8
BLACK
6
CONTINUOUS
10
50.0133
20
-171.502
11
50.2038
21
-171.217
0
LINE
8
BLACK
6
CONTINUOUS
10
50.2038
20
-171.217
11
50.2991
21
-171.121
0
LINE
8
BLACK
6
CONTINUOUS
10
50.8705
20
-171.407
11
52.1086
21
-171.407
0
LINE
8
BLACK
6
CONTINUOUS
10
52.1086
20
-171.407
11
51.4419
21
-172.169
0
LINE
8
BLACK
6
CONTINUOUS
10
51.4419
20
-172.169
11
51.7276
21
-172.169
0
LINE
8
BLACK
6
CONTINUOUS
10
51.7276
20
-172.169
11
51.9181
21
-172.264
0
LINE
8
BLACK
6
CONTINUOUS
10
51.9181
20
-172.264
11
52.0133
21
-172.359
0
LINE
8
BLACK
6
CONTINUOUS
10
52.0133
20
-172.359
11
52.1086
21
-172.55
0
LINE
8
BLACK
6
CONTINUOUS
10
52.1086
20
-172.55
11
52.1086
21
-173.026
0
LINE
8
BLACK
6
CONTINUOUS
10
52.1086
20
-173.026
11
52.0133
21
-173.217
0
LINE
8
BLACK
6
CONTINUOUS
10
52.0133
20
-173.217
11
51.9181
21
-173.312
0
LINE
8
BLACK
6
CONTINUOUS
10
51.9181
20
-173.312
11
51.7276
21
-173.407
0
LINE
8
BLACK
6
CONTINUOUS
10
51.7276
20
-173.407
11
51.1562
21
-173.407
0
LINE
8
BLACK
6
CONTINUOUS
10
51.1562
20
-173.407
11
50.9657
21
-173.312
0
LINE
8
BLACK
6
CONTINUOUS
10
50.9657
20
-173.312
11
50.8705
21
-173.217
0
LINE
8
BLACK
6
CONTINUOUS
10
53.8229
20
-172.074
11
53.8229
21
-173.407
0
LINE
8
BLACK
6
CONTINUOUS
10
53.3467
20
-171.312
11
52.8705
21
-172.74
0
LINE
8
BLACK
6
CONTINUOUS
10
52.8705
20
-172.74
11
54.1086
21
-172.74
0
LINE
8
BLACK
6
CONTINUOUS
10
56.3943
20
-173.407
11
56.3943
21
-171.407
0
LINE
8
BLACK
6
CONTINUOUS
10
57.2514
20
-173.407
11
57.2514
21
-172.359
0
LINE
8
BLACK
6
CONTINUOUS
10
57.2514
20
-172.359
11
57.1562
21
-172.169
0
LINE
8
BLACK
6
CONTINUOUS
10
57.1562
20
-172.169
11
56.9657
21
-172.074
0
LINE
8
BLACK
6
CONTINUOUS
10
56.9657
20
-172.074
11
56.68
21
-172.074
0
LINE
8
BLACK
6
CONTINUOUS
10
56.68
20
-172.074
11
56.4895
21
-172.169
0
LINE
8
BLACK
6
CONTINUOUS
10
56.4895
20
-172.169
11
56.3943
21
-172.264
0
LINE
8
BLACK
6
CONTINUOUS
10
58.4895
20
-173.407
11
58.2991
21
-173.312
0
LINE
8
BLACK
6
CONTINUOUS
10
58.2991
20
-173.312
11
58.2038
21
-173.217
0
LINE
8
BLACK
6
CONTINUOUS
10
58.2038
20
-173.217
11
58.1086
21
-173.026
0
LINE
8
BLACK
6
CONTINUOUS
10
58.1086
20
-173.026
11
58.1086
21
-172.455
0
LINE
8
BLACK
6
CONTINUOUS
10
58.1086
20
-172.455
11
58.2038
21
-172.264
0
LINE
8
BLACK
6
CONTINUOUS
10
58.2038
20
-172.264
11
58.2991
21
-172.169
0
LINE
8
BLACK
6
CONTINUOUS
10
58.2991
20
-172.169
11
58.4895
21
-172.074
0
LINE
8
BLACK
6
CONTINUOUS
10
58.4895
20
-172.074
11
58.7752
21
-172.074
0
LINE
8
BLACK
6
CONTINUOUS
10
58.7752
20
-172.074
11
58.9657
21
-172.169
0
LINE
8
BLACK
6
CONTINUOUS
10
58.9657
20
-172.169
11
59.061
21
-172.264
0
LINE
8
BLACK
6
CONTINUOUS
10
59.061
20
-172.264
11
59.1562
21
-172.455
0
LINE
8
BLACK
6
CONTINUOUS
10
59.1562
20
-172.455
11
59.1562
21
-173.026
0
LINE
8
BLACK
6
CONTINUOUS
10
59.1562
20
-173.026
11
59.061
21
-173.217
0
LINE
8
BLACK
6
CONTINUOUS
10
59.061
20
-173.217
11
58.9657
21
-173.312
0
LINE
8
BLACK
6
CONTINUOUS
10
58.9657
20
-173.312
11
58.7752
21
-173.407
0
LINE
8
BLACK
6
CONTINUOUS
10
58.7752
20
-173.407
11
58.4895
21
-173.407
0
LINE
8
BLACK
6
CONTINUOUS
10
60.2991
20
-173.407
11
60.1086
21
-173.312
0
LINE
8
BLACK
6
CONTINUOUS
10
60.1086
20
-173.312
11
60.0133
21
-173.121
0
LINE
8
BLACK
6
CONTINUOUS
10
60.0133
20
-173.121
11
60.0133
21
-171.407
0
LINE
8
BLACK
6
CONTINUOUS
10
61.8229
20
-173.312
11
61.6324
21
-173.407
0
LINE
8
BLACK
6
CONTINUOUS
10
61.6324
20
-173.407
11
61.2514
21
-173.407
0
LINE
8
BLACK
6
CONTINUOUS
10
61.2514
20
-173.407
11
61.061
21
-173.312
0
LINE
8
BLACK
6
CONTINUOUS
10
61.061
20
-173.312
11
60.9657
21
-173.121
0
LINE
8
BLACK
6
CONTINUOUS
10
60.9657
20
-173.121
11
60.9657
21
-172.359
0
LINE
8
BLACK
6
CONTINUOUS
10
60.9657
20
-172.359
11
61.061
21
-172.169
0
LINE
8
BLACK
6
CONTINUOUS
10
61.061
20
-172.169
11
61.2514
21
-172.074
0
LINE
8
BLACK
6
CONTINUOUS
10
61.2514
20
-172.074
11
61.6324
21
-172.074
0
LINE
8
BLACK
6
CONTINUOUS
10
61.6324
20
-172.074
11
61.8229
21
-172.169
0
LINE
8
BLACK
6
CONTINUOUS
10
61.8229
20
-172.169
11
61.9181
21
-172.359
0
LINE
8
BLACK
6
CONTINUOUS
10
61.9181
20
-172.359
11
61.9181
21
-172.55
0
LINE
8
BLACK
6
CONTINUOUS
10
61.9181
20
-172.55
11
60.9657
21
-172.74
0
LINE
8
BLACK
6
CONTINUOUS
10
62.68
20
-173.312
11
62.8705
21
-173.407
0
LINE
8
BLACK
6
CONTINUOUS
10
62.8705
20
-173.407
11
63.2514
21
-173.407
0
LINE
8
BLACK
6
CONTINUOUS
10
63.2514
20
-173.407
11
63.4419
21
-173.312
0
LINE
8
BLACK
6
CONTINUOUS
10
63.4419
20
-173.312
11
63.5371
21
-173.121
0
LINE
8
BLACK
6
CONTINUOUS
10
63.5371
20
-173.121
11
63.5371
21
-173.026
0
LINE
8
BLACK
6
CONTINUOUS
10
63.5371
20
-173.026
11
63.4419
21
-172.836
0
LINE
8
BLACK
6
CONTINUOUS
10
63.4419
20
-172.836
11
63.2514
21
-172.74
0
LINE
8
BLACK
6
CONTINUOUS
10
63.2514
20
-172.74
11
62.9657
21
-172.74
0
LINE
8
BLACK
6
CONTINUOUS
10
62.9657
20
-172.74
11
62.7752
21
-172.645
0
LINE
8
BLACK
6
CONTINUOUS
10
62.7752
20
-172.645
11
62.68
21
-172.455
0
LINE
8
BLACK
6
CONTINUOUS
10
62.68
20
-172.455
11
62.68
21
-172.359
0
LINE
8
BLACK
6
CONTINUOUS
10
62.68
20
-172.359
11
62.7752
21
-172.169
0
LINE
8
BLACK
6
CONTINUOUS
10
62.7752
20
-172.169
11
62.9657
21
-172.074
0
LINE
8
BLACK
6
CONTINUOUS
10
62.9657
20
-172.074
11
63.2514
21
-172.074
0
LINE
8
BLACK
6
CONTINUOUS
10
63.2514
20
-172.074
11
63.4419
21
-172.169
0
LINE
8
BLACK
6
CONTINUOUS
10
64.2038
20
-174.169
11
64.2991
21
-174.074
0
LINE
8
BLACK
6
CONTINUOUS
10
64.2991
20
-174.074
11
64.4895
21
-173.788
0
LINE
8
BLACK
6
CONTINUOUS
10
64.4895
20
-173.788
11
64.5848
21
-173.598
0
LINE
8
BLACK
6
CONTINUOUS
10
64.5848
20
-173.598
11
64.68
21
-173.312
0
LINE
8
BLACK
6
CONTINUOUS
10
64.68
20
-173.312
11
64.7752
21
-172.836
0
LINE
8
BLACK
6
CONTINUOUS
10
64.7752
20
-172.836
11
64.7752
21
-172.455
0
LINE
8
BLACK
6
CONTINUOUS
10
64.7752
20
-172.455
11
64.68
21
-171.978
0
LINE
8
BLACK
6
CONTINUOUS
10
64.68
20
-171.978
11
64.5848
21
-171.693
0
LINE
8
BLACK
6
CONTINUOUS
10
64.5848
20
-171.693
11
64.4895
21
-171.502
0
LINE
8
BLACK
6
CONTINUOUS
10
64.4895
20
-171.502
11
64.2991
21
-171.217
0
LINE
8
BLACK
6
CONTINUOUS
10
64.2991
20
-171.217
11
64.2038
21
-171.121
0
LINE
8
BLACK
6
CONTINUOUS
10
67.8229
20
-174.169
11
67.7276
21
-174.074
0
LINE
8
BLACK
6
CONTINUOUS
10
67.7276
20
-174.074
11
67.5371
21
-173.788
0
LINE
8
BLACK
6
CONTINUOUS
10
67.5371
20
-173.788
11
67.4419
21
-173.598
0
LINE
8
BLACK
6
CONTINUOUS
10
67.4419
20
-173.598
11
67.3467
21
-173.312
0
LINE
8
BLACK
6
CONTINUOUS
10
67.3467
20
-173.312
11
67.2514
21
-172.836
0
LINE
8
BLACK
6
CONTINUOUS
10
67.2514
20
-172.836
11
67.2514
21
-172.455
0
LINE
8
BLACK
6
CONTINUOUS
10
67.2514
20
-172.455
11
67.3467
21
-171.978
0
LINE
8
BLACK
6
CONTINUOUS
10
67.3467
20
-171.978
11
67.4419
21
-171.693
0
LINE
8
BLACK
6
CONTINUOUS
10
67.4419
20
-171.693
11
67.5371
21
-171.502
0
LINE
8
BLACK
6
CONTINUOUS
10
67.5371
20
-171.502
11
67.7276
21
-171.217
0
LINE
8
BLACK
6
CONTINUOUS
10
67.7276
20
-171.217
11
67.8229
21
-171.121
0
LINE
8
BLACK
6
CONTINUOUS
10
68.5848
20
-172.074
11
68.5848
21
-173.407
0
LINE
8
BLACK
6
CONTINUOUS
10
68.5848
20
-172.264
11
68.68
21
-172.169
0
LINE
8
BLACK
6
CONTINUOUS
10
68.68
20
-172.169
11
68.8705
21
-172.074
0
LINE
8
BLACK
6
CONTINUOUS
10
68.8705
20
-172.074
11
69.1562
21
-172.074
0
LINE
8
BLACK
6
CONTINUOUS
10
69.1562
20
-172.074
11
69.3467
21
-172.169
0
LINE
8
BLACK
6
CONTINUOUS
10
69.3467
20
-172.169
11
69.4419
21
-172.359
0
LINE
8
BLACK
6
CONTINUOUS
10
69.4419
20
-172.359
11
69.4419
21
-173.407
0
LINE
8
BLACK
6
CONTINUOUS
10
70.68
20
-173.407
11
70.4895
21
-173.312
0
LINE
8
BLACK
6
CONTINUOUS
10
70.4895
20
-173.312
11
70.3943
21
-173.217
0
LINE
8
BLACK
6
CONTINUOUS
10
70.3943
20
-173.217
11
70.2991
21
-173.026
0
LINE
8
BLACK
6
CONTINUOUS
10
70.2991
20
-173.026
11
70.2991
21
-172.455
0
LINE
8
BLACK
6
CONTINUOUS
10
70.2991
20
-172.455
11
70.3943
21
-172.264
0
LINE
8
BLACK
6
CONTINUOUS
10
70.3943
20
-172.264
11
70.4895
21
-172.169
0
LINE
8
BLACK
6
CONTINUOUS
10
70.4895
20
-172.169
11
70.68
21
-172.074
0
LINE
8
BLACK
6
CONTINUOUS
10
70.68
20
-172.074
11
70.9657
21
-172.074
0
LINE
8
BLACK
6
CONTINUOUS
10
70.9657
20
-172.074
11
71.1562
21
-172.169
0
LINE
8
BLACK
6
CONTINUOUS
10
71.1562
20
-172.169
11
71.2514
21
-172.264
0
LINE
8
BLACK
6
CONTINUOUS
10
71.2514
20
-172.264
11
71.3467
21
-172.455
0
LINE
8
BLACK
6
CONTINUOUS
10
71.3467
20
-172.455
11
71.3467
21
-173.026
0
LINE
8
BLACK
6
CONTINUOUS
10
71.3467
20
-173.026
11
71.2514
21
-173.217
0
LINE
8
BLACK
6
CONTINUOUS
10
71.2514
20
-173.217
11
71.1562
21
-173.312
0
LINE
8
BLACK
6
CONTINUOUS
10
71.1562
20
-173.312
11
70.9657
21
-173.407
0
LINE
8
BLACK
6
CONTINUOUS
10
70.9657
20
-173.407
11
70.68
21
-173.407
0
LINE
8
BLACK
6
CONTINUOUS
10
71.9181
20
-172.074
11
72.68
21
-172.074
0
LINE
8
BLACK
6
CONTINUOUS
10
72.2038
20
-171.407
11
72.2038
21
-173.121
0
LINE
8
BLACK
6
CONTINUOUS
10
72.2038
20
-173.121
11
72.2991
21
-173.312
0
LINE
8
BLACK
6
CONTINUOUS
10
72.2991
20
-173.312
11
72.4895
21
-173.407
0
LINE
8
BLACK
6
CONTINUOUS
10
72.4895
20
-173.407
11
72.68
21
-173.407
0
LINE
8
BLACK
6
CONTINUOUS
10
74.8705
20
-172.074
11
74.8705
21
-174.074
0
LINE
8
BLACK
6
CONTINUOUS
10
74.8705
20
-172.169
11
75.061
21
-172.074
0
LINE
8
BLACK
6
CONTINUOUS
10
75.061
20
-172.074
11
75.4419
21
-172.074
0
LINE
8
BLACK
6
CONTINUOUS
10
75.4419
20
-172.074
11
75.6324
21
-172.169
0
LINE
8
BLACK
6
CONTINUOUS
10
75.6324
20
-172.169
11
75.7276
21
-172.264
0
LINE
8
BLACK
6
CONTINUOUS
10
75.7276
20
-172.264
11
75.8229
21
-172.455
0
LINE
8
BLACK
6
CONTINUOUS
10
75.8229
20
-172.455
11
75.8229
21
-173.026
0
LINE
8
BLACK
6
CONTINUOUS
10
75.8229
20
-173.026
11
75.7276
21
-173.217
0
LINE
8
BLACK
6
CONTINUOUS
10
75.7276
20
-173.217
11
75.6324
21
-173.312
0
LINE
8
BLACK
6
CONTINUOUS
10
75.6324
20
-173.312
11
75.4419
21
-173.407
0
LINE
8
BLACK
6
CONTINUOUS
10
75.4419
20
-173.407
11
75.061
21
-173.407
0
LINE
8
BLACK
6
CONTINUOUS
10
75.061
20
-173.407
11
74.8705
21
-173.312
0
LINE
8
BLACK
6
CONTINUOUS
10
76.9657
20
-173.407
11
76.7752
21
-173.312
0
LINE
8
BLACK
6
CONTINUOUS
10
76.7752
20
-173.312
11
76.68
21
-173.121
0
LINE
8
BLACK
6
CONTINUOUS
10
76.68
20
-173.121
11
76.68
21
-171.407
0
LINE
8
BLACK
6
CONTINUOUS
10
78.5848
20
-173.407
11
78.5848
21
-172.359
0
LINE
8
BLACK
6
CONTINUOUS
10
78.5848
20
-172.359
11
78.4895
21
-172.169
0
LINE
8
BLACK
6
CONTINUOUS
10
78.4895
20
-172.169
11
78.2991
21
-172.074
0
LINE
8
BLACK
6
CONTINUOUS
10
78.2991
20
-172.074
11
77.9181
21
-172.074
0
LINE
8
BLACK
6
CONTINUOUS
10
77.9181
20
-172.074
11
77.7276
21
-172.169
0
LINE
8
BLACK
6
CONTINUOUS
10
78.5848
20
-173.312
11
78.3943
21
-173.407
0
LINE
8
BLACK
6
CONTINUOUS
10
78.3943
20
-173.407
11
77.9181
21
-173.407
0
LINE
8
BLACK
6
CONTINUOUS
10
77.9181
20
-173.407
11
77.7276
21
-173.312
0
LINE
8
BLACK
6
CONTINUOUS
10
77.7276
20
-173.312
11
77.6324
21
-173.121
0
LINE
8
BLACK
6
CONTINUOUS
10
77.6324
20
-173.121
11
77.6324
21
-172.931
0
LINE
8
BLACK
6
CONTINUOUS
10
77.6324
20
-172.931
11
77.7276
21
-172.74
0
LINE
8
BLACK
6
CONTINUOUS
10
77.7276
20
-172.74
11
77.9181
21
-172.645
0
LINE
8
BLACK
6
CONTINUOUS
10
77.9181
20
-172.645
11
78.3943
21
-172.645
0
LINE
8
BLACK
6
CONTINUOUS
10
78.3943
20
-172.645
11
78.5848
21
-172.55
0
LINE
8
BLACK
6
CONTINUOUS
10
79.2514
20
-172.074
11
80.0133
21
-172.074
0
LINE
8
BLACK
6
CONTINUOUS
10
79.5371
20
-171.407
11
79.5371
21
-173.121
0
LINE
8
BLACK
6
CONTINUOUS
10
79.5371
20
-173.121
11
79.6324
21
-173.312
0
LINE
8
BLACK
6
CONTINUOUS
10
79.6324
20
-173.312
11
79.8229
21
-173.407
0
LINE
8
BLACK
6
CONTINUOUS
10
79.8229
20
-173.407
11
80.0133
21
-173.407
0
LINE
8
BLACK
6
CONTINUOUS
10
81.4419
20
-173.312
11
81.2514
21
-173.407
0
LINE
8
BLACK
6
CONTINUOUS
10
81.2514
20
-173.407
11
80.8705
21
-173.407
0
LINE
8
BLACK
6
CONTINUOUS
10
80.8705
20
-173.407
11
80.68
21
-173.312
0
LINE
8
BLACK
6
CONTINUOUS
10
80.68
20
-173.312
11
80.5848
21
-173.121
0
LINE
8
BLACK
6
CONTINUOUS
10
80.5848
20
-173.121
11
80.5848
21
-172.359
0
LINE
8
BLACK
6
CONTINUOUS
10
80.5848
20
-172.359
11
80.68
21
-172.169
0
LINE
8
BLACK
6
CONTINUOUS
10
80.68
20
-172.169
11
80.8705
21
-172.074
0
LINE
8
BLACK
6
CONTINUOUS
10
80.8705
20
-172.074
11
81.2514
21
-172.074
0
LINE
8
BLACK
6
CONTINUOUS
10
81.2514
20
-172.074
11
81.4419
21
-172.169
0
LINE
8
BLACK
6
CONTINUOUS
10
81.4419
20
-172.169
11
81.5371
21
-172.359
0
LINE
8
BLACK
6
CONTINUOUS
10
81.5371
20
-172.359
11
81.5371
21
-172.55
0
LINE
8
BLACK
6
CONTINUOUS
10
81.5371
20
-172.55
11
80.5848
21
-172.74
0
LINE
8
BLACK
6
CONTINUOUS
10
83.2514
20
-173.407
11
83.2514
21
-171.407
0
LINE
8
BLACK
6
CONTINUOUS
10
83.2514
20
-173.312
11
83.061
21
-173.407
0
LINE
8
BLACK
6
CONTINUOUS
10
83.061
20
-173.407
11
82.68
21
-173.407
0
LINE
8
BLACK
6
CONTINUOUS
10
82.68
20
-173.407
11
82.4895
21
-173.312
0
LINE
8
BLACK
6
CONTINUOUS
10
82.4895
20
-173.312
11
82.3943
21
-173.217
0
LINE
8
BLACK
6
CONTINUOUS
10
82.3943
20
-173.217
11
82.2991
21
-173.026
0
LINE
8
BLACK
6
CONTINUOUS
10
82.2991
20
-173.026
11
82.2991
21
-172.455
0
LINE
8
BLACK
6
CONTINUOUS
10
82.2991
20
-172.455
11
82.3943
21
-172.264
0
LINE
8
BLACK
6
CONTINUOUS
10
82.3943
20
-172.264
11
82.4895
21
-172.169
0
LINE
8
BLACK
6
CONTINUOUS
10
82.4895
20
-172.169
11
82.68
21
-172.074
0
LINE
8
BLACK
6
CONTINUOUS
10
82.68
20
-172.074
11
83.061
21
-172.074
0
LINE
8
BLACK
6
CONTINUOUS
10
83.061
20
-172.074
11
83.2514
21
-172.169
0
LINE
8
BLACK
6
CONTINUOUS
10
84.0133
20
-174.169
11
84.1086
21
-174.074
0
LINE
8
BLACK
6
CONTINUOUS
10
84.1086
20
-174.074
11
84.2991
21
-173.788
0
LINE
8
BLACK
6
CONTINUOUS
10
84.2991
20
-173.788
11
84.3943
21
-173.598
0
LINE
8
BLACK
6
CONTINUOUS
10
84.3943
20
-173.598
11
84.4895
21
-173.312
0
LINE
8
BLACK
6
CONTINUOUS
10
84.4895
20
-173.312
11
84.5848
21
-172.836
0
LINE
8
BLACK
6
CONTINUOUS
10
84.5848
20
-172.836
11
84.5848
21
-172.455
0
LINE
8
BLACK
6
CONTINUOUS
10
84.5848
20
-172.455
11
84.4895
21
-171.978
0
LINE
8
BLACK
6
CONTINUOUS
10
84.4895
20
-171.978
11
84.3943
21
-171.693
0
LINE
8
BLACK
6
CONTINUOUS
10
84.3943
20
-171.693
11
84.2991
21
-171.502
0
LINE
8
BLACK
6
CONTINUOUS
10
84.2991
20
-171.502
11
84.1086
21
-171.217
0
LINE
8
BLACK
6
CONTINUOUS
10
84.1086
20
-171.217
11
84.0133
21
-171.121
  0
ENDSEC
  0
EOF
