M48
; DRILL file {KiCad 7.0.1} date Sat Apr 15 18:04:21 2023
; FORMAT={-:-/ absolute / metric / decimal}
; #@! TF.CreationDate,2023-04-15T18:04:21-04:00
; #@! TF.GenerationSoftware,Kicad,Pcbnew,7.0.1
; #@! TF.FileFunction,Plated,1,2,PTH
FMAT,2
METRIC
; #@! TA.AperFunction,Plated,PTH,ViaDrill
T1C0.400
; #@! TA.AperFunction,Plated,PTH,ComponentDrill
T2C0.400
; #@! TA.AperFunction,Plated,PTH,ComponentDrill
T3C1.000
; #@! TA.AperFunction,Plated,PTH,ComponentDrill
T4C2.300
%
G90
G05
T1
X48.75Y-84.11
X49.274Y-71.104
X54.49Y-64.5
X55.87Y-52.87
X62.03Y-86.32
X64.79Y-85.34
X64.96Y-125.15
X69.11Y-70.28
X75.205Y-61.565
X79.02Y-97.33
X80.72Y-138.49
X85.252Y-87.272
X85.87Y-137.03
X91.89Y-68.56
X94.3Y-109.39
X103.365Y-90.945
X105.23Y-125.48
X106.927Y-83.993
X112.87Y-110.61
X121.07Y-92.9
X125.234Y-101.236
X130.462Y-84.93
X134.129Y-105.039
X136.14Y-104.039
X137.427Y-117.999
X138.65Y-103.539
X139.446Y-141.478
X141.22Y-103.039
X151.144Y-117.814
X160.166Y-80.796
X163.47Y-96.71
X171.7Y-70.01
X172.21Y-73.82
X172.61Y-70.48
X173.73Y-112.64
X174.64Y-75.88
X175.43Y-92.18
X181.49Y-126.71
X186.36Y-104.81
X188.06Y-58.83
X190.67Y-78.68
X192.65Y-133.26
X200.6Y-138.09
X203.78Y-96.89
X206.76Y-57.01
X212.298Y-79.59
X221.5Y-90.42
X230.39Y-62.02
X237.47Y-75.57
X245.27Y-95.36
T2
X28.98Y-107.188
X29.42Y-106.128
X29.42Y-108.248
X30.48Y-105.688
X30.48Y-108.688
X31.54Y-106.128
X31.54Y-108.248
X31.98Y-107.188
X50.316Y-48.26
X50.756Y-47.2
X50.756Y-49.32
X51.816Y-46.76
X51.816Y-49.76
X52.876Y-47.2
X52.876Y-49.32
X53.316Y-48.26
X96.036Y-156.464
X96.476Y-155.404
X96.476Y-157.524
X97.536Y-154.964
X97.536Y-157.964
X98.596Y-155.404
X98.596Y-157.524
X99.036Y-156.464
X140.74Y-112.268
X141.18Y-111.208
X141.18Y-113.328
X142.24Y-110.768
X142.24Y-113.768
X143.3Y-111.208
X143.3Y-113.328
X143.74Y-112.268
X186.206Y-157.226
X186.646Y-156.166
X186.646Y-158.286
X187.706Y-155.726
X187.706Y-158.726
X188.766Y-156.166
X188.766Y-158.286
X189.206Y-157.226
X229.108Y-48.514
X229.548Y-47.454
X229.548Y-49.574
X230.608Y-47.014
X230.608Y-50.014
X231.668Y-47.454
X231.668Y-49.574
X232.108Y-48.514
X251.186Y-106.382
X251.626Y-105.322
X251.626Y-107.442
X252.686Y-104.882
X252.686Y-107.882
X253.746Y-105.322
X253.746Y-107.442
X254.186Y-106.382
T3
X133.604Y-76.454
X133.604Y-78.994
X133.604Y-81.534
X133.604Y-84.074
X133.604Y-86.614
X133.604Y-89.154
X133.604Y-91.694
X133.604Y-94.234
X133.604Y-96.774
X136.144Y-96.774
X138.684Y-96.774
X141.224Y-96.774
X143.764Y-96.774
X146.304Y-96.774
X148.844Y-76.454
X148.844Y-78.994
X148.844Y-81.534
X148.844Y-84.074
X148.844Y-86.614
X148.844Y-89.154
X148.844Y-91.694
X148.844Y-94.234
X148.844Y-96.774
X156.915Y-118.505
X156.915Y-121.045
X156.915Y-123.585
X159.455Y-118.505
X159.455Y-121.045
X159.455Y-123.585
T4
X30.48Y-107.188
X51.816Y-48.26
X97.536Y-156.464
X142.24Y-112.268
X187.706Y-157.226
X230.608Y-48.514
X252.686Y-106.382
T0
M30
