G04 #@! TF.GenerationSoftware,KiCad,Pcbnew,7.0.1*
G04 #@! TF.CreationDate,2023-04-05T18:38:50-04:00*
G04 #@! TF.ProjectId,32kb,33326b62-2e6b-4696-9361-645f70636258,rev?*
G04 #@! TF.SameCoordinates,Original*
G04 #@! TF.FileFunction,Legend,Top*
G04 #@! TF.FilePolarity,Positive*
%FSLAX46Y46*%
G04 Gerber Fmt 4.6, Leading zero omitted, Abs format (unit mm)*
G04 Created by KiCad (PCBNEW 7.0.1) date 2023-04-05 18:38:50*
%MOMM*%
%LPD*%
G01*
G04 APERTURE LIST*
%ADD10C,0.500000*%
%ADD11C,4.000000*%
%ADD12C,1.900000*%
%ADD13C,3.000000*%
%ADD14C,4.100000*%
%ADD15R,2.000000X2.000000*%
%ADD16C,0.650000*%
%ADD17O,1.000000X1.600000*%
%ADD18O,1.000000X2.100000*%
G04 APERTURE END LIST*
%LPC*%
D10*
X150098000Y-109375000D03*
X149658000Y-110435000D03*
X149658000Y-108315000D03*
X148598000Y-110875000D03*
D11*
X148598000Y-109375000D03*
D10*
X148598000Y-107875000D03*
X147538000Y-110435000D03*
X147538000Y-108315000D03*
X147098000Y-109375000D03*
X45723000Y-105325000D03*
X45283000Y-106385000D03*
X45283000Y-104265000D03*
X44223000Y-106825000D03*
D11*
X44223000Y-105325000D03*
D10*
X44223000Y-103825000D03*
X43163000Y-106385000D03*
X43163000Y-104265000D03*
X42723000Y-105325000D03*
X257098000Y-104825000D03*
X256658000Y-105885000D03*
X256658000Y-103765000D03*
X255598000Y-106325000D03*
D11*
X255598000Y-104825000D03*
D10*
X255598000Y-103325000D03*
X254538000Y-105885000D03*
X254538000Y-103765000D03*
X254098000Y-104825000D03*
X63723000Y-45425000D03*
X63283000Y-46485000D03*
X63283000Y-44365000D03*
X62223000Y-46925000D03*
D11*
X62223000Y-45425000D03*
D10*
X62223000Y-43925000D03*
X61163000Y-46485000D03*
X61163000Y-44365000D03*
X60723000Y-45425000D03*
X236898000Y-45575000D03*
X236458000Y-46635000D03*
X236458000Y-44515000D03*
X235398000Y-47075000D03*
D11*
X235398000Y-45575000D03*
D10*
X235398000Y-44075000D03*
X234338000Y-46635000D03*
X234338000Y-44515000D03*
X233898000Y-45575000D03*
X178623000Y-65600000D03*
X178183000Y-66660000D03*
X178183000Y-64540000D03*
X177123000Y-67100000D03*
D11*
X177123000Y-65600000D03*
D10*
X177123000Y-64100000D03*
X176063000Y-66660000D03*
X176063000Y-64540000D03*
X175623000Y-65600000D03*
X121363000Y-65840000D03*
X120923000Y-66900000D03*
X120923000Y-64780000D03*
X119863000Y-67340000D03*
D11*
X119863000Y-65840000D03*
D10*
X119863000Y-64340000D03*
X118803000Y-66900000D03*
X118803000Y-64780000D03*
X118363000Y-65840000D03*
X105798000Y-147225000D03*
X105358000Y-148285000D03*
X105358000Y-146165000D03*
X104298000Y-148725000D03*
D11*
X104298000Y-147225000D03*
D10*
X104298000Y-145725000D03*
X103238000Y-148285000D03*
X103238000Y-146165000D03*
X102798000Y-147225000D03*
D11*
X192198000Y-146700000D03*
D10*
X190698000Y-146700000D03*
X193698000Y-146700000D03*
X192198000Y-148200000D03*
X192198000Y-145200000D03*
X191138000Y-147760000D03*
X193258000Y-147760000D03*
X193258000Y-145640000D03*
X191138000Y-145640000D03*
D12*
X196523523Y-133047804D03*
D13*
X199217599Y-132149778D03*
D14*
X200115625Y-136639906D03*
D13*
X205503779Y-134843855D03*
D12*
X203707727Y-140232008D03*
X93458454Y-140343152D03*
D13*
X92560428Y-137649076D03*
D14*
X97050556Y-136751050D03*
D13*
X95254505Y-131362896D03*
D12*
X100642658Y-133158948D03*
X257809497Y-92080558D03*
D13*
X257887058Y-89241811D03*
D14*
X262413541Y-89933657D03*
D13*
X262568662Y-84256163D03*
D12*
X267017585Y-87786756D03*
X235391772Y-89081731D03*
D13*
X235469333Y-86242984D03*
D14*
X239995816Y-86934830D03*
D13*
X240150937Y-81257336D03*
D12*
X244599860Y-84787929D03*
X216409088Y-93449374D03*
D13*
X216486649Y-90610627D03*
D14*
X221013132Y-91302473D03*
D13*
X221168253Y-85624979D03*
D12*
X225617176Y-89155572D03*
X200324720Y-104032476D03*
D13*
X200402281Y-101193729D03*
D14*
X204928764Y-101885575D03*
D13*
X205083885Y-96208081D03*
D12*
X209532808Y-99738674D03*
X184240352Y-114615578D03*
D13*
X184317913Y-111776831D03*
D14*
X188844396Y-112468677D03*
D13*
X188999517Y-106791183D03*
D12*
X193448440Y-110321776D03*
X103825086Y-110202718D03*
D13*
X106049548Y-108437422D03*
D14*
X108429130Y-112349619D03*
D13*
X112878053Y-108819026D03*
D12*
X113033174Y-114496520D03*
X87740718Y-99619616D03*
D13*
X89965180Y-97854320D03*
D14*
X92344762Y-101766517D03*
D13*
X96793685Y-98235924D03*
D12*
X96948806Y-103913418D03*
X71656350Y-89036515D03*
D13*
X73880812Y-87271219D03*
D14*
X76260394Y-91183416D03*
D13*
X80709317Y-87652823D03*
D12*
X80864438Y-93330317D03*
X52673666Y-84668872D03*
D13*
X54898128Y-82903576D03*
D14*
X57277710Y-86815773D03*
D13*
X61726633Y-83285180D03*
D12*
X61881754Y-88962674D03*
X30255941Y-87667698D03*
D13*
X32480403Y-85902402D03*
D14*
X34859985Y-89814599D03*
D13*
X39308908Y-86284006D03*
D12*
X39464029Y-91961500D03*
X249758620Y-74815395D03*
D13*
X249836181Y-71976648D03*
D14*
X254362664Y-72668494D03*
D13*
X254517785Y-66991000D03*
D12*
X258966708Y-70521593D03*
X227340894Y-71816568D03*
D13*
X227418455Y-68977821D03*
D14*
X231944938Y-69669667D03*
D13*
X232100059Y-63992173D03*
D12*
X236548982Y-67522766D03*
X208358210Y-76184211D03*
D13*
X208435771Y-73345464D03*
D14*
X212962254Y-74037310D03*
D13*
X213117375Y-68359816D03*
D12*
X217566298Y-71890409D03*
X192273842Y-86767313D03*
D13*
X192351403Y-83928566D03*
D14*
X196877886Y-84620412D03*
D13*
X197033007Y-78942918D03*
D12*
X201481930Y-82473511D03*
X176189475Y-97350415D03*
D13*
X176267036Y-94511668D03*
D14*
X180793519Y-95203514D03*
D13*
X180948640Y-89526020D03*
D12*
X185397563Y-93056613D03*
X111875964Y-92937555D03*
D13*
X114100426Y-91172259D03*
D14*
X116480008Y-95084456D03*
D13*
X120928931Y-91553863D03*
D12*
X121084052Y-97231357D03*
X95791596Y-82354453D03*
D13*
X98016058Y-80589157D03*
D14*
X100395640Y-84501354D03*
D13*
X104844563Y-80970761D03*
D12*
X104999684Y-86648255D03*
X79707228Y-71771351D03*
D13*
X81931690Y-70006055D03*
D14*
X84311272Y-73918252D03*
D13*
X88760195Y-70387659D03*
D12*
X88915316Y-76065153D03*
X60724544Y-67403708D03*
D13*
X62949006Y-65638412D03*
D14*
X65328588Y-69550609D03*
D13*
X69777511Y-66020016D03*
D12*
X69932632Y-71697510D03*
X38306819Y-70402535D03*
D13*
X40531281Y-68637239D03*
D14*
X42910863Y-72549436D03*
D13*
X47359786Y-69018843D03*
D12*
X47514907Y-74696337D03*
X241707742Y-57550231D03*
D13*
X241785303Y-54711484D03*
D14*
X246311786Y-55403330D03*
D13*
X246466907Y-49725836D03*
D12*
X250915830Y-53256429D03*
X219290016Y-54551405D03*
D13*
X219367577Y-51712658D03*
D14*
X223894060Y-52404504D03*
D13*
X224049181Y-46727010D03*
D12*
X228498104Y-50257603D03*
X200307333Y-58919048D03*
D13*
X200384894Y-56080301D03*
D14*
X204911377Y-56772147D03*
D13*
X205066498Y-51094653D03*
D12*
X209515421Y-54625246D03*
X184222965Y-69502149D03*
D13*
X184300526Y-66663402D03*
D14*
X188827009Y-67355248D03*
D13*
X188982130Y-61677754D03*
D12*
X193431053Y-65208347D03*
X168138597Y-80085251D03*
D13*
X168216158Y-77246504D03*
D14*
X172742641Y-77938350D03*
D13*
X172897762Y-72260856D03*
D12*
X177346685Y-75791449D03*
X119926842Y-75672392D03*
D13*
X122151304Y-73907096D03*
D14*
X124530886Y-77819293D03*
D13*
X128979809Y-74288700D03*
D12*
X129134930Y-79966194D03*
X103842474Y-65089290D03*
D13*
X106066936Y-63323994D03*
D14*
X108446518Y-67236191D03*
D13*
X112895441Y-63705598D03*
D12*
X113050562Y-69383092D03*
X87758106Y-54506188D03*
D13*
X89982568Y-52740892D03*
D14*
X92362150Y-56653089D03*
D13*
X96811073Y-53122496D03*
D12*
X96966194Y-58799990D03*
X68775422Y-50138545D03*
D13*
X70999884Y-48373249D03*
D14*
X73379466Y-52285446D03*
D13*
X77828389Y-48754853D03*
D12*
X77983510Y-54432347D03*
X46357697Y-53137372D03*
D13*
X48582159Y-51372076D03*
D14*
X50961741Y-55284273D03*
D13*
X55410664Y-51753680D03*
D12*
X55565785Y-57431174D03*
D15*
X147214000Y-71070000D03*
X149754000Y-71070000D03*
D16*
X145594000Y-75521000D03*
X151374000Y-75521000D03*
D17*
X144164000Y-71871000D03*
D18*
X144164000Y-76051000D03*
D17*
X152804000Y-71871000D03*
D18*
X152804000Y-76051000D03*
M02*
