G04 #@! TF.GenerationSoftware,KiCad,Pcbnew,7.0.1*
G04 #@! TF.CreationDate,2023-04-05T18:38:50-04:00*
G04 #@! TF.ProjectId,32kb,33326b62-2e6b-4696-9361-645f70636258,rev?*
G04 #@! TF.SameCoordinates,Original*
G04 #@! TF.FileFunction,Soldermask,Bot*
G04 #@! TF.FilePolarity,Negative*
%FSLAX46Y46*%
G04 Gerber Fmt 4.6, Leading zero omitted, Abs format (unit mm)*
G04 Created by KiCad (PCBNEW 7.0.1) date 2023-04-05 18:38:50*
%MOMM*%
%LPD*%
G01*
G04 APERTURE LIST*
G04 Aperture macros list*
%AMRoundRect*
0 Rectangle with rounded corners*
0 $1 Rounding radius*
0 $2 $3 $4 $5 $6 $7 $8 $9 X,Y pos of 4 corners*
0 Add a 4 corners polygon primitive as box body*
4,1,4,$2,$3,$4,$5,$6,$7,$8,$9,$2,$3,0*
0 Add four circle primitives for the rounded corners*
1,1,$1+$1,$2,$3*
1,1,$1+$1,$4,$5*
1,1,$1+$1,$6,$7*
1,1,$1+$1,$8,$9*
0 Add four rect primitives between the rounded corners*
20,1,$1+$1,$2,$3,$4,$5,0*
20,1,$1+$1,$4,$5,$6,$7,0*
20,1,$1+$1,$6,$7,$8,$9,0*
20,1,$1+$1,$8,$9,$2,$3,0*%
%AMRotRect*
0 Rectangle, with rotation*
0 The origin of the aperture is its center*
0 $1 length*
0 $2 width*
0 $3 Rotation angle, in degrees counterclockwise*
0 Add horizontal line*
21,1,$1,$2,0,0,$3*%
G04 Aperture macros list end*
%ADD10C,0.500000*%
%ADD11C,4.000000*%
%ADD12C,1.900000*%
%ADD13C,3.000000*%
%ADD14C,4.100000*%
%ADD15RotRect,2.550000X2.500000X135.000000*%
%ADD16RotRect,2.550000X2.500000X225.000000*%
%ADD17RotRect,2.550000X2.500000X205.000000*%
%ADD18RotRect,2.550000X2.500000X155.000000*%
%ADD19RoundRect,0.200000X-0.800000X0.200000X-0.800000X-0.200000X0.800000X-0.200000X0.800000X0.200000X0*%
%ADD20RoundRect,0.135000X-0.185000X0.135000X-0.185000X-0.135000X0.185000X-0.135000X0.185000X0.135000X0*%
%ADD21RoundRect,0.140000X-0.170000X0.140000X-0.170000X-0.140000X0.170000X-0.140000X0.170000X0.140000X0*%
%ADD22RoundRect,0.135000X0.185000X-0.135000X0.185000X0.135000X-0.185000X0.135000X-0.185000X-0.135000X0*%
%ADD23RoundRect,0.140000X-0.140000X-0.170000X0.140000X-0.170000X0.140000X0.170000X-0.140000X0.170000X0*%
%ADD24RotRect,0.900000X1.200000X155.000000*%
%ADD25RoundRect,0.050000X0.387500X0.050000X-0.387500X0.050000X-0.387500X-0.050000X0.387500X-0.050000X0*%
%ADD26RoundRect,0.050000X0.050000X0.387500X-0.050000X0.387500X-0.050000X-0.387500X0.050000X-0.387500X0*%
%ADD27RoundRect,0.144000X1.456000X1.456000X-1.456000X1.456000X-1.456000X-1.456000X1.456000X-1.456000X0*%
%ADD28RoundRect,0.200000X-0.200000X-0.800000X0.200000X-0.800000X0.200000X0.800000X-0.200000X0.800000X0*%
%ADD29RotRect,0.900000X1.200000X205.000000*%
%ADD30RoundRect,0.087500X0.087500X-0.175000X0.087500X0.175000X-0.087500X0.175000X-0.087500X-0.175000X0*%
%ADD31R,1.600000X1.400000*%
%ADD32RoundRect,0.147500X-0.147500X-0.172500X0.147500X-0.172500X0.147500X0.172500X-0.147500X0.172500X0*%
%ADD33RoundRect,0.135000X-0.135000X-0.185000X0.135000X-0.185000X0.135000X0.185000X-0.135000X0.185000X0*%
%ADD34RoundRect,0.243750X-0.243750X-0.456250X0.243750X-0.456250X0.243750X0.456250X-0.243750X0.456250X0*%
%ADD35RoundRect,0.135000X0.135000X0.185000X-0.135000X0.185000X-0.135000X-0.185000X0.135000X-0.185000X0*%
%ADD36RoundRect,0.147500X0.147500X0.172500X-0.147500X0.172500X-0.147500X-0.172500X0.147500X-0.172500X0*%
%ADD37RoundRect,0.140000X0.140000X0.170000X-0.140000X0.170000X-0.140000X-0.170000X0.140000X-0.170000X0*%
%ADD38R,2.000000X2.000000*%
%ADD39RoundRect,0.150000X-0.512500X-0.150000X0.512500X-0.150000X0.512500X0.150000X-0.512500X0.150000X0*%
%ADD40R,1.400000X1.200000*%
%ADD41RoundRect,0.140000X0.170000X-0.140000X0.170000X0.140000X-0.170000X0.140000X-0.170000X-0.140000X0*%
%ADD42C,0.650000*%
%ADD43R,0.600000X1.450000*%
%ADD44R,0.300000X1.450000*%
%ADD45RoundRect,0.200000X0.275000X-0.200000X0.275000X0.200000X-0.275000X0.200000X-0.275000X-0.200000X0*%
%ADD46RoundRect,0.150000X0.587500X0.150000X-0.587500X0.150000X-0.587500X-0.150000X0.587500X-0.150000X0*%
%ADD47RoundRect,0.225000X0.375000X-0.225000X0.375000X0.225000X-0.375000X0.225000X-0.375000X-0.225000X0*%
G04 APERTURE END LIST*
D10*
X150098000Y-109375000D03*
X149658000Y-110435000D03*
X149658000Y-108315000D03*
X148598000Y-110875000D03*
D11*
X148598000Y-109375000D03*
D10*
X148598000Y-107875000D03*
X147538000Y-110435000D03*
X147538000Y-108315000D03*
X147098000Y-109375000D03*
X45723000Y-105325000D03*
X45283000Y-106385000D03*
X45283000Y-104265000D03*
X44223000Y-106825000D03*
D11*
X44223000Y-105325000D03*
D10*
X44223000Y-103825000D03*
X43163000Y-106385000D03*
X43163000Y-104265000D03*
X42723000Y-105325000D03*
X257098000Y-104825000D03*
X256658000Y-105885000D03*
X256658000Y-103765000D03*
X255598000Y-106325000D03*
D11*
X255598000Y-104825000D03*
D10*
X255598000Y-103325000D03*
X254538000Y-105885000D03*
X254538000Y-103765000D03*
X254098000Y-104825000D03*
X63723000Y-45425000D03*
X63283000Y-46485000D03*
X63283000Y-44365000D03*
X62223000Y-46925000D03*
D11*
X62223000Y-45425000D03*
D10*
X62223000Y-43925000D03*
X61163000Y-46485000D03*
X61163000Y-44365000D03*
X60723000Y-45425000D03*
X236898000Y-45575000D03*
X236458000Y-46635000D03*
X236458000Y-44515000D03*
X235398000Y-47075000D03*
D11*
X235398000Y-45575000D03*
D10*
X235398000Y-44075000D03*
X234338000Y-46635000D03*
X234338000Y-44515000D03*
X233898000Y-45575000D03*
X178623000Y-65600000D03*
X178183000Y-66660000D03*
X178183000Y-64540000D03*
X177123000Y-67100000D03*
D11*
X177123000Y-65600000D03*
D10*
X177123000Y-64100000D03*
X176063000Y-66660000D03*
X176063000Y-64540000D03*
X175623000Y-65600000D03*
X121363000Y-65840000D03*
X120923000Y-66900000D03*
X120923000Y-64780000D03*
X119863000Y-67340000D03*
D11*
X119863000Y-65840000D03*
D10*
X119863000Y-64340000D03*
X118803000Y-66900000D03*
X118803000Y-64780000D03*
X118363000Y-65840000D03*
X105798000Y-147225000D03*
X105358000Y-148285000D03*
X105358000Y-146165000D03*
X104298000Y-148725000D03*
D11*
X104298000Y-147225000D03*
D10*
X104298000Y-145725000D03*
X103238000Y-148285000D03*
X103238000Y-146165000D03*
X102798000Y-147225000D03*
D11*
X192198000Y-146700000D03*
D10*
X190698000Y-146700000D03*
X193698000Y-146700000D03*
X192198000Y-148200000D03*
X192198000Y-145200000D03*
X191138000Y-147760000D03*
X193258000Y-147760000D03*
X193258000Y-145640000D03*
X191138000Y-145640000D03*
D12*
X196523523Y-133047804D03*
D13*
X199217599Y-132149778D03*
D14*
X200115625Y-136639906D03*
D13*
X205503779Y-134843855D03*
D12*
X203707727Y-140232008D03*
D15*
X196901825Y-129834003D03*
X207838645Y-137178721D03*
D12*
X93458454Y-140343152D03*
D13*
X92560428Y-137649076D03*
D14*
X97050556Y-136751050D03*
D13*
X95254505Y-131362896D03*
D12*
X100642658Y-133158948D03*
D16*
X90244653Y-139964850D03*
X97589371Y-129028030D03*
D12*
X257809497Y-92080558D03*
D13*
X257887058Y-89241811D03*
D14*
X262413541Y-89933657D03*
D13*
X262568662Y-84256163D03*
D12*
X267017585Y-87786756D03*
D17*
X254918900Y-90625886D03*
X265561290Y-82860678D03*
D12*
X235391772Y-89081731D03*
D13*
X235469333Y-86242984D03*
D14*
X239995816Y-86934830D03*
D13*
X240150937Y-81257336D03*
D12*
X244599860Y-84787929D03*
D17*
X232501175Y-87627059D03*
X243143565Y-79861851D03*
D12*
X216409088Y-93449374D03*
D13*
X216486649Y-90610627D03*
D14*
X221013132Y-91302473D03*
D13*
X221168253Y-85624979D03*
D12*
X225617176Y-89155572D03*
D17*
X213518491Y-91994702D03*
X224160881Y-84229494D03*
D12*
X200324720Y-104032476D03*
D13*
X200402281Y-101193729D03*
D14*
X204928764Y-101885575D03*
D13*
X205083885Y-96208081D03*
D12*
X209532808Y-99738674D03*
D17*
X197434123Y-102577804D03*
X208076513Y-94812596D03*
D12*
X184240352Y-114615578D03*
D13*
X184317913Y-111776831D03*
D14*
X188844396Y-112468677D03*
D13*
X188999517Y-106791183D03*
D12*
X193448440Y-110321776D03*
D17*
X181349755Y-113160906D03*
X191992145Y-105395698D03*
D12*
X103825086Y-110202718D03*
D13*
X106049548Y-108437422D03*
D14*
X108429130Y-112349619D03*
D13*
X112878053Y-108819026D03*
D12*
X113033174Y-114496520D03*
D18*
X103081390Y-107053347D03*
X115870681Y-110214511D03*
D12*
X87740718Y-99619616D03*
D13*
X89965180Y-97854320D03*
D14*
X92344762Y-101766517D03*
D13*
X96793685Y-98235924D03*
D12*
X96948806Y-103913418D03*
D18*
X86997022Y-96470245D03*
X99786313Y-99631409D03*
D12*
X71656350Y-89036515D03*
D13*
X73880812Y-87271219D03*
D14*
X76260394Y-91183416D03*
D13*
X80709317Y-87652823D03*
D12*
X80864438Y-93330317D03*
D18*
X70912654Y-85887144D03*
X83701945Y-89048308D03*
D12*
X52673666Y-84668872D03*
D13*
X54898128Y-82903576D03*
D14*
X57277710Y-86815773D03*
D13*
X61726633Y-83285180D03*
D12*
X61881754Y-88962674D03*
D18*
X51929970Y-81519501D03*
X64719261Y-84680665D03*
D12*
X30255941Y-87667698D03*
D13*
X32480403Y-85902402D03*
D14*
X34859985Y-89814599D03*
D13*
X39308908Y-86284006D03*
D12*
X39464029Y-91961500D03*
D18*
X29512245Y-84518327D03*
X42301536Y-87679491D03*
D12*
X249758620Y-74815395D03*
D13*
X249836181Y-71976648D03*
D14*
X254362664Y-72668494D03*
D13*
X254517785Y-66991000D03*
D12*
X258966708Y-70521593D03*
D17*
X246868023Y-73360723D03*
X257510413Y-65595515D03*
D12*
X227340894Y-71816568D03*
D13*
X227418455Y-68977821D03*
D14*
X231944938Y-69669667D03*
D13*
X232100059Y-63992173D03*
D12*
X236548982Y-67522766D03*
D17*
X224450297Y-70361896D03*
X235092687Y-62596688D03*
D12*
X208358210Y-76184211D03*
D13*
X208435771Y-73345464D03*
D14*
X212962254Y-74037310D03*
D13*
X213117375Y-68359816D03*
D12*
X217566298Y-71890409D03*
D17*
X205467613Y-74729539D03*
X216110003Y-66964331D03*
D12*
X192273842Y-86767313D03*
D13*
X192351403Y-83928566D03*
D14*
X196877886Y-84620412D03*
D13*
X197033007Y-78942918D03*
D12*
X201481930Y-82473511D03*
D17*
X189383245Y-85312641D03*
X200025635Y-77547433D03*
D12*
X176189475Y-97350415D03*
D13*
X176267036Y-94511668D03*
D14*
X180793519Y-95203514D03*
D13*
X180948640Y-89526020D03*
D12*
X185397563Y-93056613D03*
D17*
X173298878Y-95895743D03*
X183941268Y-88130535D03*
D12*
X111875964Y-92937555D03*
D13*
X114100426Y-91172259D03*
D14*
X116480008Y-95084456D03*
D13*
X120928931Y-91553863D03*
D12*
X121084052Y-97231357D03*
D18*
X111132268Y-89788184D03*
X123921559Y-92949348D03*
D12*
X95791596Y-82354453D03*
D13*
X98016058Y-80589157D03*
D14*
X100395640Y-84501354D03*
D13*
X104844563Y-80970761D03*
D12*
X104999684Y-86648255D03*
D18*
X95047900Y-79205082D03*
X107837191Y-82366246D03*
D12*
X79707228Y-71771351D03*
D13*
X81931690Y-70006055D03*
D14*
X84311272Y-73918252D03*
D13*
X88760195Y-70387659D03*
D12*
X88915316Y-76065153D03*
D18*
X78963532Y-68621980D03*
X91752823Y-71783144D03*
D12*
X60724544Y-67403708D03*
D13*
X62949006Y-65638412D03*
D14*
X65328588Y-69550609D03*
D13*
X69777511Y-66020016D03*
D12*
X69932632Y-71697510D03*
D18*
X59980848Y-64254337D03*
X72770139Y-67415501D03*
D12*
X38306819Y-70402535D03*
D13*
X40531281Y-68637239D03*
D14*
X42910863Y-72549436D03*
D13*
X47359786Y-69018843D03*
D12*
X47514907Y-74696337D03*
D18*
X37563123Y-67253164D03*
X50352414Y-70414328D03*
D12*
X241707742Y-57550231D03*
D13*
X241785303Y-54711484D03*
D14*
X246311786Y-55403330D03*
D13*
X246466907Y-49725836D03*
D12*
X250915830Y-53256429D03*
D17*
X238817145Y-56095559D03*
X249459535Y-48330351D03*
D12*
X219290016Y-54551405D03*
D13*
X219367577Y-51712658D03*
D14*
X223894060Y-52404504D03*
D13*
X224049181Y-46727010D03*
D12*
X228498104Y-50257603D03*
D17*
X216399419Y-53096733D03*
X227041809Y-45331525D03*
D12*
X200307333Y-58919048D03*
D13*
X200384894Y-56080301D03*
D14*
X204911377Y-56772147D03*
D13*
X205066498Y-51094653D03*
D12*
X209515421Y-54625246D03*
D17*
X197416736Y-57464376D03*
X208059126Y-49699168D03*
D12*
X184222965Y-69502149D03*
D13*
X184300526Y-66663402D03*
D14*
X188827009Y-67355248D03*
D13*
X188982130Y-61677754D03*
D12*
X193431053Y-65208347D03*
D17*
X181332368Y-68047477D03*
X191974758Y-60282269D03*
D12*
X168138597Y-80085251D03*
D13*
X168216158Y-77246504D03*
D14*
X172742641Y-77938350D03*
D13*
X172897762Y-72260856D03*
D12*
X177346685Y-75791449D03*
D17*
X165248000Y-78630579D03*
X175890390Y-70865371D03*
D12*
X119926842Y-75672392D03*
D13*
X122151304Y-73907096D03*
D14*
X124530886Y-77819293D03*
D13*
X128979809Y-74288700D03*
D12*
X129134930Y-79966194D03*
D18*
X119183146Y-72523021D03*
X131972437Y-75684185D03*
D12*
X103842474Y-65089290D03*
D13*
X106066936Y-63323994D03*
D14*
X108446518Y-67236191D03*
D13*
X112895441Y-63705598D03*
D12*
X113050562Y-69383092D03*
D18*
X103098778Y-61939919D03*
X115888069Y-65101083D03*
D12*
X87758106Y-54506188D03*
D13*
X89982568Y-52740892D03*
D14*
X92362150Y-56653089D03*
D13*
X96811073Y-53122496D03*
D12*
X96966194Y-58799990D03*
D18*
X87014410Y-51356817D03*
X99803701Y-54517981D03*
D12*
X68775422Y-50138545D03*
D13*
X70999884Y-48373249D03*
D14*
X73379466Y-52285446D03*
D13*
X77828389Y-48754853D03*
D12*
X77983510Y-54432347D03*
D18*
X68031726Y-46989174D03*
X80821017Y-50150338D03*
D12*
X46357697Y-53137372D03*
D13*
X48582159Y-51372076D03*
D14*
X50961741Y-55284273D03*
D13*
X55410664Y-51753680D03*
D12*
X55565785Y-57431174D03*
D18*
X45614001Y-49988001D03*
X58403292Y-53149165D03*
D19*
X157374000Y-93862000D03*
X157374000Y-98062000D03*
D20*
X154323000Y-89515000D03*
X154323000Y-90535000D03*
D21*
X143150000Y-100816000D03*
X143150000Y-101776000D03*
D20*
X148992000Y-88342000D03*
X148992000Y-89362000D03*
D22*
X147214000Y-82248000D03*
X147214000Y-81228000D03*
D23*
X150036000Y-88342000D03*
X150996000Y-88342000D03*
D22*
X136800000Y-93170000D03*
X136800000Y-92150000D03*
D24*
X88709955Y-85217905D03*
X85719139Y-83823265D03*
D23*
X150798000Y-102566000D03*
X151758000Y-102566000D03*
D25*
X152299500Y-92735500D03*
X152299500Y-93135500D03*
X152299500Y-93535500D03*
X152299500Y-93935500D03*
X152299500Y-94335500D03*
X152299500Y-94735500D03*
X152299500Y-95135500D03*
X152299500Y-95535500D03*
X152299500Y-95935500D03*
X152299500Y-96335500D03*
X152299500Y-96735500D03*
X152299500Y-97135500D03*
X152299500Y-97535500D03*
X152299500Y-97935500D03*
D26*
X151462000Y-98773000D03*
X151062000Y-98773000D03*
X150662000Y-98773000D03*
X150262000Y-98773000D03*
X149862000Y-98773000D03*
X149462000Y-98773000D03*
X149062000Y-98773000D03*
X148662000Y-98773000D03*
X148262000Y-98773000D03*
X147862000Y-98773000D03*
X147462000Y-98773000D03*
X147062000Y-98773000D03*
X146662000Y-98773000D03*
X146262000Y-98773000D03*
D25*
X145424500Y-97935500D03*
X145424500Y-97535500D03*
X145424500Y-97135500D03*
X145424500Y-96735500D03*
X145424500Y-96335500D03*
X145424500Y-95935500D03*
X145424500Y-95535500D03*
X145424500Y-95135500D03*
X145424500Y-94735500D03*
X145424500Y-94335500D03*
X145424500Y-93935500D03*
X145424500Y-93535500D03*
X145424500Y-93135500D03*
X145424500Y-92735500D03*
D26*
X146262000Y-91898000D03*
X146662000Y-91898000D03*
X147062000Y-91898000D03*
X147462000Y-91898000D03*
X147862000Y-91898000D03*
X148262000Y-91898000D03*
X148662000Y-91898000D03*
X149062000Y-91898000D03*
X149462000Y-91898000D03*
X149862000Y-91898000D03*
X150262000Y-91898000D03*
X150662000Y-91898000D03*
X151062000Y-91898000D03*
X151462000Y-91898000D03*
D27*
X148862000Y-95335500D03*
D24*
X96760833Y-67952742D03*
X93770017Y-66558102D03*
D22*
X135784000Y-99774000D03*
X135784000Y-98754000D03*
D21*
X148230000Y-101324000D03*
X148230000Y-102284000D03*
D28*
X139780000Y-104598000D03*
X143980000Y-104598000D03*
D20*
X157882000Y-91134000D03*
X157882000Y-92154000D03*
D29*
X187436530Y-122373690D03*
X184445714Y-123768330D03*
D23*
X142190000Y-89866000D03*
X143150000Y-89866000D03*
D24*
X96743445Y-113066170D03*
X93752629Y-111671530D03*
D29*
X222486194Y-62309517D03*
X219495378Y-63704157D03*
X187419142Y-77260261D03*
X184428326Y-78654901D03*
D30*
X155076000Y-84041500D03*
X154576000Y-84041500D03*
X154076000Y-84041500D03*
X153576000Y-84041500D03*
X153576000Y-81466500D03*
X154076000Y-81466500D03*
X154576000Y-81466500D03*
X155076000Y-81466500D03*
D31*
X154326000Y-82754000D03*
D24*
X125938752Y-87724306D03*
X128929568Y-89118946D03*
D32*
X137077000Y-95454000D03*
X138047000Y-95454000D03*
D33*
X142130000Y-94438000D03*
X143150000Y-94438000D03*
D21*
X144420000Y-100816000D03*
X144420000Y-101776000D03*
D34*
X135608500Y-101296000D03*
X137483500Y-101296000D03*
D35*
X143660000Y-88342000D03*
X142640000Y-88342000D03*
D36*
X139063000Y-94184000D03*
X138093000Y-94184000D03*
D21*
X145436000Y-100816000D03*
X145436000Y-101776000D03*
D24*
X112845201Y-78535844D03*
X109854385Y-77141204D03*
D37*
X153762000Y-102566000D03*
X152802000Y-102566000D03*
D38*
X157628000Y-101550000D03*
D24*
X80659077Y-102483069D03*
X77668261Y-101088429D03*
D29*
X198407434Y-124264323D03*
X195416618Y-125658963D03*
D24*
X69727271Y-80850262D03*
X66736455Y-79455622D03*
D29*
X219605266Y-101207486D03*
X216614450Y-102602126D03*
D24*
X39258668Y-101114252D03*
X36267852Y-99719612D03*
D22*
X150516000Y-84786000D03*
X150516000Y-83766000D03*
D37*
X146904000Y-90120000D03*
X145944000Y-90120000D03*
D39*
X138832000Y-98756000D03*
X138832000Y-97806000D03*
X138832000Y-96856000D03*
X141107000Y-96856000D03*
X141107000Y-98756000D03*
D24*
X120878691Y-106384109D03*
X117887875Y-104989469D03*
D33*
X150768000Y-101550000D03*
X151788000Y-101550000D03*
D29*
X261005675Y-99838670D03*
X258014859Y-101233310D03*
X171334774Y-87843363D03*
X168343958Y-89238003D03*
D40*
X153394000Y-105702000D03*
X151194000Y-105702000D03*
X151194000Y-104002000D03*
X153394000Y-104002000D03*
D24*
X55360423Y-66583926D03*
X52369607Y-65189286D03*
D41*
X145690000Y-89076000D03*
X145690000Y-88116000D03*
X144674000Y-81202000D03*
X144674000Y-80242000D03*
D29*
X238587950Y-96839843D03*
X235597134Y-98234483D03*
D20*
X151024000Y-79450000D03*
X151024000Y-80470000D03*
D42*
X145594000Y-75521000D03*
X151374000Y-75521000D03*
D43*
X145259000Y-76966000D03*
X146034000Y-76966000D03*
D44*
X146734000Y-76966000D03*
X147234000Y-76966000D03*
X147734000Y-76966000D03*
X148234000Y-76966000D03*
X148734000Y-76966000D03*
X149234000Y-76966000D03*
X149734000Y-76966000D03*
X150234000Y-76966000D03*
D43*
X150934000Y-76966000D03*
X151709000Y-76966000D03*
D45*
X143658000Y-99581000D03*
X143658000Y-97931000D03*
D29*
X211554388Y-83942323D03*
X208563572Y-85336963D03*
D37*
X143094000Y-90882000D03*
X142134000Y-90882000D03*
D24*
X103130776Y-126414178D03*
X100139960Y-125019538D03*
X47309546Y-83849089D03*
X44318730Y-82454449D03*
D37*
X144138000Y-91898000D03*
X143178000Y-91898000D03*
D24*
X104794323Y-95801007D03*
X101803507Y-94406367D03*
D21*
X137054000Y-96752000D03*
X137054000Y-97712000D03*
D24*
X61676393Y-98115426D03*
X58685577Y-96720786D03*
D29*
X230537072Y-79574680D03*
X227546256Y-80969320D03*
D20*
X137054000Y-98756000D03*
X137054000Y-99776000D03*
D24*
X112827813Y-123649272D03*
X109836997Y-122254632D03*
D20*
X143658000Y-80214000D03*
X143658000Y-81234000D03*
D29*
X195470020Y-94525425D03*
X192479204Y-95920065D03*
X203503510Y-66677160D03*
X200512694Y-68071800D03*
X179385652Y-105108527D03*
X176394836Y-106503167D03*
D46*
X140356000Y-90882000D03*
X140356000Y-92782000D03*
X138481000Y-91832000D03*
D29*
X252954797Y-82573507D03*
X249963981Y-83968147D03*
D41*
X144674000Y-90346000D03*
X144674000Y-89386000D03*
D20*
X151024000Y-81484000D03*
X151024000Y-82504000D03*
D23*
X142670000Y-87326000D03*
X143630000Y-87326000D03*
D29*
X244903919Y-65308343D03*
X241913103Y-66702983D03*
D21*
X154580000Y-96498000D03*
X154580000Y-97458000D03*
D24*
X77778149Y-63585099D03*
X74787333Y-62190459D03*
D21*
X154580000Y-93450000D03*
X154580000Y-94410000D03*
D47*
X155850000Y-76276000D03*
X155850000Y-72976000D03*
D29*
X203520898Y-111790588D03*
X200530082Y-113185228D03*
D20*
X147976000Y-88086000D03*
X147976000Y-89106000D03*
D37*
X143630000Y-96470000D03*
X142670000Y-96470000D03*
M02*
