M48
; DRILL file {KiCad 7.0.1} date Wed Apr  5 18:38:51 2023
; FORMAT={-:-/ absolute / metric / decimal}
; #@! TF.CreationDate,2023-04-05T18:38:51-04:00
; #@! TF.GenerationSoftware,Kicad,Pcbnew,7.0.1
; #@! TF.FileFunction,Plated,1,2,PTH
FMAT,2
METRIC
; #@! TA.AperFunction,Plated,PTH,ViaDrill
T1C0.200
; #@! TA.AperFunction,Plated,PTH,ViaDrill
T2C0.350
; #@! TA.AperFunction,Plated,PTH,ComponentDrill
T3C0.350
; #@! TA.AperFunction,Plated,PTH,ViaDrill
T4C0.400
; #@! TA.AperFunction,Plated,PTH,ComponentDrill
T5C0.400
; #@! TA.AperFunction,Plated,PTH,ComponentDrill
T6C0.600
; #@! TA.AperFunction,Plated,PTH,ComponentDrill
T7C2.300
%
G90
G05
T1
X56.282Y-70.308
X58.355Y-92.064
X58.568Y-94.692
X76.094Y-68.276
X94.735Y-71.987
X103.272Y-124.664
X109.876Y-106.376
X109.916Y-79.238
X115.21Y-102.566
X120.036Y-99.772
X127.656Y-86.249
X135.022Y-98.756
X136.292Y-97.486
X136.546Y-110.694
X137.054Y-113.488
X138.07Y-99.772
X138.832Y-92.914
X139.086Y-100.134
X139.594Y-94.946
X139.648Y-99.364
X139.964Y-97.292
X140.356Y-88.85
X140.356Y-95.454
X140.864Y-89.866
X140.864Y-93.93
X141.118Y-97.74
X141.871Y-91.39
X141.88Y-89.104
X142.134Y-96.035
X142.642Y-92.152
X142.642Y-93.422
X143.073Y-78.7
X143.912Y-82.246
X144.674Y-78.944
X144.674Y-88.342
X144.674Y-98.756
X144.928Y-87.326
X144.928Y-99.772
X145.806Y-100.026
X146.357Y-92.736
X146.413Y-95.917
X146.452Y-100.534
X146.948Y-85.75
X147.214Y-85.04
X147.722Y-75.896
X147.722Y-100.534
X148.383Y-90.882
X148.484Y-92.668
X149.198Y-103.625
X149.234Y-75.908
X149.892Y-89.242
X150.392Y-87.072
X150.461Y-100.118
X150.516Y-85.548
X151.177Y-100.127
X151.278Y-87.326
X151.278Y-97.486
X151.365Y-84.786
X151.536Y-92.734
X152.278Y-100.296
X152.352Y-77.478
X152.548Y-98.756
X153.31Y-93.235
X153.564Y-84.786
X153.73Y-93.942
X153.792Y-97.429
X153.87Y-96.835
X154.576Y-88.85
X154.58Y-98.756
X154.834Y-80.214
X154.895Y-98.425
X154.951Y-94.091
X155.088Y-91.136
X155.596Y-89.358
X156.104Y-87.326
X156.104Y-92.406
X156.198Y-97.45
X156.245Y-95.055
X156.612Y-91.136
X157.628Y-77.674
X158.136Y-95.454
X159.152Y-93.168
X159.364Y-94.184
X159.364Y-94.946
X159.364Y-103.582
X160.463Y-94.184
X160.463Y-102.82
X160.93Y-93.168
X174.9Y-69.292
X179.98Y-103.319
X186.076Y-105.868
X189.886Y-118.314
X196.236Y-122.124
X199.03Y-75.642
X220.485Y-75.015
X241.194Y-78.436
X264.421Y-79.085
T2
X145.944Y-78.182
X150.934Y-78.436
T3
X147.587Y-94.06
X147.587Y-95.335
X147.587Y-96.611
X148.862Y-94.06
X148.862Y-95.335
X148.862Y-96.611
X150.137Y-94.06
X150.137Y-95.335
X150.137Y-96.611
T4
X74.019Y-64.354
X76.698Y-65.604
X84.867Y-85.948
X87.86Y-87.344
X95.895Y-69.511
X105.432Y-94.136
X110.893Y-120.505
X113.498Y-77.439
X113.803Y-121.862
X121.409Y-104.95
X130.303Y-85.275
X181.433Y-83.135
X188.716Y-79.738
X189.4Y-100.439
X196.23Y-95.853
X202.134Y-108.514
X204.248Y-68.572
X212.192Y-85.607
X218.632Y-99.419
X221.743Y-60.414
X229.917Y-77.341
X237.416Y-94.023
X244.054Y-63.182
X252.427Y-81.138
X260.263Y-97.943
T5
X42.723Y-105.325
X43.163Y-104.265
X43.163Y-106.385
X44.223Y-103.825
X44.223Y-106.825
X45.283Y-104.265
X45.283Y-106.385
X45.723Y-105.325
X60.723Y-45.425
X61.163Y-44.365
X61.163Y-46.485
X62.223Y-43.925
X62.223Y-46.925
X63.283Y-44.365
X63.283Y-46.485
X63.723Y-45.425
X102.798Y-147.225
X103.238Y-146.165
X103.238Y-148.285
X104.298Y-145.725
X104.298Y-148.725
X105.358Y-146.165
X105.358Y-148.285
X105.798Y-147.225
X118.363Y-65.84
X118.803Y-64.78
X118.803Y-66.9
X119.863Y-64.34
X119.863Y-67.34
X120.923Y-64.78
X120.923Y-66.9
X121.363Y-65.84
X147.098Y-109.375
X147.538Y-108.315
X147.538Y-110.435
X148.598Y-107.875
X148.598Y-110.875
X149.658Y-108.315
X149.658Y-110.435
X150.098Y-109.375
X175.623Y-65.6
X176.063Y-64.54
X176.063Y-66.66
X177.123Y-64.1
X177.123Y-67.1
X178.183Y-64.54
X178.183Y-66.66
X178.623Y-65.6
X190.698Y-146.7
X191.138Y-145.64
X191.138Y-147.76
X192.198Y-145.2
X192.198Y-148.2
X193.258Y-145.64
X193.258Y-147.76
X193.698Y-146.7
X233.898Y-45.575
X234.338Y-44.515
X234.338Y-46.635
X235.398Y-44.075
X235.398Y-47.075
X236.458Y-44.515
X236.458Y-46.635
X236.898Y-45.575
X254.098Y-104.825
X254.538Y-103.765
X254.538Y-105.885
X255.598Y-103.325
X255.598Y-106.325
X256.658Y-103.765
X256.658Y-105.885
X257.098Y-104.825
T7
X44.223Y-105.325
X62.223Y-45.425
X104.298Y-147.225
X119.863Y-65.84
X148.598Y-109.375
X177.123Y-65.6
X192.198Y-146.7
X235.398Y-45.575
X255.598Y-104.825
T6
X144.164Y-71.571G85X144.164Y-72.171
G05
X144.164Y-75.501G85X144.164Y-76.601
G05
X152.804Y-71.571G85X152.804Y-72.171
G05
X152.804Y-75.501G85X152.804Y-76.601
G05
T0
M30
