  0
SECTION
  2
HEADER
  9
$ANGBASE
  50
0.0
  9
$ANGDIR
  70
1
  9
$MEASUREMENT
  70
1
  0
ENDSEC
  0
SECTION
  2
TABLES
  0
TABLE
  2
LTYPE
  70
4
  0
LTYPE
  5
40F
  2
CONTINUOUS
  70
0
  3
Solid line
  72
65
  73
0
  40
0.0
  0
LTYPE
  5
410
  2
DASHDOT
 70
0
  3
Dash Dot ____ _ ____ _
 72
65
 73
4
 40
2.0
 49
1.25
 49
-0.25
 49
0.25
 49
-0.25
  0
LTYPE
  5
411
  2
DASHED
 70
0
  3
Dashed __ __ __ __ __
 72
65
 73
2
 40
0.75
 49
0.5
 49
-0.25
  0
LTYPE
  5
43B
  2
DOTTED
 70
0
  3
Dotted .  .  .  .
 72
65
 73
2
 40
0.2
 49
0.0
 49
-0.2
  0
ENDTAB
  0
TABLE
  2
STYLE
  70
4
  0
STYLE
  2
KICAD
  70
0
  40
0
  41
1
  42
1
  50
0
  71
0
  3
isocp.shx
  0
STYLE
  2
KICADB
  70
0
  40
0
  41
1
  42
1
  50
0
  71
0
  3
isocp.shx
  0
STYLE
  2
KICADI
  70
0
  40
0
  41
1
  42
1
  50
15
  71
0
  3
isocp.shx
  0
STYLE
  2
KICADBI
  70
0
  40
0
  41
1
  42
1
  50
15
  71
0
  3
isocp.shx
  0
ENDTAB
  0
TABLE
  2
LAYER
  70
1
  0
LAYER
  2
BLACK
  70
0
  62
7
  6
CONTINUOUS
  0
ENDTAB
  0
ENDSEC
  0
SECTION
  2
ENTITIES
0
LINE
8
BLACK
6
CONTINUOUS
10
101.84
20
-147.175
11
101.86
21
-146.861
0
LINE
8
BLACK
6
CONTINUOUS
10
101.86
20
-146.861
11
101.919
21
-146.551
0
LINE
8
BLACK
6
CONTINUOUS
10
101.919
20
-146.551
11
102.016
21
-146.252
0
LINE
8
BLACK
6
CONTINUOUS
10
102.016
20
-146.252
11
102.15
21
-145.967
0
LINE
8
BLACK
6
CONTINUOUS
10
102.15
20
-145.967
11
102.319
21
-145.701
0
LINE
8
BLACK
6
CONTINUOUS
10
102.319
20
-145.701
11
102.52
21
-145.458
0
LINE
8
BLACK
6
CONTINUOUS
10
102.52
20
-145.458
11
102.75
21
-145.243
0
LINE
8
BLACK
6
CONTINUOUS
10
102.75
20
-145.243
11
103.004
21
-145.058
0
LINE
8
BLACK
6
CONTINUOUS
10
103.004
20
-145.058
11
103.28
21
-144.906
0
LINE
8
BLACK
6
CONTINUOUS
10
103.28
20
-144.906
11
103.573
21
-144.79
0
LINE
8
BLACK
6
CONTINUOUS
10
103.573
20
-144.79
11
103.878
21
-144.712
0
LINE
8
BLACK
6
CONTINUOUS
10
103.878
20
-144.712
11
104.191
21
-144.672
0
LINE
8
BLACK
6
CONTINUOUS
10
104.191
20
-144.672
11
104.505
21
-144.672
0
LINE
8
BLACK
6
CONTINUOUS
10
104.505
20
-144.672
11
104.818
21
-144.712
0
LINE
8
BLACK
6
CONTINUOUS
10
104.818
20
-144.712
11
105.123
21
-144.79
0
LINE
8
BLACK
6
CONTINUOUS
10
105.123
20
-144.79
11
105.416
21
-144.906
0
LINE
8
BLACK
6
CONTINUOUS
10
105.416
20
-144.906
11
105.692
21
-145.058
0
LINE
8
BLACK
6
CONTINUOUS
10
105.692
20
-145.058
11
105.946
21
-145.243
0
LINE
8
BLACK
6
CONTINUOUS
10
105.946
20
-145.243
11
106.176
21
-145.458
0
LINE
8
BLACK
6
CONTINUOUS
10
106.176
20
-145.458
11
106.377
21
-145.701
0
LINE
8
BLACK
6
CONTINUOUS
10
106.377
20
-145.701
11
106.546
21
-145.967
0
LINE
8
BLACK
6
CONTINUOUS
10
106.546
20
-145.967
11
106.68
21
-146.252
0
LINE
8
BLACK
6
CONTINUOUS
10
106.68
20
-146.252
11
106.777
21
-146.551
0
LINE
8
BLACK
6
CONTINUOUS
10
106.777
20
-146.551
11
106.836
21
-146.861
0
LINE
8
BLACK
6
CONTINUOUS
10
106.836
20
-146.861
11
106.856
21
-147.175
0
LINE
8
BLACK
6
CONTINUOUS
10
106.856
20
-147.175
11
106.836
21
-147.489
0
LINE
8
BLACK
6
CONTINUOUS
10
106.836
20
-147.489
11
106.777
21
-147.799
0
LINE
8
BLACK
6
CONTINUOUS
10
106.777
20
-147.799
11
106.68
21
-148.098
0
LINE
8
BLACK
6
CONTINUOUS
10
106.68
20
-148.098
11
106.546
21
-148.383
0
LINE
8
BLACK
6
CONTINUOUS
10
106.546
20
-148.383
11
106.377
21
-148.649
0
LINE
8
BLACK
6
CONTINUOUS
10
106.377
20
-148.649
11
106.176
21
-148.892
0
LINE
8
BLACK
6
CONTINUOUS
10
106.176
20
-148.892
11
105.946
21
-149.107
0
LINE
8
BLACK
6
CONTINUOUS
10
105.946
20
-149.107
11
105.692
21
-149.292
0
LINE
8
BLACK
6
CONTINUOUS
10
105.692
20
-149.292
11
105.416
21
-149.444
0
LINE
8
BLACK
6
CONTINUOUS
10
105.416
20
-149.444
11
105.123
21
-149.56
0
LINE
8
BLACK
6
CONTINUOUS
10
105.123
20
-149.56
11
104.818
21
-149.638
0
LINE
8
BLACK
6
CONTINUOUS
10
104.818
20
-149.638
11
104.505
21
-149.678
0
LINE
8
BLACK
6
CONTINUOUS
10
104.505
20
-149.678
11
104.191
21
-149.678
0
LINE
8
BLACK
6
CONTINUOUS
10
104.191
20
-149.678
11
103.878
21
-149.638
0
LINE
8
BLACK
6
CONTINUOUS
10
103.878
20
-149.638
11
103.573
21
-149.56
0
LINE
8
BLACK
6
CONTINUOUS
10
103.573
20
-149.56
11
103.28
21
-149.444
0
LINE
8
BLACK
6
CONTINUOUS
10
103.28
20
-149.444
11
103.004
21
-149.292
0
LINE
8
BLACK
6
CONTINUOUS
10
103.004
20
-149.292
11
102.75
21
-149.107
0
LINE
8
BLACK
6
CONTINUOUS
10
102.75
20
-149.107
11
102.52
21
-148.892
0
LINE
8
BLACK
6
CONTINUOUS
10
102.52
20
-148.892
11
102.319
21
-148.649
0
LINE
8
BLACK
6
CONTINUOUS
10
102.319
20
-148.649
11
102.15
21
-148.383
0
LINE
8
BLACK
6
CONTINUOUS
10
102.15
20
-148.383
11
102.016
21
-148.098
0
LINE
8
BLACK
6
CONTINUOUS
10
102.016
20
-148.098
11
101.919
21
-147.799
0
LINE
8
BLACK
6
CONTINUOUS
10
101.919
20
-147.799
11
101.86
21
-147.489
0
LINE
8
BLACK
6
CONTINUOUS
10
101.86
20
-147.489
11
101.84
21
-147.175
0
LINE
8
BLACK
6
CONTINUOUS
10
101.985
20
-147.175
11
102.005
21
-147.483
0
LINE
8
BLACK
6
CONTINUOUS
10
102.005
20
-147.483
11
102.066
21
-147.787
0
LINE
8
BLACK
6
CONTINUOUS
10
102.066
20
-147.787
11
102.165
21
-148.079
0
LINE
8
BLACK
6
CONTINUOUS
10
102.165
20
-148.079
11
102.302
21
-148.356
0
LINE
8
BLACK
6
CONTINUOUS
10
102.302
20
-148.356
11
102.473
21
-148.613
0
LINE
8
BLACK
6
CONTINUOUS
10
102.473
20
-148.613
11
102.677
21
-148.846
0
LINE
8
BLACK
6
CONTINUOUS
10
102.677
20
-148.846
11
102.91
21
-149.05
0
LINE
8
BLACK
6
CONTINUOUS
10
102.91
20
-149.05
11
103.167
21
-149.221
0
LINE
8
BLACK
6
CONTINUOUS
10
103.167
20
-149.221
11
103.444
21
-149.358
0
LINE
8
BLACK
6
CONTINUOUS
10
103.444
20
-149.358
11
103.736
21
-149.457
0
LINE
8
BLACK
6
CONTINUOUS
10
103.736
20
-149.457
11
104.04
21
-149.518
0
LINE
8
BLACK
6
CONTINUOUS
10
104.04
20
-149.518
11
104.348
21
-149.538
0
LINE
8
BLACK
6
CONTINUOUS
10
104.348
20
-149.538
11
104.656
21
-149.518
0
LINE
8
BLACK
6
CONTINUOUS
10
104.656
20
-149.518
11
104.96
21
-149.457
0
LINE
8
BLACK
6
CONTINUOUS
10
104.96
20
-149.457
11
105.252
21
-149.358
0
LINE
8
BLACK
6
CONTINUOUS
10
105.252
20
-149.358
11
105.529
21
-149.221
0
LINE
8
BLACK
6
CONTINUOUS
10
105.529
20
-149.221
11
105.786
21
-149.05
0
LINE
8
BLACK
6
CONTINUOUS
10
105.786
20
-149.05
11
106.019
21
-148.846
0
LINE
8
BLACK
6
CONTINUOUS
10
106.019
20
-148.846
11
106.223
21
-148.613
0
LINE
8
BLACK
6
CONTINUOUS
10
106.223
20
-148.613
11
106.394
21
-148.356
0
LINE
8
BLACK
6
CONTINUOUS
10
106.394
20
-148.356
11
106.531
21
-148.079
0
LINE
8
BLACK
6
CONTINUOUS
10
106.531
20
-148.079
11
106.63
21
-147.787
0
LINE
8
BLACK
6
CONTINUOUS
10
106.63
20
-147.787
11
106.691
21
-147.483
0
LINE
8
BLACK
6
CONTINUOUS
10
106.691
20
-147.483
11
106.711
21
-147.175
0
LINE
8
BLACK
6
CONTINUOUS
10
106.711
20
-147.175
11
106.691
21
-146.867
0
LINE
8
BLACK
6
CONTINUOUS
10
106.691
20
-146.867
11
106.63
21
-146.563
0
LINE
8
BLACK
6
CONTINUOUS
10
106.63
20
-146.563
11
106.531
21
-146.271
0
LINE
8
BLACK
6
CONTINUOUS
10
106.531
20
-146.271
11
106.394
21
-145.994
0
LINE
8
BLACK
6
CONTINUOUS
10
106.394
20
-145.994
11
106.223
21
-145.737
0
LINE
8
BLACK
6
CONTINUOUS
10
106.223
20
-145.737
11
106.019
21
-145.504
0
LINE
8
BLACK
6
CONTINUOUS
10
106.019
20
-145.504
11
105.786
21
-145.3
0
LINE
8
BLACK
6
CONTINUOUS
10
105.786
20
-145.3
11
105.529
21
-145.129
0
LINE
8
BLACK
6
CONTINUOUS
10
105.529
20
-145.129
11
105.252
21
-144.992
0
LINE
8
BLACK
6
CONTINUOUS
10
105.252
20
-144.992
11
104.96
21
-144.893
0
LINE
8
BLACK
6
CONTINUOUS
10
104.96
20
-144.893
11
104.656
21
-144.832
0
LINE
8
BLACK
6
CONTINUOUS
10
104.656
20
-144.832
11
104.348
21
-144.812
0
LINE
8
BLACK
6
CONTINUOUS
10
104.348
20
-144.812
11
104.04
21
-144.832
0
LINE
8
BLACK
6
CONTINUOUS
10
104.04
20
-144.832
11
103.736
21
-144.893
0
LINE
8
BLACK
6
CONTINUOUS
10
103.736
20
-144.893
11
103.444
21
-144.992
0
LINE
8
BLACK
6
CONTINUOUS
10
103.444
20
-144.992
11
103.167
21
-145.129
0
LINE
8
BLACK
6
CONTINUOUS
10
103.167
20
-145.129
11
102.91
21
-145.3
0
LINE
8
BLACK
6
CONTINUOUS
10
102.91
20
-145.3
11
102.677
21
-145.504
0
LINE
8
BLACK
6
CONTINUOUS
10
102.677
20
-145.504
11
102.473
21
-145.737
0
LINE
8
BLACK
6
CONTINUOUS
10
102.473
20
-145.737
11
102.302
21
-145.994
0
LINE
8
BLACK
6
CONTINUOUS
10
102.302
20
-145.994
11
102.165
21
-146.271
0
LINE
8
BLACK
6
CONTINUOUS
10
102.165
20
-146.271
11
102.066
21
-146.563
0
LINE
8
BLACK
6
CONTINUOUS
10
102.066
20
-146.563
11
102.005
21
-146.867
0
LINE
8
BLACK
6
CONTINUOUS
10
102.005
20
-146.867
11
101.985
21
-147.175
0
LINE
8
BLACK
6
CONTINUOUS
10
189.713
20
-146.675
11
189.733
21
-146.357
0
LINE
8
BLACK
6
CONTINUOUS
10
189.733
20
-146.357
11
189.793
21
-146.045
0
LINE
8
BLACK
6
CONTINUOUS
10
189.793
20
-146.045
11
189.891
21
-145.742
0
LINE
8
BLACK
6
CONTINUOUS
10
189.891
20
-145.742
11
190.027
21
-145.454
0
LINE
8
BLACK
6
CONTINUOUS
10
190.027
20
-145.454
11
190.197
21
-145.185
0
LINE
8
BLACK
6
CONTINUOUS
10
190.197
20
-145.185
11
190.4
21
-144.94
0
LINE
8
BLACK
6
CONTINUOUS
10
190.4
20
-144.94
11
190.632
21
-144.722
0
LINE
8
BLACK
6
CONTINUOUS
10
190.632
20
-144.722
11
190.89
21
-144.535
0
LINE
8
BLACK
6
CONTINUOUS
10
190.89
20
-144.535
11
191.169
21
-144.382
0
LINE
8
BLACK
6
CONTINUOUS
10
191.169
20
-144.382
11
191.465
21
-144.264
0
LINE
8
BLACK
6
CONTINUOUS
10
191.465
20
-144.264
11
191.773
21
-144.185
0
LINE
8
BLACK
6
CONTINUOUS
10
191.773
20
-144.185
11
192.089
21
-144.145
0
LINE
8
BLACK
6
CONTINUOUS
10
192.089
20
-144.145
11
192.407
21
-144.145
0
LINE
8
BLACK
6
CONTINUOUS
10
192.407
20
-144.145
11
192.723
21
-144.185
0
LINE
8
BLACK
6
CONTINUOUS
10
192.723
20
-144.185
11
193.031
21
-144.264
0
LINE
8
BLACK
6
CONTINUOUS
10
193.031
20
-144.264
11
193.327
21
-144.382
0
LINE
8
BLACK
6
CONTINUOUS
10
193.327
20
-144.382
11
193.606
21
-144.535
0
LINE
8
BLACK
6
CONTINUOUS
10
193.606
20
-144.535
11
193.864
21
-144.722
0
LINE
8
BLACK
6
CONTINUOUS
10
193.864
20
-144.722
11
194.096
21
-144.94
0
LINE
8
BLACK
6
CONTINUOUS
10
194.096
20
-144.94
11
194.299
21
-145.185
0
LINE
8
BLACK
6
CONTINUOUS
10
194.299
20
-145.185
11
194.469
21
-145.454
0
LINE
8
BLACK
6
CONTINUOUS
10
194.469
20
-145.454
11
194.605
21
-145.742
0
LINE
8
BLACK
6
CONTINUOUS
10
194.605
20
-145.742
11
194.703
21
-146.045
0
LINE
8
BLACK
6
CONTINUOUS
10
194.703
20
-146.045
11
194.763
21
-146.357
0
LINE
8
BLACK
6
CONTINUOUS
10
194.763
20
-146.357
11
194.783
21
-146.675
0
LINE
8
BLACK
6
CONTINUOUS
10
194.783
20
-146.675
11
194.763
21
-146.993
0
LINE
8
BLACK
6
CONTINUOUS
10
194.763
20
-146.993
11
194.703
21
-147.305
0
LINE
8
BLACK
6
CONTINUOUS
10
194.703
20
-147.305
11
194.605
21
-147.608
0
LINE
8
BLACK
6
CONTINUOUS
10
194.605
20
-147.608
11
194.469
21
-147.896
0
LINE
8
BLACK
6
CONTINUOUS
10
194.469
20
-147.896
11
194.299
21
-148.165
0
LINE
8
BLACK
6
CONTINUOUS
10
194.299
20
-148.165
11
194.096
21
-148.41
0
LINE
8
BLACK
6
CONTINUOUS
10
194.096
20
-148.41
11
193.864
21
-148.628
0
LINE
8
BLACK
6
CONTINUOUS
10
193.864
20
-148.628
11
193.606
21
-148.815
0
LINE
8
BLACK
6
CONTINUOUS
10
193.606
20
-148.815
11
193.327
21
-148.968
0
LINE
8
BLACK
6
CONTINUOUS
10
193.327
20
-148.968
11
193.031
21
-149.086
0
LINE
8
BLACK
6
CONTINUOUS
10
193.031
20
-149.086
11
192.723
21
-149.165
0
LINE
8
BLACK
6
CONTINUOUS
10
192.723
20
-149.165
11
192.407
21
-149.205
0
LINE
8
BLACK
6
CONTINUOUS
10
192.407
20
-149.205
11
192.089
21
-149.205
0
LINE
8
BLACK
6
CONTINUOUS
10
192.089
20
-149.205
11
191.773
21
-149.165
0
LINE
8
BLACK
6
CONTINUOUS
10
191.773
20
-149.165
11
191.465
21
-149.086
0
LINE
8
BLACK
6
CONTINUOUS
10
191.465
20
-149.086
11
191.169
21
-148.968
0
LINE
8
BLACK
6
CONTINUOUS
10
191.169
20
-148.968
11
190.89
21
-148.815
0
LINE
8
BLACK
6
CONTINUOUS
10
190.89
20
-148.815
11
190.632
21
-148.628
0
LINE
8
BLACK
6
CONTINUOUS
10
190.632
20
-148.628
11
190.4
21
-148.41
0
LINE
8
BLACK
6
CONTINUOUS
10
190.4
20
-148.41
11
190.197
21
-148.165
0
LINE
8
BLACK
6
CONTINUOUS
10
190.197
20
-148.165
11
190.027
21
-147.896
0
LINE
8
BLACK
6
CONTINUOUS
10
190.027
20
-147.896
11
189.891
21
-147.608
0
LINE
8
BLACK
6
CONTINUOUS
10
189.891
20
-147.608
11
189.793
21
-147.305
0
LINE
8
BLACK
6
CONTINUOUS
10
189.793
20
-147.305
11
189.733
21
-146.993
0
LINE
8
BLACK
6
CONTINUOUS
10
189.733
20
-146.993
11
189.713
21
-146.675
0
LINE
8
BLACK
6
CONTINUOUS
10
189.859
20
-146.675
11
189.877
21
-146.974
0
LINE
8
BLACK
6
CONTINUOUS
10
189.877
20
-146.974
11
189.934
21
-147.269
0
LINE
8
BLACK
6
CONTINUOUS
10
189.934
20
-147.269
11
190.026
21
-147.555
0
LINE
8
BLACK
6
CONTINUOUS
10
190.026
20
-147.555
11
190.154
21
-147.826
0
LINE
8
BLACK
6
CONTINUOUS
10
190.154
20
-147.826
11
190.315
21
-148.079
0
LINE
8
BLACK
6
CONTINUOUS
10
190.315
20
-148.079
11
190.506
21
-148.311
0
LINE
8
BLACK
6
CONTINUOUS
10
190.506
20
-148.311
11
190.725
21
-148.516
0
LINE
8
BLACK
6
CONTINUOUS
10
190.725
20
-148.516
11
190.968
21
-148.692
0
LINE
8
BLACK
6
CONTINUOUS
10
190.968
20
-148.692
11
191.231
21
-148.837
0
LINE
8
BLACK
6
CONTINUOUS
10
191.231
20
-148.837
11
191.51
21
-148.947
0
LINE
8
BLACK
6
CONTINUOUS
10
191.51
20
-148.947
11
191.8
21
-149.022
0
LINE
8
BLACK
6
CONTINUOUS
10
191.8
20
-149.022
11
192.098
21
-149.06
0
LINE
8
BLACK
6
CONTINUOUS
10
192.098
20
-149.06
11
192.398
21
-149.06
0
LINE
8
BLACK
6
CONTINUOUS
10
192.398
20
-149.06
11
192.696
21
-149.022
0
LINE
8
BLACK
6
CONTINUOUS
10
192.696
20
-149.022
11
192.986
21
-148.947
0
LINE
8
BLACK
6
CONTINUOUS
10
192.986
20
-148.947
11
193.265
21
-148.837
0
LINE
8
BLACK
6
CONTINUOUS
10
193.265
20
-148.837
11
193.528
21
-148.692
0
LINE
8
BLACK
6
CONTINUOUS
10
193.528
20
-148.692
11
193.771
21
-148.516
0
LINE
8
BLACK
6
CONTINUOUS
10
193.771
20
-148.516
11
193.99
21
-148.311
0
LINE
8
BLACK
6
CONTINUOUS
10
193.99
20
-148.311
11
194.181
21
-148.079
0
LINE
8
BLACK
6
CONTINUOUS
10
194.181
20
-148.079
11
194.342
21
-147.826
0
LINE
8
BLACK
6
CONTINUOUS
10
194.342
20
-147.826
11
194.47
21
-147.555
0
LINE
8
BLACK
6
CONTINUOUS
10
194.47
20
-147.555
11
194.562
21
-147.269
0
LINE
8
BLACK
6
CONTINUOUS
10
194.562
20
-147.269
11
194.619
21
-146.974
0
LINE
8
BLACK
6
CONTINUOUS
10
194.619
20
-146.974
11
194.637
21
-146.675
0
LINE
8
BLACK
6
CONTINUOUS
10
194.637
20
-146.675
11
194.619
21
-146.376
0
LINE
8
BLACK
6
CONTINUOUS
10
194.619
20
-146.376
11
194.562
21
-146.081
0
LINE
8
BLACK
6
CONTINUOUS
10
194.562
20
-146.081
11
194.47
21
-145.795
0
LINE
8
BLACK
6
CONTINUOUS
10
194.47
20
-145.795
11
194.342
21
-145.524
0
LINE
8
BLACK
6
CONTINUOUS
10
194.342
20
-145.524
11
194.181
21
-145.271
0
LINE
8
BLACK
6
CONTINUOUS
10
194.181
20
-145.271
11
193.99
21
-145.039
0
LINE
8
BLACK
6
CONTINUOUS
10
193.99
20
-145.039
11
193.771
21
-144.834
0
LINE
8
BLACK
6
CONTINUOUS
10
193.771
20
-144.834
11
193.528
21
-144.658
0
LINE
8
BLACK
6
CONTINUOUS
10
193.528
20
-144.658
11
193.265
21
-144.513
0
LINE
8
BLACK
6
CONTINUOUS
10
193.265
20
-144.513
11
192.986
21
-144.403
0
LINE
8
BLACK
6
CONTINUOUS
10
192.986
20
-144.403
11
192.696
21
-144.328
0
LINE
8
BLACK
6
CONTINUOUS
10
192.696
20
-144.328
11
192.398
21
-144.29
0
LINE
8
BLACK
6
CONTINUOUS
10
192.398
20
-144.29
11
192.098
21
-144.29
0
LINE
8
BLACK
6
CONTINUOUS
10
192.098
20
-144.29
11
191.8
21
-144.328
0
LINE
8
BLACK
6
CONTINUOUS
10
191.8
20
-144.328
11
191.51
21
-144.403
0
LINE
8
BLACK
6
CONTINUOUS
10
191.51
20
-144.403
11
191.231
21
-144.513
0
LINE
8
BLACK
6
CONTINUOUS
10
191.231
20
-144.513
11
190.968
21
-144.658
0
LINE
8
BLACK
6
CONTINUOUS
10
190.968
20
-144.658
11
190.725
21
-144.834
0
LINE
8
BLACK
6
CONTINUOUS
10
190.725
20
-144.834
11
190.506
21
-145.039
0
LINE
8
BLACK
6
CONTINUOUS
10
190.506
20
-145.039
11
190.315
21
-145.271
0
LINE
8
BLACK
6
CONTINUOUS
10
190.315
20
-145.271
11
190.154
21
-145.524
0
LINE
8
BLACK
6
CONTINUOUS
10
190.154
20
-145.524
11
190.026
21
-145.795
0
LINE
8
BLACK
6
CONTINUOUS
10
190.026
20
-145.795
11
189.934
21
-146.081
0
LINE
8
BLACK
6
CONTINUOUS
10
189.934
20
-146.081
11
189.877
21
-146.376
0
LINE
8
BLACK
6
CONTINUOUS
10
189.877
20
-146.376
11
189.859
21
-146.675
0
LINE
8
BLACK
6
CONTINUOUS
10
146.087
20
-109.325
11
146.107
21
-109.004
0
LINE
8
BLACK
6
CONTINUOUS
10
146.107
20
-109.004
11
146.167
21
-108.688
0
LINE
8
BLACK
6
CONTINUOUS
10
146.167
20
-108.688
11
146.266
21
-108.382
0
LINE
8
BLACK
6
CONTINUOUS
10
146.266
20
-108.382
11
146.403
21
-108.091
0
LINE
8
BLACK
6
CONTINUOUS
10
146.403
20
-108.091
11
146.576
21
-107.819
0
LINE
8
BLACK
6
CONTINUOUS
10
146.576
20
-107.819
11
146.781
21
-107.572
0
LINE
8
BLACK
6
CONTINUOUS
10
146.781
20
-107.572
11
147.015
21
-107.351
0
LINE
8
BLACK
6
CONTINUOUS
10
147.015
20
-107.351
11
147.275
21
-107.162
0
LINE
8
BLACK
6
CONTINUOUS
10
147.275
20
-107.162
11
147.557
21
-107.007
0
LINE
8
BLACK
6
CONTINUOUS
10
147.557
20
-107.007
11
147.856
21
-106.889
0
LINE
8
BLACK
6
CONTINUOUS
10
147.856
20
-106.889
11
148.168
21
-106.809
0
LINE
8
BLACK
6
CONTINUOUS
10
148.168
20
-106.809
11
148.487
21
-106.769
0
LINE
8
BLACK
6
CONTINUOUS
10
148.487
20
-106.769
11
148.809
21
-106.769
0
LINE
8
BLACK
6
CONTINUOUS
10
148.809
20
-106.769
11
149.128
21
-106.809
0
LINE
8
BLACK
6
CONTINUOUS
10
149.128
20
-106.809
11
149.44
21
-106.889
0
LINE
8
BLACK
6
CONTINUOUS
10
149.44
20
-106.889
11
149.739
21
-107.007
0
LINE
8
BLACK
6
CONTINUOUS
10
149.739
20
-107.007
11
150.021
21
-107.162
0
LINE
8
BLACK
6
CONTINUOUS
10
150.021
20
-107.162
11
150.281
21
-107.351
0
LINE
8
BLACK
6
CONTINUOUS
10
150.281
20
-107.351
11
150.515
21
-107.572
0
LINE
8
BLACK
6
CONTINUOUS
10
150.515
20
-107.572
11
150.72
21
-107.819
0
LINE
8
BLACK
6
CONTINUOUS
10
150.72
20
-107.819
11
150.893
21
-108.091
0
LINE
8
BLACK
6
CONTINUOUS
10
150.893
20
-108.091
11
151.03
21
-108.382
0
LINE
8
BLACK
6
CONTINUOUS
10
151.03
20
-108.382
11
151.129
21
-108.688
0
LINE
8
BLACK
6
CONTINUOUS
10
151.129
20
-108.688
11
151.189
21
-109.004
0
LINE
8
BLACK
6
CONTINUOUS
10
151.189
20
-109.004
11
151.209
21
-109.325
0
LINE
8
BLACK
6
CONTINUOUS
10
151.209
20
-109.325
11
151.189
21
-109.646
0
LINE
8
BLACK
6
CONTINUOUS
10
151.189
20
-109.646
11
151.129
21
-109.962
0
LINE
8
BLACK
6
CONTINUOUS
10
151.129
20
-109.962
11
151.03
21
-110.268
0
LINE
8
BLACK
6
CONTINUOUS
10
151.03
20
-110.268
11
150.893
21
-110.559
0
LINE
8
BLACK
6
CONTINUOUS
10
150.893
20
-110.559
11
150.72
21
-110.831
0
LINE
8
BLACK
6
CONTINUOUS
10
150.72
20
-110.831
11
150.515
21
-111.078
0
LINE
8
BLACK
6
CONTINUOUS
10
150.515
20
-111.078
11
150.281
21
-111.299
0
LINE
8
BLACK
6
CONTINUOUS
10
150.281
20
-111.299
11
150.021
21
-111.488
0
LINE
8
BLACK
6
CONTINUOUS
10
150.021
20
-111.488
11
149.739
21
-111.643
0
LINE
8
BLACK
6
CONTINUOUS
10
149.739
20
-111.643
11
149.44
21
-111.761
0
LINE
8
BLACK
6
CONTINUOUS
10
149.44
20
-111.761
11
149.128
21
-111.841
0
LINE
8
BLACK
6
CONTINUOUS
10
149.128
20
-111.841
11
148.809
21
-111.881
0
LINE
8
BLACK
6
CONTINUOUS
10
148.809
20
-111.881
11
148.487
21
-111.881
0
LINE
8
BLACK
6
CONTINUOUS
10
148.487
20
-111.881
11
148.168
21
-111.841
0
LINE
8
BLACK
6
CONTINUOUS
10
148.168
20
-111.841
11
147.856
21
-111.761
0
LINE
8
BLACK
6
CONTINUOUS
10
147.856
20
-111.761
11
147.557
21
-111.643
0
LINE
8
BLACK
6
CONTINUOUS
10
147.557
20
-111.643
11
147.275
21
-111.488
0
LINE
8
BLACK
6
CONTINUOUS
10
147.275
20
-111.488
11
147.015
21
-111.299
0
LINE
8
BLACK
6
CONTINUOUS
10
147.015
20
-111.299
11
146.781
21
-111.078
0
LINE
8
BLACK
6
CONTINUOUS
10
146.781
20
-111.078
11
146.576
21
-110.831
0
LINE
8
BLACK
6
CONTINUOUS
10
146.576
20
-110.831
11
146.403
21
-110.559
0
LINE
8
BLACK
6
CONTINUOUS
10
146.403
20
-110.559
11
146.266
21
-110.268
0
LINE
8
BLACK
6
CONTINUOUS
10
146.266
20
-110.268
11
146.167
21
-109.962
0
LINE
8
BLACK
6
CONTINUOUS
10
146.167
20
-109.962
11
146.107
21
-109.646
0
LINE
8
BLACK
6
CONTINUOUS
10
146.107
20
-109.646
11
146.087
21
-109.325
0
LINE
8
BLACK
6
CONTINUOUS
10
146.232
20
-109.325
11
146.251
21
-109.628
0
LINE
8
BLACK
6
CONTINUOUS
10
146.251
20
-109.628
11
146.308
21
-109.926
0
LINE
8
BLACK
6
CONTINUOUS
10
146.308
20
-109.926
11
146.401
21
-110.214
0
LINE
8
BLACK
6
CONTINUOUS
10
146.401
20
-110.214
11
146.531
21
-110.489
0
LINE
8
BLACK
6
CONTINUOUS
10
146.531
20
-110.489
11
146.693
21
-110.745
0
LINE
8
BLACK
6
CONTINUOUS
10
146.693
20
-110.745
11
146.887
21
-110.979
0
LINE
8
BLACK
6
CONTINUOUS
10
146.887
20
-110.979
11
147.108
21
-111.187
0
LINE
8
BLACK
6
CONTINUOUS
10
147.108
20
-111.187
11
147.353
21
-111.365
0
LINE
8
BLACK
6
CONTINUOUS
10
147.353
20
-111.365
11
147.619
21
-111.511
0
LINE
8
BLACK
6
CONTINUOUS
10
147.619
20
-111.511
11
147.901
21
-111.623
0
LINE
8
BLACK
6
CONTINUOUS
10
147.901
20
-111.623
11
148.195
21
-111.698
0
LINE
8
BLACK
6
CONTINUOUS
10
148.195
20
-111.698
11
148.496
21
-111.736
0
LINE
8
BLACK
6
CONTINUOUS
10
148.496
20
-111.736
11
148.8
21
-111.736
0
LINE
8
BLACK
6
CONTINUOUS
10
148.8
20
-111.736
11
149.101
21
-111.698
0
LINE
8
BLACK
6
CONTINUOUS
10
149.101
20
-111.698
11
149.395
21
-111.623
0
LINE
8
BLACK
6
CONTINUOUS
10
149.395
20
-111.623
11
149.677
21
-111.511
0
LINE
8
BLACK
6
CONTINUOUS
10
149.677
20
-111.511
11
149.943
21
-111.365
0
LINE
8
BLACK
6
CONTINUOUS
10
149.943
20
-111.365
11
150.188
21
-111.187
0
LINE
8
BLACK
6
CONTINUOUS
10
150.188
20
-111.187
11
150.409
21
-110.979
0
LINE
8
BLACK
6
CONTINUOUS
10
150.409
20
-110.979
11
150.603
21
-110.745
0
LINE
8
BLACK
6
CONTINUOUS
10
150.603
20
-110.745
11
150.765
21
-110.489
0
LINE
8
BLACK
6
CONTINUOUS
10
150.765
20
-110.489
11
150.895
21
-110.214
0
LINE
8
BLACK
6
CONTINUOUS
10
150.895
20
-110.214
11
150.988
21
-109.926
0
LINE
8
BLACK
6
CONTINUOUS
10
150.988
20
-109.926
11
151.045
21
-109.628
0
LINE
8
BLACK
6
CONTINUOUS
10
151.045
20
-109.628
11
151.064
21
-109.325
0
LINE
8
BLACK
6
CONTINUOUS
10
151.064
20
-109.325
11
151.045
21
-109.022
0
LINE
8
BLACK
6
CONTINUOUS
10
151.045
20
-109.022
11
150.988
21
-108.724
0
LINE
8
BLACK
6
CONTINUOUS
10
150.988
20
-108.724
11
150.895
21
-108.436
0
LINE
8
BLACK
6
CONTINUOUS
10
150.895
20
-108.436
11
150.765
21
-108.161
0
LINE
8
BLACK
6
CONTINUOUS
10
150.765
20
-108.161
11
150.603
21
-107.905
0
LINE
8
BLACK
6
CONTINUOUS
10
150.603
20
-107.905
11
150.409
21
-107.671
0
LINE
8
BLACK
6
CONTINUOUS
10
150.409
20
-107.671
11
150.188
21
-107.463
0
LINE
8
BLACK
6
CONTINUOUS
10
150.188
20
-107.463
11
149.943
21
-107.285
0
LINE
8
BLACK
6
CONTINUOUS
10
149.943
20
-107.285
11
149.677
21
-107.139
0
LINE
8
BLACK
6
CONTINUOUS
10
149.677
20
-107.139
11
149.395
21
-107.027
0
LINE
8
BLACK
6
CONTINUOUS
10
149.395
20
-107.027
11
149.101
21
-106.952
0
LINE
8
BLACK
6
CONTINUOUS
10
149.101
20
-106.952
11
148.8
21
-106.914
0
LINE
8
BLACK
6
CONTINUOUS
10
148.8
20
-106.914
11
148.496
21
-106.914
0
LINE
8
BLACK
6
CONTINUOUS
10
148.496
20
-106.914
11
148.195
21
-106.952
0
LINE
8
BLACK
6
CONTINUOUS
10
148.195
20
-106.952
11
147.901
21
-107.027
0
LINE
8
BLACK
6
CONTINUOUS
10
147.901
20
-107.027
11
147.619
21
-107.139
0
LINE
8
BLACK
6
CONTINUOUS
10
147.619
20
-107.139
11
147.353
21
-107.285
0
LINE
8
BLACK
6
CONTINUOUS
10
147.353
20
-107.285
11
147.108
21
-107.463
0
LINE
8
BLACK
6
CONTINUOUS
10
147.108
20
-107.463
11
146.887
21
-107.671
0
LINE
8
BLACK
6
CONTINUOUS
10
146.887
20
-107.671
11
146.693
21
-107.905
0
LINE
8
BLACK
6
CONTINUOUS
10
146.693
20
-107.905
11
146.531
21
-108.161
0
LINE
8
BLACK
6
CONTINUOUS
10
146.531
20
-108.161
11
146.401
21
-108.436
0
LINE
8
BLACK
6
CONTINUOUS
10
146.401
20
-108.436
11
146.308
21
-108.724
0
LINE
8
BLACK
6
CONTINUOUS
10
146.308
20
-108.724
11
146.251
21
-109.022
0
LINE
8
BLACK
6
CONTINUOUS
10
146.251
20
-109.022
11
146.232
21
-109.325
0
LINE
8
BLACK
6
CONTINUOUS
10
41.6894
20
-105.3
11
41.7098
21
-104.976
0
LINE
8
BLACK
6
CONTINUOUS
10
41.7098
20
-104.976
11
41.7706
21
-104.657
0
LINE
8
BLACK
6
CONTINUOUS
10
41.7706
20
-104.657
11
41.8708
21
-104.349
0
LINE
8
BLACK
6
CONTINUOUS
10
41.8708
20
-104.349
11
42.009
21
-104.055
0
LINE
8
BLACK
6
CONTINUOUS
10
42.009
20
-104.055
11
42.1828
21
-103.781
0
LINE
8
BLACK
6
CONTINUOUS
10
42.1828
20
-103.781
11
42.3896
21
-103.531
0
LINE
8
BLACK
6
CONTINUOUS
10
42.3896
20
-103.531
11
42.6261
21
-103.309
0
LINE
8
BLACK
6
CONTINUOUS
10
42.6261
20
-103.309
11
42.8886
21
-103.119
0
LINE
8
BLACK
6
CONTINUOUS
10
42.8886
20
-103.119
11
43.173
21
-102.962
0
LINE
8
BLACK
6
CONTINUOUS
10
43.173
20
-102.962
11
43.4746
21
-102.843
0
LINE
8
BLACK
6
CONTINUOUS
10
43.4746
20
-102.843
11
43.7889
21
-102.762
0
LINE
8
BLACK
6
CONTINUOUS
10
43.7889
20
-102.762
11
44.1108
21
-102.721
0
LINE
8
BLACK
6
CONTINUOUS
10
44.1108
20
-102.721
11
44.4352
21
-102.721
0
LINE
8
BLACK
6
CONTINUOUS
10
44.4352
20
-102.721
11
44.7571
21
-102.762
0
LINE
8
BLACK
6
CONTINUOUS
10
44.7571
20
-102.762
11
45.0714
21
-102.843
0
LINE
8
BLACK
6
CONTINUOUS
10
45.0714
20
-102.843
11
45.373
21
-102.962
0
LINE
8
BLACK
6
CONTINUOUS
10
45.373
20
-102.962
11
45.6574
21
-103.119
0
LINE
8
BLACK
6
CONTINUOUS
10
45.6574
20
-103.119
11
45.9199
21
-103.309
0
LINE
8
BLACK
6
CONTINUOUS
10
45.9199
20
-103.309
11
46.1564
21
-103.531
0
LINE
8
BLACK
6
CONTINUOUS
10
46.1564
20
-103.531
11
46.3632
21
-103.781
0
LINE
8
BLACK
6
CONTINUOUS
10
46.3632
20
-103.781
11
46.537
21
-104.055
0
LINE
8
BLACK
6
CONTINUOUS
10
46.537
20
-104.055
11
46.6752
21
-104.349
0
LINE
8
BLACK
6
CONTINUOUS
10
46.6752
20
-104.349
11
46.7754
21
-104.657
0
LINE
8
BLACK
6
CONTINUOUS
10
46.7754
20
-104.657
11
46.8362
21
-104.976
0
LINE
8
BLACK
6
CONTINUOUS
10
46.8362
20
-104.976
11
46.8566
21
-105.3
0
LINE
8
BLACK
6
CONTINUOUS
10
46.8566
20
-105.3
11
46.8362
21
-105.624
0
LINE
8
BLACK
6
CONTINUOUS
10
46.8362
20
-105.624
11
46.7754
21
-105.943
0
LINE
8
BLACK
6
CONTINUOUS
10
46.7754
20
-105.943
11
46.6752
21
-106.251
0
LINE
8
BLACK
6
CONTINUOUS
10
46.6752
20
-106.251
11
46.537
21
-106.545
0
LINE
8
BLACK
6
CONTINUOUS
10
46.537
20
-106.545
11
46.3632
21
-106.819
0
LINE
8
BLACK
6
CONTINUOUS
10
46.3632
20
-106.819
11
46.1564
21
-107.069
0
LINE
8
BLACK
6
CONTINUOUS
10
46.1564
20
-107.069
11
45.9199
21
-107.291
0
LINE
8
BLACK
6
CONTINUOUS
10
45.9199
20
-107.291
11
45.6574
21
-107.481
0
LINE
8
BLACK
6
CONTINUOUS
10
45.6574
20
-107.481
11
45.373
21
-107.638
0
LINE
8
BLACK
6
CONTINUOUS
10
45.373
20
-107.638
11
45.0714
21
-107.757
0
LINE
8
BLACK
6
CONTINUOUS
10
45.0714
20
-107.757
11
44.7571
21
-107.838
0
LINE
8
BLACK
6
CONTINUOUS
10
44.7571
20
-107.838
11
44.4352
21
-107.879
0
LINE
8
BLACK
6
CONTINUOUS
10
44.4352
20
-107.879
11
44.1108
21
-107.879
0
LINE
8
BLACK
6
CONTINUOUS
10
44.1108
20
-107.879
11
43.7889
21
-107.838
0
LINE
8
BLACK
6
CONTINUOUS
10
43.7889
20
-107.838
11
43.4746
21
-107.757
0
LINE
8
BLACK
6
CONTINUOUS
10
43.4746
20
-107.757
11
43.173
21
-107.638
0
LINE
8
BLACK
6
CONTINUOUS
10
43.173
20
-107.638
11
42.8886
21
-107.481
0
LINE
8
BLACK
6
CONTINUOUS
10
42.8886
20
-107.481
11
42.6261
21
-107.291
0
LINE
8
BLACK
6
CONTINUOUS
10
42.6261
20
-107.291
11
42.3896
21
-107.069
0
LINE
8
BLACK
6
CONTINUOUS
10
42.3896
20
-107.069
11
42.1828
21
-106.819
0
LINE
8
BLACK
6
CONTINUOUS
10
42.1828
20
-106.819
11
42.009
21
-106.545
0
LINE
8
BLACK
6
CONTINUOUS
10
42.009
20
-106.545
11
41.8708
21
-106.251
0
LINE
8
BLACK
6
CONTINUOUS
10
41.8708
20
-106.251
11
41.7706
21
-105.943
0
LINE
8
BLACK
6
CONTINUOUS
10
41.7706
20
-105.943
11
41.7098
21
-105.624
0
LINE
8
BLACK
6
CONTINUOUS
10
41.7098
20
-105.624
11
41.6894
21
-105.3
0
LINE
8
BLACK
6
CONTINUOUS
10
41.8346
20
-105.3
11
41.8538
21
-105.606
0
LINE
8
BLACK
6
CONTINUOUS
10
41.8538
20
-105.606
11
41.9112
21
-105.906
0
LINE
8
BLACK
6
CONTINUOUS
10
41.9112
20
-105.906
11
42.0058
21
-106.198
0
LINE
8
BLACK
6
CONTINUOUS
10
42.0058
20
-106.198
11
42.1362
21
-106.475
0
LINE
8
BLACK
6
CONTINUOUS
10
42.1362
20
-106.475
11
42.3003
21
-106.733
0
LINE
8
BLACK
6
CONTINUOUS
10
42.3003
20
-106.733
11
42.4955
21
-106.969
0
LINE
8
BLACK
6
CONTINUOUS
10
42.4955
20
-106.969
11
42.7187
21
-107.179
0
LINE
8
BLACK
6
CONTINUOUS
10
42.7187
20
-107.179
11
42.9664
21
-107.359
0
LINE
8
BLACK
6
CONTINUOUS
10
42.9664
20
-107.359
11
43.2348
21
-107.506
0
LINE
8
BLACK
6
CONTINUOUS
10
43.2348
20
-107.506
11
43.5195
21
-107.619
0
LINE
8
BLACK
6
CONTINUOUS
10
43.5195
20
-107.619
11
43.8161
21
-107.695
0
LINE
8
BLACK
6
CONTINUOUS
10
43.8161
20
-107.695
11
44.1199
21
-107.734
0
LINE
8
BLACK
6
CONTINUOUS
10
44.1199
20
-107.734
11
44.4261
21
-107.734
0
LINE
8
BLACK
6
CONTINUOUS
10
44.4261
20
-107.734
11
44.7299
21
-107.695
0
LINE
8
BLACK
6
CONTINUOUS
10
44.7299
20
-107.695
11
45.0265
21
-107.619
0
LINE
8
BLACK
6
CONTINUOUS
10
45.0265
20
-107.619
11
45.3112
21
-107.506
0
LINE
8
BLACK
6
CONTINUOUS
10
45.3112
20
-107.506
11
45.5796
21
-107.359
0
LINE
8
BLACK
6
CONTINUOUS
10
45.5796
20
-107.359
11
45.8273
21
-107.179
0
LINE
8
BLACK
6
CONTINUOUS
10
45.8273
20
-107.179
11
46.0505
21
-106.969
0
LINE
8
BLACK
6
CONTINUOUS
10
46.0505
20
-106.969
11
46.2457
21
-106.733
0
LINE
8
BLACK
6
CONTINUOUS
10
46.2457
20
-106.733
11
46.4098
21
-106.475
0
LINE
8
BLACK
6
CONTINUOUS
10
46.4098
20
-106.475
11
46.5402
21
-106.198
0
LINE
8
BLACK
6
CONTINUOUS
10
46.5402
20
-106.198
11
46.6348
21
-105.906
0
LINE
8
BLACK
6
CONTINUOUS
10
46.6348
20
-105.906
11
46.6922
21
-105.606
0
LINE
8
BLACK
6
CONTINUOUS
10
46.6922
20
-105.606
11
46.7114
21
-105.3
0
LINE
8
BLACK
6
CONTINUOUS
10
46.7114
20
-105.3
11
46.6922
21
-104.994
0
LINE
8
BLACK
6
CONTINUOUS
10
46.6922
20
-104.994
11
46.6348
21
-104.694
0
LINE
8
BLACK
6
CONTINUOUS
10
46.6348
20
-104.694
11
46.5402
21
-104.402
0
LINE
8
BLACK
6
CONTINUOUS
10
46.5402
20
-104.402
11
46.4098
21
-104.125
0
LINE
8
BLACK
6
CONTINUOUS
10
46.4098
20
-104.125
11
46.2457
21
-103.867
0
LINE
8
BLACK
6
CONTINUOUS
10
46.2457
20
-103.867
11
46.0505
21
-103.631
0
LINE
8
BLACK
6
CONTINUOUS
10
46.0505
20
-103.631
11
45.8273
21
-103.421
0
LINE
8
BLACK
6
CONTINUOUS
10
45.8273
20
-103.421
11
45.5796
21
-103.241
0
LINE
8
BLACK
6
CONTINUOUS
10
45.5796
20
-103.241
11
45.3112
21
-103.094
0
LINE
8
BLACK
6
CONTINUOUS
10
45.3112
20
-103.094
11
45.0265
21
-102.981
0
LINE
8
BLACK
6
CONTINUOUS
10
45.0265
20
-102.981
11
44.7299
21
-102.905
0
LINE
8
BLACK
6
CONTINUOUS
10
44.7299
20
-102.905
11
44.4261
21
-102.866
0
LINE
8
BLACK
6
CONTINUOUS
10
44.4261
20
-102.866
11
44.1199
21
-102.866
0
LINE
8
BLACK
6
CONTINUOUS
10
44.1199
20
-102.866
11
43.8161
21
-102.905
0
LINE
8
BLACK
6
CONTINUOUS
10
43.8161
20
-102.905
11
43.5195
21
-102.981
0
LINE
8
BLACK
6
CONTINUOUS
10
43.5195
20
-102.981
11
43.2348
21
-103.094
0
LINE
8
BLACK
6
CONTINUOUS
10
43.2348
20
-103.094
11
42.9664
21
-103.241
0
LINE
8
BLACK
6
CONTINUOUS
10
42.9664
20
-103.241
11
42.7187
21
-103.421
0
LINE
8
BLACK
6
CONTINUOUS
10
42.7187
20
-103.421
11
42.4955
21
-103.631
0
LINE
8
BLACK
6
CONTINUOUS
10
42.4955
20
-103.631
11
42.3003
21
-103.867
0
LINE
8
BLACK
6
CONTINUOUS
10
42.3003
20
-103.867
11
42.1362
21
-104.125
0
LINE
8
BLACK
6
CONTINUOUS
10
42.1362
20
-104.125
11
42.0058
21
-104.402
0
LINE
8
BLACK
6
CONTINUOUS
10
42.0058
20
-104.402
11
41.9112
21
-104.694
0
LINE
8
BLACK
6
CONTINUOUS
10
41.9112
20
-104.694
11
41.8538
21
-104.994
0
LINE
8
BLACK
6
CONTINUOUS
10
41.8538
20
-104.994
11
41.8346
21
-105.3
0
LINE
8
BLACK
6
CONTINUOUS
10
253.176
20
-104.85
11
253.196
21
-104.537
0
LINE
8
BLACK
6
CONTINUOUS
10
253.196
20
-104.537
11
253.254
21
-104.229
0
LINE
8
BLACK
6
CONTINUOUS
10
253.254
20
-104.229
11
253.351
21
-103.931
0
LINE
8
BLACK
6
CONTINUOUS
10
253.351
20
-103.931
11
253.485
21
-103.647
0
LINE
8
BLACK
6
CONTINUOUS
10
253.485
20
-103.647
11
253.653
21
-103.382
0
LINE
8
BLACK
6
CONTINUOUS
10
253.653
20
-103.382
11
253.853
21
-103.141
0
LINE
8
BLACK
6
CONTINUOUS
10
253.853
20
-103.141
11
254.081
21
-102.926
0
LINE
8
BLACK
6
CONTINUOUS
10
254.081
20
-102.926
11
254.335
21
-102.742
0
LINE
8
BLACK
6
CONTINUOUS
10
254.335
20
-102.742
11
254.61
21
-102.591
0
LINE
8
BLACK
6
CONTINUOUS
10
254.61
20
-102.591
11
254.901
21
-102.475
0
LINE
8
BLACK
6
CONTINUOUS
10
254.901
20
-102.475
11
255.205
21
-102.397
0
LINE
8
BLACK
6
CONTINUOUS
10
255.205
20
-102.397
11
255.516
21
-102.358
0
LINE
8
BLACK
6
CONTINUOUS
10
255.516
20
-102.358
11
255.83
21
-102.358
0
LINE
8
BLACK
6
CONTINUOUS
10
255.83
20
-102.358
11
256.141
21
-102.397
0
LINE
8
BLACK
6
CONTINUOUS
10
256.141
20
-102.397
11
256.445
21
-102.475
0
LINE
8
BLACK
6
CONTINUOUS
10
256.445
20
-102.475
11
256.736
21
-102.591
0
LINE
8
BLACK
6
CONTINUOUS
10
256.736
20
-102.591
11
257.011
21
-102.742
0
LINE
8
BLACK
6
CONTINUOUS
10
257.011
20
-102.742
11
257.265
21
-102.926
0
LINE
8
BLACK
6
CONTINUOUS
10
257.265
20
-102.926
11
257.493
21
-103.141
0
LINE
8
BLACK
6
CONTINUOUS
10
257.493
20
-103.141
11
257.693
21
-103.382
0
LINE
8
BLACK
6
CONTINUOUS
10
257.693
20
-103.382
11
257.861
21
-103.647
0
LINE
8
BLACK
6
CONTINUOUS
10
257.861
20
-103.647
11
257.995
21
-103.931
0
LINE
8
BLACK
6
CONTINUOUS
10
257.995
20
-103.931
11
258.092
21
-104.229
0
LINE
8
BLACK
6
CONTINUOUS
10
258.092
20
-104.229
11
258.15
21
-104.537
0
LINE
8
BLACK
6
CONTINUOUS
10
258.15
20
-104.537
11
258.17
21
-104.85
0
LINE
8
BLACK
6
CONTINUOUS
10
258.17
20
-104.85
11
258.15
21
-105.163
0
LINE
8
BLACK
6
CONTINUOUS
10
258.15
20
-105.163
11
258.092
21
-105.471
0
LINE
8
BLACK
6
CONTINUOUS
10
258.092
20
-105.471
11
257.995
21
-105.769
0
LINE
8
BLACK
6
CONTINUOUS
10
257.995
20
-105.769
11
257.861
21
-106.053
0
LINE
8
BLACK
6
CONTINUOUS
10
257.861
20
-106.053
11
257.693
21
-106.318
0
LINE
8
BLACK
6
CONTINUOUS
10
257.693
20
-106.318
11
257.493
21
-106.559
0
LINE
8
BLACK
6
CONTINUOUS
10
257.493
20
-106.559
11
257.265
21
-106.774
0
LINE
8
BLACK
6
CONTINUOUS
10
257.265
20
-106.774
11
257.011
21
-106.958
0
LINE
8
BLACK
6
CONTINUOUS
10
257.011
20
-106.958
11
256.736
21
-107.109
0
LINE
8
BLACK
6
CONTINUOUS
10
256.736
20
-107.109
11
256.445
21
-107.225
0
LINE
8
BLACK
6
CONTINUOUS
10
256.445
20
-107.225
11
256.141
21
-107.303
0
LINE
8
BLACK
6
CONTINUOUS
10
256.141
20
-107.303
11
255.83
21
-107.342
0
LINE
8
BLACK
6
CONTINUOUS
10
255.83
20
-107.342
11
255.516
21
-107.342
0
LINE
8
BLACK
6
CONTINUOUS
10
255.516
20
-107.342
11
255.205
21
-107.303
0
LINE
8
BLACK
6
CONTINUOUS
10
255.205
20
-107.303
11
254.901
21
-107.225
0
LINE
8
BLACK
6
CONTINUOUS
10
254.901
20
-107.225
11
254.61
21
-107.109
0
LINE
8
BLACK
6
CONTINUOUS
10
254.61
20
-107.109
11
254.335
21
-106.958
0
LINE
8
BLACK
6
CONTINUOUS
10
254.335
20
-106.958
11
254.081
21
-106.774
0
LINE
8
BLACK
6
CONTINUOUS
10
254.081
20
-106.774
11
253.853
21
-106.559
0
LINE
8
BLACK
6
CONTINUOUS
10
253.853
20
-106.559
11
253.653
21
-106.318
0
LINE
8
BLACK
6
CONTINUOUS
10
253.653
20
-106.318
11
253.485
21
-106.053
0
LINE
8
BLACK
6
CONTINUOUS
10
253.485
20
-106.053
11
253.351
21
-105.769
0
LINE
8
BLACK
6
CONTINUOUS
10
253.351
20
-105.769
11
253.254
21
-105.471
0
LINE
8
BLACK
6
CONTINUOUS
10
253.254
20
-105.471
11
253.196
21
-105.163
0
LINE
8
BLACK
6
CONTINUOUS
10
253.196
20
-105.163
11
253.176
21
-104.85
0
LINE
8
BLACK
6
CONTINUOUS
10
253.321
20
-104.85
11
253.341
21
-105.157
0
LINE
8
BLACK
6
CONTINUOUS
10
253.341
20
-105.157
11
253.401
21
-105.459
0
LINE
8
BLACK
6
CONTINUOUS
10
253.401
20
-105.459
11
253.5
21
-105.75
0
LINE
8
BLACK
6
CONTINUOUS
10
253.5
20
-105.75
11
253.636
21
-106.026
0
LINE
8
BLACK
6
CONTINUOUS
10
253.636
20
-106.026
11
253.807
21
-106.282
0
LINE
8
BLACK
6
CONTINUOUS
10
253.807
20
-106.282
11
254.01
21
-106.513
0
LINE
8
BLACK
6
CONTINUOUS
10
254.01
20
-106.513
11
254.241
21
-106.716
0
LINE
8
BLACK
6
CONTINUOUS
10
254.241
20
-106.716
11
254.497
21
-106.887
0
LINE
8
BLACK
6
CONTINUOUS
10
254.497
20
-106.887
11
254.773
21
-107.023
0
LINE
8
BLACK
6
CONTINUOUS
10
254.773
20
-107.023
11
255.064
21
-107.122
0
LINE
8
BLACK
6
CONTINUOUS
10
255.064
20
-107.122
11
255.366
21
-107.182
0
LINE
8
BLACK
6
CONTINUOUS
10
255.366
20
-107.182
11
255.673
21
-107.202
0
LINE
8
BLACK
6
CONTINUOUS
10
255.673
20
-107.202
11
255.98
21
-107.182
0
LINE
8
BLACK
6
CONTINUOUS
10
255.98
20
-107.182
11
256.282
21
-107.122
0
LINE
8
BLACK
6
CONTINUOUS
10
256.282
20
-107.122
11
256.573
21
-107.023
0
LINE
8
BLACK
6
CONTINUOUS
10
256.573
20
-107.023
11
256.849
21
-106.887
0
LINE
8
BLACK
6
CONTINUOUS
10
256.849
20
-106.887
11
257.105
21
-106.716
0
LINE
8
BLACK
6
CONTINUOUS
10
257.105
20
-106.716
11
257.336
21
-106.513
0
LINE
8
BLACK
6
CONTINUOUS
10
257.336
20
-106.513
11
257.539
21
-106.282
0
LINE
8
BLACK
6
CONTINUOUS
10
257.539
20
-106.282
11
257.71
21
-106.026
0
LINE
8
BLACK
6
CONTINUOUS
10
257.71
20
-106.026
11
257.846
21
-105.75
0
LINE
8
BLACK
6
CONTINUOUS
10
257.846
20
-105.75
11
257.945
21
-105.459
0
LINE
8
BLACK
6
CONTINUOUS
10
257.945
20
-105.459
11
258.005
21
-105.157
0
LINE
8
BLACK
6
CONTINUOUS
10
258.005
20
-105.157
11
258.025
21
-104.85
0
LINE
8
BLACK
6
CONTINUOUS
10
258.025
20
-104.85
11
258.005
21
-104.543
0
LINE
8
BLACK
6
CONTINUOUS
10
258.005
20
-104.543
11
257.945
21
-104.241
0
LINE
8
BLACK
6
CONTINUOUS
10
257.945
20
-104.241
11
257.846
21
-103.95
0
LINE
8
BLACK
6
CONTINUOUS
10
257.846
20
-103.95
11
257.71
21
-103.674
0
LINE
8
BLACK
6
CONTINUOUS
10
257.71
20
-103.674
11
257.539
21
-103.418
0
LINE
8
BLACK
6
CONTINUOUS
10
257.539
20
-103.418
11
257.336
21
-103.187
0
LINE
8
BLACK
6
CONTINUOUS
10
257.336
20
-103.187
11
257.105
21
-102.984
0
LINE
8
BLACK
6
CONTINUOUS
10
257.105
20
-102.984
11
256.849
21
-102.813
0
LINE
8
BLACK
6
CONTINUOUS
10
256.849
20
-102.813
11
256.573
21
-102.677
0
LINE
8
BLACK
6
CONTINUOUS
10
256.573
20
-102.677
11
256.282
21
-102.578
0
LINE
8
BLACK
6
CONTINUOUS
10
256.282
20
-102.578
11
255.98
21
-102.518
0
LINE
8
BLACK
6
CONTINUOUS
10
255.98
20
-102.518
11
255.673
21
-102.498
0
LINE
8
BLACK
6
CONTINUOUS
10
255.673
20
-102.498
11
255.366
21
-102.518
0
LINE
8
BLACK
6
CONTINUOUS
10
255.366
20
-102.518
11
255.064
21
-102.578
0
LINE
8
BLACK
6
CONTINUOUS
10
255.064
20
-102.578
11
254.773
21
-102.677
0
LINE
8
BLACK
6
CONTINUOUS
10
254.773
20
-102.677
11
254.497
21
-102.813
0
LINE
8
BLACK
6
CONTINUOUS
10
254.497
20
-102.813
11
254.241
21
-102.984
0
LINE
8
BLACK
6
CONTINUOUS
10
254.241
20
-102.984
11
254.01
21
-103.187
0
LINE
8
BLACK
6
CONTINUOUS
10
254.01
20
-103.187
11
253.807
21
-103.418
0
LINE
8
BLACK
6
CONTINUOUS
10
253.807
20
-103.418
11
253.636
21
-103.674
0
LINE
8
BLACK
6
CONTINUOUS
10
253.636
20
-103.674
11
253.5
21
-103.95
0
LINE
8
BLACK
6
CONTINUOUS
10
253.5
20
-103.95
11
253.401
21
-104.241
0
LINE
8
BLACK
6
CONTINUOUS
10
253.401
20
-104.241
11
253.341
21
-104.543
0
LINE
8
BLACK
6
CONTINUOUS
10
253.341
20
-104.543
11
253.321
21
-104.85
0
LINE
8
BLACK
6
CONTINUOUS
10
117.352
20
-65.85
11
117.372
21
-65.5309
0
LINE
8
BLACK
6
CONTINUOUS
10
117.372
20
-65.5309
11
117.432
21
-65.2168
0
LINE
8
BLACK
6
CONTINUOUS
10
117.432
20
-65.2168
11
117.531
21
-64.9127
0
LINE
8
BLACK
6
CONTINUOUS
10
117.531
20
-64.9127
11
117.667
21
-64.6234
0
LINE
8
BLACK
6
CONTINUOUS
10
117.667
20
-64.6234
11
117.838
21
-64.3534
0
LINE
8
BLACK
6
CONTINUOUS
10
117.838
20
-64.3534
11
118.042
21
-64.1071
0
LINE
8
BLACK
6
CONTINUOUS
10
118.042
20
-64.1071
11
118.275
21
-63.8882
0
LINE
8
BLACK
6
CONTINUOUS
10
118.275
20
-63.8882
11
118.534
21
-63.7003
0
LINE
8
BLACK
6
CONTINUOUS
10
118.534
20
-63.7003
11
118.814
21
-63.5462
0
LINE
8
BLACK
6
CONTINUOUS
10
118.814
20
-63.5462
11
119.111
21
-63.4285
0
LINE
8
BLACK
6
CONTINUOUS
10
119.111
20
-63.4285
11
119.421
21
-63.349
0
LINE
8
BLACK
6
CONTINUOUS
10
119.421
20
-63.349
11
119.738
21
-63.3089
0
LINE
8
BLACK
6
CONTINUOUS
10
119.738
20
-63.3089
11
120.058
21
-63.3089
0
LINE
8
BLACK
6
CONTINUOUS
10
120.058
20
-63.3089
11
120.375
21
-63.349
0
LINE
8
BLACK
6
CONTINUOUS
10
120.375
20
-63.349
11
120.685
21
-63.4285
0
LINE
8
BLACK
6
CONTINUOUS
10
120.685
20
-63.4285
11
120.982
21
-63.5462
0
LINE
8
BLACK
6
CONTINUOUS
10
120.982
20
-63.5462
11
121.262
21
-63.7003
0
LINE
8
BLACK
6
CONTINUOUS
10
121.262
20
-63.7003
11
121.521
21
-63.8882
0
LINE
8
BLACK
6
CONTINUOUS
10
121.521
20
-63.8882
11
121.754
21
-64.1071
0
LINE
8
BLACK
6
CONTINUOUS
10
121.754
20
-64.1071
11
121.958
21
-64.3534
0
LINE
8
BLACK
6
CONTINUOUS
10
121.958
20
-64.3534
11
122.129
21
-64.6234
0
LINE
8
BLACK
6
CONTINUOUS
10
122.129
20
-64.6234
11
122.265
21
-64.9127
0
LINE
8
BLACK
6
CONTINUOUS
10
122.265
20
-64.9127
11
122.364
21
-65.2168
0
LINE
8
BLACK
6
CONTINUOUS
10
122.364
20
-65.2168
11
122.424
21
-65.5309
0
LINE
8
BLACK
6
CONTINUOUS
10
122.424
20
-65.5309
11
122.444
21
-65.85
0
LINE
8
BLACK
6
CONTINUOUS
10
122.444
20
-65.85
11
122.424
21
-66.1691
0
LINE
8
BLACK
6
CONTINUOUS
10
122.424
20
-66.1691
11
122.364
21
-66.4832
0
LINE
8
BLACK
6
CONTINUOUS
10
122.364
20
-66.4832
11
122.265
21
-66.7873
0
LINE
8
BLACK
6
CONTINUOUS
10
122.265
20
-66.7873
11
122.129
21
-67.0766
0
LINE
8
BLACK
6
CONTINUOUS
10
122.129
20
-67.0766
11
121.958
21
-67.3465
0
LINE
8
BLACK
6
CONTINUOUS
10
121.958
20
-67.3465
11
121.754
21
-67.5929
0
LINE
8
BLACK
6
CONTINUOUS
10
121.754
20
-67.5929
11
121.521
21
-67.8118
0
LINE
8
BLACK
6
CONTINUOUS
10
121.521
20
-67.8118
11
121.262
21
-67.9997
0
LINE
8
BLACK
6
CONTINUOUS
10
121.262
20
-67.9997
11
120.982
21
-68.1538
0
LINE
8
BLACK
6
CONTINUOUS
10
120.982
20
-68.1538
11
120.685
21
-68.2715
0
LINE
8
BLACK
6
CONTINUOUS
10
120.685
20
-68.2715
11
120.375
21
-68.351
0
LINE
8
BLACK
6
CONTINUOUS
10
120.375
20
-68.351
11
120.058
21
-68.3911
0
LINE
8
BLACK
6
CONTINUOUS
10
120.058
20
-68.3911
11
119.738
21
-68.3911
0
LINE
8
BLACK
6
CONTINUOUS
10
119.738
20
-68.3911
11
119.421
21
-68.351
0
LINE
8
BLACK
6
CONTINUOUS
10
119.421
20
-68.351
11
119.111
21
-68.2715
0
LINE
8
BLACK
6
CONTINUOUS
10
119.111
20
-68.2715
11
118.814
21
-68.1538
0
LINE
8
BLACK
6
CONTINUOUS
10
118.814
20
-68.1538
11
118.534
21
-67.9997
0
LINE
8
BLACK
6
CONTINUOUS
10
118.534
20
-67.9997
11
118.275
21
-67.8118
0
LINE
8
BLACK
6
CONTINUOUS
10
118.275
20
-67.8118
11
118.042
21
-67.5929
0
LINE
8
BLACK
6
CONTINUOUS
10
118.042
20
-67.5929
11
117.838
21
-67.3465
0
LINE
8
BLACK
6
CONTINUOUS
10
117.838
20
-67.3465
11
117.667
21
-67.0766
0
LINE
8
BLACK
6
CONTINUOUS
10
117.667
20
-67.0766
11
117.531
21
-66.7873
0
LINE
8
BLACK
6
CONTINUOUS
10
117.531
20
-66.7873
11
117.432
21
-66.4832
0
LINE
8
BLACK
6
CONTINUOUS
10
117.432
20
-66.4832
11
117.372
21
-66.1691
0
LINE
8
BLACK
6
CONTINUOUS
10
117.372
20
-66.1691
11
117.352
21
-65.85
0
LINE
8
BLACK
6
CONTINUOUS
10
117.497
20
-65.85
11
117.516
21
-66.1509
0
LINE
8
BLACK
6
CONTINUOUS
10
117.516
20
-66.1509
11
117.573
21
-66.4471
0
LINE
8
BLACK
6
CONTINUOUS
10
117.573
20
-66.4471
11
117.666
21
-66.7338
0
LINE
8
BLACK
6
CONTINUOUS
10
117.666
20
-66.7338
11
117.794
21
-67.0066
0
LINE
8
BLACK
6
CONTINUOUS
10
117.794
20
-67.0066
11
117.956
21
-67.2612
0
LINE
8
BLACK
6
CONTINUOUS
10
117.956
20
-67.2612
11
118.148
21
-67.4935
0
LINE
8
BLACK
6
CONTINUOUS
10
118.148
20
-67.4935
11
118.368
21
-67.6999
0
LINE
8
BLACK
6
CONTINUOUS
10
118.368
20
-67.6999
11
118.612
21
-67.8771
0
LINE
8
BLACK
6
CONTINUOUS
10
118.612
20
-67.8771
11
118.876
21
-68.0223
0
LINE
8
BLACK
6
CONTINUOUS
10
118.876
20
-68.0223
11
119.156
21
-68.1333
0
LINE
8
BLACK
6
CONTINUOUS
10
119.156
20
-68.1333
11
119.448
21
-68.2083
0
LINE
8
BLACK
6
CONTINUOUS
10
119.448
20
-68.2083
11
119.747
21
-68.2461
0
LINE
8
BLACK
6
CONTINUOUS
10
119.747
20
-68.2461
11
120.049
21
-68.2461
0
LINE
8
BLACK
6
CONTINUOUS
10
120.049
20
-68.2461
11
120.348
21
-68.2083
0
LINE
8
BLACK
6
CONTINUOUS
10
120.348
20
-68.2083
11
120.64
21
-68.1333
0
LINE
8
BLACK
6
CONTINUOUS
10
120.64
20
-68.1333
11
120.92
21
-68.0223
0
LINE
8
BLACK
6
CONTINUOUS
10
120.92
20
-68.0223
11
121.184
21
-67.8771
0
LINE
8
BLACK
6
CONTINUOUS
10
121.184
20
-67.8771
11
121.428
21
-67.6999
0
LINE
8
BLACK
6
CONTINUOUS
10
121.428
20
-67.6999
11
121.648
21
-67.4935
0
LINE
8
BLACK
6
CONTINUOUS
10
121.648
20
-67.4935
11
121.84
21
-67.2612
0
LINE
8
BLACK
6
CONTINUOUS
10
121.84
20
-67.2612
11
122.002
21
-67.0066
0
LINE
8
BLACK
6
CONTINUOUS
10
122.002
20
-67.0066
11
122.13
21
-66.7338
0
LINE
8
BLACK
6
CONTINUOUS
10
122.13
20
-66.7338
11
122.223
21
-66.4471
0
LINE
8
BLACK
6
CONTINUOUS
10
122.223
20
-66.4471
11
122.28
21
-66.1509
0
LINE
8
BLACK
6
CONTINUOUS
10
122.28
20
-66.1509
11
122.299
21
-65.85
0
LINE
8
BLACK
6
CONTINUOUS
10
122.299
20
-65.85
11
122.28
21
-65.5491
0
LINE
8
BLACK
6
CONTINUOUS
10
122.28
20
-65.5491
11
122.223
21
-65.2529
0
LINE
8
BLACK
6
CONTINUOUS
10
122.223
20
-65.2529
11
122.13
21
-64.9662
0
LINE
8
BLACK
6
CONTINUOUS
10
122.13
20
-64.9662
11
122.002
21
-64.6934
0
LINE
8
BLACK
6
CONTINUOUS
10
122.002
20
-64.6934
11
121.84
21
-64.4388
0
LINE
8
BLACK
6
CONTINUOUS
10
121.84
20
-64.4388
11
121.648
21
-64.2065
0
LINE
8
BLACK
6
CONTINUOUS
10
121.648
20
-64.2065
11
121.428
21
-64.0001
0
LINE
8
BLACK
6
CONTINUOUS
10
121.428
20
-64.0001
11
121.184
21
-63.8229
0
LINE
8
BLACK
6
CONTINUOUS
10
121.184
20
-63.8229
11
120.92
21
-63.6777
0
LINE
8
BLACK
6
CONTINUOUS
10
120.92
20
-63.6777
11
120.64
21
-63.5667
0
LINE
8
BLACK
6
CONTINUOUS
10
120.64
20
-63.5667
11
120.348
21
-63.4917
0
LINE
8
BLACK
6
CONTINUOUS
10
120.348
20
-63.4917
11
120.049
21
-63.4539
0
LINE
8
BLACK
6
CONTINUOUS
10
120.049
20
-63.4539
11
119.747
21
-63.4539
0
LINE
8
BLACK
6
CONTINUOUS
10
119.747
20
-63.4539
11
119.448
21
-63.4917
0
LINE
8
BLACK
6
CONTINUOUS
10
119.448
20
-63.4917
11
119.156
21
-63.5667
0
LINE
8
BLACK
6
CONTINUOUS
10
119.156
20
-63.5667
11
118.876
21
-63.6777
0
LINE
8
BLACK
6
CONTINUOUS
10
118.876
20
-63.6777
11
118.612
21
-63.8229
0
LINE
8
BLACK
6
CONTINUOUS
10
118.612
20
-63.8229
11
118.368
21
-64.0001
0
LINE
8
BLACK
6
CONTINUOUS
10
118.368
20
-64.0001
11
118.148
21
-64.2065
0
LINE
8
BLACK
6
CONTINUOUS
10
118.148
20
-64.2065
11
117.956
21
-64.4388
0
LINE
8
BLACK
6
CONTINUOUS
10
117.956
20
-64.4388
11
117.794
21
-64.6934
0
LINE
8
BLACK
6
CONTINUOUS
10
117.794
20
-64.6934
11
117.666
21
-64.9662
0
LINE
8
BLACK
6
CONTINUOUS
10
117.666
20
-64.9662
11
117.573
21
-65.2529
0
LINE
8
BLACK
6
CONTINUOUS
10
117.573
20
-65.2529
11
117.516
21
-65.5491
0
LINE
8
BLACK
6
CONTINUOUS
10
117.516
20
-65.5491
11
117.497
21
-65.85
0
LINE
8
BLACK
6
CONTINUOUS
10
174.696
20
-65.525
11
174.716
21
-65.2114
0
LINE
8
BLACK
6
CONTINUOUS
10
174.716
20
-65.2114
11
174.775
21
-64.9028
0
LINE
8
BLACK
6
CONTINUOUS
10
174.775
20
-64.9028
11
174.872
21
-64.6039
0
LINE
8
BLACK
6
CONTINUOUS
10
174.872
20
-64.6039
11
175.005
21
-64.3196
0
LINE
8
BLACK
6
CONTINUOUS
10
175.005
20
-64.3196
11
175.174
21
-64.0543
0
LINE
8
BLACK
6
CONTINUOUS
10
175.174
20
-64.0543
11
175.374
21
-63.8122
0
LINE
8
BLACK
6
CONTINUOUS
10
175.374
20
-63.8122
11
175.603
21
-63.5971
0
LINE
8
BLACK
6
CONTINUOUS
10
175.603
20
-63.5971
11
175.857
21
-63.4124
0
LINE
8
BLACK
6
CONTINUOUS
10
175.857
20
-63.4124
11
176.133
21
-63.2611
0
LINE
8
BLACK
6
CONTINUOUS
10
176.133
20
-63.2611
11
176.425
21
-63.1454
0
LINE
8
BLACK
6
CONTINUOUS
10
176.425
20
-63.1454
11
176.729
21
-63.0673
0
LINE
8
BLACK
6
CONTINUOUS
10
176.729
20
-63.0673
11
177.041
21
-63.0279
0
LINE
8
BLACK
6
CONTINUOUS
10
177.041
20
-63.0279
11
177.355
21
-63.0279
0
LINE
8
BLACK
6
CONTINUOUS
10
177.355
20
-63.0279
11
177.667
21
-63.0673
0
LINE
8
BLACK
6
CONTINUOUS
10
177.667
20
-63.0673
11
177.971
21
-63.1454
0
LINE
8
BLACK
6
CONTINUOUS
10
177.971
20
-63.1454
11
178.263
21
-63.2611
0
LINE
8
BLACK
6
CONTINUOUS
10
178.263
20
-63.2611
11
178.539
21
-63.4124
0
LINE
8
BLACK
6
CONTINUOUS
10
178.539
20
-63.4124
11
178.793
21
-63.5971
0
LINE
8
BLACK
6
CONTINUOUS
10
178.793
20
-63.5971
11
179.022
21
-63.8122
0
LINE
8
BLACK
6
CONTINUOUS
10
179.022
20
-63.8122
11
179.222
21
-64.0543
0
LINE
8
BLACK
6
CONTINUOUS
10
179.222
20
-64.0543
11
179.391
21
-64.3196
0
LINE
8
BLACK
6
CONTINUOUS
10
179.391
20
-64.3196
11
179.524
21
-64.6039
0
LINE
8
BLACK
6
CONTINUOUS
10
179.524
20
-64.6039
11
179.621
21
-64.9028
0
LINE
8
BLACK
6
CONTINUOUS
10
179.621
20
-64.9028
11
179.68
21
-65.2114
0
LINE
8
BLACK
6
CONTINUOUS
10
179.68
20
-65.2114
11
179.7
21
-65.525
0
LINE
8
BLACK
6
CONTINUOUS
10
179.7
20
-65.525
11
179.68
21
-65.8386
0
LINE
8
BLACK
6
CONTINUOUS
10
179.68
20
-65.8386
11
179.621
21
-66.1472
0
LINE
8
BLACK
6
CONTINUOUS
10
179.621
20
-66.1472
11
179.524
21
-66.4461
0
LINE
8
BLACK
6
CONTINUOUS
10
179.524
20
-66.4461
11
179.391
21
-66.7304
0
LINE
8
BLACK
6
CONTINUOUS
10
179.391
20
-66.7304
11
179.222
21
-66.9957
0
LINE
8
BLACK
6
CONTINUOUS
10
179.222
20
-66.9957
11
179.022
21
-67.2378
0
LINE
8
BLACK
6
CONTINUOUS
10
179.022
20
-67.2378
11
178.793
21
-67.4529
0
LINE
8
BLACK
6
CONTINUOUS
10
178.793
20
-67.4529
11
178.539
21
-67.6376
0
LINE
8
BLACK
6
CONTINUOUS
10
178.539
20
-67.6376
11
178.263
21
-67.7889
0
LINE
8
BLACK
6
CONTINUOUS
10
178.263
20
-67.7889
11
177.971
21
-67.9046
0
LINE
8
BLACK
6
CONTINUOUS
10
177.971
20
-67.9046
11
177.667
21
-67.9827
0
LINE
8
BLACK
6
CONTINUOUS
10
177.667
20
-67.9827
11
177.355
21
-68.0221
0
LINE
8
BLACK
6
CONTINUOUS
10
177.355
20
-68.0221
11
177.041
21
-68.0221
0
LINE
8
BLACK
6
CONTINUOUS
10
177.041
20
-68.0221
11
176.729
21
-67.9827
0
LINE
8
BLACK
6
CONTINUOUS
10
176.729
20
-67.9827
11
176.425
21
-67.9046
0
LINE
8
BLACK
6
CONTINUOUS
10
176.425
20
-67.9046
11
176.133
21
-67.7889
0
LINE
8
BLACK
6
CONTINUOUS
10
176.133
20
-67.7889
11
175.857
21
-67.6376
0
LINE
8
BLACK
6
CONTINUOUS
10
175.857
20
-67.6376
11
175.603
21
-67.4529
0
LINE
8
BLACK
6
CONTINUOUS
10
175.603
20
-67.4529
11
175.374
21
-67.2378
0
LINE
8
BLACK
6
CONTINUOUS
10
175.374
20
-67.2378
11
175.174
21
-66.9957
0
LINE
8
BLACK
6
CONTINUOUS
10
175.174
20
-66.9957
11
175.005
21
-66.7304
0
LINE
8
BLACK
6
CONTINUOUS
10
175.005
20
-66.7304
11
174.872
21
-66.4461
0
LINE
8
BLACK
6
CONTINUOUS
10
174.872
20
-66.4461
11
174.775
21
-66.1472
0
LINE
8
BLACK
6
CONTINUOUS
10
174.775
20
-66.1472
11
174.716
21
-65.8386
0
LINE
8
BLACK
6
CONTINUOUS
10
174.716
20
-65.8386
11
174.696
21
-65.525
0
LINE
8
BLACK
6
CONTINUOUS
10
174.841
20
-65.525
11
174.861
21
-65.8327
0
LINE
8
BLACK
6
CONTINUOUS
10
174.861
20
-65.8327
11
174.921
21
-66.1351
0
LINE
8
BLACK
6
CONTINUOUS
10
174.921
20
-66.1351
11
175.02
21
-66.427
0
LINE
8
BLACK
6
CONTINUOUS
10
175.02
20
-66.427
11
175.157
21
-66.7036
0
LINE
8
BLACK
6
CONTINUOUS
10
175.157
20
-66.7036
11
175.328
21
-66.9599
0
LINE
8
BLACK
6
CONTINUOUS
10
175.328
20
-66.9599
11
175.531
21
-67.1917
0
LINE
8
BLACK
6
CONTINUOUS
10
175.531
20
-67.1917
11
175.763
21
-67.395
0
LINE
8
BLACK
6
CONTINUOUS
10
175.763
20
-67.395
11
176.019
21
-67.5663
0
LINE
8
BLACK
6
CONTINUOUS
10
176.019
20
-67.5663
11
176.296
21
-67.7027
0
LINE
8
BLACK
6
CONTINUOUS
10
176.296
20
-67.7027
11
176.588
21
-67.8018
0
LINE
8
BLACK
6
CONTINUOUS
10
176.588
20
-67.8018
11
176.89
21
-67.8619
0
LINE
8
BLACK
6
CONTINUOUS
10
176.89
20
-67.8619
11
177.198
21
-67.8821
0
LINE
8
BLACK
6
CONTINUOUS
10
177.198
20
-67.8821
11
177.506
21
-67.8619
0
LINE
8
BLACK
6
CONTINUOUS
10
177.506
20
-67.8619
11
177.808
21
-67.8018
0
LINE
8
BLACK
6
CONTINUOUS
10
177.808
20
-67.8018
11
178.1
21
-67.7027
0
LINE
8
BLACK
6
CONTINUOUS
10
178.1
20
-67.7027
11
178.377
21
-67.5663
0
LINE
8
BLACK
6
CONTINUOUS
10
178.377
20
-67.5663
11
178.633
21
-67.395
0
LINE
8
BLACK
6
CONTINUOUS
10
178.633
20
-67.395
11
178.865
21
-67.1917
0
LINE
8
BLACK
6
CONTINUOUS
10
178.865
20
-67.1917
11
179.068
21
-66.9599
0
LINE
8
BLACK
6
CONTINUOUS
10
179.068
20
-66.9599
11
179.239
21
-66.7036
0
LINE
8
BLACK
6
CONTINUOUS
10
179.239
20
-66.7036
11
179.376
21
-66.427
0
LINE
8
BLACK
6
CONTINUOUS
10
179.376
20
-66.427
11
179.475
21
-66.1351
0
LINE
8
BLACK
6
CONTINUOUS
10
179.475
20
-66.1351
11
179.535
21
-65.8327
0
LINE
8
BLACK
6
CONTINUOUS
10
179.535
20
-65.8327
11
179.555
21
-65.525
0
LINE
8
BLACK
6
CONTINUOUS
10
179.555
20
-65.525
11
179.535
21
-65.2173
0
LINE
8
BLACK
6
CONTINUOUS
10
179.535
20
-65.2173
11
179.475
21
-64.9149
0
LINE
8
BLACK
6
CONTINUOUS
10
179.475
20
-64.9149
11
179.376
21
-64.623
0
LINE
8
BLACK
6
CONTINUOUS
10
179.376
20
-64.623
11
179.239
21
-64.3464
0
LINE
8
BLACK
6
CONTINUOUS
10
179.239
20
-64.3464
11
179.068
21
-64.0901
0
LINE
8
BLACK
6
CONTINUOUS
10
179.068
20
-64.0901
11
178.865
21
-63.8583
0
LINE
8
BLACK
6
CONTINUOUS
10
178.865
20
-63.8583
11
178.633
21
-63.655
0
LINE
8
BLACK
6
CONTINUOUS
10
178.633
20
-63.655
11
178.377
21
-63.4837
0
LINE
8
BLACK
6
CONTINUOUS
10
178.377
20
-63.4837
11
178.1
21
-63.3473
0
LINE
8
BLACK
6
CONTINUOUS
10
178.1
20
-63.3473
11
177.808
21
-63.2482
0
LINE
8
BLACK
6
CONTINUOUS
10
177.808
20
-63.2482
11
177.506
21
-63.1881
0
LINE
8
BLACK
6
CONTINUOUS
10
177.506
20
-63.1881
11
177.198
21
-63.1679
0
LINE
8
BLACK
6
CONTINUOUS
10
177.198
20
-63.1679
11
176.89
21
-63.1881
0
LINE
8
BLACK
6
CONTINUOUS
10
176.89
20
-63.1881
11
176.588
21
-63.2482
0
LINE
8
BLACK
6
CONTINUOUS
10
176.588
20
-63.2482
11
176.296
21
-63.3473
0
LINE
8
BLACK
6
CONTINUOUS
10
176.296
20
-63.3473
11
176.019
21
-63.4837
0
LINE
8
BLACK
6
CONTINUOUS
10
176.019
20
-63.4837
11
175.763
21
-63.655
0
LINE
8
BLACK
6
CONTINUOUS
10
175.763
20
-63.655
11
175.531
21
-63.8583
0
LINE
8
BLACK
6
CONTINUOUS
10
175.531
20
-63.8583
11
175.328
21
-64.0901
0
LINE
8
BLACK
6
CONTINUOUS
10
175.328
20
-64.0901
11
175.157
21
-64.3464
0
LINE
8
BLACK
6
CONTINUOUS
10
175.157
20
-64.3464
11
175.02
21
-64.623
0
LINE
8
BLACK
6
CONTINUOUS
10
175.02
20
-64.623
11
174.921
21
-64.9149
0
LINE
8
BLACK
6
CONTINUOUS
10
174.921
20
-64.9149
11
174.861
21
-65.2173
0
LINE
8
BLACK
6
CONTINUOUS
10
174.861
20
-65.2173
11
174.841
21
-65.525
0
LINE
8
BLACK
6
CONTINUOUS
10
232.913
20
-45.5
11
232.933
21
-45.1822
0
LINE
8
BLACK
6
CONTINUOUS
10
232.933
20
-45.1822
11
232.992
21
-44.8695
0
LINE
8
BLACK
6
CONTINUOUS
10
232.992
20
-44.8695
11
233.091
21
-44.5667
0
LINE
8
BLACK
6
CONTINUOUS
10
233.091
20
-44.5667
11
233.226
21
-44.2786
0
LINE
8
BLACK
6
CONTINUOUS
10
233.226
20
-44.2786
11
233.397
21
-44.0098
0
LINE
8
BLACK
6
CONTINUOUS
10
233.397
20
-44.0098
11
233.6
21
-43.7645
0
LINE
8
BLACK
6
CONTINUOUS
10
233.6
20
-43.7645
11
233.832
21
-43.5465
0
LINE
8
BLACK
6
CONTINUOUS
10
233.832
20
-43.5465
11
234.09
21
-43.3594
0
LINE
8
BLACK
6
CONTINUOUS
10
234.09
20
-43.3594
11
234.369
21
-43.206
0
LINE
8
BLACK
6
CONTINUOUS
10
234.369
20
-43.206
11
234.665
21
-43.0888
0
LINE
8
BLACK
6
CONTINUOUS
10
234.665
20
-43.0888
11
234.973
21
-43.0096
0
LINE
8
BLACK
6
CONTINUOUS
10
234.973
20
-43.0096
11
235.289
21
-42.9697
0
LINE
8
BLACK
6
CONTINUOUS
10
235.289
20
-42.9697
11
235.607
21
-42.9697
0
LINE
8
BLACK
6
CONTINUOUS
10
235.607
20
-42.9697
11
235.923
21
-43.0096
0
LINE
8
BLACK
6
CONTINUOUS
10
235.923
20
-43.0096
11
236.231
21
-43.0888
0
LINE
8
BLACK
6
CONTINUOUS
10
236.231
20
-43.0888
11
236.527
21
-43.206
0
LINE
8
BLACK
6
CONTINUOUS
10
236.527
20
-43.206
11
236.806
21
-43.3594
0
LINE
8
BLACK
6
CONTINUOUS
10
236.806
20
-43.3594
11
237.064
21
-43.5465
0
LINE
8
BLACK
6
CONTINUOUS
10
237.064
20
-43.5465
11
237.296
21
-43.7645
0
LINE
8
BLACK
6
CONTINUOUS
10
237.296
20
-43.7645
11
237.499
21
-44.0098
0
LINE
8
BLACK
6
CONTINUOUS
10
237.499
20
-44.0098
11
237.67
21
-44.2786
0
LINE
8
BLACK
6
CONTINUOUS
10
237.67
20
-44.2786
11
237.805
21
-44.5667
0
LINE
8
BLACK
6
CONTINUOUS
10
237.805
20
-44.5667
11
237.904
21
-44.8695
0
LINE
8
BLACK
6
CONTINUOUS
10
237.904
20
-44.8695
11
237.963
21
-45.1822
0
LINE
8
BLACK
6
CONTINUOUS
10
237.963
20
-45.1822
11
237.983
21
-45.5
0
LINE
8
BLACK
6
CONTINUOUS
10
237.983
20
-45.5
11
237.963
21
-45.8178
0
LINE
8
BLACK
6
CONTINUOUS
10
237.963
20
-45.8178
11
237.904
21
-46.1305
0
LINE
8
BLACK
6
CONTINUOUS
10
237.904
20
-46.1305
11
237.805
21
-46.4333
0
LINE
8
BLACK
6
CONTINUOUS
10
237.805
20
-46.4333
11
237.67
21
-46.7214
0
LINE
8
BLACK
6
CONTINUOUS
10
237.67
20
-46.7214
11
237.499
21
-46.9902
0
LINE
8
BLACK
6
CONTINUOUS
10
237.499
20
-46.9902
11
237.296
21
-47.2355
0
LINE
8
BLACK
6
CONTINUOUS
10
237.296
20
-47.2355
11
237.064
21
-47.4535
0
LINE
8
BLACK
6
CONTINUOUS
10
237.064
20
-47.4535
11
236.806
21
-47.6406
0
LINE
8
BLACK
6
CONTINUOUS
10
236.806
20
-47.6406
11
236.527
21
-47.794
0
LINE
8
BLACK
6
CONTINUOUS
10
236.527
20
-47.794
11
236.231
21
-47.9112
0
LINE
8
BLACK
6
CONTINUOUS
10
236.231
20
-47.9112
11
235.923
21
-47.9904
0
LINE
8
BLACK
6
CONTINUOUS
10
235.923
20
-47.9904
11
235.607
21
-48.0303
0
LINE
8
BLACK
6
CONTINUOUS
10
235.607
20
-48.0303
11
235.289
21
-48.0303
0
LINE
8
BLACK
6
CONTINUOUS
10
235.289
20
-48.0303
11
234.973
21
-47.9904
0
LINE
8
BLACK
6
CONTINUOUS
10
234.973
20
-47.9904
11
234.665
21
-47.9112
0
LINE
8
BLACK
6
CONTINUOUS
10
234.665
20
-47.9112
11
234.369
21
-47.794
0
LINE
8
BLACK
6
CONTINUOUS
10
234.369
20
-47.794
11
234.09
21
-47.6406
0
LINE
8
BLACK
6
CONTINUOUS
10
234.09
20
-47.6406
11
233.832
21
-47.4535
0
LINE
8
BLACK
6
CONTINUOUS
10
233.832
20
-47.4535
11
233.6
21
-47.2355
0
LINE
8
BLACK
6
CONTINUOUS
10
233.6
20
-47.2355
11
233.397
21
-46.9902
0
LINE
8
BLACK
6
CONTINUOUS
10
233.397
20
-46.9902
11
233.226
21
-46.7214
0
LINE
8
BLACK
6
CONTINUOUS
10
233.226
20
-46.7214
11
233.091
21
-46.4333
0
LINE
8
BLACK
6
CONTINUOUS
10
233.091
20
-46.4333
11
232.992
21
-46.1305
0
LINE
8
BLACK
6
CONTINUOUS
10
232.992
20
-46.1305
11
232.933
21
-45.8178
0
LINE
8
BLACK
6
CONTINUOUS
10
232.933
20
-45.8178
11
232.913
21
-45.5
0
LINE
8
BLACK
6
CONTINUOUS
10
233.058
20
-45.5
11
233.077
21
-45.7995
0
LINE
8
BLACK
6
CONTINUOUS
10
233.077
20
-45.7995
11
233.133
21
-46.0944
0
LINE
8
BLACK
6
CONTINUOUS
10
233.133
20
-46.0944
11
233.226
21
-46.3798
0
LINE
8
BLACK
6
CONTINUOUS
10
233.226
20
-46.3798
11
233.354
21
-46.6514
0
LINE
8
BLACK
6
CONTINUOUS
10
233.354
20
-46.6514
11
233.514
21
-46.9048
0
LINE
8
BLACK
6
CONTINUOUS
10
233.514
20
-46.9048
11
233.706
21
-47.1361
0
LINE
8
BLACK
6
CONTINUOUS
10
233.706
20
-47.1361
11
233.925
21
-47.3415
0
LINE
8
BLACK
6
CONTINUOUS
10
233.925
20
-47.3415
11
234.167
21
-47.518
0
LINE
8
BLACK
6
CONTINUOUS
10
234.167
20
-47.518
11
234.43
21
-47.6626
0
LINE
8
BLACK
6
CONTINUOUS
10
234.43
20
-47.6626
11
234.709
21
-47.773
0
LINE
8
BLACK
6
CONTINUOUS
10
234.709
20
-47.773
11
235
21
-47.8477
0
LINE
8
BLACK
6
CONTINUOUS
10
235
20
-47.8477
11
235.298
21
-47.8853
0
LINE
8
BLACK
6
CONTINUOUS
10
235.298
20
-47.8853
11
235.598
21
-47.8853
0
LINE
8
BLACK
6
CONTINUOUS
10
235.598
20
-47.8853
11
235.896
21
-47.8477
0
LINE
8
BLACK
6
CONTINUOUS
10
235.896
20
-47.8477
11
236.187
21
-47.773
0
LINE
8
BLACK
6
CONTINUOUS
10
236.187
20
-47.773
11
236.466
21
-47.6626
0
LINE
8
BLACK
6
CONTINUOUS
10
236.466
20
-47.6626
11
236.729
21
-47.518
0
LINE
8
BLACK
6
CONTINUOUS
10
236.729
20
-47.518
11
236.971
21
-47.3415
0
LINE
8
BLACK
6
CONTINUOUS
10
236.971
20
-47.3415
11
237.19
21
-47.1361
0
LINE
8
BLACK
6
CONTINUOUS
10
237.19
20
-47.1361
11
237.382
21
-46.9048
0
LINE
8
BLACK
6
CONTINUOUS
10
237.382
20
-46.9048
11
237.542
21
-46.6514
0
LINE
8
BLACK
6
CONTINUOUS
10
237.542
20
-46.6514
11
237.67
21
-46.3798
0
LINE
8
BLACK
6
CONTINUOUS
10
237.67
20
-46.3798
11
237.763
21
-46.0944
0
LINE
8
BLACK
6
CONTINUOUS
10
237.763
20
-46.0944
11
237.819
21
-45.7995
0
LINE
8
BLACK
6
CONTINUOUS
10
237.819
20
-45.7995
11
237.838
21
-45.5
0
LINE
8
BLACK
6
CONTINUOUS
10
237.838
20
-45.5
11
237.819
21
-45.2004
0
LINE
8
BLACK
6
CONTINUOUS
10
237.819
20
-45.2004
11
237.763
21
-44.9056
0
LINE
8
BLACK
6
CONTINUOUS
10
237.763
20
-44.9056
11
237.67
21
-44.6202
0
LINE
8
BLACK
6
CONTINUOUS
10
237.67
20
-44.6202
11
237.542
21
-44.3486
0
LINE
8
BLACK
6
CONTINUOUS
10
237.542
20
-44.3486
11
237.382
21
-44.0952
0
LINE
8
BLACK
6
CONTINUOUS
10
237.382
20
-44.0952
11
237.19
21
-43.8639
0
LINE
8
BLACK
6
CONTINUOUS
10
237.19
20
-43.8639
11
236.971
21
-43.6585
0
LINE
8
BLACK
6
CONTINUOUS
10
236.971
20
-43.6585
11
236.729
21
-43.482
0
LINE
8
BLACK
6
CONTINUOUS
10
236.729
20
-43.482
11
236.466
21
-43.3374
0
LINE
8
BLACK
6
CONTINUOUS
10
236.466
20
-43.3374
11
236.187
21
-43.2269
0
LINE
8
BLACK
6
CONTINUOUS
10
236.187
20
-43.2269
11
235.896
21
-43.1523
0
LINE
8
BLACK
6
CONTINUOUS
10
235.896
20
-43.1523
11
235.598
21
-43.1147
0
LINE
8
BLACK
6
CONTINUOUS
10
235.598
20
-43.1147
11
235.298
21
-43.1147
0
LINE
8
BLACK
6
CONTINUOUS
10
235.298
20
-43.1147
11
235
21
-43.1523
0
LINE
8
BLACK
6
CONTINUOUS
10
235
20
-43.1523
11
234.709
21
-43.2269
0
LINE
8
BLACK
6
CONTINUOUS
10
234.709
20
-43.2269
11
234.43
21
-43.3374
0
LINE
8
BLACK
6
CONTINUOUS
10
234.43
20
-43.3374
11
234.167
21
-43.482
0
LINE
8
BLACK
6
CONTINUOUS
10
234.167
20
-43.482
11
233.925
21
-43.6585
0
LINE
8
BLACK
6
CONTINUOUS
10
233.925
20
-43.6585
11
233.706
21
-43.8639
0
LINE
8
BLACK
6
CONTINUOUS
10
233.706
20
-43.8639
11
233.514
21
-44.0952
0
LINE
8
BLACK
6
CONTINUOUS
10
233.514
20
-44.0952
11
233.354
21
-44.3486
0
LINE
8
BLACK
6
CONTINUOUS
10
233.354
20
-44.3486
11
233.226
21
-44.6202
0
LINE
8
BLACK
6
CONTINUOUS
10
233.226
20
-44.6202
11
233.133
21
-44.9056
0
LINE
8
BLACK
6
CONTINUOUS
10
233.133
20
-44.9056
11
233.077
21
-45.2004
0
LINE
8
BLACK
6
CONTINUOUS
10
233.077
20
-45.2004
11
233.058
21
-45.5
0
LINE
8
BLACK
6
CONTINUOUS
10
59.7377
20
-45.425
11
59.7577
21
-45.1072
0
LINE
8
BLACK
6
CONTINUOUS
10
59.7577
20
-45.1072
11
59.8173
21
-44.7945
0
LINE
8
BLACK
6
CONTINUOUS
10
59.8173
20
-44.7945
11
59.9157
21
-44.4917
0
LINE
8
BLACK
6
CONTINUOUS
10
59.9157
20
-44.4917
11
60.0513
21
-44.2036
0
LINE
8
BLACK
6
CONTINUOUS
10
60.0513
20
-44.2036
11
60.2219
21
-43.9348
0
LINE
8
BLACK
6
CONTINUOUS
10
60.2219
20
-43.9348
11
60.4248
21
-43.6895
0
LINE
8
BLACK
6
CONTINUOUS
10
60.4248
20
-43.6895
11
60.6569
21
-43.4715
0
LINE
8
BLACK
6
CONTINUOUS
10
60.6569
20
-43.4715
11
60.9145
21
-43.2844
0
LINE
8
BLACK
6
CONTINUOUS
10
60.9145
20
-43.2844
11
61.1935
21
-43.131
0
LINE
8
BLACK
6
CONTINUOUS
10
61.1935
20
-43.131
11
61.4895
21
-43.0138
0
LINE
8
BLACK
6
CONTINUOUS
10
61.4895
20
-43.0138
11
61.7979
21
-42.9346
0
LINE
8
BLACK
6
CONTINUOUS
10
61.7979
20
-42.9346
11
62.1138
21
-42.8947
0
LINE
8
BLACK
6
CONTINUOUS
10
62.1138
20
-42.8947
11
62.4322
21
-42.8947
0
LINE
8
BLACK
6
CONTINUOUS
10
62.4322
20
-42.8947
11
62.7481
21
-42.9346
0
LINE
8
BLACK
6
CONTINUOUS
10
62.7481
20
-42.9346
11
63.0565
21
-43.0138
0
LINE
8
BLACK
6
CONTINUOUS
10
63.0565
20
-43.0138
11
63.3525
21
-43.131
0
LINE
8
BLACK
6
CONTINUOUS
10
63.3525
20
-43.131
11
63.6315
21
-43.2844
0
LINE
8
BLACK
6
CONTINUOUS
10
63.6315
20
-43.2844
11
63.8891
21
-43.4715
0
LINE
8
BLACK
6
CONTINUOUS
10
63.8891
20
-43.4715
11
64.1212
21
-43.6895
0
LINE
8
BLACK
6
CONTINUOUS
10
64.1212
20
-43.6895
11
64.3241
21
-43.9348
0
LINE
8
BLACK
6
CONTINUOUS
10
64.3241
20
-43.9348
11
64.4947
21
-44.2036
0
LINE
8
BLACK
6
CONTINUOUS
10
64.4947
20
-44.2036
11
64.6303
21
-44.4917
0
LINE
8
BLACK
6
CONTINUOUS
10
64.6303
20
-44.4917
11
64.7287
21
-44.7945
0
LINE
8
BLACK
6
CONTINUOUS
10
64.7287
20
-44.7945
11
64.7883
21
-45.1072
0
LINE
8
BLACK
6
CONTINUOUS
10
64.7883
20
-45.1072
11
64.8083
21
-45.425
0
LINE
8
BLACK
6
CONTINUOUS
10
64.8083
20
-45.425
11
64.7883
21
-45.7428
0
LINE
8
BLACK
6
CONTINUOUS
10
64.7883
20
-45.7428
11
64.7287
21
-46.0555
0
LINE
8
BLACK
6
CONTINUOUS
10
64.7287
20
-46.0555
11
64.6303
21
-46.3583
0
LINE
8
BLACK
6
CONTINUOUS
10
64.6303
20
-46.3583
11
64.4947
21
-46.6464
0
LINE
8
BLACK
6
CONTINUOUS
10
64.4947
20
-46.6464
11
64.3241
21
-46.9152
0
LINE
8
BLACK
6
CONTINUOUS
10
64.3241
20
-46.9152
11
64.1212
21
-47.1605
0
LINE
8
BLACK
6
CONTINUOUS
10
64.1212
20
-47.1605
11
63.8891
21
-47.3785
0
LINE
8
BLACK
6
CONTINUOUS
10
63.8891
20
-47.3785
11
63.6315
21
-47.5656
0
LINE
8
BLACK
6
CONTINUOUS
10
63.6315
20
-47.5656
11
63.3525
21
-47.719
0
LINE
8
BLACK
6
CONTINUOUS
10
63.3525
20
-47.719
11
63.0565
21
-47.8362
0
LINE
8
BLACK
6
CONTINUOUS
10
63.0565
20
-47.8362
11
62.7481
21
-47.9154
0
LINE
8
BLACK
6
CONTINUOUS
10
62.7481
20
-47.9154
11
62.4322
21
-47.9553
0
LINE
8
BLACK
6
CONTINUOUS
10
62.4322
20
-47.9553
11
62.1138
21
-47.9553
0
LINE
8
BLACK
6
CONTINUOUS
10
62.1138
20
-47.9553
11
61.7979
21
-47.9154
0
LINE
8
BLACK
6
CONTINUOUS
10
61.7979
20
-47.9154
11
61.4895
21
-47.8362
0
LINE
8
BLACK
6
CONTINUOUS
10
61.4895
20
-47.8362
11
61.1935
21
-47.719
0
LINE
8
BLACK
6
CONTINUOUS
10
61.1935
20
-47.719
11
60.9145
21
-47.5656
0
LINE
8
BLACK
6
CONTINUOUS
10
60.9145
20
-47.5656
11
60.6569
21
-47.3785
0
LINE
8
BLACK
6
CONTINUOUS
10
60.6569
20
-47.3785
11
60.4248
21
-47.1605
0
LINE
8
BLACK
6
CONTINUOUS
10
60.4248
20
-47.1605
11
60.2219
21
-46.9152
0
LINE
8
BLACK
6
CONTINUOUS
10
60.2219
20
-46.9152
11
60.0513
21
-46.6464
0
LINE
8
BLACK
6
CONTINUOUS
10
60.0513
20
-46.6464
11
59.9157
21
-46.3583
0
LINE
8
BLACK
6
CONTINUOUS
10
59.9157
20
-46.3583
11
59.8173
21
-46.0555
0
LINE
8
BLACK
6
CONTINUOUS
10
59.8173
20
-46.0555
11
59.7577
21
-45.7428
0
LINE
8
BLACK
6
CONTINUOUS
10
59.7577
20
-45.7428
11
59.7377
21
-45.425
0
LINE
8
BLACK
6
CONTINUOUS
10
59.883
20
-45.425
11
59.9018
21
-45.7246
0
LINE
8
BLACK
6
CONTINUOUS
10
59.9018
20
-45.7246
11
59.9581
21
-46.0194
0
LINE
8
BLACK
6
CONTINUOUS
10
59.9581
20
-46.0194
11
60.0508
21
-46.3048
0
LINE
8
BLACK
6
CONTINUOUS
10
60.0508
20
-46.3048
11
60.1786
21
-46.5764
0
LINE
8
BLACK
6
CONTINUOUS
10
60.1786
20
-46.5764
11
60.3394
21
-46.8298
0
LINE
8
BLACK
6
CONTINUOUS
10
60.3394
20
-46.8298
11
60.5307
21
-47.0611
0
LINE
8
BLACK
6
CONTINUOUS
10
60.5307
20
-47.0611
11
60.7495
21
-47.2665
0
LINE
8
BLACK
6
CONTINUOUS
10
60.7495
20
-47.2665
11
60.9924
21
-47.443
0
LINE
8
BLACK
6
CONTINUOUS
10
60.9924
20
-47.443
11
61.2554
21
-47.5876
0
LINE
8
BLACK
6
CONTINUOUS
10
61.2554
20
-47.5876
11
61.5344
21
-47.698
0
LINE
8
BLACK
6
CONTINUOUS
10
61.5344
20
-47.698
11
61.8252
21
-47.7727
0
LINE
8
BLACK
6
CONTINUOUS
10
61.8252
20
-47.7727
11
62.1229
21
-47.8103
0
LINE
8
BLACK
6
CONTINUOUS
10
62.1229
20
-47.8103
11
62.4231
21
-47.8103
0
LINE
8
BLACK
6
CONTINUOUS
10
62.4231
20
-47.8103
11
62.7208
21
-47.7727
0
LINE
8
BLACK
6
CONTINUOUS
10
62.7208
20
-47.7727
11
63.0116
21
-47.698
0
LINE
8
BLACK
6
CONTINUOUS
10
63.0116
20
-47.698
11
63.2906
21
-47.5876
0
LINE
8
BLACK
6
CONTINUOUS
10
63.2906
20
-47.5876
11
63.5536
21
-47.443
0
LINE
8
BLACK
6
CONTINUOUS
10
63.5536
20
-47.443
11
63.7965
21
-47.2665
0
LINE
8
BLACK
6
CONTINUOUS
10
63.7965
20
-47.2665
11
64.0153
21
-47.0611
0
LINE
8
BLACK
6
CONTINUOUS
10
64.0153
20
-47.0611
11
64.2066
21
-46.8298
0
LINE
8
BLACK
6
CONTINUOUS
10
64.2066
20
-46.8298
11
64.3674
21
-46.5764
0
LINE
8
BLACK
6
CONTINUOUS
10
64.3674
20
-46.5764
11
64.4952
21
-46.3048
0
LINE
8
BLACK
6
CONTINUOUS
10
64.4952
20
-46.3048
11
64.5879
21
-46.0194
0
LINE
8
BLACK
6
CONTINUOUS
10
64.5879
20
-46.0194
11
64.6442
21
-45.7246
0
LINE
8
BLACK
6
CONTINUOUS
10
64.6442
20
-45.7246
11
64.663
21
-45.425
0
LINE
8
BLACK
6
CONTINUOUS
10
64.663
20
-45.425
11
64.6442
21
-45.1255
0
LINE
8
BLACK
6
CONTINUOUS
10
64.6442
20
-45.1255
11
64.5879
21
-44.8306
0
LINE
8
BLACK
6
CONTINUOUS
10
64.5879
20
-44.8306
11
64.4952
21
-44.5452
0
LINE
8
BLACK
6
CONTINUOUS
10
64.4952
20
-44.5452
11
64.3674
21
-44.2736
0
LINE
8
BLACK
6
CONTINUOUS
10
64.3674
20
-44.2736
11
64.2066
21
-44.0202
0
LINE
8
BLACK
6
CONTINUOUS
10
64.2066
20
-44.0202
11
64.0153
21
-43.7889
0
LINE
8
BLACK
6
CONTINUOUS
10
64.0153
20
-43.7889
11
63.7965
21
-43.5835
0
LINE
8
BLACK
6
CONTINUOUS
10
63.7965
20
-43.5835
11
63.5536
21
-43.407
0
LINE
8
BLACK
6
CONTINUOUS
10
63.5536
20
-43.407
11
63.2906
21
-43.2624
0
LINE
8
BLACK
6
CONTINUOUS
10
63.2906
20
-43.2624
11
63.0116
21
-43.1519
0
LINE
8
BLACK
6
CONTINUOUS
10
63.0116
20
-43.1519
11
62.7208
21
-43.0773
0
LINE
8
BLACK
6
CONTINUOUS
10
62.7208
20
-43.0773
11
62.4231
21
-43.0397
0
LINE
8
BLACK
6
CONTINUOUS
10
62.4231
20
-43.0397
11
62.1229
21
-43.0397
0
LINE
8
BLACK
6
CONTINUOUS
10
62.1229
20
-43.0397
11
61.8252
21
-43.0773
0
LINE
8
BLACK
6
CONTINUOUS
10
61.8252
20
-43.0773
11
61.5344
21
-43.1519
0
LINE
8
BLACK
6
CONTINUOUS
10
61.5344
20
-43.1519
11
61.2554
21
-43.2624
0
LINE
8
BLACK
6
CONTINUOUS
10
61.2554
20
-43.2624
11
60.9924
21
-43.407
0
LINE
8
BLACK
6
CONTINUOUS
10
60.9924
20
-43.407
11
60.7495
21
-43.5835
0
LINE
8
BLACK
6
CONTINUOUS
10
60.7495
20
-43.5835
11
60.5307
21
-43.7889
0
LINE
8
BLACK
6
CONTINUOUS
10
60.5307
20
-43.7889
11
60.3394
21
-44.0202
0
LINE
8
BLACK
6
CONTINUOUS
10
60.3394
20
-44.0202
11
60.1786
21
-44.2736
0
LINE
8
BLACK
6
CONTINUOUS
10
60.1786
20
-44.2736
11
60.0508
21
-44.5452
0
LINE
8
BLACK
6
CONTINUOUS
10
60.0508
20
-44.5452
11
59.9581
21
-44.8306
0
LINE
8
BLACK
6
CONTINUOUS
10
59.9581
20
-44.8306
11
59.9018
21
-45.1255
0
LINE
8
BLACK
6
CONTINUOUS
10
59.9018
20
-45.1255
11
59.883
21
-45.425
  0
ENDSEC
  0
EOF
