  0
SECTION
  2
HEADER
  9
$ANGBASE
  50
0.0
  9
$ANGDIR
  70
1
  9
$MEASUREMENT
  70
1
  0
ENDSEC
  0
SECTION
  2
TABLES
  0
TABLE
  2
LTYPE
  70
4
  0
LTYPE
  5
40F
  2
CONTINUOUS
  70
0
  3
Solid line
  72
65
  73
0
  40
0.0
  0
LTYPE
  5
410
  2
DASHDOT
 70
0
  3
Dash Dot ____ _ ____ _
 72
65
 73
4
 40
2.0
 49
1.25
 49
-0.25
 49
0.25
 49
-0.25
  0
LTYPE
  5
411
  2
DASHED
 70
0
  3
Dashed __ __ __ __ __
 72
65
 73
2
 40
0.75
 49
0.5
 49
-0.25
  0
LTYPE
  5
43B
  2
DOTTED
 70
0
  3
Dotted .  .  .  .
 72
65
 73
2
 40
0.2
 49
0.0
 49
-0.2
  0
ENDTAB
  0
TABLE
  2
STYLE
  70
4
  0
STYLE
  2
KICAD
  70
0
  40
0
  41
1
  42
1
  50
0
  71
0
  3
isocp.shx
  0
STYLE
  2
KICADB
  70
0
  40
0
  41
1
  42
1
  50
0
  71
0
  3
isocp.shx
  0
STYLE
  2
KICADI
  70
0
  40
0
  41
1
  42
1
  50
15
  71
0
  3
isocp.shx
  0
STYLE
  2
KICADBI
  70
0
  40
0
  41
1
  42
1
  50
15
  71
0
  3
isocp.shx
  0
ENDTAB
  0
TABLE
  2
LAYER
  70
1
  0
LAYER
  2
BLACK
  70
0
  62
7
  6
CONTINUOUS
  0
ENDTAB
  0
ENDSEC
  0
SECTION
  2
ENTITIES
0
LINE
8
BLACK
6
CONTINUOUS
10
68.7752
20
-39.5778
11
68.7842
21
-39.5763
0
LINE
8
BLACK
6
CONTINUOUS
10
68.7842
20
-39.5763
11
87.7842
21
-43.9513
0
LINE
8
BLACK
6
CONTINUOUS
10
87.7842
20
-43.9513
11
87.7887
21
-43.9544
0
LINE
8
BLACK
6
CONTINUOUS
10
87.7887
20
-43.9544
11
87.7941
21
-43.9547
0
LINE
8
BLACK
6
CONTINUOUS
10
87.7941
20
-43.9547
11
105.044
21
-51.9797
0
LINE
8
BLACK
6
CONTINUOUS
10
105.044
20
-51.9797
11
105.047
21
-51.9825
0
LINE
8
BLACK
6
CONTINUOUS
10
105.047
20
-51.9825
11
105.051
21
-51.9833
0
LINE
8
BLACK
6
CONTINUOUS
10
105.051
20
-51.9833
11
121.151
21
-62.6083
0
LINE
8
BLACK
6
CONTINUOUS
10
121.151
20
-62.6083
11
137.225
21
-73.1416
0
LINE
8
BLACK
6
CONTINUOUS
10
137.225
20
-73.1416
11
143.974
21
-69.3813
0
LINE
8
BLACK
6
CONTINUOUS
10
143.974
20
-69.3813
11
143.986
21
-69.3799
0
LINE
8
BLACK
6
CONTINUOUS
10
143.986
20
-69.3799
11
143.998
21
-69.375
0
LINE
8
BLACK
6
CONTINUOUS
10
143.998
20
-69.375
11
152.948
21
-69.375
0
LINE
8
BLACK
6
CONTINUOUS
10
152.948
20
-69.375
11
152.96
21
-69.3798
0
LINE
8
BLACK
6
CONTINUOUS
10
152.96
20
-69.3798
11
152.972
21
-69.3811
0
LINE
8
BLACK
6
CONTINUOUS
10
152.972
20
-69.3811
11
160.096
21
-73.2667
0
LINE
8
BLACK
6
CONTINUOUS
10
160.096
20
-73.2667
11
176.146
21
-62.7082
0
LINE
8
BLACK
6
CONTINUOUS
10
176.146
20
-62.7082
11
176.146
21
-62.7082
0
LINE
8
BLACK
6
CONTINUOUS
10
176.146
20
-62.7082
11
192.22
21
-52.1083
0
LINE
8
BLACK
6
CONTINUOUS
10
192.22
20
-52.1083
11
192.224
21
-52.1075
0
LINE
8
BLACK
6
CONTINUOUS
10
192.224
20
-52.1075
11
192.227
21
-52.1047
0
LINE
8
BLACK
6
CONTINUOUS
10
192.227
20
-52.1047
11
209.477
21
-44.0547
0
LINE
8
BLACK
6
CONTINUOUS
10
209.477
20
-44.0547
11
209.482
21
-44.0544
0
LINE
8
BLACK
6
CONTINUOUS
10
209.482
20
-44.0544
11
209.487
21
-44.0513
0
LINE
8
BLACK
6
CONTINUOUS
10
209.487
20
-44.0513
11
228.487
21
-39.7013
0
LINE
8
BLACK
6
CONTINUOUS
10
228.487
20
-39.7013
11
228.496
21
-39.7028
0
LINE
8
BLACK
6
CONTINUOUS
10
228.496
20
-39.7028
11
228.505
21
-39.7004
0
LINE
8
BLACK
6
CONTINUOUS
10
228.505
20
-39.7004
11
250.93
21
-42.7004
0
LINE
8
BLACK
6
CONTINUOUS
10
250.93
20
-42.7004
11
250.934
21
-42.7033
0
LINE
8
BLACK
6
CONTINUOUS
10
250.934
20
-42.7033
11
250.94
21
-42.703
0
LINE
8
BLACK
6
CONTINUOUS
10
250.94
20
-42.703
11
250.951
21
-42.7126
0
LINE
8
BLACK
6
CONTINUOUS
10
250.951
20
-42.7126
11
250.963
21
-42.7196
0
LINE
8
BLACK
6
CONTINUOUS
10
250.963
20
-42.7196
11
250.964
21
-42.7251
0
LINE
8
BLACK
6
CONTINUOUS
10
250.964
20
-42.7251
11
250.968
21
-42.7289
0
LINE
8
BLACK
6
CONTINUOUS
10
250.968
20
-42.7289
11
275.118
21
-94.5039
0
LINE
8
BLACK
6
CONTINUOUS
10
275.118
20
-94.5039
11
275.119
21
-94.5183
0
LINE
8
BLACK
6
CONTINUOUS
10
275.119
20
-94.5183
11
275.122
21
-94.5323
0
LINE
8
BLACK
6
CONTINUOUS
10
275.122
20
-94.5323
11
275.12
21
-94.5368
0
LINE
8
BLACK
6
CONTINUOUS
10
275.12
20
-94.5368
11
275.12
21
-94.5421
0
LINE
8
BLACK
6
CONTINUOUS
10
275.12
20
-94.5421
11
275.11
21
-94.5528
0
LINE
8
BLACK
6
CONTINUOUS
10
275.11
20
-94.5528
11
275.103
21
-94.5652
0
LINE
8
BLACK
6
CONTINUOUS
10
275.103
20
-94.5652
11
200.153
21
-150.14
0
LINE
8
BLACK
6
CONTINUOUS
10
200.153
20
-150.14
11
200.138
21
-150.144
0
LINE
8
BLACK
6
CONTINUOUS
10
200.138
20
-150.144
11
200.123
21
-150.15
0
LINE
8
BLACK
6
CONTINUOUS
10
200.123
20
-150.15
11
97.0481
21
-150.275
0
LINE
8
BLACK
6
CONTINUOUS
10
97.0481
20
-150.275
11
97.0334
21
-150.269
0
LINE
8
BLACK
6
CONTINUOUS
10
97.0334
20
-150.269
11
97.0181
21
-150.265
0
LINE
8
BLACK
6
CONTINUOUS
10
97.0181
20
-150.265
11
22.1681
21
-94.4651
0
LINE
8
BLACK
6
CONTINUOUS
10
22.1681
20
-94.4651
11
22.1607
21
-94.4527
0
LINE
8
BLACK
6
CONTINUOUS
10
22.1607
20
-94.4527
11
22.151
21
-94.4421
0
LINE
8
BLACK
6
CONTINUOUS
10
22.151
20
-94.4421
11
22.1512
21
-94.4368
0
LINE
8
BLACK
6
CONTINUOUS
10
22.1512
20
-94.4368
11
22.1485
21
-94.4322
0
LINE
8
BLACK
6
CONTINUOUS
10
22.1485
20
-94.4322
11
22.1521
21
-94.4183
0
LINE
8
BLACK
6
CONTINUOUS
10
22.1521
20
-94.4183
11
22.1527
21
-94.4039
0
LINE
8
BLACK
6
CONTINUOUS
10
22.1527
20
-94.4039
11
46.3277
21
-42.6039
0
LINE
8
BLACK
6
CONTINUOUS
10
46.3277
20
-42.6039
11
46.3318
21
-42.6001
0
LINE
8
BLACK
6
CONTINUOUS
10
46.3318
20
-42.6001
11
46.3333
21
-42.5947
0
LINE
8
BLACK
6
CONTINUOUS
10
46.3333
20
-42.5947
11
46.3455
21
-42.5876
0
LINE
8
BLACK
6
CONTINUOUS
10
46.3455
20
-42.5876
11
46.3559
21
-42.578
0
LINE
8
BLACK
6
CONTINUOUS
10
46.3559
20
-42.578
11
46.3615
21
-42.5783
0
LINE
8
BLACK
6
CONTINUOUS
10
46.3615
20
-42.5783
11
46.3664
21
-42.5754
0
LINE
8
BLACK
6
CONTINUOUS
10
46.3664
20
-42.5754
11
68.7664
21
-39.5754
0
LINE
8
BLACK
6
CONTINUOUS
10
68.7664
20
-39.5754
11
68.7752
21
-39.5778
0
LINE
8
BLACK
6
CONTINUOUS
10
46.4067
20
-42.6709
11
22.2605
21
-94.4092
0
LINE
8
BLACK
6
CONTINUOUS
10
22.2605
20
-94.4092
11
97.0646
21
-150.175
0
LINE
8
BLACK
6
CONTINUOUS
10
97.0646
20
-150.175
11
200.106
21
-150.05
0
LINE
8
BLACK
6
CONTINUOUS
10
200.106
20
-150.05
11
275.01
21
-94.5091
0
LINE
8
BLACK
6
CONTINUOUS
10
275.01
20
-94.5091
11
250.889
21
-42.7959
0
LINE
8
BLACK
6
CONTINUOUS
10
250.889
20
-42.7959
11
228.5
21
-39.8008
0
LINE
8
BLACK
6
CONTINUOUS
10
228.5
20
-39.8008
11
209.514
21
-44.1476
0
LINE
8
BLACK
6
CONTINUOUS
10
209.514
20
-44.1476
11
192.272
21
-52.1938
0
LINE
8
BLACK
6
CONTINUOUS
10
192.272
20
-52.1938
11
176.201
21
-62.7917
0
LINE
8
BLACK
6
CONTINUOUS
10
176.201
20
-62.7917
11
176.2
21
-62.7917
0
LINE
8
BLACK
6
CONTINUOUS
10
176.2
20
-62.7917
11
176.2
21
-62.7918
0
LINE
8
BLACK
6
CONTINUOUS
10
176.2
20
-62.7918
11
160.125
21
-73.3668
0
LINE
8
BLACK
6
CONTINUOUS
10
160.125
20
-73.3668
11
160.118
21
-73.3682
0
LINE
8
BLACK
6
CONTINUOUS
10
160.118
20
-73.3682
11
160.112
21
-73.373
0
LINE
8
BLACK
6
CONTINUOUS
10
160.112
20
-73.373
11
160.1
21
-73.3717
0
LINE
8
BLACK
6
CONTINUOUS
10
160.1
20
-73.3717
11
160.088
21
-73.374
0
LINE
8
BLACK
6
CONTINUOUS
10
160.088
20
-73.374
11
160.082
21
-73.3697
0
LINE
8
BLACK
6
CONTINUOUS
10
160.082
20
-73.3697
11
160.074
21
-73.3689
0
LINE
8
BLACK
6
CONTINUOUS
10
160.074
20
-73.3689
11
152.935
21
-69.475
0
LINE
8
BLACK
6
CONTINUOUS
10
152.935
20
-69.475
11
144.011
21
-69.475
0
LINE
8
BLACK
6
CONTINUOUS
10
144.011
20
-69.475
11
137.247
21
-73.2437
0
LINE
8
BLACK
6
CONTINUOUS
10
137.247
20
-73.2437
11
137.24
21
-73.2446
0
LINE
8
BLACK
6
CONTINUOUS
10
137.24
20
-73.2446
11
137.233
21
-73.2489
0
LINE
8
BLACK
6
CONTINUOUS
10
137.233
20
-73.2489
11
137.221
21
-73.2467
0
LINE
8
BLACK
6
CONTINUOUS
10
137.221
20
-73.2467
11
137.209
21
-73.2481
0
LINE
8
BLACK
6
CONTINUOUS
10
137.209
20
-73.2481
11
137.203
21
-73.2433
0
LINE
8
BLACK
6
CONTINUOUS
10
137.203
20
-73.2433
11
137.196
21
-73.2418
0
LINE
8
BLACK
6
CONTINUOUS
10
137.196
20
-73.2418
11
121.096
21
-62.6918
0
LINE
8
BLACK
6
CONTINUOUS
10
121.096
20
-62.6918
11
121.096
21
-62.6917
0
LINE
8
BLACK
6
CONTINUOUS
10
121.096
20
-62.6917
11
121.095
21
-62.6917
0
LINE
8
BLACK
6
CONTINUOUS
10
121.095
20
-62.6917
11
104.999
21
-52.0688
0
LINE
8
BLACK
6
CONTINUOUS
10
104.999
20
-52.0688
11
87.7567
21
-44.0475
0
LINE
8
BLACK
6
CONTINUOUS
10
87.7567
20
-44.0475
11
68.7706
21
-39.6758
0
LINE
8
BLACK
6
CONTINUOUS
10
68.7706
20
-39.6758
11
46.4067
21
-42.6709
  0
ENDSEC
  0
EOF
