  0
SECTION
  2
HEADER
  9
$ANGBASE
  50
0.0
  9
$ANGDIR
  70
1
  9
$MEASUREMENT
  70
1
  0
ENDSEC
  0
SECTION
  2
TABLES
  0
TABLE
  2
LTYPE
  70
4
  0
LTYPE
  5
40F
  2
CONTINUOUS
  70
0
  3
Solid line
  72
65
  73
0
  40
0.0
  0
LTYPE
  5
410
  2
DASHDOT
 70
0
  3
Dash Dot ____ _ ____ _
 72
65
 73
4
 40
2.0
 49
1.25
 49
-0.25
 49
0.25
 49
-0.25
  0
LTYPE
  5
411
  2
DASHED
 70
0
  3
Dashed __ __ __ __ __
 72
65
 73
2
 40
0.75
 49
0.5
 49
-0.25
  0
LTYPE
  5
43B
  2
DOTTED
 70
0
  3
Dotted .  .  .  .
 72
65
 73
2
 40
0.2
 49
0.0
 49
-0.2
  0
ENDTAB
  0
TABLE
  2
STYLE
  70
4
  0
STYLE
  2
KICAD
  70
0
  40
0
  41
1
  42
1
  50
0
  71
0
  3
isocp.shx
  0
STYLE
  2
KICADB
  70
0
  40
0
  41
1
  42
1
  50
0
  71
0
  3
isocp.shx
  0
STYLE
  2
KICADI
  70
0
  40
0
  41
1
  42
1
  50
15
  71
0
  3
isocp.shx
  0
STYLE
  2
KICADBI
  70
0
  40
0
  41
1
  42
1
  50
15
  71
0
  3
isocp.shx
  0
ENDTAB
  0
TABLE
  2
LAYER
  70
1
  0
LAYER
  2
BLACK
  70
0
  62
7
  6
CONTINUOUS
  0
ENDTAB
  0
ENDSEC
  0
SECTION
  2
ENTITIES
0
LINE
8
BLACK
6
CONTINUOUS
10
61.2713
20
-43.3126
11
61.2794
21
-43.3109
0
LINE
8
BLACK
6
CONTINUOUS
10
61.2794
20
-43.3109
11
80.5794
21
-46.9909
0
LINE
8
BLACK
6
CONTINUOUS
10
80.5794
20
-46.9909
11
80.5847
21
-46.9944
0
LINE
8
BLACK
6
CONTINUOUS
10
80.5847
20
-46.9944
11
80.5911
21
-46.9947
0
LINE
8
BLACK
6
CONTINUOUS
10
80.5911
20
-46.9947
11
97.8511
21
-55.0447
0
LINE
8
BLACK
6
CONTINUOUS
10
97.8511
20
-55.0447
11
97.8549
21
-55.0488
0
LINE
8
BLACK
6
CONTINUOUS
10
97.8549
20
-55.0488
11
97.8604
21
-55.0503
0
LINE
8
BLACK
6
CONTINUOUS
10
97.8604
20
-55.0503
11
128.823
21
-78.7316
0
LINE
8
BLACK
6
CONTINUOUS
10
128.823
20
-78.7316
11
132.182
21
-74.8274
0
LINE
8
BLACK
6
CONTINUOUS
10
132.182
20
-74.8274
11
132.184
21
-74.8265
0
LINE
8
BLACK
6
CONTINUOUS
10
132.184
20
-74.8265
11
132.185
21
-74.8246
0
LINE
8
BLACK
6
CONTINUOUS
10
132.185
20
-74.8246
11
132.201
21
-74.818
0
LINE
8
BLACK
6
CONTINUOUS
10
132.201
20
-74.818
11
132.216
21
-74.8101
0
LINE
8
BLACK
6
CONTINUOUS
10
132.216
20
-74.8101
11
132.218
21
-74.8108
0
LINE
8
BLACK
6
CONTINUOUS
10
132.218
20
-74.8108
11
132.22
21
-74.81
0
LINE
8
BLACK
6
CONTINUOUS
10
132.22
20
-74.81
11
134.65
21
-74.81
0
LINE
8
BLACK
6
CONTINUOUS
10
134.65
20
-74.81
11
134.685
21
-74.8246
0
LINE
8
BLACK
6
CONTINUOUS
10
134.685
20
-74.8246
11
134.7
21
-74.86
0
LINE
8
BLACK
6
CONTINUOUS
10
134.7
20
-74.86
11
134.7
21
-74.92
0
LINE
8
BLACK
6
CONTINUOUS
10
134.7
20
-74.92
11
134.7
21
-74.92
0
LINE
8
BLACK
6
CONTINUOUS
10
134.7
20
-74.92
11
134.7
21
-74.9201
0
LINE
8
BLACK
6
CONTINUOUS
10
134.7
20
-74.9201
11
134.66
21
-95.71
0
LINE
8
BLACK
6
CONTINUOUS
10
134.66
20
-95.71
11
147.74
21
-95.7
0
LINE
8
BLACK
6
CONTINUOUS
10
147.74
20
-95.7
11
147.76
21
-74.87
0
LINE
8
BLACK
6
CONTINUOUS
10
147.76
20
-74.87
11
147.767
21
-74.8523
0
LINE
8
BLACK
6
CONTINUOUS
10
147.767
20
-74.8523
11
147.775
21
-74.8346
0
LINE
8
BLACK
6
CONTINUOUS
10
147.775
20
-74.8346
11
147.775
21
-74.8346
0
LINE
8
BLACK
6
CONTINUOUS
10
147.775
20
-74.8346
11
147.775
21
-74.8346
0
LINE
8
BLACK
6
CONTINUOUS
10
147.775
20
-74.8346
11
147.792
21
-74.8273
0
LINE
8
BLACK
6
CONTINUOUS
10
147.792
20
-74.8273
11
147.81
21
-74.82
0
LINE
8
BLACK
6
CONTINUOUS
10
147.81
20
-74.82
11
150.23
21
-74.82
0
LINE
8
BLACK
6
CONTINUOUS
10
150.23
20
-74.82
11
150.247
21
-74.8272
0
LINE
8
BLACK
6
CONTINUOUS
10
150.247
20
-74.8272
11
150.265
21
-74.834
0
LINE
8
BLACK
6
CONTINUOUS
10
150.265
20
-74.834
11
154.654
21
-79.0642
0
LINE
8
BLACK
6
CONTINUOUS
10
154.654
20
-79.0642
11
185.61
21
-55.3903
0
LINE
8
BLACK
6
CONTINUOUS
10
185.61
20
-55.3903
11
185.615
21
-55.3888
0
LINE
8
BLACK
6
CONTINUOUS
10
185.615
20
-55.3888
11
185.619
21
-55.3847
0
LINE
8
BLACK
6
CONTINUOUS
10
185.619
20
-55.3847
11
202.879
21
-47.3347
0
LINE
8
BLACK
6
CONTINUOUS
10
202.879
20
-47.3347
11
202.885
21
-47.3344
0
LINE
8
BLACK
6
CONTINUOUS
10
202.885
20
-47.3344
11
202.89
21
-47.331
0
LINE
8
BLACK
6
CONTINUOUS
10
202.89
20
-47.331
11
222.11
21
-43.401
0
LINE
8
BLACK
6
CONTINUOUS
10
222.11
20
-43.401
11
222.118
21
-43.4026
0
LINE
8
BLACK
6
CONTINUOUS
10
222.118
20
-43.4026
11
222.127
21
-43.4004
0
LINE
8
BLACK
6
CONTINUOUS
10
222.127
20
-43.4004
11
244.577
21
-46.4004
0
LINE
8
BLACK
6
CONTINUOUS
10
244.577
20
-46.4004
11
244.581
21
-46.4033
0
LINE
8
BLACK
6
CONTINUOUS
10
244.581
20
-46.4033
11
244.587
21
-46.403
0
LINE
8
BLACK
6
CONTINUOUS
10
244.587
20
-46.403
11
244.598
21
-46.4126
0
LINE
8
BLACK
6
CONTINUOUS
10
244.598
20
-46.4126
11
244.61
21
-46.4196
0
LINE
8
BLACK
6
CONTINUOUS
10
244.61
20
-46.4196
11
244.611
21
-46.4251
0
LINE
8
BLACK
6
CONTINUOUS
10
244.611
20
-46.4251
11
244.615
21
-46.4289
0
LINE
8
BLACK
6
CONTINUOUS
10
244.615
20
-46.4289
11
268.775
21
-98.2289
0
LINE
8
BLACK
6
CONTINUOUS
10
268.775
20
-98.2289
11
268.776
21
-98.2416
0
LINE
8
BLACK
6
CONTINUOUS
10
268.776
20
-98.2416
11
268.78
21
-98.2538
0
LINE
8
BLACK
6
CONTINUOUS
10
268.78
20
-98.2538
11
268.777
21
-98.2601
0
LINE
8
BLACK
6
CONTINUOUS
10
268.777
20
-98.2601
11
268.777
21
-98.2671
0
LINE
8
BLACK
6
CONTINUOUS
10
268.777
20
-98.2671
11
268.768
21
-98.2765
0
LINE
8
BLACK
6
CONTINUOUS
10
268.768
20
-98.2765
11
268.763
21
-98.2879
0
LINE
8
BLACK
6
CONTINUOUS
10
268.763
20
-98.2879
11
224.753
21
-136.078
0
LINE
8
BLACK
6
CONTINUOUS
10
224.753
20
-136.078
11
224.751
21
-136.078
0
LINE
8
BLACK
6
CONTINUOUS
10
224.751
20
-136.078
11
224.75
21
-136.08
0
LINE
8
BLACK
6
CONTINUOUS
10
224.75
20
-136.08
11
193.46
21
-159.97
0
LINE
8
BLACK
6
CONTINUOUS
10
193.46
20
-159.97
11
193.445
21
-159.974
0
LINE
8
BLACK
6
CONTINUOUS
10
193.445
20
-159.974
11
193.43
21
-159.98
0
LINE
8
BLACK
6
CONTINUOUS
10
193.43
20
-159.98
11
90.5699
21
-159.87
0
LINE
8
BLACK
6
CONTINUOUS
10
90.5699
20
-159.87
11
90.5552
21
-159.864
0
LINE
8
BLACK
6
CONTINUOUS
10
90.5552
20
-159.864
11
90.5398
21
-159.86
0
LINE
8
BLACK
6
CONTINUOUS
10
90.5398
20
-159.86
11
58.7498
21
-135.73
0
LINE
8
BLACK
6
CONTINUOUS
10
58.7498
20
-135.73
11
58.749
21
-135.729
0
LINE
8
BLACK
6
CONTINUOUS
10
58.749
20
-135.729
11
58.7476
21
-135.728
0
LINE
8
BLACK
6
CONTINUOUS
10
58.7476
20
-135.728
11
14.6976
21
-98.1781
0
LINE
8
BLACK
6
CONTINUOUS
10
14.6976
20
-98.1781
11
14.6917
21
-98.1666
0
LINE
8
BLACK
6
CONTINUOUS
10
14.6917
20
-98.1666
11
14.683
21
-98.1571
0
LINE
8
BLACK
6
CONTINUOUS
10
14.683
20
-98.1571
11
14.6833
21
-98.1502
0
LINE
8
BLACK
6
CONTINUOUS
10
14.6833
20
-98.1502
11
14.6802
21
-98.144
0
LINE
8
BLACK
6
CONTINUOUS
10
14.6802
20
-98.144
11
14.6841
21
-98.1317
0
LINE
8
BLACK
6
CONTINUOUS
10
14.6841
20
-98.1317
11
14.6847
21
-98.1189
0
LINE
8
BLACK
6
CONTINUOUS
10
14.6847
20
-98.1189
11
38.8247
21
-46.3489
0
LINE
8
BLACK
6
CONTINUOUS
10
38.8247
20
-46.3489
11
38.8288
21
-46.3451
0
LINE
8
BLACK
6
CONTINUOUS
10
38.8288
20
-46.3451
11
38.8303
21
-46.3397
0
LINE
8
BLACK
6
CONTINUOUS
10
38.8303
20
-46.3397
11
38.8425
21
-46.3326
0
LINE
8
BLACK
6
CONTINUOUS
10
38.8425
20
-46.3326
11
38.8529
21
-46.323
0
LINE
8
BLACK
6
CONTINUOUS
10
38.8529
20
-46.323
11
38.8585
21
-46.3233
0
LINE
8
BLACK
6
CONTINUOUS
10
38.8585
20
-46.3233
11
38.8633
21
-46.3204
0
LINE
8
BLACK
6
CONTINUOUS
10
38.8633
20
-46.3204
11
61.2633
21
-43.3104
0
LINE
8
BLACK
6
CONTINUOUS
10
61.2633
20
-43.3104
11
61.2713
21
-43.3126
0
LINE
8
BLACK
6
CONTINUOUS
10
38.9038
20
-46.4159
11
14.7914
21
-98.1266
0
LINE
8
BLACK
6
CONTINUOUS
10
14.7914
20
-98.1266
11
58.8114
21
-135.651
0
LINE
8
BLACK
6
CONTINUOUS
10
58.8114
20
-135.651
11
90.5868
21
-159.77
0
LINE
8
BLACK
6
CONTINUOUS
10
90.5868
20
-159.77
11
193.413
21
-159.88
0
LINE
8
BLACK
6
CONTINUOUS
10
193.413
20
-159.88
11
224.689
21
-136.001
0
LINE
8
BLACK
6
CONTINUOUS
10
224.689
20
-136.001
11
268.669
21
-98.2368
0
LINE
8
BLACK
6
CONTINUOUS
10
268.669
20
-98.2368
11
244.536
21
-46.4959
0
LINE
8
BLACK
6
CONTINUOUS
10
244.536
20
-46.4959
11
222.122
21
-43.5007
0
LINE
8
BLACK
6
CONTINUOUS
10
222.122
20
-43.5007
11
202.916
21
-47.4278
0
LINE
8
BLACK
6
CONTINUOUS
10
202.916
20
-47.4278
11
185.666
21
-55.473
0
LINE
8
BLACK
6
CONTINUOUS
10
185.666
20
-55.473
11
154.68
21
-79.1697
0
LINE
8
BLACK
6
CONTINUOUS
10
154.68
20
-79.1697
11
154.665
21
-79.1737
0
LINE
8
BLACK
6
CONTINUOUS
10
154.665
20
-79.1737
11
154.651
21
-79.18
0
LINE
8
BLACK
6
CONTINUOUS
10
154.651
20
-79.18
11
154.647
21
-79.1785
0
LINE
8
BLACK
6
CONTINUOUS
10
154.647
20
-79.1785
11
154.643
21
-79.1796
0
LINE
8
BLACK
6
CONTINUOUS
10
154.643
20
-79.1796
11
154.63
21
-79.1717
0
LINE
8
BLACK
6
CONTINUOUS
10
154.63
20
-79.1717
11
154.615
21
-79.166
0
LINE
8
BLACK
6
CONTINUOUS
10
154.615
20
-79.166
11
150.21
21
-74.92
0
LINE
8
BLACK
6
CONTINUOUS
10
150.21
20
-74.92
11
147.86
21
-74.92
0
LINE
8
BLACK
6
CONTINUOUS
10
147.86
20
-74.92
11
147.84
21
-95.75
0
LINE
8
BLACK
6
CONTINUOUS
10
147.84
20
-95.75
11
147.833
21
-95.7677
0
LINE
8
BLACK
6
CONTINUOUS
10
147.833
20
-95.7677
11
147.825
21
-95.7853
0
LINE
8
BLACK
6
CONTINUOUS
10
147.825
20
-95.7853
11
147.825
21
-95.7853
0
LINE
8
BLACK
6
CONTINUOUS
10
147.825
20
-95.7853
11
147.825
21
-95.7854
0
LINE
8
BLACK
6
CONTINUOUS
10
147.825
20
-95.7854
11
147.808
21
-95.7927
0
LINE
8
BLACK
6
CONTINUOUS
10
147.808
20
-95.7927
11
147.79
21
-95.8
0
LINE
8
BLACK
6
CONTINUOUS
10
147.79
20
-95.8
11
134.61
21
-95.81
0
LINE
8
BLACK
6
CONTINUOUS
10
134.61
20
-95.81
11
134.61
21
-95.81
0
LINE
8
BLACK
6
CONTINUOUS
10
134.61
20
-95.81
11
134.61
21
-95.81
0
LINE
8
BLACK
6
CONTINUOUS
10
134.61
20
-95.81
11
134.592
21
-95.8027
0
LINE
8
BLACK
6
CONTINUOUS
10
134.592
20
-95.8027
11
134.575
21
-95.7954
0
LINE
8
BLACK
6
CONTINUOUS
10
134.575
20
-95.7954
11
134.575
21
-95.7953
0
LINE
8
BLACK
6
CONTINUOUS
10
134.575
20
-95.7953
11
134.575
21
-95.7953
0
LINE
8
BLACK
6
CONTINUOUS
10
134.575
20
-95.7953
11
134.567
21
-95.7776
0
LINE
8
BLACK
6
CONTINUOUS
10
134.567
20
-95.7776
11
134.56
21
-95.76
0
LINE
8
BLACK
6
CONTINUOUS
10
134.56
20
-95.76
11
134.56
21
-95.76
0
LINE
8
BLACK
6
CONTINUOUS
10
134.56
20
-95.76
11
134.56
21
-95.7599
0
LINE
8
BLACK
6
CONTINUOUS
10
134.56
20
-95.7599
11
134.6
21
-74.9199
0
LINE
8
BLACK
6
CONTINUOUS
10
134.6
20
-74.9199
11
134.6
21
-74.91
0
LINE
8
BLACK
6
CONTINUOUS
10
134.6
20
-74.91
11
132.243
21
-74.91
0
LINE
8
BLACK
6
CONTINUOUS
10
132.243
20
-74.91
11
128.868
21
-78.8326
0
LINE
8
BLACK
6
CONTINUOUS
10
128.868
20
-78.8326
11
128.852
21
-78.8406
0
LINE
8
BLACK
6
CONTINUOUS
10
128.852
20
-78.8406
11
128.837
21
-78.8496
0
LINE
8
BLACK
6
CONTINUOUS
10
128.837
20
-78.8496
11
128.835
21
-78.8492
0
LINE
8
BLACK
6
CONTINUOUS
10
128.835
20
-78.8492
11
128.834
21
-78.8499
0
LINE
8
BLACK
6
CONTINUOUS
10
128.834
20
-78.8499
11
128.817
21
-78.8443
0
LINE
8
BLACK
6
CONTINUOUS
10
128.817
20
-78.8443
11
128.8
21
-78.8397
0
LINE
8
BLACK
6
CONTINUOUS
10
128.8
20
-78.8397
11
97.8039
21
-55.133
0
LINE
8
BLACK
6
CONTINUOUS
10
97.8039
20
-55.133
11
80.5545
21
-47.0879
0
LINE
8
BLACK
6
CONTINUOUS
10
80.5545
20
-47.0879
11
61.2686
21
-43.4106
0
LINE
8
BLACK
6
CONTINUOUS
10
61.2686
20
-43.4106
11
38.9038
21
-46.4159
  0
ENDSEC
  0
EOF
