  0
SECTION
  2
HEADER
  9
$ANGBASE
  50
0.0
  9
$ANGDIR
  70
1
  9
$MEASUREMENT
  70
1
  0
ENDSEC
  0
SECTION
  2
TABLES
  0
TABLE
  2
LTYPE
  70
4
  0
LTYPE
  5
40F
  2
CONTINUOUS
  70
0
  3
Solid line
  72
65
  73
0
  40
0.0
  0
LTYPE
  5
410
  2
DASHDOT
 70
0
  3
Dash Dot ____ _ ____ _
 72
65
 73
4
 40
2.0
 49
1.25
 49
-0.25
 49
0.25
 49
-0.25
  0
LTYPE
  5
411
  2
DASHED
 70
0
  3
Dashed __ __ __ __ __
 72
65
 73
2
 40
0.75
 49
0.5
 49
-0.25
  0
LTYPE
  5
43B
  2
DOTTED
 70
0
  3
Dotted .  .  .  .
 72
65
 73
2
 40
0.2
 49
0.0
 49
-0.2
  0
ENDTAB
  0
TABLE
  2
STYLE
  70
4
  0
STYLE
  2
KICAD
  70
0
  40
0
  41
1
  42
1
  50
0
  71
0
  3
isocp.shx
  0
STYLE
  2
KICADB
  70
0
  40
0
  41
1
  42
1
  50
0
  71
0
  3
isocp.shx
  0
STYLE
  2
KICADI
  70
0
  40
0
  41
1
  42
1
  50
15
  71
0
  3
isocp.shx
  0
STYLE
  2
KICADBI
  70
0
  40
0
  41
1
  42
1
  50
15
  71
0
  3
isocp.shx
  0
ENDTAB
  0
TABLE
  2
LAYER
  70
1
  0
LAYER
  2
BLACK
  70
0
  62
7
  6
CONTINUOUS
  0
ENDTAB
  0
ENDSEC
  0
SECTION
  2
ENTITIES
0
LINE
8
BLACK
6
CONTINUOUS
10
193.451
20
-136.609
11
193.458
21
-136.608
0
LINE
8
BLACK
6
CONTINUOUS
10
193.458
20
-136.608
11
193.474
21
-136.62
0
LINE
8
BLACK
6
CONTINUOUS
10
193.474
20
-136.62
11
193.492
21
-136.628
0
LINE
8
BLACK
6
CONTINUOUS
10
193.492
20
-136.628
11
203.25
21
-146.386
0
LINE
8
BLACK
6
CONTINUOUS
10
203.25
20
-146.386
11
203.255
21
-146.394
0
LINE
8
BLACK
6
CONTINUOUS
10
203.255
20
-146.394
11
203.258
21
-146.396
0
LINE
8
BLACK
6
CONTINUOUS
10
203.258
20
-146.396
11
203.259
21
-146.399
0
LINE
8
BLACK
6
CONTINUOUS
10
203.259
20
-146.399
11
203.265
21
-146.407
0
LINE
8
BLACK
6
CONTINUOUS
10
203.265
20
-146.407
11
203.266
21
-146.427
0
LINE
8
BLACK
6
CONTINUOUS
10
203.266
20
-146.427
11
203.271
21
-146.445
0
LINE
8
BLACK
6
CONTINUOUS
10
203.271
20
-146.445
11
203.268
21
-146.452
0
LINE
8
BLACK
6
CONTINUOUS
10
203.268
20
-146.452
11
203.269
21
-146.458
0
LINE
8
BLACK
6
CONTINUOUS
10
203.269
20
-146.458
11
203.258
21
-146.474
0
LINE
8
BLACK
6
CONTINUOUS
10
203.258
20
-146.474
11
203.25
21
-146.492
0
LINE
8
BLACK
6
CONTINUOUS
10
203.25
20
-146.492
11
193.492
21
-156.25
0
LINE
8
BLACK
6
CONTINUOUS
10
193.492
20
-156.25
11
193.483
21
-156.256
0
LINE
8
BLACK
6
CONTINUOUS
10
193.483
20
-156.256
11
193.482
21
-156.258
0
LINE
8
BLACK
6
CONTINUOUS
10
193.482
20
-156.258
11
193.478
21
-156.259
0
LINE
8
BLACK
6
CONTINUOUS
10
193.478
20
-156.259
11
193.47
21
-156.265
0
LINE
8
BLACK
6
CONTINUOUS
10
193.47
20
-156.265
11
193.451
21
-156.267
0
LINE
8
BLACK
6
CONTINUOUS
10
193.451
20
-156.267
11
193.432
21
-156.272
0
LINE
8
BLACK
6
CONTINUOUS
10
193.432
20
-156.272
11
193.426
21
-156.269
0
LINE
8
BLACK
6
CONTINUOUS
10
193.426
20
-156.269
11
193.419
21
-156.269
0
LINE
8
BLACK
6
CONTINUOUS
10
193.419
20
-156.269
11
193.403
21
-156.258
0
LINE
8
BLACK
6
CONTINUOUS
10
193.403
20
-156.258
11
193.385
21
-156.25
0
LINE
8
BLACK
6
CONTINUOUS
10
193.385
20
-156.25
11
183.627
21
-146.492
0
LINE
8
BLACK
6
CONTINUOUS
10
183.627
20
-146.492
11
183.622
21
-146.484
0
LINE
8
BLACK
6
CONTINUOUS
10
183.622
20
-146.484
11
183.619
21
-146.482
0
LINE
8
BLACK
6
CONTINUOUS
10
183.619
20
-146.482
11
183.618
21
-146.479
0
LINE
8
BLACK
6
CONTINUOUS
10
183.618
20
-146.479
11
183.612
21
-146.471
0
LINE
8
BLACK
6
CONTINUOUS
10
183.612
20
-146.471
11
183.611
21
-146.451
0
LINE
8
BLACK
6
CONTINUOUS
10
183.611
20
-146.451
11
183.606
21
-146.432
0
LINE
8
BLACK
6
CONTINUOUS
10
183.606
20
-146.432
11
183.609
21
-146.426
0
LINE
8
BLACK
6
CONTINUOUS
10
183.609
20
-146.426
11
183.608
21
-146.42
0
LINE
8
BLACK
6
CONTINUOUS
10
183.608
20
-146.42
11
183.619
21
-146.404
0
LINE
8
BLACK
6
CONTINUOUS
10
183.619
20
-146.404
11
183.627
21
-146.386
0
LINE
8
BLACK
6
CONTINUOUS
10
183.627
20
-146.386
11
193.385
21
-136.628
0
LINE
8
BLACK
6
CONTINUOUS
10
193.385
20
-136.628
11
193.394
21
-136.622
0
LINE
8
BLACK
6
CONTINUOUS
10
193.394
20
-136.622
11
193.395
21
-136.619
0
LINE
8
BLACK
6
CONTINUOUS
10
193.395
20
-136.619
11
193.399
21
-136.619
0
LINE
8
BLACK
6
CONTINUOUS
10
193.399
20
-136.619
11
193.407
21
-136.613
0
LINE
8
BLACK
6
CONTINUOUS
10
193.407
20
-136.613
11
193.426
21
-136.611
0
LINE
8
BLACK
6
CONTINUOUS
10
193.426
20
-136.611
11
193.445
21
-136.606
0
LINE
8
BLACK
6
CONTINUOUS
10
193.445
20
-136.606
11
193.451
21
-136.609
0
LINE
8
BLACK
6
CONTINUOUS
10
183.787
20
-146.439
11
193.439
21
-156.091
0
LINE
8
BLACK
6
CONTINUOUS
10
193.439
20
-156.091
11
203.091
21
-146.439
0
LINE
8
BLACK
6
CONTINUOUS
10
203.091
20
-146.439
11
193.439
21
-136.787
0
LINE
8
BLACK
6
CONTINUOUS
10
193.439
20
-136.787
11
183.787
21
-146.439
0
LINE
8
BLACK
6
CONTINUOUS
10
90.5738
20
-136.51
11
90.5805
21
-136.51
0
LINE
8
BLACK
6
CONTINUOUS
10
90.5805
20
-136.51
11
90.5965
21
-136.521
0
LINE
8
BLACK
6
CONTINUOUS
10
90.5965
20
-136.521
11
90.6141
21
-136.529
0
LINE
8
BLACK
6
CONTINUOUS
10
90.6141
20
-136.529
11
100.372
21
-146.287
0
LINE
8
BLACK
6
CONTINUOUS
10
100.372
20
-146.287
11
100.378
21
-146.295
0
LINE
8
BLACK
6
CONTINUOUS
10
100.378
20
-146.295
11
100.381
21
-146.297
0
LINE
8
BLACK
6
CONTINUOUS
10
100.381
20
-146.297
11
100.381
21
-146.3
0
LINE
8
BLACK
6
CONTINUOUS
10
100.381
20
-146.3
11
100.387
21
-146.308
0
LINE
8
BLACK
6
CONTINUOUS
10
100.387
20
-146.308
11
100.389
21
-146.328
0
LINE
8
BLACK
6
CONTINUOUS
10
100.389
20
-146.328
11
100.394
21
-146.347
0
LINE
8
BLACK
6
CONTINUOUS
10
100.394
20
-146.347
11
100.391
21
-146.353
0
LINE
8
BLACK
6
CONTINUOUS
10
100.391
20
-146.353
11
100.392
21
-146.36
0
LINE
8
BLACK
6
CONTINUOUS
10
100.392
20
-146.36
11
100.38
21
-146.376
0
LINE
8
BLACK
6
CONTINUOUS
10
100.38
20
-146.376
11
100.372
21
-146.393
0
LINE
8
BLACK
6
CONTINUOUS
10
100.372
20
-146.393
11
90.6141
21
-156.151
0
LINE
8
BLACK
6
CONTINUOUS
10
90.6141
20
-156.151
11
90.606
21
-156.157
0
LINE
8
BLACK
6
CONTINUOUS
10
90.606
20
-156.157
11
90.6041
21
-156.16
0
LINE
8
BLACK
6
CONTINUOUS
10
90.6041
20
-156.16
11
90.6009
21
-156.161
0
LINE
8
BLACK
6
CONTINUOUS
10
90.6009
20
-156.161
11
90.5928
21
-156.166
0
LINE
8
BLACK
6
CONTINUOUS
10
90.5928
20
-156.166
11
90.5734
21
-156.168
0
LINE
8
BLACK
6
CONTINUOUS
10
90.5734
20
-156.168
11
90.5546
21
-156.173
0
LINE
8
BLACK
6
CONTINUOUS
10
90.5546
20
-156.173
11
90.5484
21
-156.17
0
LINE
8
BLACK
6
CONTINUOUS
10
90.5484
20
-156.17
11
90.5417
21
-156.171
0
LINE
8
BLACK
6
CONTINUOUS
10
90.5417
20
-156.171
11
90.5257
21
-156.16
0
LINE
8
BLACK
6
CONTINUOUS
10
90.5257
20
-156.16
11
90.5081
21
-156.151
0
LINE
8
BLACK
6
CONTINUOUS
10
90.5081
20
-156.151
11
80.75
21
-146.393
0
LINE
8
BLACK
6
CONTINUOUS
10
80.75
20
-146.393
11
80.7443
21
-146.385
0
LINE
8
BLACK
6
CONTINUOUS
10
80.7443
20
-146.385
11
80.7416
21
-146.383
0
LINE
8
BLACK
6
CONTINUOUS
10
80.7416
20
-146.383
11
80.7407
21
-146.38
0
LINE
8
BLACK
6
CONTINUOUS
10
80.7407
20
-146.38
11
80.7351
21
-146.372
0
LINE
8
BLACK
6
CONTINUOUS
10
80.7351
20
-146.372
11
80.7334
21
-146.352
0
LINE
8
BLACK
6
CONTINUOUS
10
80.7334
20
-146.352
11
80.7283
21
-146.334
0
LINE
8
BLACK
6
CONTINUOUS
10
80.7283
20
-146.334
11
80.7312
21
-146.328
0
LINE
8
BLACK
6
CONTINUOUS
10
80.7312
20
-146.328
11
80.7306
21
-146.321
0
LINE
8
BLACK
6
CONTINUOUS
10
80.7306
20
-146.321
11
80.7418
21
-146.305
0
LINE
8
BLACK
6
CONTINUOUS
10
80.7418
20
-146.305
11
80.75
21
-146.287
0
LINE
8
BLACK
6
CONTINUOUS
10
80.75
20
-146.287
11
90.5081
21
-136.529
0
LINE
8
BLACK
6
CONTINUOUS
10
90.5081
20
-136.529
11
90.5162
21
-136.523
0
LINE
8
BLACK
6
CONTINUOUS
10
90.5162
20
-136.523
11
90.5181
21
-136.521
0
LINE
8
BLACK
6
CONTINUOUS
10
90.5181
20
-136.521
11
90.5213
21
-136.52
0
LINE
8
BLACK
6
CONTINUOUS
10
90.5213
20
-136.52
11
90.5294
21
-136.514
0
LINE
8
BLACK
6
CONTINUOUS
10
90.5294
20
-136.514
11
90.5488
21
-136.512
0
LINE
8
BLACK
6
CONTINUOUS
10
90.5488
20
-136.512
11
90.5676
21
-136.507
0
LINE
8
BLACK
6
CONTINUOUS
10
90.5676
20
-136.507
11
90.5738
21
-136.51
0
LINE
8
BLACK
6
CONTINUOUS
10
80.9091
20
-146.34
11
90.5611
21
-155.992
0
LINE
8
BLACK
6
CONTINUOUS
10
90.5611
20
-155.992
11
100.213
21
-146.34
0
LINE
8
BLACK
6
CONTINUOUS
10
100.213
20
-146.34
11
90.5611
21
-136.688
0
LINE
8
BLACK
6
CONTINUOUS
10
90.5611
20
-136.688
11
80.9091
21
-146.34
0
LINE
8
BLACK
6
CONTINUOUS
10
213.127
20
-124.019
11
213.147
21
-124.018
0
LINE
8
BLACK
6
CONTINUOUS
10
213.147
20
-124.018
11
213.152
21
-124.022
0
LINE
8
BLACK
6
CONTINUOUS
10
213.152
20
-124.022
11
213.159
21
-124.022
0
LINE
8
BLACK
6
CONTINUOUS
10
213.159
20
-124.022
11
213.173
21
-124.036
0
LINE
8
BLACK
6
CONTINUOUS
10
213.173
20
-124.036
11
213.189
21
-124.047
0
LINE
8
BLACK
6
CONTINUOUS
10
213.189
20
-124.047
11
221.104
21
-135.351
0
LINE
8
BLACK
6
CONTINUOUS
10
221.104
20
-135.351
11
221.108
21
-135.36
0
LINE
8
BLACK
6
CONTINUOUS
10
221.108
20
-135.36
11
221.11
21
-135.363
0
LINE
8
BLACK
6
CONTINUOUS
10
221.11
20
-135.363
11
221.111
21
-135.366
0
LINE
8
BLACK
6
CONTINUOUS
10
221.111
20
-135.366
11
221.115
21
-135.375
0
LINE
8
BLACK
6
CONTINUOUS
10
221.115
20
-135.375
11
221.113
21
-135.394
0
LINE
8
BLACK
6
CONTINUOUS
10
221.113
20
-135.394
11
221.115
21
-135.414
0
LINE
8
BLACK
6
CONTINUOUS
10
221.115
20
-135.414
11
221.111
21
-135.419
0
LINE
8
BLACK
6
CONTINUOUS
10
221.111
20
-135.419
11
221.11
21
-135.426
0
LINE
8
BLACK
6
CONTINUOUS
10
221.11
20
-135.426
11
221.097
21
-135.44
0
LINE
8
BLACK
6
CONTINUOUS
10
221.097
20
-135.44
11
221.086
21
-135.456
0
LINE
8
BLACK
6
CONTINUOUS
10
221.086
20
-135.456
11
209.781
21
-143.371
0
LINE
8
BLACK
6
CONTINUOUS
10
209.781
20
-143.371
11
209.772
21
-143.375
0
LINE
8
BLACK
6
CONTINUOUS
10
209.772
20
-143.375
11
209.77
21
-143.378
0
LINE
8
BLACK
6
CONTINUOUS
10
209.77
20
-143.378
11
209.767
21
-143.378
0
LINE
8
BLACK
6
CONTINUOUS
10
209.767
20
-143.378
11
209.758
21
-143.382
0
LINE
8
BLACK
6
CONTINUOUS
10
209.758
20
-143.382
11
209.738
21
-143.381
0
LINE
8
BLACK
6
CONTINUOUS
10
209.738
20
-143.381
11
209.719
21
-143.382
0
LINE
8
BLACK
6
CONTINUOUS
10
209.719
20
-143.382
11
209.713
21
-143.378
0
LINE
8
BLACK
6
CONTINUOUS
10
209.713
20
-143.378
11
209.707
21
-143.378
0
LINE
8
BLACK
6
CONTINUOUS
10
209.707
20
-143.378
11
209.693
21
-143.364
0
LINE
8
BLACK
6
CONTINUOUS
10
209.693
20
-143.364
11
209.677
21
-143.353
0
LINE
8
BLACK
6
CONTINUOUS
10
209.677
20
-143.353
11
201.761
21
-132.049
0
LINE
8
BLACK
6
CONTINUOUS
10
201.761
20
-132.049
11
201.757
21
-132.04
0
LINE
8
BLACK
6
CONTINUOUS
10
201.757
20
-132.04
11
201.755
21
-132.037
0
LINE
8
BLACK
6
CONTINUOUS
10
201.755
20
-132.037
11
201.755
21
-132.034
0
LINE
8
BLACK
6
CONTINUOUS
10
201.755
20
-132.034
11
201.75
21
-132.025
0
LINE
8
BLACK
6
CONTINUOUS
10
201.75
20
-132.025
11
201.752
21
-132.005
0
LINE
8
BLACK
6
CONTINUOUS
10
201.752
20
-132.005
11
201.75
21
-131.986
0
LINE
8
BLACK
6
CONTINUOUS
10
201.75
20
-131.986
11
201.754
21
-131.981
0
LINE
8
BLACK
6
CONTINUOUS
10
201.754
20
-131.981
11
201.755
21
-131.974
0
LINE
8
BLACK
6
CONTINUOUS
10
201.755
20
-131.974
11
201.769
21
-131.96
0
LINE
8
BLACK
6
CONTINUOUS
10
201.769
20
-131.96
11
201.78
21
-131.944
0
LINE
8
BLACK
6
CONTINUOUS
10
201.78
20
-131.944
11
213.084
21
-124.029
0
LINE
8
BLACK
6
CONTINUOUS
10
213.084
20
-124.029
11
213.093
21
-124.025
0
LINE
8
BLACK
6
CONTINUOUS
10
213.093
20
-124.025
11
213.095
21
-124.022
0
LINE
8
BLACK
6
CONTINUOUS
10
213.095
20
-124.022
11
213.099
21
-124.022
0
LINE
8
BLACK
6
CONTINUOUS
10
213.099
20
-124.022
11
213.108
21
-124.018
0
LINE
8
BLACK
6
CONTINUOUS
10
213.108
20
-124.018
11
213.127
21
-124.019
0
LINE
8
BLACK
6
CONTINUOUS
10
201.927
20
-132.024
11
209.757
21
-143.205
0
LINE
8
BLACK
6
CONTINUOUS
10
209.757
20
-143.205
11
220.938
21
-135.376
0
LINE
8
BLACK
6
CONTINUOUS
10
220.938
20
-135.376
11
213.109
21
-124.195
0
LINE
8
BLACK
6
CONTINUOUS
10
213.109
20
-124.195
11
201.927
21
-132.024
0
LINE
8
BLACK
6
CONTINUOUS
10
70.361
20
-123.678
11
70.3798
21
-123.683
0
LINE
8
BLACK
6
CONTINUOUS
10
70.3798
20
-123.683
11
81.6841
21
-131.598
0
LINE
8
BLACK
6
CONTINUOUS
10
81.6841
20
-131.598
11
81.6911
21
-131.605
0
LINE
8
BLACK
6
CONTINUOUS
10
81.6911
20
-131.605
11
81.6941
21
-131.606
0
LINE
8
BLACK
6
CONTINUOUS
10
81.6941
20
-131.606
11
81.6955
21
-131.609
0
LINE
8
BLACK
6
CONTINUOUS
10
81.6955
20
-131.609
11
81.7025
21
-131.616
0
LINE
8
BLACK
6
CONTINUOUS
10
81.7025
20
-131.616
11
81.7076
21
-131.635
0
LINE
8
BLACK
6
CONTINUOUS
10
81.7076
20
-131.635
11
81.7158
21
-131.653
0
LINE
8
BLACK
6
CONTINUOUS
10
81.7158
20
-131.653
11
81.7141
21
-131.659
0
LINE
8
BLACK
6
CONTINUOUS
10
81.7141
20
-131.659
11
81.7158
21
-131.666
0
LINE
8
BLACK
6
CONTINUOUS
10
81.7158
20
-131.666
11
81.7076
21
-131.684
0
LINE
8
BLACK
6
CONTINUOUS
10
81.7076
20
-131.684
11
81.7025
21
-131.702
0
LINE
8
BLACK
6
CONTINUOUS
10
81.7025
20
-131.702
11
73.7872
21
-143.007
0
LINE
8
BLACK
6
CONTINUOUS
10
73.7872
20
-143.007
11
73.7802
21
-143.014
0
LINE
8
BLACK
6
CONTINUOUS
10
73.7802
20
-143.014
11
73.7788
21
-143.017
0
LINE
8
BLACK
6
CONTINUOUS
10
73.7788
20
-143.017
11
73.7758
21
-143.018
0
LINE
8
BLACK
6
CONTINUOUS
10
73.7758
20
-143.018
11
73.7688
21
-143.025
0
LINE
8
BLACK
6
CONTINUOUS
10
73.7688
20
-143.025
11
73.7499
21
-143.03
0
LINE
8
BLACK
6
CONTINUOUS
10
73.7499
20
-143.03
11
73.7323
21
-143.038
0
LINE
8
BLACK
6
CONTINUOUS
10
73.7323
20
-143.038
11
73.7257
21
-143.037
0
LINE
8
BLACK
6
CONTINUOUS
10
73.7257
20
-143.037
11
73.7192
21
-143.038
0
LINE
8
BLACK
6
CONTINUOUS
10
73.7192
20
-143.038
11
73.7015
21
-143.03
0
LINE
8
BLACK
6
CONTINUOUS
10
73.7015
20
-143.03
11
73.6827
21
-143.025
0
LINE
8
BLACK
6
CONTINUOUS
10
73.6827
20
-143.025
11
62.3784
21
-135.11
0
LINE
8
BLACK
6
CONTINUOUS
10
62.3784
20
-135.11
11
62.3714
21
-135.103
0
LINE
8
BLACK
6
CONTINUOUS
10
62.3714
20
-135.103
11
62.3684
21
-135.101
0
LINE
8
BLACK
6
CONTINUOUS
10
62.3684
20
-135.101
11
62.367
21
-135.098
0
LINE
8
BLACK
6
CONTINUOUS
10
62.367
20
-135.098
11
62.36
21
-135.091
0
LINE
8
BLACK
6
CONTINUOUS
10
62.36
20
-135.091
11
62.355
21
-135.073
0
LINE
8
BLACK
6
CONTINUOUS
10
62.355
20
-135.073
11
62.3467
21
-135.055
0
LINE
8
BLACK
6
CONTINUOUS
10
62.3467
20
-135.055
11
62.3485
21
-135.048
0
LINE
8
BLACK
6
CONTINUOUS
10
62.3485
20
-135.048
11
62.3467
21
-135.042
0
LINE
8
BLACK
6
CONTINUOUS
10
62.3467
20
-135.042
11
62.355
21
-135.024
0
LINE
8
BLACK
6
CONTINUOUS
10
62.355
20
-135.024
11
62.36
21
-135.005
0
LINE
8
BLACK
6
CONTINUOUS
10
62.36
20
-135.005
11
70.2754
21
-123.701
0
LINE
8
BLACK
6
CONTINUOUS
10
70.2754
20
-123.701
11
70.2824
21
-123.694
0
LINE
8
BLACK
6
CONTINUOUS
10
70.2824
20
-123.694
11
70.2838
21
-123.691
0
LINE
8
BLACK
6
CONTINUOUS
10
70.2838
20
-123.691
11
70.2868
21
-123.69
0
LINE
8
BLACK
6
CONTINUOUS
10
70.2868
20
-123.69
11
70.2938
21
-123.683
0
LINE
8
BLACK
6
CONTINUOUS
10
70.2938
20
-123.683
11
70.3126
21
-123.678
0
LINE
8
BLACK
6
CONTINUOUS
10
70.3126
20
-123.678
11
70.3303
21
-123.669
0
LINE
8
BLACK
6
CONTINUOUS
10
70.3303
20
-123.669
11
70.3368
21
-123.671
0
LINE
8
BLACK
6
CONTINUOUS
10
70.3368
20
-123.671
11
70.3433
21
-123.669
0
LINE
8
BLACK
6
CONTINUOUS
10
70.3433
20
-123.669
11
70.361
21
-123.678
0
LINE
8
BLACK
6
CONTINUOUS
10
62.5259
20
-135.03
11
73.7073
21
-142.859
0
LINE
8
BLACK
6
CONTINUOUS
10
73.7073
20
-142.859
11
81.5366
21
-131.678
0
LINE
8
BLACK
6
CONTINUOUS
10
81.5366
20
-131.678
11
70.3552
21
-123.848
0
LINE
8
BLACK
6
CONTINUOUS
10
70.3552
20
-123.848
11
62.5259
21
-135.03
0
LINE
8
BLACK
6
CONTINUOUS
10
186.756
20
-109.028
11
186.775
21
-109.03
0
LINE
8
BLACK
6
CONTINUOUS
10
186.775
20
-109.03
11
186.78
21
-109.035
0
LINE
8
BLACK
6
CONTINUOUS
10
186.78
20
-109.035
11
186.786
21
-109.037
0
LINE
8
BLACK
6
CONTINUOUS
10
186.786
20
-109.037
11
186.797
21
-109.052
0
LINE
8
BLACK
6
CONTINUOUS
10
186.797
20
-109.052
11
186.811
21
-109.066
0
LINE
8
BLACK
6
CONTINUOUS
10
186.811
20
-109.066
11
192.643
21
-121.573
0
LINE
8
BLACK
6
CONTINUOUS
10
192.643
20
-121.573
11
192.646
21
-121.583
0
LINE
8
BLACK
6
CONTINUOUS
10
192.646
20
-121.583
11
192.648
21
-121.586
0
LINE
8
BLACK
6
CONTINUOUS
10
192.648
20
-121.586
11
192.648
21
-121.589
0
LINE
8
BLACK
6
CONTINUOUS
10
192.648
20
-121.589
11
192.65
21
-121.598
0
LINE
8
BLACK
6
CONTINUOUS
10
192.65
20
-121.598
11
192.645
21
-121.617
0
LINE
8
BLACK
6
CONTINUOUS
10
192.645
20
-121.617
11
192.643
21
-121.637
0
LINE
8
BLACK
6
CONTINUOUS
10
192.643
20
-121.637
11
192.639
21
-121.641
0
LINE
8
BLACK
6
CONTINUOUS
10
192.639
20
-121.641
11
192.637
21
-121.648
0
LINE
8
BLACK
6
CONTINUOUS
10
192.637
20
-121.648
11
192.621
21
-121.659
0
LINE
8
BLACK
6
CONTINUOUS
10
192.621
20
-121.659
11
192.607
21
-121.673
0
LINE
8
BLACK
6
CONTINUOUS
10
192.607
20
-121.673
11
180.1
21
-127.505
0
LINE
8
BLACK
6
CONTINUOUS
10
180.1
20
-127.505
11
180.09
21
-127.508
0
LINE
8
BLACK
6
CONTINUOUS
10
180.09
20
-127.508
11
180.088
21
-127.51
0
LINE
8
BLACK
6
CONTINUOUS
10
180.088
20
-127.51
11
180.084
21
-127.509
0
LINE
8
BLACK
6
CONTINUOUS
10
180.084
20
-127.509
11
180.075
21
-127.512
0
LINE
8
BLACK
6
CONTINUOUS
10
180.075
20
-127.512
11
180.056
21
-127.507
0
LINE
8
BLACK
6
CONTINUOUS
10
180.056
20
-127.507
11
180.037
21
-127.505
0
LINE
8
BLACK
6
CONTINUOUS
10
180.037
20
-127.505
11
180.032
21
-127.5
0
LINE
8
BLACK
6
CONTINUOUS
10
180.032
20
-127.5
11
180.025
21
-127.499
0
LINE
8
BLACK
6
CONTINUOUS
10
180.025
20
-127.499
11
180.014
21
-127.483
0
LINE
8
BLACK
6
CONTINUOUS
10
180.014
20
-127.483
11
180
21
-127.469
0
LINE
8
BLACK
6
CONTINUOUS
10
180
20
-127.469
11
174.168
21
-114.962
0
LINE
8
BLACK
6
CONTINUOUS
10
174.168
20
-114.962
11
174.166
21
-114.952
0
LINE
8
BLACK
6
CONTINUOUS
10
174.166
20
-114.952
11
174.164
21
-114.949
0
LINE
8
BLACK
6
CONTINUOUS
10
174.164
20
-114.949
11
174.164
21
-114.946
0
LINE
8
BLACK
6
CONTINUOUS
10
174.164
20
-114.946
11
174.161
21
-114.937
0
LINE
8
BLACK
6
CONTINUOUS
10
174.161
20
-114.937
11
174.167
21
-114.918
0
LINE
8
BLACK
6
CONTINUOUS
10
174.167
20
-114.918
11
174.168
21
-114.898
0
LINE
8
BLACK
6
CONTINUOUS
10
174.168
20
-114.898
11
174.173
21
-114.894
0
LINE
8
BLACK
6
CONTINUOUS
10
174.173
20
-114.894
11
174.175
21
-114.887
0
LINE
8
BLACK
6
CONTINUOUS
10
174.175
20
-114.887
11
174.191
21
-114.876
0
LINE
8
BLACK
6
CONTINUOUS
10
174.191
20
-114.876
11
174.204
21
-114.862
0
LINE
8
BLACK
6
CONTINUOUS
10
174.204
20
-114.862
11
186.712
21
-109.03
0
LINE
8
BLACK
6
CONTINUOUS
10
186.712
20
-109.03
11
186.721
21
-109.027
0
LINE
8
BLACK
6
CONTINUOUS
10
186.721
20
-109.027
11
186.724
21
-109.025
0
LINE
8
BLACK
6
CONTINUOUS
10
186.724
20
-109.025
11
186.727
21
-109.026
0
LINE
8
BLACK
6
CONTINUOUS
10
186.727
20
-109.026
11
186.737
21
-109.023
0
LINE
8
BLACK
6
CONTINUOUS
10
186.737
20
-109.023
11
186.756
21
-109.028
0
LINE
8
BLACK
6
CONTINUOUS
10
174.336
20
-114.966
11
180.105
21
-127.337
0
LINE
8
BLACK
6
CONTINUOUS
10
180.105
20
-127.337
11
192.476
21
-121.569
0
LINE
8
BLACK
6
CONTINUOUS
10
192.476
20
-121.569
11
186.707
21
-109.198
0
LINE
8
BLACK
6
CONTINUOUS
10
186.707
20
-109.198
11
174.336
21
-114.966
0
LINE
8
BLACK
6
CONTINUOUS
10
96.7539
20
-108.7
11
96.7733
21
-108.701
0
LINE
8
BLACK
6
CONTINUOUS
10
96.7733
20
-108.701
11
109.28
21
-114.533
0
LINE
8
BLACK
6
CONTINUOUS
10
109.28
20
-114.533
11
109.289
21
-114.539
0
LINE
8
BLACK
6
CONTINUOUS
10
109.289
20
-114.539
11
109.292
21
-114.54
0
LINE
8
BLACK
6
CONTINUOUS
10
109.292
20
-114.54
11
109.294
21
-114.543
0
LINE
8
BLACK
6
CONTINUOUS
10
109.294
20
-114.543
11
109.302
21
-114.548
0
LINE
8
BLACK
6
CONTINUOUS
10
109.302
20
-114.548
11
109.31
21
-114.566
0
LINE
8
BLACK
6
CONTINUOUS
10
109.31
20
-114.566
11
109.321
21
-114.582
0
LINE
8
BLACK
6
CONTINUOUS
10
109.321
20
-114.582
11
109.321
21
-114.589
0
LINE
8
BLACK
6
CONTINUOUS
10
109.321
20
-114.589
11
109.323
21
-114.595
0
LINE
8
BLACK
6
CONTINUOUS
10
109.323
20
-114.595
11
109.318
21
-114.614
0
LINE
8
BLACK
6
CONTINUOUS
10
109.318
20
-114.614
11
109.317
21
-114.633
0
LINE
8
BLACK
6
CONTINUOUS
10
109.317
20
-114.633
11
103.485
21
-127.14
0
LINE
8
BLACK
6
CONTINUOUS
10
103.485
20
-127.14
11
103.479
21
-127.148
0
LINE
8
BLACK
6
CONTINUOUS
10
103.479
20
-127.148
11
103.478
21
-127.152
0
LINE
8
BLACK
6
CONTINUOUS
10
103.478
20
-127.152
11
103.475
21
-127.153
0
LINE
8
BLACK
6
CONTINUOUS
10
103.475
20
-127.153
11
103.47
21
-127.162
0
LINE
8
BLACK
6
CONTINUOUS
10
103.47
20
-127.162
11
103.452
21
-127.17
0
LINE
8
BLACK
6
CONTINUOUS
10
103.452
20
-127.17
11
103.436
21
-127.181
0
LINE
8
BLACK
6
CONTINUOUS
10
103.436
20
-127.181
11
103.429
21
-127.18
0
LINE
8
BLACK
6
CONTINUOUS
10
103.429
20
-127.18
11
103.423
21
-127.183
0
LINE
8
BLACK
6
CONTINUOUS
10
103.423
20
-127.183
11
103.404
21
-127.178
0
LINE
8
BLACK
6
CONTINUOUS
10
103.404
20
-127.178
11
103.385
21
-127.176
0
LINE
8
BLACK
6
CONTINUOUS
10
103.385
20
-127.176
11
90.8778
21
-121.344
0
LINE
8
BLACK
6
CONTINUOUS
10
90.8778
20
-121.344
11
90.8697
21
-121.339
0
LINE
8
BLACK
6
CONTINUOUS
10
90.8697
20
-121.339
11
90.8665
21
-121.338
0
LINE
8
BLACK
6
CONTINUOUS
10
90.8665
20
-121.338
11
90.8646
21
-121.335
0
LINE
8
BLACK
6
CONTINUOUS
10
90.8646
20
-121.335
11
90.8565
21
-121.329
0
LINE
8
BLACK
6
CONTINUOUS
10
90.8565
20
-121.329
11
90.8483
21
-121.312
0
LINE
8
BLACK
6
CONTINUOUS
10
90.8483
20
-121.312
11
90.8371
21
-121.296
0
LINE
8
BLACK
6
CONTINUOUS
10
90.8371
20
-121.296
11
90.8377
21
-121.289
0
LINE
8
BLACK
6
CONTINUOUS
10
90.8377
20
-121.289
11
90.8348
21
-121.283
0
LINE
8
BLACK
6
CONTINUOUS
10
90.8348
20
-121.283
11
90.8398
21
-121.264
0
LINE
8
BLACK
6
CONTINUOUS
10
90.8398
20
-121.264
11
90.8415
21
-121.245
0
LINE
8
BLACK
6
CONTINUOUS
10
90.8415
20
-121.245
11
96.6737
21
-108.738
0
LINE
8
BLACK
6
CONTINUOUS
10
96.6737
20
-108.738
11
96.6794
21
-108.73
0
LINE
8
BLACK
6
CONTINUOUS
10
96.6794
20
-108.73
11
96.6802
21
-108.726
0
LINE
8
BLACK
6
CONTINUOUS
10
96.6802
20
-108.726
11
96.6829
21
-108.724
0
LINE
8
BLACK
6
CONTINUOUS
10
96.6829
20
-108.724
11
96.6886
21
-108.716
0
LINE
8
BLACK
6
CONTINUOUS
10
96.6886
20
-108.716
11
96.7063
21
-108.708
0
LINE
8
BLACK
6
CONTINUOUS
10
96.7063
20
-108.708
11
96.7222
21
-108.697
0
LINE
8
BLACK
6
CONTINUOUS
10
96.7222
20
-108.697
11
96.729
21
-108.697
0
LINE
8
BLACK
6
CONTINUOUS
10
96.729
20
-108.697
11
96.7351
21
-108.695
0
LINE
8
BLACK
6
CONTINUOUS
10
96.7351
20
-108.695
11
96.7539
21
-108.7
0
LINE
8
BLACK
6
CONTINUOUS
10
91.0092
20
-121.24
11
103.38
21
-127.009
0
LINE
8
BLACK
6
CONTINUOUS
10
103.38
20
-127.009
11
109.149
21
-114.638
0
LINE
8
BLACK
6
CONTINUOUS
10
109.149
20
-114.638
11
96.7779
21
-108.869
0
LINE
8
BLACK
6
CONTINUOUS
10
96.7779
20
-108.869
11
91.0092
21
-121.24
0
LINE
8
BLACK
6
CONTINUOUS
10
202.411
20
-97.5244
11
202.43
21
-97.5261
0
LINE
8
BLACK
6
CONTINUOUS
10
202.43
20
-97.5261
11
202.435
21
-97.5308
0
LINE
8
BLACK
6
CONTINUOUS
10
202.435
20
-97.5308
11
202.441
21
-97.5326
0
LINE
8
BLACK
6
CONTINUOUS
10
202.441
20
-97.5326
11
202.452
21
-97.5486
0
LINE
8
BLACK
6
CONTINUOUS
10
202.452
20
-97.5486
11
202.466
21
-97.5623
0
LINE
8
BLACK
6
CONTINUOUS
10
202.466
20
-97.5623
11
208.298
21
-110.069
0
LINE
8
BLACK
6
CONTINUOUS
10
208.298
20
-110.069
11
208.301
21
-110.079
0
LINE
8
BLACK
6
CONTINUOUS
10
208.301
20
-110.079
11
208.303
21
-110.082
0
LINE
8
BLACK
6
CONTINUOUS
10
208.303
20
-110.082
11
208.303
21
-110.085
0
LINE
8
BLACK
6
CONTINUOUS
10
208.303
20
-110.085
11
208.305
21
-110.095
0
LINE
8
BLACK
6
CONTINUOUS
10
208.305
20
-110.095
11
208.3
21
-110.113
0
LINE
8
BLACK
6
CONTINUOUS
10
208.3
20
-110.113
11
208.298
21
-110.133
0
LINE
8
BLACK
6
CONTINUOUS
10
208.298
20
-110.133
11
208.294
21
-110.138
0
LINE
8
BLACK
6
CONTINUOUS
10
208.294
20
-110.138
11
208.292
21
-110.144
0
LINE
8
BLACK
6
CONTINUOUS
10
208.292
20
-110.144
11
208.276
21
-110.155
0
LINE
8
BLACK
6
CONTINUOUS
10
208.276
20
-110.155
11
208.262
21
-110.169
0
LINE
8
BLACK
6
CONTINUOUS
10
208.262
20
-110.169
11
195.755
21
-116.001
0
LINE
8
BLACK
6
CONTINUOUS
10
195.755
20
-116.001
11
195.745
21
-116.004
0
LINE
8
BLACK
6
CONTINUOUS
10
195.745
20
-116.004
11
195.743
21
-116.006
0
LINE
8
BLACK
6
CONTINUOUS
10
195.743
20
-116.006
11
195.739
21
-116.005
0
LINE
8
BLACK
6
CONTINUOUS
10
195.739
20
-116.005
11
195.73
21
-116.008
0
LINE
8
BLACK
6
CONTINUOUS
10
195.73
20
-116.008
11
195.711
21
-116.003
0
LINE
8
BLACK
6
CONTINUOUS
10
195.711
20
-116.003
11
195.692
21
-116.001
0
LINE
8
BLACK
6
CONTINUOUS
10
195.692
20
-116.001
11
195.687
21
-115.996
0
LINE
8
BLACK
6
CONTINUOUS
10
195.687
20
-115.996
11
195.68
21
-115.995
0
LINE
8
BLACK
6
CONTINUOUS
10
195.68
20
-115.995
11
195.669
21
-115.979
0
LINE
8
BLACK
6
CONTINUOUS
10
195.669
20
-115.979
11
195.655
21
-115.965
0
LINE
8
BLACK
6
CONTINUOUS
10
195.655
20
-115.965
11
189.823
21
-103.458
0
LINE
8
BLACK
6
CONTINUOUS
10
189.823
20
-103.458
11
189.821
21
-103.448
0
LINE
8
BLACK
6
CONTINUOUS
10
189.821
20
-103.448
11
189.819
21
-103.446
0
LINE
8
BLACK
6
CONTINUOUS
10
189.819
20
-103.446
11
189.819
21
-103.442
0
LINE
8
BLACK
6
CONTINUOUS
10
189.819
20
-103.442
11
189.816
21
-103.433
0
LINE
8
BLACK
6
CONTINUOUS
10
189.816
20
-103.433
11
189.822
21
-103.414
0
LINE
8
BLACK
6
CONTINUOUS
10
189.822
20
-103.414
11
189.823
21
-103.394
0
LINE
8
BLACK
6
CONTINUOUS
10
189.823
20
-103.394
11
189.828
21
-103.39
0
LINE
8
BLACK
6
CONTINUOUS
10
189.828
20
-103.39
11
189.83
21
-103.383
0
LINE
8
BLACK
6
CONTINUOUS
10
189.83
20
-103.383
11
189.846
21
-103.372
0
LINE
8
BLACK
6
CONTINUOUS
10
189.846
20
-103.372
11
189.859
21
-103.358
0
LINE
8
BLACK
6
CONTINUOUS
10
189.859
20
-103.358
11
202.367
21
-97.5261
0
LINE
8
BLACK
6
CONTINUOUS
10
202.367
20
-97.5261
11
202.376
21
-97.5235
0
LINE
8
BLACK
6
CONTINUOUS
10
202.376
20
-97.5235
11
202.379
21
-97.5216
0
LINE
8
BLACK
6
CONTINUOUS
10
202.379
20
-97.5216
11
202.382
21
-97.5219
0
LINE
8
BLACK
6
CONTINUOUS
10
202.382
20
-97.5219
11
202.392
21
-97.5193
0
LINE
8
BLACK
6
CONTINUOUS
10
202.392
20
-97.5193
11
202.411
21
-97.5244
0
LINE
8
BLACK
6
CONTINUOUS
10
189.991
20
-103.462
11
195.76
21
-115.834
0
LINE
8
BLACK
6
CONTINUOUS
10
195.76
20
-115.834
11
208.131
21
-110.065
0
LINE
8
BLACK
6
CONTINUOUS
10
208.131
20
-110.065
11
202.362
21
-97.6937
0
LINE
8
BLACK
6
CONTINUOUS
10
202.362
20
-97.6937
11
189.991
21
-103.462
0
LINE
8
BLACK
6
CONTINUOUS
10
81.0989
20
-97.1958
11
81.1184
21
-97.1975
0
LINE
8
BLACK
6
CONTINUOUS
10
81.1184
20
-97.1975
11
93.6254
21
-103.03
0
LINE
8
BLACK
6
CONTINUOUS
10
93.6254
20
-103.03
11
93.6335
21
-103.035
0
LINE
8
BLACK
6
CONTINUOUS
10
93.6335
20
-103.035
11
93.6367
21
-103.036
0
LINE
8
BLACK
6
CONTINUOUS
10
93.6367
20
-103.036
11
93.6386
21
-103.039
0
LINE
8
BLACK
6
CONTINUOUS
10
93.6386
20
-103.039
11
93.6467
21
-103.045
0
LINE
8
BLACK
6
CONTINUOUS
10
93.6467
20
-103.045
11
93.655
21
-103.062
0
LINE
8
BLACK
6
CONTINUOUS
10
93.655
20
-103.062
11
93.6662
21
-103.078
0
LINE
8
BLACK
6
CONTINUOUS
10
93.6662
20
-103.078
11
93.6656
21
-103.085
0
LINE
8
BLACK
6
CONTINUOUS
10
93.6656
20
-103.085
11
93.6684
21
-103.091
0
LINE
8
BLACK
6
CONTINUOUS
10
93.6684
20
-103.091
11
93.6634
21
-103.11
0
LINE
8
BLACK
6
CONTINUOUS
10
93.6634
20
-103.11
11
93.6617
21
-103.129
0
LINE
8
BLACK
6
CONTINUOUS
10
93.6617
20
-103.129
11
87.8296
21
-115.636
0
LINE
8
BLACK
6
CONTINUOUS
10
87.8296
20
-115.636
11
87.8239
21
-115.644
0
LINE
8
BLACK
6
CONTINUOUS
10
87.8239
20
-115.644
11
87.823
21
-115.648
0
LINE
8
BLACK
6
CONTINUOUS
10
87.823
20
-115.648
11
87.8203
21
-115.65
0
LINE
8
BLACK
6
CONTINUOUS
10
87.8203
20
-115.65
11
87.8146
21
-115.658
0
LINE
8
BLACK
6
CONTINUOUS
10
87.8146
20
-115.658
11
87.797
21
-115.666
0
LINE
8
BLACK
6
CONTINUOUS
10
87.797
20
-115.666
11
87.781
21
-115.677
0
LINE
8
BLACK
6
CONTINUOUS
10
87.781
20
-115.677
11
87.7743
21
-115.676
0
LINE
8
BLACK
6
CONTINUOUS
10
87.7743
20
-115.676
11
87.7681
21
-115.679
0
LINE
8
BLACK
6
CONTINUOUS
10
87.7681
20
-115.679
11
87.7493
21
-115.674
0
LINE
8
BLACK
6
CONTINUOUS
10
87.7493
20
-115.674
11
87.7299
21
-115.673
0
LINE
8
BLACK
6
CONTINUOUS
10
87.7299
20
-115.673
11
75.2228
21
-109.84
0
LINE
8
BLACK
6
CONTINUOUS
10
75.2228
20
-109.84
11
75.2147
21
-109.835
0
LINE
8
BLACK
6
CONTINUOUS
10
75.2147
20
-109.835
11
75.2115
21
-109.834
0
LINE
8
BLACK
6
CONTINUOUS
10
75.2115
20
-109.834
11
75.2096
21
-109.831
0
LINE
8
BLACK
6
CONTINUOUS
10
75.2096
20
-109.831
11
75.2015
21
-109.826
0
LINE
8
BLACK
6
CONTINUOUS
10
75.2015
20
-109.826
11
75.1933
21
-109.808
0
LINE
8
BLACK
6
CONTINUOUS
10
75.1933
20
-109.808
11
75.1821
21
-109.792
0
LINE
8
BLACK
6
CONTINUOUS
10
75.1821
20
-109.792
11
75.1827
21
-109.785
0
LINE
8
BLACK
6
CONTINUOUS
10
75.1827
20
-109.785
11
75.1798
21
-109.779
0
LINE
8
BLACK
6
CONTINUOUS
10
75.1798
20
-109.779
11
75.1849
21
-109.76
0
LINE
8
BLACK
6
CONTINUOUS
10
75.1849
20
-109.76
11
75.1866
21
-109.741
0
LINE
8
BLACK
6
CONTINUOUS
10
75.1866
20
-109.741
11
81.0187
21
-97.2337
0
LINE
8
BLACK
6
CONTINUOUS
10
81.0187
20
-97.2337
11
81.0244
21
-97.2256
0
LINE
8
BLACK
6
CONTINUOUS
10
81.0244
20
-97.2256
11
81.0252
21
-97.2224
0
LINE
8
BLACK
6
CONTINUOUS
10
81.0252
20
-97.2224
11
81.028
21
-97.2205
0
LINE
8
BLACK
6
CONTINUOUS
10
81.028
20
-97.2205
11
81.0336
21
-97.2124
0
LINE
8
BLACK
6
CONTINUOUS
10
81.0336
20
-97.2124
11
81.0513
21
-97.2042
0
LINE
8
BLACK
6
CONTINUOUS
10
81.0513
20
-97.2042
11
81.0673
21
-97.193
0
LINE
8
BLACK
6
CONTINUOUS
10
81.0673
20
-97.193
11
81.074
21
-97.1936
0
LINE
8
BLACK
6
CONTINUOUS
10
81.074
20
-97.1936
11
81.0801
21
-97.1907
0
LINE
8
BLACK
6
CONTINUOUS
10
81.0801
20
-97.1907
11
81.0989
21
-97.1958
0
LINE
8
BLACK
6
CONTINUOUS
10
75.3542
20
-109.736
11
87.7253
21
-115.505
0
LINE
8
BLACK
6
CONTINUOUS
10
87.7253
20
-115.505
11
93.494
21
-103.134
0
LINE
8
BLACK
6
CONTINUOUS
10
93.494
20
-103.134
11
81.1229
21
-97.3651
0
LINE
8
BLACK
6
CONTINUOUS
10
81.1229
20
-97.3651
11
75.3542
21
-109.736
0
LINE
8
BLACK
6
CONTINUOUS
10
178.705
20
-91.7631
11
178.724
21
-91.7648
0
LINE
8
BLACK
6
CONTINUOUS
10
178.724
20
-91.7648
11
178.729
21
-91.7696
0
LINE
8
BLACK
6
CONTINUOUS
10
178.729
20
-91.7696
11
178.735
21
-91.7713
0
LINE
8
BLACK
6
CONTINUOUS
10
178.735
20
-91.7713
11
178.747
21
-91.7873
0
LINE
8
BLACK
6
CONTINUOUS
10
178.747
20
-91.7873
11
178.76
21
-91.8011
0
LINE
8
BLACK
6
CONTINUOUS
10
178.76
20
-91.8011
11
184.592
21
-104.308
0
LINE
8
BLACK
6
CONTINUOUS
10
184.592
20
-104.308
11
184.595
21
-104.318
0
LINE
8
BLACK
6
CONTINUOUS
10
184.595
20
-104.318
11
184.597
21
-104.32
0
LINE
8
BLACK
6
CONTINUOUS
10
184.597
20
-104.32
11
184.597
21
-104.324
0
LINE
8
BLACK
6
CONTINUOUS
10
184.597
20
-104.324
11
184.599
21
-104.333
0
LINE
8
BLACK
6
CONTINUOUS
10
184.599
20
-104.333
11
184.594
21
-104.352
0
LINE
8
BLACK
6
CONTINUOUS
10
184.594
20
-104.352
11
184.592
21
-104.372
0
LINE
8
BLACK
6
CONTINUOUS
10
184.592
20
-104.372
11
184.588
21
-104.376
0
LINE
8
BLACK
6
CONTINUOUS
10
184.588
20
-104.376
11
184.586
21
-104.383
0
LINE
8
BLACK
6
CONTINUOUS
10
184.586
20
-104.383
11
184.57
21
-104.394
0
LINE
8
BLACK
6
CONTINUOUS
10
184.57
20
-104.394
11
184.556
21
-104.408
0
LINE
8
BLACK
6
CONTINUOUS
10
184.556
20
-104.408
11
172.049
21
-110.24
0
LINE
8
BLACK
6
CONTINUOUS
10
172.049
20
-110.24
11
172.04
21
-110.242
0
LINE
8
BLACK
6
CONTINUOUS
10
172.04
20
-110.242
11
172.037
21
-110.244
0
LINE
8
BLACK
6
CONTINUOUS
10
172.037
20
-110.244
11
172.034
21
-110.244
0
LINE
8
BLACK
6
CONTINUOUS
10
172.034
20
-110.244
11
172.024
21
-110.247
0
LINE
8
BLACK
6
CONTINUOUS
10
172.024
20
-110.247
11
172.005
21
-110.242
0
LINE
8
BLACK
6
CONTINUOUS
10
172.005
20
-110.242
11
171.986
21
-110.24
0
LINE
8
BLACK
6
CONTINUOUS
10
171.986
20
-110.24
11
171.981
21
-110.235
0
LINE
8
BLACK
6
CONTINUOUS
10
171.981
20
-110.235
11
171.974
21
-110.233
0
LINE
8
BLACK
6
CONTINUOUS
10
171.974
20
-110.233
11
171.963
21
-110.217
0
LINE
8
BLACK
6
CONTINUOUS
10
171.963
20
-110.217
11
171.949
21
-110.204
0
LINE
8
BLACK
6
CONTINUOUS
10
171.949
20
-110.204
11
166.117
21
-97.6966
0
LINE
8
BLACK
6
CONTINUOUS
10
166.117
20
-97.6966
11
166.115
21
-97.687
0
LINE
8
BLACK
6
CONTINUOUS
10
166.115
20
-97.687
11
166.113
21
-97.6843
0
LINE
8
BLACK
6
CONTINUOUS
10
166.113
20
-97.6843
11
166.113
21
-97.681
0
LINE
8
BLACK
6
CONTINUOUS
10
166.113
20
-97.681
11
166.111
21
-97.6714
0
LINE
8
BLACK
6
CONTINUOUS
10
166.111
20
-97.6714
11
166.116
21
-97.6526
0
LINE
8
BLACK
6
CONTINUOUS
10
166.116
20
-97.6526
11
166.117
21
-97.6332
0
LINE
8
BLACK
6
CONTINUOUS
10
166.117
20
-97.6332
11
166.122
21
-97.6284
0
LINE
8
BLACK
6
CONTINUOUS
10
166.122
20
-97.6284
11
166.124
21
-97.6219
0
LINE
8
BLACK
6
CONTINUOUS
10
166.124
20
-97.6219
11
166.14
21
-97.6107
0
LINE
8
BLACK
6
CONTINUOUS
10
166.14
20
-97.6107
11
166.154
21
-97.5969
0
LINE
8
BLACK
6
CONTINUOUS
10
166.154
20
-97.5969
11
178.661
21
-91.7648
0
LINE
8
BLACK
6
CONTINUOUS
10
178.661
20
-91.7648
11
178.67
21
-91.7622
0
LINE
8
BLACK
6
CONTINUOUS
10
178.67
20
-91.7622
11
178.673
21
-91.7603
0
LINE
8
BLACK
6
CONTINUOUS
10
178.673
20
-91.7603
11
178.676
21
-91.7606
0
LINE
8
BLACK
6
CONTINUOUS
10
178.676
20
-91.7606
11
178.686
21
-91.7581
0
LINE
8
BLACK
6
CONTINUOUS
10
178.686
20
-91.7581
11
178.705
21
-91.7631
0
LINE
8
BLACK
6
CONTINUOUS
10
166.285
20
-97.7012
11
172.054
21
-110.072
0
LINE
8
BLACK
6
CONTINUOUS
10
172.054
20
-110.072
11
184.425
21
-104.304
0
LINE
8
BLACK
6
CONTINUOUS
10
184.425
20
-104.304
11
178.656
21
-91.9324
0
LINE
8
BLACK
6
CONTINUOUS
10
178.656
20
-91.9324
11
166.285
21
-97.7012
0
LINE
8
BLACK
6
CONTINUOUS
10
104.78
20
-91.4231
11
104.8
21
-91.4248
0
LINE
8
BLACK
6
CONTINUOUS
10
104.8
20
-91.4248
11
117.307
21
-97.2569
0
LINE
8
BLACK
6
CONTINUOUS
10
117.307
20
-97.2569
11
117.315
21
-97.2626
0
LINE
8
BLACK
6
CONTINUOUS
10
117.315
20
-97.2626
11
117.318
21
-97.2635
0
LINE
8
BLACK
6
CONTINUOUS
10
117.318
20
-97.2635
11
117.32
21
-97.2662
0
LINE
8
BLACK
6
CONTINUOUS
10
117.32
20
-97.2662
11
117.328
21
-97.2719
0
LINE
8
BLACK
6
CONTINUOUS
10
117.328
20
-97.2719
11
117.336
21
-97.2895
0
LINE
8
BLACK
6
CONTINUOUS
10
117.336
20
-97.2895
11
117.348
21
-97.3055
0
LINE
8
BLACK
6
CONTINUOUS
10
117.348
20
-97.3055
11
117.347
21
-97.3122
0
LINE
8
BLACK
6
CONTINUOUS
10
117.347
20
-97.3122
11
117.35
21
-97.3184
0
LINE
8
BLACK
6
CONTINUOUS
10
117.35
20
-97.3184
11
117.345
21
-97.3372
0
LINE
8
BLACK
6
CONTINUOUS
10
117.345
20
-97.3372
11
117.343
21
-97.3566
0
LINE
8
BLACK
6
CONTINUOUS
10
117.343
20
-97.3566
11
111.511
21
-109.864
0
LINE
8
BLACK
6
CONTINUOUS
10
111.511
20
-109.864
11
111.505
21
-109.872
0
LINE
8
BLACK
6
CONTINUOUS
10
111.505
20
-109.872
11
111.504
21
-109.875
0
LINE
8
BLACK
6
CONTINUOUS
10
111.504
20
-109.875
11
111.502
21
-109.877
0
LINE
8
BLACK
6
CONTINUOUS
10
111.502
20
-109.877
11
111.496
21
-109.885
0
LINE
8
BLACK
6
CONTINUOUS
10
111.496
20
-109.885
11
111.478
21
-109.893
0
LINE
8
BLACK
6
CONTINUOUS
10
111.478
20
-109.893
11
111.462
21
-109.904
0
LINE
8
BLACK
6
CONTINUOUS
10
111.462
20
-109.904
11
111.456
21
-109.904
0
LINE
8
BLACK
6
CONTINUOUS
10
111.456
20
-109.904
11
111.45
21
-109.907
0
LINE
8
BLACK
6
CONTINUOUS
10
111.45
20
-109.907
11
111.431
21
-109.902
0
LINE
8
BLACK
6
CONTINUOUS
10
111.431
20
-109.902
11
111.411
21
-109.9
0
LINE
8
BLACK
6
CONTINUOUS
10
111.411
20
-109.9
11
98.9042
21
-104.068
0
LINE
8
BLACK
6
CONTINUOUS
10
98.9042
20
-104.068
11
98.8961
21
-104.062
0
LINE
8
BLACK
6
CONTINUOUS
10
98.8961
20
-104.062
11
98.8929
21
-104.061
0
LINE
8
BLACK
6
CONTINUOUS
10
98.8929
20
-104.061
11
98.891
21
-104.059
0
LINE
8
BLACK
6
CONTINUOUS
10
98.891
20
-104.059
11
98.8829
21
-104.053
0
LINE
8
BLACK
6
CONTINUOUS
10
98.8829
20
-104.053
11
98.8747
21
-104.035
0
LINE
8
BLACK
6
CONTINUOUS
10
98.8747
20
-104.035
11
98.8635
21
-104.019
0
LINE
8
BLACK
6
CONTINUOUS
10
98.8635
20
-104.019
11
98.8641
21
-104.012
0
LINE
8
BLACK
6
CONTINUOUS
10
98.8641
20
-104.012
11
98.8612
21
-104.006
0
LINE
8
BLACK
6
CONTINUOUS
10
98.8612
20
-104.006
11
98.8663
21
-103.988
0
LINE
8
BLACK
6
CONTINUOUS
10
98.8663
20
-103.988
11
98.868
21
-103.968
0
LINE
8
BLACK
6
CONTINUOUS
10
98.868
20
-103.968
11
104.7
21
-91.4611
0
LINE
8
BLACK
6
CONTINUOUS
10
104.7
20
-91.4611
11
104.706
21
-91.453
0
LINE
8
BLACK
6
CONTINUOUS
10
104.706
20
-91.453
11
104.707
21
-91.4497
0
LINE
8
BLACK
6
CONTINUOUS
10
104.707
20
-91.4497
11
104.709
21
-91.4478
0
LINE
8
BLACK
6
CONTINUOUS
10
104.709
20
-91.4478
11
104.715
21
-91.4397
0
LINE
8
BLACK
6
CONTINUOUS
10
104.715
20
-91.4397
11
104.733
21
-91.4315
0
LINE
8
BLACK
6
CONTINUOUS
10
104.733
20
-91.4315
11
104.749
21
-91.4203
0
LINE
8
BLACK
6
CONTINUOUS
10
104.749
20
-91.4203
11
104.755
21
-91.4209
0
LINE
8
BLACK
6
CONTINUOUS
10
104.755
20
-91.4209
11
104.762
21
-91.418
0
LINE
8
BLACK
6
CONTINUOUS
10
104.762
20
-91.418
11
104.78
21
-91.4231
0
LINE
8
BLACK
6
CONTINUOUS
10
99.0356
20
-103.964
11
111.407
21
-109.732
0
LINE
8
BLACK
6
CONTINUOUS
10
111.407
20
-109.732
11
117.175
21
-97.3612
0
LINE
8
BLACK
6
CONTINUOUS
10
117.175
20
-97.3612
11
104.804
21
-91.5924
0
LINE
8
BLACK
6
CONTINUOUS
10
104.804
20
-91.5924
11
99.0356
21
-103.964
0
LINE
8
BLACK
6
CONTINUOUS
10
217.743
20
-85.3298
11
217.763
21
-85.3315
0
LINE
8
BLACK
6
CONTINUOUS
10
217.763
20
-85.3315
11
217.768
21
-85.3363
0
LINE
8
BLACK
6
CONTINUOUS
10
217.768
20
-85.3363
11
217.774
21
-85.3381
0
LINE
8
BLACK
6
CONTINUOUS
10
217.774
20
-85.3381
11
217.785
21
-85.354
0
LINE
8
BLACK
6
CONTINUOUS
10
217.785
20
-85.354
11
217.799
21
-85.3678
0
LINE
8
BLACK
6
CONTINUOUS
10
217.799
20
-85.3678
11
223.631
21
-97.8749
0
LINE
8
BLACK
6
CONTINUOUS
10
223.631
20
-97.8749
11
223.634
21
-97.8844
0
LINE
8
BLACK
6
CONTINUOUS
10
223.634
20
-97.8844
11
223.636
21
-97.8871
0
LINE
8
BLACK
6
CONTINUOUS
10
223.636
20
-97.8871
11
223.635
21
-97.8905
0
LINE
8
BLACK
6
CONTINUOUS
10
223.635
20
-97.8905
11
223.638
21
-97.9
0
LINE
8
BLACK
6
CONTINUOUS
10
223.638
20
-97.9
11
223.633
21
-97.9188
0
LINE
8
BLACK
6
CONTINUOUS
10
223.633
20
-97.9188
11
223.631
21
-97.9383
0
LINE
8
BLACK
6
CONTINUOUS
10
223.631
20
-97.9383
11
223.627
21
-97.943
0
LINE
8
BLACK
6
CONTINUOUS
10
223.627
20
-97.943
11
223.625
21
-97.9496
0
LINE
8
BLACK
6
CONTINUOUS
10
223.625
20
-97.9496
11
223.609
21
-97.9608
0
LINE
8
BLACK
6
CONTINUOUS
10
223.609
20
-97.9608
11
223.595
21
-97.9745
0
LINE
8
BLACK
6
CONTINUOUS
10
223.595
20
-97.9745
11
211.088
21
-103.807
0
LINE
8
BLACK
6
CONTINUOUS
10
211.088
20
-103.807
11
211.078
21
-103.809
0
LINE
8
BLACK
6
CONTINUOUS
10
211.078
20
-103.809
11
211.076
21
-103.811
0
LINE
8
BLACK
6
CONTINUOUS
10
211.076
20
-103.811
11
211.072
21
-103.811
0
LINE
8
BLACK
6
CONTINUOUS
10
211.072
20
-103.811
11
211.063
21
-103.813
0
LINE
8
BLACK
6
CONTINUOUS
10
211.063
20
-103.813
11
211.044
21
-103.808
0
LINE
8
BLACK
6
CONTINUOUS
10
211.044
20
-103.808
11
211.025
21
-103.807
0
LINE
8
BLACK
6
CONTINUOUS
10
211.025
20
-103.807
11
211.02
21
-103.802
0
LINE
8
BLACK
6
CONTINUOUS
10
211.02
20
-103.802
11
211.013
21
-103.8
0
LINE
8
BLACK
6
CONTINUOUS
10
211.013
20
-103.8
11
211.002
21
-103.784
0
LINE
8
BLACK
6
CONTINUOUS
10
211.002
20
-103.784
11
210.988
21
-103.77
0
LINE
8
BLACK
6
CONTINUOUS
10
210.988
20
-103.77
11
205.156
21
-91.2633
0
LINE
8
BLACK
6
CONTINUOUS
10
205.156
20
-91.2633
11
205.154
21
-91.2538
0
LINE
8
BLACK
6
CONTINUOUS
10
205.154
20
-91.2538
11
205.152
21
-91.2511
0
LINE
8
BLACK
6
CONTINUOUS
10
205.152
20
-91.2511
11
205.152
21
-91.2477
0
LINE
8
BLACK
6
CONTINUOUS
10
205.152
20
-91.2477
11
205.149
21
-91.2382
0
LINE
8
BLACK
6
CONTINUOUS
10
205.149
20
-91.2382
11
205.154
21
-91.2194
0
LINE
8
BLACK
6
CONTINUOUS
10
205.154
20
-91.2194
11
205.156
21
-91.1999
0
LINE
8
BLACK
6
CONTINUOUS
10
205.156
20
-91.1999
11
205.161
21
-91.1952
0
LINE
8
BLACK
6
CONTINUOUS
10
205.161
20
-91.1952
11
205.163
21
-91.1886
0
LINE
8
BLACK
6
CONTINUOUS
10
205.163
20
-91.1886
11
205.179
21
-91.1774
0
LINE
8
BLACK
6
CONTINUOUS
10
205.179
20
-91.1774
11
205.192
21
-91.1637
0
LINE
8
BLACK
6
CONTINUOUS
10
205.192
20
-91.1637
11
217.699
21
-85.3315
0
LINE
8
BLACK
6
CONTINUOUS
10
217.699
20
-85.3315
11
217.709
21
-85.329
0
LINE
8
BLACK
6
CONTINUOUS
10
217.709
20
-85.329
11
217.712
21
-85.3271
0
LINE
8
BLACK
6
CONTINUOUS
10
217.712
20
-85.3271
11
217.715
21
-85.3274
0
LINE
8
BLACK
6
CONTINUOUS
10
217.715
20
-85.3274
11
217.725
21
-85.3248
0
LINE
8
BLACK
6
CONTINUOUS
10
217.725
20
-85.3248
11
217.743
21
-85.3298
0
LINE
8
BLACK
6
CONTINUOUS
10
205.324
20
-91.2679
11
211.093
21
-103.639
0
LINE
8
BLACK
6
CONTINUOUS
10
211.093
20
-103.639
11
223.464
21
-97.8703
0
LINE
8
BLACK
6
CONTINUOUS
10
223.464
20
-97.8703
11
217.695
21
-85.4992
0
LINE
8
BLACK
6
CONTINUOUS
10
217.695
20
-85.4992
11
205.324
21
-91.2679
0
LINE
8
BLACK
6
CONTINUOUS
10
65.766
20
-85.0012
11
65.7854
21
-85.0029
0
LINE
8
BLACK
6
CONTINUOUS
10
65.7854
20
-85.0029
11
78.2925
21
-90.8351
0
LINE
8
BLACK
6
CONTINUOUS
10
78.2925
20
-90.8351
11
78.3006
21
-90.8407
0
LINE
8
BLACK
6
CONTINUOUS
10
78.3006
20
-90.8407
11
78.3038
21
-90.8416
0
LINE
8
BLACK
6
CONTINUOUS
10
78.3038
20
-90.8416
11
78.3057
21
-90.8443
0
LINE
8
BLACK
6
CONTINUOUS
10
78.3057
20
-90.8443
11
78.3138
21
-90.85
0
LINE
8
BLACK
6
CONTINUOUS
10
78.3138
20
-90.85
11
78.322
21
-90.8677
0
LINE
8
BLACK
6
CONTINUOUS
10
78.322
20
-90.8677
11
78.3332
21
-90.8836
0
LINE
8
BLACK
6
CONTINUOUS
10
78.3332
20
-90.8836
11
78.3326
21
-90.8904
0
LINE
8
BLACK
6
CONTINUOUS
10
78.3326
20
-90.8904
11
78.3355
21
-90.8965
0
LINE
8
BLACK
6
CONTINUOUS
10
78.3355
20
-90.8965
11
78.3304
21
-90.9153
0
LINE
8
BLACK
6
CONTINUOUS
10
78.3304
20
-90.9153
11
78.3287
21
-90.9347
0
LINE
8
BLACK
6
CONTINUOUS
10
78.3287
20
-90.9347
11
72.4966
21
-103.442
0
LINE
8
BLACK
6
CONTINUOUS
10
72.4966
20
-103.442
11
72.4909
21
-103.45
0
LINE
8
BLACK
6
CONTINUOUS
10
72.4909
20
-103.45
11
72.4901
21
-103.453
0
LINE
8
BLACK
6
CONTINUOUS
10
72.4901
20
-103.453
11
72.4873
21
-103.455
0
LINE
8
BLACK
6
CONTINUOUS
10
72.4873
20
-103.455
11
72.4817
21
-103.463
0
LINE
8
BLACK
6
CONTINUOUS
10
72.4817
20
-103.463
11
72.464
21
-103.471
0
LINE
8
BLACK
6
CONTINUOUS
10
72.464
20
-103.471
11
72.448
21
-103.483
0
LINE
8
BLACK
6
CONTINUOUS
10
72.448
20
-103.483
11
72.4413
21
-103.482
0
LINE
8
BLACK
6
CONTINUOUS
10
72.4413
20
-103.482
11
72.4352
21
-103.485
0
LINE
8
BLACK
6
CONTINUOUS
10
72.4352
20
-103.485
11
72.4163
21
-103.48
0
LINE
8
BLACK
6
CONTINUOUS
10
72.4163
20
-103.48
11
72.3969
21
-103.478
0
LINE
8
BLACK
6
CONTINUOUS
10
72.3969
20
-103.478
11
59.8899
21
-97.6459
0
LINE
8
BLACK
6
CONTINUOUS
10
59.8899
20
-97.6459
11
59.8818
21
-97.6403
0
LINE
8
BLACK
6
CONTINUOUS
10
59.8818
20
-97.6403
11
59.8786
21
-97.6394
0
LINE
8
BLACK
6
CONTINUOUS
10
59.8786
20
-97.6394
11
59.8766
21
-97.6367
0
LINE
8
BLACK
6
CONTINUOUS
10
59.8766
20
-97.6367
11
59.8685
21
-97.631
0
LINE
8
BLACK
6
CONTINUOUS
10
59.8685
20
-97.631
11
59.8603
21
-97.6133
0
LINE
8
BLACK
6
CONTINUOUS
10
59.8603
20
-97.6133
11
59.8491
21
-97.5974
0
LINE
8
BLACK
6
CONTINUOUS
10
59.8491
20
-97.5974
11
59.8497
21
-97.5906
0
LINE
8
BLACK
6
CONTINUOUS
10
59.8497
20
-97.5906
11
59.8469
21
-97.5845
0
LINE
8
BLACK
6
CONTINUOUS
10
59.8469
20
-97.5845
11
59.8519
21
-97.5657
0
LINE
8
BLACK
6
CONTINUOUS
10
59.8519
20
-97.5657
11
59.8536
21
-97.5463
0
LINE
8
BLACK
6
CONTINUOUS
10
59.8536
20
-97.5463
11
65.6857
21
-85.0392
0
LINE
8
BLACK
6
CONTINUOUS
10
65.6857
20
-85.0392
11
65.6914
21
-85.0311
0
LINE
8
BLACK
6
CONTINUOUS
10
65.6914
20
-85.0311
11
65.6923
21
-85.0279
0
LINE
8
BLACK
6
CONTINUOUS
10
65.6923
20
-85.0279
11
65.695
21
-85.026
0
LINE
8
BLACK
6
CONTINUOUS
10
65.695
20
-85.026
11
65.7007
21
-85.0179
0
LINE
8
BLACK
6
CONTINUOUS
10
65.7007
20
-85.0179
11
65.7183
21
-85.0096
0
LINE
8
BLACK
6
CONTINUOUS
10
65.7183
20
-85.0096
11
65.7343
21
-84.9985
0
LINE
8
BLACK
6
CONTINUOUS
10
65.7343
20
-84.9985
11
65.741
21
-84.9991
0
LINE
8
BLACK
6
CONTINUOUS
10
65.741
20
-84.9991
11
65.7472
21
-84.9962
0
LINE
8
BLACK
6
CONTINUOUS
10
65.7472
20
-84.9962
11
65.766
21
-85.0012
0
LINE
8
BLACK
6
CONTINUOUS
10
60.0212
20
-97.5417
11
72.3924
21
-103.31
0
LINE
8
BLACK
6
CONTINUOUS
10
72.3924
20
-103.31
11
78.1611
21
-90.9393
0
LINE
8
BLACK
6
CONTINUOUS
10
78.1611
20
-90.9393
11
65.79
21
-85.1706
0
LINE
8
BLACK
6
CONTINUOUS
10
65.79
20
-85.1706
11
60.0212
21
-97.5417
0
LINE
8
BLACK
6
CONTINUOUS
10
259.408
20
-84.3986
11
259.427
21
-84.4003
0
LINE
8
BLACK
6
CONTINUOUS
10
259.427
20
-84.4003
11
259.432
21
-84.4051
0
LINE
8
BLACK
6
CONTINUOUS
10
259.432
20
-84.4051
11
259.438
21
-84.4068
0
LINE
8
BLACK
6
CONTINUOUS
10
259.438
20
-84.4068
11
259.449
21
-84.4228
0
LINE
8
BLACK
6
CONTINUOUS
10
259.449
20
-84.4228
11
259.463
21
-84.4366
0
LINE
8
BLACK
6
CONTINUOUS
10
259.463
20
-84.4366
11
265.295
21
-96.9436
0
LINE
8
BLACK
6
CONTINUOUS
10
265.295
20
-96.9436
11
265.298
21
-96.9532
0
LINE
8
BLACK
6
CONTINUOUS
10
265.298
20
-96.9532
11
265.3
21
-96.9559
0
LINE
8
BLACK
6
CONTINUOUS
10
265.3
20
-96.9559
11
265.3
21
-96.9592
0
LINE
8
BLACK
6
CONTINUOUS
10
265.3
20
-96.9592
11
265.302
21
-96.9688
0
LINE
8
BLACK
6
CONTINUOUS
10
265.302
20
-96.9688
11
265.297
21
-96.9876
0
LINE
8
BLACK
6
CONTINUOUS
10
265.297
20
-96.9876
11
265.295
21
-97.007
0
LINE
8
BLACK
6
CONTINUOUS
10
265.295
20
-97.007
11
265.291
21
-97.0118
0
LINE
8
BLACK
6
CONTINUOUS
10
265.291
20
-97.0118
11
265.289
21
-97.0183
0
LINE
8
BLACK
6
CONTINUOUS
10
265.289
20
-97.0183
11
265.273
21
-97.0295
0
LINE
8
BLACK
6
CONTINUOUS
10
265.273
20
-97.0295
11
265.259
21
-97.0433
0
LINE
8
BLACK
6
CONTINUOUS
10
265.259
20
-97.0433
11
252.752
21
-102.875
0
LINE
8
BLACK
6
CONTINUOUS
10
252.752
20
-102.875
11
252.742
21
-102.878
0
LINE
8
BLACK
6
CONTINUOUS
10
252.742
20
-102.878
11
252.74
21
-102.88
0
LINE
8
BLACK
6
CONTINUOUS
10
252.74
20
-102.88
11
252.736
21
-102.88
0
LINE
8
BLACK
6
CONTINUOUS
10
252.736
20
-102.88
11
252.727
21
-102.882
0
LINE
8
BLACK
6
CONTINUOUS
10
252.727
20
-102.882
11
252.708
21
-102.877
0
LINE
8
BLACK
6
CONTINUOUS
10
252.708
20
-102.877
11
252.689
21
-102.875
0
LINE
8
BLACK
6
CONTINUOUS
10
252.689
20
-102.875
11
252.684
21
-102.871
0
LINE
8
BLACK
6
CONTINUOUS
10
252.684
20
-102.871
11
252.677
21
-102.869
0
LINE
8
BLACK
6
CONTINUOUS
10
252.677
20
-102.869
11
252.666
21
-102.853
0
LINE
8
BLACK
6
CONTINUOUS
10
252.666
20
-102.853
11
252.652
21
-102.839
0
LINE
8
BLACK
6
CONTINUOUS
10
252.652
20
-102.839
11
246.82
21
-90.3321
0
LINE
8
BLACK
6
CONTINUOUS
10
246.82
20
-90.3321
11
246.818
21
-90.3225
0
LINE
8
BLACK
6
CONTINUOUS
10
246.818
20
-90.3225
11
246.816
21
-90.3198
0
LINE
8
BLACK
6
CONTINUOUS
10
246.816
20
-90.3198
11
246.816
21
-90.3165
0
LINE
8
BLACK
6
CONTINUOUS
10
246.816
20
-90.3165
11
246.813
21
-90.3069
0
LINE
8
BLACK
6
CONTINUOUS
10
246.813
20
-90.3069
11
246.819
21
-90.2881
0
LINE
8
BLACK
6
CONTINUOUS
10
246.819
20
-90.2881
11
246.82
21
-90.2687
0
LINE
8
BLACK
6
CONTINUOUS
10
246.82
20
-90.2687
11
246.825
21
-90.2639
0
LINE
8
BLACK
6
CONTINUOUS
10
246.825
20
-90.2639
11
246.827
21
-90.2574
0
LINE
8
BLACK
6
CONTINUOUS
10
246.827
20
-90.2574
11
246.843
21
-90.2462
0
LINE
8
BLACK
6
CONTINUOUS
10
246.843
20
-90.2462
11
246.856
21
-90.2324
0
LINE
8
BLACK
6
CONTINUOUS
10
246.856
20
-90.2324
11
259.364
21
-84.4003
0
LINE
8
BLACK
6
CONTINUOUS
10
259.364
20
-84.4003
11
259.373
21
-84.3977
0
LINE
8
BLACK
6
CONTINUOUS
10
259.373
20
-84.3977
11
259.376
21
-84.3958
0
LINE
8
BLACK
6
CONTINUOUS
10
259.376
20
-84.3958
11
259.379
21
-84.3961
0
LINE
8
BLACK
6
CONTINUOUS
10
259.379
20
-84.3961
11
259.389
21
-84.3936
0
LINE
8
BLACK
6
CONTINUOUS
10
259.389
20
-84.3936
11
259.408
21
-84.3986
0
LINE
8
BLACK
6
CONTINUOUS
10
246.988
20
-90.3367
11
252.757
21
-102.708
0
LINE
8
BLACK
6
CONTINUOUS
10
252.757
20
-102.708
11
265.128
21
-96.939
0
LINE
8
BLACK
6
CONTINUOUS
10
265.128
20
-96.939
11
259.359
21
-84.5679
0
LINE
8
BLACK
6
CONTINUOUS
10
259.359
20
-84.5679
11
246.988
21
-90.3367
0
LINE
8
BLACK
6
CONTINUOUS
10
24.0436
20
-84.323
11
24.063
21
-84.3247
0
LINE
8
BLACK
6
CONTINUOUS
10
24.063
20
-84.3247
11
36.57
21
-90.1569
0
LINE
8
BLACK
6
CONTINUOUS
10
36.57
20
-90.1569
11
36.5781
21
-90.1625
0
LINE
8
BLACK
6
CONTINUOUS
10
36.5781
20
-90.1625
11
36.5813
21
-90.1634
0
LINE
8
BLACK
6
CONTINUOUS
10
36.5813
20
-90.1634
11
36.5832
21
-90.1661
0
LINE
8
BLACK
6
CONTINUOUS
10
36.5832
20
-90.1661
11
36.5913
21
-90.1718
0
LINE
8
BLACK
6
CONTINUOUS
10
36.5913
20
-90.1718
11
36.5996
21
-90.1895
0
LINE
8
BLACK
6
CONTINUOUS
10
36.5996
20
-90.1895
11
36.6108
21
-90.2054
0
LINE
8
BLACK
6
CONTINUOUS
10
36.6108
20
-90.2054
11
36.6102
21
-90.2122
0
LINE
8
BLACK
6
CONTINUOUS
10
36.6102
20
-90.2122
11
36.613
21
-90.2183
0
LINE
8
BLACK
6
CONTINUOUS
10
36.613
20
-90.2183
11
36.608
21
-90.2371
0
LINE
8
BLACK
6
CONTINUOUS
10
36.608
20
-90.2371
11
36.6063
21
-90.2565
0
LINE
8
BLACK
6
CONTINUOUS
10
36.6063
20
-90.2565
11
30.7742
21
-102.764
0
LINE
8
BLACK
6
CONTINUOUS
10
30.7742
20
-102.764
11
30.7685
21
-102.772
0
LINE
8
BLACK
6
CONTINUOUS
10
30.7685
20
-102.772
11
30.7676
21
-102.775
0
LINE
8
BLACK
6
CONTINUOUS
10
30.7676
20
-102.775
11
30.7649
21
-102.777
0
LINE
8
BLACK
6
CONTINUOUS
10
30.7649
20
-102.777
11
30.7592
21
-102.785
0
LINE
8
BLACK
6
CONTINUOUS
10
30.7592
20
-102.785
11
30.7416
21
-102.793
0
LINE
8
BLACK
6
CONTINUOUS
10
30.7416
20
-102.793
11
30.7256
21
-102.804
0
LINE
8
BLACK
6
CONTINUOUS
10
30.7256
20
-102.804
11
30.7189
21
-102.804
0
LINE
8
BLACK
6
CONTINUOUS
10
30.7189
20
-102.804
11
30.7127
21
-102.807
0
LINE
8
BLACK
6
CONTINUOUS
10
30.7127
20
-102.807
11
30.6939
21
-102.802
0
LINE
8
BLACK
6
CONTINUOUS
10
30.6939
20
-102.802
11
30.6745
21
-102.8
0
LINE
8
BLACK
6
CONTINUOUS
10
30.6745
20
-102.8
11
18.1674
21
-96.9677
0
LINE
8
BLACK
6
CONTINUOUS
10
18.1674
20
-96.9677
11
18.1593
21
-96.962
0
LINE
8
BLACK
6
CONTINUOUS
10
18.1593
20
-96.962
11
18.1561
21
-96.9612
0
LINE
8
BLACK
6
CONTINUOUS
10
18.1561
20
-96.9612
11
18.1542
21
-96.9585
0
LINE
8
BLACK
6
CONTINUOUS
10
18.1542
20
-96.9585
11
18.1461
21
-96.9528
0
LINE
8
BLACK
6
CONTINUOUS
10
18.1461
20
-96.9528
11
18.1379
21
-96.9351
0
LINE
8
BLACK
6
CONTINUOUS
10
18.1379
20
-96.9351
11
18.1267
21
-96.9192
0
LINE
8
BLACK
6
CONTINUOUS
10
18.1267
20
-96.9192
11
18.1273
21
-96.9124
0
LINE
8
BLACK
6
CONTINUOUS
10
18.1273
20
-96.9124
11
18.1244
21
-96.9063
0
LINE
8
BLACK
6
CONTINUOUS
10
18.1244
20
-96.9063
11
18.1295
21
-96.8875
0
LINE
8
BLACK
6
CONTINUOUS
10
18.1295
20
-96.8875
11
18.1312
21
-96.8681
0
LINE
8
BLACK
6
CONTINUOUS
10
18.1312
20
-96.8681
11
23.9633
21
-84.361
0
LINE
8
BLACK
6
CONTINUOUS
10
23.9633
20
-84.361
11
23.969
21
-84.3529
0
LINE
8
BLACK
6
CONTINUOUS
10
23.969
20
-84.3529
11
23.9698
21
-84.3497
0
LINE
8
BLACK
6
CONTINUOUS
10
23.9698
20
-84.3497
11
23.9726
21
-84.3478
0
LINE
8
BLACK
6
CONTINUOUS
10
23.9726
20
-84.3478
11
23.9782
21
-84.3397
0
LINE
8
BLACK
6
CONTINUOUS
10
23.9782
20
-84.3397
11
23.9959
21
-84.3314
0
LINE
8
BLACK
6
CONTINUOUS
10
23.9959
20
-84.3314
11
24.0119
21
-84.3203
0
LINE
8
BLACK
6
CONTINUOUS
10
24.0119
20
-84.3203
11
24.0186
21
-84.3208
0
LINE
8
BLACK
6
CONTINUOUS
10
24.0186
20
-84.3208
11
24.0247
21
-84.318
0
LINE
8
BLACK
6
CONTINUOUS
10
24.0247
20
-84.318
11
24.0436
21
-84.323
0
LINE
8
BLACK
6
CONTINUOUS
10
18.2988
20
-96.8635
11
30.6699
21
-102.632
0
LINE
8
BLACK
6
CONTINUOUS
10
30.6699
20
-102.632
11
36.4386
21
-90.2611
0
LINE
8
BLACK
6
CONTINUOUS
10
36.4386
20
-90.2611
11
24.0675
21
-84.4924
0
LINE
8
BLACK
6
CONTINUOUS
10
24.0675
20
-84.4924
11
18.2988
21
-96.8635
0
LINE
8
BLACK
6
CONTINUOUS
10
236.965
20
-81.4112
11
236.985
21
-81.4129
0
LINE
8
BLACK
6
CONTINUOUS
10
236.985
20
-81.4129
11
236.99
21
-81.4177
0
LINE
8
BLACK
6
CONTINUOUS
10
236.99
20
-81.4177
11
236.996
21
-81.4194
0
LINE
8
BLACK
6
CONTINUOUS
10
236.996
20
-81.4194
11
237.007
21
-81.4354
0
LINE
8
BLACK
6
CONTINUOUS
10
237.007
20
-81.4354
11
237.021
21
-81.4492
0
LINE
8
BLACK
6
CONTINUOUS
10
237.021
20
-81.4492
11
242.853
21
-93.9562
0
LINE
8
BLACK
6
CONTINUOUS
10
242.853
20
-93.9562
11
242.856
21
-93.9658
0
LINE
8
BLACK
6
CONTINUOUS
10
242.856
20
-93.9658
11
242.858
21
-93.9685
0
LINE
8
BLACK
6
CONTINUOUS
10
242.858
20
-93.9685
11
242.857
21
-93.9718
0
LINE
8
BLACK
6
CONTINUOUS
10
242.857
20
-93.9718
11
242.86
21
-93.9814
0
LINE
8
BLACK
6
CONTINUOUS
10
242.86
20
-93.9814
11
242.855
21
-94.0002
0
LINE
8
BLACK
6
CONTINUOUS
10
242.855
20
-94.0002
11
242.853
21
-94.0196
0
LINE
8
BLACK
6
CONTINUOUS
10
242.853
20
-94.0196
11
242.848
21
-94.0244
0
LINE
8
BLACK
6
CONTINUOUS
10
242.848
20
-94.0244
11
242.847
21
-94.0309
0
LINE
8
BLACK
6
CONTINUOUS
10
242.847
20
-94.0309
11
242.831
21
-94.0421
0
LINE
8
BLACK
6
CONTINUOUS
10
242.831
20
-94.0421
11
242.817
21
-94.0559
0
LINE
8
BLACK
6
CONTINUOUS
10
242.817
20
-94.0559
11
230.31
21
-99.888
0
LINE
8
BLACK
6
CONTINUOUS
10
230.31
20
-99.888
11
230.3
21
-99.8906
0
LINE
8
BLACK
6
CONTINUOUS
10
230.3
20
-99.8906
11
230.298
21
-99.8925
0
LINE
8
BLACK
6
CONTINUOUS
10
230.298
20
-99.8925
11
230.294
21
-99.8922
0
LINE
8
BLACK
6
CONTINUOUS
10
230.294
20
-99.8922
11
230.285
21
-99.8948
0
LINE
8
BLACK
6
CONTINUOUS
10
230.285
20
-99.8948
11
230.266
21
-99.8897
0
LINE
8
BLACK
6
CONTINUOUS
10
230.266
20
-99.8897
11
230.246
21
-99.888
0
LINE
8
BLACK
6
CONTINUOUS
10
230.246
20
-99.888
11
230.242
21
-99.8832
0
LINE
8
BLACK
6
CONTINUOUS
10
230.242
20
-99.8832
11
230.235
21
-99.8815
0
LINE
8
BLACK
6
CONTINUOUS
10
230.235
20
-99.8815
11
230.224
21
-99.8655
0
LINE
8
BLACK
6
CONTINUOUS
10
230.224
20
-99.8655
11
230.21
21
-99.8517
0
LINE
8
BLACK
6
CONTINUOUS
10
230.21
20
-99.8517
11
224.378
21
-87.3447
0
LINE
8
BLACK
6
CONTINUOUS
10
224.378
20
-87.3447
11
224.375
21
-87.3351
0
LINE
8
BLACK
6
CONTINUOUS
10
224.375
20
-87.3351
11
224.374
21
-87.3324
0
LINE
8
BLACK
6
CONTINUOUS
10
224.374
20
-87.3324
11
224.374
21
-87.3291
0
LINE
8
BLACK
6
CONTINUOUS
10
224.374
20
-87.3291
11
224.371
21
-87.3195
0
LINE
8
BLACK
6
CONTINUOUS
10
224.371
20
-87.3195
11
224.376
21
-87.3007
0
LINE
8
BLACK
6
CONTINUOUS
10
224.376
20
-87.3007
11
224.378
21
-87.2813
0
LINE
8
BLACK
6
CONTINUOUS
10
224.378
20
-87.2813
11
224.383
21
-87.2765
0
LINE
8
BLACK
6
CONTINUOUS
10
224.383
20
-87.2765
11
224.385
21
-87.27
0
LINE
8
BLACK
6
CONTINUOUS
10
224.385
20
-87.27
11
224.401
21
-87.2588
0
LINE
8
BLACK
6
CONTINUOUS
10
224.401
20
-87.2588
11
224.414
21
-87.245
0
LINE
8
BLACK
6
CONTINUOUS
10
224.414
20
-87.245
11
236.921
21
-81.4129
0
LINE
8
BLACK
6
CONTINUOUS
10
236.921
20
-81.4129
11
236.931
21
-81.4103
0
LINE
8
BLACK
6
CONTINUOUS
10
236.931
20
-81.4103
11
236.934
21
-81.4084
0
LINE
8
BLACK
6
CONTINUOUS
10
236.934
20
-81.4084
11
236.937
21
-81.4087
0
LINE
8
BLACK
6
CONTINUOUS
10
236.937
20
-81.4087
11
236.946
21
-81.4061
0
LINE
8
BLACK
6
CONTINUOUS
10
236.946
20
-81.4061
11
236.965
21
-81.4112
0
LINE
8
BLACK
6
CONTINUOUS
10
224.546
20
-87.3493
11
230.314
21
-99.7204
0
LINE
8
BLACK
6
CONTINUOUS
10
230.314
20
-99.7204
11
242.685
21
-93.9516
0
LINE
8
BLACK
6
CONTINUOUS
10
242.685
20
-93.9516
11
236.917
21
-81.5805
0
LINE
8
BLACK
6
CONTINUOUS
10
236.917
20
-81.5805
11
224.546
21
-87.3493
0
LINE
8
BLACK
6
CONTINUOUS
10
46.4613
20
-81.3242
11
46.4807
21
-81.3259
0
LINE
8
BLACK
6
CONTINUOUS
10
46.4807
20
-81.3259
11
58.9877
21
-87.158
0
LINE
8
BLACK
6
CONTINUOUS
10
58.9877
20
-87.158
11
58.9958
21
-87.1637
0
LINE
8
BLACK
6
CONTINUOUS
10
58.9958
20
-87.1637
11
58.9991
21
-87.1646
0
LINE
8
BLACK
6
CONTINUOUS
10
58.9991
20
-87.1646
11
59.001
21
-87.1673
0
LINE
8
BLACK
6
CONTINUOUS
10
59.001
20
-87.1673
11
59.0091
21
-87.173
0
LINE
8
BLACK
6
CONTINUOUS
10
59.0091
20
-87.173
11
59.0173
21
-87.1906
0
LINE
8
BLACK
6
CONTINUOUS
10
59.0173
20
-87.1906
11
59.0285
21
-87.2066
0
LINE
8
BLACK
6
CONTINUOUS
10
59.0285
20
-87.2066
11
59.0279
21
-87.2133
0
LINE
8
BLACK
6
CONTINUOUS
10
59.0279
20
-87.2133
11
59.0308
21
-87.2195
0
LINE
8
BLACK
6
CONTINUOUS
10
59.0308
20
-87.2195
11
59.0257
21
-87.2383
0
LINE
8
BLACK
6
CONTINUOUS
10
59.0257
20
-87.2383
11
59.024
21
-87.2577
0
LINE
8
BLACK
6
CONTINUOUS
10
59.024
20
-87.2577
11
53.1919
21
-99.7647
0
LINE
8
BLACK
6
CONTINUOUS
10
53.1919
20
-99.7647
11
53.1862
21
-99.7729
0
LINE
8
BLACK
6
CONTINUOUS
10
53.1862
20
-99.7729
11
53.1853
21
-99.7761
0
LINE
8
BLACK
6
CONTINUOUS
10
53.1853
20
-99.7761
11
53.1826
21
-99.778
0
LINE
8
BLACK
6
CONTINUOUS
10
53.1826
20
-99.778
11
53.1769
21
-99.7861
0
LINE
8
BLACK
6
CONTINUOUS
10
53.1769
20
-99.7861
11
53.1593
21
-99.7943
0
LINE
8
BLACK
6
CONTINUOUS
10
53.1593
20
-99.7943
11
53.1433
21
-99.8055
0
LINE
8
BLACK
6
CONTINUOUS
10
53.1433
20
-99.8055
11
53.1366
21
-99.8049
0
LINE
8
BLACK
6
CONTINUOUS
10
53.1366
20
-99.8049
11
53.1304
21
-99.8078
0
LINE
8
BLACK
6
CONTINUOUS
10
53.1304
20
-99.8078
11
53.1116
21
-99.8027
0
LINE
8
BLACK
6
CONTINUOUS
10
53.1116
20
-99.8027
11
53.0922
21
-99.801
0
LINE
8
BLACK
6
CONTINUOUS
10
53.0922
20
-99.801
11
40.5852
21
-93.9689
0
LINE
8
BLACK
6
CONTINUOUS
10
40.5852
20
-93.9689
11
40.5771
21
-93.9632
0
LINE
8
BLACK
6
CONTINUOUS
10
40.5771
20
-93.9632
11
40.5738
21
-93.9624
0
LINE
8
BLACK
6
CONTINUOUS
10
40.5738
20
-93.9624
11
40.5719
21
-93.9596
0
LINE
8
BLACK
6
CONTINUOUS
10
40.5719
20
-93.9596
11
40.5638
21
-93.954
0
LINE
8
BLACK
6
CONTINUOUS
10
40.5638
20
-93.954
11
40.5556
21
-93.9363
0
LINE
8
BLACK
6
CONTINUOUS
10
40.5556
20
-93.9363
11
40.5444
21
-93.9203
0
LINE
8
BLACK
6
CONTINUOUS
10
40.5444
20
-93.9203
11
40.545
21
-93.9136
0
LINE
8
BLACK
6
CONTINUOUS
10
40.545
20
-93.9136
11
40.5421
21
-93.9075
0
LINE
8
BLACK
6
CONTINUOUS
10
40.5421
20
-93.9075
11
40.5472
21
-93.8886
0
LINE
8
BLACK
6
CONTINUOUS
10
40.5472
20
-93.8886
11
40.5489
21
-93.8692
0
LINE
8
BLACK
6
CONTINUOUS
10
40.5489
20
-93.8692
11
46.381
21
-81.3622
0
LINE
8
BLACK
6
CONTINUOUS
10
46.381
20
-81.3622
11
46.3867
21
-81.3541
0
LINE
8
BLACK
6
CONTINUOUS
10
46.3867
20
-81.3541
11
46.3876
21
-81.3509
0
LINE
8
BLACK
6
CONTINUOUS
10
46.3876
20
-81.3509
11
46.3903
21
-81.3489
0
LINE
8
BLACK
6
CONTINUOUS
10
46.3903
20
-81.3489
11
46.396
21
-81.3408
0
LINE
8
BLACK
6
CONTINUOUS
10
46.396
20
-81.3408
11
46.4136
21
-81.3326
0
LINE
8
BLACK
6
CONTINUOUS
10
46.4136
20
-81.3326
11
46.4296
21
-81.3214
0
LINE
8
BLACK
6
CONTINUOUS
10
46.4296
20
-81.3214
11
46.4363
21
-81.322
0
LINE
8
BLACK
6
CONTINUOUS
10
46.4363
20
-81.322
11
46.4425
21
-81.3192
0
LINE
8
BLACK
6
CONTINUOUS
10
46.4425
20
-81.3192
11
46.4613
21
-81.3242
0
LINE
8
BLACK
6
CONTINUOUS
10
40.7165
20
-93.8646
11
53.0876
21
-99.6334
0
LINE
8
BLACK
6
CONTINUOUS
10
53.0876
20
-99.6334
11
58.8564
21
-87.2623
0
LINE
8
BLACK
6
CONTINUOUS
10
58.8564
20
-87.2623
11
46.4853
21
-81.4935
0
LINE
8
BLACK
6
CONTINUOUS
10
46.4853
20
-81.4935
11
40.7165
21
-93.8646
0
LINE
8
BLACK
6
CONTINUOUS
10
194.36
20
-80.2592
11
194.379
21
-80.2609
0
LINE
8
BLACK
6
CONTINUOUS
10
194.379
20
-80.2609
11
194.384
21
-80.2657
0
LINE
8
BLACK
6
CONTINUOUS
10
194.384
20
-80.2657
11
194.39
21
-80.2674
0
LINE
8
BLACK
6
CONTINUOUS
10
194.39
20
-80.2674
11
194.402
21
-80.2834
0
LINE
8
BLACK
6
CONTINUOUS
10
194.402
20
-80.2834
11
194.415
21
-80.2972
0
LINE
8
BLACK
6
CONTINUOUS
10
194.415
20
-80.2972
11
200.247
21
-92.8042
0
LINE
8
BLACK
6
CONTINUOUS
10
200.247
20
-92.8042
11
200.25
21
-92.8138
0
LINE
8
BLACK
6
CONTINUOUS
10
200.25
20
-92.8138
11
200.252
21
-92.8165
0
LINE
8
BLACK
6
CONTINUOUS
10
200.252
20
-92.8165
11
200.252
21
-92.8198
0
LINE
8
BLACK
6
CONTINUOUS
10
200.252
20
-92.8198
11
200.254
21
-92.8294
0
LINE
8
BLACK
6
CONTINUOUS
10
200.254
20
-92.8294
11
200.249
21
-92.8482
0
LINE
8
BLACK
6
CONTINUOUS
10
200.249
20
-92.8482
11
200.247
21
-92.8676
0
LINE
8
BLACK
6
CONTINUOUS
10
200.247
20
-92.8676
11
200.243
21
-92.8724
0
LINE
8
BLACK
6
CONTINUOUS
10
200.243
20
-92.8724
11
200.241
21
-92.8789
0
LINE
8
BLACK
6
CONTINUOUS
10
200.241
20
-92.8789
11
200.225
21
-92.8901
0
LINE
8
BLACK
6
CONTINUOUS
10
200.225
20
-92.8901
11
200.211
21
-92.9039
0
LINE
8
BLACK
6
CONTINUOUS
10
200.211
20
-92.9039
11
187.704
21
-98.736
0
LINE
8
BLACK
6
CONTINUOUS
10
187.704
20
-98.736
11
187.695
21
-98.7386
0
LINE
8
BLACK
6
CONTINUOUS
10
187.695
20
-98.7386
11
187.692
21
-98.7405
0
LINE
8
BLACK
6
CONTINUOUS
10
187.692
20
-98.7405
11
187.689
21
-98.7402
0
LINE
8
BLACK
6
CONTINUOUS
10
187.689
20
-98.7402
11
187.679
21
-98.7428
0
LINE
8
BLACK
6
CONTINUOUS
10
187.679
20
-98.7428
11
187.66
21
-98.7377
0
LINE
8
BLACK
6
CONTINUOUS
10
187.66
20
-98.7377
11
187.641
21
-98.736
0
LINE
8
BLACK
6
CONTINUOUS
10
187.641
20
-98.736
11
187.636
21
-98.7312
0
LINE
8
BLACK
6
CONTINUOUS
10
187.636
20
-98.7312
11
187.629
21
-98.7295
0
LINE
8
BLACK
6
CONTINUOUS
10
187.629
20
-98.7295
11
187.618
21
-98.7135
0
LINE
8
BLACK
6
CONTINUOUS
10
187.618
20
-98.7135
11
187.604
21
-98.6997
0
LINE
8
BLACK
6
CONTINUOUS
10
187.604
20
-98.6997
11
181.772
21
-86.1927
0
LINE
8
BLACK
6
CONTINUOUS
10
181.772
20
-86.1927
11
181.77
21
-86.1831
0
LINE
8
BLACK
6
CONTINUOUS
10
181.77
20
-86.1831
11
181.768
21
-86.1804
0
LINE
8
BLACK
6
CONTINUOUS
10
181.768
20
-86.1804
11
181.768
21
-86.1771
0
LINE
8
BLACK
6
CONTINUOUS
10
181.768
20
-86.1771
11
181.766
21
-86.1675
0
LINE
8
BLACK
6
CONTINUOUS
10
181.766
20
-86.1675
11
181.771
21
-86.1487
0
LINE
8
BLACK
6
CONTINUOUS
10
181.771
20
-86.1487
11
181.772
21
-86.1293
0
LINE
8
BLACK
6
CONTINUOUS
10
181.772
20
-86.1293
11
181.777
21
-86.1245
0
LINE
8
BLACK
6
CONTINUOUS
10
181.777
20
-86.1245
11
181.779
21
-86.118
0
LINE
8
BLACK
6
CONTINUOUS
10
181.779
20
-86.118
11
181.795
21
-86.1068
0
LINE
8
BLACK
6
CONTINUOUS
10
181.795
20
-86.1068
11
181.809
21
-86.093
0
LINE
8
BLACK
6
CONTINUOUS
10
181.809
20
-86.093
11
194.316
21
-80.2609
0
LINE
8
BLACK
6
CONTINUOUS
10
194.316
20
-80.2609
11
194.325
21
-80.2583
0
LINE
8
BLACK
6
CONTINUOUS
10
194.325
20
-80.2583
11
194.328
21
-80.2564
0
LINE
8
BLACK
6
CONTINUOUS
10
194.328
20
-80.2564
11
194.331
21
-80.2567
0
LINE
8
BLACK
6
CONTINUOUS
10
194.331
20
-80.2567
11
194.341
21
-80.2541
0
LINE
8
BLACK
6
CONTINUOUS
10
194.341
20
-80.2541
11
194.36
21
-80.2592
0
LINE
8
BLACK
6
CONTINUOUS
10
181.94
20
-86.1973
11
187.709
21
-98.5684
0
LINE
8
BLACK
6
CONTINUOUS
10
187.709
20
-98.5684
11
200.08
21
-92.7996
0
LINE
8
BLACK
6
CONTINUOUS
10
200.08
20
-92.7996
11
194.311
21
-80.4285
0
LINE
8
BLACK
6
CONTINUOUS
10
194.311
20
-80.4285
11
181.94
21
-86.1973
0
LINE
8
BLACK
6
CONTINUOUS
10
89.1498
20
-79.9306
11
89.1692
21
-79.9323
0
LINE
8
BLACK
6
CONTINUOUS
10
89.1692
20
-79.9323
11
101.676
21
-85.7644
0
LINE
8
BLACK
6
CONTINUOUS
10
101.676
20
-85.7644
11
101.684
21
-85.7701
0
LINE
8
BLACK
6
CONTINUOUS
10
101.684
20
-85.7701
11
101.688
21
-85.771
0
LINE
8
BLACK
6
CONTINUOUS
10
101.688
20
-85.771
11
101.69
21
-85.7737
0
LINE
8
BLACK
6
CONTINUOUS
10
101.69
20
-85.7737
11
101.698
21
-85.7794
0
LINE
8
BLACK
6
CONTINUOUS
10
101.698
20
-85.7794
11
101.706
21
-85.797
0
LINE
8
BLACK
6
CONTINUOUS
10
101.706
20
-85.797
11
101.717
21
-85.813
0
LINE
8
BLACK
6
CONTINUOUS
10
101.717
20
-85.813
11
101.716
21
-85.8197
0
LINE
8
BLACK
6
CONTINUOUS
10
101.716
20
-85.8197
11
101.719
21
-85.8259
0
LINE
8
BLACK
6
CONTINUOUS
10
101.719
20
-85.8259
11
101.714
21
-85.8447
0
LINE
8
BLACK
6
CONTINUOUS
10
101.714
20
-85.8447
11
101.713
21
-85.8641
0
LINE
8
BLACK
6
CONTINUOUS
10
101.713
20
-85.8641
11
95.8804
21
-98.3711
0
LINE
8
BLACK
6
CONTINUOUS
10
95.8804
20
-98.3711
11
95.8748
21
-98.3792
0
LINE
8
BLACK
6
CONTINUOUS
10
95.8748
20
-98.3792
11
95.8739
21
-98.3825
0
LINE
8
BLACK
6
CONTINUOUS
10
95.8739
20
-98.3825
11
95.8712
21
-98.3844
0
LINE
8
BLACK
6
CONTINUOUS
10
95.8712
20
-98.3844
11
95.8655
21
-98.3925
0
LINE
8
BLACK
6
CONTINUOUS
10
95.8655
20
-98.3925
11
95.8478
21
-98.4007
0
LINE
8
BLACK
6
CONTINUOUS
10
95.8478
20
-98.4007
11
95.8319
21
-98.4119
0
LINE
8
BLACK
6
CONTINUOUS
10
95.8319
20
-98.4119
11
95.8251
21
-98.4113
0
LINE
8
BLACK
6
CONTINUOUS
10
95.8251
20
-98.4113
11
95.819
21
-98.4142
0
LINE
8
BLACK
6
CONTINUOUS
10
95.819
20
-98.4142
11
95.8002
21
-98.4091
0
LINE
8
BLACK
6
CONTINUOUS
10
95.8002
20
-98.4091
11
95.7808
21
-98.4074
0
LINE
8
BLACK
6
CONTINUOUS
10
95.7808
20
-98.4074
11
83.2737
21
-92.5753
0
LINE
8
BLACK
6
CONTINUOUS
10
83.2737
20
-92.5753
11
83.2656
21
-92.5696
0
LINE
8
BLACK
6
CONTINUOUS
10
83.2656
20
-92.5696
11
83.2624
21
-92.5687
0
LINE
8
BLACK
6
CONTINUOUS
10
83.2624
20
-92.5687
11
83.2605
21
-92.566
0
LINE
8
BLACK
6
CONTINUOUS
10
83.2605
20
-92.566
11
83.2524
21
-92.5603
0
LINE
8
BLACK
6
CONTINUOUS
10
83.2524
20
-92.5603
11
83.2441
21
-92.5427
0
LINE
8
BLACK
6
CONTINUOUS
10
83.2441
20
-92.5427
11
83.233
21
-92.5267
0
LINE
8
BLACK
6
CONTINUOUS
10
83.233
20
-92.5267
11
83.2336
21
-92.52
0
LINE
8
BLACK
6
CONTINUOUS
10
83.2336
20
-92.52
11
83.2307
21
-92.5138
0
LINE
8
BLACK
6
CONTINUOUS
10
83.2307
20
-92.5138
11
83.2357
21
-92.495
0
LINE
8
BLACK
6
CONTINUOUS
10
83.2357
20
-92.495
11
83.2374
21
-92.4756
0
LINE
8
BLACK
6
CONTINUOUS
10
83.2374
20
-92.4756
11
89.0696
21
-79.9686
0
LINE
8
BLACK
6
CONTINUOUS
10
89.0696
20
-79.9686
11
89.0752
21
-79.9605
0
LINE
8
BLACK
6
CONTINUOUS
10
89.0752
20
-79.9605
11
89.0761
21
-79.9572
0
LINE
8
BLACK
6
CONTINUOUS
10
89.0761
20
-79.9572
11
89.0788
21
-79.9553
0
LINE
8
BLACK
6
CONTINUOUS
10
89.0788
20
-79.9553
11
89.0845
21
-79.9472
0
LINE
8
BLACK
6
CONTINUOUS
10
89.0845
20
-79.9472
11
89.1022
21
-79.939
0
LINE
8
BLACK
6
CONTINUOUS
10
89.1022
20
-79.939
11
89.1181
21
-79.9278
0
LINE
8
BLACK
6
CONTINUOUS
10
89.1181
20
-79.9278
11
89.1249
21
-79.9284
0
LINE
8
BLACK
6
CONTINUOUS
10
89.1249
20
-79.9284
11
89.131
21
-79.9255
0
LINE
8
BLACK
6
CONTINUOUS
10
89.131
20
-79.9255
11
89.1498
21
-79.9306
0
LINE
8
BLACK
6
CONTINUOUS
10
83.4051
20
-92.471
11
95.7762
21
-98.2398
0
LINE
8
BLACK
6
CONTINUOUS
10
95.7762
20
-98.2398
11
101.545
21
-85.8687
0
LINE
8
BLACK
6
CONTINUOUS
10
101.545
20
-85.8687
11
89.1738
21
-80.0999
0
LINE
8
BLACK
6
CONTINUOUS
10
89.1738
20
-80.0999
11
83.4051
21
-92.471
0
LINE
8
BLACK
6
CONTINUOUS
10
170.654
20
-74.4979
11
170.673
21
-74.4996
0
LINE
8
BLACK
6
CONTINUOUS
10
170.673
20
-74.4996
11
170.678
21
-74.5044
0
LINE
8
BLACK
6
CONTINUOUS
10
170.678
20
-74.5044
11
170.685
21
-74.5062
0
LINE
8
BLACK
6
CONTINUOUS
10
170.685
20
-74.5062
11
170.696
21
-74.5221
0
LINE
8
BLACK
6
CONTINUOUS
10
170.696
20
-74.5221
11
170.709
21
-74.5359
0
LINE
8
BLACK
6
CONTINUOUS
10
170.709
20
-74.5359
11
176.542
21
-87.043
0
LINE
8
BLACK
6
CONTINUOUS
10
176.542
20
-87.043
11
176.544
21
-87.0525
0
LINE
8
BLACK
6
CONTINUOUS
10
176.544
20
-87.0525
11
176.546
21
-87.0552
0
LINE
8
BLACK
6
CONTINUOUS
10
176.546
20
-87.0552
11
176.546
21
-87.0586
0
LINE
8
BLACK
6
CONTINUOUS
10
176.546
20
-87.0586
11
176.548
21
-87.0681
0
LINE
8
BLACK
6
CONTINUOUS
10
176.548
20
-87.0681
11
176.543
21
-87.0869
0
LINE
8
BLACK
6
CONTINUOUS
10
176.543
20
-87.0869
11
176.542
21
-87.1064
0
LINE
8
BLACK
6
CONTINUOUS
10
176.542
20
-87.1064
11
176.537
21
-87.1111
0
LINE
8
BLACK
6
CONTINUOUS
10
176.537
20
-87.1111
11
176.535
21
-87.1177
0
LINE
8
BLACK
6
CONTINUOUS
10
176.535
20
-87.1177
11
176.519
21
-87.1289
0
LINE
8
BLACK
6
CONTINUOUS
10
176.519
20
-87.1289
11
176.505
21
-87.1426
0
LINE
8
BLACK
6
CONTINUOUS
10
176.505
20
-87.1426
11
163.998
21
-92.9748
0
LINE
8
BLACK
6
CONTINUOUS
10
163.998
20
-92.9748
11
163.989
21
-92.9773
0
LINE
8
BLACK
6
CONTINUOUS
10
163.989
20
-92.9773
11
163.986
21
-92.9792
0
LINE
8
BLACK
6
CONTINUOUS
10
163.986
20
-92.9792
11
163.983
21
-92.9789
0
LINE
8
BLACK
6
CONTINUOUS
10
163.983
20
-92.9789
11
163.973
21
-92.9815
0
LINE
8
BLACK
6
CONTINUOUS
10
163.973
20
-92.9815
11
163.954
21
-92.9765
0
LINE
8
BLACK
6
CONTINUOUS
10
163.954
20
-92.9765
11
163.935
21
-92.9748
0
LINE
8
BLACK
6
CONTINUOUS
10
163.935
20
-92.9748
11
163.93
21
-92.97
0
LINE
8
BLACK
6
CONTINUOUS
10
163.93
20
-92.97
11
163.924
21
-92.9682
0
LINE
8
BLACK
6
CONTINUOUS
10
163.924
20
-92.9682
11
163.912
21
-92.9523
0
LINE
8
BLACK
6
CONTINUOUS
10
163.912
20
-92.9523
11
163.899
21
-92.9385
0
LINE
8
BLACK
6
CONTINUOUS
10
163.899
20
-92.9385
11
158.066
21
-80.4314
0
LINE
8
BLACK
6
CONTINUOUS
10
158.066
20
-80.4314
11
158.064
21
-80.4219
0
LINE
8
BLACK
6
CONTINUOUS
10
158.064
20
-80.4219
11
158.062
21
-80.4192
0
LINE
8
BLACK
6
CONTINUOUS
10
158.062
20
-80.4192
11
158.062
21
-80.4158
0
LINE
8
BLACK
6
CONTINUOUS
10
158.062
20
-80.4158
11
158.06
21
-80.4063
0
LINE
8
BLACK
6
CONTINUOUS
10
158.06
20
-80.4063
11
158.065
21
-80.3875
0
LINE
8
BLACK
6
CONTINUOUS
10
158.065
20
-80.3875
11
158.066
21
-80.368
0
LINE
8
BLACK
6
CONTINUOUS
10
158.066
20
-80.368
11
158.071
21
-80.3633
0
LINE
8
BLACK
6
CONTINUOUS
10
158.071
20
-80.3633
11
158.073
21
-80.3567
0
LINE
8
BLACK
6
CONTINUOUS
10
158.073
20
-80.3567
11
158.089
21
-80.3455
0
LINE
8
BLACK
6
CONTINUOUS
10
158.089
20
-80.3455
11
158.103
21
-80.3318
0
LINE
8
BLACK
6
CONTINUOUS
10
158.103
20
-80.3318
11
170.61
21
-74.4996
0
LINE
8
BLACK
6
CONTINUOUS
10
170.61
20
-74.4996
11
170.619
21
-74.4971
0
LINE
8
BLACK
6
CONTINUOUS
10
170.619
20
-74.4971
11
170.622
21
-74.4952
0
LINE
8
BLACK
6
CONTINUOUS
10
170.622
20
-74.4952
11
170.625
21
-74.4955
0
LINE
8
BLACK
6
CONTINUOUS
10
170.625
20
-74.4955
11
170.635
21
-74.4929
0
LINE
8
BLACK
6
CONTINUOUS
10
170.635
20
-74.4929
11
170.654
21
-74.4979
0
LINE
8
BLACK
6
CONTINUOUS
10
158.234
20
-80.436
11
164.003
21
-92.8071
0
LINE
8
BLACK
6
CONTINUOUS
10
164.003
20
-92.8071
11
176.374
21
-87.0384
0
LINE
8
BLACK
6
CONTINUOUS
10
176.374
20
-87.0384
11
170.605
21
-74.6673
0
LINE
8
BLACK
6
CONTINUOUS
10
170.605
20
-74.6673
11
158.234
21
-80.436
0
LINE
8
BLACK
6
CONTINUOUS
10
112.856
20
-74.1693
11
112.875
21
-74.171
0
LINE
8
BLACK
6
CONTINUOUS
10
112.875
20
-74.171
11
125.382
21
-80.0032
0
LINE
8
BLACK
6
CONTINUOUS
10
125.382
20
-80.0032
11
125.39
21
-80.0088
0
LINE
8
BLACK
6
CONTINUOUS
10
125.39
20
-80.0088
11
125.393
21
-80.0097
0
LINE
8
BLACK
6
CONTINUOUS
10
125.393
20
-80.0097
11
125.395
21
-80.0124
0
LINE
8
BLACK
6
CONTINUOUS
10
125.395
20
-80.0124
11
125.403
21
-80.0181
0
LINE
8
BLACK
6
CONTINUOUS
10
125.403
20
-80.0181
11
125.412
21
-80.0358
0
LINE
8
BLACK
6
CONTINUOUS
10
125.412
20
-80.0358
11
125.423
21
-80.0517
0
LINE
8
BLACK
6
CONTINUOUS
10
125.423
20
-80.0517
11
125.422
21
-80.0585
0
LINE
8
BLACK
6
CONTINUOUS
10
125.422
20
-80.0585
11
125.425
21
-80.0646
0
LINE
8
BLACK
6
CONTINUOUS
10
125.425
20
-80.0646
11
125.42
21
-80.0834
0
LINE
8
BLACK
6
CONTINUOUS
10
125.42
20
-80.0834
11
125.418
21
-80.1028
0
LINE
8
BLACK
6
CONTINUOUS
10
125.418
20
-80.1028
11
119.586
21
-92.6099
0
LINE
8
BLACK
6
CONTINUOUS
10
119.586
20
-92.6099
11
119.581
21
-92.618
0
LINE
8
BLACK
6
CONTINUOUS
10
119.581
20
-92.618
11
119.58
21
-92.6212
0
LINE
8
BLACK
6
CONTINUOUS
10
119.58
20
-92.6212
11
119.577
21
-92.6231
0
LINE
8
BLACK
6
CONTINUOUS
10
119.577
20
-92.6231
11
119.571
21
-92.6312
0
LINE
8
BLACK
6
CONTINUOUS
10
119.571
20
-92.6312
11
119.554
21
-92.6395
0
LINE
8
BLACK
6
CONTINUOUS
10
119.554
20
-92.6395
11
119.538
21
-92.6506
0
LINE
8
BLACK
6
CONTINUOUS
10
119.538
20
-92.6506
11
119.531
21
-92.65
0
LINE
8
BLACK
6
CONTINUOUS
10
119.531
20
-92.65
11
119.525
21
-92.6529
0
LINE
8
BLACK
6
CONTINUOUS
10
119.525
20
-92.6529
11
119.506
21
-92.6479
0
LINE
8
BLACK
6
CONTINUOUS
10
119.506
20
-92.6479
11
119.487
21
-92.6462
0
LINE
8
BLACK
6
CONTINUOUS
10
119.487
20
-92.6462
11
106.98
21
-86.814
0
LINE
8
BLACK
6
CONTINUOUS
10
106.98
20
-86.814
11
106.971
21
-86.8084
0
LINE
8
BLACK
6
CONTINUOUS
10
106.971
20
-86.8084
11
106.968
21
-86.8075
0
LINE
8
BLACK
6
CONTINUOUS
10
106.968
20
-86.8075
11
106.966
21
-86.8048
0
LINE
8
BLACK
6
CONTINUOUS
10
106.966
20
-86.8048
11
106.958
21
-86.7991
0
LINE
8
BLACK
6
CONTINUOUS
10
106.958
20
-86.7991
11
106.95
21
-86.7814
0
LINE
8
BLACK
6
CONTINUOUS
10
106.95
20
-86.7814
11
106.939
21
-86.7655
0
LINE
8
BLACK
6
CONTINUOUS
10
106.939
20
-86.7655
11
106.939
21
-86.7587
0
LINE
8
BLACK
6
CONTINUOUS
10
106.939
20
-86.7587
11
106.937
21
-86.7526
0
LINE
8
BLACK
6
CONTINUOUS
10
106.937
20
-86.7526
11
106.942
21
-86.7338
0
LINE
8
BLACK
6
CONTINUOUS
10
106.942
20
-86.7338
11
106.943
21
-86.7144
0
LINE
8
BLACK
6
CONTINUOUS
10
106.943
20
-86.7144
11
112.775
21
-74.2073
0
LINE
8
BLACK
6
CONTINUOUS
10
112.775
20
-74.2073
11
112.781
21
-74.1992
0
LINE
8
BLACK
6
CONTINUOUS
10
112.781
20
-74.1992
11
112.782
21
-74.196
0
LINE
8
BLACK
6
CONTINUOUS
10
112.782
20
-74.196
11
112.785
21
-74.1941
0
LINE
8
BLACK
6
CONTINUOUS
10
112.785
20
-74.1941
11
112.79
21
-74.186
0
LINE
8
BLACK
6
CONTINUOUS
10
112.79
20
-74.186
11
112.808
21
-74.1777
0
LINE
8
BLACK
6
CONTINUOUS
10
112.808
20
-74.1777
11
112.824
21
-74.1666
0
LINE
8
BLACK
6
CONTINUOUS
10
112.824
20
-74.1666
11
112.831
21
-74.1672
0
LINE
8
BLACK
6
CONTINUOUS
10
112.831
20
-74.1672
11
112.837
21
-74.1643
0
LINE
8
BLACK
6
CONTINUOUS
10
112.837
20
-74.1643
11
112.856
21
-74.1693
0
LINE
8
BLACK
6
CONTINUOUS
10
107.111
20
-86.7098
11
119.482
21
-92.4785
0
LINE
8
BLACK
6
CONTINUOUS
10
119.482
20
-92.4785
11
125.251
21
-80.1074
0
LINE
8
BLACK
6
CONTINUOUS
10
125.251
20
-80.1074
11
112.88
21
-74.3387
0
LINE
8
BLACK
6
CONTINUOUS
10
112.88
20
-74.3387
11
107.111
21
-86.7098
0
LINE
8
BLACK
6
CONTINUOUS
10
209.693
20
-68.0647
11
209.712
21
-68.0664
0
LINE
8
BLACK
6
CONTINUOUS
10
209.712
20
-68.0664
11
209.717
21
-68.0712
0
LINE
8
BLACK
6
CONTINUOUS
10
209.717
20
-68.0712
11
209.723
21
-68.0729
0
LINE
8
BLACK
6
CONTINUOUS
10
209.723
20
-68.0729
11
209.735
21
-68.0889
0
LINE
8
BLACK
6
CONTINUOUS
10
209.735
20
-68.0889
11
209.748
21
-68.1026
0
LINE
8
BLACK
6
CONTINUOUS
10
209.748
20
-68.1026
11
215.58
21
-80.6097
0
LINE
8
BLACK
6
CONTINUOUS
10
215.58
20
-80.6097
11
215.583
21
-80.6193
0
LINE
8
BLACK
6
CONTINUOUS
10
215.583
20
-80.6193
11
215.585
21
-80.622
0
LINE
8
BLACK
6
CONTINUOUS
10
215.585
20
-80.622
11
215.585
21
-80.6253
0
LINE
8
BLACK
6
CONTINUOUS
10
215.585
20
-80.6253
11
215.587
21
-80.6349
0
LINE
8
BLACK
6
CONTINUOUS
10
215.587
20
-80.6349
11
215.582
21
-80.6537
0
LINE
8
BLACK
6
CONTINUOUS
10
215.582
20
-80.6537
11
215.58
21
-80.6731
0
LINE
8
BLACK
6
CONTINUOUS
10
215.58
20
-80.6731
11
215.576
21
-80.6779
0
LINE
8
BLACK
6
CONTINUOUS
10
215.576
20
-80.6779
11
215.574
21
-80.6844
0
LINE
8
BLACK
6
CONTINUOUS
10
215.574
20
-80.6844
11
215.558
21
-80.6956
0
LINE
8
BLACK
6
CONTINUOUS
10
215.558
20
-80.6956
11
215.544
21
-80.7094
0
LINE
8
BLACK
6
CONTINUOUS
10
215.544
20
-80.7094
11
203.037
21
-86.5415
0
LINE
8
BLACK
6
CONTINUOUS
10
203.037
20
-86.5415
11
203.028
21
-86.5441
0
LINE
8
BLACK
6
CONTINUOUS
10
203.028
20
-86.5441
11
203.025
21
-86.546
0
LINE
8
BLACK
6
CONTINUOUS
10
203.025
20
-86.546
11
203.021
21
-86.5457
0
LINE
8
BLACK
6
CONTINUOUS
10
203.021
20
-86.5457
11
203.012
21
-86.5482
0
LINE
8
BLACK
6
CONTINUOUS
10
203.012
20
-86.5482
11
202.993
21
-86.5432
0
LINE
8
BLACK
6
CONTINUOUS
10
202.993
20
-86.5432
11
202.974
21
-86.5415
0
LINE
8
BLACK
6
CONTINUOUS
10
202.974
20
-86.5415
11
202.969
21
-86.5367
0
LINE
8
BLACK
6
CONTINUOUS
10
202.969
20
-86.5367
11
202.962
21
-86.535
0
LINE
8
BLACK
6
CONTINUOUS
10
202.962
20
-86.535
11
202.951
21
-86.519
0
LINE
8
BLACK
6
CONTINUOUS
10
202.951
20
-86.519
11
202.937
21
-86.5052
0
LINE
8
BLACK
6
CONTINUOUS
10
202.937
20
-86.5052
11
197.105
21
-73.9982
0
LINE
8
BLACK
6
CONTINUOUS
10
197.105
20
-73.9982
11
197.103
21
-73.9886
0
LINE
8
BLACK
6
CONTINUOUS
10
197.103
20
-73.9886
11
197.101
21
-73.9859
0
LINE
8
BLACK
6
CONTINUOUS
10
197.101
20
-73.9859
11
197.101
21
-73.9826
0
LINE
8
BLACK
6
CONTINUOUS
10
197.101
20
-73.9826
11
197.099
21
-73.973
0
LINE
8
BLACK
6
CONTINUOUS
10
197.099
20
-73.973
11
197.104
21
-73.9542
0
LINE
8
BLACK
6
CONTINUOUS
10
197.104
20
-73.9542
11
197.105
21
-73.9348
0
LINE
8
BLACK
6
CONTINUOUS
10
197.105
20
-73.9348
11
197.11
21
-73.93
0
LINE
8
BLACK
6
CONTINUOUS
10
197.11
20
-73.93
11
197.112
21
-73.9235
0
LINE
8
BLACK
6
CONTINUOUS
10
197.112
20
-73.9235
11
197.128
21
-73.9123
0
LINE
8
BLACK
6
CONTINUOUS
10
197.128
20
-73.9123
11
197.142
21
-73.8985
0
LINE
8
BLACK
6
CONTINUOUS
10
197.142
20
-73.8985
11
209.649
21
-68.0664
0
LINE
8
BLACK
6
CONTINUOUS
10
209.649
20
-68.0664
11
209.658
21
-68.0638
0
LINE
8
BLACK
6
CONTINUOUS
10
209.658
20
-68.0638
11
209.661
21
-68.0619
0
LINE
8
BLACK
6
CONTINUOUS
10
209.661
20
-68.0619
11
209.664
21
-68.0622
0
LINE
8
BLACK
6
CONTINUOUS
10
209.664
20
-68.0622
11
209.674
21
-68.0596
0
LINE
8
BLACK
6
CONTINUOUS
10
209.674
20
-68.0596
11
209.693
21
-68.0647
0
LINE
8
BLACK
6
CONTINUOUS
10
197.273
20
-74.0028
11
203.042
21
-86.3739
0
LINE
8
BLACK
6
CONTINUOUS
10
203.042
20
-86.3739
11
215.413
21
-80.6051
0
LINE
8
BLACK
6
CONTINUOUS
10
215.413
20
-80.6051
11
209.644
21
-68.234
0
LINE
8
BLACK
6
CONTINUOUS
10
209.644
20
-68.234
11
197.273
21
-74.0028
0
LINE
8
BLACK
6
CONTINUOUS
10
73.7924
20
-67.7247
11
73.8118
21
-67.7264
0
LINE
8
BLACK
6
CONTINUOUS
10
73.8118
20
-67.7264
11
86.3189
21
-73.5585
0
LINE
8
BLACK
6
CONTINUOUS
10
86.3189
20
-73.5585
11
86.327
21
-73.5642
0
LINE
8
BLACK
6
CONTINUOUS
10
86.327
20
-73.5642
11
86.3302
21
-73.565
0
LINE
8
BLACK
6
CONTINUOUS
10
86.3302
20
-73.565
11
86.3321
21
-73.5678
0
LINE
8
BLACK
6
CONTINUOUS
10
86.3321
20
-73.5678
11
86.3402
21
-73.5734
0
LINE
8
BLACK
6
CONTINUOUS
10
86.3402
20
-73.5734
11
86.3484
21
-73.5911
0
LINE
8
BLACK
6
CONTINUOUS
10
86.3484
20
-73.5911
11
86.3596
21
-73.6071
0
LINE
8
BLACK
6
CONTINUOUS
10
86.3596
20
-73.6071
11
86.359
21
-73.6138
0
LINE
8
BLACK
6
CONTINUOUS
10
86.359
20
-73.6138
11
86.3619
21
-73.6199
0
LINE
8
BLACK
6
CONTINUOUS
10
86.3619
20
-73.6199
11
86.3568
21
-73.6387
0
LINE
8
BLACK
6
CONTINUOUS
10
86.3568
20
-73.6387
11
86.3551
21
-73.6582
0
LINE
8
BLACK
6
CONTINUOUS
10
86.3551
20
-73.6582
11
80.523
21
-86.1652
0
LINE
8
BLACK
6
CONTINUOUS
10
80.523
20
-86.1652
11
80.5173
21
-86.1733
0
LINE
8
BLACK
6
CONTINUOUS
10
80.5173
20
-86.1733
11
80.5165
21
-86.1765
0
LINE
8
BLACK
6
CONTINUOUS
10
80.5165
20
-86.1765
11
80.5137
21
-86.1784
0
LINE
8
BLACK
6
CONTINUOUS
10
80.5137
20
-86.1784
11
80.5081
21
-86.1865
0
LINE
8
BLACK
6
CONTINUOUS
10
80.5081
20
-86.1865
11
80.4904
21
-86.1948
0
LINE
8
BLACK
6
CONTINUOUS
10
80.4904
20
-86.1948
11
80.4744
21
-86.206
0
LINE
8
BLACK
6
CONTINUOUS
10
80.4744
20
-86.206
11
80.4677
21
-86.2054
0
LINE
8
BLACK
6
CONTINUOUS
10
80.4677
20
-86.2054
11
80.4616
21
-86.2082
0
LINE
8
BLACK
6
CONTINUOUS
10
80.4616
20
-86.2082
11
80.4427
21
-86.2032
0
LINE
8
BLACK
6
CONTINUOUS
10
80.4427
20
-86.2032
11
80.4233
21
-86.2015
0
LINE
8
BLACK
6
CONTINUOUS
10
80.4233
20
-86.2015
11
67.9163
21
-80.3694
0
LINE
8
BLACK
6
CONTINUOUS
10
67.9163
20
-80.3694
11
67.9082
21
-80.3637
0
LINE
8
BLACK
6
CONTINUOUS
10
67.9082
20
-80.3637
11
67.905
21
-80.3628
0
LINE
8
BLACK
6
CONTINUOUS
10
67.905
20
-80.3628
11
67.9031
21
-80.3601
0
LINE
8
BLACK
6
CONTINUOUS
10
67.9031
20
-80.3601
11
67.895
21
-80.3544
0
LINE
8
BLACK
6
CONTINUOUS
10
67.895
20
-80.3544
11
67.8867
21
-80.3368
0
LINE
8
BLACK
6
CONTINUOUS
10
67.8867
20
-80.3368
11
67.8755
21
-80.3208
0
LINE
8
BLACK
6
CONTINUOUS
10
67.8755
20
-80.3208
11
67.8761
21
-80.3141
0
LINE
8
BLACK
6
CONTINUOUS
10
67.8761
20
-80.3141
11
67.8733
21
-80.3079
0
LINE
8
BLACK
6
CONTINUOUS
10
67.8733
20
-80.3079
11
67.8783
21
-80.2891
0
LINE
8
BLACK
6
CONTINUOUS
10
67.8783
20
-80.2891
11
67.88
21
-80.2697
0
LINE
8
BLACK
6
CONTINUOUS
10
67.88
20
-80.2697
11
73.7121
21
-67.7626
0
LINE
8
BLACK
6
CONTINUOUS
10
73.7121
20
-67.7626
11
73.7178
21
-67.7545
0
LINE
8
BLACK
6
CONTINUOUS
10
73.7178
20
-67.7545
11
73.7187
21
-67.7513
0
LINE
8
BLACK
6
CONTINUOUS
10
73.7187
20
-67.7513
11
73.7214
21
-67.7494
0
LINE
8
BLACK
6
CONTINUOUS
10
73.7214
20
-67.7494
11
73.7271
21
-67.7413
0
LINE
8
BLACK
6
CONTINUOUS
10
73.7271
20
-67.7413
11
73.7447
21
-67.7331
0
LINE
8
BLACK
6
CONTINUOUS
10
73.7447
20
-67.7331
11
73.7607
21
-67.7219
0
LINE
8
BLACK
6
CONTINUOUS
10
73.7607
20
-67.7219
11
73.7674
21
-67.7225
0
LINE
8
BLACK
6
CONTINUOUS
10
73.7674
20
-67.7225
11
73.7736
21
-67.7196
0
LINE
8
BLACK
6
CONTINUOUS
10
73.7736
20
-67.7196
11
73.7924
21
-67.7247
0
LINE
8
BLACK
6
CONTINUOUS
10
68.0477
20
-80.2651
11
80.4188
21
-86.0338
0
LINE
8
BLACK
6
CONTINUOUS
10
80.4188
20
-86.0338
11
86.1875
21
-73.6627
0
LINE
8
BLACK
6
CONTINUOUS
10
86.1875
20
-73.6627
11
73.8164
21
-67.894
0
LINE
8
BLACK
6
CONTINUOUS
10
73.8164
20
-67.894
11
68.0477
21
-80.2651
0
LINE
8
BLACK
6
CONTINUOUS
10
251.357
20
-67.1334
11
251.376
21
-67.1351
0
LINE
8
BLACK
6
CONTINUOUS
10
251.376
20
-67.1351
11
251.381
21
-67.1399
0
LINE
8
BLACK
6
CONTINUOUS
10
251.381
20
-67.1399
11
251.387
21
-67.1417
0
LINE
8
BLACK
6
CONTINUOUS
10
251.387
20
-67.1417
11
251.399
21
-67.1576
0
LINE
8
BLACK
6
CONTINUOUS
10
251.399
20
-67.1576
11
251.412
21
-67.1714
0
LINE
8
BLACK
6
CONTINUOUS
10
251.412
20
-67.1714
11
257.244
21
-79.6785
0
LINE
8
BLACK
6
CONTINUOUS
10
257.244
20
-79.6785
11
257.247
21
-79.688
0
LINE
8
BLACK
6
CONTINUOUS
10
257.247
20
-79.688
11
257.249
21
-79.6907
0
LINE
8
BLACK
6
CONTINUOUS
10
257.249
20
-79.6907
11
257.249
21
-79.6941
0
LINE
8
BLACK
6
CONTINUOUS
10
257.249
20
-79.6941
11
257.251
21
-79.7036
0
LINE
8
BLACK
6
CONTINUOUS
10
257.251
20
-79.7036
11
257.246
21
-79.7224
0
LINE
8
BLACK
6
CONTINUOUS
10
257.246
20
-79.7224
11
257.244
21
-79.7419
0
LINE
8
BLACK
6
CONTINUOUS
10
257.244
20
-79.7419
11
257.24
21
-79.7466
0
LINE
8
BLACK
6
CONTINUOUS
10
257.24
20
-79.7466
11
257.238
21
-79.7532
0
LINE
8
BLACK
6
CONTINUOUS
10
257.238
20
-79.7532
11
257.222
21
-79.7644
0
LINE
8
BLACK
6
CONTINUOUS
10
257.222
20
-79.7644
11
257.208
21
-79.7781
0
LINE
8
BLACK
6
CONTINUOUS
10
257.208
20
-79.7781
11
244.701
21
-85.6103
0
LINE
8
BLACK
6
CONTINUOUS
10
244.701
20
-85.6103
11
244.692
21
-85.6128
0
LINE
8
BLACK
6
CONTINUOUS
10
244.692
20
-85.6128
11
244.689
21
-85.6147
0
LINE
8
BLACK
6
CONTINUOUS
10
244.689
20
-85.6147
11
244.686
21
-85.6144
0
LINE
8
BLACK
6
CONTINUOUS
10
244.686
20
-85.6144
11
244.676
21
-85.617
0
LINE
8
BLACK
6
CONTINUOUS
10
244.676
20
-85.617
11
244.657
21
-85.612
0
LINE
8
BLACK
6
CONTINUOUS
10
244.657
20
-85.612
11
244.638
21
-85.6103
0
LINE
8
BLACK
6
CONTINUOUS
10
244.638
20
-85.6103
11
244.633
21
-85.6055
0
LINE
8
BLACK
6
CONTINUOUS
10
244.633
20
-85.6055
11
244.626
21
-85.6037
0
LINE
8
BLACK
6
CONTINUOUS
10
244.626
20
-85.6037
11
244.615
21
-85.5878
0
LINE
8
BLACK
6
CONTINUOUS
10
244.615
20
-85.5878
11
244.601
21
-85.574
0
LINE
8
BLACK
6
CONTINUOUS
10
244.601
20
-85.574
11
238.769
21
-73.0669
0
LINE
8
BLACK
6
CONTINUOUS
10
238.769
20
-73.0669
11
238.767
21
-73.0574
0
LINE
8
BLACK
6
CONTINUOUS
10
238.767
20
-73.0574
11
238.765
21
-73.0547
0
LINE
8
BLACK
6
CONTINUOUS
10
238.765
20
-73.0547
11
238.765
21
-73.0513
0
LINE
8
BLACK
6
CONTINUOUS
10
238.765
20
-73.0513
11
238.763
21
-73.0418
0
LINE
8
BLACK
6
CONTINUOUS
10
238.763
20
-73.0418
11
238.768
21
-73.023
0
LINE
8
BLACK
6
CONTINUOUS
10
238.768
20
-73.023
11
238.769
21
-73.0035
0
LINE
8
BLACK
6
CONTINUOUS
10
238.769
20
-73.0035
11
238.774
21
-72.9988
0
LINE
8
BLACK
6
CONTINUOUS
10
238.774
20
-72.9988
11
238.776
21
-72.9922
0
LINE
8
BLACK
6
CONTINUOUS
10
238.776
20
-72.9922
11
238.792
21
-72.981
0
LINE
8
BLACK
6
CONTINUOUS
10
238.792
20
-72.981
11
238.806
21
-72.9673
0
LINE
8
BLACK
6
CONTINUOUS
10
238.806
20
-72.9673
11
251.313
21
-67.1351
0
LINE
8
BLACK
6
CONTINUOUS
10
251.313
20
-67.1351
11
251.322
21
-67.1326
0
LINE
8
BLACK
6
CONTINUOUS
10
251.322
20
-67.1326
11
251.325
21
-67.1307
0
LINE
8
BLACK
6
CONTINUOUS
10
251.325
20
-67.1307
11
251.328
21
-67.131
0
LINE
8
BLACK
6
CONTINUOUS
10
251.328
20
-67.131
11
251.338
21
-67.1284
0
LINE
8
BLACK
6
CONTINUOUS
10
251.338
20
-67.1284
11
251.357
21
-67.1334
0
LINE
8
BLACK
6
CONTINUOUS
10
238.937
20
-73.0715
11
244.706
21
-85.4426
0
LINE
8
BLACK
6
CONTINUOUS
10
244.706
20
-85.4426
11
257.077
21
-79.6739
0
LINE
8
BLACK
6
CONTINUOUS
10
257.077
20
-79.6739
11
251.308
21
-67.3028
0
LINE
8
BLACK
6
CONTINUOUS
10
251.308
20
-67.3028
11
238.937
21
-73.0715
0
LINE
8
BLACK
6
CONTINUOUS
10
32.0944
20
-67.0579
11
32.1138
21
-67.0596
0
LINE
8
BLACK
6
CONTINUOUS
10
32.1138
20
-67.0596
11
44.6209
21
-72.8917
0
LINE
8
BLACK
6
CONTINUOUS
10
44.6209
20
-72.8917
11
44.629
21
-72.8974
0
LINE
8
BLACK
6
CONTINUOUS
10
44.629
20
-72.8974
11
44.6322
21
-72.8982
0
LINE
8
BLACK
6
CONTINUOUS
10
44.6322
20
-72.8982
11
44.6341
21
-72.901
0
LINE
8
BLACK
6
CONTINUOUS
10
44.6341
20
-72.901
11
44.6422
21
-72.9066
0
LINE
8
BLACK
6
CONTINUOUS
10
44.6422
20
-72.9066
11
44.6505
21
-72.9243
0
LINE
8
BLACK
6
CONTINUOUS
10
44.6505
20
-72.9243
11
44.6616
21
-72.9403
0
LINE
8
BLACK
6
CONTINUOUS
10
44.6616
20
-72.9403
11
44.661
21
-72.947
0
LINE
8
BLACK
6
CONTINUOUS
10
44.661
20
-72.947
11
44.6639
21
-72.9531
0
LINE
8
BLACK
6
CONTINUOUS
10
44.6639
20
-72.9531
11
44.6589
21
-72.9719
0
LINE
8
BLACK
6
CONTINUOUS
10
44.6589
20
-72.9719
11
44.6572
21
-72.9914
0
LINE
8
BLACK
6
CONTINUOUS
10
44.6572
20
-72.9914
11
38.825
21
-85.4984
0
LINE
8
BLACK
6
CONTINUOUS
10
38.825
20
-85.4984
11
38.8194
21
-85.5065
0
LINE
8
BLACK
6
CONTINUOUS
10
38.8194
20
-85.5065
11
38.8185
21
-85.5097
0
LINE
8
BLACK
6
CONTINUOUS
10
38.8185
20
-85.5097
11
38.8158
21
-85.5116
0
LINE
8
BLACK
6
CONTINUOUS
10
38.8158
20
-85.5116
11
38.8101
21
-85.5197
0
LINE
8
BLACK
6
CONTINUOUS
10
38.8101
20
-85.5197
11
38.7924
21
-85.528
0
LINE
8
BLACK
6
CONTINUOUS
10
38.7924
20
-85.528
11
38.7765
21
-85.5392
0
LINE
8
BLACK
6
CONTINUOUS
10
38.7765
20
-85.5392
11
38.7697
21
-85.5386
0
LINE
8
BLACK
6
CONTINUOUS
10
38.7697
20
-85.5386
11
38.7636
21
-85.5414
0
LINE
8
BLACK
6
CONTINUOUS
10
38.7636
20
-85.5414
11
38.7448
21
-85.5364
0
LINE
8
BLACK
6
CONTINUOUS
10
38.7448
20
-85.5364
11
38.7254
21
-85.5347
0
LINE
8
BLACK
6
CONTINUOUS
10
38.7254
20
-85.5347
11
26.2183
21
-79.7026
0
LINE
8
BLACK
6
CONTINUOUS
10
26.2183
20
-79.7026
11
26.2102
21
-79.6969
0
LINE
8
BLACK
6
CONTINUOUS
10
26.2102
20
-79.6969
11
26.207
21
-79.696
0
LINE
8
BLACK
6
CONTINUOUS
10
26.207
20
-79.696
11
26.2051
21
-79.6933
0
LINE
8
BLACK
6
CONTINUOUS
10
26.2051
20
-79.6933
11
26.197
21
-79.6876
0
LINE
8
BLACK
6
CONTINUOUS
10
26.197
20
-79.6876
11
26.1887
21
-79.67
0
LINE
8
BLACK
6
CONTINUOUS
10
26.1887
20
-79.67
11
26.1776
21
-79.654
0
LINE
8
BLACK
6
CONTINUOUS
10
26.1776
20
-79.654
11
26.1782
21
-79.6473
0
LINE
8
BLACK
6
CONTINUOUS
10
26.1782
20
-79.6473
11
26.1753
21
-79.6411
0
LINE
8
BLACK
6
CONTINUOUS
10
26.1753
20
-79.6411
11
26.1803
21
-79.6223
0
LINE
8
BLACK
6
CONTINUOUS
10
26.1803
20
-79.6223
11
26.182
21
-79.6029
0
LINE
8
BLACK
6
CONTINUOUS
10
26.182
20
-79.6029
11
32.0142
21
-67.0958
0
LINE
8
BLACK
6
CONTINUOUS
10
32.0142
20
-67.0958
11
32.0198
21
-67.0877
0
LINE
8
BLACK
6
CONTINUOUS
10
32.0198
20
-67.0877
11
32.0207
21
-67.0845
0
LINE
8
BLACK
6
CONTINUOUS
10
32.0207
20
-67.0845
11
32.0234
21
-67.0826
0
LINE
8
BLACK
6
CONTINUOUS
10
32.0234
20
-67.0826
11
32.0291
21
-67.0745
0
LINE
8
BLACK
6
CONTINUOUS
10
32.0291
20
-67.0745
11
32.0468
21
-67.0663
0
LINE
8
BLACK
6
CONTINUOUS
10
32.0468
20
-67.0663
11
32.0627
21
-67.0551
0
LINE
8
BLACK
6
CONTINUOUS
10
32.0627
20
-67.0551
11
32.0695
21
-67.0557
0
LINE
8
BLACK
6
CONTINUOUS
10
32.0695
20
-67.0557
11
32.0756
21
-67.0528
0
LINE
8
BLACK
6
CONTINUOUS
10
32.0756
20
-67.0528
11
32.0944
21
-67.0579
0
LINE
8
BLACK
6
CONTINUOUS
10
26.3497
20
-79.5983
11
38.7208
21
-85.367
0
LINE
8
BLACK
6
CONTINUOUS
10
38.7208
20
-85.367
11
44.4895
21
-72.9959
0
LINE
8
BLACK
6
CONTINUOUS
10
44.4895
20
-72.9959
11
32.1184
21
-67.2272
0
LINE
8
BLACK
6
CONTINUOUS
10
32.1184
20
-67.2272
11
26.3497
21
-79.5983
0
LINE
8
BLACK
6
CONTINUOUS
10
228.939
20
-64.1346
11
228.958
21
-64.1363
0
LINE
8
BLACK
6
CONTINUOUS
10
228.958
20
-64.1363
11
228.963
21
-64.1411
0
LINE
8
BLACK
6
CONTINUOUS
10
228.963
20
-64.1411
11
228.97
21
-64.1428
0
LINE
8
BLACK
6
CONTINUOUS
10
228.97
20
-64.1428
11
228.981
21
-64.1588
0
LINE
8
BLACK
6
CONTINUOUS
10
228.981
20
-64.1588
11
228.995
21
-64.1726
0
LINE
8
BLACK
6
CONTINUOUS
10
228.995
20
-64.1726
11
234.827
21
-76.6796
0
LINE
8
BLACK
6
CONTINUOUS
10
234.827
20
-76.6796
11
234.829
21
-76.6892
0
LINE
8
BLACK
6
CONTINUOUS
10
234.829
20
-76.6892
11
234.831
21
-76.6919
0
LINE
8
BLACK
6
CONTINUOUS
10
234.831
20
-76.6919
11
234.831
21
-76.6952
0
LINE
8
BLACK
6
CONTINUOUS
10
234.831
20
-76.6952
11
234.833
21
-76.7048
0
LINE
8
BLACK
6
CONTINUOUS
10
234.833
20
-76.7048
11
234.828
21
-76.7236
0
LINE
8
BLACK
6
CONTINUOUS
10
234.828
20
-76.7236
11
234.827
21
-76.743
0
LINE
8
BLACK
6
CONTINUOUS
10
234.827
20
-76.743
11
234.822
21
-76.7478
0
LINE
8
BLACK
6
CONTINUOUS
10
234.822
20
-76.7478
11
234.82
21
-76.7544
0
LINE
8
BLACK
6
CONTINUOUS
10
234.82
20
-76.7544
11
234.804
21
-76.7655
0
LINE
8
BLACK
6
CONTINUOUS
10
234.804
20
-76.7655
11
234.79
21
-76.7793
0
LINE
8
BLACK
6
CONTINUOUS
10
234.79
20
-76.7793
11
222.283
21
-82.6114
0
LINE
8
BLACK
6
CONTINUOUS
10
222.283
20
-82.6114
11
222.274
21
-82.614
0
LINE
8
BLACK
6
CONTINUOUS
10
222.274
20
-82.614
11
222.271
21
-82.6159
0
LINE
8
BLACK
6
CONTINUOUS
10
222.271
20
-82.6159
11
222.268
21
-82.6156
0
LINE
8
BLACK
6
CONTINUOUS
10
222.268
20
-82.6156
11
222.258
21
-82.6182
0
LINE
8
BLACK
6
CONTINUOUS
10
222.258
20
-82.6182
11
222.239
21
-82.6131
0
LINE
8
BLACK
6
CONTINUOUS
10
222.239
20
-82.6131
11
222.22
21
-82.6114
0
LINE
8
BLACK
6
CONTINUOUS
10
222.22
20
-82.6114
11
222.215
21
-82.6067
0
LINE
8
BLACK
6
CONTINUOUS
10
222.215
20
-82.6067
11
222.209
21
-82.6049
0
LINE
8
BLACK
6
CONTINUOUS
10
222.209
20
-82.6049
11
222.198
21
-82.5889
0
LINE
8
BLACK
6
CONTINUOUS
10
222.198
20
-82.5889
11
222.184
21
-82.5752
0
LINE
8
BLACK
6
CONTINUOUS
10
222.184
20
-82.5752
11
216.352
21
-70.0681
0
LINE
8
BLACK
6
CONTINUOUS
10
216.352
20
-70.0681
11
216.349
21
-70.0586
0
LINE
8
BLACK
6
CONTINUOUS
10
216.349
20
-70.0586
11
216.347
21
-70.0558
0
LINE
8
BLACK
6
CONTINUOUS
10
216.347
20
-70.0558
11
216.347
21
-70.0525
0
LINE
8
BLACK
6
CONTINUOUS
10
216.347
20
-70.0525
11
216.345
21
-70.043
0
LINE
8
BLACK
6
CONTINUOUS
10
216.345
20
-70.043
11
216.35
21
-70.0241
0
LINE
8
BLACK
6
CONTINUOUS
10
216.35
20
-70.0241
11
216.352
21
-70.0047
0
LINE
8
BLACK
6
CONTINUOUS
10
216.352
20
-70.0047
11
216.356
21
-69.9999
0
LINE
8
BLACK
6
CONTINUOUS
10
216.356
20
-69.9999
11
216.358
21
-69.9934
0
LINE
8
BLACK
6
CONTINUOUS
10
216.358
20
-69.9934
11
216.374
21
-69.9822
0
LINE
8
BLACK
6
CONTINUOUS
10
216.374
20
-69.9822
11
216.388
21
-69.9684
0
LINE
8
BLACK
6
CONTINUOUS
10
216.388
20
-69.9684
11
228.895
21
-64.1363
0
LINE
8
BLACK
6
CONTINUOUS
10
228.895
20
-64.1363
11
228.904
21
-64.1338
0
LINE
8
BLACK
6
CONTINUOUS
10
228.904
20
-64.1338
11
228.907
21
-64.1318
0
LINE
8
BLACK
6
CONTINUOUS
10
228.907
20
-64.1318
11
228.911
21
-64.1321
0
LINE
8
BLACK
6
CONTINUOUS
10
228.911
20
-64.1321
11
228.92
21
-64.1296
0
LINE
8
BLACK
6
CONTINUOUS
10
228.92
20
-64.1296
11
228.939
21
-64.1346
0
LINE
8
BLACK
6
CONTINUOUS
10
216.519
20
-70.0727
11
222.288
21
-82.4438
0
LINE
8
BLACK
6
CONTINUOUS
10
222.288
20
-82.4438
11
234.659
21
-76.6751
0
LINE
8
BLACK
6
CONTINUOUS
10
234.659
20
-76.6751
11
228.89
21
-64.304
0
LINE
8
BLACK
6
CONTINUOUS
10
228.89
20
-64.304
11
216.519
21
-70.0727
0
LINE
8
BLACK
6
CONTINUOUS
10
54.5122
20
-64.059
11
54.5316
21
-64.0607
0
LINE
8
BLACK
6
CONTINUOUS
10
54.5316
20
-64.0607
11
67.0386
21
-69.8929
0
LINE
8
BLACK
6
CONTINUOUS
10
67.0386
20
-69.8929
11
67.0467
21
-69.8985
0
LINE
8
BLACK
6
CONTINUOUS
10
67.0467
20
-69.8985
11
67.0499
21
-69.8994
0
LINE
8
BLACK
6
CONTINUOUS
10
67.0499
20
-69.8994
11
67.0518
21
-69.9021
0
LINE
8
BLACK
6
CONTINUOUS
10
67.0518
20
-69.9021
11
67.06
21
-69.9078
0
LINE
8
BLACK
6
CONTINUOUS
10
67.06
20
-69.9078
11
67.0682
21
-69.9255
0
LINE
8
BLACK
6
CONTINUOUS
10
67.0682
20
-69.9255
11
67.0794
21
-69.9414
0
LINE
8
BLACK
6
CONTINUOUS
10
67.0794
20
-69.9414
11
67.0788
21
-69.9482
0
LINE
8
BLACK
6
CONTINUOUS
10
67.0788
20
-69.9482
11
67.0816
21
-69.9543
0
LINE
8
BLACK
6
CONTINUOUS
10
67.0816
20
-69.9543
11
67.0766
21
-69.9731
0
LINE
8
BLACK
6
CONTINUOUS
10
67.0766
20
-69.9731
11
67.0749
21
-69.9925
0
LINE
8
BLACK
6
CONTINUOUS
10
67.0749
20
-69.9925
11
61.2428
21
-82.4996
0
LINE
8
BLACK
6
CONTINUOUS
10
61.2428
20
-82.4996
11
61.2371
21
-82.5077
0
LINE
8
BLACK
6
CONTINUOUS
10
61.2371
20
-82.5077
11
61.2362
21
-82.5109
0
LINE
8
BLACK
6
CONTINUOUS
10
61.2362
20
-82.5109
11
61.2335
21
-82.5128
0
LINE
8
BLACK
6
CONTINUOUS
10
61.2335
20
-82.5128
11
61.2278
21
-82.5209
0
LINE
8
BLACK
6
CONTINUOUS
10
61.2278
20
-82.5209
11
61.2102
21
-82.5292
0
LINE
8
BLACK
6
CONTINUOUS
10
61.2102
20
-82.5292
11
61.1942
21
-82.5403
0
LINE
8
BLACK
6
CONTINUOUS
10
61.1942
20
-82.5403
11
61.1875
21
-82.5397
0
LINE
8
BLACK
6
CONTINUOUS
10
61.1875
20
-82.5397
11
61.1813
21
-82.5426
0
LINE
8
BLACK
6
CONTINUOUS
10
61.1813
20
-82.5426
11
61.1625
21
-82.5376
0
LINE
8
BLACK
6
CONTINUOUS
10
61.1625
20
-82.5376
11
61.1431
21
-82.5359
0
LINE
8
BLACK
6
CONTINUOUS
10
61.1431
20
-82.5359
11
48.636
21
-76.7037
0
LINE
8
BLACK
6
CONTINUOUS
10
48.636
20
-76.7037
11
48.6279
21
-76.6981
0
LINE
8
BLACK
6
CONTINUOUS
10
48.6279
20
-76.6981
11
48.6247
21
-76.6972
0
LINE
8
BLACK
6
CONTINUOUS
10
48.6247
20
-76.6972
11
48.6228
21
-76.6945
0
LINE
8
BLACK
6
CONTINUOUS
10
48.6228
20
-76.6945
11
48.6147
21
-76.6888
0
LINE
8
BLACK
6
CONTINUOUS
10
48.6147
20
-76.6888
11
48.6065
21
-76.6711
0
LINE
8
BLACK
6
CONTINUOUS
10
48.6065
20
-76.6711
11
48.5953
21
-76.6552
0
LINE
8
BLACK
6
CONTINUOUS
10
48.5953
20
-76.6552
11
48.5959
21
-76.6484
0
LINE
8
BLACK
6
CONTINUOUS
10
48.5959
20
-76.6484
11
48.593
21
-76.6423
0
LINE
8
BLACK
6
CONTINUOUS
10
48.593
20
-76.6423
11
48.5981
21
-76.6235
0
LINE
8
BLACK
6
CONTINUOUS
10
48.5981
20
-76.6235
11
48.5998
21
-76.6041
0
LINE
8
BLACK
6
CONTINUOUS
10
48.5998
20
-76.6041
11
54.4319
21
-64.097
0
LINE
8
BLACK
6
CONTINUOUS
10
54.4319
20
-64.097
11
54.4376
21
-64.0889
0
LINE
8
BLACK
6
CONTINUOUS
10
54.4376
20
-64.0889
11
54.4384
21
-64.0857
0
LINE
8
BLACK
6
CONTINUOUS
10
54.4384
20
-64.0857
11
54.4412
21
-64.0838
0
LINE
8
BLACK
6
CONTINUOUS
10
54.4412
20
-64.0838
11
54.4468
21
-64.0757
0
LINE
8
BLACK
6
CONTINUOUS
10
54.4468
20
-64.0757
11
54.4645
21
-64.0674
0
LINE
8
BLACK
6
CONTINUOUS
10
54.4645
20
-64.0674
11
54.4805
21
-64.0563
0
LINE
8
BLACK
6
CONTINUOUS
10
54.4805
20
-64.0563
11
54.4872
21
-64.0569
0
LINE
8
BLACK
6
CONTINUOUS
10
54.4872
20
-64.0569
11
54.4933
21
-64.054
0
LINE
8
BLACK
6
CONTINUOUS
10
54.4933
20
-64.054
11
54.5122
21
-64.059
0
LINE
8
BLACK
6
CONTINUOUS
10
48.7674
20
-76.5995
11
61.1385
21
-82.3682
0
LINE
8
BLACK
6
CONTINUOUS
10
61.1385
20
-82.3682
11
66.9072
21
-69.9971
0
LINE
8
BLACK
6
CONTINUOUS
10
66.9072
20
-69.9971
11
54.5361
21
-64.2284
0
LINE
8
BLACK
6
CONTINUOUS
10
54.5361
20
-64.2284
11
48.7674
21
-76.5995
0
LINE
8
BLACK
6
CONTINUOUS
10
186.309
20
-62.994
11
186.328
21
-62.9957
0
LINE
8
BLACK
6
CONTINUOUS
10
186.328
20
-62.9957
11
186.333
21
-63.0005
0
LINE
8
BLACK
6
CONTINUOUS
10
186.333
20
-63.0005
11
186.339
21
-63.0023
0
LINE
8
BLACK
6
CONTINUOUS
10
186.339
20
-63.0023
11
186.351
21
-63.0182
0
LINE
8
BLACK
6
CONTINUOUS
10
186.351
20
-63.0182
11
186.364
21
-63.032
0
LINE
8
BLACK
6
CONTINUOUS
10
186.364
20
-63.032
11
192.197
21
-75.5391
0
LINE
8
BLACK
6
CONTINUOUS
10
192.197
20
-75.5391
11
192.199
21
-75.5486
0
LINE
8
BLACK
6
CONTINUOUS
10
192.199
20
-75.5486
11
192.201
21
-75.5513
0
LINE
8
BLACK
6
CONTINUOUS
10
192.201
20
-75.5513
11
192.201
21
-75.5547
0
LINE
8
BLACK
6
CONTINUOUS
10
192.201
20
-75.5547
11
192.203
21
-75.5642
0
LINE
8
BLACK
6
CONTINUOUS
10
192.203
20
-75.5642
11
192.198
21
-75.583
0
LINE
8
BLACK
6
CONTINUOUS
10
192.198
20
-75.583
11
192.197
21
-75.6024
0
LINE
8
BLACK
6
CONTINUOUS
10
192.197
20
-75.6024
11
192.192
21
-75.6072
0
LINE
8
BLACK
6
CONTINUOUS
10
192.192
20
-75.6072
11
192.19
21
-75.6138
0
LINE
8
BLACK
6
CONTINUOUS
10
192.19
20
-75.6138
11
192.174
21
-75.6249
0
LINE
8
BLACK
6
CONTINUOUS
10
192.174
20
-75.6249
11
192.16
21
-75.6387
0
LINE
8
BLACK
6
CONTINUOUS
10
192.16
20
-75.6387
11
179.653
21
-81.4709
0
LINE
8
BLACK
6
CONTINUOUS
10
179.653
20
-81.4709
11
179.644
21
-81.4734
0
LINE
8
BLACK
6
CONTINUOUS
10
179.644
20
-81.4734
11
179.641
21
-81.4753
0
LINE
8
BLACK
6
CONTINUOUS
10
179.641
20
-81.4753
11
179.638
21
-81.475
0
LINE
8
BLACK
6
CONTINUOUS
10
179.638
20
-81.475
11
179.628
21
-81.4776
0
LINE
8
BLACK
6
CONTINUOUS
10
179.628
20
-81.4776
11
179.609
21
-81.4725
0
LINE
8
BLACK
6
CONTINUOUS
10
179.609
20
-81.4725
11
179.59
21
-81.4709
0
LINE
8
BLACK
6
CONTINUOUS
10
179.59
20
-81.4709
11
179.585
21
-81.4661
0
LINE
8
BLACK
6
CONTINUOUS
10
179.585
20
-81.4661
11
179.579
21
-81.4643
0
LINE
8
BLACK
6
CONTINUOUS
10
179.579
20
-81.4643
11
179.567
21
-81.4484
0
LINE
8
BLACK
6
CONTINUOUS
10
179.567
20
-81.4484
11
179.554
21
-81.4346
0
LINE
8
BLACK
6
CONTINUOUS
10
179.554
20
-81.4346
11
173.721
21
-68.9275
0
LINE
8
BLACK
6
CONTINUOUS
10
173.721
20
-68.9275
11
173.719
21
-68.918
0
LINE
8
BLACK
6
CONTINUOUS
10
173.719
20
-68.918
11
173.717
21
-68.9152
0
LINE
8
BLACK
6
CONTINUOUS
10
173.717
20
-68.9152
11
173.717
21
-68.9119
0
LINE
8
BLACK
6
CONTINUOUS
10
173.717
20
-68.9119
11
173.715
21
-68.9024
0
LINE
8
BLACK
6
CONTINUOUS
10
173.715
20
-68.9024
11
173.72
21
-68.8835
0
LINE
8
BLACK
6
CONTINUOUS
10
173.72
20
-68.8835
11
173.721
21
-68.8641
0
LINE
8
BLACK
6
CONTINUOUS
10
173.721
20
-68.8641
11
173.726
21
-68.8593
0
LINE
8
BLACK
6
CONTINUOUS
10
173.726
20
-68.8593
11
173.728
21
-68.8528
0
LINE
8
BLACK
6
CONTINUOUS
10
173.728
20
-68.8528
11
173.744
21
-68.8416
0
LINE
8
BLACK
6
CONTINUOUS
10
173.744
20
-68.8416
11
173.758
21
-68.8279
0
LINE
8
BLACK
6
CONTINUOUS
10
173.758
20
-68.8279
11
186.265
21
-62.9957
0
LINE
8
BLACK
6
CONTINUOUS
10
186.265
20
-62.9957
11
186.274
21
-62.9932
0
LINE
8
BLACK
6
CONTINUOUS
10
186.274
20
-62.9932
11
186.277
21
-62.9913
0
LINE
8
BLACK
6
CONTINUOUS
10
186.277
20
-62.9913
11
186.28
21
-62.9915
0
LINE
8
BLACK
6
CONTINUOUS
10
186.28
20
-62.9915
11
186.29
21
-62.989
0
LINE
8
BLACK
6
CONTINUOUS
10
186.29
20
-62.989
11
186.309
21
-62.994
0
LINE
8
BLACK
6
CONTINUOUS
10
173.889
20
-68.9321
11
179.658
21
-81.3032
0
LINE
8
BLACK
6
CONTINUOUS
10
179.658
20
-81.3032
11
192.029
21
-75.5345
0
LINE
8
BLACK
6
CONTINUOUS
10
192.029
20
-75.5345
11
186.26
21
-63.1634
0
LINE
8
BLACK
6
CONTINUOUS
10
186.26
20
-63.1634
11
173.889
21
-68.9321
0
LINE
8
BLACK
6
CONTINUOUS
10
97.2007
20
-62.6654
11
97.2201
21
-62.6671
0
LINE
8
BLACK
6
CONTINUOUS
10
97.2201
20
-62.6671
11
109.727
21
-68.4993
0
LINE
8
BLACK
6
CONTINUOUS
10
109.727
20
-68.4993
11
109.735
21
-68.5049
0
LINE
8
BLACK
6
CONTINUOUS
10
109.735
20
-68.5049
11
109.738
21
-68.5058
0
LINE
8
BLACK
6
CONTINUOUS
10
109.738
20
-68.5058
11
109.74
21
-68.5085
0
LINE
8
BLACK
6
CONTINUOUS
10
109.74
20
-68.5085
11
109.749
21
-68.5142
0
LINE
8
BLACK
6
CONTINUOUS
10
109.749
20
-68.5142
11
109.757
21
-68.5319
0
LINE
8
BLACK
6
CONTINUOUS
10
109.757
20
-68.5319
11
109.768
21
-68.5478
0
LINE
8
BLACK
6
CONTINUOUS
10
109.768
20
-68.5478
11
109.767
21
-68.5546
0
LINE
8
BLACK
6
CONTINUOUS
10
109.767
20
-68.5546
11
109.77
21
-68.5607
0
LINE
8
BLACK
6
CONTINUOUS
10
109.77
20
-68.5607
11
109.765
21
-68.5795
0
LINE
8
BLACK
6
CONTINUOUS
10
109.765
20
-68.5795
11
109.763
21
-68.5989
0
LINE
8
BLACK
6
CONTINUOUS
10
109.763
20
-68.5989
11
103.931
21
-81.106
0
LINE
8
BLACK
6
CONTINUOUS
10
103.931
20
-81.106
11
103.926
21
-81.1141
0
LINE
8
BLACK
6
CONTINUOUS
10
103.926
20
-81.1141
11
103.925
21
-81.1173
0
LINE
8
BLACK
6
CONTINUOUS
10
103.925
20
-81.1173
11
103.922
21
-81.1192
0
LINE
8
BLACK
6
CONTINUOUS
10
103.922
20
-81.1192
11
103.916
21
-81.1273
0
LINE
8
BLACK
6
CONTINUOUS
10
103.916
20
-81.1273
11
103.899
21
-81.1355
0
LINE
8
BLACK
6
CONTINUOUS
10
103.899
20
-81.1355
11
103.883
21
-81.1467
0
LINE
8
BLACK
6
CONTINUOUS
10
103.883
20
-81.1467
11
103.876
21
-81.1461
0
LINE
8
BLACK
6
CONTINUOUS
10
103.876
20
-81.1461
11
103.87
21
-81.149
0
LINE
8
BLACK
6
CONTINUOUS
10
103.87
20
-81.149
11
103.851
21
-81.1439
0
LINE
8
BLACK
6
CONTINUOUS
10
103.851
20
-81.1439
11
103.832
21
-81.1423
0
LINE
8
BLACK
6
CONTINUOUS
10
103.832
20
-81.1423
11
91.3246
21
-75.3101
0
LINE
8
BLACK
6
CONTINUOUS
10
91.3246
20
-75.3101
11
91.3165
21
-75.3044
0
LINE
8
BLACK
6
CONTINUOUS
10
91.3165
20
-75.3044
11
91.3133
21
-75.3036
0
LINE
8
BLACK
6
CONTINUOUS
10
91.3133
20
-75.3036
11
91.3114
21
-75.3009
0
LINE
8
BLACK
6
CONTINUOUS
10
91.3114
20
-75.3009
11
91.3033
21
-75.2952
0
LINE
8
BLACK
6
CONTINUOUS
10
91.3033
20
-75.2952
11
91.295
21
-75.2775
0
LINE
8
BLACK
6
CONTINUOUS
10
91.295
20
-75.2775
11
91.2838
21
-75.2616
0
LINE
8
BLACK
6
CONTINUOUS
10
91.2838
20
-75.2616
11
91.2844
21
-75.2548
0
LINE
8
BLACK
6
CONTINUOUS
10
91.2844
20
-75.2548
11
91.2816
21
-75.2487
0
LINE
8
BLACK
6
CONTINUOUS
10
91.2816
20
-75.2487
11
91.2866
21
-75.2299
0
LINE
8
BLACK
6
CONTINUOUS
10
91.2866
20
-75.2299
11
91.2883
21
-75.2105
0
LINE
8
BLACK
6
CONTINUOUS
10
91.2883
20
-75.2105
11
97.1204
21
-62.7034
0
LINE
8
BLACK
6
CONTINUOUS
10
97.1204
20
-62.7034
11
97.1261
21
-62.6953
0
LINE
8
BLACK
6
CONTINUOUS
10
97.1261
20
-62.6953
11
97.127
21
-62.6921
0
LINE
8
BLACK
6
CONTINUOUS
10
97.127
20
-62.6921
11
97.1297
21
-62.6902
0
LINE
8
BLACK
6
CONTINUOUS
10
97.1297
20
-62.6902
11
97.1354
21
-62.6821
0
LINE
8
BLACK
6
CONTINUOUS
10
97.1354
20
-62.6821
11
97.153
21
-62.6738
0
LINE
8
BLACK
6
CONTINUOUS
10
97.153
20
-62.6738
11
97.169
21
-62.6627
0
LINE
8
BLACK
6
CONTINUOUS
10
97.169
20
-62.6627
11
97.1758
21
-62.6632
0
LINE
8
BLACK
6
CONTINUOUS
10
97.1758
20
-62.6632
11
97.1819
21
-62.6604
0
LINE
8
BLACK
6
CONTINUOUS
10
97.1819
20
-62.6604
11
97.2007
21
-62.6654
0
LINE
8
BLACK
6
CONTINUOUS
10
91.456
20
-75.2059
11
103.827
21
-80.9746
0
LINE
8
BLACK
6
CONTINUOUS
10
103.827
20
-80.9746
11
109.596
21
-68.6035
0
LINE
8
BLACK
6
CONTINUOUS
10
109.596
20
-68.6035
11
97.2247
21
-62.8348
0
LINE
8
BLACK
6
CONTINUOUS
10
97.2247
20
-62.8348
11
91.456
21
-75.2059
0
LINE
8
BLACK
6
CONTINUOUS
10
201.642
20
-50.7995
11
201.661
21
-50.8012
0
LINE
8
BLACK
6
CONTINUOUS
10
201.661
20
-50.8012
11
201.666
21
-50.806
0
LINE
8
BLACK
6
CONTINUOUS
10
201.666
20
-50.806
11
201.672
21
-50.8077
0
LINE
8
BLACK
6
CONTINUOUS
10
201.672
20
-50.8077
11
201.684
21
-50.8237
0
LINE
8
BLACK
6
CONTINUOUS
10
201.684
20
-50.8237
11
201.697
21
-50.8375
0
LINE
8
BLACK
6
CONTINUOUS
10
201.697
20
-50.8375
11
207.53
21
-63.3445
0
LINE
8
BLACK
6
CONTINUOUS
10
207.53
20
-63.3445
11
207.532
21
-63.3541
0
LINE
8
BLACK
6
CONTINUOUS
10
207.532
20
-63.3541
11
207.534
21
-63.3568
0
LINE
8
BLACK
6
CONTINUOUS
10
207.534
20
-63.3568
11
207.534
21
-63.3601
0
LINE
8
BLACK
6
CONTINUOUS
10
207.534
20
-63.3601
11
207.536
21
-63.3697
0
LINE
8
BLACK
6
CONTINUOUS
10
207.536
20
-63.3697
11
207.531
21
-63.3885
0
LINE
8
BLACK
6
CONTINUOUS
10
207.531
20
-63.3885
11
207.53
21
-63.4079
0
LINE
8
BLACK
6
CONTINUOUS
10
207.53
20
-63.4079
11
207.525
21
-63.4127
0
LINE
8
BLACK
6
CONTINUOUS
10
207.525
20
-63.4127
11
207.523
21
-63.4192
0
LINE
8
BLACK
6
CONTINUOUS
10
207.523
20
-63.4192
11
207.507
21
-63.4304
0
LINE
8
BLACK
6
CONTINUOUS
10
207.507
20
-63.4304
11
207.493
21
-63.4442
0
LINE
8
BLACK
6
CONTINUOUS
10
207.493
20
-63.4442
11
194.986
21
-69.2763
0
LINE
8
BLACK
6
CONTINUOUS
10
194.986
20
-69.2763
11
194.977
21
-69.2789
0
LINE
8
BLACK
6
CONTINUOUS
10
194.977
20
-69.2789
11
194.974
21
-69.2808
0
LINE
8
BLACK
6
CONTINUOUS
10
194.974
20
-69.2808
11
194.971
21
-69.2805
0
LINE
8
BLACK
6
CONTINUOUS
10
194.971
20
-69.2805
11
194.961
21
-69.2831
0
LINE
8
BLACK
6
CONTINUOUS
10
194.961
20
-69.2831
11
194.942
21
-69.278
0
LINE
8
BLACK
6
CONTINUOUS
10
194.942
20
-69.278
11
194.923
21
-69.2763
0
LINE
8
BLACK
6
CONTINUOUS
10
194.923
20
-69.2763
11
194.918
21
-69.2715
0
LINE
8
BLACK
6
CONTINUOUS
10
194.918
20
-69.2715
11
194.911
21
-69.2698
0
LINE
8
BLACK
6
CONTINUOUS
10
194.911
20
-69.2698
11
194.9
21
-69.2538
0
LINE
8
BLACK
6
CONTINUOUS
10
194.9
20
-69.2538
11
194.887
21
-69.2401
0
LINE
8
BLACK
6
CONTINUOUS
10
194.887
20
-69.2401
11
189.054
21
-56.733
0
LINE
8
BLACK
6
CONTINUOUS
10
189.054
20
-56.733
11
189.052
21
-56.7235
0
LINE
8
BLACK
6
CONTINUOUS
10
189.052
20
-56.7235
11
189.05
21
-56.7207
0
LINE
8
BLACK
6
CONTINUOUS
10
189.05
20
-56.7207
11
189.05
21
-56.7174
0
LINE
8
BLACK
6
CONTINUOUS
10
189.05
20
-56.7174
11
189.048
21
-56.7079
0
LINE
8
BLACK
6
CONTINUOUS
10
189.048
20
-56.7079
11
189.053
21
-56.689
0
LINE
8
BLACK
6
CONTINUOUS
10
189.053
20
-56.689
11
189.054
21
-56.6696
0
LINE
8
BLACK
6
CONTINUOUS
10
189.054
20
-56.6696
11
189.059
21
-56.6648
0
LINE
8
BLACK
6
CONTINUOUS
10
189.059
20
-56.6648
11
189.061
21
-56.6583
0
LINE
8
BLACK
6
CONTINUOUS
10
189.061
20
-56.6583
11
189.077
21
-56.6471
0
LINE
8
BLACK
6
CONTINUOUS
10
189.077
20
-56.6471
11
189.091
21
-56.6333
0
LINE
8
BLACK
6
CONTINUOUS
10
189.091
20
-56.6333
11
201.598
21
-50.8012
0
LINE
8
BLACK
6
CONTINUOUS
10
201.598
20
-50.8012
11
201.607
21
-50.7986
0
LINE
8
BLACK
6
CONTINUOUS
10
201.607
20
-50.7986
11
201.61
21
-50.7967
0
LINE
8
BLACK
6
CONTINUOUS
10
201.61
20
-50.7967
11
201.613
21
-50.797
0
LINE
8
BLACK
6
CONTINUOUS
10
201.613
20
-50.797
11
201.623
21
-50.7945
0
LINE
8
BLACK
6
CONTINUOUS
10
201.623
20
-50.7945
11
201.642
21
-50.7995
0
LINE
8
BLACK
6
CONTINUOUS
10
189.222
20
-56.7376
11
194.991
21
-69.1087
0
LINE
8
BLACK
6
CONTINUOUS
10
194.991
20
-69.1087
11
207.362
21
-63.34
0
LINE
8
BLACK
6
CONTINUOUS
10
207.362
20
-63.34
11
201.593
21
-50.9689
0
LINE
8
BLACK
6
CONTINUOUS
10
201.593
20
-50.9689
11
189.222
21
-56.7376
0
LINE
8
BLACK
6
CONTINUOUS
10
81.8433
20
-50.4595
11
81.8627
21
-50.4612
0
LINE
8
BLACK
6
CONTINUOUS
10
81.8627
20
-50.4612
11
94.3697
21
-56.2933
0
LINE
8
BLACK
6
CONTINUOUS
10
94.3697
20
-56.2933
11
94.3778
21
-56.299
0
LINE
8
BLACK
6
CONTINUOUS
10
94.3778
20
-56.299
11
94.3811
21
-56.2999
0
LINE
8
BLACK
6
CONTINUOUS
10
94.3811
20
-56.2999
11
94.383
21
-56.3026
0
LINE
8
BLACK
6
CONTINUOUS
10
94.383
20
-56.3026
11
94.3911
21
-56.3083
0
LINE
8
BLACK
6
CONTINUOUS
10
94.3911
20
-56.3083
11
94.3993
21
-56.3259
0
LINE
8
BLACK
6
CONTINUOUS
10
94.3993
20
-56.3259
11
94.4105
21
-56.3419
0
LINE
8
BLACK
6
CONTINUOUS
10
94.4105
20
-56.3419
11
94.4099
21
-56.3486
0
LINE
8
BLACK
6
CONTINUOUS
10
94.4099
20
-56.3486
11
94.4128
21
-56.3548
0
LINE
8
BLACK
6
CONTINUOUS
10
94.4128
20
-56.3548
11
94.4077
21
-56.3736
0
LINE
8
BLACK
6
CONTINUOUS
10
94.4077
20
-56.3736
11
94.406
21
-56.393
0
LINE
8
BLACK
6
CONTINUOUS
10
94.406
20
-56.393
11
88.5739
21
-68.9
0
LINE
8
BLACK
6
CONTINUOUS
10
88.5739
20
-68.9
11
88.5682
21
-68.9082
0
LINE
8
BLACK
6
CONTINUOUS
10
88.5682
20
-68.9082
11
88.5673
21
-68.9114
0
LINE
8
BLACK
6
CONTINUOUS
10
88.5673
20
-68.9114
11
88.5646
21
-68.9133
0
LINE
8
BLACK
6
CONTINUOUS
10
88.5646
20
-68.9133
11
88.5589
21
-68.9214
0
LINE
8
BLACK
6
CONTINUOUS
10
88.5589
20
-68.9214
11
88.5413
21
-68.9296
0
LINE
8
BLACK
6
CONTINUOUS
10
88.5413
20
-68.9296
11
88.5253
21
-68.9408
0
LINE
8
BLACK
6
CONTINUOUS
10
88.5253
20
-68.9408
11
88.5186
21
-68.9402
0
LINE
8
BLACK
6
CONTINUOUS
10
88.5186
20
-68.9402
11
88.5125
21
-68.9431
0
LINE
8
BLACK
6
CONTINUOUS
10
88.5125
20
-68.9431
11
88.4936
21
-68.938
0
LINE
8
BLACK
6
CONTINUOUS
10
88.4936
20
-68.938
11
88.4742
21
-68.9363
0
LINE
8
BLACK
6
CONTINUOUS
10
88.4742
20
-68.9363
11
75.9672
21
-63.1042
0
LINE
8
BLACK
6
CONTINUOUS
10
75.9672
20
-63.1042
11
75.9591
21
-63.0985
0
LINE
8
BLACK
6
CONTINUOUS
10
75.9591
20
-63.0985
11
75.9558
21
-63.0977
0
LINE
8
BLACK
6
CONTINUOUS
10
75.9558
20
-63.0977
11
75.9539
21
-63.0949
0
LINE
8
BLACK
6
CONTINUOUS
10
75.9539
20
-63.0949
11
75.9458
21
-63.0893
0
LINE
8
BLACK
6
CONTINUOUS
10
75.9458
20
-63.0893
11
75.9376
21
-63.0716
0
LINE
8
BLACK
6
CONTINUOUS
10
75.9376
20
-63.0716
11
75.9264
21
-63.0556
0
LINE
8
BLACK
6
CONTINUOUS
10
75.9264
20
-63.0556
11
75.927
21
-63.0489
0
LINE
8
BLACK
6
CONTINUOUS
10
75.927
20
-63.0489
11
75.9242
21
-63.0428
0
LINE
8
BLACK
6
CONTINUOUS
10
75.9242
20
-63.0428
11
75.9292
21
-63.0239
0
LINE
8
BLACK
6
CONTINUOUS
10
75.9292
20
-63.0239
11
75.9309
21
-63.0045
0
LINE
8
BLACK
6
CONTINUOUS
10
75.9309
20
-63.0045
11
81.763
21
-50.4975
0
LINE
8
BLACK
6
CONTINUOUS
10
81.763
20
-50.4975
11
81.7687
21
-50.4894
0
LINE
8
BLACK
6
CONTINUOUS
10
81.7687
20
-50.4894
11
81.7696
21
-50.4862
0
LINE
8
BLACK
6
CONTINUOUS
10
81.7696
20
-50.4862
11
81.7723
21
-50.4842
0
LINE
8
BLACK
6
CONTINUOUS
10
81.7723
20
-50.4842
11
81.778
21
-50.4761
0
LINE
8
BLACK
6
CONTINUOUS
10
81.778
20
-50.4761
11
81.7956
21
-50.4679
0
LINE
8
BLACK
6
CONTINUOUS
10
81.7956
20
-50.4679
11
81.8116
21
-50.4567
0
LINE
8
BLACK
6
CONTINUOUS
10
81.8116
20
-50.4567
11
81.8183
21
-50.4573
0
LINE
8
BLACK
6
CONTINUOUS
10
81.8183
20
-50.4573
11
81.8245
21
-50.4545
0
LINE
8
BLACK
6
CONTINUOUS
10
81.8245
20
-50.4545
11
81.8433
21
-50.4595
0
LINE
8
BLACK
6
CONTINUOUS
10
76.0985
20
-62.9999
11
88.4696
21
-68.7687
0
LINE
8
BLACK
6
CONTINUOUS
10
88.4696
20
-68.7687
11
94.2384
21
-56.3976
0
LINE
8
BLACK
6
CONTINUOUS
10
94.2384
20
-56.3976
11
81.8673
21
-50.6288
0
LINE
8
BLACK
6
CONTINUOUS
10
81.8673
20
-50.6288
11
76.0985
21
-62.9999
0
LINE
8
BLACK
6
CONTINUOUS
10
243.306
20
-49.8683
11
243.325
21
-49.87
0
LINE
8
BLACK
6
CONTINUOUS
10
243.325
20
-49.87
11
243.33
21
-49.8748
0
LINE
8
BLACK
6
CONTINUOUS
10
243.33
20
-49.8748
11
243.336
21
-49.8765
0
LINE
8
BLACK
6
CONTINUOUS
10
243.336
20
-49.8765
11
243.348
21
-49.8925
0
LINE
8
BLACK
6
CONTINUOUS
10
243.348
20
-49.8925
11
243.361
21
-49.9063
0
LINE
8
BLACK
6
CONTINUOUS
10
243.361
20
-49.9063
11
249.194
21
-62.4133
0
LINE
8
BLACK
6
CONTINUOUS
10
249.194
20
-62.4133
11
249.196
21
-62.4229
0
LINE
8
BLACK
6
CONTINUOUS
10
249.196
20
-62.4229
11
249.198
21
-62.4256
0
LINE
8
BLACK
6
CONTINUOUS
10
249.198
20
-62.4256
11
249.198
21
-62.4289
0
LINE
8
BLACK
6
CONTINUOUS
10
249.198
20
-62.4289
11
249.2
21
-62.4385
0
LINE
8
BLACK
6
CONTINUOUS
10
249.2
20
-62.4385
11
249.195
21
-62.4573
0
LINE
8
BLACK
6
CONTINUOUS
10
249.195
20
-62.4573
11
249.194
21
-62.4767
0
LINE
8
BLACK
6
CONTINUOUS
10
249.194
20
-62.4767
11
249.189
21
-62.4815
0
LINE
8
BLACK
6
CONTINUOUS
10
249.189
20
-62.4815
11
249.187
21
-62.488
0
LINE
8
BLACK
6
CONTINUOUS
10
249.187
20
-62.488
11
249.171
21
-62.4992
0
LINE
8
BLACK
6
CONTINUOUS
10
249.171
20
-62.4992
11
249.157
21
-62.513
0
LINE
8
BLACK
6
CONTINUOUS
10
249.157
20
-62.513
11
236.65
21
-68.3451
0
LINE
8
BLACK
6
CONTINUOUS
10
236.65
20
-68.3451
11
236.641
21
-68.3477
0
LINE
8
BLACK
6
CONTINUOUS
10
236.641
20
-68.3477
11
236.638
21
-68.3496
0
LINE
8
BLACK
6
CONTINUOUS
10
236.638
20
-68.3496
11
236.635
21
-68.3493
0
LINE
8
BLACK
6
CONTINUOUS
10
236.635
20
-68.3493
11
236.625
21
-68.3518
0
LINE
8
BLACK
6
CONTINUOUS
10
236.625
20
-68.3518
11
236.606
21
-68.3468
0
LINE
8
BLACK
6
CONTINUOUS
10
236.606
20
-68.3468
11
236.587
21
-68.3451
0
LINE
8
BLACK
6
CONTINUOUS
10
236.587
20
-68.3451
11
236.582
21
-68.3403
0
LINE
8
BLACK
6
CONTINUOUS
10
236.582
20
-68.3403
11
236.576
21
-68.3386
0
LINE
8
BLACK
6
CONTINUOUS
10
236.576
20
-68.3386
11
236.564
21
-68.3226
0
LINE
8
BLACK
6
CONTINUOUS
10
236.564
20
-68.3226
11
236.551
21
-68.3088
0
LINE
8
BLACK
6
CONTINUOUS
10
236.551
20
-68.3088
11
230.718
21
-55.8018
0
LINE
8
BLACK
6
CONTINUOUS
10
230.718
20
-55.8018
11
230.716
21
-55.7922
0
LINE
8
BLACK
6
CONTINUOUS
10
230.716
20
-55.7922
11
230.714
21
-55.7895
0
LINE
8
BLACK
6
CONTINUOUS
10
230.714
20
-55.7895
11
230.714
21
-55.7862
0
LINE
8
BLACK
6
CONTINUOUS
10
230.714
20
-55.7862
11
230.712
21
-55.7766
0
LINE
8
BLACK
6
CONTINUOUS
10
230.712
20
-55.7766
11
230.717
21
-55.7578
0
LINE
8
BLACK
6
CONTINUOUS
10
230.717
20
-55.7578
11
230.718
21
-55.7384
0
LINE
8
BLACK
6
CONTINUOUS
10
230.718
20
-55.7384
11
230.723
21
-55.7336
0
LINE
8
BLACK
6
CONTINUOUS
10
230.723
20
-55.7336
11
230.725
21
-55.7271
0
LINE
8
BLACK
6
CONTINUOUS
10
230.725
20
-55.7271
11
230.741
21
-55.7159
0
LINE
8
BLACK
6
CONTINUOUS
10
230.741
20
-55.7159
11
230.755
21
-55.7021
0
LINE
8
BLACK
6
CONTINUOUS
10
230.755
20
-55.7021
11
243.262
21
-49.87
0
LINE
8
BLACK
6
CONTINUOUS
10
243.262
20
-49.87
11
243.271
21
-49.8674
0
LINE
8
BLACK
6
CONTINUOUS
10
243.271
20
-49.8674
11
243.274
21
-49.8655
0
LINE
8
BLACK
6
CONTINUOUS
10
243.274
20
-49.8655
11
243.277
21
-49.8658
0
LINE
8
BLACK
6
CONTINUOUS
10
243.277
20
-49.8658
11
243.287
21
-49.8632
0
LINE
8
BLACK
6
CONTINUOUS
10
243.287
20
-49.8632
11
243.306
21
-49.8683
0
LINE
8
BLACK
6
CONTINUOUS
10
230.886
20
-55.8064
11
236.655
21
-68.1775
0
LINE
8
BLACK
6
CONTINUOUS
10
236.655
20
-68.1775
11
249.026
21
-62.4087
0
LINE
8
BLACK
6
CONTINUOUS
10
249.026
20
-62.4087
11
243.257
21
-50.0376
0
LINE
8
BLACK
6
CONTINUOUS
10
243.257
20
-50.0376
11
230.886
21
-55.8064
0
LINE
8
BLACK
6
CONTINUOUS
10
40.1453
20
-49.7927
11
40.1647
21
-49.7944
0
LINE
8
BLACK
6
CONTINUOUS
10
40.1647
20
-49.7944
11
52.6718
21
-55.6265
0
LINE
8
BLACK
6
CONTINUOUS
10
52.6718
20
-55.6265
11
52.6799
21
-55.6322
0
LINE
8
BLACK
6
CONTINUOUS
10
52.6799
20
-55.6322
11
52.6831
21
-55.6331
0
LINE
8
BLACK
6
CONTINUOUS
10
52.6831
20
-55.6331
11
52.685
21
-55.6358
0
LINE
8
BLACK
6
CONTINUOUS
10
52.685
20
-55.6358
11
52.6931
21
-55.6415
0
LINE
8
BLACK
6
CONTINUOUS
10
52.6931
20
-55.6415
11
52.7013
21
-55.6591
0
LINE
8
BLACK
6
CONTINUOUS
10
52.7013
20
-55.6591
11
52.7125
21
-55.6751
0
LINE
8
BLACK
6
CONTINUOUS
10
52.7125
20
-55.6751
11
52.7119
21
-55.6818
0
LINE
8
BLACK
6
CONTINUOUS
10
52.7119
20
-55.6818
11
52.7148
21
-55.688
0
LINE
8
BLACK
6
CONTINUOUS
10
52.7148
20
-55.688
11
52.7097
21
-55.7068
0
LINE
8
BLACK
6
CONTINUOUS
10
52.7097
20
-55.7068
11
52.708
21
-55.7262
0
LINE
8
BLACK
6
CONTINUOUS
10
52.708
20
-55.7262
11
46.8759
21
-68.2332
0
LINE
8
BLACK
6
CONTINUOUS
10
46.8759
20
-68.2332
11
46.8702
21
-68.2414
0
LINE
8
BLACK
6
CONTINUOUS
10
46.8702
20
-68.2414
11
46.8694
21
-68.2446
0
LINE
8
BLACK
6
CONTINUOUS
10
46.8694
20
-68.2446
11
46.8666
21
-68.2465
0
LINE
8
BLACK
6
CONTINUOUS
10
46.8666
20
-68.2465
11
46.861
21
-68.2546
0
LINE
8
BLACK
6
CONTINUOUS
10
46.861
20
-68.2546
11
46.8433
21
-68.2628
0
LINE
8
BLACK
6
CONTINUOUS
10
46.8433
20
-68.2628
11
46.8274
21
-68.274
0
LINE
8
BLACK
6
CONTINUOUS
10
46.8274
20
-68.274
11
46.8206
21
-68.2734
0
LINE
8
BLACK
6
CONTINUOUS
10
46.8206
20
-68.2734
11
46.8145
21
-68.2763
0
LINE
8
BLACK
6
CONTINUOUS
10
46.8145
20
-68.2763
11
46.7957
21
-68.2712
0
LINE
8
BLACK
6
CONTINUOUS
10
46.7957
20
-68.2712
11
46.7762
21
-68.2695
0
LINE
8
BLACK
6
CONTINUOUS
10
46.7762
20
-68.2695
11
34.2692
21
-62.4374
0
LINE
8
BLACK
6
CONTINUOUS
10
34.2692
20
-62.4374
11
34.2611
21
-62.4317
0
LINE
8
BLACK
6
CONTINUOUS
10
34.2611
20
-62.4317
11
34.2579
21
-62.4309
0
LINE
8
BLACK
6
CONTINUOUS
10
34.2579
20
-62.4309
11
34.256
21
-62.4281
0
LINE
8
BLACK
6
CONTINUOUS
10
34.256
20
-62.4281
11
34.2479
21
-62.4225
0
LINE
8
BLACK
6
CONTINUOUS
10
34.2479
20
-62.4225
11
34.2396
21
-62.4048
0
LINE
8
BLACK
6
CONTINUOUS
10
34.2396
20
-62.4048
11
34.2284
21
-62.3888
0
LINE
8
BLACK
6
CONTINUOUS
10
34.2284
20
-62.3888
11
34.229
21
-62.3821
0
LINE
8
BLACK
6
CONTINUOUS
10
34.229
20
-62.3821
11
34.2262
21
-62.376
0
LINE
8
BLACK
6
CONTINUOUS
10
34.2262
20
-62.376
11
34.2312
21
-62.3571
0
LINE
8
BLACK
6
CONTINUOUS
10
34.2312
20
-62.3571
11
34.2329
21
-62.3377
0
LINE
8
BLACK
6
CONTINUOUS
10
34.2329
20
-62.3377
11
40.0651
21
-49.8307
0
LINE
8
BLACK
6
CONTINUOUS
10
40.0651
20
-49.8307
11
40.0707
21
-49.8226
0
LINE
8
BLACK
6
CONTINUOUS
10
40.0707
20
-49.8226
11
40.0716
21
-49.8194
0
LINE
8
BLACK
6
CONTINUOUS
10
40.0716
20
-49.8194
11
40.0743
21
-49.8174
0
LINE
8
BLACK
6
CONTINUOUS
10
40.0743
20
-49.8174
11
40.08
21
-49.8093
0
LINE
8
BLACK
6
CONTINUOUS
10
40.08
20
-49.8093
11
40.0976
21
-49.8011
0
LINE
8
BLACK
6
CONTINUOUS
10
40.0976
20
-49.8011
11
40.1136
21
-49.7899
0
LINE
8
BLACK
6
CONTINUOUS
10
40.1136
20
-49.7899
11
40.1204
21
-49.7905
0
LINE
8
BLACK
6
CONTINUOUS
10
40.1204
20
-49.7905
11
40.1265
21
-49.7877
0
LINE
8
BLACK
6
CONTINUOUS
10
40.1265
20
-49.7877
11
40.1453
21
-49.7927
0
LINE
8
BLACK
6
CONTINUOUS
10
34.4006
20
-62.3331
11
46.7717
21
-68.1019
0
LINE
8
BLACK
6
CONTINUOUS
10
46.7717
20
-68.1019
11
52.5404
21
-55.7308
0
LINE
8
BLACK
6
CONTINUOUS
10
52.5404
20
-55.7308
11
40.1693
21
-49.962
0
LINE
8
BLACK
6
CONTINUOUS
10
40.1693
20
-49.962
11
34.4006
21
-62.3331
0
LINE
8
BLACK
6
CONTINUOUS
10
220.864
20
-46.8809
11
220.883
21
-46.8826
0
LINE
8
BLACK
6
CONTINUOUS
10
220.883
20
-46.8826
11
220.888
21
-46.8873
0
LINE
8
BLACK
6
CONTINUOUS
10
220.888
20
-46.8873
11
220.894
21
-46.8891
0
LINE
8
BLACK
6
CONTINUOUS
10
220.894
20
-46.8891
11
220.905
21
-46.9051
0
LINE
8
BLACK
6
CONTINUOUS
10
220.905
20
-46.9051
11
220.919
21
-46.9188
0
LINE
8
BLACK
6
CONTINUOUS
10
220.919
20
-46.9188
11
226.751
21
-59.4259
0
LINE
8
BLACK
6
CONTINUOUS
10
226.751
20
-59.4259
11
226.754
21
-59.4354
0
LINE
8
BLACK
6
CONTINUOUS
10
226.754
20
-59.4354
11
226.756
21
-59.4382
0
LINE
8
BLACK
6
CONTINUOUS
10
226.756
20
-59.4382
11
226.756
21
-59.4415
0
LINE
8
BLACK
6
CONTINUOUS
10
226.756
20
-59.4415
11
226.758
21
-59.451
0
LINE
8
BLACK
6
CONTINUOUS
10
226.758
20
-59.451
11
226.753
21
-59.4699
0
LINE
8
BLACK
6
CONTINUOUS
10
226.753
20
-59.4699
11
226.751
21
-59.4893
0
LINE
8
BLACK
6
CONTINUOUS
10
226.751
20
-59.4893
11
226.747
21
-59.4941
0
LINE
8
BLACK
6
CONTINUOUS
10
226.747
20
-59.4941
11
226.745
21
-59.5006
0
LINE
8
BLACK
6
CONTINUOUS
10
226.745
20
-59.5006
11
226.729
21
-59.5118
0
LINE
8
BLACK
6
CONTINUOUS
10
226.729
20
-59.5118
11
226.715
21
-59.5256
0
LINE
8
BLACK
6
CONTINUOUS
10
226.715
20
-59.5256
11
214.208
21
-65.3577
0
LINE
8
BLACK
6
CONTINUOUS
10
214.208
20
-65.3577
11
214.198
21
-65.3602
0
LINE
8
BLACK
6
CONTINUOUS
10
214.198
20
-65.3602
11
214.196
21
-65.3622
0
LINE
8
BLACK
6
CONTINUOUS
10
214.196
20
-65.3622
11
214.192
21
-65.3619
0
LINE
8
BLACK
6
CONTINUOUS
10
214.192
20
-65.3619
11
214.183
21
-65.3644
0
LINE
8
BLACK
6
CONTINUOUS
10
214.183
20
-65.3644
11
214.164
21
-65.3594
0
LINE
8
BLACK
6
CONTINUOUS
10
214.164
20
-65.3594
11
214.145
21
-65.3577
0
LINE
8
BLACK
6
CONTINUOUS
10
214.145
20
-65.3577
11
214.14
21
-65.3529
0
LINE
8
BLACK
6
CONTINUOUS
10
214.14
20
-65.3529
11
214.133
21
-65.3512
0
LINE
8
BLACK
6
CONTINUOUS
10
214.133
20
-65.3512
11
214.122
21
-65.3352
0
LINE
8
BLACK
6
CONTINUOUS
10
214.122
20
-65.3352
11
214.108
21
-65.3214
0
LINE
8
BLACK
6
CONTINUOUS
10
214.108
20
-65.3214
11
208.276
21
-52.8144
0
LINE
8
BLACK
6
CONTINUOUS
10
208.276
20
-52.8144
11
208.274
21
-52.8048
0
LINE
8
BLACK
6
CONTINUOUS
10
208.274
20
-52.8048
11
208.272
21
-52.8021
0
LINE
8
BLACK
6
CONTINUOUS
10
208.272
20
-52.8021
11
208.272
21
-52.7988
0
LINE
8
BLACK
6
CONTINUOUS
10
208.272
20
-52.7988
11
208.27
21
-52.7892
0
LINE
8
BLACK
6
CONTINUOUS
10
208.27
20
-52.7892
11
208.275
21
-52.7704
0
LINE
8
BLACK
6
CONTINUOUS
10
208.275
20
-52.7704
11
208.276
21
-52.751
0
LINE
8
BLACK
6
CONTINUOUS
10
208.276
20
-52.751
11
208.281
21
-52.7462
0
LINE
8
BLACK
6
CONTINUOUS
10
208.281
20
-52.7462
11
208.283
21
-52.7396
0
LINE
8
BLACK
6
CONTINUOUS
10
208.283
20
-52.7396
11
208.299
21
-52.7285
0
LINE
8
BLACK
6
CONTINUOUS
10
208.299
20
-52.7285
11
208.313
21
-52.7147
0
LINE
8
BLACK
6
CONTINUOUS
10
208.313
20
-52.7147
11
220.82
21
-46.8826
0
LINE
8
BLACK
6
CONTINUOUS
10
220.82
20
-46.8826
11
220.829
21
-46.88
0
LINE
8
BLACK
6
CONTINUOUS
10
220.829
20
-46.88
11
220.832
21
-46.8781
0
LINE
8
BLACK
6
CONTINUOUS
10
220.832
20
-46.8781
11
220.835
21
-46.8784
0
LINE
8
BLACK
6
CONTINUOUS
10
220.835
20
-46.8784
11
220.845
21
-46.8758
0
LINE
8
BLACK
6
CONTINUOUS
10
220.845
20
-46.8758
11
220.864
21
-46.8809
0
LINE
8
BLACK
6
CONTINUOUS
10
208.444
20
-52.8189
11
214.213
21
-65.19
0
LINE
8
BLACK
6
CONTINUOUS
10
214.213
20
-65.19
11
226.584
21
-59.4213
0
LINE
8
BLACK
6
CONTINUOUS
10
226.584
20
-59.4213
11
220.815
21
-47.0502
0
LINE
8
BLACK
6
CONTINUOUS
10
220.815
20
-47.0502
11
208.444
21
-52.8189
0
LINE
8
BLACK
6
CONTINUOUS
10
62.563
20
-46.7939
11
62.5824
21
-46.7956
0
LINE
8
BLACK
6
CONTINUOUS
10
62.5824
20
-46.7956
11
75.0895
21
-52.6277
0
LINE
8
BLACK
6
CONTINUOUS
10
75.0895
20
-52.6277
11
75.0976
21
-52.6334
0
LINE
8
BLACK
6
CONTINUOUS
10
75.0976
20
-52.6334
11
75.1008
21
-52.6342
0
LINE
8
BLACK
6
CONTINUOUS
10
75.1008
20
-52.6342
11
75.1027
21
-52.637
0
LINE
8
BLACK
6
CONTINUOUS
10
75.1027
20
-52.637
11
75.1108
21
-52.6426
0
LINE
8
BLACK
6
CONTINUOUS
10
75.1108
20
-52.6426
11
75.1191
21
-52.6603
0
LINE
8
BLACK
6
CONTINUOUS
10
75.1191
20
-52.6603
11
75.1302
21
-52.6763
0
LINE
8
BLACK
6
CONTINUOUS
10
75.1302
20
-52.6763
11
75.1297
21
-52.683
0
LINE
8
BLACK
6
CONTINUOUS
10
75.1297
20
-52.683
11
75.1325
21
-52.6891
0
LINE
8
BLACK
6
CONTINUOUS
10
75.1325
20
-52.6891
11
75.1275
21
-52.708
0
LINE
8
BLACK
6
CONTINUOUS
10
75.1275
20
-52.708
11
75.1258
21
-52.7274
0
LINE
8
BLACK
6
CONTINUOUS
10
75.1258
20
-52.7274
11
69.2936
21
-65.2344
0
LINE
8
BLACK
6
CONTINUOUS
10
69.2936
20
-65.2344
11
69.288
21
-65.2425
0
LINE
8
BLACK
6
CONTINUOUS
10
69.288
20
-65.2425
11
69.2871
21
-65.2457
0
LINE
8
BLACK
6
CONTINUOUS
10
69.2871
20
-65.2457
11
69.2844
21
-65.2477
0
LINE
8
BLACK
6
CONTINUOUS
10
69.2844
20
-65.2477
11
69.2787
21
-65.2558
0
LINE
8
BLACK
6
CONTINUOUS
10
69.2787
20
-65.2558
11
69.261
21
-65.264
0
LINE
8
BLACK
6
CONTINUOUS
10
69.261
20
-65.264
11
69.2451
21
-65.2752
0
LINE
8
BLACK
6
CONTINUOUS
10
69.2451
20
-65.2752
11
69.2383
21
-65.2746
0
LINE
8
BLACK
6
CONTINUOUS
10
69.2383
20
-65.2746
11
69.2322
21
-65.2774
0
LINE
8
BLACK
6
CONTINUOUS
10
69.2322
20
-65.2774
11
69.2134
21
-65.2724
0
LINE
8
BLACK
6
CONTINUOUS
10
69.2134
20
-65.2724
11
69.194
21
-65.2707
0
LINE
8
BLACK
6
CONTINUOUS
10
69.194
20
-65.2707
11
56.6869
21
-59.4386
0
LINE
8
BLACK
6
CONTINUOUS
10
56.6869
20
-59.4386
11
56.6788
21
-59.4329
0
LINE
8
BLACK
6
CONTINUOUS
10
56.6788
20
-59.4329
11
56.6756
21
-59.432
0
LINE
8
BLACK
6
CONTINUOUS
10
56.6756
20
-59.432
11
56.6737
21
-59.4293
0
LINE
8
BLACK
6
CONTINUOUS
10
56.6737
20
-59.4293
11
56.6656
21
-59.4236
0
LINE
8
BLACK
6
CONTINUOUS
10
56.6656
20
-59.4236
11
56.6573
21
-59.406
0
LINE
8
BLACK
6
CONTINUOUS
10
56.6573
20
-59.406
11
56.6462
21
-59.39
0
LINE
8
BLACK
6
CONTINUOUS
10
56.6462
20
-59.39
11
56.6468
21
-59.3833
0
LINE
8
BLACK
6
CONTINUOUS
10
56.6468
20
-59.3833
11
56.6439
21
-59.3771
0
LINE
8
BLACK
6
CONTINUOUS
10
56.6439
20
-59.3771
11
56.6489
21
-59.3583
0
LINE
8
BLACK
6
CONTINUOUS
10
56.6489
20
-59.3583
11
56.6506
21
-59.3389
0
LINE
8
BLACK
6
CONTINUOUS
10
56.6506
20
-59.3389
11
62.4828
21
-46.8318
0
LINE
8
BLACK
6
CONTINUOUS
10
62.4828
20
-46.8318
11
62.4884
21
-46.8237
0
LINE
8
BLACK
6
CONTINUOUS
10
62.4884
20
-46.8237
11
62.4893
21
-46.8205
0
LINE
8
BLACK
6
CONTINUOUS
10
62.4893
20
-46.8205
11
62.492
21
-46.8186
0
LINE
8
BLACK
6
CONTINUOUS
10
62.492
20
-46.8186
11
62.4977
21
-46.8105
0
LINE
8
BLACK
6
CONTINUOUS
10
62.4977
20
-46.8105
11
62.5154
21
-46.8023
0
LINE
8
BLACK
6
CONTINUOUS
10
62.5154
20
-46.8023
11
62.5313
21
-46.7911
0
LINE
8
BLACK
6
CONTINUOUS
10
62.5313
20
-46.7911
11
62.5381
21
-46.7917
0
LINE
8
BLACK
6
CONTINUOUS
10
62.5381
20
-46.7917
11
62.5442
21
-46.7888
0
LINE
8
BLACK
6
CONTINUOUS
10
62.5442
20
-46.7888
11
62.563
21
-46.7939
0
LINE
8
BLACK
6
CONTINUOUS
10
56.8183
20
-59.3343
11
69.1894
21
-65.1031
0
LINE
8
BLACK
6
CONTINUOUS
10
69.1894
20
-65.1031
11
74.9581
21
-52.732
0
LINE
8
BLACK
6
CONTINUOUS
10
74.9581
20
-52.732
11
62.587
21
-46.9632
0
LINE
8
BLACK
6
CONTINUOUS
10
62.587
20
-46.9632
11
56.8183
21
-59.3343
  0
ENDSEC
  0
EOF
