M48
; DRILL file {KiCad 7.0.1} date Wed Apr  5 18:38:51 2023
; FORMAT={-:-/ absolute / metric / decimal}
; #@! TF.CreationDate,2023-04-05T18:38:51-04:00
; #@! TF.GenerationSoftware,Kicad,Pcbnew,7.0.1
; #@! TF.FileFunction,NonPlated,1,2,NPTH
FMAT,2
METRIC
; #@! TA.AperFunction,NonPlated,NPTH,ComponentDrill
T1C0.650
; #@! TA.AperFunction,NonPlated,NPTH,ComponentDrill
T2C1.900
; #@! TA.AperFunction,NonPlated,NPTH,ComponentDrill
T3C3.000
; #@! TA.AperFunction,NonPlated,NPTH,ComponentDrill
T4C4.100
%
G90
G05
T1
X145.594Y-75.521
X151.374Y-75.521
T2
X30.256Y-87.668
X38.307Y-70.403
X39.464Y-91.962
X46.358Y-53.137
X47.515Y-74.696
X52.674Y-84.669
X55.566Y-57.431
X60.725Y-67.404
X61.882Y-88.963
X68.775Y-50.139
X69.933Y-71.698
X71.656Y-89.037
X77.984Y-54.432
X79.707Y-71.771
X80.864Y-93.33
X87.741Y-99.62
X87.758Y-54.506
X88.915Y-76.065
X93.458Y-140.343
X95.792Y-82.354
X96.949Y-103.913
X96.966Y-58.8
X100.643Y-133.159
X103.825Y-110.203
X103.842Y-65.089
X105.0Y-86.648
X111.876Y-92.938
X113.033Y-114.497
X113.051Y-69.383
X119.927Y-75.672
X121.084Y-97.231
X129.135Y-79.966
X168.139Y-80.085
X176.189Y-97.35
X177.347Y-75.791
X184.223Y-69.502
X184.24Y-114.616
X185.398Y-93.057
X192.274Y-86.767
X193.431Y-65.208
X193.448Y-110.322
X196.524Y-133.048
X200.307Y-58.919
X200.325Y-104.032
X201.482Y-82.474
X203.708Y-140.232
X208.358Y-76.184
X209.515Y-54.625
X209.533Y-99.739
X216.409Y-93.449
X217.566Y-71.89
X219.29Y-54.551
X225.617Y-89.156
X227.341Y-71.817
X228.498Y-50.258
X235.392Y-89.082
X236.549Y-67.523
X241.708Y-57.55
X244.6Y-84.788
X249.759Y-74.815
X250.916Y-53.256
X257.809Y-92.081
X258.967Y-70.522
X267.018Y-87.787
T3
X32.48Y-85.902
X39.309Y-86.284
X40.531Y-68.637
X47.36Y-69.019
X48.582Y-51.372
X54.898Y-82.904
X55.411Y-51.754
X61.727Y-83.285
X62.949Y-65.638
X69.778Y-66.02
X71.0Y-48.373
X73.881Y-87.271
X77.828Y-48.755
X80.709Y-87.653
X81.932Y-70.006
X88.76Y-70.388
X89.965Y-97.854
X89.983Y-52.741
X92.56Y-137.649
X95.255Y-131.363
X96.794Y-98.236
X96.811Y-53.122
X98.016Y-80.589
X104.845Y-80.971
X106.05Y-108.437
X106.067Y-63.324
X112.878Y-108.819
X112.895Y-63.706
X114.1Y-91.172
X120.929Y-91.554
X122.151Y-73.907
X128.98Y-74.289
X168.216Y-77.247
X172.898Y-72.261
X176.267Y-94.512
X180.949Y-89.526
X184.301Y-66.663
X184.318Y-111.777
X188.982Y-61.678
X189.0Y-106.791
X192.351Y-83.929
X197.033Y-78.943
X199.218Y-132.15
X200.385Y-56.08
X200.402Y-101.194
X205.066Y-51.095
X205.084Y-96.208
X205.504Y-134.844
X208.436Y-73.345
X213.117Y-68.36
X216.487Y-90.611
X219.368Y-51.713
X221.168Y-85.625
X224.049Y-46.727
X227.418Y-68.978
X232.1Y-63.992
X235.469Y-86.243
X240.151Y-81.257
X241.785Y-54.711
X246.467Y-49.726
X249.836Y-71.977
X254.518Y-66.991
X257.887Y-89.242
X262.569Y-84.256
T4
X34.86Y-89.815
X42.911Y-72.549
X50.962Y-55.284
X57.278Y-86.816
X65.329Y-69.551
X73.379Y-52.285
X76.26Y-91.183
X84.311Y-73.918
X92.345Y-101.767
X92.362Y-56.653
X97.051Y-136.751
X100.396Y-84.501
X108.429Y-112.35
X108.447Y-67.236
X116.48Y-95.084
X124.531Y-77.819
X172.743Y-77.938
X180.794Y-95.204
X188.827Y-67.355
X188.844Y-112.469
X196.878Y-84.62
X200.116Y-136.64
X204.911Y-56.772
X204.929Y-101.886
X212.962Y-74.037
X221.013Y-91.302
X223.894Y-52.405
X231.945Y-69.67
X239.996Y-86.935
X246.312Y-55.403
X254.363Y-72.668
X262.414Y-89.934
T0
M30
