  0
SECTION
  2
HEADER
  9
$ANGBASE
  50
0.0
  9
$ANGDIR
  70
1
  9
$MEASUREMENT
  70
1
  0
ENDSEC
  0
SECTION
  2
TABLES
  0
TABLE
  2
LTYPE
  70
4
  0
LTYPE
  5
40F
  2
CONTINUOUS
  70
0
  3
Solid line
  72
65
  73
0
  40
0.0
  0
LTYPE
  5
410
  2
DASHDOT
 70
0
  3
Dash Dot ____ _ ____ _
 72
65
 73
4
 40
2.0
 49
1.25
 49
-0.25
 49
0.25
 49
-0.25
  0
LTYPE
  5
411
  2
DASHED
 70
0
  3
Dashed __ __ __ __ __
 72
65
 73
2
 40
0.75
 49
0.5
 49
-0.25
  0
LTYPE
  5
43B
  2
DOTTED
 70
0
  3
Dotted .  .  .  .
 72
65
 73
2
 40
0.2
 49
0.0
 49
-0.2
  0
ENDTAB
  0
TABLE
  2
STYLE
  70
4
  0
STYLE
  2
KICAD
  70
0
  40
0
  41
1
  42
1
  50
0
  71
0
  3
isocp.shx
  0
STYLE
  2
KICADB
  70
0
  40
0
  41
1
  42
1
  50
0
  71
0
  3
isocp.shx
  0
STYLE
  2
KICADI
  70
0
  40
0
  41
1
  42
1
  50
15
  71
0
  3
isocp.shx
  0
STYLE
  2
KICADBI
  70
0
  40
0
  41
1
  42
1
  50
15
  71
0
  3
isocp.shx
  0
ENDTAB
  0
TABLE
  2
LAYER
  70
1
  0
LAYER
  2
BLACK
  70
0
  62
7
  6
CONTINUOUS
  0
ENDTAB
  0
ENDSEC
  0
SECTION
  2
ENTITIES
0
LINE
8
BLACK
6
CONTINUOUS
10
193.169
20
-157.91
11
193.242
21
-157.959
0
LINE
8
BLACK
6
CONTINUOUS
10
193.242
20
-157.959
11
193.772
21
-158.489
0
LINE
8
BLACK
6
CONTINUOUS
10
193.772
20
-158.489
11
193.821
21
-158.562
0
LINE
8
BLACK
6
CONTINUOUS
10
193.821
20
-158.562
11
193.838
21
-158.649
0
LINE
8
BLACK
6
CONTINUOUS
10
193.838
20
-158.649
11
193.821
21
-158.735
0
LINE
8
BLACK
6
CONTINUOUS
10
193.821
20
-158.735
11
193.772
21
-158.808
0
LINE
8
BLACK
6
CONTINUOUS
10
193.772
20
-158.808
11
193.454
21
-159.126
0
LINE
8
BLACK
6
CONTINUOUS
10
193.454
20
-159.126
11
193.381
21
-159.175
0
LINE
8
BLACK
6
CONTINUOUS
10
193.381
20
-159.175
11
193.295
21
-159.192
0
LINE
8
BLACK
6
CONTINUOUS
10
193.295
20
-159.192
11
193.209
21
-159.175
0
LINE
8
BLACK
6
CONTINUOUS
10
193.209
20
-159.175
11
193.136
21
-159.126
0
LINE
8
BLACK
6
CONTINUOUS
10
193.136
20
-159.126
11
192.606
21
-158.596
0
LINE
8
BLACK
6
CONTINUOUS
10
192.606
20
-158.596
11
192.557
21
-158.523
0
LINE
8
BLACK
6
CONTINUOUS
10
192.557
20
-158.523
11
192.54
21
-158.436
0
LINE
8
BLACK
6
CONTINUOUS
10
192.54
20
-158.436
11
192.557
21
-158.35
0
LINE
8
BLACK
6
CONTINUOUS
10
192.557
20
-158.35
11
192.606
21
-158.277
0
LINE
8
BLACK
6
CONTINUOUS
10
192.606
20
-158.277
11
192.924
21
-157.959
0
LINE
8
BLACK
6
CONTINUOUS
10
192.924
20
-157.959
11
192.997
21
-157.91
0
LINE
8
BLACK
6
CONTINUOUS
10
192.997
20
-157.91
11
193.083
21
-157.893
0
LINE
8
BLACK
6
CONTINUOUS
10
193.083
20
-157.893
11
193.169
21
-157.91
0
LINE
8
BLACK
6
CONTINUOUS
10
91.0411
20
-157.85
11
91.1141
21
-157.899
0
LINE
8
BLACK
6
CONTINUOUS
10
91.1141
20
-157.899
11
91.4323
21
-158.217
0
LINE
8
BLACK
6
CONTINUOUS
10
91.4323
20
-158.217
11
91.481
21
-158.29
0
LINE
8
BLACK
6
CONTINUOUS
10
91.481
20
-158.29
11
91.4982
21
-158.376
0
LINE
8
BLACK
6
CONTINUOUS
10
91.4982
20
-158.376
11
91.481
21
-158.462
0
LINE
8
BLACK
6
CONTINUOUS
10
91.481
20
-158.462
11
91.4323
21
-158.535
0
LINE
8
BLACK
6
CONTINUOUS
10
91.4323
20
-158.535
11
90.9019
21
-159.065
0
LINE
8
BLACK
6
CONTINUOUS
10
90.9019
20
-159.065
11
90.8289
21
-159.114
0
LINE
8
BLACK
6
CONTINUOUS
10
90.8289
20
-159.114
11
90.7428
21
-159.131
0
LINE
8
BLACK
6
CONTINUOUS
10
90.7428
20
-159.131
11
90.6567
21
-159.114
0
LINE
8
BLACK
6
CONTINUOUS
10
90.6567
20
-159.114
11
90.5837
21
-159.065
0
LINE
8
BLACK
6
CONTINUOUS
10
90.5837
20
-159.065
11
90.2655
21
-158.747
0
LINE
8
BLACK
6
CONTINUOUS
10
90.2655
20
-158.747
11
90.2168
21
-158.674
0
LINE
8
BLACK
6
CONTINUOUS
10
90.2168
20
-158.674
11
90.1996
21
-158.588
0
LINE
8
BLACK
6
CONTINUOUS
10
90.1996
20
-158.588
11
90.2168
21
-158.502
0
LINE
8
BLACK
6
CONTINUOUS
10
90.2168
20
-158.502
11
90.2655
21
-158.429
0
LINE
8
BLACK
6
CONTINUOUS
10
90.2655
20
-158.429
11
90.7959
21
-157.899
0
LINE
8
BLACK
6
CONTINUOUS
10
90.7959
20
-157.899
11
90.8689
21
-157.85
0
LINE
8
BLACK
6
CONTINUOUS
10
90.8689
20
-157.85
11
90.955
21
-157.833
0
LINE
8
BLACK
6
CONTINUOUS
10
90.955
20
-157.833
11
91.0411
21
-157.85
0
LINE
8
BLACK
6
CONTINUOUS
10
195.502
20
-155.577
11
195.575
21
-155.626
0
LINE
8
BLACK
6
CONTINUOUS
10
195.575
20
-155.626
11
196.106
21
-156.156
0
LINE
8
BLACK
6
CONTINUOUS
10
196.106
20
-156.156
11
196.154
21
-156.229
0
LINE
8
BLACK
6
CONTINUOUS
10
196.154
20
-156.229
11
196.172
21
-156.315
0
LINE
8
BLACK
6
CONTINUOUS
10
196.172
20
-156.315
11
196.154
21
-156.401
0
LINE
8
BLACK
6
CONTINUOUS
10
196.154
20
-156.401
11
196.106
21
-156.474
0
LINE
8
BLACK
6
CONTINUOUS
10
196.106
20
-156.474
11
195.788
21
-156.792
0
LINE
8
BLACK
6
CONTINUOUS
10
195.788
20
-156.792
11
195.715
21
-156.841
0
LINE
8
BLACK
6
CONTINUOUS
10
195.715
20
-156.841
11
195.628
21
-156.858
0
LINE
8
BLACK
6
CONTINUOUS
10
195.628
20
-156.858
11
195.542
21
-156.841
0
LINE
8
BLACK
6
CONTINUOUS
10
195.542
20
-156.841
11
195.469
21
-156.792
0
LINE
8
BLACK
6
CONTINUOUS
10
195.469
20
-156.792
11
194.939
21
-156.262
0
LINE
8
BLACK
6
CONTINUOUS
10
194.939
20
-156.262
11
194.89
21
-156.189
0
LINE
8
BLACK
6
CONTINUOUS
10
194.89
20
-156.189
11
194.873
21
-156.103
0
LINE
8
BLACK
6
CONTINUOUS
10
194.873
20
-156.103
11
194.89
21
-156.017
0
LINE
8
BLACK
6
CONTINUOUS
10
194.89
20
-156.017
11
194.939
21
-155.944
0
LINE
8
BLACK
6
CONTINUOUS
10
194.939
20
-155.944
11
195.257
21
-155.626
0
LINE
8
BLACK
6
CONTINUOUS
10
195.257
20
-155.626
11
195.33
21
-155.577
0
LINE
8
BLACK
6
CONTINUOUS
10
195.33
20
-155.577
11
195.416
21
-155.56
0
LINE
8
BLACK
6
CONTINUOUS
10
195.416
20
-155.56
11
195.502
21
-155.577
0
LINE
8
BLACK
6
CONTINUOUS
10
88.7076
20
-155.516
11
88.7806
21
-155.565
0
LINE
8
BLACK
6
CONTINUOUS
10
88.7806
20
-155.565
11
89.0988
21
-155.883
0
LINE
8
BLACK
6
CONTINUOUS
10
89.0988
20
-155.883
11
89.1476
21
-155.956
0
LINE
8
BLACK
6
CONTINUOUS
10
89.1476
20
-155.956
11
89.1647
21
-156.042
0
LINE
8
BLACK
6
CONTINUOUS
10
89.1647
20
-156.042
11
89.1476
21
-156.128
0
LINE
8
BLACK
6
CONTINUOUS
10
89.1476
20
-156.128
11
89.0988
21
-156.201
0
LINE
8
BLACK
6
CONTINUOUS
10
89.0988
20
-156.201
11
88.5685
21
-156.732
0
LINE
8
BLACK
6
CONTINUOUS
10
88.5685
20
-156.732
11
88.4955
21
-156.781
0
LINE
8
BLACK
6
CONTINUOUS
10
88.4955
20
-156.781
11
88.4094
21
-156.798
0
LINE
8
BLACK
6
CONTINUOUS
10
88.4094
20
-156.798
11
88.3233
21
-156.781
0
LINE
8
BLACK
6
CONTINUOUS
10
88.3233
20
-156.781
11
88.2503
21
-156.732
0
LINE
8
BLACK
6
CONTINUOUS
10
88.2503
20
-156.732
11
87.9321
21
-156.414
0
LINE
8
BLACK
6
CONTINUOUS
10
87.9321
20
-156.414
11
87.8833
21
-156.341
0
LINE
8
BLACK
6
CONTINUOUS
10
87.8833
20
-156.341
11
87.8662
21
-156.255
0
LINE
8
BLACK
6
CONTINUOUS
10
87.8662
20
-156.255
11
87.8833
21
-156.168
0
LINE
8
BLACK
6
CONTINUOUS
10
87.8833
20
-156.168
11
87.9321
21
-156.095
0
LINE
8
BLACK
6
CONTINUOUS
10
87.9321
20
-156.095
11
88.4624
21
-155.565
0
LINE
8
BLACK
6
CONTINUOUS
10
88.4624
20
-155.565
11
88.5354
21
-155.516
0
LINE
8
BLACK
6
CONTINUOUS
10
88.5354
20
-155.516
11
88.6215
21
-155.499
0
LINE
8
BLACK
6
CONTINUOUS
10
88.6215
20
-155.499
11
88.7076
21
-155.516
0
LINE
8
BLACK
6
CONTINUOUS
10
188.082
20
-149.971
11
186.279
21
-151.774
0
LINE
8
BLACK
6
CONTINUOUS
10
186.279
20
-151.774
11
184.511
21
-150.006
0
LINE
8
BLACK
6
CONTINUOUS
10
184.511
20
-150.006
11
186.314
21
-148.203
0
LINE
8
BLACK
6
CONTINUOUS
10
186.314
20
-148.203
11
188.082
21
-149.971
0
LINE
8
BLACK
6
CONTINUOUS
10
100.386
20
-147.213
11
98.6186
21
-148.981
0
LINE
8
BLACK
6
CONTINUOUS
10
98.6186
20
-148.981
11
96.8155
21
-147.178
0
LINE
8
BLACK
6
CONTINUOUS
10
96.8155
20
-147.178
11
98.5832
21
-145.41
0
LINE
8
BLACK
6
CONTINUOUS
10
98.5832
20
-145.41
11
100.386
21
-147.213
0
LINE
8
BLACK
6
CONTINUOUS
10
209.197
20
-144.935
11
209.261
21
-144.996
0
LINE
8
BLACK
6
CONTINUOUS
10
209.261
20
-144.996
11
209.691
21
-145.61
0
LINE
8
BLACK
6
CONTINUOUS
10
209.691
20
-145.61
11
209.726
21
-145.69
0
LINE
8
BLACK
6
CONTINUOUS
10
209.726
20
-145.69
11
209.728
21
-145.778
0
LINE
8
BLACK
6
CONTINUOUS
10
209.728
20
-145.778
11
209.696
21
-145.86
0
LINE
8
BLACK
6
CONTINUOUS
10
209.696
20
-145.86
11
209.636
21
-145.923
0
LINE
8
BLACK
6
CONTINUOUS
10
209.636
20
-145.923
11
209.267
21
-146.181
0
LINE
8
BLACK
6
CONTINUOUS
10
209.267
20
-146.181
11
209.187
21
-146.217
0
LINE
8
BLACK
6
CONTINUOUS
10
209.187
20
-146.217
11
209.099
21
-146.219
0
LINE
8
BLACK
6
CONTINUOUS
10
209.099
20
-146.219
11
209.017
21
-146.187
0
LINE
8
BLACK
6
CONTINUOUS
10
209.017
20
-146.187
11
208.954
21
-146.126
0
LINE
8
BLACK
6
CONTINUOUS
10
208.954
20
-146.126
11
208.524
21
-145.512
0
LINE
8
BLACK
6
CONTINUOUS
10
208.524
20
-145.512
11
208.488
21
-145.431
0
LINE
8
BLACK
6
CONTINUOUS
10
208.488
20
-145.431
11
208.486
21
-145.344
0
LINE
8
BLACK
6
CONTINUOUS
10
208.486
20
-145.344
11
208.518
21
-145.262
0
LINE
8
BLACK
6
CONTINUOUS
10
208.518
20
-145.262
11
208.579
21
-145.198
0
LINE
8
BLACK
6
CONTINUOUS
10
208.579
20
-145.198
11
208.947
21
-144.94
0
LINE
8
BLACK
6
CONTINUOUS
10
208.947
20
-144.94
11
209.028
21
-144.905
0
LINE
8
BLACK
6
CONTINUOUS
10
209.028
20
-144.905
11
209.116
21
-144.903
0
LINE
8
BLACK
6
CONTINUOUS
10
209.116
20
-144.903
11
209.197
21
-144.935
0
LINE
8
BLACK
6
CONTINUOUS
10
74.5026
20
-144.605
11
74.5829
21
-144.641
0
LINE
8
BLACK
6
CONTINUOUS
10
74.5829
20
-144.641
11
74.9515
21
-144.899
0
LINE
8
BLACK
6
CONTINUOUS
10
74.9515
20
-144.899
11
75.0122
21
-144.962
0
LINE
8
BLACK
6
CONTINUOUS
10
75.0122
20
-144.962
11
75.0441
21
-145.044
0
LINE
8
BLACK
6
CONTINUOUS
10
75.0441
20
-145.044
11
75.0421
21
-145.132
0
LINE
8
BLACK
6
CONTINUOUS
10
75.0421
20
-145.132
11
75.0068
21
-145.212
0
LINE
8
BLACK
6
CONTINUOUS
10
75.0068
20
-145.212
11
74.5766
21
-145.826
0
LINE
8
BLACK
6
CONTINUOUS
10
74.5766
20
-145.826
11
74.5132
21
-145.887
0
LINE
8
BLACK
6
CONTINUOUS
10
74.5132
20
-145.887
11
74.4314
21
-145.919
0
LINE
8
BLACK
6
CONTINUOUS
10
74.4314
20
-145.919
11
74.3436
21
-145.917
0
LINE
8
BLACK
6
CONTINUOUS
10
74.3436
20
-145.917
11
74.2632
21
-145.882
0
LINE
8
BLACK
6
CONTINUOUS
10
74.2632
20
-145.882
11
73.8946
21
-145.624
0
LINE
8
BLACK
6
CONTINUOUS
10
73.8946
20
-145.624
11
73.8339
21
-145.56
0
LINE
8
BLACK
6
CONTINUOUS
10
73.8339
20
-145.56
11
73.8021
21
-145.478
0
LINE
8
BLACK
6
CONTINUOUS
10
73.8021
20
-145.478
11
73.804
21
-145.391
0
LINE
8
BLACK
6
CONTINUOUS
10
73.804
20
-145.391
11
73.8394
21
-145.31
0
LINE
8
BLACK
6
CONTINUOUS
10
73.8394
20
-145.31
11
74.2696
21
-144.696
0
LINE
8
BLACK
6
CONTINUOUS
10
74.2696
20
-144.696
11
74.333
21
-144.635
0
LINE
8
BLACK
6
CONTINUOUS
10
74.333
20
-144.635
11
74.4148
21
-144.603
0
LINE
8
BLACK
6
CONTINUOUS
10
74.4148
20
-144.603
11
74.5026
21
-144.605
0
LINE
8
BLACK
6
CONTINUOUS
10
211.901
20
-143.042
11
211.964
21
-143.103
0
LINE
8
BLACK
6
CONTINUOUS
10
211.964
20
-143.103
11
212.394
21
-143.717
0
LINE
8
BLACK
6
CONTINUOUS
10
212.394
20
-143.717
11
212.429
21
-143.797
0
LINE
8
BLACK
6
CONTINUOUS
10
212.429
20
-143.797
11
212.431
21
-143.885
0
LINE
8
BLACK
6
CONTINUOUS
10
212.431
20
-143.885
11
212.4
21
-143.967
0
LINE
8
BLACK
6
CONTINUOUS
10
212.4
20
-143.967
11
212.339
21
-144.03
0
LINE
8
BLACK
6
CONTINUOUS
10
212.339
20
-144.03
11
211.97
21
-144.289
0
LINE
8
BLACK
6
CONTINUOUS
10
211.97
20
-144.289
11
211.89
21
-144.324
0
LINE
8
BLACK
6
CONTINUOUS
10
211.89
20
-144.324
11
211.802
21
-144.326
0
LINE
8
BLACK
6
CONTINUOUS
10
211.802
20
-144.326
11
211.72
21
-144.294
0
LINE
8
BLACK
6
CONTINUOUS
10
211.72
20
-144.294
11
211.657
21
-144.233
0
LINE
8
BLACK
6
CONTINUOUS
10
211.657
20
-144.233
11
211.227
21
-143.619
0
LINE
8
BLACK
6
CONTINUOUS
10
211.227
20
-143.619
11
211.191
21
-143.539
0
LINE
8
BLACK
6
CONTINUOUS
10
211.191
20
-143.539
11
211.189
21
-143.451
0
LINE
8
BLACK
6
CONTINUOUS
10
211.189
20
-143.451
11
211.221
21
-143.369
0
LINE
8
BLACK
6
CONTINUOUS
10
211.221
20
-143.369
11
211.282
21
-143.306
0
LINE
8
BLACK
6
CONTINUOUS
10
211.282
20
-143.306
11
211.651
21
-143.047
0
LINE
8
BLACK
6
CONTINUOUS
10
211.651
20
-143.047
11
211.731
21
-143.012
0
LINE
8
BLACK
6
CONTINUOUS
10
211.731
20
-143.012
11
211.819
21
-143.01
0
LINE
8
BLACK
6
CONTINUOUS
10
211.819
20
-143.01
11
211.901
21
-143.042
0
LINE
8
BLACK
6
CONTINUOUS
10
71.7994
20
-142.712
11
71.8797
21
-142.748
0
LINE
8
BLACK
6
CONTINUOUS
10
71.8797
20
-142.748
11
72.2483
21
-143.006
0
LINE
8
BLACK
6
CONTINUOUS
10
72.2483
20
-143.006
11
72.309
21
-143.069
0
LINE
8
BLACK
6
CONTINUOUS
10
72.309
20
-143.069
11
72.3409
21
-143.151
0
LINE
8
BLACK
6
CONTINUOUS
10
72.3409
20
-143.151
11
72.3389
21
-143.239
0
LINE
8
BLACK
6
CONTINUOUS
10
72.3389
20
-143.239
11
72.3036
21
-143.319
0
LINE
8
BLACK
6
CONTINUOUS
10
72.3036
20
-143.319
11
71.8734
21
-143.934
0
LINE
8
BLACK
6
CONTINUOUS
10
71.8734
20
-143.934
11
71.81
21
-143.994
0
LINE
8
BLACK
6
CONTINUOUS
10
71.81
20
-143.994
11
71.7282
21
-144.026
0
LINE
8
BLACK
6
CONTINUOUS
10
71.7282
20
-144.026
11
71.6404
21
-144.024
0
LINE
8
BLACK
6
CONTINUOUS
10
71.6404
20
-144.024
11
71.56
21
-143.989
0
LINE
8
BLACK
6
CONTINUOUS
10
71.56
20
-143.989
11
71.1914
21
-143.731
0
LINE
8
BLACK
6
CONTINUOUS
10
71.1914
20
-143.731
11
71.1307
21
-143.667
0
LINE
8
BLACK
6
CONTINUOUS
10
71.1307
20
-143.667
11
71.0989
21
-143.586
0
LINE
8
BLACK
6
CONTINUOUS
10
71.0989
20
-143.586
11
71.1008
21
-143.498
0
LINE
8
BLACK
6
CONTINUOUS
10
71.1008
20
-143.498
11
71.1362
21
-143.417
0
LINE
8
BLACK
6
CONTINUOUS
10
71.1362
20
-143.417
11
71.5664
21
-142.803
0
LINE
8
BLACK
6
CONTINUOUS
10
71.5664
20
-142.803
11
71.6298
21
-142.742
0
LINE
8
BLACK
6
CONTINUOUS
10
71.6298
20
-142.742
11
71.7116
21
-142.711
0
LINE
8
BLACK
6
CONTINUOUS
10
71.7116
20
-142.711
11
71.7994
21
-142.712
0
LINE
8
BLACK
6
CONTINUOUS
10
88.7969
20
-139.216
11
87.0291
21
-140.984
0
LINE
8
BLACK
6
CONTINUOUS
10
87.0291
20
-140.984
11
85.226
21
-139.181
0
LINE
8
BLACK
6
CONTINUOUS
10
85.226
20
-139.181
11
86.9938
21
-137.413
0
LINE
8
BLACK
6
CONTINUOUS
10
86.9938
20
-137.413
11
88.7969
21
-139.216
0
LINE
8
BLACK
6
CONTINUOUS
10
196.08
20
-138.381
11
194.276
21
-140.185
0
LINE
8
BLACK
6
CONTINUOUS
10
194.276
20
-140.185
11
192.509
21
-138.417
0
LINE
8
BLACK
6
CONTINUOUS
10
192.509
20
-138.417
11
194.312
21
-136.614
0
LINE
8
BLACK
6
CONTINUOUS
10
194.312
20
-136.614
11
196.08
21
-138.381
0
LINE
8
BLACK
6
CONTINUOUS
10
205.544
20
-136.248
11
203.456
21
-137.711
0
LINE
8
BLACK
6
CONTINUOUS
10
203.456
20
-137.711
11
202.022
21
-135.663
0
LINE
8
BLACK
6
CONTINUOUS
10
202.022
20
-135.663
11
204.11
21
-134.2
0
LINE
8
BLACK
6
CONTINUOUS
10
204.11
20
-134.2
11
205.544
21
-136.248
0
LINE
8
BLACK
6
CONTINUOUS
10
81.8589
20
-132.508
11
80.425
21
-134.556
0
LINE
8
BLACK
6
CONTINUOUS
10
80.425
20
-134.556
11
78.3361
21
-133.093
0
LINE
8
BLACK
6
CONTINUOUS
10
78.3361
20
-133.093
11
79.7701
21
-131.045
0
LINE
8
BLACK
6
CONTINUOUS
10
79.7701
20
-131.045
11
81.8589
21
-132.508
0
LINE
8
BLACK
6
CONTINUOUS
10
179.154
20
-128.909
11
179.229
21
-128.955
0
LINE
8
BLACK
6
CONTINUOUS
10
179.229
20
-128.955
11
179.281
21
-129.026
0
LINE
8
BLACK
6
CONTINUOUS
10
179.281
20
-129.026
11
179.598
21
-129.705
0
LINE
8
BLACK
6
CONTINUOUS
10
179.598
20
-129.705
11
179.619
21
-129.791
0
LINE
8
BLACK
6
CONTINUOUS
10
179.619
20
-129.791
11
179.605
21
-129.878
0
LINE
8
BLACK
6
CONTINUOUS
10
179.605
20
-129.878
11
179.56
21
-129.953
0
LINE
8
BLACK
6
CONTINUOUS
10
179.56
20
-129.953
11
179.489
21
-130.004
0
LINE
8
BLACK
6
CONTINUOUS
10
179.489
20
-130.004
11
179.081
21
-130.195
0
LINE
8
BLACK
6
CONTINUOUS
10
179.081
20
-130.195
11
178.996
21
-130.216
0
LINE
8
BLACK
6
CONTINUOUS
10
178.996
20
-130.216
11
178.909
21
-130.202
0
LINE
8
BLACK
6
CONTINUOUS
10
178.909
20
-130.202
11
178.834
21
-130.157
0
LINE
8
BLACK
6
CONTINUOUS
10
178.834
20
-130.157
11
178.782
21
-130.086
0
LINE
8
BLACK
6
CONTINUOUS
10
178.782
20
-130.086
11
178.465
21
-129.406
0
LINE
8
BLACK
6
CONTINUOUS
10
178.465
20
-129.406
11
178.444
21
-129.321
0
LINE
8
BLACK
6
CONTINUOUS
10
178.444
20
-129.321
11
178.458
21
-129.234
0
LINE
8
BLACK
6
CONTINUOUS
10
178.458
20
-129.234
11
178.503
21
-129.159
0
LINE
8
BLACK
6
CONTINUOUS
10
178.503
20
-129.159
11
178.574
21
-129.107
0
LINE
8
BLACK
6
CONTINUOUS
10
178.574
20
-129.107
11
178.982
21
-128.917
0
LINE
8
BLACK
6
CONTINUOUS
10
178.982
20
-128.917
11
179.067
21
-128.896
0
LINE
8
BLACK
6
CONTINUOUS
10
179.067
20
-128.896
11
179.154
21
-128.909
0
LINE
8
BLACK
6
CONTINUOUS
10
104.552
20
-128.611
11
104.96
21
-128.801
0
LINE
8
BLACK
6
CONTINUOUS
10
104.96
20
-128.801
11
105.031
21
-128.853
0
LINE
8
BLACK
6
CONTINUOUS
10
105.031
20
-128.853
11
105.076
21
-128.928
0
LINE
8
BLACK
6
CONTINUOUS
10
105.076
20
-128.928
11
105.089
21
-129.015
0
LINE
8
BLACK
6
CONTINUOUS
10
105.089
20
-129.015
11
105.069
21
-129.1
0
LINE
8
BLACK
6
CONTINUOUS
10
105.069
20
-129.1
11
104.752
21
-129.78
0
LINE
8
BLACK
6
CONTINUOUS
10
104.752
20
-129.78
11
104.7
21
-129.851
0
LINE
8
BLACK
6
CONTINUOUS
10
104.7
20
-129.851
11
104.625
21
-129.896
0
LINE
8
BLACK
6
CONTINUOUS
10
104.625
20
-129.896
11
104.538
21
-129.91
0
LINE
8
BLACK
6
CONTINUOUS
10
104.538
20
-129.91
11
104.453
21
-129.889
0
LINE
8
BLACK
6
CONTINUOUS
10
104.453
20
-129.889
11
104.045
21
-129.699
0
LINE
8
BLACK
6
CONTINUOUS
10
104.045
20
-129.699
11
103.974
21
-129.647
0
LINE
8
BLACK
6
CONTINUOUS
10
103.974
20
-129.647
11
103.928
21
-129.572
0
LINE
8
BLACK
6
CONTINUOUS
10
103.928
20
-129.572
11
103.915
21
-129.485
0
LINE
8
BLACK
6
CONTINUOUS
10
103.915
20
-129.485
11
103.936
21
-129.4
0
LINE
8
BLACK
6
CONTINUOUS
10
103.936
20
-129.4
11
104.253
21
-128.72
0
LINE
8
BLACK
6
CONTINUOUS
10
104.253
20
-128.72
11
104.305
21
-128.649
0
LINE
8
BLACK
6
CONTINUOUS
10
104.305
20
-128.649
11
104.38
21
-128.604
0
LINE
8
BLACK
6
CONTINUOUS
10
104.38
20
-128.604
11
104.467
21
-128.59
0
LINE
8
BLACK
6
CONTINUOUS
10
104.467
20
-128.59
11
104.552
21
-128.611
0
LINE
8
BLACK
6
CONTINUOUS
10
182.145
20
-127.515
11
182.22
21
-127.56
0
LINE
8
BLACK
6
CONTINUOUS
10
182.22
20
-127.56
11
182.272
21
-127.631
0
LINE
8
BLACK
6
CONTINUOUS
10
182.272
20
-127.631
11
182.589
21
-128.311
0
LINE
8
BLACK
6
CONTINUOUS
10
182.589
20
-128.311
11
182.61
21
-128.396
0
LINE
8
BLACK
6
CONTINUOUS
10
182.61
20
-128.396
11
182.596
21
-128.483
0
LINE
8
BLACK
6
CONTINUOUS
10
182.596
20
-128.483
11
182.551
21
-128.558
0
LINE
8
BLACK
6
CONTINUOUS
10
182.551
20
-128.558
11
182.48
21
-128.61
0
LINE
8
BLACK
6
CONTINUOUS
10
182.48
20
-128.61
11
182.072
21
-128.8
0
LINE
8
BLACK
6
CONTINUOUS
10
182.072
20
-128.8
11
181.987
21
-128.821
0
LINE
8
BLACK
6
CONTINUOUS
10
181.987
20
-128.821
11
181.9
21
-128.808
0
LINE
8
BLACK
6
CONTINUOUS
10
181.9
20
-128.808
11
181.825
21
-128.762
0
LINE
8
BLACK
6
CONTINUOUS
10
181.825
20
-128.762
11
181.773
21
-128.691
0
LINE
8
BLACK
6
CONTINUOUS
10
181.773
20
-128.691
11
181.456
21
-128.011
0
LINE
8
BLACK
6
CONTINUOUS
10
181.456
20
-128.011
11
181.435
21
-127.926
0
LINE
8
BLACK
6
CONTINUOUS
10
181.435
20
-127.926
11
181.449
21
-127.839
0
LINE
8
BLACK
6
CONTINUOUS
10
181.449
20
-127.839
11
181.494
21
-127.764
0
LINE
8
BLACK
6
CONTINUOUS
10
181.494
20
-127.764
11
181.565
21
-127.712
0
LINE
8
BLACK
6
CONTINUOUS
10
181.565
20
-127.712
11
181.973
21
-127.522
0
LINE
8
BLACK
6
CONTINUOUS
10
181.973
20
-127.522
11
182.058
21
-127.501
0
LINE
8
BLACK
6
CONTINUOUS
10
182.058
20
-127.501
11
182.145
21
-127.515
0
LINE
8
BLACK
6
CONTINUOUS
10
69.0568
20
-126.644
11
67.6228
21
-128.692
0
LINE
8
BLACK
6
CONTINUOUS
10
67.6228
20
-128.692
11
65.534
21
-127.23
0
LINE
8
BLACK
6
CONTINUOUS
10
65.534
20
-127.23
11
66.9679
21
-125.182
0
LINE
8
BLACK
6
CONTINUOUS
10
66.9679
20
-125.182
11
69.0568
21
-126.644
0
LINE
8
BLACK
6
CONTINUOUS
10
101.561
20
-127.216
11
101.969
21
-127.407
0
LINE
8
BLACK
6
CONTINUOUS
10
101.969
20
-127.407
11
102.04
21
-127.459
0
LINE
8
BLACK
6
CONTINUOUS
10
102.04
20
-127.459
11
102.085
21
-127.534
0
LINE
8
BLACK
6
CONTINUOUS
10
102.085
20
-127.534
11
102.099
21
-127.62
0
LINE
8
BLACK
6
CONTINUOUS
10
102.099
20
-127.62
11
102.078
21
-127.706
0
LINE
8
BLACK
6
CONTINUOUS
10
102.078
20
-127.706
11
101.761
21
-128.385
0
LINE
8
BLACK
6
CONTINUOUS
10
101.761
20
-128.385
11
101.709
21
-128.456
0
LINE
8
BLACK
6
CONTINUOUS
10
101.709
20
-128.456
11
101.634
21
-128.502
0
LINE
8
BLACK
6
CONTINUOUS
10
101.634
20
-128.502
11
101.547
21
-128.515
0
LINE
8
BLACK
6
CONTINUOUS
10
101.547
20
-128.515
11
101.462
21
-128.494
0
LINE
8
BLACK
6
CONTINUOUS
10
101.462
20
-128.494
11
101.054
21
-128.304
0
LINE
8
BLACK
6
CONTINUOUS
10
101.054
20
-128.304
11
100.983
21
-128.252
0
LINE
8
BLACK
6
CONTINUOUS
10
100.983
20
-128.252
11
100.938
21
-128.177
0
LINE
8
BLACK
6
CONTINUOUS
10
100.938
20
-128.177
11
100.924
21
-128.09
0
LINE
8
BLACK
6
CONTINUOUS
10
100.924
20
-128.09
11
100.945
21
-128.005
0
LINE
8
BLACK
6
CONTINUOUS
10
100.945
20
-128.005
11
101.262
21
-127.325
0
LINE
8
BLACK
6
CONTINUOUS
10
101.262
20
-127.325
11
101.314
21
-127.255
0
LINE
8
BLACK
6
CONTINUOUS
10
101.314
20
-127.255
11
101.389
21
-127.209
0
LINE
8
BLACK
6
CONTINUOUS
10
101.389
20
-127.209
11
101.476
21
-127.196
0
LINE
8
BLACK
6
CONTINUOUS
10
101.476
20
-127.196
11
101.561
21
-127.216
0
LINE
8
BLACK
6
CONTINUOUS
10
215.433
20
-126.224
11
213.344
21
-127.686
0
LINE
8
BLACK
6
CONTINUOUS
10
213.344
20
-127.686
11
211.91
21
-125.638
0
LINE
8
BLACK
6
CONTINUOUS
10
211.91
20
-125.638
11
213.999
21
-124.176
0
LINE
8
BLACK
6
CONTINUOUS
10
213.999
20
-124.176
11
215.433
21
-126.224
0
LINE
8
BLACK
6
CONTINUOUS
10
177.164
20
-119.755
11
174.853
21
-120.832
0
LINE
8
BLACK
6
CONTINUOUS
10
174.853
20
-120.832
11
173.797
21
-118.566
0
LINE
8
BLACK
6
CONTINUOUS
10
173.797
20
-118.566
11
176.108
21
-117.489
0
LINE
8
BLACK
6
CONTINUOUS
10
176.108
20
-117.489
11
177.164
21
-119.755
0
LINE
8
BLACK
6
CONTINUOUS
10
194.695
20
-117.459
11
194.77
21
-117.504
0
LINE
8
BLACK
6
CONTINUOUS
10
194.77
20
-117.504
11
194.822
21
-117.575
0
LINE
8
BLACK
6
CONTINUOUS
10
194.822
20
-117.575
11
195.139
21
-118.255
0
LINE
8
BLACK
6
CONTINUOUS
10
195.139
20
-118.255
11
195.16
21
-118.34
0
LINE
8
BLACK
6
CONTINUOUS
10
195.16
20
-118.34
11
195.146
21
-118.427
0
LINE
8
BLACK
6
CONTINUOUS
10
195.146
20
-118.427
11
195.101
21
-118.502
0
LINE
8
BLACK
6
CONTINUOUS
10
195.101
20
-118.502
11
195.03
21
-118.554
0
LINE
8
BLACK
6
CONTINUOUS
10
195.03
20
-118.554
11
194.622
21
-118.744
0
LINE
8
BLACK
6
CONTINUOUS
10
194.622
20
-118.744
11
194.537
21
-118.765
0
LINE
8
BLACK
6
CONTINUOUS
10
194.537
20
-118.765
11
194.45
21
-118.751
0
LINE
8
BLACK
6
CONTINUOUS
10
194.45
20
-118.751
11
194.375
21
-118.706
0
LINE
8
BLACK
6
CONTINUOUS
10
194.375
20
-118.706
11
194.323
21
-118.635
0
LINE
8
BLACK
6
CONTINUOUS
10
194.323
20
-118.635
11
194.006
21
-117.955
0
LINE
8
BLACK
6
CONTINUOUS
10
194.006
20
-117.955
11
193.985
21
-117.87
0
LINE
8
BLACK
6
CONTINUOUS
10
193.985
20
-117.87
11
193.999
21
-117.783
0
LINE
8
BLACK
6
CONTINUOUS
10
193.999
20
-117.783
11
194.044
21
-117.708
0
LINE
8
BLACK
6
CONTINUOUS
10
194.044
20
-117.708
11
194.115
21
-117.656
0
LINE
8
BLACK
6
CONTINUOUS
10
194.115
20
-117.656
11
194.523
21
-117.466
0
LINE
8
BLACK
6
CONTINUOUS
10
194.523
20
-117.466
11
194.608
21
-117.445
0
LINE
8
BLACK
6
CONTINUOUS
10
194.608
20
-117.445
11
194.695
21
-117.459
0
LINE
8
BLACK
6
CONTINUOUS
10
88.8969
20
-117.107
11
89.3048
21
-117.297
0
LINE
8
BLACK
6
CONTINUOUS
10
89.3048
20
-117.297
11
89.3756
21
-117.349
0
LINE
8
BLACK
6
CONTINUOUS
10
89.3756
20
-117.349
11
89.4211
21
-117.424
0
LINE
8
BLACK
6
CONTINUOUS
10
89.4211
20
-117.424
11
89.4345
21
-117.511
0
LINE
8
BLACK
6
CONTINUOUS
10
89.4345
20
-117.511
11
89.4136
21
-117.596
0
LINE
8
BLACK
6
CONTINUOUS
10
89.4136
20
-117.596
11
89.0966
21
-118.276
0
LINE
8
BLACK
6
CONTINUOUS
10
89.0966
20
-118.276
11
89.0447
21
-118.347
0
LINE
8
BLACK
6
CONTINUOUS
10
89.0447
20
-118.347
11
88.9697
21
-118.392
0
LINE
8
BLACK
6
CONTINUOUS
10
88.9697
20
-118.392
11
88.8829
21
-118.406
0
LINE
8
BLACK
6
CONTINUOUS
10
88.8829
20
-118.406
11
88.7976
21
-118.385
0
LINE
8
BLACK
6
CONTINUOUS
10
88.7976
20
-118.385
11
88.3898
21
-118.195
0
LINE
8
BLACK
6
CONTINUOUS
10
88.3898
20
-118.195
11
88.319
21
-118.143
0
LINE
8
BLACK
6
CONTINUOUS
10
88.319
20
-118.143
11
88.2734
21
-118.068
0
LINE
8
BLACK
6
CONTINUOUS
10
88.2734
20
-118.068
11
88.2601
21
-117.981
0
LINE
8
BLACK
6
CONTINUOUS
10
88.2601
20
-117.981
11
88.281
21
-117.896
0
LINE
8
BLACK
6
CONTINUOUS
10
88.281
20
-117.896
11
88.5979
21
-117.216
0
LINE
8
BLACK
6
CONTINUOUS
10
88.5979
20
-117.216
11
88.6498
21
-117.145
0
LINE
8
BLACK
6
CONTINUOUS
10
88.6498
20
-117.145
11
88.7249
21
-117.1
0
LINE
8
BLACK
6
CONTINUOUS
10
88.7249
20
-117.1
11
88.8117
21
-117.086
0
LINE
8
BLACK
6
CONTINUOUS
10
88.8117
20
-117.086
11
88.8969
21
-117.107
0
LINE
8
BLACK
6
CONTINUOUS
10
109.611
20
-115.399
11
108.554
21
-117.665
0
LINE
8
BLACK
6
CONTINUOUS
10
108.554
20
-117.665
11
106.243
21
-116.587
0
LINE
8
BLACK
6
CONTINUOUS
10
106.243
20
-116.587
11
107.299
21
-114.321
0
LINE
8
BLACK
6
CONTINUOUS
10
107.299
20
-114.321
11
109.611
21
-115.399
0
LINE
8
BLACK
6
CONTINUOUS
10
197.686
20
-116.064
11
197.761
21
-116.11
0
LINE
8
BLACK
6
CONTINUOUS
10
197.761
20
-116.11
11
197.813
21
-116.18
0
LINE
8
BLACK
6
CONTINUOUS
10
197.813
20
-116.18
11
198.13
21
-116.86
0
LINE
8
BLACK
6
CONTINUOUS
10
198.13
20
-116.86
11
198.15
21
-116.945
0
LINE
8
BLACK
6
CONTINUOUS
10
198.15
20
-116.945
11
198.137
21
-117.032
0
LINE
8
BLACK
6
CONTINUOUS
10
198.137
20
-117.032
11
198.091
21
-117.107
0
LINE
8
BLACK
6
CONTINUOUS
10
198.091
20
-117.107
11
198.021
21
-117.159
0
LINE
8
BLACK
6
CONTINUOUS
10
198.021
20
-117.159
11
197.613
21
-117.349
0
LINE
8
BLACK
6
CONTINUOUS
10
197.613
20
-117.349
11
197.528
21
-117.37
0
LINE
8
BLACK
6
CONTINUOUS
10
197.528
20
-117.37
11
197.441
21
-117.357
0
LINE
8
BLACK
6
CONTINUOUS
10
197.441
20
-117.357
11
197.366
21
-117.311
0
LINE
8
BLACK
6
CONTINUOUS
10
197.366
20
-117.311
11
197.314
21
-117.241
0
LINE
8
BLACK
6
CONTINUOUS
10
197.314
20
-117.241
11
196.997
21
-116.561
0
LINE
8
BLACK
6
CONTINUOUS
10
196.997
20
-116.561
11
196.976
21
-116.476
0
LINE
8
BLACK
6
CONTINUOUS
10
196.976
20
-116.476
11
196.989
21
-116.389
0
LINE
8
BLACK
6
CONTINUOUS
10
196.989
20
-116.389
11
197.035
21
-116.314
0
LINE
8
BLACK
6
CONTINUOUS
10
197.035
20
-116.314
11
197.106
21
-116.262
0
LINE
8
BLACK
6
CONTINUOUS
10
197.106
20
-116.262
11
197.514
21
-116.072
0
LINE
8
BLACK
6
CONTINUOUS
10
197.514
20
-116.072
11
197.599
21
-116.051
0
LINE
8
BLACK
6
CONTINUOUS
10
197.599
20
-116.051
11
197.686
21
-116.064
0
LINE
8
BLACK
6
CONTINUOUS
10
85.9061
20
-115.713
11
86.3139
21
-115.903
0
LINE
8
BLACK
6
CONTINUOUS
10
86.3139
20
-115.903
11
86.3847
21
-115.955
0
LINE
8
BLACK
6
CONTINUOUS
10
86.3847
20
-115.955
11
86.4303
21
-116.03
0
LINE
8
BLACK
6
CONTINUOUS
10
86.4303
20
-116.03
11
86.4436
21
-116.116
0
LINE
8
BLACK
6
CONTINUOUS
10
86.4436
20
-116.116
11
86.4228
21
-116.202
0
LINE
8
BLACK
6
CONTINUOUS
10
86.4228
20
-116.202
11
86.1058
21
-116.881
0
LINE
8
BLACK
6
CONTINUOUS
10
86.1058
20
-116.881
11
86.0539
21
-116.952
0
LINE
8
BLACK
6
CONTINUOUS
10
86.0539
20
-116.952
11
85.9789
21
-116.998
0
LINE
8
BLACK
6
CONTINUOUS
10
85.9789
20
-116.998
11
85.8921
21
-117.011
0
LINE
8
BLACK
6
CONTINUOUS
10
85.8921
20
-117.011
11
85.8068
21
-116.99
0
LINE
8
BLACK
6
CONTINUOUS
10
85.8068
20
-116.99
11
85.399
21
-116.8
0
LINE
8
BLACK
6
CONTINUOUS
10
85.399
20
-116.8
11
85.3282
21
-116.748
0
LINE
8
BLACK
6
CONTINUOUS
10
85.3282
20
-116.748
11
85.2826
21
-116.673
0
LINE
8
BLACK
6
CONTINUOUS
10
85.2826
20
-116.673
11
85.2693
21
-116.586
0
LINE
8
BLACK
6
CONTINUOUS
10
85.2693
20
-116.586
11
85.2901
21
-116.501
0
LINE
8
BLACK
6
CONTINUOUS
10
85.2901
20
-116.501
11
85.6071
21
-115.821
0
LINE
8
BLACK
6
CONTINUOUS
10
85.6071
20
-115.821
11
85.659
21
-115.751
0
LINE
8
BLACK
6
CONTINUOUS
10
85.659
20
-115.751
11
85.7341
21
-115.705
0
LINE
8
BLACK
6
CONTINUOUS
10
85.7341
20
-115.705
11
85.8208
21
-115.692
0
LINE
8
BLACK
6
CONTINUOUS
10
85.8208
20
-115.692
11
85.9061
21
-115.713
0
LINE
8
BLACK
6
CONTINUOUS
10
95.9847
20
-111.848
11
94.9281
21
-114.114
0
LINE
8
BLACK
6
CONTINUOUS
10
94.9281
20
-114.114
11
92.6171
21
-113.036
0
LINE
8
BLACK
6
CONTINUOUS
10
92.6171
20
-113.036
11
93.6736
21
-110.77
0
LINE
8
BLACK
6
CONTINUOUS
10
93.6736
20
-110.77
11
95.9847
21
-111.848
0
LINE
8
BLACK
6
CONTINUOUS
10
171.103
20
-111.644
11
171.178
21
-111.69
0
LINE
8
BLACK
6
CONTINUOUS
10
171.178
20
-111.69
11
171.23
21
-111.761
0
LINE
8
BLACK
6
CONTINUOUS
10
171.23
20
-111.761
11
171.547
21
-112.44
0
LINE
8
BLACK
6
CONTINUOUS
10
171.547
20
-112.44
11
171.568
21
-112.526
0
LINE
8
BLACK
6
CONTINUOUS
10
171.568
20
-112.526
11
171.555
21
-112.612
0
LINE
8
BLACK
6
CONTINUOUS
10
171.555
20
-112.612
11
171.509
21
-112.687
0
LINE
8
BLACK
6
CONTINUOUS
10
171.509
20
-112.687
11
171.438
21
-112.739
0
LINE
8
BLACK
6
CONTINUOUS
10
171.438
20
-112.739
11
171.03
21
-112.929
0
LINE
8
BLACK
6
CONTINUOUS
10
171.03
20
-112.929
11
170.945
21
-112.95
0
LINE
8
BLACK
6
CONTINUOUS
10
170.945
20
-112.95
11
170.858
21
-112.937
0
LINE
8
BLACK
6
CONTINUOUS
10
170.858
20
-112.937
11
170.783
21
-112.891
0
LINE
8
BLACK
6
CONTINUOUS
10
170.783
20
-112.891
11
170.731
21
-112.821
0
LINE
8
BLACK
6
CONTINUOUS
10
170.731
20
-112.821
11
170.414
21
-112.141
0
LINE
8
BLACK
6
CONTINUOUS
10
170.414
20
-112.141
11
170.394
21
-112.056
0
LINE
8
BLACK
6
CONTINUOUS
10
170.394
20
-112.056
11
170.407
21
-111.969
0
LINE
8
BLACK
6
CONTINUOUS
10
170.407
20
-111.969
11
170.452
21
-111.894
0
LINE
8
BLACK
6
CONTINUOUS
10
170.452
20
-111.894
11
170.523
21
-111.842
0
LINE
8
BLACK
6
CONTINUOUS
10
170.523
20
-111.842
11
170.931
21
-111.652
0
LINE
8
BLACK
6
CONTINUOUS
10
170.931
20
-111.652
11
171.016
21
-111.631
0
LINE
8
BLACK
6
CONTINUOUS
10
171.016
20
-111.631
11
171.103
21
-111.644
0
LINE
8
BLACK
6
CONTINUOUS
10
188.643
20
-111.599
11
186.332
21
-112.677
0
LINE
8
BLACK
6
CONTINUOUS
10
186.332
20
-112.677
11
185.276
21
-110.411
0
LINE
8
BLACK
6
CONTINUOUS
10
185.276
20
-110.411
11
187.587
21
-109.333
0
LINE
8
BLACK
6
CONTINUOUS
10
187.587
20
-109.333
11
188.643
21
-111.599
0
LINE
8
BLACK
6
CONTINUOUS
10
112.603
20
-111.346
11
113.011
21
-111.536
0
LINE
8
BLACK
6
CONTINUOUS
10
113.011
20
-111.536
11
113.081
21
-111.588
0
LINE
8
BLACK
6
CONTINUOUS
10
113.081
20
-111.588
11
113.127
21
-111.663
0
LINE
8
BLACK
6
CONTINUOUS
10
113.127
20
-111.663
11
113.14
21
-111.75
0
LINE
8
BLACK
6
CONTINUOUS
10
113.14
20
-111.75
11
113.119
21
-111.835
0
LINE
8
BLACK
6
CONTINUOUS
10
113.119
20
-111.835
11
112.802
21
-112.515
0
LINE
8
BLACK
6
CONTINUOUS
10
112.802
20
-112.515
11
112.751
21
-112.586
0
LINE
8
BLACK
6
CONTINUOUS
10
112.751
20
-112.586
11
112.676
21
-112.631
0
LINE
8
BLACK
6
CONTINUOUS
10
112.676
20
-112.631
11
112.589
21
-112.645
0
LINE
8
BLACK
6
CONTINUOUS
10
112.589
20
-112.645
11
112.503
21
-112.624
0
LINE
8
BLACK
6
CONTINUOUS
10
112.503
20
-112.624
11
112.096
21
-112.434
0
LINE
8
BLACK
6
CONTINUOUS
10
112.096
20
-112.434
11
112.025
21
-112.382
0
LINE
8
BLACK
6
CONTINUOUS
10
112.025
20
-112.382
11
111.979
21
-112.307
0
LINE
8
BLACK
6
CONTINUOUS
10
111.979
20
-112.307
11
111.966
21
-112.22
0
LINE
8
BLACK
6
CONTINUOUS
10
111.966
20
-112.22
11
111.987
21
-112.135
0
LINE
8
BLACK
6
CONTINUOUS
10
111.987
20
-112.135
11
112.304
21
-111.455
0
LINE
8
BLACK
6
CONTINUOUS
10
112.304
20
-111.455
11
112.356
21
-111.384
0
LINE
8
BLACK
6
CONTINUOUS
10
112.356
20
-111.384
11
112.431
21
-111.338
0
LINE
8
BLACK
6
CONTINUOUS
10
112.431
20
-111.338
11
112.518
21
-111.325
0
LINE
8
BLACK
6
CONTINUOUS
10
112.518
20
-111.325
11
112.603
21
-111.346
0
LINE
8
BLACK
6
CONTINUOUS
10
174.094
20
-110.25
11
174.169
21
-110.295
0
LINE
8
BLACK
6
CONTINUOUS
10
174.169
20
-110.295
11
174.221
21
-110.366
0
LINE
8
BLACK
6
CONTINUOUS
10
174.221
20
-110.366
11
174.538
21
-111.046
0
LINE
8
BLACK
6
CONTINUOUS
10
174.538
20
-111.046
11
174.559
21
-111.131
0
LINE
8
BLACK
6
CONTINUOUS
10
174.559
20
-111.131
11
174.545
21
-111.218
0
LINE
8
BLACK
6
CONTINUOUS
10
174.545
20
-111.218
11
174.5
21
-111.293
0
LINE
8
BLACK
6
CONTINUOUS
10
174.5
20
-111.293
11
174.429
21
-111.345
0
LINE
8
BLACK
6
CONTINUOUS
10
174.429
20
-111.345
11
174.021
21
-111.535
0
LINE
8
BLACK
6
CONTINUOUS
10
174.021
20
-111.535
11
173.936
21
-111.556
0
LINE
8
BLACK
6
CONTINUOUS
10
173.936
20
-111.556
11
173.849
21
-111.542
0
LINE
8
BLACK
6
CONTINUOUS
10
173.849
20
-111.542
11
173.774
21
-111.497
0
LINE
8
BLACK
6
CONTINUOUS
10
173.774
20
-111.497
11
173.722
21
-111.426
0
LINE
8
BLACK
6
CONTINUOUS
10
173.722
20
-111.426
11
173.405
21
-110.746
0
LINE
8
BLACK
6
CONTINUOUS
10
173.405
20
-110.746
11
173.384
21
-110.661
0
LINE
8
BLACK
6
CONTINUOUS
10
173.384
20
-110.661
11
173.398
21
-110.574
0
LINE
8
BLACK
6
CONTINUOUS
10
173.398
20
-110.574
11
173.443
21
-110.499
0
LINE
8
BLACK
6
CONTINUOUS
10
173.443
20
-110.499
11
173.514
21
-110.447
0
LINE
8
BLACK
6
CONTINUOUS
10
173.514
20
-110.447
11
173.922
21
-110.257
0
LINE
8
BLACK
6
CONTINUOUS
10
173.922
20
-110.257
11
174.007
21
-110.236
0
LINE
8
BLACK
6
CONTINUOUS
10
174.007
20
-110.236
11
174.094
21
-110.25
0
LINE
8
BLACK
6
CONTINUOUS
10
109.612
20
-109.951
11
110.02
21
-110.141
0
LINE
8
BLACK
6
CONTINUOUS
10
110.02
20
-110.141
11
110.091
21
-110.193
0
LINE
8
BLACK
6
CONTINUOUS
10
110.091
20
-110.193
11
110.136
21
-110.268
0
LINE
8
BLACK
6
CONTINUOUS
10
110.136
20
-110.268
11
110.15
21
-110.355
0
LINE
8
BLACK
6
CONTINUOUS
10
110.15
20
-110.355
11
110.129
21
-110.44
0
LINE
8
BLACK
6
CONTINUOUS
10
110.129
20
-110.44
11
109.812
21
-111.12
0
LINE
8
BLACK
6
CONTINUOUS
10
109.812
20
-111.12
11
109.76
21
-111.191
0
LINE
8
BLACK
6
CONTINUOUS
10
109.76
20
-111.191
11
109.685
21
-111.237
0
LINE
8
BLACK
6
CONTINUOUS
10
109.685
20
-111.237
11
109.598
21
-111.25
0
LINE
8
BLACK
6
CONTINUOUS
10
109.598
20
-111.25
11
109.513
21
-111.229
0
LINE
8
BLACK
6
CONTINUOUS
10
109.513
20
-111.229
11
109.105
21
-111.039
0
LINE
8
BLACK
6
CONTINUOUS
10
109.105
20
-111.039
11
109.034
21
-110.987
0
LINE
8
BLACK
6
CONTINUOUS
10
109.034
20
-110.987
11
108.988
21
-110.912
0
LINE
8
BLACK
6
CONTINUOUS
10
108.988
20
-110.912
11
108.975
21
-110.825
0
LINE
8
BLACK
6
CONTINUOUS
10
108.975
20
-110.825
11
108.996
21
-110.74
0
LINE
8
BLACK
6
CONTINUOUS
10
108.996
20
-110.74
11
109.313
21
-110.06
0
LINE
8
BLACK
6
CONTINUOUS
10
109.313
20
-110.06
11
109.365
21
-109.989
0
LINE
8
BLACK
6
CONTINUOUS
10
109.365
20
-109.989
11
109.44
21
-109.944
0
LINE
8
BLACK
6
CONTINUOUS
10
109.44
20
-109.944
11
109.527
21
-109.93
0
LINE
8
BLACK
6
CONTINUOUS
10
109.527
20
-109.93
11
109.612
21
-109.951
0
LINE
8
BLACK
6
CONTINUOUS
10
192.819
20
-108.251
11
190.508
21
-109.328
0
LINE
8
BLACK
6
CONTINUOUS
10
190.508
20
-109.328
11
189.452
21
-107.063
0
LINE
8
BLACK
6
CONTINUOUS
10
189.452
20
-107.063
11
191.763
21
-105.985
0
LINE
8
BLACK
6
CONTINUOUS
10
191.763
20
-105.985
11
192.819
21
-108.251
0
LINE
8
BLACK
6
CONTINUOUS
10
210.028
20
-105.264
11
210.103
21
-105.31
0
LINE
8
BLACK
6
CONTINUOUS
10
210.103
20
-105.31
11
210.155
21
-105.381
0
LINE
8
BLACK
6
CONTINUOUS
10
210.155
20
-105.381
11
210.472
21
-106.06
0
LINE
8
BLACK
6
CONTINUOUS
10
210.472
20
-106.06
11
210.493
21
-106.146
0
LINE
8
BLACK
6
CONTINUOUS
10
210.493
20
-106.146
11
210.479
21
-106.232
0
LINE
8
BLACK
6
CONTINUOUS
10
210.479
20
-106.232
11
210.434
21
-106.307
0
LINE
8
BLACK
6
CONTINUOUS
10
210.434
20
-106.307
11
210.363
21
-106.359
0
LINE
8
BLACK
6
CONTINUOUS
10
210.363
20
-106.359
11
209.955
21
-106.549
0
LINE
8
BLACK
6
CONTINUOUS
10
209.955
20
-106.549
11
209.87
21
-106.57
0
LINE
8
BLACK
6
CONTINUOUS
10
209.87
20
-106.57
11
209.783
21
-106.557
0
LINE
8
BLACK
6
CONTINUOUS
10
209.783
20
-106.557
11
209.708
21
-106.511
0
LINE
8
BLACK
6
CONTINUOUS
10
209.708
20
-106.511
11
209.656
21
-106.441
0
LINE
8
BLACK
6
CONTINUOUS
10
209.656
20
-106.441
11
209.339
21
-105.761
0
LINE
8
BLACK
6
CONTINUOUS
10
209.339
20
-105.761
11
209.318
21
-105.676
0
LINE
8
BLACK
6
CONTINUOUS
10
209.318
20
-105.676
11
209.331
21
-105.589
0
LINE
8
BLACK
6
CONTINUOUS
10
209.331
20
-105.589
11
209.377
21
-105.514
0
LINE
8
BLACK
6
CONTINUOUS
10
209.377
20
-105.514
11
209.448
21
-105.462
0
LINE
8
BLACK
6
CONTINUOUS
10
209.448
20
-105.462
11
209.856
21
-105.272
0
LINE
8
BLACK
6
CONTINUOUS
10
209.856
20
-105.272
11
209.941
21
-105.251
0
LINE
8
BLACK
6
CONTINUOUS
10
209.941
20
-105.251
11
210.028
21
-105.264
0
LINE
8
BLACK
6
CONTINUOUS
10
73.564
20
-104.913
11
73.9718
21
-105.103
0
LINE
8
BLACK
6
CONTINUOUS
10
73.9718
20
-105.103
11
74.0426
21
-105.155
0
LINE
8
BLACK
6
CONTINUOUS
10
74.0426
20
-105.155
11
74.0882
21
-105.23
0
LINE
8
BLACK
6
CONTINUOUS
10
74.0882
20
-105.23
11
74.1015
21
-105.317
0
LINE
8
BLACK
6
CONTINUOUS
10
74.1015
20
-105.317
11
74.0806
21
-105.402
0
LINE
8
BLACK
6
CONTINUOUS
10
74.0806
20
-105.402
11
73.7637
21
-106.082
0
LINE
8
BLACK
6
CONTINUOUS
10
73.7637
20
-106.082
11
73.7118
21
-106.152
0
LINE
8
BLACK
6
CONTINUOUS
10
73.7118
20
-106.152
11
73.6367
21
-106.198
0
LINE
8
BLACK
6
CONTINUOUS
10
73.6367
20
-106.198
11
73.5499
21
-106.211
0
LINE
8
BLACK
6
CONTINUOUS
10
73.5499
20
-106.211
11
73.4647
21
-106.19
0
LINE
8
BLACK
6
CONTINUOUS
10
73.4647
20
-106.19
11
73.0568
21
-106
0
LINE
8
BLACK
6
CONTINUOUS
10
73.0568
20
-106
11
72.986
21
-105.948
0
LINE
8
BLACK
6
CONTINUOUS
10
72.986
20
-105.948
11
72.9405
21
-105.873
0
LINE
8
BLACK
6
CONTINUOUS
10
72.9405
20
-105.873
11
72.9271
21
-105.787
0
LINE
8
BLACK
6
CONTINUOUS
10
72.9271
20
-105.787
11
72.948
21
-105.701
0
LINE
8
BLACK
6
CONTINUOUS
10
72.948
20
-105.701
11
73.265
21
-105.022
0
LINE
8
BLACK
6
CONTINUOUS
10
73.265
20
-105.022
11
73.3169
21
-104.951
0
LINE
8
BLACK
6
CONTINUOUS
10
73.3169
20
-104.951
11
73.3919
21
-104.905
0
LINE
8
BLACK
6
CONTINUOUS
10
73.3919
20
-104.905
11
73.4787
21
-104.892
0
LINE
8
BLACK
6
CONTINUOUS
10
73.4787
20
-104.892
11
73.564
21
-104.913
0
LINE
8
BLACK
6
CONTINUOUS
10
93.9555
20
-103.895
11
92.899
21
-106.161
0
LINE
8
BLACK
6
CONTINUOUS
10
92.899
20
-106.161
11
90.5879
21
-105.083
0
LINE
8
BLACK
6
CONTINUOUS
10
90.5879
20
-105.083
11
91.6444
21
-102.818
0
LINE
8
BLACK
6
CONTINUOUS
10
91.6444
20
-102.818
11
93.9555
21
-103.895
0
LINE
8
BLACK
6
CONTINUOUS
10
213.019
20
-103.87
11
213.094
21
-103.915
0
LINE
8
BLACK
6
CONTINUOUS
10
213.094
20
-103.915
11
213.145
21
-103.986
0
LINE
8
BLACK
6
CONTINUOUS
10
213.145
20
-103.986
11
213.462
21
-104.666
0
LINE
8
BLACK
6
CONTINUOUS
10
213.462
20
-104.666
11
213.483
21
-104.751
0
LINE
8
BLACK
6
CONTINUOUS
10
213.483
20
-104.751
11
213.47
21
-104.838
0
LINE
8
BLACK
6
CONTINUOUS
10
213.47
20
-104.838
11
213.424
21
-104.913
0
LINE
8
BLACK
6
CONTINUOUS
10
213.424
20
-104.913
11
213.354
21
-104.965
0
LINE
8
BLACK
6
CONTINUOUS
10
213.354
20
-104.965
11
212.946
21
-105.155
0
LINE
8
BLACK
6
CONTINUOUS
10
212.946
20
-105.155
11
212.861
21
-105.176
0
LINE
8
BLACK
6
CONTINUOUS
10
212.861
20
-105.176
11
212.774
21
-105.162
0
LINE
8
BLACK
6
CONTINUOUS
10
212.774
20
-105.162
11
212.699
21
-105.117
0
LINE
8
BLACK
6
CONTINUOUS
10
212.699
20
-105.117
11
212.647
21
-105.046
0
LINE
8
BLACK
6
CONTINUOUS
10
212.647
20
-105.046
11
212.33
21
-104.366
0
LINE
8
BLACK
6
CONTINUOUS
10
212.33
20
-104.366
11
212.309
21
-104.281
0
LINE
8
BLACK
6
CONTINUOUS
10
212.309
20
-104.281
11
212.322
21
-104.194
0
LINE
8
BLACK
6
CONTINUOUS
10
212.322
20
-104.194
11
212.368
21
-104.119
0
LINE
8
BLACK
6
CONTINUOUS
10
212.368
20
-104.119
11
212.439
21
-104.067
0
LINE
8
BLACK
6
CONTINUOUS
10
212.439
20
-104.067
11
212.846
21
-103.877
0
LINE
8
BLACK
6
CONTINUOUS
10
212.846
20
-103.877
11
212.932
21
-103.856
0
LINE
8
BLACK
6
CONTINUOUS
10
212.932
20
-103.856
11
213.019
21
-103.87
0
LINE
8
BLACK
6
CONTINUOUS
10
70.5732
20
-103.518
11
70.981
21
-103.708
0
LINE
8
BLACK
6
CONTINUOUS
10
70.981
20
-103.708
11
71.0518
21
-103.76
0
LINE
8
BLACK
6
CONTINUOUS
10
71.0518
20
-103.76
11
71.0973
21
-103.835
0
LINE
8
BLACK
6
CONTINUOUS
10
71.0973
20
-103.835
11
71.1107
21
-103.922
0
LINE
8
BLACK
6
CONTINUOUS
10
71.1107
20
-103.922
11
71.0898
21
-104.007
0
LINE
8
BLACK
6
CONTINUOUS
10
71.0898
20
-104.007
11
70.7729
21
-104.687
0
LINE
8
BLACK
6
CONTINUOUS
10
70.7729
20
-104.687
11
70.721
21
-104.758
0
LINE
8
BLACK
6
CONTINUOUS
10
70.721
20
-104.758
11
70.6459
21
-104.803
0
LINE
8
BLACK
6
CONTINUOUS
10
70.6459
20
-104.803
11
70.5591
21
-104.817
0
LINE
8
BLACK
6
CONTINUOUS
10
70.5591
20
-104.817
11
70.4739
21
-104.796
0
LINE
8
BLACK
6
CONTINUOUS
10
70.4739
20
-104.796
11
70.066
21
-104.606
0
LINE
8
BLACK
6
CONTINUOUS
10
70.066
20
-104.606
11
69.9952
21
-104.554
0
LINE
8
BLACK
6
CONTINUOUS
10
69.9952
20
-104.554
11
69.9497
21
-104.479
0
LINE
8
BLACK
6
CONTINUOUS
10
69.9497
20
-104.479
11
69.9363
21
-104.392
0
LINE
8
BLACK
6
CONTINUOUS
10
69.9363
20
-104.392
11
69.9572
21
-104.307
0
LINE
8
BLACK
6
CONTINUOUS
10
69.9572
20
-104.307
11
70.2741
21
-103.627
0
LINE
8
BLACK
6
CONTINUOUS
10
70.2741
20
-103.627
11
70.3261
21
-103.556
0
LINE
8
BLACK
6
CONTINUOUS
10
70.3261
20
-103.556
11
70.4011
21
-103.511
0
LINE
8
BLACK
6
CONTINUOUS
10
70.4011
20
-103.511
11
70.4879
21
-103.497
0
LINE
8
BLACK
6
CONTINUOUS
10
70.4879
20
-103.497
11
70.5732
21
-103.518
0
LINE
8
BLACK
6
CONTINUOUS
10
169.114
20
-102.489
11
166.803
21
-103.567
0
LINE
8
BLACK
6
CONTINUOUS
10
166.803
20
-103.567
11
165.746
21
-101.301
0
LINE
8
BLACK
6
CONTINUOUS
10
165.746
20
-101.301
11
168.057
21
-100.224
0
LINE
8
BLACK
6
CONTINUOUS
10
168.057
20
-100.224
11
169.114
21
-102.489
0
LINE
8
BLACK
6
CONTINUOUS
10
248.055
20
-101.905
11
248.13
21
-101.95
0
LINE
8
BLACK
6
CONTINUOUS
10
248.13
20
-101.95
11
248.182
21
-102.021
0
LINE
8
BLACK
6
CONTINUOUS
10
248.182
20
-102.021
11
248.499
21
-102.701
0
LINE
8
BLACK
6
CONTINUOUS
10
248.499
20
-102.701
11
248.52
21
-102.786
0
LINE
8
BLACK
6
CONTINUOUS
10
248.52
20
-102.786
11
248.506
21
-102.873
0
LINE
8
BLACK
6
CONTINUOUS
10
248.506
20
-102.873
11
248.461
21
-102.948
0
LINE
8
BLACK
6
CONTINUOUS
10
248.461
20
-102.948
11
248.39
21
-103
0
LINE
8
BLACK
6
CONTINUOUS
10
248.39
20
-103
11
247.982
21
-103.19
0
LINE
8
BLACK
6
CONTINUOUS
10
247.982
20
-103.19
11
247.897
21
-103.211
0
LINE
8
BLACK
6
CONTINUOUS
10
247.897
20
-103.211
11
247.81
21
-103.198
0
LINE
8
BLACK
6
CONTINUOUS
10
247.81
20
-103.198
11
247.735
21
-103.152
0
LINE
8
BLACK
6
CONTINUOUS
10
247.735
20
-103.152
11
247.683
21
-103.081
0
LINE
8
BLACK
6
CONTINUOUS
10
247.683
20
-103.081
11
247.366
21
-102.402
0
LINE
8
BLACK
6
CONTINUOUS
10
247.366
20
-102.402
11
247.345
21
-102.316
0
LINE
8
BLACK
6
CONTINUOUS
10
247.345
20
-102.316
11
247.359
21
-102.23
0
LINE
8
BLACK
6
CONTINUOUS
10
247.359
20
-102.23
11
247.404
21
-102.155
0
LINE
8
BLACK
6
CONTINUOUS
10
247.404
20
-102.155
11
247.475
21
-102.103
0
LINE
8
BLACK
6
CONTINUOUS
10
247.475
20
-102.103
11
247.883
21
-101.912
0
LINE
8
BLACK
6
CONTINUOUS
10
247.883
20
-101.912
11
247.968
21
-101.892
0
LINE
8
BLACK
6
CONTINUOUS
10
247.968
20
-101.892
11
248.055
21
-101.905
0
LINE
8
BLACK
6
CONTINUOUS
10
229.607
20
-101.786
11
229.683
21
-101.831
0
LINE
8
BLACK
6
CONTINUOUS
10
229.683
20
-101.831
11
229.734
21
-101.902
0
LINE
8
BLACK
6
CONTINUOUS
10
229.734
20
-101.902
11
230.051
21
-102.582
0
LINE
8
BLACK
6
CONTINUOUS
10
230.051
20
-102.582
11
230.072
21
-102.667
0
LINE
8
BLACK
6
CONTINUOUS
10
230.072
20
-102.667
11
230.059
21
-102.754
0
LINE
8
BLACK
6
CONTINUOUS
10
230.059
20
-102.754
11
230.013
21
-102.829
0
LINE
8
BLACK
6
CONTINUOUS
10
230.013
20
-102.829
11
229.943
21
-102.881
0
LINE
8
BLACK
6
CONTINUOUS
10
229.943
20
-102.881
11
229.535
21
-103.071
0
LINE
8
BLACK
6
CONTINUOUS
10
229.535
20
-103.071
11
229.449
21
-103.092
0
LINE
8
BLACK
6
CONTINUOUS
10
229.449
20
-103.092
11
229.363
21
-103.078
0
LINE
8
BLACK
6
CONTINUOUS
10
229.363
20
-103.078
11
229.288
21
-103.033
0
LINE
8
BLACK
6
CONTINUOUS
10
229.288
20
-103.033
11
229.236
21
-102.962
0
LINE
8
BLACK
6
CONTINUOUS
10
229.236
20
-102.962
11
228.919
21
-102.282
0
LINE
8
BLACK
6
CONTINUOUS
10
228.919
20
-102.282
11
228.898
21
-102.197
0
LINE
8
BLACK
6
CONTINUOUS
10
228.898
20
-102.197
11
228.911
21
-102.11
0
LINE
8
BLACK
6
CONTINUOUS
10
228.911
20
-102.11
11
228.957
21
-102.035
0
LINE
8
BLACK
6
CONTINUOUS
10
228.957
20
-102.035
11
229.028
21
-101.983
0
LINE
8
BLACK
6
CONTINUOUS
10
229.028
20
-101.983
11
229.435
21
-101.793
0
LINE
8
BLACK
6
CONTINUOUS
10
229.435
20
-101.793
11
229.521
21
-101.772
0
LINE
8
BLACK
6
CONTINUOUS
10
229.521
20
-101.772
11
229.607
21
-101.786
0
LINE
8
BLACK
6
CONTINUOUS
10
80.3297
20
-100.344
11
79.2732
21
-102.61
0
LINE
8
BLACK
6
CONTINUOUS
10
79.2732
20
-102.61
11
76.9621
21
-101.532
0
LINE
8
BLACK
6
CONTINUOUS
10
76.9621
20
-101.532
11
78.0186
21
-99.2663
0
LINE
8
BLACK
6
CONTINUOUS
10
78.0186
20
-99.2663
11
80.3297
21
-100.344
0
LINE
8
BLACK
6
CONTINUOUS
10
54.1432
20
-101.182
11
54.5511
21
-101.372
0
LINE
8
BLACK
6
CONTINUOUS
10
54.5511
20
-101.372
11
54.6219
21
-101.424
0
LINE
8
BLACK
6
CONTINUOUS
10
54.6219
20
-101.424
11
54.6674
21
-101.499
0
LINE
8
BLACK
6
CONTINUOUS
10
54.6674
20
-101.499
11
54.6808
21
-101.585
0
LINE
8
BLACK
6
CONTINUOUS
10
54.6808
20
-101.585
11
54.6599
21
-101.671
0
LINE
8
BLACK
6
CONTINUOUS
10
54.6599
20
-101.671
11
54.343
21
-102.35
0
LINE
8
BLACK
6
CONTINUOUS
10
54.343
20
-102.35
11
54.291
21
-102.421
0
LINE
8
BLACK
6
CONTINUOUS
10
54.291
20
-102.421
11
54.216
21
-102.467
0
LINE
8
BLACK
6
CONTINUOUS
10
54.216
20
-102.467
11
54.1292
21
-102.48
0
LINE
8
BLACK
6
CONTINUOUS
10
54.1292
20
-102.48
11
54.0439
21
-102.459
0
LINE
8
BLACK
6
CONTINUOUS
10
54.0439
20
-102.459
11
53.6361
21
-102.269
0
LINE
8
BLACK
6
CONTINUOUS
10
53.6361
20
-102.269
11
53.5653
21
-102.217
0
LINE
8
BLACK
6
CONTINUOUS
10
53.5653
20
-102.217
11
53.5198
21
-102.142
0
LINE
8
BLACK
6
CONTINUOUS
10
53.5198
20
-102.142
11
53.5064
21
-102.055
0
LINE
8
BLACK
6
CONTINUOUS
10
53.5064
20
-102.055
11
53.5273
21
-101.97
0
LINE
8
BLACK
6
CONTINUOUS
10
53.5273
20
-101.97
11
53.8442
21
-101.29
0
LINE
8
BLACK
6
CONTINUOUS
10
53.8442
20
-101.29
11
53.8962
21
-101.22
0
LINE
8
BLACK
6
CONTINUOUS
10
53.8962
20
-101.22
11
53.9712
21
-101.174
0
LINE
8
BLACK
6
CONTINUOUS
10
53.9712
20
-101.174
11
54.058
21
-101.161
0
LINE
8
BLACK
6
CONTINUOUS
10
54.058
20
-101.161
11
54.1432
21
-101.182
0
LINE
8
BLACK
6
CONTINUOUS
10
251.046
20
-100.51
11
251.121
21
-100.556
0
LINE
8
BLACK
6
CONTINUOUS
10
251.121
20
-100.556
11
251.173
21
-100.627
0
LINE
8
BLACK
6
CONTINUOUS
10
251.173
20
-100.627
11
251.49
21
-101.306
0
LINE
8
BLACK
6
CONTINUOUS
10
251.49
20
-101.306
11
251.511
21
-101.392
0
LINE
8
BLACK
6
CONTINUOUS
10
251.511
20
-101.392
11
251.497
21
-101.478
0
LINE
8
BLACK
6
CONTINUOUS
10
251.497
20
-101.478
11
251.452
21
-101.553
0
LINE
8
BLACK
6
CONTINUOUS
10
251.452
20
-101.553
11
251.381
21
-101.605
0
LINE
8
BLACK
6
CONTINUOUS
10
251.381
20
-101.605
11
250.973
21
-101.796
0
LINE
8
BLACK
6
CONTINUOUS
10
250.973
20
-101.796
11
250.888
21
-101.816
0
LINE
8
BLACK
6
CONTINUOUS
10
250.888
20
-101.816
11
250.801
21
-101.803
0
LINE
8
BLACK
6
CONTINUOUS
10
250.801
20
-101.803
11
250.726
21
-101.758
0
LINE
8
BLACK
6
CONTINUOUS
10
250.726
20
-101.758
11
250.674
21
-101.687
0
LINE
8
BLACK
6
CONTINUOUS
10
250.674
20
-101.687
11
250.357
21
-101.007
0
LINE
8
BLACK
6
CONTINUOUS
10
250.357
20
-101.007
11
250.336
21
-100.922
0
LINE
8
BLACK
6
CONTINUOUS
10
250.336
20
-100.922
11
250.35
21
-100.835
0
LINE
8
BLACK
6
CONTINUOUS
10
250.35
20
-100.835
11
250.395
21
-100.76
0
LINE
8
BLACK
6
CONTINUOUS
10
250.395
20
-100.76
11
250.466
21
-100.708
0
LINE
8
BLACK
6
CONTINUOUS
10
250.466
20
-100.708
11
250.874
21
-100.518
0
LINE
8
BLACK
6
CONTINUOUS
10
250.874
20
-100.518
11
250.959
21
-100.497
0
LINE
8
BLACK
6
CONTINUOUS
10
250.959
20
-100.497
11
251.046
21
-100.51
0
LINE
8
BLACK
6
CONTINUOUS
10
232.598
20
-100.391
11
232.673
21
-100.436
0
LINE
8
BLACK
6
CONTINUOUS
10
232.673
20
-100.436
11
232.725
21
-100.507
0
LINE
8
BLACK
6
CONTINUOUS
10
232.725
20
-100.507
11
233.042
21
-101.187
0
LINE
8
BLACK
6
CONTINUOUS
10
233.042
20
-101.187
11
233.063
21
-101.272
0
LINE
8
BLACK
6
CONTINUOUS
10
233.063
20
-101.272
11
233.05
21
-101.359
0
LINE
8
BLACK
6
CONTINUOUS
10
233.05
20
-101.359
11
233.004
21
-101.434
0
LINE
8
BLACK
6
CONTINUOUS
10
233.004
20
-101.434
11
232.933
21
-101.486
0
LINE
8
BLACK
6
CONTINUOUS
10
232.933
20
-101.486
11
232.526
21
-101.676
0
LINE
8
BLACK
6
CONTINUOUS
10
232.526
20
-101.676
11
232.44
21
-101.697
0
LINE
8
BLACK
6
CONTINUOUS
10
232.44
20
-101.697
11
232.353
21
-101.684
0
LINE
8
BLACK
6
CONTINUOUS
10
232.353
20
-101.684
11
232.278
21
-101.638
0
LINE
8
BLACK
6
CONTINUOUS
10
232.278
20
-101.638
11
232.227
21
-101.567
0
LINE
8
BLACK
6
CONTINUOUS
10
232.227
20
-101.567
11
231.91
21
-100.888
0
LINE
8
BLACK
6
CONTINUOUS
10
231.91
20
-100.888
11
231.889
21
-100.802
0
LINE
8
BLACK
6
CONTINUOUS
10
231.889
20
-100.802
11
231.902
21
-100.716
0
LINE
8
BLACK
6
CONTINUOUS
10
231.902
20
-100.716
11
231.948
21
-100.64
0
LINE
8
BLACK
6
CONTINUOUS
10
231.948
20
-100.64
11
232.018
21
-100.589
0
LINE
8
BLACK
6
CONTINUOUS
10
232.018
20
-100.589
11
232.426
21
-100.398
0
LINE
8
BLACK
6
CONTINUOUS
10
232.426
20
-100.398
11
232.512
21
-100.378
0
LINE
8
BLACK
6
CONTINUOUS
10
232.512
20
-100.378
11
232.598
21
-100.391
0
LINE
8
BLACK
6
CONTINUOUS
10
186.758
20
-100.14
11
186.833
21
-100.186
0
LINE
8
BLACK
6
CONTINUOUS
10
186.833
20
-100.186
11
186.885
21
-100.257
0
LINE
8
BLACK
6
CONTINUOUS
10
186.885
20
-100.257
11
187.202
21
-100.936
0
LINE
8
BLACK
6
CONTINUOUS
10
187.202
20
-100.936
11
187.223
21
-101.022
0
LINE
8
BLACK
6
CONTINUOUS
10
187.223
20
-101.022
11
187.21
21
-101.108
0
LINE
8
BLACK
6
CONTINUOUS
10
187.21
20
-101.108
11
187.164
21
-101.183
0
LINE
8
BLACK
6
CONTINUOUS
10
187.164
20
-101.183
11
187.093
21
-101.235
0
LINE
8
BLACK
6
CONTINUOUS
10
187.093
20
-101.235
11
186.685
21
-101.426
0
LINE
8
BLACK
6
CONTINUOUS
10
186.685
20
-101.426
11
186.6
21
-101.446
0
LINE
8
BLACK
6
CONTINUOUS
10
186.6
20
-101.446
11
186.513
21
-101.433
0
LINE
8
BLACK
6
CONTINUOUS
10
186.513
20
-101.433
11
186.438
21
-101.388
0
LINE
8
BLACK
6
CONTINUOUS
10
186.438
20
-101.388
11
186.386
21
-101.317
0
LINE
8
BLACK
6
CONTINUOUS
10
186.386
20
-101.317
11
186.069
21
-100.637
0
LINE
8
BLACK
6
CONTINUOUS
10
186.069
20
-100.637
11
186.048
21
-100.552
0
LINE
8
BLACK
6
CONTINUOUS
10
186.048
20
-100.552
11
186.062
21
-100.465
0
LINE
8
BLACK
6
CONTINUOUS
10
186.062
20
-100.465
11
186.107
21
-100.39
0
LINE
8
BLACK
6
CONTINUOUS
10
186.107
20
-100.39
11
186.178
21
-100.338
0
LINE
8
BLACK
6
CONTINUOUS
10
186.178
20
-100.338
11
186.586
21
-100.148
0
LINE
8
BLACK
6
CONTINUOUS
10
186.586
20
-100.148
11
186.671
21
-100.127
0
LINE
8
BLACK
6
CONTINUOUS
10
186.671
20
-100.127
11
186.758
21
-100.14
0
LINE
8
BLACK
6
CONTINUOUS
10
204.298
20
-100.095
11
201.987
21
-101.173
0
LINE
8
BLACK
6
CONTINUOUS
10
201.987
20
-101.173
11
200.931
21
-98.9073
0
LINE
8
BLACK
6
CONTINUOUS
10
200.931
20
-98.9073
11
203.242
21
-97.8296
0
LINE
8
BLACK
6
CONTINUOUS
10
203.242
20
-97.8296
11
204.298
21
-100.095
0
LINE
8
BLACK
6
CONTINUOUS
10
96.9478
20
-99.842
11
97.3556
21
-100.032
0
LINE
8
BLACK
6
CONTINUOUS
10
97.3556
20
-100.032
11
97.4264
21
-100.084
0
LINE
8
BLACK
6
CONTINUOUS
10
97.4264
20
-100.084
11
97.472
21
-100.159
0
LINE
8
BLACK
6
CONTINUOUS
10
97.472
20
-100.159
11
97.4853
21
-100.246
0
LINE
8
BLACK
6
CONTINUOUS
10
97.4853
20
-100.246
11
97.4645
21
-100.331
0
LINE
8
BLACK
6
CONTINUOUS
10
97.4645
20
-100.331
11
97.1475
21
-101.011
0
LINE
8
BLACK
6
CONTINUOUS
10
97.1475
20
-101.011
11
97.0956
21
-101.082
0
LINE
8
BLACK
6
CONTINUOUS
10
97.0956
20
-101.082
11
97.0205
21
-101.127
0
LINE
8
BLACK
6
CONTINUOUS
10
97.0205
20
-101.127
11
96.9338
21
-101.141
0
LINE
8
BLACK
6
CONTINUOUS
10
96.9338
20
-101.141
11
96.8485
21
-101.12
0
LINE
8
BLACK
6
CONTINUOUS
10
96.8485
20
-101.12
11
96.4407
21
-100.93
0
LINE
8
BLACK
6
CONTINUOUS
10
96.4407
20
-100.93
11
96.3699
21
-100.878
0
LINE
8
BLACK
6
CONTINUOUS
10
96.3699
20
-100.878
11
96.3243
21
-100.803
0
LINE
8
BLACK
6
CONTINUOUS
10
96.3243
20
-100.803
11
96.311
21
-100.716
0
LINE
8
BLACK
6
CONTINUOUS
10
96.311
20
-100.716
11
96.3318
21
-100.631
0
LINE
8
BLACK
6
CONTINUOUS
10
96.3318
20
-100.631
11
96.6488
21
-99.9509
0
LINE
8
BLACK
6
CONTINUOUS
10
96.6488
20
-99.9509
11
96.7007
21
-99.8801
0
LINE
8
BLACK
6
CONTINUOUS
10
96.7007
20
-99.8801
11
96.7758
21
-99.8345
0
LINE
8
BLACK
6
CONTINUOUS
10
96.7758
20
-99.8345
11
96.8625
21
-99.8212
0
LINE
8
BLACK
6
CONTINUOUS
10
96.8625
20
-99.8212
11
96.9478
21
-99.842
0
LINE
8
BLACK
6
CONTINUOUS
10
51.1524
20
-99.7869
11
51.5603
21
-99.9771
0
LINE
8
BLACK
6
CONTINUOUS
10
51.5603
20
-99.9771
11
51.6311
21
-100.029
0
LINE
8
BLACK
6
CONTINUOUS
10
51.6311
20
-100.029
11
51.6766
21
-100.104
0
LINE
8
BLACK
6
CONTINUOUS
10
51.6766
20
-100.104
11
51.69
21
-100.191
0
LINE
8
BLACK
6
CONTINUOUS
10
51.69
20
-100.191
11
51.6691
21
-100.276
0
LINE
8
BLACK
6
CONTINUOUS
10
51.6691
20
-100.276
11
51.3521
21
-100.956
0
LINE
8
BLACK
6
CONTINUOUS
10
51.3521
20
-100.956
11
51.3002
21
-101.027
0
LINE
8
BLACK
6
CONTINUOUS
10
51.3002
20
-101.027
11
51.2252
21
-101.072
0
LINE
8
BLACK
6
CONTINUOUS
10
51.2252
20
-101.072
11
51.1384
21
-101.086
0
LINE
8
BLACK
6
CONTINUOUS
10
51.1384
20
-101.086
11
51.0531
21
-101.065
0
LINE
8
BLACK
6
CONTINUOUS
10
51.0531
20
-101.065
11
50.6453
21
-100.874
0
LINE
8
BLACK
6
CONTINUOUS
10
50.6453
20
-100.874
11
50.5745
21
-100.823
0
LINE
8
BLACK
6
CONTINUOUS
10
50.5745
20
-100.823
11
50.5289
21
-100.748
0
LINE
8
BLACK
6
CONTINUOUS
10
50.5289
20
-100.748
11
50.5156
21
-100.661
0
LINE
8
BLACK
6
CONTINUOUS
10
50.5156
20
-100.661
11
50.5365
21
-100.575
0
LINE
8
BLACK
6
CONTINUOUS
10
50.5365
20
-100.575
11
50.8534
21
-99.8957
0
LINE
8
BLACK
6
CONTINUOUS
10
50.8534
20
-99.8957
11
50.9053
21
-99.8249
0
LINE
8
BLACK
6
CONTINUOUS
10
50.9053
20
-99.8249
11
50.9804
21
-99.7794
0
LINE
8
BLACK
6
CONTINUOUS
10
50.9804
20
-99.7794
11
51.0672
21
-99.766
0
LINE
8
BLACK
6
CONTINUOUS
10
51.0672
20
-99.766
11
51.1524
21
-99.7869
0
LINE
8
BLACK
6
CONTINUOUS
10
33.9884
20
-99.6304
11
34.3963
21
-99.8206
0
LINE
8
BLACK
6
CONTINUOUS
10
34.3963
20
-99.8206
11
34.4671
21
-99.8725
0
LINE
8
BLACK
6
CONTINUOUS
10
34.4671
20
-99.8725
11
34.5126
21
-99.9476
0
LINE
8
BLACK
6
CONTINUOUS
10
34.5126
20
-99.9476
11
34.526
21
-100.034
0
LINE
8
BLACK
6
CONTINUOUS
10
34.526
20
-100.034
11
34.5051
21
-100.12
0
LINE
8
BLACK
6
CONTINUOUS
10
34.5051
20
-100.12
11
34.1881
21
-100.799
0
LINE
8
BLACK
6
CONTINUOUS
10
34.1881
20
-100.799
11
34.1362
21
-100.87
0
LINE
8
BLACK
6
CONTINUOUS
10
34.1362
20
-100.87
11
34.0612
21
-100.916
0
LINE
8
BLACK
6
CONTINUOUS
10
34.0612
20
-100.916
11
33.9744
21
-100.929
0
LINE
8
BLACK
6
CONTINUOUS
10
33.9744
20
-100.929
11
33.8891
21
-100.908
0
LINE
8
BLACK
6
CONTINUOUS
10
33.8891
20
-100.908
11
33.4813
21
-100.718
0
LINE
8
BLACK
6
CONTINUOUS
10
33.4813
20
-100.718
11
33.4105
21
-100.666
0
LINE
8
BLACK
6
CONTINUOUS
10
33.4105
20
-100.666
11
33.3649
21
-100.591
0
LINE
8
BLACK
6
CONTINUOUS
10
33.3649
20
-100.591
11
33.3516
21
-100.504
0
LINE
8
BLACK
6
CONTINUOUS
10
33.3516
20
-100.504
11
33.3725
21
-100.419
0
LINE
8
BLACK
6
CONTINUOUS
10
33.3725
20
-100.419
11
33.6894
21
-99.7393
0
LINE
8
BLACK
6
CONTINUOUS
10
33.6894
20
-99.7393
11
33.7413
21
-99.6685
0
LINE
8
BLACK
6
CONTINUOUS
10
33.7413
20
-99.6685
11
33.8164
21
-99.6229
0
LINE
8
BLACK
6
CONTINUOUS
10
33.8164
20
-99.6229
11
33.9032
21
-99.6096
0
LINE
8
BLACK
6
CONTINUOUS
10
33.9032
20
-99.6096
11
33.9884
21
-99.6304
0
LINE
8
BLACK
6
CONTINUOUS
10
117.637
20
-98.1225
11
116.58
21
-100.388
0
LINE
8
BLACK
6
CONTINUOUS
10
116.58
20
-100.388
11
114.269
21
-99.3106
0
LINE
8
BLACK
6
CONTINUOUS
10
114.269
20
-99.3106
11
115.326
21
-97.0449
0
LINE
8
BLACK
6
CONTINUOUS
10
115.326
20
-97.0449
11
117.637
21
-98.1225
0
LINE
8
BLACK
6
CONTINUOUS
10
189.749
20
-98.7457
11
189.824
21
-98.7912
0
LINE
8
BLACK
6
CONTINUOUS
10
189.824
20
-98.7912
11
189.876
21
-98.862
0
LINE
8
BLACK
6
CONTINUOUS
10
189.876
20
-98.862
11
190.193
21
-99.5417
0
LINE
8
BLACK
6
CONTINUOUS
10
190.193
20
-99.5417
11
190.214
21
-99.627
0
LINE
8
BLACK
6
CONTINUOUS
10
190.214
20
-99.627
11
190.2
21
-99.7138
0
LINE
8
BLACK
6
CONTINUOUS
10
190.2
20
-99.7138
11
190.155
21
-99.7888
0
LINE
8
BLACK
6
CONTINUOUS
10
190.155
20
-99.7888
11
190.084
21
-99.8408
0
LINE
8
BLACK
6
CONTINUOUS
10
190.084
20
-99.8408
11
189.676
21
-100.031
0
LINE
8
BLACK
6
CONTINUOUS
10
189.676
20
-100.031
11
189.591
21
-100.052
0
LINE
8
BLACK
6
CONTINUOUS
10
189.591
20
-100.052
11
189.504
21
-100.038
0
LINE
8
BLACK
6
CONTINUOUS
10
189.504
20
-100.038
11
189.429
21
-99.9929
0
LINE
8
BLACK
6
CONTINUOUS
10
189.429
20
-99.9929
11
189.377
21
-99.9221
0
LINE
8
BLACK
6
CONTINUOUS
10
189.377
20
-99.9221
11
189.06
21
-99.2424
0
LINE
8
BLACK
6
CONTINUOUS
10
189.06
20
-99.2424
11
189.039
21
-99.1571
0
LINE
8
BLACK
6
CONTINUOUS
10
189.039
20
-99.1571
11
189.053
21
-99.0703
0
LINE
8
BLACK
6
CONTINUOUS
10
189.053
20
-99.0703
11
189.098
21
-98.9953
0
LINE
8
BLACK
6
CONTINUOUS
10
189.098
20
-98.9953
11
189.169
21
-98.9434
0
LINE
8
BLACK
6
CONTINUOUS
10
189.169
20
-98.9434
11
189.577
21
-98.7532
0
LINE
8
BLACK
6
CONTINUOUS
10
189.577
20
-98.7532
11
189.662
21
-98.7323
0
LINE
8
BLACK
6
CONTINUOUS
10
189.662
20
-98.7323
11
189.749
21
-98.7457
0
LINE
8
BLACK
6
CONTINUOUS
10
93.957
20
-98.4474
11
94.3648
21
-98.6376
0
LINE
8
BLACK
6
CONTINUOUS
10
94.3648
20
-98.6376
11
94.4356
21
-98.6895
0
LINE
8
BLACK
6
CONTINUOUS
10
94.4356
20
-98.6895
11
94.4812
21
-98.7645
0
LINE
8
BLACK
6
CONTINUOUS
10
94.4812
20
-98.7645
11
94.4945
21
-98.8513
0
LINE
8
BLACK
6
CONTINUOUS
10
94.4945
20
-98.8513
11
94.4737
21
-98.9366
0
LINE
8
BLACK
6
CONTINUOUS
10
94.4737
20
-98.9366
11
94.1567
21
-99.6163
0
LINE
8
BLACK
6
CONTINUOUS
10
94.1567
20
-99.6163
11
94.1048
21
-99.6871
0
LINE
8
BLACK
6
CONTINUOUS
10
94.1048
20
-99.6871
11
94.0297
21
-99.7327
0
LINE
8
BLACK
6
CONTINUOUS
10
94.0297
20
-99.7327
11
93.943
21
-99.746
0
LINE
8
BLACK
6
CONTINUOUS
10
93.943
20
-99.746
11
93.8577
21
-99.7251
0
LINE
8
BLACK
6
CONTINUOUS
10
93.8577
20
-99.7251
11
93.4498
21
-99.535
0
LINE
8
BLACK
6
CONTINUOUS
10
93.4498
20
-99.535
11
93.379
21
-99.4831
0
LINE
8
BLACK
6
CONTINUOUS
10
93.379
20
-99.4831
11
93.3335
21
-99.408
0
LINE
8
BLACK
6
CONTINUOUS
10
93.3335
20
-99.408
11
93.3202
21
-99.3212
0
LINE
8
BLACK
6
CONTINUOUS
10
93.3202
20
-99.3212
11
93.341
21
-99.236
0
LINE
8
BLACK
6
CONTINUOUS
10
93.341
20
-99.236
11
93.658
21
-98.5562
0
LINE
8
BLACK
6
CONTINUOUS
10
93.658
20
-98.5562
11
93.7099
21
-98.4854
0
LINE
8
BLACK
6
CONTINUOUS
10
93.7099
20
-98.4854
11
93.7849
21
-98.4399
0
LINE
8
BLACK
6
CONTINUOUS
10
93.7849
20
-98.4399
11
93.8717
21
-98.4265
0
LINE
8
BLACK
6
CONTINUOUS
10
93.8717
20
-98.4265
11
93.957
21
-98.4474
0
LINE
8
BLACK
6
CONTINUOUS
10
30.9976
20
-98.2358
11
31.4055
21
-98.426
0
LINE
8
BLACK
6
CONTINUOUS
10
31.4055
20
-98.426
11
31.4763
21
-98.4779
0
LINE
8
BLACK
6
CONTINUOUS
10
31.4763
20
-98.4779
11
31.5218
21
-98.5529
0
LINE
8
BLACK
6
CONTINUOUS
10
31.5218
20
-98.5529
11
31.5352
21
-98.6397
0
LINE
8
BLACK
6
CONTINUOUS
10
31.5352
20
-98.6397
11
31.5143
21
-98.725
0
LINE
8
BLACK
6
CONTINUOUS
10
31.5143
20
-98.725
11
31.1973
21
-99.4047
0
LINE
8
BLACK
6
CONTINUOUS
10
31.1973
20
-99.4047
11
31.1454
21
-99.4755
0
LINE
8
BLACK
6
CONTINUOUS
10
31.1454
20
-99.4755
11
31.0704
21
-99.5211
0
LINE
8
BLACK
6
CONTINUOUS
10
31.0704
20
-99.5211
11
30.9836
21
-99.5344
0
LINE
8
BLACK
6
CONTINUOUS
10
30.9836
20
-99.5344
11
30.8983
21
-99.5135
0
LINE
8
BLACK
6
CONTINUOUS
10
30.8983
20
-99.5135
11
30.4905
21
-99.3234
0
LINE
8
BLACK
6
CONTINUOUS
10
30.4905
20
-99.3234
11
30.4197
21
-99.2715
0
LINE
8
BLACK
6
CONTINUOUS
10
30.4197
20
-99.2715
11
30.3741
21
-99.1964
0
LINE
8
BLACK
6
CONTINUOUS
10
30.3741
20
-99.1964
11
30.3608
21
-99.1096
0
LINE
8
BLACK
6
CONTINUOUS
10
30.3608
20
-99.1096
11
30.3816
21
-99.0244
0
LINE
8
BLACK
6
CONTINUOUS
10
30.3816
20
-99.0244
11
30.6986
21
-98.3446
0
LINE
8
BLACK
6
CONTINUOUS
10
30.6986
20
-98.3446
11
30.7505
21
-98.2738
0
LINE
8
BLACK
6
CONTINUOUS
10
30.7505
20
-98.2738
11
30.8256
21
-98.2283
0
LINE
8
BLACK
6
CONTINUOUS
10
30.8256
20
-98.2283
11
30.9123
21
-98.2149
0
LINE
8
BLACK
6
CONTINUOUS
10
30.9123
20
-98.2149
11
30.9976
21
-98.2358
0
LINE
8
BLACK
6
CONTINUOUS
10
208.152
20
-96.0561
11
205.841
21
-97.1338
0
LINE
8
BLACK
6
CONTINUOUS
10
205.841
20
-97.1338
11
204.785
21
-94.868
0
LINE
8
BLACK
6
CONTINUOUS
10
204.785
20
-94.868
11
207.096
21
-93.7903
0
LINE
8
BLACK
6
CONTINUOUS
10
207.096
20
-93.7903
11
208.152
21
-96.0561
0
LINE
8
BLACK
6
CONTINUOUS
10
104.011
20
-94.5713
11
102.955
21
-96.8371
0
LINE
8
BLACK
6
CONTINUOUS
10
102.955
20
-96.8371
11
100.643
21
-95.7594
0
LINE
8
BLACK
6
CONTINUOUS
10
100.643
20
-95.7594
11
101.7
21
-93.4936
0
LINE
8
BLACK
6
CONTINUOUS
10
101.7
20
-93.4936
11
104.011
21
-94.5713
0
LINE
8
BLACK
6
CONTINUOUS
10
249.816
20
-95.1249
11
247.505
21
-96.2026
0
LINE
8
BLACK
6
CONTINUOUS
10
247.505
20
-96.2026
11
246.449
21
-93.9368
0
LINE
8
BLACK
6
CONTINUOUS
10
246.449
20
-93.9368
11
248.76
21
-92.8591
0
LINE
8
BLACK
6
CONTINUOUS
10
248.76
20
-92.8591
11
249.816
21
-95.1249
0
LINE
8
BLACK
6
CONTINUOUS
10
162.938
20
-94.4323
11
163.013
21
-94.4779
0
LINE
8
BLACK
6
CONTINUOUS
10
163.013
20
-94.4779
11
163.065
21
-94.5486
0
LINE
8
BLACK
6
CONTINUOUS
10
163.065
20
-94.5486
11
163.382
21
-95.2284
0
LINE
8
BLACK
6
CONTINUOUS
10
163.382
20
-95.2284
11
163.403
21
-95.3137
0
LINE
8
BLACK
6
CONTINUOUS
10
163.403
20
-95.3137
11
163.389
21
-95.4004
0
LINE
8
BLACK
6
CONTINUOUS
10
163.389
20
-95.4004
11
163.344
21
-95.4755
0
LINE
8
BLACK
6
CONTINUOUS
10
163.344
20
-95.4755
11
163.273
21
-95.5274
0
LINE
8
BLACK
6
CONTINUOUS
10
163.273
20
-95.5274
11
162.865
21
-95.7176
0
LINE
8
BLACK
6
CONTINUOUS
10
162.865
20
-95.7176
11
162.78
21
-95.7384
0
LINE
8
BLACK
6
CONTINUOUS
10
162.78
20
-95.7384
11
162.693
21
-95.7251
0
LINE
8
BLACK
6
CONTINUOUS
10
162.693
20
-95.7251
11
162.618
21
-95.6795
0
LINE
8
BLACK
6
CONTINUOUS
10
162.618
20
-95.6795
11
162.566
21
-95.6087
0
LINE
8
BLACK
6
CONTINUOUS
10
162.566
20
-95.6087
11
162.249
21
-94.929
0
LINE
8
BLACK
6
CONTINUOUS
10
162.249
20
-94.929
11
162.228
21
-94.8437
0
LINE
8
BLACK
6
CONTINUOUS
10
162.228
20
-94.8437
11
162.242
21
-94.757
0
LINE
8
BLACK
6
CONTINUOUS
10
162.242
20
-94.757
11
162.287
21
-94.6819
0
LINE
8
BLACK
6
CONTINUOUS
10
162.287
20
-94.6819
11
162.358
21
-94.63
0
LINE
8
BLACK
6
CONTINUOUS
10
162.358
20
-94.63
11
162.766
21
-94.4398
0
LINE
8
BLACK
6
CONTINUOUS
10
162.766
20
-94.4398
11
162.851
21
-94.419
0
LINE
8
BLACK
6
CONTINUOUS
10
162.851
20
-94.419
11
162.938
21
-94.4323
0
LINE
8
BLACK
6
CONTINUOUS
10
180.592
20
-94.3341
11
178.281
21
-95.4118
0
LINE
8
BLACK
6
CONTINUOUS
10
178.281
20
-95.4118
11
177.225
21
-93.146
0
LINE
8
BLACK
6
CONTINUOUS
10
177.225
20
-93.146
11
179.536
21
-92.0683
0
LINE
8
BLACK
6
CONTINUOUS
10
179.536
20
-92.0683
11
180.592
21
-94.3341
0
LINE
8
BLACK
6
CONTINUOUS
10
120.539
20
-94.0275
11
120.947
21
-94.2177
0
LINE
8
BLACK
6
CONTINUOUS
10
120.947
20
-94.2177
11
121.018
21
-94.2696
0
LINE
8
BLACK
6
CONTINUOUS
10
121.018
20
-94.2696
11
121.064
21
-94.3447
0
LINE
8
BLACK
6
CONTINUOUS
10
121.064
20
-94.3447
11
121.077
21
-94.4315
0
LINE
8
BLACK
6
CONTINUOUS
10
121.077
20
-94.4315
11
121.056
21
-94.5167
0
LINE
8
BLACK
6
CONTINUOUS
10
121.056
20
-94.5167
11
120.739
21
-95.1965
0
LINE
8
BLACK
6
CONTINUOUS
10
120.739
20
-95.1965
11
120.687
21
-95.2673
0
LINE
8
BLACK
6
CONTINUOUS
10
120.687
20
-95.2673
11
120.612
21
-95.3128
0
LINE
8
BLACK
6
CONTINUOUS
10
120.612
20
-95.3128
11
120.525
21
-95.3262
0
LINE
8
BLACK
6
CONTINUOUS
10
120.525
20
-95.3262
11
120.44
21
-95.3053
0
LINE
8
BLACK
6
CONTINUOUS
10
120.44
20
-95.3053
11
120.032
21
-95.1151
0
LINE
8
BLACK
6
CONTINUOUS
10
120.032
20
-95.1151
11
119.962
21
-95.0632
0
LINE
8
BLACK
6
CONTINUOUS
10
119.962
20
-95.0632
11
119.916
21
-94.9881
0
LINE
8
BLACK
6
CONTINUOUS
10
119.916
20
-94.9881
11
119.903
21
-94.9014
0
LINE
8
BLACK
6
CONTINUOUS
10
119.903
20
-94.9014
11
119.924
21
-94.8161
0
LINE
8
BLACK
6
CONTINUOUS
10
119.924
20
-94.8161
11
120.24
21
-94.1364
0
LINE
8
BLACK
6
CONTINUOUS
10
120.24
20
-94.1364
11
120.292
21
-94.0656
0
LINE
8
BLACK
6
CONTINUOUS
10
120.292
20
-94.0656
11
120.367
21
-94.02
0
LINE
8
BLACK
6
CONTINUOUS
10
120.367
20
-94.02
11
120.454
21
-94.0067
0
LINE
8
BLACK
6
CONTINUOUS
10
120.454
20
-94.0067
11
120.539
21
-94.0275
0
LINE
8
BLACK
6
CONTINUOUS
10
165.929
20
-93.0377
11
166.004
21
-93.0832
0
LINE
8
BLACK
6
CONTINUOUS
10
166.004
20
-93.0832
11
166.056
21
-93.154
0
LINE
8
BLACK
6
CONTINUOUS
10
166.056
20
-93.154
11
166.373
21
-93.8337
0
LINE
8
BLACK
6
CONTINUOUS
10
166.373
20
-93.8337
11
166.394
21
-93.919
0
LINE
8
BLACK
6
CONTINUOUS
10
166.394
20
-93.919
11
166.38
21
-94.0058
0
LINE
8
BLACK
6
CONTINUOUS
10
166.38
20
-94.0058
11
166.335
21
-94.0808
0
LINE
8
BLACK
6
CONTINUOUS
10
166.335
20
-94.0808
11
166.264
21
-94.1327
0
LINE
8
BLACK
6
CONTINUOUS
10
166.264
20
-94.1327
11
165.856
21
-94.3229
0
LINE
8
BLACK
6
CONTINUOUS
10
165.856
20
-94.3229
11
165.771
21
-94.3438
0
LINE
8
BLACK
6
CONTINUOUS
10
165.771
20
-94.3438
11
165.684
21
-94.3304
0
LINE
8
BLACK
6
CONTINUOUS
10
165.684
20
-94.3304
11
165.609
21
-94.2849
0
LINE
8
BLACK
6
CONTINUOUS
10
165.609
20
-94.2849
11
165.557
21
-94.2141
0
LINE
8
BLACK
6
CONTINUOUS
10
165.557
20
-94.2141
11
165.24
21
-93.5344
0
LINE
8
BLACK
6
CONTINUOUS
10
165.24
20
-93.5344
11
165.219
21
-93.4491
0
LINE
8
BLACK
6
CONTINUOUS
10
165.219
20
-93.4491
11
165.233
21
-93.3623
0
LINE
8
BLACK
6
CONTINUOUS
10
165.233
20
-93.3623
11
165.278
21
-93.2873
0
LINE
8
BLACK
6
CONTINUOUS
10
165.278
20
-93.2873
11
165.349
21
-93.2354
0
LINE
8
BLACK
6
CONTINUOUS
10
165.349
20
-93.2354
11
165.757
21
-93.0452
0
LINE
8
BLACK
6
CONTINUOUS
10
165.757
20
-93.0452
11
165.842
21
-93.0243
0
LINE
8
BLACK
6
CONTINUOUS
10
165.842
20
-93.0243
11
165.929
21
-93.0377
0
LINE
8
BLACK
6
CONTINUOUS
10
78.6226
20
-91.7007
11
77.566
21
-93.9664
0
LINE
8
BLACK
6
CONTINUOUS
10
77.566
20
-93.9664
11
75.2549
21
-92.8888
0
LINE
8
BLACK
6
CONTINUOUS
10
75.2549
20
-92.8888
11
76.3115
21
-90.623
0
LINE
8
BLACK
6
CONTINUOUS
10
76.3115
20
-90.623
11
78.6226
21
-91.7007
0
LINE
8
BLACK
6
CONTINUOUS
10
117.549
20
-92.6329
11
117.956
21
-92.8231
0
LINE
8
BLACK
6
CONTINUOUS
10
117.956
20
-92.8231
11
118.027
21
-92.875
0
LINE
8
BLACK
6
CONTINUOUS
10
118.027
20
-92.875
11
118.073
21
-92.95
0
LINE
8
BLACK
6
CONTINUOUS
10
118.073
20
-92.95
11
118.086
21
-93.0368
0
LINE
8
BLACK
6
CONTINUOUS
10
118.086
20
-93.0368
11
118.065
21
-93.1221
0
LINE
8
BLACK
6
CONTINUOUS
10
118.065
20
-93.1221
11
117.748
21
-93.8018
0
LINE
8
BLACK
6
CONTINUOUS
10
117.748
20
-93.8018
11
117.696
21
-93.8726
0
LINE
8
BLACK
6
CONTINUOUS
10
117.696
20
-93.8726
11
117.621
21
-93.9182
0
LINE
8
BLACK
6
CONTINUOUS
10
117.621
20
-93.9182
11
117.535
21
-93.9315
0
LINE
8
BLACK
6
CONTINUOUS
10
117.535
20
-93.9315
11
117.449
21
-93.9106
0
LINE
8
BLACK
6
CONTINUOUS
10
117.449
20
-93.9106
11
117.042
21
-93.7205
0
LINE
8
BLACK
6
CONTINUOUS
10
117.042
20
-93.7205
11
116.971
21
-93.6686
0
LINE
8
BLACK
6
CONTINUOUS
10
116.971
20
-93.6686
11
116.925
21
-93.5935
0
LINE
8
BLACK
6
CONTINUOUS
10
116.925
20
-93.5935
11
116.912
21
-93.5067
0
LINE
8
BLACK
6
CONTINUOUS
10
116.912
20
-93.5067
11
116.933
21
-93.4215
0
LINE
8
BLACK
6
CONTINUOUS
10
116.933
20
-93.4215
11
117.25
21
-92.7417
0
LINE
8
BLACK
6
CONTINUOUS
10
117.25
20
-92.7417
11
117.302
21
-92.6709
0
LINE
8
BLACK
6
CONTINUOUS
10
117.302
20
-92.6709
11
117.377
21
-92.6254
0
LINE
8
BLACK
6
CONTINUOUS
10
117.377
20
-92.6254
11
117.463
21
-92.612
0
LINE
8
BLACK
6
CONTINUOUS
10
117.463
20
-92.612
11
117.549
21
-92.6329
0
LINE
8
BLACK
6
CONTINUOUS
10
36.9001
20
-91.0225
11
35.8436
21
-93.2882
0
LINE
8
BLACK
6
CONTINUOUS
10
35.8436
20
-93.2882
11
33.5325
21
-92.2106
0
LINE
8
BLACK
6
CONTINUOUS
10
33.5325
20
-92.2106
11
34.589
21
-89.9448
0
LINE
8
BLACK
6
CONTINUOUS
10
34.589
20
-89.9448
11
36.9001
21
-91.0225
0
LINE
8
BLACK
6
CONTINUOUS
10
227.374
20
-92.1375
11
225.063
21
-93.2151
0
LINE
8
BLACK
6
CONTINUOUS
10
225.063
20
-93.2151
11
224.007
21
-90.9494
0
LINE
8
BLACK
6
CONTINUOUS
10
224.007
20
-90.9494
11
226.318
21
-89.8717
0
LINE
8
BLACK
6
CONTINUOUS
10
226.318
20
-89.8717
11
227.374
21
-92.1375
0
LINE
8
BLACK
6
CONTINUOUS
10
184.769
20
-90.9855
11
182.457
21
-92.0631
0
LINE
8
BLACK
6
CONTINUOUS
10
182.457
20
-92.0631
11
181.401
21
-89.7974
0
LINE
8
BLACK
6
CONTINUOUS
10
181.401
20
-89.7974
11
183.712
21
-88.7197
0
LINE
8
BLACK
6
CONTINUOUS
10
183.712
20
-88.7197
11
184.769
21
-90.9855
0
LINE
8
BLACK
6
CONTINUOUS
10
64.9967
20
-88.1494
11
63.9402
21
-90.4152
0
LINE
8
BLACK
6
CONTINUOUS
10
63.9402
20
-90.4152
11
61.6291
21
-89.3375
0
LINE
8
BLACK
6
CONTINUOUS
10
61.6291
20
-89.3375
11
62.6857
21
-87.0718
0
LINE
8
BLACK
6
CONTINUOUS
10
62.6857
20
-87.0718
11
64.9967
21
-88.1494
0
LINE
8
BLACK
6
CONTINUOUS
10
59.3178
20
-88.0236
11
58.2613
21
-90.2894
0
LINE
8
BLACK
6
CONTINUOUS
10
58.2613
20
-90.2894
11
55.9502
21
-89.2117
0
LINE
8
BLACK
6
CONTINUOUS
10
55.9502
20
-89.2117
11
57.0068
21
-86.946
0
LINE
8
BLACK
6
CONTINUOUS
10
57.0068
20
-86.946
11
59.3178
21
-88.0236
0
LINE
8
BLACK
6
CONTINUOUS
10
23.2743
20
-87.4712
11
22.2178
21
-89.737
0
LINE
8
BLACK
6
CONTINUOUS
10
22.2178
20
-89.737
11
19.9067
21
-88.6593
0
LINE
8
BLACK
6
CONTINUOUS
10
19.9067
20
-88.6593
11
20.9632
21
-86.3935
0
LINE
8
BLACK
6
CONTINUOUS
10
20.9632
20
-86.3935
11
23.2743
21
-87.4712
0
LINE
8
BLACK
6
CONTINUOUS
10
202.091
20
-87.9458
11
202.166
21
-87.9913
0
LINE
8
BLACK
6
CONTINUOUS
10
202.166
20
-87.9913
11
202.218
21
-88.0621
0
LINE
8
BLACK
6
CONTINUOUS
10
202.218
20
-88.0621
11
202.535
21
-88.7419
0
LINE
8
BLACK
6
CONTINUOUS
10
202.535
20
-88.7419
11
202.556
21
-88.8271
0
LINE
8
BLACK
6
CONTINUOUS
10
202.556
20
-88.8271
11
202.542
21
-88.9139
0
LINE
8
BLACK
6
CONTINUOUS
10
202.542
20
-88.9139
11
202.497
21
-88.989
0
LINE
8
BLACK
6
CONTINUOUS
10
202.497
20
-88.989
11
202.426
21
-89.0409
0
LINE
8
BLACK
6
CONTINUOUS
10
202.426
20
-89.0409
11
202.018
21
-89.2311
0
LINE
8
BLACK
6
CONTINUOUS
10
202.018
20
-89.2311
11
201.933
21
-89.2519
0
LINE
8
BLACK
6
CONTINUOUS
10
201.933
20
-89.2519
11
201.846
21
-89.2386
0
LINE
8
BLACK
6
CONTINUOUS
10
201.846
20
-89.2386
11
201.771
21
-89.193
0
LINE
8
BLACK
6
CONTINUOUS
10
201.771
20
-89.193
11
201.719
21
-89.1222
0
LINE
8
BLACK
6
CONTINUOUS
10
201.719
20
-89.1222
11
201.402
21
-88.4425
0
LINE
8
BLACK
6
CONTINUOUS
10
201.402
20
-88.4425
11
201.381
21
-88.3572
0
LINE
8
BLACK
6
CONTINUOUS
10
201.381
20
-88.3572
11
201.395
21
-88.2704
0
LINE
8
BLACK
6
CONTINUOUS
10
201.395
20
-88.2704
11
201.44
21
-88.1954
0
LINE
8
BLACK
6
CONTINUOUS
10
201.44
20
-88.1954
11
201.511
21
-88.1435
0
LINE
8
BLACK
6
CONTINUOUS
10
201.511
20
-88.1435
11
201.919
21
-87.9533
0
LINE
8
BLACK
6
CONTINUOUS
10
201.919
20
-87.9533
11
202.004
21
-87.9324
0
LINE
8
BLACK
6
CONTINUOUS
10
202.004
20
-87.9324
11
202.091
21
-87.9458
0
LINE
8
BLACK
6
CONTINUOUS
10
219.631
20
-87.9008
11
217.32
21
-88.9785
0
LINE
8
BLACK
6
CONTINUOUS
10
217.32
20
-88.9785
11
216.264
21
-86.7127
0
LINE
8
BLACK
6
CONTINUOUS
10
216.264
20
-86.7127
11
218.575
21
-85.6351
0
LINE
8
BLACK
6
CONTINUOUS
10
218.575
20
-85.6351
11
219.631
21
-87.9008
0
LINE
8
BLACK
6
CONTINUOUS
10
81.6149
20
-87.6475
11
82.0227
21
-87.8377
0
LINE
8
BLACK
6
CONTINUOUS
10
82.0227
20
-87.8377
11
82.0935
21
-87.8896
0
LINE
8
BLACK
6
CONTINUOUS
10
82.0935
20
-87.8896
11
82.139
21
-87.9647
0
LINE
8
BLACK
6
CONTINUOUS
10
82.139
20
-87.9647
11
82.1524
21
-88.0514
0
LINE
8
BLACK
6
CONTINUOUS
10
82.1524
20
-88.0514
11
82.1315
21
-88.1367
0
LINE
8
BLACK
6
CONTINUOUS
10
82.1315
20
-88.1367
11
81.8146
21
-88.8164
0
LINE
8
BLACK
6
CONTINUOUS
10
81.8146
20
-88.8164
11
81.7626
21
-88.8872
0
LINE
8
BLACK
6
CONTINUOUS
10
81.7626
20
-88.8872
11
81.6876
21
-88.9328
0
LINE
8
BLACK
6
CONTINUOUS
10
81.6876
20
-88.9328
11
81.6008
21
-88.9461
0
LINE
8
BLACK
6
CONTINUOUS
10
81.6008
20
-88.9461
11
81.5155
21
-88.9253
0
LINE
8
BLACK
6
CONTINUOUS
10
81.5155
20
-88.9253
11
81.1077
21
-88.7351
0
LINE
8
BLACK
6
CONTINUOUS
10
81.1077
20
-88.7351
11
81.0369
21
-88.6832
0
LINE
8
BLACK
6
CONTINUOUS
10
81.0369
20
-88.6832
11
80.9914
21
-88.6081
0
LINE
8
BLACK
6
CONTINUOUS
10
80.9914
20
-88.6081
11
80.978
21
-88.5214
0
LINE
8
BLACK
6
CONTINUOUS
10
80.978
20
-88.5214
11
80.9989
21
-88.4361
0
LINE
8
BLACK
6
CONTINUOUS
10
80.9989
20
-88.4361
11
81.3158
21
-87.7564
0
LINE
8
BLACK
6
CONTINUOUS
10
81.3158
20
-87.7564
11
81.3678
21
-87.6856
0
LINE
8
BLACK
6
CONTINUOUS
10
81.3678
20
-87.6856
11
81.4428
21
-87.64
0
LINE
8
BLACK
6
CONTINUOUS
10
81.4428
20
-87.64
11
81.5296
21
-87.6267
0
LINE
8
BLACK
6
CONTINUOUS
10
81.5296
20
-87.6267
11
81.6149
21
-87.6475
0
LINE
8
BLACK
6
CONTINUOUS
10
102.006
20
-86.63
11
100.95
21
-88.8958
0
LINE
8
BLACK
6
CONTINUOUS
10
100.95
20
-88.8958
11
98.6388
21
-87.8181
0
LINE
8
BLACK
6
CONTINUOUS
10
98.6388
20
-87.8181
11
99.6953
21
-85.5524
0
LINE
8
BLACK
6
CONTINUOUS
10
99.6953
20
-85.5524
11
102.006
21
-86.63
0
LINE
8
BLACK
6
CONTINUOUS
10
243.755
20
-87.0146
11
243.83
21
-87.0601
0
LINE
8
BLACK
6
CONTINUOUS
10
243.83
20
-87.0601
11
243.882
21
-87.1309
0
LINE
8
BLACK
6
CONTINUOUS
10
243.882
20
-87.1309
11
244.199
21
-87.8106
0
LINE
8
BLACK
6
CONTINUOUS
10
244.199
20
-87.8106
11
244.22
21
-87.8959
0
LINE
8
BLACK
6
CONTINUOUS
10
244.22
20
-87.8959
11
244.207
21
-87.9827
0
LINE
8
BLACK
6
CONTINUOUS
10
244.207
20
-87.9827
11
244.161
21
-88.0577
0
LINE
8
BLACK
6
CONTINUOUS
10
244.161
20
-88.0577
11
244.09
21
-88.1096
0
LINE
8
BLACK
6
CONTINUOUS
10
244.09
20
-88.1096
11
243.682
21
-88.2998
0
LINE
8
BLACK
6
CONTINUOUS
10
243.682
20
-88.2998
11
243.597
21
-88.3207
0
LINE
8
BLACK
6
CONTINUOUS
10
243.597
20
-88.3207
11
243.51
21
-88.3073
0
LINE
8
BLACK
6
CONTINUOUS
10
243.51
20
-88.3073
11
243.435
21
-88.2618
0
LINE
8
BLACK
6
CONTINUOUS
10
243.435
20
-88.2618
11
243.383
21
-88.191
0
LINE
8
BLACK
6
CONTINUOUS
10
243.383
20
-88.191
11
243.066
21
-87.5113
0
LINE
8
BLACK
6
CONTINUOUS
10
243.066
20
-87.5113
11
243.045
21
-87.426
0
LINE
8
BLACK
6
CONTINUOUS
10
243.045
20
-87.426
11
243.059
21
-87.3392
0
LINE
8
BLACK
6
CONTINUOUS
10
243.059
20
-87.3392
11
243.104
21
-87.2642
0
LINE
8
BLACK
6
CONTINUOUS
10
243.104
20
-87.2642
11
243.175
21
-87.2122
0
LINE
8
BLACK
6
CONTINUOUS
10
243.175
20
-87.2122
11
243.583
21
-87.0221
0
LINE
8
BLACK
6
CONTINUOUS
10
243.583
20
-87.0221
11
243.668
21
-87.0012
0
LINE
8
BLACK
6
CONTINUOUS
10
243.668
20
-87.0012
11
243.755
21
-87.0146
0
LINE
8
BLACK
6
CONTINUOUS
10
39.7764
20
-86.9152
11
40.1842
21
-87.1054
0
LINE
8
BLACK
6
CONTINUOUS
10
40.1842
20
-87.1054
11
40.255
21
-87.1573
0
LINE
8
BLACK
6
CONTINUOUS
10
40.255
20
-87.1573
11
40.3006
21
-87.2324
0
LINE
8
BLACK
6
CONTINUOUS
10
40.3006
20
-87.2324
11
40.3139
21
-87.3191
0
LINE
8
BLACK
6
CONTINUOUS
10
40.3139
20
-87.3191
11
40.2931
21
-87.4044
0
LINE
8
BLACK
6
CONTINUOUS
10
40.2931
20
-87.4044
11
39.9761
21
-88.0841
0
LINE
8
BLACK
6
CONTINUOUS
10
39.9761
20
-88.0841
11
39.9242
21
-88.1549
0
LINE
8
BLACK
6
CONTINUOUS
10
39.9242
20
-88.1549
11
39.8491
21
-88.2005
0
LINE
8
BLACK
6
CONTINUOUS
10
39.8491
20
-88.2005
11
39.7624
21
-88.2138
0
LINE
8
BLACK
6
CONTINUOUS
10
39.7624
20
-88.2138
11
39.6771
21
-88.193
0
LINE
8
BLACK
6
CONTINUOUS
10
39.6771
20
-88.193
11
39.2693
21
-88.0028
0
LINE
8
BLACK
6
CONTINUOUS
10
39.2693
20
-88.0028
11
39.1985
21
-87.9509
0
LINE
8
BLACK
6
CONTINUOUS
10
39.1985
20
-87.9509
11
39.1529
21
-87.8758
0
LINE
8
BLACK
6
CONTINUOUS
10
39.1529
20
-87.8758
11
39.1396
21
-87.7891
0
LINE
8
BLACK
6
CONTINUOUS
10
39.1396
20
-87.7891
11
39.1604
21
-87.7038
0
LINE
8
BLACK
6
CONTINUOUS
10
39.1604
20
-87.7038
11
39.4774
21
-87.0241
0
LINE
8
BLACK
6
CONTINUOUS
10
39.4774
20
-87.0241
11
39.5293
21
-86.9533
0
LINE
8
BLACK
6
CONTINUOUS
10
39.5293
20
-86.9533
11
39.6044
21
-86.9077
0
LINE
8
BLACK
6
CONTINUOUS
10
39.6044
20
-86.9077
11
39.6911
21
-86.8944
0
LINE
8
BLACK
6
CONTINUOUS
10
39.6911
20
-86.8944
11
39.7764
21
-86.9152
0
LINE
8
BLACK
6
CONTINUOUS
10
261.295
20
-86.9696
11
258.984
21
-88.0473
0
LINE
8
BLACK
6
CONTINUOUS
10
258.984
20
-88.0473
11
257.928
21
-85.7815
0
LINE
8
BLACK
6
CONTINUOUS
10
257.928
20
-85.7815
11
260.239
21
-84.7038
0
LINE
8
BLACK
6
CONTINUOUS
10
260.239
20
-84.7038
11
261.295
21
-86.9696
0
LINE
8
BLACK
6
CONTINUOUS
10
205.082
20
-86.5512
11
205.157
21
-86.5967
0
LINE
8
BLACK
6
CONTINUOUS
10
205.157
20
-86.5967
11
205.209
21
-86.6675
0
LINE
8
BLACK
6
CONTINUOUS
10
205.209
20
-86.6675
11
205.526
21
-87.3472
0
LINE
8
BLACK
6
CONTINUOUS
10
205.526
20
-87.3472
11
205.547
21
-87.4325
0
LINE
8
BLACK
6
CONTINUOUS
10
205.547
20
-87.4325
11
205.533
21
-87.5193
0
LINE
8
BLACK
6
CONTINUOUS
10
205.533
20
-87.5193
11
205.488
21
-87.5943
0
LINE
8
BLACK
6
CONTINUOUS
10
205.488
20
-87.5943
11
205.417
21
-87.6462
0
LINE
8
BLACK
6
CONTINUOUS
10
205.417
20
-87.6462
11
205.009
21
-87.8364
0
LINE
8
BLACK
6
CONTINUOUS
10
205.009
20
-87.8364
11
204.924
21
-87.8573
0
LINE
8
BLACK
6
CONTINUOUS
10
204.924
20
-87.8573
11
204.837
21
-87.8439
0
LINE
8
BLACK
6
CONTINUOUS
10
204.837
20
-87.8439
11
204.762
21
-87.7984
0
LINE
8
BLACK
6
CONTINUOUS
10
204.762
20
-87.7984
11
204.71
21
-87.7276
0
LINE
8
BLACK
6
CONTINUOUS
10
204.71
20
-87.7276
11
204.393
21
-87.0479
0
LINE
8
BLACK
6
CONTINUOUS
10
204.393
20
-87.0479
11
204.372
21
-86.9626
0
LINE
8
BLACK
6
CONTINUOUS
10
204.372
20
-86.9626
11
204.386
21
-86.8758
0
LINE
8
BLACK
6
CONTINUOUS
10
204.386
20
-86.8758
11
204.431
21
-86.8008
0
LINE
8
BLACK
6
CONTINUOUS
10
204.431
20
-86.8008
11
204.502
21
-86.7488
0
LINE
8
BLACK
6
CONTINUOUS
10
204.502
20
-86.7488
11
204.91
21
-86.5587
0
LINE
8
BLACK
6
CONTINUOUS
10
204.91
20
-86.5587
11
204.995
21
-86.5378
0
LINE
8
BLACK
6
CONTINUOUS
10
204.995
20
-86.5378
11
205.082
21
-86.5512
0
LINE
8
BLACK
6
CONTINUOUS
10
78.624
20
-86.2529
11
79.0319
21
-86.4431
0
LINE
8
BLACK
6
CONTINUOUS
10
79.0319
20
-86.4431
11
79.1027
21
-86.495
0
LINE
8
BLACK
6
CONTINUOUS
10
79.1027
20
-86.495
11
79.1482
21
-86.57
0
LINE
8
BLACK
6
CONTINUOUS
10
79.1482
20
-86.57
11
79.1616
21
-86.6568
0
LINE
8
BLACK
6
CONTINUOUS
10
79.1616
20
-86.6568
11
79.1407
21
-86.7421
0
LINE
8
BLACK
6
CONTINUOUS
10
79.1407
20
-86.7421
11
78.8237
21
-87.4218
0
LINE
8
BLACK
6
CONTINUOUS
10
78.8237
20
-87.4218
11
78.7718
21
-87.4926
0
LINE
8
BLACK
6
CONTINUOUS
10
78.7718
20
-87.4926
11
78.6968
21
-87.5381
0
LINE
8
BLACK
6
CONTINUOUS
10
78.6968
20
-87.5381
11
78.61
21
-87.5515
0
LINE
8
BLACK
6
CONTINUOUS
10
78.61
20
-87.5515
11
78.5247
21
-87.5306
0
LINE
8
BLACK
6
CONTINUOUS
10
78.5247
20
-87.5306
11
78.1169
21
-87.3405
0
LINE
8
BLACK
6
CONTINUOUS
10
78.1169
20
-87.3405
11
78.0461
21
-87.2885
0
LINE
8
BLACK
6
CONTINUOUS
10
78.0461
20
-87.2885
11
78.0006
21
-87.2135
0
LINE
8
BLACK
6
CONTINUOUS
10
78.0006
20
-87.2135
11
77.9872
21
-87.1267
0
LINE
8
BLACK
6
CONTINUOUS
10
77.9872
20
-87.1267
11
78.0081
21
-87.0414
0
LINE
8
BLACK
6
CONTINUOUS
10
78.0081
20
-87.0414
11
78.325
21
-86.3617
0
LINE
8
BLACK
6
CONTINUOUS
10
78.325
20
-86.3617
11
78.3769
21
-86.2909
0
LINE
8
BLACK
6
CONTINUOUS
10
78.3769
20
-86.2909
11
78.452
21
-86.2454
0
LINE
8
BLACK
6
CONTINUOUS
10
78.452
20
-86.2454
11
78.5388
21
-86.232
0
LINE
8
BLACK
6
CONTINUOUS
10
78.5388
20
-86.232
11
78.624
21
-86.2529
0
LINE
8
BLACK
6
CONTINUOUS
10
246.746
20
-85.6199
11
246.821
21
-85.6655
0
LINE
8
BLACK
6
CONTINUOUS
10
246.821
20
-85.6655
11
246.873
21
-85.7363
0
LINE
8
BLACK
6
CONTINUOUS
10
246.873
20
-85.7363
11
247.19
21
-86.416
0
LINE
8
BLACK
6
CONTINUOUS
10
247.19
20
-86.416
11
247.211
21
-86.5013
0
LINE
8
BLACK
6
CONTINUOUS
10
247.211
20
-86.5013
11
247.197
21
-86.588
0
LINE
8
BLACK
6
CONTINUOUS
10
247.197
20
-86.588
11
247.152
21
-86.6631
0
LINE
8
BLACK
6
CONTINUOUS
10
247.152
20
-86.6631
11
247.081
21
-86.715
0
LINE
8
BLACK
6
CONTINUOUS
10
247.081
20
-86.715
11
246.673
21
-86.9052
0
LINE
8
BLACK
6
CONTINUOUS
10
246.673
20
-86.9052
11
246.588
21
-86.926
0
LINE
8
BLACK
6
CONTINUOUS
10
246.588
20
-86.926
11
246.501
21
-86.9127
0
LINE
8
BLACK
6
CONTINUOUS
10
246.501
20
-86.9127
11
246.426
21
-86.8671
0
LINE
8
BLACK
6
CONTINUOUS
10
246.426
20
-86.8671
11
246.374
21
-86.7963
0
LINE
8
BLACK
6
CONTINUOUS
10
246.374
20
-86.7963
11
246.057
21
-86.1166
0
LINE
8
BLACK
6
CONTINUOUS
10
246.057
20
-86.1166
11
246.036
21
-86.0313
0
LINE
8
BLACK
6
CONTINUOUS
10
246.036
20
-86.0313
11
246.05
21
-85.9446
0
LINE
8
BLACK
6
CONTINUOUS
10
246.05
20
-85.9446
11
246.095
21
-85.8695
0
LINE
8
BLACK
6
CONTINUOUS
10
246.095
20
-85.8695
11
246.166
21
-85.8176
0
LINE
8
BLACK
6
CONTINUOUS
10
246.166
20
-85.8176
11
246.574
21
-85.6274
0
LINE
8
BLACK
6
CONTINUOUS
10
246.574
20
-85.6274
11
246.659
21
-85.6066
0
LINE
8
BLACK
6
CONTINUOUS
10
246.659
20
-85.6066
11
246.746
21
-85.6199
0
LINE
8
BLACK
6
CONTINUOUS
10
36.7856
20
-85.5206
11
37.1934
21
-85.7108
0
LINE
8
BLACK
6
CONTINUOUS
10
37.1934
20
-85.7108
11
37.2642
21
-85.7627
0
LINE
8
BLACK
6
CONTINUOUS
10
37.2642
20
-85.7627
11
37.3098
21
-85.8377
0
LINE
8
BLACK
6
CONTINUOUS
10
37.3098
20
-85.8377
11
37.3231
21
-85.9245
0
LINE
8
BLACK
6
CONTINUOUS
10
37.3231
20
-85.9245
11
37.3023
21
-86.0098
0
LINE
8
BLACK
6
CONTINUOUS
10
37.3023
20
-86.0098
11
36.9853
21
-86.6895
0
LINE
8
BLACK
6
CONTINUOUS
10
36.9853
20
-86.6895
11
36.9334
21
-86.7603
0
LINE
8
BLACK
6
CONTINUOUS
10
36.9334
20
-86.7603
11
36.8583
21
-86.8058
0
LINE
8
BLACK
6
CONTINUOUS
10
36.8583
20
-86.8058
11
36.7716
21
-86.8192
0
LINE
8
BLACK
6
CONTINUOUS
10
36.7716
20
-86.8192
11
36.6863
21
-86.7983
0
LINE
8
BLACK
6
CONTINUOUS
10
36.6863
20
-86.7983
11
36.2784
21
-86.6081
0
LINE
8
BLACK
6
CONTINUOUS
10
36.2784
20
-86.6081
11
36.2076
21
-86.5562
0
LINE
8
BLACK
6
CONTINUOUS
10
36.2076
20
-86.5562
11
36.1621
21
-86.4812
0
LINE
8
BLACK
6
CONTINUOUS
10
36.1621
20
-86.4812
11
36.1487
21
-86.3944
0
LINE
8
BLACK
6
CONTINUOUS
10
36.1487
20
-86.3944
11
36.1696
21
-86.3091
0
LINE
8
BLACK
6
CONTINUOUS
10
36.1696
20
-86.3091
11
36.4866
21
-85.6294
0
LINE
8
BLACK
6
CONTINUOUS
10
36.4866
20
-85.6294
11
36.5385
21
-85.5586
0
LINE
8
BLACK
6
CONTINUOUS
10
36.5385
20
-85.5586
11
36.6135
21
-85.5131
0
LINE
8
BLACK
6
CONTINUOUS
10
36.6135
20
-85.5131
11
36.7003
21
-85.4997
0
LINE
8
BLACK
6
CONTINUOUS
10
36.7003
20
-85.4997
11
36.7856
21
-85.5206
0
LINE
8
BLACK
6
CONTINUOUS
10
45.692
20
-84.4724
11
44.6355
21
-86.7382
0
LINE
8
BLACK
6
CONTINUOUS
10
44.6355
20
-86.7382
11
42.3244
21
-85.6605
0
LINE
8
BLACK
6
CONTINUOUS
10
42.3244
20
-85.6605
11
43.3809
21
-83.3947
0
LINE
8
BLACK
6
CONTINUOUS
10
43.3809
20
-83.3947
11
45.692
21
-84.4724
0
LINE
8
BLACK
6
CONTINUOUS
10
161.063
20
-85.2242
11
158.752
21
-86.3019
0
LINE
8
BLACK
6
CONTINUOUS
10
158.752
20
-86.3019
11
157.695
21
-84.0361
0
LINE
8
BLACK
6
CONTINUOUS
10
157.695
20
-84.0361
11
160.006
21
-82.9584
0
LINE
8
BLACK
6
CONTINUOUS
10
160.006
20
-82.9584
11
161.063
21
-85.2242
0
LINE
8
BLACK
6
CONTINUOUS
10
221.442
20
-84.5736
11
221.517
21
-84.6192
0
LINE
8
BLACK
6
CONTINUOUS
10
221.517
20
-84.6192
11
221.569
21
-84.69
0
LINE
8
BLACK
6
CONTINUOUS
10
221.569
20
-84.69
11
221.886
21
-85.3697
0
LINE
8
BLACK
6
CONTINUOUS
10
221.886
20
-85.3697
11
221.907
21
-85.455
0
LINE
8
BLACK
6
CONTINUOUS
10
221.907
20
-85.455
11
221.894
21
-85.5417
0
LINE
8
BLACK
6
CONTINUOUS
10
221.894
20
-85.5417
11
221.848
21
-85.6168
0
LINE
8
BLACK
6
CONTINUOUS
10
221.848
20
-85.6168
11
221.777
21
-85.6687
0
LINE
8
BLACK
6
CONTINUOUS
10
221.777
20
-85.6687
11
221.37
21
-85.8589
0
LINE
8
BLACK
6
CONTINUOUS
10
221.37
20
-85.8589
11
221.284
21
-85.8797
0
LINE
8
BLACK
6
CONTINUOUS
10
221.284
20
-85.8797
11
221.198
21
-85.8664
0
LINE
8
BLACK
6
CONTINUOUS
10
221.198
20
-85.8664
11
221.123
21
-85.8208
0
LINE
8
BLACK
6
CONTINUOUS
10
221.123
20
-85.8208
11
221.071
21
-85.75
0
LINE
8
BLACK
6
CONTINUOUS
10
221.071
20
-85.75
11
220.754
21
-85.0703
0
LINE
8
BLACK
6
CONTINUOUS
10
220.754
20
-85.0703
11
220.733
21
-84.985
0
LINE
8
BLACK
6
CONTINUOUS
10
220.733
20
-84.985
11
220.746
21
-84.8983
0
LINE
8
BLACK
6
CONTINUOUS
10
220.746
20
-84.8983
11
220.792
21
-84.8232
0
LINE
8
BLACK
6
CONTINUOUS
10
220.792
20
-84.8232
11
220.863
21
-84.7713
0
LINE
8
BLACK
6
CONTINUOUS
10
220.863
20
-84.7713
11
221.27
21
-84.5811
0
LINE
8
BLACK
6
CONTINUOUS
10
221.27
20
-84.5811
11
221.356
21
-84.5603
0
LINE
8
BLACK
6
CONTINUOUS
10
221.356
20
-84.5603
11
221.442
21
-84.5736
0
LINE
8
BLACK
6
CONTINUOUS
10
88.3806
20
-83.0788
11
87.324
21
-85.3446
0
LINE
8
BLACK
6
CONTINUOUS
10
87.324
20
-85.3446
11
85.0129
21
-84.2669
0
LINE
8
BLACK
6
CONTINUOUS
10
85.0129
20
-84.2669
11
86.0695
21
-82.0011
0
LINE
8
BLACK
6
CONTINUOUS
10
86.0695
20
-82.0011
11
88.3806
21
-83.0788
0
LINE
8
BLACK
6
CONTINUOUS
10
62.1941
20
-83.9164
11
62.602
21
-84.1066
0
LINE
8
BLACK
6
CONTINUOUS
10
62.602
20
-84.1066
11
62.6728
21
-84.1585
0
LINE
8
BLACK
6
CONTINUOUS
10
62.6728
20
-84.1585
11
62.7183
21
-84.2335
0
LINE
8
BLACK
6
CONTINUOUS
10
62.7183
20
-84.2335
11
62.7317
21
-84.3203
0
LINE
8
BLACK
6
CONTINUOUS
10
62.7317
20
-84.3203
11
62.7108
21
-84.4056
0
LINE
8
BLACK
6
CONTINUOUS
10
62.7108
20
-84.4056
11
62.3938
21
-85.0853
0
LINE
8
BLACK
6
CONTINUOUS
10
62.3938
20
-85.0853
11
62.3419
21
-85.1561
0
LINE
8
BLACK
6
CONTINUOUS
10
62.3419
20
-85.1561
11
62.2669
21
-85.2017
0
LINE
8
BLACK
6
CONTINUOUS
10
62.2669
20
-85.2017
11
62.1801
21
-85.215
0
LINE
8
BLACK
6
CONTINUOUS
10
62.1801
20
-85.215
11
62.0948
21
-85.1941
0
LINE
8
BLACK
6
CONTINUOUS
10
62.0948
20
-85.1941
11
61.687
21
-85.004
0
LINE
8
BLACK
6
CONTINUOUS
10
61.687
20
-85.004
11
61.6162
21
-84.9521
0
LINE
8
BLACK
6
CONTINUOUS
10
61.6162
20
-84.9521
11
61.5706
21
-84.877
0
LINE
8
BLACK
6
CONTINUOUS
10
61.5706
20
-84.877
11
61.5573
21
-84.7902
0
LINE
8
BLACK
6
CONTINUOUS
10
61.5573
20
-84.7902
11
61.5782
21
-84.705
0
LINE
8
BLACK
6
CONTINUOUS
10
61.5782
20
-84.705
11
61.8951
21
-84.0252
0
LINE
8
BLACK
6
CONTINUOUS
10
61.8951
20
-84.0252
11
61.947
21
-83.9544
0
LINE
8
BLACK
6
CONTINUOUS
10
61.947
20
-83.9544
11
62.0221
21
-83.9089
0
LINE
8
BLACK
6
CONTINUOUS
10
62.0221
20
-83.9089
11
62.1089
21
-83.8955
0
LINE
8
BLACK
6
CONTINUOUS
10
62.1089
20
-83.8955
11
62.1941
21
-83.9164
0
LINE
8
BLACK
6
CONTINUOUS
10
238.853
20
-83.9822
11
236.542
21
-85.0599
0
LINE
8
BLACK
6
CONTINUOUS
10
236.542
20
-85.0599
11
235.486
21
-82.7941
0
LINE
8
BLACK
6
CONTINUOUS
10
235.486
20
-82.7941
11
237.797
21
-81.7164
0
LINE
8
BLACK
6
CONTINUOUS
10
237.797
20
-81.7164
11
238.853
21
-83.9822
0
LINE
8
BLACK
6
CONTINUOUS
10
224.433
20
-83.179
11
224.508
21
-83.2245
0
LINE
8
BLACK
6
CONTINUOUS
10
224.508
20
-83.2245
11
224.56
21
-83.2953
0
LINE
8
BLACK
6
CONTINUOUS
10
224.56
20
-83.2953
11
224.877
21
-83.975
0
LINE
8
BLACK
6
CONTINUOUS
10
224.877
20
-83.975
11
224.898
21
-84.0603
0
LINE
8
BLACK
6
CONTINUOUS
10
224.898
20
-84.0603
11
224.885
21
-84.1471
0
LINE
8
BLACK
6
CONTINUOUS
10
224.885
20
-84.1471
11
224.839
21
-84.2221
0
LINE
8
BLACK
6
CONTINUOUS
10
224.839
20
-84.2221
11
224.768
21
-84.2741
0
LINE
8
BLACK
6
CONTINUOUS
10
224.768
20
-84.2741
11
224.36
21
-84.4642
0
LINE
8
BLACK
6
CONTINUOUS
10
224.36
20
-84.4642
11
224.275
21
-84.4851
0
LINE
8
BLACK
6
CONTINUOUS
10
224.275
20
-84.4851
11
224.188
21
-84.4717
0
LINE
8
BLACK
6
CONTINUOUS
10
224.188
20
-84.4717
11
224.113
21
-84.4262
0
LINE
8
BLACK
6
CONTINUOUS
10
224.113
20
-84.4262
11
224.061
21
-84.3554
0
LINE
8
BLACK
6
CONTINUOUS
10
224.061
20
-84.3554
11
223.744
21
-83.6757
0
LINE
8
BLACK
6
CONTINUOUS
10
223.744
20
-83.6757
11
223.724
21
-83.5904
0
LINE
8
BLACK
6
CONTINUOUS
10
223.724
20
-83.5904
11
223.737
21
-83.5036
0
LINE
8
BLACK
6
CONTINUOUS
10
223.737
20
-83.5036
11
223.783
21
-83.4286
0
LINE
8
BLACK
6
CONTINUOUS
10
223.783
20
-83.4286
11
223.853
21
-83.3767
0
LINE
8
BLACK
6
CONTINUOUS
10
223.853
20
-83.3767
11
224.261
21
-83.1865
0
LINE
8
BLACK
6
CONTINUOUS
10
224.261
20
-83.1865
11
224.346
21
-83.1656
0
LINE
8
BLACK
6
CONTINUOUS
10
224.346
20
-83.1656
11
224.433
21
-83.179
0
LINE
8
BLACK
6
CONTINUOUS
10
178.707
20
-82.8751
11
178.782
21
-82.9207
0
LINE
8
BLACK
6
CONTINUOUS
10
178.782
20
-82.9207
11
178.834
21
-82.9915
0
LINE
8
BLACK
6
CONTINUOUS
10
178.834
20
-82.9915
11
179.151
21
-83.6712
0
LINE
8
BLACK
6
CONTINUOUS
10
179.151
20
-83.6712
11
179.172
21
-83.7565
0
LINE
8
BLACK
6
CONTINUOUS
10
179.172
20
-83.7565
11
179.159
21
-83.8433
0
LINE
8
BLACK
6
CONTINUOUS
10
179.159
20
-83.8433
11
179.113
21
-83.9183
0
LINE
8
BLACK
6
CONTINUOUS
10
179.113
20
-83.9183
11
179.042
21
-83.9702
0
LINE
8
BLACK
6
CONTINUOUS
10
179.042
20
-83.9702
11
178.634
21
-84.1604
0
LINE
8
BLACK
6
CONTINUOUS
10
178.634
20
-84.1604
11
178.549
21
-84.1813
0
LINE
8
BLACK
6
CONTINUOUS
10
178.549
20
-84.1813
11
178.462
21
-84.1679
0
LINE
8
BLACK
6
CONTINUOUS
10
178.462
20
-84.1679
11
178.387
21
-84.1224
0
LINE
8
BLACK
6
CONTINUOUS
10
178.387
20
-84.1224
11
178.335
21
-84.0516
0
LINE
8
BLACK
6
CONTINUOUS
10
178.335
20
-84.0516
11
178.018
21
-83.3718
0
LINE
8
BLACK
6
CONTINUOUS
10
178.018
20
-83.3718
11
177.998
21
-83.2866
0
LINE
8
BLACK
6
CONTINUOUS
10
177.998
20
-83.2866
11
178.011
21
-83.1998
0
LINE
8
BLACK
6
CONTINUOUS
10
178.011
20
-83.1998
11
178.057
21
-83.1247
0
LINE
8
BLACK
6
CONTINUOUS
10
178.057
20
-83.1247
11
178.127
21
-83.0728
0
LINE
8
BLACK
6
CONTINUOUS
10
178.127
20
-83.0728
11
178.535
21
-82.8827
0
LINE
8
BLACK
6
CONTINUOUS
10
178.535
20
-82.8827
11
178.62
21
-82.8618
0
LINE
8
BLACK
6
CONTINUOUS
10
178.62
20
-82.8618
11
178.707
21
-82.8751
0
LINE
8
BLACK
6
CONTINUOUS
10
196.247
20
-82.8302
11
193.936
21
-83.9079
0
LINE
8
BLACK
6
CONTINUOUS
10
193.936
20
-83.9079
11
192.88
21
-81.6421
0
LINE
8
BLACK
6
CONTINUOUS
10
192.88
20
-81.6421
11
195.191
21
-80.5644
0
LINE
8
BLACK
6
CONTINUOUS
10
195.191
20
-80.5644
11
196.247
21
-82.8302
0
LINE
8
BLACK
6
CONTINUOUS
10
104.999
20
-82.5769
11
105.407
21
-82.7671
0
LINE
8
BLACK
6
CONTINUOUS
10
105.407
20
-82.7671
11
105.477
21
-82.819
0
LINE
8
BLACK
6
CONTINUOUS
10
105.477
20
-82.819
11
105.523
21
-82.894
0
LINE
8
BLACK
6
CONTINUOUS
10
105.523
20
-82.894
11
105.536
21
-82.9808
0
LINE
8
BLACK
6
CONTINUOUS
10
105.536
20
-82.9808
11
105.515
21
-83.0661
0
LINE
8
BLACK
6
CONTINUOUS
10
105.515
20
-83.0661
11
105.198
21
-83.7458
0
LINE
8
BLACK
6
CONTINUOUS
10
105.198
20
-83.7458
11
105.146
21
-83.8166
0
LINE
8
BLACK
6
CONTINUOUS
10
105.146
20
-83.8166
11
105.071
21
-83.8621
0
LINE
8
BLACK
6
CONTINUOUS
10
105.071
20
-83.8621
11
104.985
21
-83.8755
0
LINE
8
BLACK
6
CONTINUOUS
10
104.985
20
-83.8755
11
104.899
21
-83.8546
0
LINE
8
BLACK
6
CONTINUOUS
10
104.899
20
-83.8546
11
104.492
21
-83.6644
0
LINE
8
BLACK
6
CONTINUOUS
10
104.492
20
-83.6644
11
104.421
21
-83.6125
0
LINE
8
BLACK
6
CONTINUOUS
10
104.421
20
-83.6125
11
104.375
21
-83.5375
0
LINE
8
BLACK
6
CONTINUOUS
10
104.375
20
-83.5375
11
104.362
21
-83.4507
0
LINE
8
BLACK
6
CONTINUOUS
10
104.362
20
-83.4507
11
104.383
21
-83.3654
0
LINE
8
BLACK
6
CONTINUOUS
10
104.383
20
-83.3654
11
104.7
21
-82.6857
0
LINE
8
BLACK
6
CONTINUOUS
10
104.7
20
-82.6857
11
104.752
21
-82.6149
0
LINE
8
BLACK
6
CONTINUOUS
10
104.752
20
-82.6149
11
104.827
21
-82.5694
0
LINE
8
BLACK
6
CONTINUOUS
10
104.827
20
-82.5694
11
104.913
21
-82.556
0
LINE
8
BLACK
6
CONTINUOUS
10
104.913
20
-82.556
11
104.999
21
-82.5769
0
LINE
8
BLACK
6
CONTINUOUS
10
59.2033
20
-82.5218
11
59.6111
21
-82.7119
0
LINE
8
BLACK
6
CONTINUOUS
10
59.6111
20
-82.7119
11
59.6819
21
-82.7638
0
LINE
8
BLACK
6
CONTINUOUS
10
59.6819
20
-82.7638
11
59.7275
21
-82.8389
0
LINE
8
BLACK
6
CONTINUOUS
10
59.7275
20
-82.8389
11
59.7408
21
-82.9257
0
LINE
8
BLACK
6
CONTINUOUS
10
59.7408
20
-82.9257
11
59.72
21
-83.0109
0
LINE
8
BLACK
6
CONTINUOUS
10
59.72
20
-83.0109
11
59.403
21
-83.6907
0
LINE
8
BLACK
6
CONTINUOUS
10
59.403
20
-83.6907
11
59.3511
21
-83.7615
0
LINE
8
BLACK
6
CONTINUOUS
10
59.3511
20
-83.7615
11
59.2761
21
-83.807
0
LINE
8
BLACK
6
CONTINUOUS
10
59.2761
20
-83.807
11
59.1893
21
-83.8204
0
LINE
8
BLACK
6
CONTINUOUS
10
59.1893
20
-83.8204
11
59.104
21
-83.7995
0
LINE
8
BLACK
6
CONTINUOUS
10
59.104
20
-83.7995
11
58.6962
21
-83.6093
0
LINE
8
BLACK
6
CONTINUOUS
10
58.6962
20
-83.6093
11
58.6254
21
-83.5574
0
LINE
8
BLACK
6
CONTINUOUS
10
58.6254
20
-83.5574
11
58.5798
21
-83.4824
0
LINE
8
BLACK
6
CONTINUOUS
10
58.5798
20
-83.4824
11
58.5665
21
-83.3956
0
LINE
8
BLACK
6
CONTINUOUS
10
58.5665
20
-83.3956
11
58.5873
21
-83.3103
0
LINE
8
BLACK
6
CONTINUOUS
10
58.5873
20
-83.3103
11
58.9043
21
-82.6306
0
LINE
8
BLACK
6
CONTINUOUS
10
58.9043
20
-82.6306
11
58.9562
21
-82.5598
0
LINE
8
BLACK
6
CONTINUOUS
10
58.9562
20
-82.5598
11
59.0313
21
-82.5142
0
LINE
8
BLACK
6
CONTINUOUS
10
59.0313
20
-82.5142
11
59.118
21
-82.5009
0
LINE
8
BLACK
6
CONTINUOUS
10
59.118
20
-82.5009
11
59.2033
21
-82.5218
0
LINE
8
BLACK
6
CONTINUOUS
10
125.712
20
-80.8688
11
124.656
21
-83.1345
0
LINE
8
BLACK
6
CONTINUOUS
10
124.656
20
-83.1345
11
122.345
21
-82.0569
0
LINE
8
BLACK
6
CONTINUOUS
10
122.345
20
-82.0569
11
123.401
21
-79.7911
0
LINE
8
BLACK
6
CONTINUOUS
10
123.401
20
-79.7911
11
125.712
21
-80.8688
0
LINE
8
BLACK
6
CONTINUOUS
10
181.698
20
-81.4805
11
181.773
21
-81.526
0
LINE
8
BLACK
6
CONTINUOUS
10
181.773
20
-81.526
11
181.825
21
-81.5968
0
LINE
8
BLACK
6
CONTINUOUS
10
181.825
20
-81.5968
11
182.142
21
-82.2766
0
LINE
8
BLACK
6
CONTINUOUS
10
182.142
20
-82.2766
11
182.163
21
-82.3619
0
LINE
8
BLACK
6
CONTINUOUS
10
182.163
20
-82.3619
11
182.149
21
-82.4486
0
LINE
8
BLACK
6
CONTINUOUS
10
182.149
20
-82.4486
11
182.104
21
-82.5237
0
LINE
8
BLACK
6
CONTINUOUS
10
182.104
20
-82.5237
11
182.033
21
-82.5756
0
LINE
8
BLACK
6
CONTINUOUS
10
182.033
20
-82.5756
11
181.625
21
-82.7658
0
LINE
8
BLACK
6
CONTINUOUS
10
181.625
20
-82.7658
11
181.54
21
-82.7866
0
LINE
8
BLACK
6
CONTINUOUS
10
181.54
20
-82.7866
11
181.453
21
-82.7733
0
LINE
8
BLACK
6
CONTINUOUS
10
181.453
20
-82.7733
11
181.378
21
-82.7277
0
LINE
8
BLACK
6
CONTINUOUS
10
181.378
20
-82.7277
11
181.326
21
-82.6569
0
LINE
8
BLACK
6
CONTINUOUS
10
181.326
20
-82.6569
11
181.009
21
-81.9772
0
LINE
8
BLACK
6
CONTINUOUS
10
181.009
20
-81.9772
11
180.988
21
-81.8919
0
LINE
8
BLACK
6
CONTINUOUS
10
180.988
20
-81.8919
11
181.002
21
-81.8052
0
LINE
8
BLACK
6
CONTINUOUS
10
181.002
20
-81.8052
11
181.047
21
-81.7301
0
LINE
8
BLACK
6
CONTINUOUS
10
181.047
20
-81.7301
11
181.118
21
-81.6782
0
LINE
8
BLACK
6
CONTINUOUS
10
181.118
20
-81.6782
11
181.526
21
-81.488
0
LINE
8
BLACK
6
CONTINUOUS
10
181.526
20
-81.488
11
181.611
21
-81.4672
0
LINE
8
BLACK
6
CONTINUOUS
10
181.611
20
-81.4672
11
181.698
21
-81.4805
0
LINE
8
BLACK
6
CONTINUOUS
10
102.008
20
-81.1822
11
102.416
21
-81.3724
0
LINE
8
BLACK
6
CONTINUOUS
10
102.416
20
-81.3724
11
102.487
21
-81.4243
0
LINE
8
BLACK
6
CONTINUOUS
10
102.487
20
-81.4243
11
102.532
21
-81.4994
0
LINE
8
BLACK
6
CONTINUOUS
10
102.532
20
-81.4994
11
102.545
21
-81.5861
0
LINE
8
BLACK
6
CONTINUOUS
10
102.545
20
-81.5861
11
102.525
21
-81.6714
0
LINE
8
BLACK
6
CONTINUOUS
10
102.525
20
-81.6714
11
102.208
21
-82.3512
0
LINE
8
BLACK
6
CONTINUOUS
10
102.208
20
-82.3512
11
102.156
21
-82.422
0
LINE
8
BLACK
6
CONTINUOUS
10
102.156
20
-82.422
11
102.081
21
-82.4675
0
LINE
8
BLACK
6
CONTINUOUS
10
102.081
20
-82.4675
11
101.994
21
-82.4809
0
LINE
8
BLACK
6
CONTINUOUS
10
101.994
20
-82.4809
11
101.909
21
-82.46
0
LINE
8
BLACK
6
CONTINUOUS
10
101.909
20
-82.46
11
101.501
21
-82.2698
0
LINE
8
BLACK
6
CONTINUOUS
10
101.501
20
-82.2698
11
101.43
21
-82.2179
0
LINE
8
BLACK
6
CONTINUOUS
10
101.43
20
-82.2179
11
101.384
21
-82.1428
0
LINE
8
BLACK
6
CONTINUOUS
10
101.384
20
-82.1428
11
101.371
21
-82.0561
0
LINE
8
BLACK
6
CONTINUOUS
10
101.371
20
-82.0561
11
101.392
21
-81.9708
0
LINE
8
BLACK
6
CONTINUOUS
10
101.392
20
-81.9708
11
101.709
21
-81.2911
0
LINE
8
BLACK
6
CONTINUOUS
10
101.709
20
-81.2911
11
101.761
21
-81.2203
0
LINE
8
BLACK
6
CONTINUOUS
10
101.761
20
-81.2203
11
101.836
21
-81.1747
0
LINE
8
BLACK
6
CONTINUOUS
10
101.836
20
-81.1747
11
101.923
21
-81.1614
0
LINE
8
BLACK
6
CONTINUOUS
10
101.923
20
-81.1614
11
102.008
21
-81.1822
0
LINE
8
BLACK
6
CONTINUOUS
10
153.353
20
-81.2243
11
153.396
21
-81.2535
0
LINE
8
BLACK
6
CONTINUOUS
10
153.396
20
-81.2535
11
153.426
21
-81.2973
0
LINE
8
BLACK
6
CONTINUOUS
10
153.426
20
-81.2973
11
153.436
21
-81.349
0
LINE
8
BLACK
6
CONTINUOUS
10
153.436
20
-81.349
11
153.436
21
-81.719
0
LINE
8
BLACK
6
CONTINUOUS
10
153.436
20
-81.719
11
153.426
21
-81.7707
0
LINE
8
BLACK
6
CONTINUOUS
10
153.426
20
-81.7707
11
153.396
21
-81.8145
0
LINE
8
BLACK
6
CONTINUOUS
10
153.396
20
-81.8145
11
153.353
21
-81.8437
0
LINE
8
BLACK
6
CONTINUOUS
10
153.353
20
-81.8437
11
153.301
21
-81.854
0
LINE
8
BLACK
6
CONTINUOUS
10
153.301
20
-81.854
11
153.031
21
-81.854
0
LINE
8
BLACK
6
CONTINUOUS
10
153.031
20
-81.854
11
152.979
21
-81.8437
0
LINE
8
BLACK
6
CONTINUOUS
10
152.979
20
-81.8437
11
152.936
21
-81.8145
0
LINE
8
BLACK
6
CONTINUOUS
10
152.936
20
-81.8145
11
152.906
21
-81.7707
0
LINE
8
BLACK
6
CONTINUOUS
10
152.906
20
-81.7707
11
152.896
21
-81.719
0
LINE
8
BLACK
6
CONTINUOUS
10
152.896
20
-81.719
11
152.896
21
-81.349
0
LINE
8
BLACK
6
CONTINUOUS
10
152.896
20
-81.349
11
152.906
21
-81.2973
0
LINE
8
BLACK
6
CONTINUOUS
10
152.906
20
-81.2973
11
152.936
21
-81.2535
0
LINE
8
BLACK
6
CONTINUOUS
10
152.936
20
-81.2535
11
152.979
21
-81.2243
0
LINE
8
BLACK
6
CONTINUOUS
10
152.979
20
-81.2243
11
153.031
21
-81.214
0
LINE
8
BLACK
6
CONTINUOUS
10
153.031
20
-81.214
11
153.301
21
-81.214
0
LINE
8
BLACK
6
CONTINUOUS
10
153.301
20
-81.214
11
153.353
21
-81.2243
0
LINE
8
BLACK
6
CONTINUOUS
10
152.333
20
-81.2243
11
152.376
21
-81.2535
0
LINE
8
BLACK
6
CONTINUOUS
10
152.376
20
-81.2535
11
152.406
21
-81.2973
0
LINE
8
BLACK
6
CONTINUOUS
10
152.406
20
-81.2973
11
152.416
21
-81.349
0
LINE
8
BLACK
6
CONTINUOUS
10
152.416
20
-81.349
11
152.416
21
-81.719
0
LINE
8
BLACK
6
CONTINUOUS
10
152.416
20
-81.719
11
152.406
21
-81.7707
0
LINE
8
BLACK
6
CONTINUOUS
10
152.406
20
-81.7707
11
152.376
21
-81.8145
0
LINE
8
BLACK
6
CONTINUOUS
10
152.376
20
-81.8145
11
152.333
21
-81.8437
0
LINE
8
BLACK
6
CONTINUOUS
10
152.333
20
-81.8437
11
152.281
21
-81.854
0
LINE
8
BLACK
6
CONTINUOUS
10
152.281
20
-81.854
11
152.011
21
-81.854
0
LINE
8
BLACK
6
CONTINUOUS
10
152.011
20
-81.854
11
151.959
21
-81.8437
0
LINE
8
BLACK
6
CONTINUOUS
10
151.959
20
-81.8437
11
151.916
21
-81.8145
0
LINE
8
BLACK
6
CONTINUOUS
10
151.916
20
-81.8145
11
151.886
21
-81.7707
0
LINE
8
BLACK
6
CONTINUOUS
10
151.886
20
-81.7707
11
151.876
21
-81.719
0
LINE
8
BLACK
6
CONTINUOUS
10
151.876
20
-81.719
11
151.876
21
-81.349
0
LINE
8
BLACK
6
CONTINUOUS
10
151.876
20
-81.349
11
151.886
21
-81.2973
0
LINE
8
BLACK
6
CONTINUOUS
10
151.886
20
-81.2973
11
151.916
21
-81.2535
0
LINE
8
BLACK
6
CONTINUOUS
10
151.916
20
-81.2535
11
151.959
21
-81.2243
0
LINE
8
BLACK
6
CONTINUOUS
10
151.959
20
-81.2243
11
152.011
21
-81.214
0
LINE
8
BLACK
6
CONTINUOUS
10
152.011
20
-81.214
11
152.281
21
-81.214
0
LINE
8
BLACK
6
CONTINUOUS
10
152.281
20
-81.214
11
152.333
21
-81.2243
0
LINE
8
BLACK
6
CONTINUOUS
10
153.562
20
-80.394
11
152.762
21
-80.394
0
LINE
8
BLACK
6
CONTINUOUS
10
152.762
20
-80.394
11
152.762
21
-79.994
0
LINE
8
BLACK
6
CONTINUOUS
10
152.762
20
-79.994
11
153.562
21
-79.994
0
LINE
8
BLACK
6
CONTINUOUS
10
153.562
20
-79.994
11
153.562
21
-80.394
0
LINE
8
BLACK
6
CONTINUOUS
10
200.102
20
-78.791
11
197.79
21
-79.8686
0
LINE
8
BLACK
6
CONTINUOUS
10
197.79
20
-79.8686
11
196.734
21
-77.6029
0
LINE
8
BLACK
6
CONTINUOUS
10
196.734
20
-77.6029
11
199.045
21
-76.5252
0
LINE
8
BLACK
6
CONTINUOUS
10
199.045
20
-76.5252
11
200.102
21
-78.791
0
LINE
8
BLACK
6
CONTINUOUS
10
112.086
20
-77.3175
11
111.03
21
-79.5833
0
LINE
8
BLACK
6
CONTINUOUS
10
111.03
20
-79.5833
11
108.719
21
-78.5056
0
LINE
8
BLACK
6
CONTINUOUS
10
108.719
20
-78.5056
11
109.775
21
-76.2399
0
LINE
8
BLACK
6
CONTINUOUS
10
109.775
20
-76.2399
11
112.086
21
-77.3175
0
LINE
8
BLACK
6
CONTINUOUS
10
153.562
20
-79.194
11
152.762
21
-79.194
0
LINE
8
BLACK
6
CONTINUOUS
10
152.762
20
-79.194
11
152.762
21
-78.794
0
LINE
8
BLACK
6
CONTINUOUS
10
152.762
20
-78.794
11
153.562
21
-78.794
0
LINE
8
BLACK
6
CONTINUOUS
10
153.562
20
-78.794
11
153.562
21
-79.194
0
LINE
8
BLACK
6
CONTINUOUS
10
241.766
20
-77.8597
11
239.454
21
-78.9374
0
LINE
8
BLACK
6
CONTINUOUS
10
239.454
20
-78.9374
11
238.398
21
-76.6716
0
LINE
8
BLACK
6
CONTINUOUS
10
238.398
20
-76.6716
11
240.709
21
-75.594
0
LINE
8
BLACK
6
CONTINUOUS
10
240.709
20
-75.594
11
241.766
21
-77.8597
0
LINE
8
BLACK
6
CONTINUOUS
10
172.542
20
-77.0689
11
170.231
21
-78.1466
0
LINE
8
BLACK
6
CONTINUOUS
10
170.231
20
-78.1466
11
169.174
21
-75.8808
0
LINE
8
BLACK
6
CONTINUOUS
10
169.174
20
-75.8808
11
171.485
21
-74.8032
0
LINE
8
BLACK
6
CONTINUOUS
10
171.485
20
-74.8032
11
172.542
21
-77.0689
0
LINE
8
BLACK
6
CONTINUOUS
10
86.649
20
-74.4241
11
85.5924
21
-76.6899
0
LINE
8
BLACK
6
CONTINUOUS
10
85.5924
20
-76.6899
11
83.2813
21
-75.6122
0
LINE
8
BLACK
6
CONTINUOUS
10
83.2813
20
-75.6122
11
84.3379
21
-73.3464
0
LINE
8
BLACK
6
CONTINUOUS
10
84.3379
20
-73.3464
11
86.649
21
-74.4241
0
LINE
8
BLACK
6
CONTINUOUS
10
44.951
20
-73.7573
11
43.8945
21
-76.0231
0
LINE
8
BLACK
6
CONTINUOUS
10
43.8945
20
-76.0231
11
41.5834
21
-74.9454
0
LINE
8
BLACK
6
CONTINUOUS
10
41.5834
20
-74.9454
11
42.6399
21
-72.6796
0
LINE
8
BLACK
6
CONTINUOUS
10
42.6399
20
-72.6796
11
44.951
21
-73.7573
0
LINE
8
BLACK
6
CONTINUOUS
10
219.348
20
-74.8609
11
217.037
21
-75.9386
0
LINE
8
BLACK
6
CONTINUOUS
10
217.037
20
-75.9386
11
215.98
21
-73.6728
0
LINE
8
BLACK
6
CONTINUOUS
10
215.98
20
-73.6728
11
218.291
21
-72.5951
0
LINE
8
BLACK
6
CONTINUOUS
10
218.291
20
-72.5951
11
219.348
21
-74.8609
0
LINE
8
BLACK
6
CONTINUOUS
10
176.718
20
-73.7203
11
174.407
21
-74.798
0
LINE
8
BLACK
6
CONTINUOUS
10
174.407
20
-74.798
11
173.35
21
-72.5322
0
LINE
8
BLACK
6
CONTINUOUS
10
173.35
20
-72.5322
11
175.661
21
-71.4545
0
LINE
8
BLACK
6
CONTINUOUS
10
175.661
20
-71.4545
11
176.718
21
-73.7203
0
LINE
8
BLACK
6
CONTINUOUS
10
73.0232
20
-70.8729
11
71.9666
21
-73.1386
0
LINE
8
BLACK
6
CONTINUOUS
10
71.9666
20
-73.1386
11
69.6555
21
-72.061
0
LINE
8
BLACK
6
CONTINUOUS
10
69.6555
20
-72.061
11
70.7121
21
-69.7952
0
LINE
8
BLACK
6
CONTINUOUS
10
70.7121
20
-69.7952
11
73.0232
21
-70.8729
0
LINE
8
BLACK
6
CONTINUOUS
10
67.3687
20
-70.7585
11
66.3122
21
-73.0242
0
LINE
8
BLACK
6
CONTINUOUS
10
66.3122
20
-73.0242
11
64.0011
21
-71.9466
0
LINE
8
BLACK
6
CONTINUOUS
10
64.0011
20
-71.9466
11
65.0576
21
-69.6808
0
LINE
8
BLACK
6
CONTINUOUS
10
65.0576
20
-69.6808
11
67.3687
21
-70.7585
0
LINE
8
BLACK
6
CONTINUOUS
10
31.3252
20
-70.2061
11
30.2686
21
-72.4718
0
LINE
8
BLACK
6
CONTINUOUS
10
30.2686
20
-72.4718
11
27.9576
21
-71.3942
0
LINE
8
BLACK
6
CONTINUOUS
10
27.9576
20
-71.3942
11
29.0141
21
-69.1284
0
LINE
8
BLACK
6
CONTINUOUS
10
29.0141
20
-69.1284
11
31.3252
21
-70.2061
0
LINE
8
BLACK
6
CONTINUOUS
10
193.926
20
-70.7339
11
194.001
21
-70.7794
0
LINE
8
BLACK
6
CONTINUOUS
10
194.001
20
-70.7794
11
194.053
21
-70.8502
0
LINE
8
BLACK
6
CONTINUOUS
10
194.053
20
-70.8502
11
194.37
21
-71.53
0
LINE
8
BLACK
6
CONTINUOUS
10
194.37
20
-71.53
11
194.391
21
-71.6152
0
LINE
8
BLACK
6
CONTINUOUS
10
194.391
20
-71.6152
11
194.377
21
-71.702
0
LINE
8
BLACK
6
CONTINUOUS
10
194.377
20
-71.702
11
194.332
21
-71.777
0
LINE
8
BLACK
6
CONTINUOUS
10
194.332
20
-71.777
11
194.261
21
-71.829
0
LINE
8
BLACK
6
CONTINUOUS
10
194.261
20
-71.829
11
193.853
21
-72.0191
0
LINE
8
BLACK
6
CONTINUOUS
10
193.853
20
-72.0191
11
193.768
21
-72.04
0
LINE
8
BLACK
6
CONTINUOUS
10
193.768
20
-72.04
11
193.681
21
-72.0267
0
LINE
8
BLACK
6
CONTINUOUS
10
193.681
20
-72.0267
11
193.606
21
-71.9811
0
LINE
8
BLACK
6
CONTINUOUS
10
193.606
20
-71.9811
11
193.554
21
-71.9103
0
LINE
8
BLACK
6
CONTINUOUS
10
193.554
20
-71.9103
11
193.237
21
-71.2306
0
LINE
8
BLACK
6
CONTINUOUS
10
193.237
20
-71.2306
11
193.216
21
-71.1453
0
LINE
8
BLACK
6
CONTINUOUS
10
193.216
20
-71.1453
11
193.23
21
-71.0585
0
LINE
8
BLACK
6
CONTINUOUS
10
193.23
20
-71.0585
11
193.275
21
-70.9835
0
LINE
8
BLACK
6
CONTINUOUS
10
193.275
20
-70.9835
11
193.346
21
-70.9316
0
LINE
8
BLACK
6
CONTINUOUS
10
193.346
20
-70.9316
11
193.754
21
-70.7414
0
LINE
8
BLACK
6
CONTINUOUS
10
193.754
20
-70.7414
11
193.839
21
-70.7205
0
LINE
8
BLACK
6
CONTINUOUS
10
193.839
20
-70.7205
11
193.926
21
-70.7339
0
LINE
8
BLACK
6
CONTINUOUS
10
211.58
20
-70.6357
11
209.269
21
-71.7133
0
LINE
8
BLACK
6
CONTINUOUS
10
209.269
20
-71.7133
11
208.213
21
-69.4476
0
LINE
8
BLACK
6
CONTINUOUS
10
208.213
20
-69.4476
11
210.524
21
-68.3699
0
LINE
8
BLACK
6
CONTINUOUS
10
210.524
20
-68.3699
11
211.58
21
-70.6357
0
LINE
8
BLACK
6
CONTINUOUS
10
110.057
20
-69.3649
11
109.001
21
-71.6306
0
LINE
8
BLACK
6
CONTINUOUS
10
109.001
20
-71.6306
11
106.69
21
-70.553
0
LINE
8
BLACK
6
CONTINUOUS
10
106.69
20
-70.553
11
107.746
21
-68.2872
0
LINE
8
BLACK
6
CONTINUOUS
10
107.746
20
-68.2872
11
110.057
21
-69.3649
0
LINE
8
BLACK
6
CONTINUOUS
10
89.5497
20
-70.3283
11
89.9576
21
-70.5184
0
LINE
8
BLACK
6
CONTINUOUS
10
89.9576
20
-70.5184
11
90.0284
21
-70.5704
0
LINE
8
BLACK
6
CONTINUOUS
10
90.0284
20
-70.5704
11
90.0739
21
-70.6454
0
LINE
8
BLACK
6
CONTINUOUS
10
90.0739
20
-70.6454
11
90.0873
21
-70.7322
0
LINE
8
BLACK
6
CONTINUOUS
10
90.0873
20
-70.7322
11
90.0664
21
-70.8175
0
LINE
8
BLACK
6
CONTINUOUS
10
90.0664
20
-70.8175
11
89.7494
21
-71.4972
0
LINE
8
BLACK
6
CONTINUOUS
10
89.7494
20
-71.4972
11
89.6975
21
-71.568
0
LINE
8
BLACK
6
CONTINUOUS
10
89.6975
20
-71.568
11
89.6225
21
-71.6135
0
LINE
8
BLACK
6
CONTINUOUS
10
89.6225
20
-71.6135
11
89.5357
21
-71.6269
0
LINE
8
BLACK
6
CONTINUOUS
10
89.5357
20
-71.6269
11
89.4504
21
-71.606
0
LINE
8
BLACK
6
CONTINUOUS
10
89.4504
20
-71.606
11
89.0426
21
-71.4158
0
LINE
8
BLACK
6
CONTINUOUS
10
89.0426
20
-71.4158
11
88.9718
21
-71.3639
0
LINE
8
BLACK
6
CONTINUOUS
10
88.9718
20
-71.3639
11
88.9262
21
-71.2889
0
LINE
8
BLACK
6
CONTINUOUS
10
88.9262
20
-71.2889
11
88.9129
21
-71.2021
0
LINE
8
BLACK
6
CONTINUOUS
10
88.9129
20
-71.2021
11
88.9338
21
-71.1168
0
LINE
8
BLACK
6
CONTINUOUS
10
88.9338
20
-71.1168
11
89.2507
21
-70.4371
0
LINE
8
BLACK
6
CONTINUOUS
10
89.2507
20
-70.4371
11
89.3026
21
-70.3663
0
LINE
8
BLACK
6
CONTINUOUS
10
89.3026
20
-70.3663
11
89.3777
21
-70.3208
0
LINE
8
BLACK
6
CONTINUOUS
10
89.3777
20
-70.3208
11
89.4644
21
-70.3074
0
LINE
8
BLACK
6
CONTINUOUS
10
89.4644
20
-70.3074
11
89.5497
21
-70.3283
0
LINE
8
BLACK
6
CONTINUOUS
10
235.59
20
-69.8026
11
235.665
21
-69.8482
0
LINE
8
BLACK
6
CONTINUOUS
10
235.665
20
-69.8482
11
235.717
21
-69.919
0
LINE
8
BLACK
6
CONTINUOUS
10
235.717
20
-69.919
11
236.034
21
-70.5987
0
LINE
8
BLACK
6
CONTINUOUS
10
236.034
20
-70.5987
11
236.055
21
-70.684
0
LINE
8
BLACK
6
CONTINUOUS
10
236.055
20
-70.684
11
236.041
21
-70.7708
0
LINE
8
BLACK
6
CONTINUOUS
10
236.041
20
-70.7708
11
235.996
21
-70.8458
0
LINE
8
BLACK
6
CONTINUOUS
10
235.996
20
-70.8458
11
235.925
21
-70.8977
0
LINE
8
BLACK
6
CONTINUOUS
10
235.925
20
-70.8977
11
235.517
21
-71.0879
0
LINE
8
BLACK
6
CONTINUOUS
10
235.517
20
-71.0879
11
235.432
21
-71.1088
0
LINE
8
BLACK
6
CONTINUOUS
10
235.432
20
-71.1088
11
235.345
21
-71.0954
0
LINE
8
BLACK
6
CONTINUOUS
10
235.345
20
-71.0954
11
235.27
21
-71.0499
0
LINE
8
BLACK
6
CONTINUOUS
10
235.27
20
-71.0499
11
235.218
21
-70.9791
0
LINE
8
BLACK
6
CONTINUOUS
10
235.218
20
-70.9791
11
234.901
21
-70.2993
0
LINE
8
BLACK
6
CONTINUOUS
10
234.901
20
-70.2993
11
234.88
21
-70.2141
0
LINE
8
BLACK
6
CONTINUOUS
10
234.88
20
-70.2141
11
234.894
21
-70.1273
0
LINE
8
BLACK
6
CONTINUOUS
10
234.894
20
-70.1273
11
234.939
21
-70.0522
0
LINE
8
BLACK
6
CONTINUOUS
10
234.939
20
-70.0522
11
235.01
21
-70.0003
0
LINE
8
BLACK
6
CONTINUOUS
10
235.01
20
-70.0003
11
235.418
21
-69.8102
0
LINE
8
BLACK
6
CONTINUOUS
10
235.418
20
-69.8102
11
235.503
21
-69.7893
0
LINE
8
BLACK
6
CONTINUOUS
10
235.503
20
-69.7893
11
235.59
21
-69.8026
0
LINE
8
BLACK
6
CONTINUOUS
10
47.9433
20
-69.7042
11
48.3511
21
-69.8943
0
LINE
8
BLACK
6
CONTINUOUS
10
48.3511
20
-69.8943
11
48.4219
21
-69.9462
0
LINE
8
BLACK
6
CONTINUOUS
10
48.4219
20
-69.9462
11
48.4675
21
-70.0213
0
LINE
8
BLACK
6
CONTINUOUS
10
48.4675
20
-70.0213
11
48.4808
21
-70.1081
0
LINE
8
BLACK
6
CONTINUOUS
10
48.4808
20
-70.1081
11
48.46
21
-70.1933
0
LINE
8
BLACK
6
CONTINUOUS
10
48.46
20
-70.1933
11
48.143
21
-70.8731
0
LINE
8
BLACK
6
CONTINUOUS
10
48.143
20
-70.8731
11
48.0911
21
-70.9439
0
LINE
8
BLACK
6
CONTINUOUS
10
48.0911
20
-70.9439
11
48.016
21
-70.9894
0
LINE
8
BLACK
6
CONTINUOUS
10
48.016
20
-70.9894
11
47.9293
21
-71.0028
0
LINE
8
BLACK
6
CONTINUOUS
10
47.9293
20
-71.0028
11
47.844
21
-70.9819
0
LINE
8
BLACK
6
CONTINUOUS
10
47.844
20
-70.9819
11
47.4361
21
-70.7917
0
LINE
8
BLACK
6
CONTINUOUS
10
47.4361
20
-70.7917
11
47.3653
21
-70.7398
0
LINE
8
BLACK
6
CONTINUOUS
10
47.3653
20
-70.7398
11
47.3198
21
-70.6648
0
LINE
8
BLACK
6
CONTINUOUS
10
47.3198
20
-70.6648
11
47.3064
21
-70.578
0
LINE
8
BLACK
6
CONTINUOUS
10
47.3064
20
-70.578
11
47.3273
21
-70.4927
0
LINE
8
BLACK
6
CONTINUOUS
10
47.3273
20
-70.4927
11
47.6443
21
-69.813
0
LINE
8
BLACK
6
CONTINUOUS
10
47.6443
20
-69.813
11
47.6962
21
-69.7422
0
LINE
8
BLACK
6
CONTINUOUS
10
47.6962
20
-69.7422
11
47.7712
21
-69.6966
0
LINE
8
BLACK
6
CONTINUOUS
10
47.7712
20
-69.6966
11
47.858
21
-69.6833
0
LINE
8
BLACK
6
CONTINUOUS
10
47.858
20
-69.6833
11
47.9433
21
-69.7042
0
LINE
8
BLACK
6
CONTINUOUS
10
253.244
20
-69.7044
11
250.933
21
-70.7821
0
LINE
8
BLACK
6
CONTINUOUS
10
250.933
20
-70.7821
11
249.877
21
-68.5163
0
LINE
8
BLACK
6
CONTINUOUS
10
249.877
20
-68.5163
11
252.188
21
-67.4387
0
LINE
8
BLACK
6
CONTINUOUS
10
252.188
20
-67.4387
11
253.244
21
-69.7044
0
LINE
8
BLACK
6
CONTINUOUS
10
196.917
20
-69.3392
11
196.992
21
-69.3848
0
LINE
8
BLACK
6
CONTINUOUS
10
196.992
20
-69.3848
11
197.044
21
-69.4556
0
LINE
8
BLACK
6
CONTINUOUS
10
197.044
20
-69.4556
11
197.361
21
-70.1353
0
LINE
8
BLACK
6
CONTINUOUS
10
197.361
20
-70.1353
11
197.382
21
-70.2206
0
LINE
8
BLACK
6
CONTINUOUS
10
197.382
20
-70.2206
11
197.368
21
-70.3074
0
LINE
8
BLACK
6
CONTINUOUS
10
197.368
20
-70.3074
11
197.323
21
-70.3824
0
LINE
8
BLACK
6
CONTINUOUS
10
197.323
20
-70.3824
11
197.252
21
-70.4343
0
LINE
8
BLACK
6
CONTINUOUS
10
197.252
20
-70.4343
11
196.844
21
-70.6245
0
LINE
8
BLACK
6
CONTINUOUS
10
196.844
20
-70.6245
11
196.759
21
-70.6454
0
LINE
8
BLACK
6
CONTINUOUS
10
196.759
20
-70.6454
11
196.672
21
-70.632
0
LINE
8
BLACK
6
CONTINUOUS
10
196.672
20
-70.632
11
196.597
21
-70.5865
0
LINE
8
BLACK
6
CONTINUOUS
10
196.597
20
-70.5865
11
196.545
21
-70.5157
0
LINE
8
BLACK
6
CONTINUOUS
10
196.545
20
-70.5157
11
196.228
21
-69.8359
0
LINE
8
BLACK
6
CONTINUOUS
10
196.228
20
-69.8359
11
196.207
21
-69.7507
0
LINE
8
BLACK
6
CONTINUOUS
10
196.207
20
-69.7507
11
196.221
21
-69.6639
0
LINE
8
BLACK
6
CONTINUOUS
10
196.221
20
-69.6639
11
196.266
21
-69.5888
0
LINE
8
BLACK
6
CONTINUOUS
10
196.266
20
-69.5888
11
196.337
21
-69.5369
0
LINE
8
BLACK
6
CONTINUOUS
10
196.337
20
-69.5369
11
196.745
21
-69.3468
0
LINE
8
BLACK
6
CONTINUOUS
10
196.745
20
-69.3468
11
196.83
21
-69.3259
0
LINE
8
BLACK
6
CONTINUOUS
10
196.83
20
-69.3259
11
196.917
21
-69.3392
0
LINE
8
BLACK
6
CONTINUOUS
10
86.5589
20
-68.9336
11
86.9667
21
-69.1238
0
LINE
8
BLACK
6
CONTINUOUS
10
86.9667
20
-69.1238
11
87.0375
21
-69.1757
0
LINE
8
BLACK
6
CONTINUOUS
10
87.0375
20
-69.1757
11
87.0831
21
-69.2508
0
LINE
8
BLACK
6
CONTINUOUS
10
87.0831
20
-69.2508
11
87.0964
21
-69.3375
0
LINE
8
BLACK
6
CONTINUOUS
10
87.0964
20
-69.3375
11
87.0756
21
-69.4228
0
LINE
8
BLACK
6
CONTINUOUS
10
87.0756
20
-69.4228
11
86.7586
21
-70.1025
0
LINE
8
BLACK
6
CONTINUOUS
10
86.7586
20
-70.1025
11
86.7067
21
-70.1733
0
LINE
8
BLACK
6
CONTINUOUS
10
86.7067
20
-70.1733
11
86.6316
21
-70.2189
0
LINE
8
BLACK
6
CONTINUOUS
10
86.6316
20
-70.2189
11
86.5449
21
-70.2322
0
LINE
8
BLACK
6
CONTINUOUS
10
86.5449
20
-70.2322
11
86.4596
21
-70.2114
0
LINE
8
BLACK
6
CONTINUOUS
10
86.4596
20
-70.2114
11
86.0518
21
-70.0212
0
LINE
8
BLACK
6
CONTINUOUS
10
86.0518
20
-70.0212
11
85.981
21
-69.9693
0
LINE
8
BLACK
6
CONTINUOUS
10
85.981
20
-69.9693
11
85.9354
21
-69.8942
0
LINE
8
BLACK
6
CONTINUOUS
10
85.9354
20
-69.8942
11
85.9221
21
-69.8075
0
LINE
8
BLACK
6
CONTINUOUS
10
85.9221
20
-69.8075
11
85.9429
21
-69.7222
0
LINE
8
BLACK
6
CONTINUOUS
10
85.9429
20
-69.7222
11
86.2599
21
-69.0425
0
LINE
8
BLACK
6
CONTINUOUS
10
86.2599
20
-69.0425
11
86.3118
21
-68.9717
0
LINE
8
BLACK
6
CONTINUOUS
10
86.3118
20
-68.9717
11
86.3869
21
-68.9261
0
LINE
8
BLACK
6
CONTINUOUS
10
86.3869
20
-68.9261
11
86.4736
21
-68.9128
0
LINE
8
BLACK
6
CONTINUOUS
10
86.4736
20
-68.9128
11
86.5589
21
-68.9336
0
LINE
8
BLACK
6
CONTINUOUS
10
238.581
20
-68.408
11
238.656
21
-68.4535
0
LINE
8
BLACK
6
CONTINUOUS
10
238.656
20
-68.4535
11
238.708
21
-68.5243
0
LINE
8
BLACK
6
CONTINUOUS
10
238.708
20
-68.5243
11
239.025
21
-69.2041
0
LINE
8
BLACK
6
CONTINUOUS
10
239.025
20
-69.2041
11
239.046
21
-69.2894
0
LINE
8
BLACK
6
CONTINUOUS
10
239.046
20
-69.2894
11
239.032
21
-69.3761
0
LINE
8
BLACK
6
CONTINUOUS
10
239.032
20
-69.3761
11
238.987
21
-69.4512
0
LINE
8
BLACK
6
CONTINUOUS
10
238.987
20
-69.4512
11
238.916
21
-69.5031
0
LINE
8
BLACK
6
CONTINUOUS
10
238.916
20
-69.5031
11
238.508
21
-69.6933
0
LINE
8
BLACK
6
CONTINUOUS
10
238.508
20
-69.6933
11
238.423
21
-69.7141
0
LINE
8
BLACK
6
CONTINUOUS
10
238.423
20
-69.7141
11
238.336
21
-69.7008
0
LINE
8
BLACK
6
CONTINUOUS
10
238.336
20
-69.7008
11
238.261
21
-69.6552
0
LINE
8
BLACK
6
CONTINUOUS
10
238.261
20
-69.6552
11
238.209
21
-69.5844
0
LINE
8
BLACK
6
CONTINUOUS
10
238.209
20
-69.5844
11
237.892
21
-68.9047
0
LINE
8
BLACK
6
CONTINUOUS
10
237.892
20
-68.9047
11
237.871
21
-68.8194
0
LINE
8
BLACK
6
CONTINUOUS
10
237.871
20
-68.8194
11
237.885
21
-68.7327
0
LINE
8
BLACK
6
CONTINUOUS
10
237.885
20
-68.7327
11
237.93
21
-68.6576
0
LINE
8
BLACK
6
CONTINUOUS
10
237.93
20
-68.6576
11
238.001
21
-68.6057
0
LINE
8
BLACK
6
CONTINUOUS
10
238.001
20
-68.6057
11
238.409
21
-68.4155
0
LINE
8
BLACK
6
CONTINUOUS
10
238.409
20
-68.4155
11
238.494
21
-68.3947
0
LINE
8
BLACK
6
CONTINUOUS
10
238.494
20
-68.3947
11
238.581
21
-68.408
0
LINE
8
BLACK
6
CONTINUOUS
10
44.9525
20
-68.3095
11
45.3603
21
-68.4997
0
LINE
8
BLACK
6
CONTINUOUS
10
45.3603
20
-68.4997
11
45.4311
21
-68.5516
0
LINE
8
BLACK
6
CONTINUOUS
10
45.4311
20
-68.5516
11
45.4767
21
-68.6267
0
LINE
8
BLACK
6
CONTINUOUS
10
45.4767
20
-68.6267
11
45.49
21
-68.7134
0
LINE
8
BLACK
6
CONTINUOUS
10
45.49
20
-68.7134
11
45.4691
21
-68.7987
0
LINE
8
BLACK
6
CONTINUOUS
10
45.4691
20
-68.7987
11
45.1522
21
-69.4784
0
LINE
8
BLACK
6
CONTINUOUS
10
45.1522
20
-69.4784
11
45.1003
21
-69.5492
0
LINE
8
BLACK
6
CONTINUOUS
10
45.1003
20
-69.5492
11
45.0252
21
-69.5948
0
LINE
8
BLACK
6
CONTINUOUS
10
45.0252
20
-69.5948
11
44.9384
21
-69.6081
0
LINE
8
BLACK
6
CONTINUOUS
10
44.9384
20
-69.6081
11
44.8532
21
-69.5873
0
LINE
8
BLACK
6
CONTINUOUS
10
44.8532
20
-69.5873
11
44.4453
21
-69.3971
0
LINE
8
BLACK
6
CONTINUOUS
10
44.4453
20
-69.3971
11
44.3745
21
-69.3452
0
LINE
8
BLACK
6
CONTINUOUS
10
44.3745
20
-69.3452
11
44.329
21
-69.2701
0
LINE
8
BLACK
6
CONTINUOUS
10
44.329
20
-69.2701
11
44.3156
21
-69.1833
0
LINE
8
BLACK
6
CONTINUOUS
10
44.3156
20
-69.1833
11
44.3365
21
-69.0981
0
LINE
8
BLACK
6
CONTINUOUS
10
44.3365
20
-69.0981
11
44.6535
21
-68.4183
0
LINE
8
BLACK
6
CONTINUOUS
10
44.6535
20
-68.4183
11
44.7054
21
-68.3475
0
LINE
8
BLACK
6
CONTINUOUS
10
44.7054
20
-68.3475
11
44.7804
21
-68.302
0
LINE
8
BLACK
6
CONTINUOUS
10
44.7804
20
-68.302
11
44.8672
21
-68.2886
0
LINE
8
BLACK
6
CONTINUOUS
10
44.8672
20
-68.2886
11
44.9525
21
-68.3095
0
LINE
8
BLACK
6
CONTINUOUS
10
53.7429
20
-67.2072
11
52.6864
21
-69.473
0
LINE
8
BLACK
6
CONTINUOUS
10
52.6864
20
-69.473
11
50.3753
21
-68.3953
0
LINE
8
BLACK
6
CONTINUOUS
10
50.3753
20
-68.3953
11
51.4318
21
-66.1296
0
LINE
8
BLACK
6
CONTINUOUS
10
51.4318
20
-66.1296
11
53.7429
21
-67.2072
0
LINE
8
BLACK
6
CONTINUOUS
10
213.506
20
-67.2552
11
213.581
21
-67.3007
0
LINE
8
BLACK
6
CONTINUOUS
10
213.581
20
-67.3007
11
213.633
21
-67.3715
0
LINE
8
BLACK
6
CONTINUOUS
10
213.633
20
-67.3715
11
213.95
21
-68.0513
0
LINE
8
BLACK
6
CONTINUOUS
10
213.95
20
-68.0513
11
213.971
21
-68.1365
0
LINE
8
BLACK
6
CONTINUOUS
10
213.971
20
-68.1365
11
213.957
21
-68.2233
0
LINE
8
BLACK
6
CONTINUOUS
10
213.957
20
-68.2233
11
213.912
21
-68.2984
0
LINE
8
BLACK
6
CONTINUOUS
10
213.912
20
-68.2984
11
213.841
21
-68.3503
0
LINE
8
BLACK
6
CONTINUOUS
10
213.841
20
-68.3503
11
213.433
21
-68.5405
0
LINE
8
BLACK
6
CONTINUOUS
10
213.433
20
-68.5405
11
213.348
21
-68.5613
0
LINE
8
BLACK
6
CONTINUOUS
10
213.348
20
-68.5613
11
213.261
21
-68.548
0
LINE
8
BLACK
6
CONTINUOUS
10
213.261
20
-68.548
11
213.186
21
-68.5024
0
LINE
8
BLACK
6
CONTINUOUS
10
213.186
20
-68.5024
11
213.134
21
-68.4316
0
LINE
8
BLACK
6
CONTINUOUS
10
213.134
20
-68.4316
11
212.817
21
-67.7519
0
LINE
8
BLACK
6
CONTINUOUS
10
212.817
20
-67.7519
11
212.796
21
-67.6666
0
LINE
8
BLACK
6
CONTINUOUS
10
212.796
20
-67.6666
11
212.809
21
-67.5799
0
LINE
8
BLACK
6
CONTINUOUS
10
212.809
20
-67.5799
11
212.855
21
-67.5048
0
LINE
8
BLACK
6
CONTINUOUS
10
212.855
20
-67.5048
11
212.926
21
-67.4529
0
LINE
8
BLACK
6
CONTINUOUS
10
212.926
20
-67.4529
11
213.334
21
-67.2627
0
LINE
8
BLACK
6
CONTINUOUS
10
213.334
20
-67.2627
11
213.419
21
-67.2418
0
LINE
8
BLACK
6
CONTINUOUS
10
213.419
20
-67.2418
11
213.506
21
-67.2552
0
LINE
8
BLACK
6
CONTINUOUS
10
96.4315
20
-65.8136
11
95.3749
21
-68.0794
0
LINE
8
BLACK
6
CONTINUOUS
10
95.3749
20
-68.0794
11
93.0638
21
-67.0017
0
LINE
8
BLACK
6
CONTINUOUS
10
93.0638
20
-67.0017
11
94.1204
21
-64.736
0
LINE
8
BLACK
6
CONTINUOUS
10
94.1204
20
-64.736
11
96.4315
21
-65.8136
0
LINE
8
BLACK
6
CONTINUOUS
10
70.4752
20
-66.7586
11
70.883
21
-66.9488
0
LINE
8
BLACK
6
CONTINUOUS
10
70.883
20
-66.9488
11
70.9538
21
-67.0007
0
LINE
8
BLACK
6
CONTINUOUS
10
70.9538
20
-67.0007
11
70.9994
21
-67.0757
0
LINE
8
BLACK
6
CONTINUOUS
10
70.9994
20
-67.0757
11
71.0127
21
-67.1625
0
LINE
8
BLACK
6
CONTINUOUS
10
71.0127
20
-67.1625
11
70.9919
21
-67.2478
0
LINE
8
BLACK
6
CONTINUOUS
10
70.9919
20
-67.2478
11
70.6749
21
-67.9275
0
LINE
8
BLACK
6
CONTINUOUS
10
70.6749
20
-67.9275
11
70.623
21
-67.9983
0
LINE
8
BLACK
6
CONTINUOUS
10
70.623
20
-67.9983
11
70.5479
21
-68.0438
0
LINE
8
BLACK
6
CONTINUOUS
10
70.5479
20
-68.0438
11
70.4612
21
-68.0572
0
LINE
8
BLACK
6
CONTINUOUS
10
70.4612
20
-68.0572
11
70.3759
21
-68.0363
0
LINE
8
BLACK
6
CONTINUOUS
10
70.3759
20
-68.0363
11
69.9681
21
-67.8461
0
LINE
8
BLACK
6
CONTINUOUS
10
69.9681
20
-67.8461
11
69.8973
21
-67.7942
0
LINE
8
BLACK
6
CONTINUOUS
10
69.8973
20
-67.7942
11
69.8517
21
-67.7192
0
LINE
8
BLACK
6
CONTINUOUS
10
69.8517
20
-67.7192
11
69.8384
21
-67.6324
0
LINE
8
BLACK
6
CONTINUOUS
10
69.8384
20
-67.6324
11
69.8592
21
-67.5471
0
LINE
8
BLACK
6
CONTINUOUS
10
69.8592
20
-67.5471
11
70.1762
21
-66.8674
0
LINE
8
BLACK
6
CONTINUOUS
10
70.1762
20
-66.8674
11
70.2281
21
-66.7966
0
LINE
8
BLACK
6
CONTINUOUS
10
70.2281
20
-66.7966
11
70.3032
21
-66.7511
0
LINE
8
BLACK
6
CONTINUOUS
10
70.3032
20
-66.7511
11
70.3899
21
-66.7377
0
LINE
8
BLACK
6
CONTINUOUS
10
70.3899
20
-66.7377
11
70.4752
21
-66.7586
0
LINE
8
BLACK
6
CONTINUOUS
10
230.827
20
-66.7056
11
228.516
21
-67.7833
0
LINE
8
BLACK
6
CONTINUOUS
10
228.516
20
-67.7833
11
227.459
21
-65.5175
0
LINE
8
BLACK
6
CONTINUOUS
10
227.459
20
-65.5175
11
229.77
21
-64.4398
0
LINE
8
BLACK
6
CONTINUOUS
10
229.77
20
-64.4398
11
230.827
21
-66.7056
0
LINE
8
BLACK
6
CONTINUOUS
10
216.497
20
-65.8606
11
216.572
21
-65.9061
0
LINE
8
BLACK
6
CONTINUOUS
10
216.572
20
-65.9061
11
216.623
21
-65.9769
0
LINE
8
BLACK
6
CONTINUOUS
10
216.623
20
-65.9769
11
216.94
21
-66.6566
0
LINE
8
BLACK
6
CONTINUOUS
10
216.94
20
-66.6566
11
216.961
21
-66.7419
0
LINE
8
BLACK
6
CONTINUOUS
10
216.961
20
-66.7419
11
216.948
21
-66.8287
0
LINE
8
BLACK
6
CONTINUOUS
10
216.948
20
-66.8287
11
216.902
21
-66.9037
0
LINE
8
BLACK
6
CONTINUOUS
10
216.902
20
-66.9037
11
216.832
21
-66.9556
0
LINE
8
BLACK
6
CONTINUOUS
10
216.832
20
-66.9556
11
216.424
21
-67.1458
0
LINE
8
BLACK
6
CONTINUOUS
10
216.424
20
-67.1458
11
216.339
21
-67.1667
0
LINE
8
BLACK
6
CONTINUOUS
10
216.339
20
-67.1667
11
216.252
21
-67.1533
0
LINE
8
BLACK
6
CONTINUOUS
10
216.252
20
-67.1533
11
216.177
21
-67.1078
0
LINE
8
BLACK
6
CONTINUOUS
10
216.177
20
-67.1078
11
216.125
21
-67.037
0
LINE
8
BLACK
6
CONTINUOUS
10
216.125
20
-67.037
11
215.808
21
-66.3573
0
LINE
8
BLACK
6
CONTINUOUS
10
215.808
20
-66.3573
11
215.787
21
-66.272
0
LINE
8
BLACK
6
CONTINUOUS
10
215.787
20
-66.272
11
215.8
21
-66.1852
0
LINE
8
BLACK
6
CONTINUOUS
10
215.8
20
-66.1852
11
215.846
21
-66.1102
0
LINE
8
BLACK
6
CONTINUOUS
10
215.846
20
-66.1102
11
215.917
21
-66.0583
0
LINE
8
BLACK
6
CONTINUOUS
10
215.917
20
-66.0583
11
216.324
21
-65.8681
0
LINE
8
BLACK
6
CONTINUOUS
10
216.324
20
-65.8681
11
216.41
21
-65.8472
0
LINE
8
BLACK
6
CONTINUOUS
10
216.41
20
-65.8472
11
216.497
21
-65.8606
0
LINE
8
BLACK
6
CONTINUOUS
10
67.4844
20
-65.3639
11
67.8922
21
-65.5541
0
LINE
8
BLACK
6
CONTINUOUS
10
67.8922
20
-65.5541
11
67.963
21
-65.606
0
LINE
8
BLACK
6
CONTINUOUS
10
67.963
20
-65.606
11
68.0086
21
-65.6811
0
LINE
8
BLACK
6
CONTINUOUS
10
68.0086
20
-65.6811
11
68.0219
21
-65.7678
0
LINE
8
BLACK
6
CONTINUOUS
10
68.0219
20
-65.7678
11
68.0011
21
-65.8531
0
LINE
8
BLACK
6
CONTINUOUS
10
68.0011
20
-65.8531
11
67.6841
21
-66.5329
0
LINE
8
BLACK
6
CONTINUOUS
10
67.6841
20
-66.5329
11
67.6322
21
-66.6037
0
LINE
8
BLACK
6
CONTINUOUS
10
67.6322
20
-66.6037
11
67.5571
21
-66.6492
0
LINE
8
BLACK
6
CONTINUOUS
10
67.5571
20
-66.6492
11
67.4704
21
-66.6625
0
LINE
8
BLACK
6
CONTINUOUS
10
67.4704
20
-66.6625
11
67.3851
21
-66.6417
0
LINE
8
BLACK
6
CONTINUOUS
10
67.3851
20
-66.6417
11
66.9772
21
-66.4515
0
LINE
8
BLACK
6
CONTINUOUS
10
66.9772
20
-66.4515
11
66.9064
21
-66.3996
0
LINE
8
BLACK
6
CONTINUOUS
10
66.9064
20
-66.3996
11
66.8609
21
-66.3245
0
LINE
8
BLACK
6
CONTINUOUS
10
66.8609
20
-66.3245
11
66.8476
21
-66.2378
0
LINE
8
BLACK
6
CONTINUOUS
10
66.8476
20
-66.2378
11
66.8684
21
-66.1525
0
LINE
8
BLACK
6
CONTINUOUS
10
66.8684
20
-66.1525
11
67.1854
21
-65.4728
0
LINE
8
BLACK
6
CONTINUOUS
10
67.1854
20
-65.4728
11
67.2373
21
-65.402
0
LINE
8
BLACK
6
CONTINUOUS
10
67.2373
20
-65.402
11
67.3123
21
-65.3564
0
LINE
8
BLACK
6
CONTINUOUS
10
67.3123
20
-65.3564
11
67.3991
21
-65.3431
0
LINE
8
BLACK
6
CONTINUOUS
10
67.3991
20
-65.3431
11
67.4844
21
-65.3639
0
LINE
8
BLACK
6
CONTINUOUS
10
188.197
20
-65.565
11
185.886
21
-66.6427
0
LINE
8
BLACK
6
CONTINUOUS
10
185.886
20
-66.6427
11
184.829
21
-64.3769
0
LINE
8
BLACK
6
CONTINUOUS
10
184.829
20
-64.3769
11
187.14
21
-63.2993
0
LINE
8
BLACK
6
CONTINUOUS
10
187.14
20
-63.2993
11
188.197
21
-65.565
0
LINE
8
BLACK
6
CONTINUOUS
10
192.051
20
-61.5258
11
189.74
21
-62.6035
0
LINE
8
BLACK
6
CONTINUOUS
10
189.74
20
-62.6035
11
188.683
21
-60.3377
0
LINE
8
BLACK
6
CONTINUOUS
10
188.683
20
-60.3377
11
190.994
21
-59.26
0
LINE
8
BLACK
6
CONTINUOUS
10
190.994
20
-59.26
11
192.051
21
-61.5258
0
LINE
8
BLACK
6
CONTINUOUS
10
233.715
20
-60.5946
11
231.404
21
-61.6722
0
LINE
8
BLACK
6
CONTINUOUS
10
231.404
20
-61.6722
11
230.347
21
-59.4065
0
LINE
8
BLACK
6
CONTINUOUS
10
230.347
20
-59.4065
11
232.658
21
-58.3288
0
LINE
8
BLACK
6
CONTINUOUS
10
232.658
20
-58.3288
11
233.715
21
-60.5946
0
LINE
8
BLACK
6
CONTINUOUS
10
94.6998
20
-57.1589
11
93.6433
21
-59.4247
0
LINE
8
BLACK
6
CONTINUOUS
10
93.6433
20
-59.4247
11
91.3322
21
-58.347
0
LINE
8
BLACK
6
CONTINUOUS
10
91.3322
20
-58.347
11
92.3888
21
-56.0813
0
LINE
8
BLACK
6
CONTINUOUS
10
92.3888
20
-56.0813
11
94.6998
21
-57.1589
0
LINE
8
BLACK
6
CONTINUOUS
10
53.0019
20
-56.4921
11
51.9453
21
-58.7579
0
LINE
8
BLACK
6
CONTINUOUS
10
51.9453
20
-58.7579
11
49.6342
21
-57.6802
0
LINE
8
BLACK
6
CONTINUOUS
10
49.6342
20
-57.6802
11
50.6908
21
-55.4145
0
LINE
8
BLACK
6
CONTINUOUS
10
50.6908
20
-55.4145
11
53.0019
21
-56.4921
0
LINE
8
BLACK
6
CONTINUOUS
10
211.272
20
-57.6071
11
208.961
21
-58.6848
0
LINE
8
BLACK
6
CONTINUOUS
10
208.961
20
-58.6848
11
207.905
21
-56.419
0
LINE
8
BLACK
6
CONTINUOUS
10
207.905
20
-56.419
11
210.216
21
-55.3414
0
LINE
8
BLACK
6
CONTINUOUS
10
210.216
20
-55.3414
11
211.272
21
-57.6071
0
LINE
8
BLACK
6
CONTINUOUS
10
81.074
20
-53.6077
11
80.0175
21
-55.8735
0
LINE
8
BLACK
6
CONTINUOUS
10
80.0175
20
-55.8735
11
77.7064
21
-54.7958
0
LINE
8
BLACK
6
CONTINUOUS
10
77.7064
20
-54.7958
11
78.7629
21
-52.53
0
LINE
8
BLACK
6
CONTINUOUS
10
78.7629
20
-52.53
11
81.074
21
-53.6077
0
LINE
8
BLACK
6
CONTINUOUS
10
75.4196
20
-53.4933
11
74.3631
21
-55.7591
0
LINE
8
BLACK
6
CONTINUOUS
10
74.3631
20
-55.7591
11
72.052
21
-54.6814
0
LINE
8
BLACK
6
CONTINUOUS
10
72.052
20
-54.6814
11
73.1085
21
-52.4156
0
LINE
8
BLACK
6
CONTINUOUS
10
73.1085
20
-52.4156
11
75.4196
21
-53.4933
0
LINE
8
BLACK
6
CONTINUOUS
10
39.3761
20
-52.9409
11
38.3195
21
-55.2067
0
LINE
8
BLACK
6
CONTINUOUS
10
38.3195
20
-55.2067
11
36.0084
21
-54.129
0
LINE
8
BLACK
6
CONTINUOUS
10
36.0084
20
-54.129
11
37.065
21
-51.8632
0
LINE
8
BLACK
6
CONTINUOUS
10
37.065
20
-51.8632
11
39.3761
21
-52.9409
0
LINE
8
BLACK
6
CONTINUOUS
10
203.53
20
-53.3705
11
201.218
21
-54.4482
0
LINE
8
BLACK
6
CONTINUOUS
10
201.218
20
-54.4482
11
200.162
21
-52.1824
0
LINE
8
BLACK
6
CONTINUOUS
10
200.162
20
-52.1824
11
202.473
21
-51.1047
0
LINE
8
BLACK
6
CONTINUOUS
10
202.473
20
-51.1047
11
203.53
21
-53.3705
0
LINE
8
BLACK
6
CONTINUOUS
10
245.194
20
-52.4393
11
242.883
21
-53.517
0
LINE
8
BLACK
6
CONTINUOUS
10
242.883
20
-53.517
11
241.826
21
-51.2512
0
LINE
8
BLACK
6
CONTINUOUS
10
241.826
20
-51.2512
11
244.137
21
-50.1735
0
LINE
8
BLACK
6
CONTINUOUS
10
244.137
20
-50.1735
11
245.194
21
-52.4393
0
LINE
8
BLACK
6
CONTINUOUS
10
61.7938
20
-49.9421
11
60.7372
21
-52.2078
0
LINE
8
BLACK
6
CONTINUOUS
10
60.7372
20
-52.2078
11
58.4262
21
-51.1302
0
LINE
8
BLACK
6
CONTINUOUS
10
58.4262
20
-51.1302
11
59.4827
21
-48.8644
0
LINE
8
BLACK
6
CONTINUOUS
10
59.4827
20
-48.8644
11
61.7938
21
-49.9421
0
LINE
8
BLACK
6
CONTINUOUS
10
222.751
20
-49.4519
11
220.44
21
-50.5295
0
LINE
8
BLACK
6
CONTINUOUS
10
220.44
20
-50.5295
11
219.384
21
-48.2638
0
LINE
8
BLACK
6
CONTINUOUS
10
219.384
20
-48.2638
11
221.695
21
-47.1861
0
LINE
8
BLACK
6
CONTINUOUS
10
221.695
20
-47.1861
11
222.751
21
-49.4519
  0
ENDSEC
  0
EOF
