  0
SECTION
  2
HEADER
  9
$ANGBASE
  50
0.0
  9
$ANGDIR
  70
1
  9
$MEASUREMENT
  70
1
  0
ENDSEC
  0
SECTION
  2
TABLES
  0
TABLE
  2
LTYPE
  70
4
  0
LTYPE
  5
40F
  2
CONTINUOUS
  70
0
  3
Solid line
  72
65
  73
0
  40
0.0
  0
LTYPE
  5
410
  2
DASHDOT
 70
0
  3
Dash Dot ____ _ ____ _
 72
65
 73
4
 40
2.0
 49
1.25
 49
-0.25
 49
0.25
 49
-0.25
  0
LTYPE
  5
411
  2
DASHED
 70
0
  3
Dashed __ __ __ __ __
 72
65
 73
2
 40
0.75
 49
0.5
 49
-0.25
  0
LTYPE
  5
43B
  2
DOTTED
 70
0
  3
Dotted .  .  .  .
 72
65
 73
2
 40
0.2
 49
0.0
 49
-0.2
  0
ENDTAB
  0
TABLE
  2
STYLE
  70
4
  0
STYLE
  2
KICAD
  70
0
  40
0
  41
1
  42
1
  50
0
  71
0
  3
isocp.shx
  0
STYLE
  2
KICADB
  70
0
  40
0
  41
1
  42
1
  50
0
  71
0
  3
isocp.shx
  0
STYLE
  2
KICADI
  70
0
  40
0
  41
1
  42
1
  50
15
  71
0
  3
isocp.shx
  0
STYLE
  2
KICADBI
  70
0
  40
0
  41
1
  42
1
  50
15
  71
0
  3
isocp.shx
  0
ENDTAB
  0
TABLE
  2
LAYER
  70
1
  0
LAYER
  2
BLACK
  70
0
  62
7
  6
CONTINUOUS
  0
ENDTAB
  0
ENDSEC
  0
SECTION
  2
ENTITIES
0
LINE
8
BLACK
6
CONTINUOUS
10
143.638
20
-140.36
11
143.238
21
-140.36
0
LINE
8
BLACK
6
CONTINUOUS
10
143.238
20
-140.36
11
143.238
21
-138.76
0
LINE
8
BLACK
6
CONTINUOUS
10
143.238
20
-138.76
11
143.638
21
-138.76
0
LINE
8
BLACK
6
CONTINUOUS
10
143.638
20
-138.76
11
143.638
21
-140.36
0
LINE
8
BLACK
6
CONTINUOUS
10
142.638
20
-140.36
11
142.238
21
-140.36
0
LINE
8
BLACK
6
CONTINUOUS
10
142.238
20
-140.36
11
142.238
21
-138.76
0
LINE
8
BLACK
6
CONTINUOUS
10
142.238
20
-138.76
11
142.638
21
-138.76
0
LINE
8
BLACK
6
CONTINUOUS
10
142.638
20
-138.76
11
142.638
21
-140.36
0
LINE
8
BLACK
6
CONTINUOUS
10
141.638
20
-140.36
11
141.238
21
-140.36
0
LINE
8
BLACK
6
CONTINUOUS
10
141.238
20
-140.36
11
141.238
21
-138.76
0
LINE
8
BLACK
6
CONTINUOUS
10
141.238
20
-138.76
11
141.638
21
-138.76
0
LINE
8
BLACK
6
CONTINUOUS
10
141.638
20
-138.76
11
141.638
21
-140.36
0
LINE
8
BLACK
6
CONTINUOUS
10
140.638
20
-140.36
11
140.238
21
-140.36
0
LINE
8
BLACK
6
CONTINUOUS
10
140.238
20
-140.36
11
140.238
21
-138.76
0
LINE
8
BLACK
6
CONTINUOUS
10
140.238
20
-138.76
11
140.638
21
-138.76
0
LINE
8
BLACK
6
CONTINUOUS
10
140.638
20
-138.76
11
140.638
21
-140.36
0
LINE
8
BLACK
6
CONTINUOUS
10
139.638
20
-140.36
11
139.238
21
-140.36
0
LINE
8
BLACK
6
CONTINUOUS
10
139.238
20
-140.36
11
139.238
21
-138.76
0
LINE
8
BLACK
6
CONTINUOUS
10
139.238
20
-138.76
11
139.638
21
-138.76
0
LINE
8
BLACK
6
CONTINUOUS
10
139.638
20
-138.76
11
139.638
21
-140.36
0
LINE
8
BLACK
6
CONTINUOUS
10
138.638
20
-140.36
11
138.238
21
-140.36
0
LINE
8
BLACK
6
CONTINUOUS
10
138.238
20
-140.36
11
138.238
21
-138.76
0
LINE
8
BLACK
6
CONTINUOUS
10
138.238
20
-138.76
11
138.638
21
-138.76
0
LINE
8
BLACK
6
CONTINUOUS
10
138.638
20
-138.76
11
138.638
21
-140.36
0
LINE
8
BLACK
6
CONTINUOUS
10
144.138
20
-137.96
11
143.738
21
-137.96
0
LINE
8
BLACK
6
CONTINUOUS
10
143.738
20
-137.96
11
143.738
21
-136.36
0
LINE
8
BLACK
6
CONTINUOUS
10
143.738
20
-136.36
11
144.138
21
-136.36
0
LINE
8
BLACK
6
CONTINUOUS
10
144.138
20
-136.36
11
144.138
21
-137.96
0
LINE
8
BLACK
6
CONTINUOUS
10
143.138
20
-137.96
11
142.738
21
-137.96
0
LINE
8
BLACK
6
CONTINUOUS
10
142.738
20
-137.96
11
142.738
21
-136.36
0
LINE
8
BLACK
6
CONTINUOUS
10
142.738
20
-136.36
11
143.138
21
-136.36
0
LINE
8
BLACK
6
CONTINUOUS
10
143.138
20
-136.36
11
143.138
21
-137.96
0
LINE
8
BLACK
6
CONTINUOUS
10
142.138
20
-137.96
11
141.738
21
-137.96
0
LINE
8
BLACK
6
CONTINUOUS
10
141.738
20
-137.96
11
141.738
21
-136.36
0
LINE
8
BLACK
6
CONTINUOUS
10
141.738
20
-136.36
11
142.138
21
-136.36
0
LINE
8
BLACK
6
CONTINUOUS
10
142.138
20
-136.36
11
142.138
21
-137.96
0
LINE
8
BLACK
6
CONTINUOUS
10
141.138
20
-137.96
11
140.738
21
-137.96
0
LINE
8
BLACK
6
CONTINUOUS
10
140.738
20
-137.96
11
140.738
21
-136.36
0
LINE
8
BLACK
6
CONTINUOUS
10
140.738
20
-136.36
11
141.138
21
-136.36
0
LINE
8
BLACK
6
CONTINUOUS
10
141.138
20
-136.36
11
141.138
21
-137.96
0
LINE
8
BLACK
6
CONTINUOUS
10
140.138
20
-137.96
11
139.738
21
-137.96
0
LINE
8
BLACK
6
CONTINUOUS
10
139.738
20
-137.96
11
139.738
21
-136.36
0
LINE
8
BLACK
6
CONTINUOUS
10
139.738
20
-136.36
11
140.138
21
-136.36
0
LINE
8
BLACK
6
CONTINUOUS
10
140.138
20
-136.36
11
140.138
21
-137.96
0
LINE
8
BLACK
6
CONTINUOUS
10
139.138
20
-137.96
11
138.738
21
-137.96
0
LINE
8
BLACK
6
CONTINUOUS
10
138.738
20
-137.96
11
138.738
21
-136.36
0
LINE
8
BLACK
6
CONTINUOUS
10
138.738
20
-136.36
11
139.138
21
-136.36
0
LINE
8
BLACK
6
CONTINUOUS
10
139.138
20
-136.36
11
139.138
21
-137.96
  0
ENDSEC
  0
EOF
